<?xml version="1.0" encoding="UTF-8"?>
<svg width="143px" height="30px" viewBox="0 0 143 30" version="1.1" xmlns="http://www.w3.org/2000/svg" xmlns:xlink="http://www.w3.org/1999/xlink">
    <!-- Generator: Sketch 42 (36781) - http://www.bohemiancoding.com/sketch -->
    <title>Group</title>
    <desc>Created with Sketch.</desc>
    <defs>
        <polygon id="path-1" points="6.25707638 0.0564285714 0 0.0564285714 0 27.3464286 12.5141528 27.3464286 12.5141528 0.0564285714 6.25707638 0.0564285714"></polygon>
        <polygon id="path-3" points="0 29.9436429 142.623457 29.9436429 142.623457 0.714357143 0 0.714357143"></polygon>
    </defs>
    <g id="Page-1" stroke="none" stroke-width="1" fill="none" fill-rule="evenodd">
        <g id="Desktop-HD" transform="translate(-867.000000, -565.000000)">
            <g id="Group" transform="translate(853.000000, 560.000000)">
                <rect id="Rectangle-4-Copy-6" x="0" y="0" width="171" height="40"></rect>
                <g id="Page-1-Copy-4" transform="translate(14.000000, 5.000000)">
                    <g id="Group-3" transform="translate(0.000000, 0.657929)">
                        <mask id="mask-2" fill="white">
                            <use xlink:href="#path-1"></use>
                        </mask>
                        <g id="Clip-2"></g>
                        <path d="M12.5141528,21.1271429 C12.5141528,21.9564286 12.3553437,22.7478571 12.0406,23.5014286 C11.7237005,24.2557143 11.2875146,24.915 10.7327608,25.4807143 C10.1751327,26.0457143 9.52480603,26.4985714 8.77890653,26.8378571 C8.03300704,27.1764286 7.2296201,27.3464286 6.37090151,27.3464286 C5.63793668,27.3464286 4.89275578,27.245 4.1346402,27.045 C3.37508744,26.8435714 2.69242412,26.4985714 2.08665025,26.0085714 C1.4794392,25.5185714 0.979298492,24.8721429 0.587665327,24.0671429 C0.195313568,23.2635714 -0.000143718593,22.2457143 -0.000143718593,21.0135714 L-0.000143718593,6.23785714 C-0.000143718593,5.35857143 0.15219799,4.54214286 0.455444221,3.78785714 C0.758690452,3.03357143 1.18769045,2.38071429 1.74531859,1.82785714 C2.30079095,1.27571429 2.96405226,0.842142857 3.73582111,0.527857143 C4.50615276,0.213571429 5.35912261,0.0564285714 6.29544925,0.0564285714 C7.18003719,0.0564285714 8.00210754,0.213571429 8.75950452,0.527857143 C9.51905729,0.842142857 10.1751327,1.28142857 10.7327608,1.84714286 C11.2875146,2.41214286 11.7237005,3.09071429 12.0406,3.88214286 C12.3553437,4.67357143 12.5141528,5.535 12.5141528,6.46428571 L12.5141528,7.97214286 L8.64524824,7.97214286 L8.64524824,6.69071429 C8.64524824,5.93642857 8.43038894,5.28357143 8.00210754,4.73 C7.57095176,4.17785714 6.99032864,3.90142857 6.25736382,3.90142857 C5.29660503,3.90142857 4.65777588,4.19642857 4.34231357,4.78714286 C4.02541407,5.37785714 3.8687608,6.125 3.8687608,7.03 L3.8687608,20.75 C3.8687608,21.5292857 4.03834874,22.1828571 4.38039899,22.71 C4.72101206,23.2378571 5.33397186,23.5014286 6.2185598,23.5014286 C6.47222312,23.5014286 6.74385126,23.4578571 7.03344422,23.37 C7.32447437,23.2821429 7.59035377,23.1371429 7.83036382,22.9364286 C8.07109246,22.7357143 8.26654975,22.4592857 8.41889146,22.1071429 C8.56979598,21.755 8.64524824,21.3157143 8.64524824,20.7871429 L8.64524824,19.4685714 L12.5141528,19.4685714 L12.5141528,21.1271429 Z" id="Fill-1" fill="#FFFFFF" mask="url(#mask-2)"></path>
                    </g>
                    <polygon id="Fill-4" fill="#FFFFFF" points="15.6615181 0.940357143 19.5289854 0.940357143 19.5289854 23.9332143 27.1891864 23.9332143 27.1891864 27.7782143 15.6615181 27.7782143"></polygon>
                    <polygon id="Fill-6" fill="#FFFFFF" points="29.5393447 0.940357143 33.2559075 0.940357143 39.0959126 17.1110714 39.1713648 17.1110714 39.1713648 0.940357143 43.0402693 0.940357143 43.0402693 27.7782143 39.3998774 27.7782143 33.4837015 11.6453571 33.4082492 11.6453571 33.4082492 27.7782143 29.5393447 27.7782143"></polygon>
                    <mask id="mask-4" fill="white">
                        <use xlink:href="#path-3"></use>
                    </mask>
                    <g id="Clip-9"></g>
                    <polygon id="Fill-8" fill="#FFFFFF" mask="url(#mask-4)" points="45.8354523 15.6529286 53.5481106 15.6529286 53.5481106 13.0550714 45.8354523 13.0550714"></polygon>
                    <polygon id="Fill-10" fill="#FFFFFF" mask="url(#mask-4)" points="60.0606467 13.7183571 55.0168427 0.9405 59.112104 0.9405 62.0331844 8.89407143 64.9909131 0.9405 69.086893 0.9405 63.9281141 13.7183571 69.5029583 27.7783571 65.4069784 27.7783571 62.0331844 18.7319286 58.6960387 27.7783571 54.6007774 27.7783571"></polygon>
                    <path d="M77.7594477,10.8849286 C77.7594477,12.3263571 76.7584477,13.1427857 75.488694,13.1427857 C74.2476839,13.1427857 73.216503,12.3113571 73.216503,10.8849286 L73.216503,3.36921429 C73.216503,1.82421429 74.2476839,1.11064286 75.488694,1.11064286 C76.7584477,1.11064286 77.7594477,2.00207143 77.7594477,3.36921429 L77.7594477,3.75492857 L76.4444226,3.75492857 L76.4444226,3.36921429 C76.4444226,2.71564286 76.0103925,2.4185 75.488694,2.4185 C74.9497492,2.4185 74.5315281,2.71564286 74.5315281,3.36921429 L74.5315281,10.8849286 C74.5315281,11.4199286 74.9497492,11.8356429 75.488694,11.8356429 C76.0103925,11.8356429 76.4444226,11.4199286 76.4444226,10.8849286 L76.4444226,10.7363571 L77.7594477,10.3056429 L77.7594477,10.8849286 Z" id="Fill-11" fill="#FFFFFF" mask="url(#mask-4)"></path>
                    <polygon id="Fill-12" fill="#FFFFFF" mask="url(#mask-4)" points="79.9727859 12.935 78.6577608 12.935 78.6577608 1.25928571 79.9727859 0.828571429"></polygon>
                    <path d="M84.1734648,5.93864286 C84.1734648,5.30007143 83.7394347,4.97292857 83.216299,4.97292857 C82.6787915,4.97292857 82.2605704,5.30007143 82.2605704,5.93864286 L82.2605704,10.8850714 C82.2605704,11.4936429 82.6787915,11.8357857 83.216299,11.8357857 C83.7394347,11.8357857 84.1734648,11.4936429 84.1734648,10.8850714 L84.1734648,5.93864286 Z M85.4884899,10.8850714 C85.4884899,12.2815 84.457309,13.1422143 83.216299,13.1422143 C81.9314548,13.1422143 80.9455452,12.2815 80.9455452,10.8850714 L80.9455452,5.93864286 C80.9455452,4.57221429 81.9314548,3.74007143 83.216299,3.74007143 C84.457309,3.74007143 85.4884899,4.57221429 85.4884899,5.93864286 L85.4884899,10.8850714 Z" id="Fill-13" fill="#FFFFFF" mask="url(#mask-4)"></path>
                    <path d="M90.913795,12.935 L90.0464533,12.935 L89.7475186,12.5042857 C89.5700261,12.7564286 89.2258201,13.1428571 88.3584784,13.1428571 C87.1785487,13.1428571 86.4312121,12.2814286 86.4312121,10.7364286 L86.4312121,3.85857143 L87.7462372,3.85857143 L87.7462372,10.885 C87.7462372,11.4935714 88.134996,11.8357143 88.6732221,11.8357143 C89.194202,11.8357143 89.5994884,11.5385714 89.5994884,10.885 L89.5994884,3.85857143 L90.913795,3.85857143 L90.913795,12.935 Z" id="Fill-14" fill="#FFFFFF" mask="url(#mask-4)"></path>
                    <path d="M94.9664437,5.93864286 C94.9664437,5.30007143 94.5324136,4.97292857 94.0243683,4.97292857 C93.4717704,4.97292857 93.0535492,5.28507143 93.0535492,5.93864286 L93.0535492,10.8850714 C93.0535492,11.5236429 93.4717704,11.8357857 94.0243683,11.8357857 C94.5324136,11.8357857 94.9664437,11.5086429 94.9664437,10.8850714 L94.9664437,5.93864286 Z M96.2951221,12.9350714 L95.4134085,12.9350714 L95.1144739,12.5043571 C95.0102779,12.7715 94.5166045,13.1422143 93.6952528,13.1422143 C92.4851422,13.1422143 91.7378055,12.2222143 91.7378055,10.7807857 L91.7378055,5.93864286 C91.7378055,4.6015 92.4556799,3.74007143 93.7405241,3.74007143 C94.3685744,3.74007143 94.8155392,3.93292857 94.9664437,4.17078571 L94.9664437,1.25935714 L96.2951221,0.828642857 L96.2951221,12.9350714 Z" id="Fill-15" fill="#FFFFFF" mask="url(#mask-4)"></path>
                    <polygon id="Fill-16" fill="#FFFFFF" mask="url(#mask-4)" points="76.5791588 27.5569286 73.2233296 27.5569286 73.2233296 16.6269286 74.4593095 16.6269286 74.4593095 26.3283571 76.5791588 26.3283571"></polygon>
                    <path d="M77.1668241,27.5572143 L78.402804,27.5572143 L78.402804,19.0286429 L77.1668241,19.0286429 L77.1668241,27.5572143 Z M77.8142764,17.7015 C77.4348593,17.7015 77.1675427,17.3529286 77.1675427,16.9343571 C77.1675427,16.5436429 77.4348593,16.1807857 77.8142764,16.1807857 C78.178603,16.1807857 78.445201,16.5300714 78.445201,16.9343571 C78.4308291,17.3665 78.178603,17.7015 77.8142764,17.7015 L77.8142764,17.7015 Z" id="Fill-17" fill="#FFFFFF" mask="url(#mask-4)"></path>
                    <path d="M83.7243442,27.5569286 L82.4883643,27.5569286 L82.4883643,20.9819286 C82.4883643,20.3819286 82.0241533,20.0747857 81.519701,20.0747857 C81.0274648,20.0747857 80.5510377,20.3819286 80.5510377,20.9819286 L80.5510377,27.5569286 L79.3143392,27.5569286 L79.3143392,19.0283571 L80.1292236,19.0283571 L80.4109121,19.4326429 C80.6904447,19.1255 81.0698618,18.9162143 81.7589925,18.9162143 C82.9245503,18.9162143 83.7243442,19.7262143 83.7243442,20.9397857 L83.7243442,27.5569286 Z" id="Fill-18" fill="#FFFFFF" mask="url(#mask-4)"></path>
                    <polygon id="Fill-19" fill="#FFFFFF" mask="url(#mask-4)" points="89.1145101 27.5569286 87.6823543 27.5569286 85.8851533 23.0062143 85.8851533 27.5569286 84.6484548 27.5569286 84.6484548 16.5847857 85.8851533 16.1805 85.8851533 21.5547857 87.4991131 19.0283571 88.8615653 19.0283571 86.8114196 22.2105"></polygon>
                    <path d="M92.5671337,22.9925714 C91.9477065,23.3832857 90.6844201,24.1511429 90.6844201,25.4068571 C90.6844201,26.119 91.0077869,26.5232857 91.611405,26.5232857 C92.271792,26.5232857 92.5671337,25.9932857 92.5671337,25.4068571 L92.5671337,22.9925714 Z M93.7743698,27.5568571 L92.9594854,27.5568571 L92.677797,27.0682857 C92.4679678,27.4311429 92.0612442,27.7518571 91.344807,27.7518571 C90.4314754,27.7518571 89.4771839,27.1104286 89.4771839,25.519 C89.4771839,23.0204286 91.6681739,22.3368571 92.5383899,21.4004286 L92.5383899,20.9825714 C92.5383899,20.4518571 92.3134704,20.0754286 91.8075809,20.0754286 C91.344807,20.0754286 91.0350935,20.2425714 90.8942492,20.6475714 L89.856601,19.9775714 C90.2223648,19.4054286 90.6844201,18.9161429 91.8226714,18.9161429 C92.9882291,18.9161429 93.7743698,19.684 93.7743698,20.9825714 L93.7743698,27.5568571 Z" id="Fill-20" fill="#FFFFFF" mask="url(#mask-4)"></path>
                    <path d="M98.0548126,20.9542857 C98.0548126,20.3264286 97.6200638,20.0464286 97.1292648,20.0464286 C96.6233754,20.0464286 96.2022799,20.3264286 96.2022799,20.9542857 L96.2022799,23.4392857 C96.2022799,24.025 96.6233754,24.3321429 97.1292648,24.3321429 C97.6200638,24.3321429 98.0548126,24.025 98.0548126,23.4392857 L98.0548126,20.9542857 Z M99.2771392,20.0607143 L99.2771392,23.4107143 C99.2771392,24.57 98.7015462,25.295 97.2837623,25.4207143 C96.6233754,25.4771429 96.5112749,25.77 96.5112749,26.0214286 C96.5112749,26.1885714 96.6233754,26.4542857 96.9043452,26.4957143 L99.5861342,26.4957143 L98.8970035,27.7242857 L96.3848025,27.7242857 C95.9069382,27.7242857 95.6403402,27.8914286 95.6403402,28.2271429 C95.6403402,28.5757143 95.9356819,28.7292857 96.3007271,28.7292857 L98.5614206,28.7292857 L97.8873804,29.9435714 L96.2719834,29.9435714 C95.1064256,29.9435714 94.433104,29.2735714 94.433104,28.2407143 C94.433104,27.4171429 94.9663,26.8028571 95.8516065,26.58 C95.5562648,26.4814286 95.4297925,26.245 95.4297925,25.965 C95.4297925,25.7 95.6403402,25.3928571 96.1174859,25.2814286 C95.3586518,24.8907143 94.9936065,24.2764286 94.9936065,23.4107143 L94.9936065,20.9821429 C94.9936065,19.6978571 95.7941191,18.9164286 97.0588427,18.9164286 C97.7048578,18.9164286 98.1388879,19.0142857 98.3501543,19.1257143 L99.8800387,19.1257143 L99.2771392,20.0607143 Z" id="Fill-21" fill="#FFFFFF" mask="url(#mask-4)"></path>
                    <path d="M102.421127,20.0750714 C101.915238,20.0750714 101.522167,20.3815 101.522167,20.9822143 L101.522167,23.8572143 C103.009655,23.1600714 103.31865,22.5172143 103.31865,21.2200714 C103.31865,20.3679286 102.912645,20.0750714 102.421127,20.0750714 L102.421127,20.0750714 Z M104.471991,25.6300714 C104.471991,26.9700714 103.557941,27.7522143 102.37873,27.7522143 C101.185147,27.7522143 100.286187,26.9700714 100.286187,25.6300714 L100.286187,20.9822143 C100.286187,19.6422143 101.212454,18.9165 102.421127,18.9165 C103.585966,18.9165 104.555348,19.7115 104.555348,21.1500714 C104.555348,23.4529286 103.657107,24.1229286 101.522167,25.2115 L101.522167,25.6300714 C101.522167,26.2029286 101.859187,26.5236429 102.37873,26.5236429 C102.870248,26.5236429 103.220921,26.2029286 103.220921,25.6300714 L103.220921,25.4907857 L104.471991,25.0857857 L104.471991,25.6300714 Z" id="Fill-22" fill="#FFFFFF" mask="url(#mask-4)"></path>
                    <polygon id="Fill-23" fill="#FFFFFF" mask="url(#mask-4)" points="112.288415 27.5569286 111.194716 27.5569286 109.186249 20.8983571 109.186249 27.5569286 108.019972 27.5569286 108.019972 16.6269286 109.255952 16.6269286 111.137229 23.3690714 111.137229 16.6269286 112.288415 16.6269286"></polygon>
                    <path d="M115.334746,20.0750714 C114.828856,20.0750714 114.435786,20.3815 114.435786,20.9822143 L114.435786,23.8572143 C115.924711,23.1600714 116.232987,22.5172143 116.232987,21.2200714 C116.232987,20.3679286 115.826263,20.0750714 115.334746,20.0750714 L115.334746,20.0750714 Z M117.384173,25.6300714 C117.384173,26.9700714 116.47156,27.7522143 115.290912,27.7522143 C114.098766,27.7522143 113.199806,26.9700714 113.199806,25.6300714 L113.199806,20.9822143 C113.199806,19.6422143 114.126791,18.9165 115.334746,18.9165 C116.499585,18.9165 117.469685,19.7115 117.469685,21.1500714 C117.469685,23.4529286 116.570726,24.1229286 114.435786,25.2115 L114.435786,25.6300714 C114.435786,26.2029286 114.772087,26.5236429 115.290912,26.5236429 C115.783866,26.5236429 116.13454,26.2029286 116.13454,25.6300714 L116.13454,25.4907857 L117.384173,25.0857857 L117.384173,25.6300714 Z" id="Fill-24" fill="#FFFFFF" mask="url(#mask-4)"></path>
                    <path d="M121.356483,26.2448571 L122.212327,27.1662857 C121.889679,27.5284286 121.342111,27.752 120.851312,27.752 C119.558563,27.752 118.927639,27.0127143 118.927639,25.6441429 L118.927639,20.1162857 L118.140061,20.1162857 L118.140061,19.0277143 L118.927639,19.0277143 L118.927639,17.4784286 L120.162181,17.0598571 L120.162181,19.0277143 L121.791232,19.0277143 L121.791232,20.1162857 L120.162181,20.1162857 L120.162181,25.6441429 C120.162181,26.2162857 120.373448,26.5234286 120.79598,26.5234286 C121.061141,26.5234286 121.258036,26.412 121.356483,26.2448571" id="Fill-25" fill="#FFFFFF" mask="url(#mask-4)"></path>
                    <polygon id="Fill-26" fill="#FFFFFF" mask="url(#mask-4)" points="129.345153 19.0280714 127.827484 27.5566429 126.689952 27.5566429 125.861414 22.4759286 125.019223 27.5566429 123.88169 27.5566429 122.407138 19.0280714 123.783962 19.0280714 124.442912 24.4159286 125.384268 19.0280714 126.437726 19.0280714 127.379082 24.4159286 128.038032 19.0280714"></polygon>
                    <path d="M132.641985,20.9822143 C132.641985,20.3815 132.235262,20.0750714 131.743744,20.0750714 C131.237136,20.0750714 130.844784,20.3815 130.844784,20.9822143 L130.844784,25.6300714 C130.844784,26.2029286 131.237136,26.5236429 131.743744,26.5236429 C132.235262,26.5236429 132.641985,26.2029286 132.641985,25.6300714 L132.641985,20.9822143 Z M133.877965,25.6300714 C133.877965,26.9429286 132.908583,27.7522143 131.743744,27.7522143 C130.535071,27.7522143 129.608805,26.9429286 129.608805,25.6300714 L129.608805,20.9822143 C129.608805,19.6979286 130.535071,18.9165 131.743744,18.9165 C132.908583,18.9165 133.877965,19.6979286 133.877965,20.9822143 L133.877965,25.6300714 Z" id="Fill-27" fill="#FFFFFF" mask="url(#mask-4)"></path>
                    <path d="M137.639153,19.1532857 L137.217339,20.2561429 C137.146198,20.1725714 137.021881,20.1447143 136.837922,20.1447143 C136.403891,20.1447143 136.009384,20.5497143 136.009384,21.1082857 L136.009384,27.5568571 L134.774841,27.5568571 L134.774841,19.0282857 L135.588288,19.0282857 L135.86854,19.5725714 C136.024474,19.279 136.361494,18.9161429 136.908344,18.9161429 C137.230992,18.9161429 137.484655,18.9997143 137.639153,19.1532857" id="Fill-28" fill="#FFFFFF" mask="url(#mask-4)"></path>
                    <polygon id="Fill-29" fill="#FFFFFF" mask="url(#mask-4)" points="142.623026 27.5569286 141.19087 27.5569286 139.393669 23.0062143 139.393669 27.5569286 138.156971 27.5569286 138.156971 16.5847857 139.393669 16.1805 139.393669 21.5547857 141.007629 19.0283571 142.370081 19.0283571 140.319936 22.2105"></polygon>
                </g>
            </g>
        </g>
    </g>
</svg>