<?xml version="1.0" encoding="UTF-8"?>
<svg width="242px" height="698px" viewBox="0 0 242 698" version="1.1" xmlns="http://www.w3.org/2000/svg" xmlns:xlink="http://www.w3.org/1999/xlink">
    <!-- Generator: Sketch 41.2 (35397) - http://www.bohemiancoding.com/sketch -->
    <title>Group 10</title>
    <desc>Created with Sketch.</desc>
    <defs></defs>
    <g id="Page-1" stroke="none" stroke-width="1" fill="none" fill-rule="evenodd">
        <g id="Artboard-Copy" transform="translate(-33.000000, -495.000000)">
            <g id="Group-10" transform="translate(23.000000, 484.000000)">
                <g id="Group" transform="translate(9.000000, 0.000000)">
                    <g id="Page-1" transform="translate(56.000000, 44.000000)" fill="#4990E2">
                        <path d="M12.4445351,10.005444 L12.4445351,12.0311826 C12.4445351,14.6414217 10.00695,16.7576595 7.00007687,16.7576595 C3.99323921,16.7576595 1.55565412,14.6414217 1.55565412,12.0311826 L1.55565412,10.005444 L2.36286911e-05,10.005444 L2.36286911e-05,12.0311826 C2.36286911e-05,15.1589954 2.33341319,17.6641025 5.83333333,18 L5.83333333,21 L3.5,21 L3.5,22 L10.5,22 L10.5,21 L8.16666667,21 L8.16666667,18 C11.6665513,17.6641025 14.0000236,15.1589954 14.0000236,12.0311826 L14.0000236,10.005444 L12.4445351,10.005444 Z M10.5,11.5 L10.5,3.25212306 C10.5,1.38750805 9.14781218,0 7,0 C4.85222332,0 3.5,1.38750805 3.5,3.25212306 L3.5,11.5 C3.5,13.3645842 4.85222332,15 7,15 C9.14781218,15 10.5,13.3645842 10.5,11.5 Z" id="Fill-1"></path>
                    </g>
                    <text id="哈尔滨" font-family="PingFangSC-Medium, PingFang SC" font-size="11" font-weight="400" line-spacing="32" letter-spacing="1.0999999" fill="#9B9B9B">
                        <tspan x="44.3500001" y="29">哈尔滨</tspan>
                    </text>
                    <text id="9月18日" font-family="PingFangSC-Medium, PingFang SC" font-size="11" font-weight="400" line-spacing="32" letter-spacing="1.0999999" fill="#9B9B9B">
                        <tspan x="40.4060002" y="12">9月18日</tspan>
                    </text>
                    <text id="18：30-21：30" font-family="PingFangSC-Regular, PingFang SC" font-size="9" font-weight="normal" line-spacing="32" letter-spacing="0.899999976" fill="#9B9B9B">
                        <tspan x="26.5185001" y="107">18：30-21：30</tspan>
                    </text>
                    <text id="哈尔滨工业大学" font-family="PingFangSC-Medium, PingFang SC" font-size="12" font-weight="400" line-spacing="32" letter-spacing="1.19999993" fill="#4990E2">
                        <tspan x="16.8000003" y="79">哈尔滨工业大学</tspan>
                    </text>
                    <text id="本部（西校区）" font-family="PingFangSC-Regular, PingFang SC" font-size="9" font-weight="normal" line-spacing="32" letter-spacing="0.899999976" fill="#4990E2">
                        <tspan x="27.8500001" y="93">本部（西校区）</tspan>
                    </text>
                </g>
                <g id="Group-2" transform="translate(155.000000, 0.000000)">
                    <g id="Page-1-Copy-2" transform="translate(30.000000, 44.000000)" fill="#4990E2">
                        <path d="M10.6667444,10.005444 L10.6667444,12.0311826 C10.6667444,14.6414217 8.57738574,16.7576595 6.00006589,16.7576595 C3.42277646,16.7576595 1.33341781,14.6414217 1.33341781,12.0311826 L1.33341781,10.005444 L2.02531633e-05,10.005444 L2.02531633e-05,12.0311826 C2.02531633e-05,15.1589954 2.00006845,17.6641025 5,18 L5,21 L3,21 L3,22 L9,22 L9,21 L7,21 L7,18 C9.99990112,17.6641025 12.0000203,15.1589954 12.0000203,12.0311826 L12.0000203,10.005444 L10.6667444,10.005444 Z M9,11.5 L9,3.25212306 C9,1.38750805 7.84098187,0 6,0 C4.15904856,0 3,1.38750805 3,3.25212306 L3,11.5 C3,13.3645842 4.15904856,15 6,15 C7.84098187,15 9,13.3645842 9,11.5 Z" id="Fill-1"></path>
                    </g>
                    <text id="沈阳" font-family="PingFangSC-Medium, PingFang SC" font-size="11" font-weight="400" line-spacing="32" letter-spacing="1.0999999" fill="#9B9B9B">
                        <tspan x="24.4000001" y="29">沈阳</tspan>
                    </text>
                    <text id="9月20日" font-family="PingFangSC-Medium, PingFang SC" font-size="11" font-weight="400" line-spacing="32" letter-spacing="1.0999999" fill="#9B9B9B">
                        <tspan x="12.3500002" y="12">9月20日</tspan>
                    </text>
                    <text id="18：30-21：30" font-family="PingFangSC-Regular, PingFang SC" font-size="9" font-weight="normal" line-spacing="32" letter-spacing="0.899999976" fill="#9B9B9B">
                        <tspan x="0.0185001311" y="107">18：30-21：30</tspan>
                    </text>
                    <text id="东北大学" font-family="PingFangSC-Medium, PingFang SC" font-size="12" font-weight="400" line-spacing="32" letter-spacing="1.19999993" fill="#4990E2">
                        <tspan x="10.1000001" y="79">东北大学</tspan>
                    </text>
                    <text id="浑南校区" font-family="PingFangSC-Regular, PingFang SC" font-size="9" font-weight="normal" line-spacing="32" letter-spacing="0.899999976" fill="#4990E2">
                        <tspan x="16.2" y="93">浑南校区</tspan>
                    </text>
                </g>
                <g id="Group-4" transform="translate(10.000000, 147.000000)">
                    <g id="Page-1-Copy-3" transform="translate(56.000000, 45.000000)" fill="#4990E2">
                        <path d="M10.6667444,10.005444 L10.6667444,12.0311826 C10.6667444,14.6414217 8.57738574,16.7576595 6.00006589,16.7576595 C3.42277646,16.7576595 1.33341781,14.6414217 1.33341781,12.0311826 L1.33341781,10.005444 L2.02531633e-05,10.005444 L2.02531633e-05,12.0311826 C2.02531633e-05,15.1589954 2.00006845,17.6641025 5,18 L5,21 L3,21 L3,22 L9,22 L9,21 L7,21 L7,18 C9.99990112,17.6641025 12.0000203,15.1589954 12.0000203,12.0311826 L12.0000203,10.005444 L10.6667444,10.005444 Z M9,11.5 L9,3.25212306 C9,1.38750805 7.84098187,0 6,0 C4.15904856,0 3,1.38750805 3,3.25212306 L3,11.5 C3,13.3645842 4.15904856,15 6,15 C7.84098187,15 9,13.3645842 9,11.5 Z" id="Fill-1"></path>
                    </g>
                    <text id="北京" font-family="PingFangSC-Medium, PingFang SC" font-size="11" font-weight="400" line-spacing="32" letter-spacing="1.0999999" fill="#9B9B9B">
                        <tspan x="49.4000001" y="29">北京</tspan>
                    </text>
                    <text id="9月21日" font-family="PingFangSC-Medium, PingFang SC" font-size="11" font-weight="400" line-spacing="32" letter-spacing="1.0999999" fill="#9B9B9B">
                        <tspan x="39.4060002" y="12">9月21日</tspan>
                    </text>
                    <text id="18：30-21：30" font-family="PingFangSC-Regular, PingFang SC" font-size="9" font-weight="normal" line-spacing="32" letter-spacing="0.899999976" fill="#9B9B9B">
                        <tspan x="25.5185001" y="107">18：30-21：30</tspan>
                    </text>
                    <text id="北京邮电大学" font-family="PingFangSC-Medium, PingFang SC" font-size="12" font-weight="400" line-spacing="32" letter-spacing="1.19999993" fill="#4990E2">
                        <tspan x="22.4000002" y="79">北京邮电大学</tspan>
                    </text>
                    <text id="本部" font-family="PingFangSC-Regular, PingFang SC" font-size="9" font-weight="normal" line-spacing="32" letter-spacing="0.899999976" fill="#4990E2">
                        <tspan x="51.6" y="93">本部</tspan>
                    </text>
                </g>
                <g id="Group-6" transform="translate(128.000000, 295.000000)">
                    <g id="Page-1" transform="translate(56.000000, 45.000000)" fill="#4990E2">
                        <path d="M12.4445351,10.005444 L12.4445351,12.0311826 C12.4445351,14.6414217 10.00695,16.7576595 7.00007687,16.7576595 C3.99323921,16.7576595 1.55565412,14.6414217 1.55565412,12.0311826 L1.55565412,10.005444 L2.36286911e-05,10.005444 L2.36286911e-05,12.0311826 C2.36286911e-05,15.1589954 2.33341319,17.6641025 5.83333333,18 L5.83333333,21 L3.5,21 L3.5,22 L10.5,22 L10.5,21 L8.16666667,21 L8.16666667,18 C11.6665513,17.6641025 14.0000236,15.1589954 14.0000236,12.0311826 L14.0000236,10.005444 L12.4445351,10.005444 Z M10.5,11.5 L10.5,3.25212306 C10.5,1.38750805 9.14781218,0 7,0 C4.85222332,0 3.5,1.38750805 3.5,3.25212306 L3.5,11.5 C3.5,13.3645842 4.85222332,15 7,15 C9.14781218,15 10.5,13.3645842 10.5,11.5 Z" id="Fill-1"></path>
                    </g>
                    <text id="厦门" font-family="PingFangSC-Medium, PingFang SC" font-size="11" font-weight="400" line-spacing="32" letter-spacing="1.0999999" fill="#9B9B9B">
                        <tspan x="51.4000001" y="29">厦门</tspan>
                    </text>
                    <text id="10月10日" font-family="PingFangSC-Medium, PingFang SC" font-size="11" font-weight="400" line-spacing="32" letter-spacing="1.0999999" fill="#9B9B9B">
                        <tspan x="37.6120003" y="12">10月10日</tspan>
                    </text>
                    <text id="18：30-21：30" font-family="PingFangSC-Regular, PingFang SC" font-size="9" font-weight="normal" line-spacing="32" letter-spacing="0.899999976" fill="#9B9B9B">
                        <tspan x="26.5185001" y="107">18：30-21：30</tspan>
                    </text>
                    <text id="厦门大学" font-family="PingFangSC-Medium, PingFang SC" font-size="12" font-weight="400" line-spacing="32" letter-spacing="1.19999993" fill="#4990E2">
                        <tspan x="36.6000001" y="79">厦门大学</tspan>
                    </text>
                    <text id="思明校区" font-family="PingFangSC-Regular, PingFang SC" font-size="9" font-weight="normal" line-spacing="32" letter-spacing="0.899999976" fill="#4990E2">
                        <tspan x="43.7" y="93">思明校区</tspan>
                    </text>
                </g>
                <g id="Group-5" transform="translate(0.000000, 295.000000)">
                    <g id="Page-1-Copy-2" transform="translate(66.000000, 45.000000)" fill="#4990E2">
                        <path d="M10.6667444,10.005444 L10.6667444,12.0311826 C10.6667444,14.6414217 8.57738574,16.7576595 6.00006589,16.7576595 C3.42277646,16.7576595 1.33341781,14.6414217 1.33341781,12.0311826 L1.33341781,10.005444 L2.02531633e-05,10.005444 L2.02531633e-05,12.0311826 C2.02531633e-05,15.1589954 2.00006845,17.6641025 5,18 L5,21 L3,21 L3,22 L9,22 L9,21 L7,21 L7,18 C9.99990112,17.6641025 12.0000203,15.1589954 12.0000203,12.0311826 L12.0000203,10.005444 L10.6667444,10.005444 Z M9,11.5 L9,3.25212306 C9,1.38750805 7.84098187,0 6,0 C4.15904856,0 3,1.38750805 3,3.25212306 L3,11.5 C3,13.3645842 4.15904856,15 6,15 C7.84098187,15 9,13.3645842 9,11.5 Z" id="Fill-1"></path>
                    </g>
                    <text id="西安" font-family="PingFangSC-Medium, PingFang SC" font-size="11" font-weight="400" line-spacing="32" letter-spacing="1.0999999" fill="#9B9B9B">
                        <tspan x="59.4000001" y="29">西安</tspan>
                    </text>
                    <text id="9月27日" font-family="PingFangSC-Medium, PingFang SC" font-size="11" font-weight="400" line-spacing="32" letter-spacing="1.0999999" fill="#9B9B9B">
                        <tspan x="48.6195002" y="12">9月27日</tspan>
                    </text>
                    <text id="18：30-21：30" font-family="PingFangSC-Regular, PingFang SC" font-size="9" font-weight="normal" line-spacing="32" letter-spacing="0.899999976" fill="#9B9B9B">
                        <tspan x="35.5185001" y="107">18：30-21：30</tspan>
                    </text>
                    <text id="西安电子科技大学" font-family="PingFangSC-Medium, PingFang SC" font-size="12" font-weight="400" line-spacing="32" letter-spacing="1.19999993" fill="#4990E2">
                        <tspan x="18.7000003" y="79">西安电子科技大学</tspan>
                    </text>
                    <text id="主校区（北校区）" font-family="PingFangSC-Regular, PingFang SC" font-size="9" font-weight="normal" line-spacing="32" letter-spacing="0.899999976" fill="#4990E2">
                        <tspan x="31.9000001" y="93">主校区（北校区）</tspan>
                    </text>
                </g>
                <g id="Group-3" transform="translate(129.000000, 147.000000)">
                    <g id="Page-1-Copy-3" transform="translate(56.000000, 45.000000)" fill="#4990E2">
                        <path d="M10.6667444,10.005444 L10.6667444,12.0311826 C10.6667444,14.6414217 8.57738574,16.7576595 6.00006589,16.7576595 C3.42277646,16.7576595 1.33341781,14.6414217 1.33341781,12.0311826 L1.33341781,10.005444 L2.02531633e-05,10.005444 L2.02531633e-05,12.0311826 C2.02531633e-05,15.1589954 2.00006845,17.6641025 5,18 L5,21 L3,21 L3,22 L9,22 L9,21 L7,21 L7,18 C9.99990112,17.6641025 12.0000203,15.1589954 12.0000203,12.0311826 L12.0000203,10.005444 L10.6667444,10.005444 Z M9,11.5 L9,3.25212306 C9,1.38750805 7.84098187,0 6,0 C4.15904856,0 3,1.38750805 3,3.25212306 L3,11.5 C3,13.3645842 4.15904856,15 6,15 C7.84098187,15 9,13.3645842 9,11.5 Z" id="Fill-1"></path>
                    </g>
                    <text id="武汉" font-family="PingFangSC-Medium, PingFang SC" font-size="11" font-weight="400" line-spacing="32" letter-spacing="1.0999999" fill="#9B9B9B">
                        <tspan x="50.4000001" y="29">武汉</tspan>
                    </text>
                    <text id="9月25日" font-family="PingFangSC-Medium, PingFang SC" font-size="11" font-weight="400" line-spacing="32" letter-spacing="1.0999999" fill="#9B9B9B">
                        <tspan x="38.8500002" y="12">9月25日</tspan>
                    </text>
                    <text id="18：30-21：30" font-family="PingFangSC-Regular, PingFang SC" font-size="9" font-weight="normal" line-spacing="32" letter-spacing="0.899999976" fill="#9B9B9B">
                        <tspan x="25.5185001" y="107">18：30-21：30</tspan>
                    </text>
                    <text id="华中科技大学" font-family="PingFangSC-Medium, PingFang SC" font-size="12" font-weight="400" line-spacing="32" letter-spacing="1.19999993" fill="#4990E2">
                        <tspan x="22.4000002" y="79">华中科技大学</tspan>
                    </text>
                    <text id="本部（北校区）" font-family="PingFangSC-Regular, PingFang SC" font-size="9" font-weight="normal" line-spacing="32" letter-spacing="0.899999976" fill="#4990E2">
                        <tspan x="27.8500001" y="93">本部（北校区）</tspan>
                    </text>
                </g>
                <g id="Group-7" transform="translate(9.000000, 444.000000)">
                    <g id="Page-1" transform="translate(55.000000, 44.000000)" fill="#4990E2">
                        <path d="M12.4445351,10.005444 L12.4445351,12.0311826 C12.4445351,14.6414217 10.00695,16.7576595 7.00007687,16.7576595 C3.99323921,16.7576595 1.55565412,14.6414217 1.55565412,12.0311826 L1.55565412,10.005444 L2.36286911e-05,10.005444 L2.36286911e-05,12.0311826 C2.36286911e-05,15.1589954 2.33341319,17.6641025 5.83333333,18 L5.83333333,21 L3.5,21 L3.5,22 L10.5,22 L10.5,21 L8.16666667,21 L8.16666667,18 C11.6665513,17.6641025 14.0000236,15.1589954 14.0000236,12.0311826 L14.0000236,10.005444 L12.4445351,10.005444 Z M10.5,11.5 L10.5,3.25212306 C10.5,1.38750805 9.14781218,0 7,0 C4.85222332,0 3.5,1.38750805 3.5,3.25212306 L3.5,11.5 C3.5,13.3645842 4.85222332,15 7,15 C9.14781218,15 10.5,13.3645842 10.5,11.5 Z" id="Fill-1"></path>
                    </g>
                    <text id="贵阳" font-family="PingFangSC-Medium, PingFang SC" font-size="11" font-weight="400" line-spacing="32" letter-spacing="1.0999999" fill="#9B9B9B">
                        <tspan x="50.4000001" y="29">贵阳</tspan>
                    </text>
                    <text id="10月12日" font-family="PingFangSC-Medium, PingFang SC" font-size="11" font-weight="400" line-spacing="32" letter-spacing="1.0999999" fill="#9B9B9B">
                        <tspan x="37.6120003" y="12">10月12日</tspan>
                    </text>
                    <text id="18：30-21：30" font-family="PingFangSC-Regular, PingFang SC" font-size="9" font-weight="normal" line-spacing="32" letter-spacing="0.899999976" fill="#9B9B9B">
                        <tspan x="26.5185001" y="107">18：30-21：30</tspan>
                    </text>
                    <text id="贵州大学" font-family="PingFangSC-Medium, PingFang SC" font-size="12" font-weight="400" line-spacing="32" letter-spacing="1.19999993" fill="#4990E2">
                        <tspan x="36.6000001" y="79">贵州大学</tspan>
                    </text>
                    <text id="北校区" font-family="PingFangSC-Regular, PingFang SC" font-size="9" font-weight="normal" line-spacing="32" letter-spacing="0.899999976" fill="#4990E2">
                        <tspan x="47.65" y="93">北校区</tspan>
                    </text>
                </g>
                <g id="Group-8" transform="translate(129.000000, 444.000000)">
                    <g id="Page-1-Copy-2" transform="translate(56.000000, 44.000000)" fill="#4990E2">
                        <path d="M10.6667444,10.005444 L10.6667444,12.0311826 C10.6667444,14.6414217 8.57738574,16.7576595 6.00006589,16.7576595 C3.42277646,16.7576595 1.33341781,14.6414217 1.33341781,12.0311826 L1.33341781,10.005444 L2.02531633e-05,10.005444 L2.02531633e-05,12.0311826 C2.02531633e-05,15.1589954 2.00006845,17.6641025 5,18 L5,21 L3,21 L3,22 L9,22 L9,21 L7,21 L7,18 C9.99990112,17.6641025 12.0000203,15.1589954 12.0000203,12.0311826 L12.0000203,10.005444 L10.6667444,10.005444 Z M9,11.5 L9,3.25212306 C9,1.38750805 7.84098187,0 6,0 C4.15904856,0 3,1.38750805 3,3.25212306 L3,11.5 C3,13.3645842 4.15904856,15 6,15 C7.84098187,15 9,13.3645842 9,11.5 Z" id="Fill-1"></path>
                    </g>
                    <text id="北京" font-family="PingFangSC-Medium, PingFang SC" font-size="11" font-weight="400" line-spacing="32" letter-spacing="1.0999999" fill="#9B9B9B">
                        <tspan x="50.4000001" y="29">北京</tspan>
                    </text>
                    <text id="10月18日" font-family="PingFangSC-Medium, PingFang SC" font-size="11" font-weight="400" line-spacing="32" letter-spacing="1.0999999" fill="#9B9B9B">
                        <tspan x="36.6120003" y="12">10月18日</tspan>
                    </text>
                    <text id="18：30-21：30" font-family="PingFangSC-Regular, PingFang SC" font-size="9" font-weight="normal" line-spacing="32" letter-spacing="0.899999976" fill="#9B9B9B">
                        <tspan x="25.5185001" y="107">18：30-21：30</tspan>
                    </text>
                    <text id="清华大学" font-family="PingFangSC-Medium, PingFang SC" font-size="12" font-weight="400" line-spacing="32" letter-spacing="1.19999993" fill="#4990E2">
                        <tspan x="35.6000001" y="79">清华大学</tspan>
                    </text>
                    <text id="本部" font-family="PingFangSC-Regular, PingFang SC" font-size="9" font-weight="normal" line-spacing="32" letter-spacing="0.899999976" fill="#4990E2">
                        <tspan x="52.6" y="93">本部</tspan>
                    </text>
                </g>
                <g id="Group-9" transform="translate(35.000000, 592.000000)">
                    <g id="Page-1-Copy-3" transform="translate(31.000000, 44.000000)" fill="#4990E2">
                        <path d="M10.6667444,10.005444 L10.6667444,12.0311826 C10.6667444,14.6414217 8.57738574,16.7576595 6.00006589,16.7576595 C3.42277646,16.7576595 1.33341781,14.6414217 1.33341781,12.0311826 L1.33341781,10.005444 L2.02531633e-05,10.005444 L2.02531633e-05,12.0311826 C2.02531633e-05,15.1589954 2.00006845,17.6641025 5,18 L5,21 L3,21 L3,22 L9,22 L9,21 L7,21 L7,18 C9.99990112,17.6641025 12.0000203,15.1589954 12.0000203,12.0311826 L12.0000203,10.005444 L10.6667444,10.005444 Z M9,11.5 L9,3.25212306 C9,1.38750805 7.84098187,0 6,0 C4.15904856,0 3,1.38750805 3,3.25212306 L3,11.5 C3,13.3645842 4.15904856,15 6,15 C7.84098187,15 9,13.3645842 9,11.5 Z" id="Fill-1"></path>
                    </g>
                    <text id="北京" font-family="PingFangSC-Medium, PingFang SC" font-size="11" font-weight="400" line-spacing="32" letter-spacing="1.0999999" fill="#9B9B9B">
                        <tspan x="24.4000001" y="29">北京</tspan>
                    </text>
                    <text id="10月19日" font-family="PingFangSC-Medium, PingFang SC" font-size="11" font-weight="400" line-spacing="32" letter-spacing="1.0999999" fill="#9B9B9B">
                        <tspan x="11.1120003" y="12">10月19日</tspan>
                    </text>
                    <text id="18：30-21：30" font-family="PingFangSC-Regular, PingFang SC" font-size="9" font-weight="normal" line-spacing="32" letter-spacing="0.899999976" fill="#9B9B9B">
                        <tspan x="0.0185001311" y="107">18：30-21：30</tspan>
                    </text>
                    <text id="北京大学" font-family="PingFangSC-Medium, PingFang SC" font-size="12" font-weight="400" line-spacing="32" letter-spacing="1.19999993" fill="#4990E2">
                        <tspan x="10.1000001" y="79">北京大学</tspan>
                    </text>
                    <text id="本部" font-family="PingFangSC-Regular, PingFang SC" font-size="9" font-weight="normal" line-spacing="32" letter-spacing="0.899999976" fill="#4990E2">
                        <tspan x="27.1" y="93">本部</tspan>
                    </text>
                </g>
                <path d="M11,66 L231.001885,66 C242.046539,66 251,74.9523381 251,85.9984023 L251,194.001598 C251,205.04641 242.047783,214 231.001885,214 L30.9981145,214 C19.9534608,214 11,222.952338 11,233.998402 L11,342.001598 C11,353.04641 19.9522167,362 30.9981145,362 L231.001885,362 C242.046539,362 251,370.952338 251,381.998402 L251,490.001598 C251,501.04641 242.047783,510 231.001885,510 L30.9981145,510 C19.9534608,510 11,518.952338 11,529.998402 L11,638.001598 C11,649.04641 19.9609429,658.068144 31.0077699,658.15215 L142.5,659" id="Line" stroke="#4990E2" stroke-linecap="square"></path>
                <text id="白山云科技" font-family="PingFangSC-Medium, PingFang SC" font-size="12" font-weight="400" line-spacing="32" letter-spacing="1.19999993" fill="#4990E2">
                    <tspan x="158" y="656">白山云科技</tspan>
                </text>
            </g>
        </g>
    </g>
</svg>