<svg id="图层_1" data-name="图层 1" xmlns="http://www.w3.org/2000/svg" viewBox="0 0 769 498.34"><defs><style>.cls-1{fill:none;stroke:#4a90e2;stroke-linecap:square;stroke-miterlimit:10;}.cls-2{fill:#ababab;}.cls-3{fill:#59a3e8;}.cls-4{fill:#4a90e2;}.cls-5{isolation:isolate;}.cls-6{fill:#4990e2;}</style></defs><title>pc端宣讲1018</title><path class="cls-1" d="M2,128H745a25,25,0,0,1,25,25V294a25,25,0,0,1-25,25H22A20.06,20.06,0,0,0,2,339V486a20.06,20.06,0,0,0,20,20H770" transform="translate(-1.5 -62)"/><path class="cls-2" d="M79.6,84.6a10.45,10.45,0,0,0,3.9,4.2l-.8,1.1a6.42,6.42,0,0,1-1.3-1v1.2H76.5V88.9a10.59,10.59,0,0,1-1.2,1l-.4-.7v6.5H73.7V95H72.3v1H71V85.6h3.9v3a12.51,12.51,0,0,0,3.6-4Zm-6,9.3V86.8H72.2v7.1Zm8.5,3.6H80.8v-.7H77.1v.7H75.8V91.7H82v5.8Zm-.7-8.6a17.55,17.55,0,0,1-2.4-3,12.18,12.18,0,0,1-2.4,3Zm-.6,6.6V92.9H77.1v2.6Zm9.5-4.4a19.6,19.6,0,0,1-3,5.1l-1.1-.8a20.41,20.41,0,0,0,2.9-4.8Zm-2.9-.8-.9-.9a11.61,11.61,0,0,0,2.7-5l1.3.3a5.78,5.78,0,0,1-.5,1.4h7.7V87c-.2,1-.5,2-.8,3l-1.3-.4a11.39,11.39,0,0,0,.7-2.2H89.5A12.7,12.7,0,0,1,87.4,90.3Zm2.5,7.1-.3-1.3a9.15,9.15,0,0,0,1.6.1c.4,0,.5-.2.5-.6V88.4H93v7.5c0,1-.5,1.5-1.4,1.5Zm8.5-1.5-1.2.6a30.2,30.2,0,0,0-2.7-5.4l1.2-.4A31.66,31.66,0,0,1,98.4,95.9Zm6.1-5.9-.9,1a23.21,23.21,0,0,0-2.2-2.1l1-.9A20.32,20.32,0,0,1,104.5,90Zm.1,2.4c-.5,1.7-1.2,3.3-1.8,4.8l-1.2-.5a34.26,34.26,0,0,0,1.9-4.8Zm.2-6-.9,1a10.61,10.61,0,0,0-2.2-1.8l1-.9A12,12,0,0,1,104.8,86.4Zm4,9.1a11.65,11.65,0,0,1-3.1,1.9l-.8-1.1a13.94,13.94,0,0,0,3-1.7Zm3.4-6.7a41.21,41.21,0,0,1-4.5.8v.6h5.4v1.2H112v1.9h2.1v1.3H105V93.3h1.3V88.6a20,20,0,0,0,5.1-1Zm1.6-.4h-1.3V86.9h-6.1v1.5h-1.3V85.7h3.6a9.29,9.29,0,0,0-.5-1l1.3-.2a6.12,6.12,0,0,1,.5,1.2h3.7v2.7Zm-3,4.8V91.3h-3v1.9Zm3.3,3.2-.8,1.1a16.61,16.61,0,0,0-3-1.9l.7-1A19.23,19.23,0,0,1,114.1,96.4Z" transform="translate(-1.5 -62)"/><path class="cls-2" d="M71.1,64.1a6.18,6.18,0,0,1,.9,3.6,7.21,7.21,0,0,1-1,4,3.17,3.17,0,0,1-2.7,1.5A3,3,0,0,1,65,70.5h1.5A1.67,1.67,0,0,0,68.3,72,2.21,2.21,0,0,0,70,71a4.5,4.5,0,0,0,.6-2.4v-.2h-.1a2.66,2.66,0,0,1-1.1,1,3.19,3.19,0,0,1-1.4.3,3,3,0,0,1-2.4-1,3.24,3.24,0,0,1-.9-2.4,3.42,3.42,0,0,1,3.5-3.5A3.13,3.13,0,0,1,71.1,64.1Zm-4.2.6a2.11,2.11,0,0,0-.6,1.6,2.05,2.05,0,0,0,2.1,2.1,2,2,0,0,0,1.5-.6,2.07,2.07,0,0,0,.5-1.6,2.11,2.11,0,0,0-.6-1.6,2,2,0,0,0-1.5-.6A2.67,2.67,0,0,0,66.9,64.7Zm10,9.8-1-.9a8.44,8.44,0,0,0,1.4-4.7V62h8.3V73c0,.9-.5,1.3-1.4,1.3H82.4L82.1,73c.6,0,1.2.1,1.7.1.3,0,.4-.2.4-.6V70H78.5A8.64,8.64,0,0,1,76.9,74.5Zm7.4-11.2H78.6v2.1h5.7Zm-5.7,5.5h5.7V66.6H78.6ZM93.8,63V73H92.3V64.8A5.76,5.76,0,0,1,90,66.1V64.6a5.34,5.34,0,0,0,1.4-.6,6.42,6.42,0,0,0,1.3-1Zm9.5.6a2.24,2.24,0,0,1,.8,1.9,2.5,2.5,0,0,1-.3,1.3,2.44,2.44,0,0,1-1.1.9h0a2,2,0,0,1,1.2.8,2.52,2.52,0,0,1,.6,1.7,2.7,2.7,0,0,1-1,2.2,5.3,5.3,0,0,1-5.6,0,3,3,0,0,1-1-2.2,2.72,2.72,0,0,1,.6-1.7,2,2,0,0,1,1.2-.8h0a2,2,0,0,1-1.1-.9,2.77,2.77,0,0,1-.3-1.3,2.73,2.73,0,0,1,.8-1.9,3.43,3.43,0,0,1,2.5-.8A4.55,4.55,0,0,1,103.3,63.6Zm-4.2,5.3a1.61,1.61,0,0,0-.6,1.3,1.76,1.76,0,0,0,.6,1.3,2.54,2.54,0,0,0,1.6.5,2.86,2.86,0,0,0,1.7-.5,1.43,1.43,0,0,0,.5-1.3,1.73,1.73,0,0,0-.5-1.3,2.18,2.18,0,0,0-1.7-.5A1.94,1.94,0,0,0,99.1,68.9Zm.2-4.4a1.43,1.43,0,0,0-.5,1.1,1.25,1.25,0,0,0,.4,1.1,2.17,2.17,0,0,0,1.6.5,2.54,2.54,0,0,0,1.6-.5,1.5,1.5,0,0,0,.4-1.1,1.61,1.61,0,0,0-.5-1.1,2.5,2.5,0,0,0-3,0ZM118,74.4h-1.3v-1h-6.3v1H109V62h9Zm-1.3-7.5V63.3h-6.3v3.6Zm0,5.2V68.2h-6.3v3.9Z" transform="translate(-1.5 -62)"/><path class="cls-2" d="M55.4,174.9V182h-.8v-6.1a3.23,3.23,0,0,1-1.7,1V176a4.18,4.18,0,0,0,1-.4c.3-.2.6-.5.9-.7h.6Zm6.8.4a1.61,1.61,0,0,1,.6,1.3,1.69,1.69,0,0,1-.3,1,1.56,1.56,0,0,1-.8.6h0a1.46,1.46,0,0,1,.9.6A1.59,1.59,0,0,1,63,180a1.8,1.8,0,0,1-.7,1.5,2.88,2.88,0,0,1-1.9.6,2.71,2.71,0,0,1-1.9-.6,2.13,2.13,0,0,1-.7-1.5,1.59,1.59,0,0,1,.4-1.2,2.36,2.36,0,0,1,.9-.6h0a1,1,0,0,1-.8-.6,1.69,1.69,0,0,1-.3-1,1.61,1.61,0,0,1,.6-1.3,2.35,2.35,0,0,1,1.7-.6A2.55,2.55,0,0,1,62.2,175.3ZM59.1,179a1.28,1.28,0,0,0-.4,1,1.16,1.16,0,0,0,.4,1,2.31,2.31,0,0,0,2.6,0,1.28,1.28,0,0,0,.4-1,1.16,1.16,0,0,0-.4-1,1.84,1.84,0,0,0-1.3-.4A2,2,0,0,0,59.1,179Zm.2-3.2a1.27,1.27,0,0,0-.4.9,1.22,1.22,0,0,0,.3.9,1.59,1.59,0,0,0,1.2.4,1.46,1.46,0,0,0,1.2-.4,1.34,1.34,0,0,0-.1-1.8,1.59,1.59,0,0,0-1.2-.4A1.43,1.43,0,0,0,59.3,175.8Zm8.1.3a.5.5,0,0,1,0,.8.6.6,0,0,1-1-.4.4.4,0,0,1,.2-.4.5.5,0,0,1,.8,0Zm0,3.7a.5.5,0,0,1,0,.8.6.6,0,0,1-1-.4.4.4,0,0,1,.2-.4.76.76,0,0,1,.4-.2A.4.4,0,0,1,67.4,179.8Zm12.8-4.6a1.68,1.68,0,0,1,.6,1.4,1.59,1.59,0,0,1-1.2,1.6,2.07,2.07,0,0,1,1,.6,1.78,1.78,0,0,1,.4,1,2,2,0,0,1-.7,1.6,2.79,2.79,0,0,1-1.8.6,3.1,3.1,0,0,1-1.7-.5,2.2,2.2,0,0,1-.8-1.8h.8a1.49,1.49,0,0,0,.6,1.3,2.1,2.1,0,0,0,1.1.4,1.59,1.59,0,0,0,1.2-.4,1.28,1.28,0,0,0,.4-1,1.16,1.16,0,0,0-.4-1,2.13,2.13,0,0,0-1.2-.3H78V178h.5a1.8,1.8,0,0,0,1.1-.3,1.27,1.27,0,0,0,.4-.9,1,1,0,0,0-.4-.9,1.8,1.8,0,0,0-1.1-.3,1.37,1.37,0,0,0-1.1.4,1.88,1.88,0,0,0-.5,1.1h-.8a2.39,2.39,0,0,1,2.4-2.2A3.06,3.06,0,0,1,80.2,175.2Zm7.2.7a4.76,4.76,0,0,1,.6,2.6,5,5,0,0,1-.6,2.6,2.14,2.14,0,0,1-1.9,1.1,2,2,0,0,1-1.9-1.1,4.76,4.76,0,0,1-.6-2.6,5,5,0,0,1,.6-2.6,2,2,0,0,1,1.9-1.1A1.82,1.82,0,0,1,87.4,175.9Zm-3.3.6a5.25,5.25,0,0,0-.3,2,5.62,5.62,0,0,0,.3,2,1.48,1.48,0,0,0,2.8,0,5.25,5.25,0,0,0,.3-2,5.62,5.62,0,0,0-.3-2,1.48,1.48,0,0,0-2.8,0ZM95,179.1v.7H90v-.7Zm6.3-3.8a2,2,0,0,1,.6,1.5,2.34,2.34,0,0,1-.7,1.7,5.65,5.65,0,0,1-1.5,1.1,4.68,4.68,0,0,0-1.6,1.6h3.7v.7H97a2.74,2.74,0,0,1,.7-1.8c.3-.3.8-.7,1.5-1.3a6.49,6.49,0,0,0,1.1-.9,1.66,1.66,0,0,0,.5-1.3,1.16,1.16,0,0,0-.4-1,1.82,1.82,0,0,0-1.1-.4,1.29,1.29,0,0,0-1.1.5,2,2,0,0,0-.4,1.4H97a2.49,2.49,0,0,1,.7-1.9,2.06,2.06,0,0,1,1.7-.7A4.19,4.19,0,0,1,101.3,175.3Zm5.2-.4V182h-.8v-6.1a3.23,3.23,0,0,1-1.7,1V176a4.18,4.18,0,0,0,1-.4c.3-.2.6-.5.9-.7h.6Zm5,1.2a.5.5,0,0,1,0,.8.6.6,0,0,1-1-.4.4.4,0,0,1,.2-.4.5.5,0,0,1,.8,0Zm0,3.7a.5.5,0,0,1,0,.8.6.6,0,0,1-1-.4.4.4,0,0,1,.2-.4.76.76,0,0,1,.4-.2A.4.4,0,0,1,111.5,179.8Zm12.8-4.6a1.68,1.68,0,0,1,.6,1.4,1.59,1.59,0,0,1-1.2,1.6,2.07,2.07,0,0,1,1,.6,1.78,1.78,0,0,1,.4,1,2,2,0,0,1-.7,1.6,2.79,2.79,0,0,1-1.8.6,3.1,3.1,0,0,1-1.7-.5,2.2,2.2,0,0,1-.8-1.8h.8a1.49,1.49,0,0,0,.6,1.3,2.1,2.1,0,0,0,1.1.4,1.59,1.59,0,0,0,1.2-.4,1.28,1.28,0,0,0,.4-1,1.16,1.16,0,0,0-.4-1,2.13,2.13,0,0,0-1.2-.3H122V178h.5a1.8,1.8,0,0,0,1.1-.3,1.27,1.27,0,0,0,.4-.9,1,1,0,0,0-.4-.9,1.8,1.8,0,0,0-1.1-.3,1.37,1.37,0,0,0-1.1.4,1.88,1.88,0,0,0-.5,1.1h-.8a2.39,2.39,0,0,1,2.4-2.2A3.61,3.61,0,0,1,124.3,175.2Zm7.2.7a4.76,4.76,0,0,1,.6,2.6,5,5,0,0,1-.6,2.6,2.14,2.14,0,0,1-1.9,1.1,2,2,0,0,1-1.9-1.1,4.76,4.76,0,0,1-.6-2.6,5,5,0,0,1,.6-2.6,2,2,0,0,1,1.9-1.1A1.9,1.9,0,0,1,131.5,175.9Zm-3.3.6a5.25,5.25,0,0,0-.3,2,5.62,5.62,0,0,0,.3,2,1.48,1.48,0,0,0,2.8,0,5.25,5.25,0,0,0,.3-2,5.62,5.62,0,0,0-.3-2,1.38,1.38,0,0,0-1.4-1A1.31,1.31,0,0,0,128.2,176.5Z" transform="translate(-1.5 -62)"/><path class="cls-3" d="M42.5,139a12.58,12.58,0,0,0,4.4,4.8l-.9,1.3a15.76,15.76,0,0,1-1.5-1.2v1.3H39v-1.3c-.5.4-.9.8-1.4,1.2l-.5-.8v7.4H35.7V151H34v1.1H32.6v-12H37v3.5a15.1,15.1,0,0,0,4.1-4.6Zm-6.9,10.6v-8.1H34v8.1Zm9.8,4.1H43.9v-.8H39.7v.8H38.3V147h7.1Zm-.9-9.9a11.71,11.71,0,0,1-2.7-3.5,16,16,0,0,1-2.8,3.5Zm-.6,7.6v-3H39.7v3Zm10.8-5a26.86,26.86,0,0,1-3.4,5.8l-1.2-.9a21.14,21.14,0,0,0,3.3-5.5Zm-3.3-.9-1.1-1a13,13,0,0,0,3.1-5.8l1.5.4c-.2.6-.3,1.1-.5,1.6h8.8v1a21.36,21.36,0,0,1-.9,3.4l-1.5-.4a14.7,14.7,0,0,0,.8-2.5H53.8A14,14,0,0,1,51.4,145.5Zm2.8,8.1-.3-1.5a10.87,10.87,0,0,0,1.8.1c.4,0,.6-.2.6-.7v-8.2h1.5v8.6c0,1.1-.5,1.7-1.6,1.7h-2Zm9.8-1.8-1.4.6a39.81,39.81,0,0,0-3.1-6.2l1.4-.5C62,147.7,63.1,149.7,64,151.8Zm7-6.6-1.1,1.1a29.93,29.93,0,0,0-2.5-2.4l1.1-1.1A28.9,28.9,0,0,1,71,145.2Zm.1,2.7a39.34,39.34,0,0,1-2.1,5.5l-1.4-.6c.8-1.8,1.6-3.6,2.2-5.4Zm.2-6.8-1.1,1.1a11,11,0,0,0-2.5-2.1l1.1-1.1A18.4,18.4,0,0,1,71.3,141.1Zm4.6,10.4a15,15,0,0,1-3.5,2.2l-.9-1.2a13.87,13.87,0,0,0,3.4-2Zm3.9-7.8a33.51,33.51,0,0,1-5.1.9v.7h6.2v1.4H79.7v2.1H82v1.4H71.6v-1.4h1.5v-5.3a25.92,25.92,0,0,0,5.9-1.1Zm1.8-.4H80.1v-1.7h-7v1.7H71.6v-3.1h4.2a10.91,10.91,0,0,0-.6-1.1l1.5-.3c.2.4.4.9.6,1.4h4.2v3.1Zm-3.5,5.5v-2.1H74.6v2.1Zm3.8,3.6-.9,1.3a18.6,18.6,0,0,0-3.5-2.2l.8-1.1A30.65,30.65,0,0,1,81.9,152.4Zm4.2-11.1v-1.5H98.5v1.5H93v10.2h6.1V153h-14v-1.5h6.3V141.3Zm22.7-2.3v12.6h1.9V139h1.5v12.6h4.7v1.5H102.6v-1.5h4.6V139Zm-2.3,10.3-1.4.4a46.75,46.75,0,0,0-2.1-7.3l1.3-.4A64.88,64.88,0,0,1,106.5,149.3Zm10.1-6.9a30.36,30.36,0,0,1-2.4,7.2l-1.4-.5a36.54,36.54,0,0,0,2.4-7.1Zm9.9.6a21.3,21.3,0,0,0,.2-2.7v-1.4h1.5v1a26.61,26.61,0,0,1-.2,3h6.5v1.5h-6.1a13.72,13.72,0,0,0,6.5,7.9l-.9,1.2a15.33,15.33,0,0,1-6.5-7.9,12.67,12.67,0,0,1-6.5,8.1l-1-1.3a11.08,11.08,0,0,0,6.2-8h-5.9V143Zm25.4,2.9h-1.5v-2.4H139.6v2.4h-1.5V142H141a13.36,13.36,0,0,0-1.6-2.3l1.4-.7a27.21,27.21,0,0,1,1.6,2.5l-1,.5h6a19.62,19.62,0,0,0,1.7-3.2l1.6.6a19.71,19.71,0,0,1-1.6,2.6H152v3.9Zm-2.6-1.4v1.3a21.65,21.65,0,0,1-3.4,1.9v.6h6v1.4h-6v2.4c0,.9-.5,1.4-1.5,1.4h-2l-.4-1.4h1.9c.3,0,.5-.2.5-.6v-1.9h-6.3v-1.4h6.3V147q1.65-.75,2.7-1.2h-6.5v-1.3Zm-3.2-3.2-1.4.7a30,30,0,0,0-1.5-2.6l1.4-.7C145.1,139.5,145.6,140.4,146.1,141.3Z" transform="translate(-1.5 -62)"/><path class="cls-3" d="M59.6,161.7v-1.8h.7v1.8h3.9v.7H61a11.08,11.08,0,0,0,3.6,4.3l-.5.6a11.42,11.42,0,0,1-3.7-4.9h-.1v3.9h2.1v.7H60.3v2h-.7v-2H57.5v-.7h2.1v-3.9h-.1a10.36,10.36,0,0,1-3.8,5l-.4-.7a9.31,9.31,0,0,0,3.6-4.3H55.6v-.7h4Zm8.9,1.9h1a7.51,7.51,0,0,0,.7-1.8l.8.2a5.23,5.23,0,0,1-.7,1.5h1.2v.7h-5v-.7h1.3c-.2-.5-.4-1-.6-1.4l.7-.2A10.72,10.72,0,0,1,68.5,163.6Zm.2-2.8a3.55,3.55,0,0,0-.4-.9l.7-.1c.1.3.2.6.3,1h2v.7H66.6v-.7Zm2.4,8.1h-.7v-.6H67.8v.6h-.7v-3.8h4Zm-.8-1.2v-1.8H67.7v1.8Zm5-7.4v.5a24.69,24.69,0,0,1-1,2.9,4.29,4.29,0,0,1,1.1,2.3,1.7,1.7,0,0,1-.4,1.3,2.83,2.83,0,0,1-1.6.4l-.2-.8h.7a1,1,0,0,0,.7-.2c.1-.1.1-.4.2-.7a3.91,3.91,0,0,0-1.2-2.3,29.07,29.07,0,0,0,1-2.8H72.8V169H72v-8.7Zm10.9-.6a9.77,9.77,0,0,0-1.3,4.7,8.24,8.24,0,0,0,.4,2.6,9.49,9.49,0,0,0,.9,2.1h-.7a6.81,6.81,0,0,1-1-2.1,7.83,7.83,0,0,1-.4-2.6,7.46,7.46,0,0,1,.4-2.6,10,10,0,0,1,1-2.1Zm11.3.6v.7h-3v1.5h2.4v6.4h-.7v-.4H89.9v.4h-.7v-6.4h2.4V161h-3v-.7Zm-1.3,7.5v-1.6H94.8c-.7,0-1-.3-1-1v-2.1H92.3v.2a4.19,4.19,0,0,1-1.6,3.5l-.6-.5a3.22,3.22,0,0,0,1.5-3v-.2H89.9v4.6h6.3Zm-4-5.3h1.5V161H92.2Zm2.2,2.6c0,.3.1.5.5.5h1.3v-2.4H94.5v1.9Zm6.6-3.3v-1.9h.7v1.9h1v.7h-1v.8a14.7,14.7,0,0,1,1,1.3,9.74,9.74,0,0,0,1.5-2.4l.6.3a12,12,0,0,1-1.6,2.5l-.4-.3.2.3-.4.6a19.41,19.41,0,0,0-1-1.7v5H101v-5.1a11.26,11.26,0,0,1-1.3,2.7l-.3-.8a9.22,9.22,0,0,0,1.6-3.3H99.7v-.7H101Zm6.2,2.4a5.52,5.52,0,0,1-1.1,2.7,7.44,7.44,0,0,0,2.5,1.4l-.4.6a7.55,7.55,0,0,1-2.5-1.5A6.09,6.09,0,0,1,103,169l-.4-.6a6.47,6.47,0,0,0,2.6-1.4,5.68,5.68,0,0,1-1.2-2.6l.6-.2a5.23,5.23,0,0,0,1,2.3,6.91,6.91,0,0,0,.9-2.3Zm-1.8-3.1c-.2-.5-.4-.9-.6-1.3l.7-.1c.2.4.4.9.6,1.4h2.2v.7H103v-.7h2.4Zm3.2,3.5-.6.4a22.18,22.18,0,0,0-1.7-2.4l.6-.3A15,15,0,0,1,108.6,164.6Zm10.5-4.4v.7h-7.2v7h7.5v.7h-8.2v-8.3h7.9Zm-3.2,3.8a10.37,10.37,0,0,0,1.5-2.5l.6.3a12,12,0,0,1-1.6,2.7,20.79,20.79,0,0,1,2.1,2.1l-.6.6c-.6-.7-1.3-1.4-2-2.1a10.55,10.55,0,0,1-3,2.2l-.4-.6a8.37,8.37,0,0,0,2.9-2c-.8-.7-1.7-1.4-2.6-2.1l.5-.5A15.72,15.72,0,0,1,115.9,164Zm6.6-4.3a6.81,6.81,0,0,1,1,2.1,8.65,8.65,0,0,1,0,5.2,20,20,0,0,1-1,2.1h-.7a9.49,9.49,0,0,0,.9-2.1,8.65,8.65,0,0,0,0-5.2,9.49,9.49,0,0,0-.9-2.1Z" transform="translate(-1.5 -62)"/><path class="cls-4" d="M95.5,117.5v-8.2a3.51,3.51,0,0,0-7,0v8.2a3.5,3.5,0,1,0,7,0Zm1.9-1.5v2c0,2.6-2.4,4.7-5.4,4.7s-5.4-2.1-5.4-4.7v-2H85v2c0,3.1,2.3,5.6,5.8,6v3H88.5v1h7v-1H93.2v-3a6,6,0,0,0,5.8-6v-2Z" transform="translate(-1.5 -62)"/><path class="cls-4" d="M385,117.5v-8.2a3,3,0,1,0-6,0v8.2c0,1.9,1.2,3.5,3,3.5S385,119.4,385,117.5Zm1.7-1.5v2a4.7,4.7,0,0,1-9.4,0v-2H376v2a5.8,5.8,0,0,0,5,6v3h-2v1h6v-1h-2v-3c3-.3,5-2.8,5-6v-2Z" transform="translate(-1.5 -62)"/><path class="cls-4" d="M673,117.5v-8.2a3,3,0,1,0-6,0v8.2c0,1.9,1.2,3.5,3,3.5S673,119.4,673,117.5Zm1.7-1.5v2a4.7,4.7,0,0,1-9.4,0v-2H664v2a5.8,5.8,0,0,0,5,6v3h-2v1h6v-1h-2v-3c3-.3,5-2.8,5-6v-2Z" transform="translate(-1.5 -62)"/><path class="cls-4" d="M95.5,308.5v-8.2a3.51,3.51,0,0,0-7,0v8.2a3.5,3.5,0,0,0,7,0Zm1.9-1.5v2c0,2.6-2.4,4.7-5.4,4.7s-5.4-2.1-5.4-4.7v-2H85v2c0,3.1,2.3,5.6,5.8,6v3H88.5v1h7v-1H93.2v-3a6,6,0,0,0,5.8-6v-2Z" transform="translate(-1.5 -62)"/><path class="cls-4" d="M385,308.5v-8.2a3,3,0,1,0-6,0v8.2c0,1.9,1.2,3.5,3,3.5S385,310.4,385,308.5Zm1.7-1.5v2a4.7,4.7,0,0,1-9.4,0v-2H376v2a5.8,5.8,0,0,0,5,6v3h-2v1h6v-1h-2v-3c3-.3,5-2.8,5-6v-2Z" transform="translate(-1.5 -62)"/><path class="cls-4" d="M673,308.5v-8.2a3,3,0,1,0-6,0v8.2c0,1.9,1.2,3.5,3,3.5S673,310.4,673,308.5Zm1.7-1.5v2a4.7,4.7,0,1,1-9.4,0v-2H664v2a5.8,5.8,0,0,0,5,6v3h-2v1h6v-1h-2v-3c3-.3,5-2.8,5-6v-2Z" transform="translate(-1.5 -62)"/><path class="cls-4" d="M236.5,495.5v-8.2a3.51,3.51,0,0,0-7,0v8.2a3.5,3.5,0,0,0,7,0Zm1.9-1.5v2c0,2.6-2.4,4.7-5.4,4.7s-5.4-2.1-5.4-4.7v-2H226v2c0,3.1,2.3,5.6,5.8,6v3h-2.3v1h7v-1h-2.3v-3a6,6,0,0,0,5.8-6v-2Z" transform="translate(-1.5 -62)"/><path class="cls-2" d="M661.9,279.7v1.8h2.3v1.2h-2.3v2.2a19.73,19.73,0,0,0,2.6-.7v1.3a49,49,0,0,1-7.7,1.7l-.2-1.3c.4-.1.8-.1,1.2-.2v-4.9h1.3v4.7c.5-.1,1-.2,1.4-.3v-5.5h1.4Zm2.6-2c-.1-1-.1-2.1-.1-3.2h1.3a31.13,31.13,0,0,0,.1,3.2h3.5V279h-3.4c.1,1.1.2,1.9.3,2.6a17.4,17.4,0,0,0,.9,3.1c.3.6.6.9.7.9s.3-.6.4-1.8l1.2.7c-.3,1.9-.8,2.8-1.4,2.8s-1.1-.4-1.7-1.3a9.14,9.14,0,0,1-1.4-3.9,13.74,13.74,0,0,1-.4-3.1h-7.7v-1.3h7.7Zm-1.2-2.3v1.2h-5.4v-1.2Zm5.6,1.4-1.1.6a9.13,9.13,0,0,0-1.5-2.3l1.1-.5A8.56,8.56,0,0,1,668.9,276.8Zm6.7,3.2-1,.9a14.4,14.4,0,0,0-2.5-2.1l1-.9A13.79,13.79,0,0,1,675.6,280Zm.4,2.4a38.11,38.11,0,0,1-2.3,5l-1.3-.6a44.42,44.42,0,0,0,2.4-4.9Zm0-5.5-1,1a14.39,14.39,0,0,0-2.5-2.2l.9-.9A9.21,9.21,0,0,1,676,276.9Zm4.7,7.4a12.3,12.3,0,0,1-4,3.1l-.9-1.1a12.6,12.6,0,0,0,4-3.1,14,14,0,0,1-2.5-6.6h-1.1v-1.3H684v1.2a16.87,16.87,0,0,1-2.7,6.7,15.51,15.51,0,0,0,3.6,3l-.9,1.1A23.52,23.52,0,0,1,680.7,284.3Zm2.2-7.6h-4.2a11.8,11.8,0,0,0,2,5.5A15.87,15.87,0,0,0,682.9,276.7Z" transform="translate(-1.5 -62)"/><path class="cls-2" d="M648.3,254.1a6.18,6.18,0,0,1,.9,3.6,7.21,7.21,0,0,1-1,4,3.17,3.17,0,0,1-2.7,1.5,3,3,0,0,1-3.3-2.7h1.5a1.67,1.67,0,0,0,1.8,1.5,2.21,2.21,0,0,0,1.7-1,4.5,4.5,0,0,0,.6-2.4v-.2h-.1a2.66,2.66,0,0,1-1.1,1,3.19,3.19,0,0,1-1.4.3,3,3,0,0,1-2.4-1,3.24,3.24,0,0,1-.9-2.4,3.42,3.42,0,0,1,3.5-3.5A3.35,3.35,0,0,1,648.3,254.1Zm-4.2.6a2.11,2.11,0,0,0-.6,1.6,2.05,2.05,0,0,0,2.1,2.1,2,2,0,0,0,1.5-.6,2.07,2.07,0,0,0,.5-1.6,2.11,2.11,0,0,0-.6-1.6,2,2,0,0,0-1.5-.6A2.1,2.1,0,0,0,644.1,254.7Zm10,9.8-1-.9a8.44,8.44,0,0,0,1.4-4.7V252h8.3v11c0,.9-.5,1.3-1.4,1.3h-1.8l-.4-1.3c.6,0,1.2.1,1.7.1.3,0,.4-.2.4-.6V260h-5.7A7.8,7.8,0,0,1,654.1,264.5Zm7.3-11.2h-5.7v2.1h5.7Zm-5.7,5.5h5.7v-2.2h-5.7Zm17.6-5.2a2.94,2.94,0,0,1,.9,2.2,3.25,3.25,0,0,1-1,2.4,18,18,0,0,1-2.1,1.6,4.2,4.2,0,0,0-1.9,1.9h5V263h-6.9a3.54,3.54,0,0,1,1-2.6,15.2,15.2,0,0,1,2.3-1.8c.7-.5,1.1-.9,1.4-1.1a2.83,2.83,0,0,0,.7-1.6,1.73,1.73,0,0,0-.5-1.3,2,2,0,0,0-1.4-.4,1.68,1.68,0,0,0-1.4.6,3,3,0,0,0-.5,1.8h-1.5a3.62,3.62,0,0,1,1-2.7,3.31,3.31,0,0,1,2.6-1.1A3.57,3.57,0,0,1,673.3,253.6Zm10.5-.6v1.3H679l-.3,2.9h0a4.13,4.13,0,0,1,1.1-.7,2.54,2.54,0,0,1,1.2-.2,3.17,3.17,0,0,1,2.3.9,3.49,3.49,0,0,1,.9,2.5,3.25,3.25,0,0,1-1.1,2.5,3.92,3.92,0,0,1-2.6.9,4.18,4.18,0,0,1-2.3-.7,3,3,0,0,1-1.2-2.2h1.5a1.87,1.87,0,0,0,2,1.7,2.45,2.45,0,0,0,1.6-.6,2,2,0,0,0,.6-1.5,2.54,2.54,0,0,0-.5-1.6,1.89,1.89,0,0,0-1.5-.6,5,5,0,0,0-1.2.2,1.56,1.56,0,0,0-.8.8h-1.4l.5-5.6h6Zm14,11.4h-1.3v-1h-6.3v1h-1.3V252h9v12.4Zm-1.3-7.5v-3.6h-6.3v3.6Zm0,5.2v-3.9h-6.3v3.9Z" transform="translate(-1.5 -62)"/><path class="cls-2" d="M633.4,364.9V372h-.8v-6.1a3.23,3.23,0,0,1-1.7,1V366a4.18,4.18,0,0,0,1-.4c.3-.2.6-.5.9-.7Zm6.8.4a1.61,1.61,0,0,1,.6,1.3,1.69,1.69,0,0,1-.3,1,1.56,1.56,0,0,1-.8.6h0a1.46,1.46,0,0,1,.9.6,1.59,1.59,0,0,1,.4,1.2,1.8,1.8,0,0,1-.7,1.5,2.88,2.88,0,0,1-1.9.6,2.71,2.71,0,0,1-1.9-.6,2.13,2.13,0,0,1-.7-1.5,1.59,1.59,0,0,1,.4-1.2,2.36,2.36,0,0,1,.9-.6h0a1,1,0,0,1-.8-.6,1.69,1.69,0,0,1-.3-1,1.61,1.61,0,0,1,.6-1.3,2.35,2.35,0,0,1,1.7-.6A2.55,2.55,0,0,1,640.2,365.3Zm-3.1,3.7a1.28,1.28,0,0,0-.4,1,1.16,1.16,0,0,0,.4,1,2.31,2.31,0,0,0,2.6,0,1.28,1.28,0,0,0,.4-1,1.16,1.16,0,0,0-.4-1,1.84,1.84,0,0,0-1.3-.4A2,2,0,0,0,637.1,369Zm.2-3.2a1.27,1.27,0,0,0-.4.9,1.22,1.22,0,0,0,.3.9,1.59,1.59,0,0,0,1.2.4,1.46,1.46,0,0,0,1.2-.4,1.34,1.34,0,0,0-.1-1.8,1.59,1.59,0,0,0-1.2-.4A1.43,1.43,0,0,0,637.3,365.8Zm8.1.3a.5.5,0,0,1,0,.8.6.6,0,0,1-1-.4.4.4,0,0,1,.2-.4.5.5,0,0,1,.8,0Zm0,3.7a.5.5,0,0,1,0,.8.6.6,0,0,1-1-.4.4.4,0,0,1,.2-.4.76.76,0,0,1,.4-.2A.4.4,0,0,1,645.4,369.8Zm12.8-4.6a1.68,1.68,0,0,1,.6,1.4,1.59,1.59,0,0,1-1.2,1.6,2.07,2.07,0,0,1,1,.6,1.78,1.78,0,0,1,.4,1,2,2,0,0,1-.7,1.6,2.79,2.79,0,0,1-1.8.6,3.1,3.1,0,0,1-1.7-.5,2.2,2.2,0,0,1-.8-1.8h.8a1.49,1.49,0,0,0,.6,1.3,2.1,2.1,0,0,0,1.1.4,1.59,1.59,0,0,0,1.2-.4,1.28,1.28,0,0,0,.4-1,1.16,1.16,0,0,0-.4-1,2.13,2.13,0,0,0-1.2-.3H656V368h.5a1.8,1.8,0,0,0,1.1-.3,1.27,1.27,0,0,0,.4-.9,1,1,0,0,0-.4-.9,1.8,1.8,0,0,0-1.1-.3,1.37,1.37,0,0,0-1.1.4,1.88,1.88,0,0,0-.5,1.1h-.8a2.39,2.39,0,0,1,2.4-2.2A3.06,3.06,0,0,1,658.2,365.2Zm7.2.7a4.76,4.76,0,0,1,.6,2.6,5,5,0,0,1-.6,2.6,2.14,2.14,0,0,1-1.9,1.1,2,2,0,0,1-1.9-1.1,4.76,4.76,0,0,1-.6-2.6,5,5,0,0,1,.6-2.6,2,2,0,0,1,1.9-1.1A1.82,1.82,0,0,1,665.4,365.9Zm-3.3.6a5.25,5.25,0,0,0-.3,2,5.62,5.62,0,0,0,.3,2,1.48,1.48,0,0,0,2.8,0,5.25,5.25,0,0,0,.3-2,5.62,5.62,0,0,0-.3-2,1.48,1.48,0,0,0-2.8,0Zm10.9,2.6v.7h-5v-.7Zm6.3-3.8a2,2,0,0,1,.6,1.5,2.34,2.34,0,0,1-.7,1.7,5.65,5.65,0,0,1-1.5,1.1,4.68,4.68,0,0,0-1.6,1.6h3.7v.7H675a2.74,2.74,0,0,1,.7-1.8c.3-.3.8-.7,1.5-1.3a6.49,6.49,0,0,0,1.1-.9,1.66,1.66,0,0,0,.5-1.3,1.16,1.16,0,0,0-.4-1,1.82,1.82,0,0,0-1.1-.4,1.29,1.29,0,0,0-1.1.5,2,2,0,0,0-.4,1.4H675a2.49,2.49,0,0,1,.7-1.9,2.06,2.06,0,0,1,1.7-.7A4.19,4.19,0,0,1,679.3,365.3Zm5.2-.4V372h-.8v-6.1a3.23,3.23,0,0,1-1.7,1V366a4.18,4.18,0,0,0,1-.4c.3-.2.6-.5.9-.7Zm5,1.2a.5.5,0,0,1,0,.8.76.76,0,0,1-.4.2.52.52,0,0,1-.4-.2.76.76,0,0,1-.2-.4.4.4,0,0,1,.2-.4.5.5,0,0,1,.8,0Zm0,3.7a.5.5,0,0,1,0,.8.76.76,0,0,1-.4.2.52.52,0,0,1-.4-.2.76.76,0,0,1-.2-.4.4.4,0,0,1,.2-.4.76.76,0,0,1,.4-.2A.4.4,0,0,1,689.5,369.8Zm12.8-4.6a1.68,1.68,0,0,1,.6,1.4,1.59,1.59,0,0,1-1.2,1.6,2.07,2.07,0,0,1,1,.6,1.78,1.78,0,0,1,.4,1,2,2,0,0,1-.7,1.6,2.79,2.79,0,0,1-1.8.6,3.1,3.1,0,0,1-1.7-.5,2.2,2.2,0,0,1-.8-1.8h.8a1.49,1.49,0,0,0,.6,1.3,2.1,2.1,0,0,0,1.1.4,1.59,1.59,0,0,0,1.2-.4,1.28,1.28,0,0,0,.4-1,1.16,1.16,0,0,0-.4-1,2.13,2.13,0,0,0-1.2-.3H700V368h.5a1.8,1.8,0,0,0,1.1-.3,1.27,1.27,0,0,0,.4-.9,1,1,0,0,0-.4-.9,1.8,1.8,0,0,0-1.1-.3,1.37,1.37,0,0,0-1.1.4,1.88,1.88,0,0,0-.5,1.1h-.8a2.39,2.39,0,0,1,2.4-2.2A3.61,3.61,0,0,1,702.3,365.2Zm7.2.7a4.76,4.76,0,0,1,.6,2.6,5,5,0,0,1-.6,2.6,2.14,2.14,0,0,1-1.9,1.1,2,2,0,0,1-1.9-1.1,4.76,4.76,0,0,1-.6-2.6,5,5,0,0,1,.6-2.6,2,2,0,0,1,1.9-1.1A1.9,1.9,0,0,1,709.5,365.9Zm-3.3.6a5.25,5.25,0,0,0-.3,2,5.62,5.62,0,0,0,.3,2,1.48,1.48,0,0,0,2.8,0,5.25,5.25,0,0,0,.3-2,5.62,5.62,0,0,0-.3-2,1.38,1.38,0,0,0-1.4-1A1.31,1.31,0,0,0,706.2,366.5Z" transform="translate(-1.5 -62)"/><path class="cls-3" d="M619.5,334.7l-.5-1.6a13,13,0,0,0,4.4-4.3l1.3.6a11.53,11.53,0,0,1-1.9,2.6v5.3h-1.5v-3.9C620.7,333.8,620.1,334.3,619.5,334.7Zm5.9,3.6v-1.4h1.5v1.4h6.2v1.5H627v3.9h-1.5v-3.9h-6.2v-1.5Zm2.7-1.5a1.39,1.39,0,0,1-1.6-1.6v-.9c-.7.3-1.4.5-2.1.8l-.9-1.3c1.1-.4,2-.7,2.9-1.1v-3.6h1.5V332a18.32,18.32,0,0,0,3.7-2.5l1,1.1a17.78,17.78,0,0,1-4.8,3v1.3c0,.3.2.5.6.5h2.2a1,1,0,0,0,.8-.3,2.88,2.88,0,0,0,.4-1.8l1.4.5c-.2,1.4-.4,2.3-.8,2.5a2.54,2.54,0,0,1-1.6.4h-2.7Zm16.5-8v2.8h5.7v7.7h-1.5v-.9h-4.2v5.4H643v-5.4h-4.2v.9h-1.5v-7.7H643v-2.8Zm-1.6,8.1v-3.8h-4.2v3.8Zm5.8,0v-3.8h-4.2v3.8Zm8.1-3.8v-2l-2.2.3-.3-1.4a27.06,27.06,0,0,0,5.5-1l.5,1.4c-.7.2-1.3.3-2,.5v2.2h2v1.5h-2v.6c.8.6,1.7,1.4,2.6,2.2l-.8,1.3c-.7-.8-1.3-1.5-1.7-2v7H657v-6.9a19,19,0,0,1-2.3,3.9L654,339a11.83,11.83,0,0,0,2.8-4.3h-2.3v-1.5h2.4Zm11.9,5.8-1.5.2v4.5h-1.5v-4.2l-4.8.8-.2-1.5,5-.8V329h1.5v8.7l1.3-.2Zm-3.9-3-1.1,1.1a18.08,18.08,0,0,0-2.8-2.5l1.1-1A16.75,16.75,0,0,1,664.9,335.9Zm.4-3.8-1,1.1a18.11,18.11,0,0,0-2.8-2.3l1.1-1A11.79,11.79,0,0,1,665.3,332.1Zm6.9,11.4-.3-1.4a4.87,4.87,0,0,0,1.2.1c.4,0,.6-.2.6-.7v-3.4c-.6.2-1.2.4-1.7.6l-.4-1.5,2.1-.6v-3.5h-1.8v-1.5h1.8v-2.8h1.5v2.8h1.6v1.5h-1.6v2.8c.5-.3,1.1-.5,1.6-.8v1.5c-.5.3-1.1.5-1.6.8v4.4c0,1.1-.5,1.6-1.5,1.6h-1.5Zm8.7-12.4V329h1.5v2.1h3.7v1.5h-3.7v2.3h3.1v1.3a10,10,0,0,1-2.6,4.3,20.06,20.06,0,0,0,3.6,2l-.8,1.2a18.24,18.24,0,0,1-3.9-2.3,16.57,16.57,0,0,1-4.4,2.3l-.7-1.3a14.24,14.24,0,0,0,4.1-2,9.09,9.09,0,0,1-2.5-4.2h-.8v-1.4h3.4v-2.3h-3.7V331h3.7Zm.9,8.5a10,10,0,0,0,2.2-3.3h-4.3A8.42,8.42,0,0,0,681.8,339.6Zm13.9-6.6a21.3,21.3,0,0,0,.2-2.7v-1.4h1.5v1a26.6,26.6,0,0,1-.2,3h6.5v1.5h-6.1a13.72,13.72,0,0,0,6.5,7.9l-.9,1.2a15.33,15.33,0,0,1-6.5-7.9,12.67,12.67,0,0,1-6.5,8.1l-1-1.3a11.08,11.08,0,0,0,6.2-8h-5.9V333Zm25.4,2.9h-1.5v-2.4H708.8v2.4h-1.5V332h2.9a13.36,13.36,0,0,0-1.6-2.3l1.4-.7a27.21,27.21,0,0,1,1.6,2.5l-1,.5h6a19.62,19.62,0,0,0,1.7-3.2l1.6.6a19.71,19.71,0,0,1-1.6,2.6h2.9v3.9Zm-2.6-1.4v1.3a21.65,21.65,0,0,1-3.4,1.9v.6h6v1.4h-6v2.4c0,.9-.5,1.4-1.5,1.4h-2l-.4-1.4h1.9c.3,0,.5-.2.5-.6v-1.9h-6.3v-1.4h6.3V337q1.65-.75,2.7-1.2h-6.5v-1.3h8.7Zm-3.2-3.2-1.4.7a30,30,0,0,0-1.5-2.6l1.4-.7C714.3,329.5,714.8,330.4,715.3,331.3Z" transform="translate(-1.5 -62)"/><path class="cls-3" d="M637.6,351.7v-1.8h.7v1.8h3.9v.7H639a11.08,11.08,0,0,0,3.6,4.3l-.5.6a11.42,11.42,0,0,1-3.7-4.9h-.1v3.9h2.1v.7h-2.1v2h-.7v-2h-2.1v-.7h2.1v-3.9h-.1a10.36,10.36,0,0,1-3.8,5l-.4-.7a9.31,9.31,0,0,0,3.6-4.3h-3.3v-.7Zm8.9,1.9h1a7.51,7.51,0,0,0,.7-1.8l.7.2a5.23,5.23,0,0,1-.7,1.5h1.2v.7h-5v-.7h1.3c-.2-.5-.4-1-.6-1.4l.7-.2A5.44,5.44,0,0,1,646.5,353.6Zm.2-2.8a3.55,3.55,0,0,0-.4-.9l.7-.1c.1.3.2.6.3,1h2v.7h-4.7v-.7Zm2.4,8.1h-.7v-.6h-2.6v.6h-.7v-3.8h4Zm-.8-1.2v-1.8h-2.6v1.8Zm5-7.4v.5a24.68,24.68,0,0,1-1,2.9,4.29,4.29,0,0,1,1.1,2.3,1.7,1.7,0,0,1-.4,1.3,2.83,2.83,0,0,1-1.6.4l-.2-.8h.7a1,1,0,0,0,.7-.2c.1-.1.1-.4.2-.7a3.91,3.91,0,0,0-1.2-2.3,29.08,29.08,0,0,0,1-2.8h-1.8V359H650v-8.7h3.3Zm10.9-.6a9.77,9.77,0,0,0-1.3,4.7,8.24,8.24,0,0,0,.4,2.6,9.49,9.49,0,0,0,.9,2.1h-.7a6.81,6.81,0,0,1-1-2.1,7.83,7.83,0,0,1-.4-2.6,7.46,7.46,0,0,1,.4-2.6,10,10,0,0,1,1-2.1Zm5.9.2V359h-.7v-1.7a11.42,11.42,0,0,1-2.6.9l-.2-.7a9.38,9.38,0,0,0,2.8-1v-3.2h-2.6v-.7h2.6v-2.8h.7Zm2.6,8.9c-.6,0-.9-.3-.9-1v-8h.7v3.3a11.88,11.88,0,0,0,2.5-1.3l.4.6a15.25,15.25,0,0,1-2.9,1.4v3.8c0,.3.1.4.4.4h1.2a.76.76,0,0,0,.5-.2,11.06,11.06,0,0,0,.2-1.8l.7.2a9.34,9.34,0,0,1-.3,2.1,1.27,1.27,0,0,1-.9.4h-1.6Zm6.3-7v-1.9h.7v1.9h1v.7h-1v.8a14.7,14.7,0,0,1,1,1.3,9.74,9.74,0,0,0,1.5-2.4l.6.3a12,12,0,0,1-1.6,2.5l-.4-.3.2.3-.4.6a19.42,19.42,0,0,0-1-1.7v5H679v-5.1a11.26,11.26,0,0,1-1.3,2.7l-.3-.8a9.22,9.22,0,0,0,1.6-3.3h-1.3v-.7H679Zm6.2,2.4a5.52,5.52,0,0,1-1.1,2.7,7.44,7.44,0,0,0,2.5,1.4l-.4.6a7.55,7.55,0,0,1-2.5-1.5A6.09,6.09,0,0,1,681,359l-.4-.6a6.47,6.47,0,0,0,2.6-1.4,5.68,5.68,0,0,1-1.2-2.6l.6-.2a5.23,5.23,0,0,0,1,2.3,6.91,6.91,0,0,0,.9-2.3Zm-1.8-3.1c-.2-.5-.4-.9-.6-1.3l.7-.1c.2.4.4.9.6,1.4h2.2v.7H681v-.7Zm3.2,3.5-.6.4a22.18,22.18,0,0,0-1.7-2.4l.6-.3A15,15,0,0,1,686.6,354.6Zm10.5-4.4v.7h-7.2v7h7.5v.7h-8.2v-8.3h7.9Zm-3.2,3.8a10.38,10.38,0,0,0,1.5-2.5l.6.3a12,12,0,0,1-1.6,2.7,20.79,20.79,0,0,1,2.1,2.1l-.6.6c-.6-.7-1.3-1.4-2-2.1a10.55,10.55,0,0,1-3,2.2l-.4-.6a8.37,8.37,0,0,0,2.9-2c-.8-.7-1.7-1.4-2.6-2.1l.5-.5A15.72,15.72,0,0,1,693.9,354Zm6.6-4.3a6.81,6.81,0,0,1,1,2.1,8.65,8.65,0,0,1,0,5.2,20,20,0,0,1-1,2.1h-.7a9.49,9.49,0,0,0,.9-2.1,8.65,8.65,0,0,0,0-5.2,9.49,9.49,0,0,0-.9-2.1Z" transform="translate(-1.5 -62)"/><path class="cls-2" d="M225.4,467.1v-.7h-4.1v-3h4.1v-.8h1.3v.8h4.1v3h-4.1v.7h5.6v1.1H219.8v-1.1Zm1.5,3.6c-.2,1.7-.6,2.8-1.3,3.4s-2.4,1.2-5.2,1.4l-.5-1.2c2.3-.1,3.8-.4,4.6-1a3.41,3.41,0,0,0,1.1-2.7Zm3.8,2.3h-1.3v-3h-6.5v3.2h-1.3v-4.3h9.1Zm-5.3-8.6h-2.8v.9h2.8Zm6.9,10.1-.7,1.1a44,44,0,0,0-5.1-1.8l.7-1A30.46,30.46,0,0,1,232.3,474.5Zm-2.7-10.1h-2.8v.9h2.8Zm10.8-1.4v1a38.93,38.93,0,0,1-1.6,3.8,7.73,7.73,0,0,1,1.5,3.3,2.59,2.59,0,0,1-.4,1.4,4,4,0,0,1-2.3.6l-.4-1.3c.3,0,.5.1.7.1a2,2,0,0,0,.9-.2.76.76,0,0,0,.2-.5,5.39,5.39,0,0,0-1.5-3.2,35.25,35.25,0,0,0,1.6-3.8h-2.2v11.3h-1.3V463Zm7,12.4h-1.3v-1.1h-3.9v1H241V463.1h6.5v12.3Zm-1.2-7.3v-3.7h-3.9v3.7Zm0,5v-3.7h-3.9v3.7Z" transform="translate(-1.5 -62)"/><path class="cls-2" d="M206.1,441v10h-1.5v-8.2a5.76,5.76,0,0,1-2.3,1.3v-1.5a5.34,5.34,0,0,0,1.4-.6,6.42,6.42,0,0,0,1.3-1h1.1Zm9.6,1.3a8.06,8.06,0,0,1,0,7.4,3.18,3.18,0,0,1-5.4,0,6.76,6.76,0,0,1-.9-3.7,6.53,6.53,0,0,1,.9-3.7,3.18,3.18,0,0,1,5.4,0Zm-4.4,1.1a6,6,0,0,0-.4,2.5,5.67,5.67,0,0,0,.4,2.5,1.73,1.73,0,0,0,3.4,0,8.15,8.15,0,0,0,.4-2.5,5.67,5.67,0,0,0-.4-2.5A1.78,1.78,0,0,0,213,442,1.9,1.9,0,0,0,211.3,443.4Zm10.2,9.1-1-.9a8.44,8.44,0,0,0,1.4-4.7V440h8.3v11c0,.9-.5,1.3-1.4,1.3H227l-.4-1.3c.6,0,1.2.1,1.7.1.3,0,.4-.2.4-.6V448H223A7.8,7.8,0,0,1,221.5,452.5Zm7.3-11.2h-5.7v2.1h5.7Zm-5.7,5.5h5.7v-2.2h-5.7Zm15.3-5.8v10h-1.5v-8.2a5.76,5.76,0,0,1-2.3,1.3v-1.5a5.34,5.34,0,0,0,1.4-.6,6.42,6.42,0,0,0,1.3-1h1.1Zm9.4.6a2.94,2.94,0,0,1,.9,2.2,3.25,3.25,0,0,1-1,2.4,18,18,0,0,1-2.1,1.6,4.2,4.2,0,0,0-1.9,1.9h5V451h-6.9a3.54,3.54,0,0,1,1-2.6,15.2,15.2,0,0,1,2.3-1.8c.7-.5,1.1-.9,1.4-1.1a2.83,2.83,0,0,0,.7-1.6,1.73,1.73,0,0,0-.5-1.3,2,2,0,0,0-1.4-.4,1.68,1.68,0,0,0-1.4.6,3,3,0,0,0-.5,1.8h-1.5a3.62,3.62,0,0,1,1-2.7,3.31,3.31,0,0,1,2.6-1.1A3.57,3.57,0,0,1,247.8,441.6Zm14.7,10.8h-1.3v-1h-6.3v1h-1.3V440h9v12.4Zm-1.3-7.5v-3.6h-6.3v3.6Zm0,5.2v-3.9h-6.3v3.9Z" transform="translate(-1.5 -62)"/><path class="cls-2" d="M196.4,552.9V560h-.8v-6.1a3.23,3.23,0,0,1-1.7,1V554a4.18,4.18,0,0,0,1-.4c.3-.2.6-.5.9-.7h.6Zm6.8.4a1.61,1.61,0,0,1,.6,1.3,1.69,1.69,0,0,1-.3,1,1.55,1.55,0,0,1-.8.6h0a1.46,1.46,0,0,1,.9.6,1.59,1.59,0,0,1,.4,1.2,1.8,1.8,0,0,1-.7,1.5,2.88,2.88,0,0,1-1.9.6,2.71,2.71,0,0,1-1.9-.6,2.13,2.13,0,0,1-.7-1.5,1.59,1.59,0,0,1,.4-1.2,2.36,2.36,0,0,1,.9-.6h0a1,1,0,0,1-.8-.6,1.69,1.69,0,0,1-.3-1,1.61,1.61,0,0,1,.6-1.3,2.35,2.35,0,0,1,1.7-.6A2.55,2.55,0,0,1,203.2,553.3Zm-3.1,3.7a1.28,1.28,0,0,0-.4,1,1.16,1.16,0,0,0,.4,1,2.31,2.31,0,0,0,2.6,0,1.28,1.28,0,0,0,.4-1,1.16,1.16,0,0,0-.4-1,1.84,1.84,0,0,0-1.3-.4A2,2,0,0,0,200.1,557Zm.2-3.2a1.27,1.27,0,0,0-.4.9,1.22,1.22,0,0,0,.3.9,1.59,1.59,0,0,0,1.2.4,1.46,1.46,0,0,0,1.2-.4,1.34,1.34,0,0,0-.1-1.8,1.59,1.59,0,0,0-1.2-.4A1.43,1.43,0,0,0,200.3,553.8Zm8.1.3a.5.5,0,0,1,0,.8.6.6,0,0,1-1-.4.4.4,0,0,1,.2-.4.5.5,0,0,1,.8,0Zm0,3.7a.5.5,0,0,1,0,.8.6.6,0,0,1-1-.4c0-.2,0-.3.2-.4a.76.76,0,0,1,.4-.2A.4.4,0,0,1,208.4,557.8Zm12.8-4.6a1.68,1.68,0,0,1,.6,1.4,1.59,1.59,0,0,1-1.2,1.6,2.07,2.07,0,0,1,1,.6,1.78,1.78,0,0,1,.4,1,2,2,0,0,1-.7,1.6,2.79,2.79,0,0,1-1.8.6,3.1,3.1,0,0,1-1.7-.5,2.2,2.2,0,0,1-.8-1.8h.8a1.49,1.49,0,0,0,.6,1.3,2.1,2.1,0,0,0,1.1.4,1.59,1.59,0,0,0,1.2-.4,1.28,1.28,0,0,0,.4-1,1.16,1.16,0,0,0-.4-1,2.13,2.13,0,0,0-1.2-.3H219V556h.5a1.8,1.8,0,0,0,1.1-.3,1.27,1.27,0,0,0,.4-.9,1,1,0,0,0-.4-.9,1.8,1.8,0,0,0-1.1-.3,1.37,1.37,0,0,0-1.1.4,1.88,1.88,0,0,0-.5,1.1h-.8a2.39,2.39,0,0,1,2.4-2.2A3.06,3.06,0,0,1,221.2,553.2Zm7.2.7a4.76,4.76,0,0,1,.6,2.6,5,5,0,0,1-.6,2.6,2.14,2.14,0,0,1-1.9,1.1,2,2,0,0,1-1.9-1.1,4.76,4.76,0,0,1-.6-2.6,5,5,0,0,1,.6-2.6,2,2,0,0,1,1.9-1.1A1.82,1.82,0,0,1,228.4,553.9Zm-3.3.6a5.25,5.25,0,0,0-.3,2,5.62,5.62,0,0,0,.3,2,1.48,1.48,0,0,0,2.8,0,5.25,5.25,0,0,0,.3-2,5.62,5.62,0,0,0-.3-2,1.48,1.48,0,0,0-2.8,0Zm10.9,2.6v.7h-5v-.7Zm6.3-3.8a2,2,0,0,1,.6,1.5,2.34,2.34,0,0,1-.7,1.7,5.65,5.65,0,0,1-1.5,1.1,4.68,4.68,0,0,0-1.6,1.6h3.7v.7H238a2.74,2.74,0,0,1,.7-1.8c.3-.3.8-.7,1.5-1.3a6.49,6.49,0,0,0,1.1-.9,1.66,1.66,0,0,0,.5-1.3,1.16,1.16,0,0,0-.4-1,1.82,1.82,0,0,0-1.1-.4,1.29,1.29,0,0,0-1.1.5,2,2,0,0,0-.4,1.4H238a2.49,2.49,0,0,1,.7-1.9,2.06,2.06,0,0,1,1.7-.7A4.19,4.19,0,0,1,242.3,553.3Zm5.2-.4V560h-.8v-6.1a3.23,3.23,0,0,1-1.7,1V554a4.18,4.18,0,0,0,1-.4c.3-.2.6-.5.9-.7h.6Zm5,1.2a.5.5,0,0,1,0,.8.6.6,0,0,1-1-.4.4.4,0,0,1,.2-.4.5.5,0,0,1,.8,0Zm0,3.7a.5.5,0,0,1,0,.8.6.6,0,0,1-1-.4c0-.2,0-.3.2-.4a.76.76,0,0,1,.4-.2A.4.4,0,0,1,252.5,557.8Zm12.8-4.6a1.68,1.68,0,0,1,.6,1.4,1.59,1.59,0,0,1-1.2,1.6,2.07,2.07,0,0,1,1,.6,1.78,1.78,0,0,1,.4,1,2,2,0,0,1-.7,1.6,2.79,2.79,0,0,1-1.8.6,3.1,3.1,0,0,1-1.7-.5,2.2,2.2,0,0,1-.8-1.8h.8a1.49,1.49,0,0,0,.6,1.3,2.1,2.1,0,0,0,1.1.4,1.59,1.59,0,0,0,1.2-.4,1.28,1.28,0,0,0,.4-1,1.16,1.16,0,0,0-.4-1,2.13,2.13,0,0,0-1.2-.3H263V556h.5a1.8,1.8,0,0,0,1.1-.3,1.27,1.27,0,0,0,.4-.9,1,1,0,0,0-.4-.9,1.8,1.8,0,0,0-1.1-.3,1.37,1.37,0,0,0-1.1.4,1.88,1.88,0,0,0-.5,1.1h-.8a2.39,2.39,0,0,1,2.4-2.2A3.61,3.61,0,0,1,265.3,553.2Zm7.2.7a4.76,4.76,0,0,1,.6,2.6,5,5,0,0,1-.6,2.6,2.14,2.14,0,0,1-1.9,1.1,2,2,0,0,1-1.9-1.1,4.76,4.76,0,0,1-.6-2.6,5,5,0,0,1,.6-2.6,2,2,0,0,1,1.9-1.1A1.9,1.9,0,0,1,272.5,553.9Zm-3.3.6a5.25,5.25,0,0,0-.3,2,5.62,5.62,0,0,0,.3,2,1.48,1.48,0,0,0,2.8,0,5.25,5.25,0,0,0,.3-2,5.62,5.62,0,0,0-.3-2,1.38,1.38,0,0,0-1.4-1A1.31,1.31,0,0,0,269.2,554.5Z" transform="translate(-1.5 -62)"/><path class="cls-3" d="M206.1,522.1v-.8h-4.6v-3.4h4.6v-1h1.5v1h4.7v3.4h-4.7v.8H214v1.3H199.6v-1.3Zm1.6,4.1c-.2,2-.7,3.2-1.5,3.9s-2.8,1.3-5.9,1.6l-.6-1.4c2.6-.1,4.4-.5,5.2-1.1a3.92,3.92,0,0,0,1.3-3.1Zm4.4,2.6h-1.5v-3.4h-7.4V529h-1.5v-4.9h10.4Zm-6-9.7h-3.2v1.1h3.2Zm7.8,11.4-.8,1.3a39.74,39.74,0,0,0-5.8-2l.8-1.1A43.93,43.93,0,0,1,213.9,530.5Zm-3.1-11.4h-3.2v1.1h3.2Zm9,2a24.72,24.72,0,0,1-1.1,4.7l-1.4-.5a17.3,17.3,0,0,0,1.2-4.6Zm4.9,3.9-1.2.6a25.86,25.86,0,0,0-1.5-3.7v.1c0,4.4-1,7.6-3,9.7l-1.1-1c1.8-1.8,2.6-4.7,2.7-8.7v-4.9H222v4.5l1-.5A23,23,0,0,1,224.7,525Zm1.8-7.5v3.9l1-.4a35.17,35.17,0,0,1,1.7,3.9l-1.2.6a30,30,0,0,0-1.4-3.6v9.2H225V517.4h1.5Zm4.4-.5v14.7h-1.5V517Zm10.2,4a21.3,21.3,0,0,0,.2-2.7v-1.4h1.5v1a26.61,26.61,0,0,1-.2,3h6.5v1.5H243a13.72,13.72,0,0,0,6.5,7.9l-.9,1.2a15.33,15.33,0,0,1-6.5-7.9,12.67,12.67,0,0,1-6.5,8.1l-1-1.3a11.08,11.08,0,0,0,6.2-8h-5.9V521Zm25.4,2.9H265v-2.4H254.2v2.4h-1.5V520h2.9a13.36,13.36,0,0,0-1.6-2.3l1.4-.7a27.21,27.21,0,0,1,1.6,2.5l-1,.5h6a19.62,19.62,0,0,0,1.7-3.2l1.6.6a19.71,19.71,0,0,1-1.6,2.6h2.9v3.9Zm-2.6-1.4v1.3a21.65,21.65,0,0,1-3.4,1.9v.6h6v1.4h-6v2.4c0,.9-.5,1.4-1.5,1.4h-2l-.4-1.4h1.9c.3,0,.5-.2.5-.6v-1.9h-6.3v-1.4H259V525q1.65-.75,2.7-1.2h-6.5v-1.3Zm-3.2-3.2-1.4.7a30,30,0,0,0-1.5-2.6l1.4-.7C259.7,517.5,260.2,518.4,260.7,519.3Z" transform="translate(-1.5 -62)"/><path class="cls-3" d="M222.1,537.9V547h-.7v-1.7a11.42,11.42,0,0,1-2.6.9l-.2-.7a9.38,9.38,0,0,0,2.8-1v-3.2h-2.6v-.7h2.6v-2.8h.7Zm2.6,8.9c-.6,0-.9-.3-.9-1v-8h.7v3.3a11.88,11.88,0,0,0,2.5-1.3l.4.6a15.26,15.26,0,0,1-2.9,1.4v3.8c0,.3.1.4.4.4h1.2a.76.76,0,0,0,.5-.2,11.05,11.05,0,0,0,.2-1.8l.7.2a9.34,9.34,0,0,1-.3,2.1,1.27,1.27,0,0,1-.9.4h-1.6Zm6.3-7v-1.9h.7v1.9h1v.7h-1v.8a14.7,14.7,0,0,1,1,1.3,9.74,9.74,0,0,0,1.5-2.4l.6.3a12,12,0,0,1-1.6,2.5l-.4-.3.2.3-.4.6a19.42,19.42,0,0,0-1-1.7v5H231v-5.1a11.26,11.26,0,0,1-1.3,2.7l-.3-.8a9.22,9.22,0,0,0,1.6-3.3h-1.3v-.7H231Zm6.2,2.4a5.52,5.52,0,0,1-1.1,2.7,7.44,7.44,0,0,0,2.5,1.4l-.4.6a7.55,7.55,0,0,1-2.5-1.5A6.09,6.09,0,0,1,233,547l-.4-.6a6.47,6.47,0,0,0,2.6-1.4,5.68,5.68,0,0,1-1.2-2.6l.6-.2a5.23,5.23,0,0,0,1,2.3,6.91,6.91,0,0,0,.9-2.3Zm-1.8-3.1c-.2-.5-.4-.9-.6-1.3l.7-.1c.2.4.4.9.6,1.4h2.2v.7H233v-.7h2.4Zm3.2,3.5-.6.4a22.18,22.18,0,0,0-1.7-2.4l.6-.3A15,15,0,0,1,238.6,542.6Zm10.5-4.4v.7h-7.2v7h7.5v.7h-8.2v-8.3h7.9Zm-3.2,3.8a10.37,10.37,0,0,0,1.5-2.5l.6.3a12,12,0,0,1-1.6,2.7,20.79,20.79,0,0,1,2.1,2.1l-.6.6c-.6-.7-1.3-1.4-2-2.1a10.54,10.54,0,0,1-3,2.2l-.4-.6a8.37,8.37,0,0,0,2.9-2c-.8-.7-1.7-1.4-2.6-2.1l.5-.5A15.71,15.71,0,0,1,245.9,542Z" transform="translate(-1.5 -62)"/><path class="cls-2" d="M369.9,90.2l-.9.9a15.14,15.14,0,0,0-2.2-2.2l.9-.9C368.5,88.8,369.3,89.5,369.9,90.2Zm.3,2.2c-.6,1.8-1.3,3.4-2,5l-1.3-.6A50,50,0,0,0,369,92Zm0-5.5-.9.9a12,12,0,0,0-2.3-2.1l.9-.9A16,16,0,0,1,370.2,86.9Zm8.6,3.5h-1.3V88h-2.2c-.1.8-.2,1.5-.3,2.2h1.2v5.5c0,.3.2.4.5.4h1a.52.52,0,0,0,.4-.2,4,4,0,0,0,.3-2.1l1.2.4a7.21,7.21,0,0,1-.5,2.7,1.37,1.37,0,0,1-1.1.4h-1.7a1.22,1.22,0,0,1-1.4-1.4V90.6a10.36,10.36,0,0,1-4.6,7l-.8-1.1c2.7-1.6,4.2-4.4,4.5-8.5h-2.1v2.4h-1.3V86.7H374V84.6h1.3v2.1h3.4v3.7Zm8.6-5.4v1a38.93,38.93,0,0,1-1.6,3.8,7.73,7.73,0,0,1,1.5,3.3,2.59,2.59,0,0,1-.4,1.4,4,4,0,0,1-2.3.6l-.4-1.3c.3,0,.5.1.7.1a2,2,0,0,0,.9-.2.76.76,0,0,0,.2-.5,5.39,5.39,0,0,0-1.5-3.2,35.25,35.25,0,0,0,1.6-3.8h-2.2V97.5h-1.3V85Zm7,12.4h-1.3V96.3h-3.9v1H388V85.2h6.5V97.4Zm-1.2-7.3V86.4h-3.9v3.7Zm0,5V91.4h-3.9v3.7Z" transform="translate(-1.5 -62)"/><path class="cls-2" d="M358.3,64.1a6.18,6.18,0,0,1,.9,3.6,7.21,7.21,0,0,1-1,4,3.17,3.17,0,0,1-2.7,1.5,3,3,0,0,1-3.3-2.7h1.5a1.67,1.67,0,0,0,1.8,1.5,2.21,2.21,0,0,0,1.7-1,4.5,4.5,0,0,0,.6-2.4v-.2h-.1a2.66,2.66,0,0,1-1.1,1,3.19,3.19,0,0,1-1.4.3,3,3,0,0,1-2.4-1,3.24,3.24,0,0,1-.9-2.4,3.42,3.42,0,0,1,3.5-3.5A3.35,3.35,0,0,1,358.3,64.1Zm-4.2.6a2.11,2.11,0,0,0-.6,1.6,2.05,2.05,0,0,0,2.1,2.1,2,2,0,0,0,1.5-.6,2.07,2.07,0,0,0,.5-1.6,2.11,2.11,0,0,0-.6-1.6,2,2,0,0,0-1.5-.6A2.1,2.1,0,0,0,354.1,64.7Zm10,9.8-1-.9a8.44,8.44,0,0,0,1.4-4.7V62h8.3V73c0,.9-.5,1.3-1.4,1.3h-1.8l-.4-1.3c.6,0,1.2.1,1.7.1.3,0,.4-.2.4-.6V70h-5.7A7.8,7.8,0,0,1,364.1,74.5Zm7.3-11.2h-5.7v2.1h5.7Zm-5.7,5.5h5.7V66.6h-5.7Zm17.6-5.2a2.94,2.94,0,0,1,.9,2.2,3.25,3.25,0,0,1-1,2.4,18,18,0,0,1-2.1,1.6,4.2,4.2,0,0,0-1.9,1.9h5V73h-6.9a3.54,3.54,0,0,1,1-2.6,15.2,15.2,0,0,1,2.3-1.8c.7-.5,1.1-.9,1.4-1.1a2.83,2.83,0,0,0,.7-1.6,1.73,1.73,0,0,0-.5-1.3,2,2,0,0,0-1.4-.4,1.68,1.68,0,0,0-1.4.6,3,3,0,0,0-.5,1.8h-1.5a3.62,3.62,0,0,1,1-2.7,3.31,3.31,0,0,1,2.6-1.1A3.57,3.57,0,0,1,383.3,63.6Zm10,.7a8.06,8.06,0,0,1,0,7.4,3.18,3.18,0,0,1-5.4,0A6.76,6.76,0,0,1,387,68a6.53,6.53,0,0,1,.9-3.7,3.18,3.18,0,0,1,5.4,0Zm-4.4,1.1a6,6,0,0,0-.4,2.5,5.67,5.67,0,0,0,.4,2.5,1.73,1.73,0,0,0,3.4,0,8.15,8.15,0,0,0,.4-2.5,5.67,5.67,0,0,0-.4-2.5,1.78,1.78,0,0,0-1.7-1.4A1.9,1.9,0,0,0,388.9,65.4Zm18.9,9h-1.3v-1h-6.3v1h-1.3V62h9V74.4Zm-1.3-7.5V63.3h-6.3v3.6Zm0,5.2V68.2h-6.3v3.9Z" transform="translate(-1.5 -62)"/><path class="cls-2" d="M344.4,174.9V182h-.8v-6.1a3.23,3.23,0,0,1-1.7,1V176a4.18,4.18,0,0,0,1-.4c.3-.2.6-.5.9-.7h.6Zm6.8.4a1.61,1.61,0,0,1,.6,1.3,1.69,1.69,0,0,1-.3,1,1.56,1.56,0,0,1-.8.6h0a1.46,1.46,0,0,1,.9.6,1.59,1.59,0,0,1,.4,1.2,1.8,1.8,0,0,1-.7,1.5,2.88,2.88,0,0,1-1.9.6,2.71,2.71,0,0,1-1.9-.6,2.13,2.13,0,0,1-.7-1.5,1.59,1.59,0,0,1,.4-1.2,2.36,2.36,0,0,1,.9-.6h0a1,1,0,0,1-.8-.6,1.69,1.69,0,0,1-.3-1,1.61,1.61,0,0,1,.6-1.3,2.35,2.35,0,0,1,1.7-.6A2.55,2.55,0,0,1,351.2,175.3Zm-3.1,3.7a1.28,1.28,0,0,0-.4,1,1.16,1.16,0,0,0,.4,1,2.31,2.31,0,0,0,2.6,0,1.28,1.28,0,0,0,.4-1,1.16,1.16,0,0,0-.4-1,1.84,1.84,0,0,0-1.3-.4A2,2,0,0,0,348.1,179Zm.2-3.2a1.27,1.27,0,0,0-.4.9,1.22,1.22,0,0,0,.3.9,1.59,1.59,0,0,0,1.2.4,1.46,1.46,0,0,0,1.2-.4,1.34,1.34,0,0,0-.1-1.8,1.59,1.59,0,0,0-1.2-.4A1.43,1.43,0,0,0,348.3,175.8Zm8.1.3a.5.5,0,0,1,0,.8.76.76,0,0,1-.4.2.52.52,0,0,1-.4-.2.76.76,0,0,1-.2-.4.4.4,0,0,1,.2-.4.5.5,0,0,1,.8,0Zm0,3.7a.5.5,0,0,1,0,.8.76.76,0,0,1-.4.2.52.52,0,0,1-.4-.2.76.76,0,0,1-.2-.4.4.4,0,0,1,.2-.4.76.76,0,0,1,.4-.2A.4.4,0,0,1,356.4,179.8Zm12.8-4.6a1.68,1.68,0,0,1,.6,1.4,1.59,1.59,0,0,1-1.2,1.6,2.07,2.07,0,0,1,1,.6,1.78,1.78,0,0,1,.4,1,2,2,0,0,1-.7,1.6,2.79,2.79,0,0,1-1.8.6,3.1,3.1,0,0,1-1.7-.5,2.2,2.2,0,0,1-.8-1.8h.8a1.49,1.49,0,0,0,.6,1.3,2.1,2.1,0,0,0,1.1.4,1.59,1.59,0,0,0,1.2-.4,1.28,1.28,0,0,0,.4-1,1.16,1.16,0,0,0-.4-1,2.13,2.13,0,0,0-1.2-.3H367V178h.5a1.8,1.8,0,0,0,1.1-.3,1.27,1.27,0,0,0,.4-.9,1,1,0,0,0-.4-.9,1.8,1.8,0,0,0-1.1-.3,1.37,1.37,0,0,0-1.1.4,1.88,1.88,0,0,0-.5,1.1h-.8a2.39,2.39,0,0,1,2.4-2.2A3.06,3.06,0,0,1,369.2,175.2Zm7.2.7a4.76,4.76,0,0,1,.6,2.6,5,5,0,0,1-.6,2.6,2.14,2.14,0,0,1-1.9,1.1,2,2,0,0,1-1.9-1.1,4.76,4.76,0,0,1-.6-2.6,5,5,0,0,1,.6-2.6,2,2,0,0,1,1.9-1.1A1.82,1.82,0,0,1,376.4,175.9Zm-3.3.6a5.25,5.25,0,0,0-.3,2,5.62,5.62,0,0,0,.3,2,1.48,1.48,0,0,0,2.8,0,5.25,5.25,0,0,0,.3-2,5.62,5.62,0,0,0-.3-2,1.48,1.48,0,0,0-2.8,0Zm10.9,2.6v.7h-5v-.7Zm6.3-3.8a2,2,0,0,1,.6,1.5,2.34,2.34,0,0,1-.7,1.7,5.65,5.65,0,0,1-1.5,1.1,4.68,4.68,0,0,0-1.6,1.6h3.7v.7H386a2.74,2.74,0,0,1,.7-1.8c.3-.3.8-.7,1.5-1.3a6.49,6.49,0,0,0,1.1-.9,1.66,1.66,0,0,0,.5-1.3,1.16,1.16,0,0,0-.4-1,1.82,1.82,0,0,0-1.1-.4,1.29,1.29,0,0,0-1.1.5,2,2,0,0,0-.4,1.4H386a2.49,2.49,0,0,1,.7-1.9,2.06,2.06,0,0,1,1.7-.7A4.19,4.19,0,0,1,390.3,175.3Zm5.2-.4V182h-.8v-6.1a3.23,3.23,0,0,1-1.7,1V176a4.18,4.18,0,0,0,1-.4c.3-.2.6-.5.9-.7h.6Zm5,1.2a.5.5,0,0,1,0,.8.76.76,0,0,1-.4.2.52.52,0,0,1-.4-.2.76.76,0,0,1-.2-.4.4.4,0,0,1,.2-.4.5.5,0,0,1,.8,0Zm0,3.7a.5.5,0,0,1,0,.8.76.76,0,0,1-.4.2.52.52,0,0,1-.4-.2.76.76,0,0,1-.2-.4.4.4,0,0,1,.2-.4.76.76,0,0,1,.4-.2A.4.4,0,0,1,400.5,179.8Zm12.8-4.6a1.68,1.68,0,0,1,.6,1.4,1.59,1.59,0,0,1-1.2,1.6,2.07,2.07,0,0,1,1,.6,1.78,1.78,0,0,1,.4,1,2,2,0,0,1-.7,1.6,2.79,2.79,0,0,1-1.8.6,3.1,3.1,0,0,1-1.7-.5,2.2,2.2,0,0,1-.8-1.8h.8a1.49,1.49,0,0,0,.6,1.3,2.1,2.1,0,0,0,1.1.4,1.59,1.59,0,0,0,1.2-.4,1.28,1.28,0,0,0,.4-1,1.16,1.16,0,0,0-.4-1,2.13,2.13,0,0,0-1.2-.3H411V178h.5a1.8,1.8,0,0,0,1.1-.3,1.27,1.27,0,0,0,.4-.9,1,1,0,0,0-.4-.9,1.8,1.8,0,0,0-1.1-.3,1.37,1.37,0,0,0-1.1.4,1.88,1.88,0,0,0-.5,1.1h-.8a2.39,2.39,0,0,1,2.4-2.2A3.61,3.61,0,0,1,413.3,175.2Zm7.2.7a4.76,4.76,0,0,1,.6,2.6,5,5,0,0,1-.6,2.6,2.14,2.14,0,0,1-1.9,1.1,2,2,0,0,1-1.9-1.1,4.76,4.76,0,0,1-.6-2.6,5,5,0,0,1,.6-2.6,2,2,0,0,1,1.9-1.1A1.9,1.9,0,0,1,420.5,175.9Zm-3.3.6a5.25,5.25,0,0,0-.3,2,5.62,5.62,0,0,0,.3,2,1.48,1.48,0,0,0,2.8,0,5.25,5.25,0,0,0,.3-2,5.62,5.62,0,0,0-.3-2,1.38,1.38,0,0,0-1.4-1A1.31,1.31,0,0,0,417.2,176.5Z" transform="translate(-1.5 -62)"/><path class="cls-3" d="M351.8,149.2a14.87,14.87,0,0,1-3.8,3.7l-1-1.3a15.15,15.15,0,0,0,3.7-3.4Zm-.4-8.5c.3-.6.5-1.3.8-2l1.5.3a7.74,7.74,0,0,1-.7,1.6h8v1.5h-8.7a20.19,20.19,0,0,1-2.2,3.6h3.7v-2.2h1.5v2.2h4.9v1.4h-4.9v4.8c0,1.1-.6,1.6-1.7,1.6H352l-.3-1.5a7.57,7.57,0,0,0,1.5.1c.4,0,.7-.2.7-.6v-4.4h-5.3l-.4-1.4a18.32,18.32,0,0,0,2.5-3.7h-3.2v-1.5h3.9Zm10.2,11.1-1.1,1.1a23.33,23.33,0,0,0-3.5-3.8l1-1A40.88,40.88,0,0,1,361.6,151.8Zm9-12.9v14.6H369V151a27,27,0,0,1-4,1.4l-.4-1.5a17.61,17.61,0,0,0,4.4-1.5v-4.8h-4v-1.5h4.1v-4.3h1.5Zm4,14.5c-1.1,0-1.7-.6-1.7-1.8V138.9h1.5v5.2a13.28,13.28,0,0,0,3.7-2l.9,1.2a23.75,23.75,0,0,1-4.6,2.2v5.8c0,.4.2.6.5.6h1.9a.75.75,0,0,0,.7-.4,11.61,11.61,0,0,0,.2-2.7l1.4.5a11.21,11.21,0,0,1-.5,3.4,1.75,1.75,0,0,1-1.5.6h-2.5Zm14-10.4a21.3,21.3,0,0,0,.2-2.7v-1.4h1.5v1a26.61,26.61,0,0,1-.2,3h6.5v1.5h-6.1a13.72,13.72,0,0,0,6.5,7.9l-.9,1.2a15.33,15.33,0,0,1-6.5-7.9,12.67,12.67,0,0,1-6.5,8.1l-1-1.3a11.08,11.08,0,0,0,6.2-8h-5.9V143Zm25.4,2.9h-1.5v-2.4H401.7v2.4h-1.5V142h2.9a13.36,13.36,0,0,0-1.6-2.3l1.4-.7a27.21,27.21,0,0,1,1.6,2.5l-1,.5h6a19.62,19.62,0,0,0,1.7-3.2l1.6.6a19.71,19.71,0,0,1-1.6,2.6h2.9v3.9Zm-2.6-1.4v1.3a21.65,21.65,0,0,1-3.4,1.9v.6h6v1.4h-6v2.4c0,.9-.5,1.4-1.5,1.4h-2l-.4-1.4H406c.3,0,.5-.2.5-.6v-1.9h-6.3v-1.4h6.3V147q1.65-.75,2.7-1.2h-6.5v-1.3Zm-3.2-3.2-1.4.7a30,30,0,0,0-1.5-2.6l1.4-.7C407.2,139.5,407.7,140.4,408.2,141.3Z" transform="translate(-1.5 -62)"/><path class="cls-3" d="M362.8,163.8l-.5.5a7.13,7.13,0,0,0-1.8-1.5l.5-.5A7.13,7.13,0,0,1,362.8,163.8Zm.3,1.6a18.92,18.92,0,0,1-1.7,3.5l-.7-.3a22.61,22.61,0,0,0,1.7-3.5Zm.1-3.9-.5.5a7.85,7.85,0,0,0-1.9-1.5l.5-.5A10.49,10.49,0,0,1,363.2,161.5Zm3-.1a4.18,4.18,0,0,1-.4,1h3.4v.6h-3.6a9.5,9.5,0,0,1-1,1.7h1.6v-1.2h.7v1.2H369v.6h-2v1.2h2.6v.7H367v1.7h-.7v-1.7h-2.9v-.7h2.9v-1.2H364l-.1-.6c.4-.5.7-1.1,1.1-1.7h-1.3v-.6h1.5c.1-.4.3-.7.4-1.1Zm3.1.5h-.7v-1.1h-4.4v1.1h-.7v-1.7h5.7v1.7Zm6.4-1.1.1-1,.7.1c0,.3-.1.6-.1.9h4v.7h-4.1c-.1.4-.1.7-.2,1h3.8V168a.8.8,0,0,1-.9.9h-1l-.2-.7h.9c.3,0,.4-.1.4-.4v-4.7h-6.4v5.8H372v-6.5h3.3c.1-.3.1-.7.2-1h-4v-.7h4.2Zm-.2,3.9h1c.2-.4.4-.8.6-1.3l.7.2c-.2.4-.4.7-.6,1.1h1.1v.6h-2v1h2.3v.6h-2.3v1.8h-.7V167h-2.3v-.6h2.3v-1h-2v-.6h1.1a3.13,3.13,0,0,0-.5-1l.6-.2A2.33,2.33,0,0,1,375.5,164.7Zm8.5-2.9v-1.9h.7v1.9h1v.7h-1v.8a14.7,14.7,0,0,1,1,1.3,9.74,9.74,0,0,0,1.5-2.4l.6.3a12,12,0,0,1-1.6,2.5l-.4-.3.2.3-.4.6a19.41,19.41,0,0,0-1-1.7v5H384v-5.1a11.26,11.26,0,0,1-1.3,2.7l-.3-.8a9.22,9.22,0,0,0,1.6-3.3h-1.3v-.7H384Zm6.2,2.4a5.52,5.52,0,0,1-1.1,2.7,7.44,7.44,0,0,0,2.5,1.4l-.4.6a7.55,7.55,0,0,1-2.5-1.5A6.09,6.09,0,0,1,386,169l-.4-.6a6.47,6.47,0,0,0,2.6-1.4,5.68,5.68,0,0,1-1.2-2.6l.6-.2a5.23,5.23,0,0,0,1,2.3,6.91,6.91,0,0,0,.9-2.3Zm-1.8-3.1c-.2-.5-.4-.9-.6-1.3l.7-.1c.2.4.4.9.6,1.4h2.2v.7H386v-.7h2.4Zm3.2,3.5-.6.4a22.17,22.17,0,0,0-1.7-2.4l.6-.3A15,15,0,0,1,391.6,164.6Zm10.5-4.4v.7h-7.2v7h7.5v.7h-8.2v-8.3h7.9Zm-3.2,3.8a10.37,10.37,0,0,0,1.5-2.5l.6.3a12,12,0,0,1-1.6,2.7,20.79,20.79,0,0,1,2.1,2.1l-.6.6c-.6-.7-1.3-1.4-2-2.1a10.55,10.55,0,0,1-3,2.2l-.4-.6a8.37,8.37,0,0,0,2.9-2c-.8-.7-1.7-1.4-2.6-2.1l.5-.5A15.72,15.72,0,0,1,398.9,164Z" transform="translate(-1.5 -62)"/><path class="cls-2" d="M379.4,275v1.3h-4.1v1.8h3.4v9.2h-1.3v-.5H369v.5h-1.3v-9.2H371v-1.8h-4.1V275Zm-2.1,10.6v-2h-1.9a1.33,1.33,0,0,1-1.5-1.5v-2.6h-1.7v.1a5.56,5.56,0,0,1-2.3,4.9l-1-.9v2Zm-6.4-6.1v-.1h-2v4.1A4.43,4.43,0,0,0,370.9,279.5Zm1.3-1.4h1.7v-1.8h-1.7Zm3.1,3.6a.53.53,0,0,0,.6.6h1.5v-3h-2.1Zm10.9-2a15.06,15.06,0,0,0,1.1-2.2l1.4.4-.9,1.8h7V281H392a16.27,16.27,0,0,1-1.8,3.3c1.4.6,2.8,1.3,4.3,2.1l-.9,1.2c-1.4-.8-2.9-1.6-4.3-2.3a9.72,9.72,0,0,1-6.2,2.2l-.8-1.2a9.51,9.51,0,0,0,5.6-1.5c-1.3-.5-2.5-1-3.8-1.4.5-.8.9-1.5,1.4-2.3h-3.2v-1.3h3.9Zm8.3-.7h-1.3v-1.9h-9.3V279h-1.3v-3.2h5.2a10.91,10.91,0,0,0-.6-1.1l1.5-.3c.2.4.4.9.6,1.4h5.2V279Zm-8.5,3.7c1,.3,1.9.6,2.9,1a12.35,12.35,0,0,0,1.7-2.7H387C386.7,281.6,386.3,282.2,386,282.7Z" transform="translate(-1.5 -62)"/><path class="cls-2" d="M359.1,254.1a6.18,6.18,0,0,1,.9,3.6,7.21,7.21,0,0,1-1,4,3.17,3.17,0,0,1-2.7,1.5,3,3,0,0,1-3.3-2.7h1.5a1.67,1.67,0,0,0,1.8,1.5,2.21,2.21,0,0,0,1.7-1,4.5,4.5,0,0,0,.6-2.4v-.2h-.1a2.66,2.66,0,0,1-1.1,1,3.19,3.19,0,0,1-1.4.3,3,3,0,0,1-2.4-1,3.24,3.24,0,0,1-.9-2.4,3.42,3.42,0,0,1,3.5-3.5A3.13,3.13,0,0,1,359.1,254.1Zm-4.2.6a2.11,2.11,0,0,0-.6,1.6,2.05,2.05,0,0,0,2.1,2.1,2,2,0,0,0,1.5-.6,2.07,2.07,0,0,0,.5-1.6,2.11,2.11,0,0,0-.6-1.6,2,2,0,0,0-1.5-.6A2.67,2.67,0,0,0,354.9,254.7Zm10,9.8-1-.9a8.44,8.44,0,0,0,1.4-4.7V252h8.3v11c0,.9-.5,1.3-1.4,1.3h-1.8L370,263c.6,0,1.2.1,1.7.1.3,0,.4-.2.4-.6V260h-5.7A7.8,7.8,0,0,1,364.9,264.5Zm7.4-11.2h-5.7v2.1h5.7Zm-5.7,5.5h5.7v-2.2h-5.7Zm17.6-5.2a2.94,2.94,0,0,1,.9,2.2,3.25,3.25,0,0,1-1,2.4,18,18,0,0,1-2.1,1.6,4.2,4.2,0,0,0-1.9,1.9h5V263h-6.9a3.54,3.54,0,0,1,1-2.6,15.2,15.2,0,0,1,2.3-1.8c.7-.5,1.1-.9,1.4-1.1a2.83,2.83,0,0,0,.7-1.6,1.73,1.73,0,0,0-.5-1.3,2,2,0,0,0-1.4-.4,1.68,1.68,0,0,0-1.4.6,3,3,0,0,0-.5,1.8h-1.5a3.62,3.62,0,0,1,1-2.7,3.31,3.31,0,0,1,2.6-1.1A3.57,3.57,0,0,1,384.2,253.6Zm10.2-.6v1.2l-3.5,8.8h-1.6l3.6-8.6h-5.2V253ZM408,264.4h-1.3v-1h-6.3v1H399V252h9Zm-1.3-7.5v-3.6h-6.3v3.6Zm0,5.2v-3.9h-6.3v3.9Z" transform="translate(-1.5 -62)"/><path class="cls-2" d="M344.4,364.9V372h-.8v-6.1a3.23,3.23,0,0,1-1.7,1V366a4.18,4.18,0,0,0,1-.4c.3-.2.6-.5.9-.7Zm6.8.4a1.61,1.61,0,0,1,.6,1.3,1.69,1.69,0,0,1-.3,1,1.56,1.56,0,0,1-.8.6h0a1.46,1.46,0,0,1,.9.6,1.59,1.59,0,0,1,.4,1.2,1.8,1.8,0,0,1-.7,1.5,2.88,2.88,0,0,1-1.9.6,2.71,2.71,0,0,1-1.9-.6,2.13,2.13,0,0,1-.7-1.5,1.59,1.59,0,0,1,.4-1.2,2.36,2.36,0,0,1,.9-.6h0a1,1,0,0,1-.8-.6,1.69,1.69,0,0,1-.3-1,1.61,1.61,0,0,1,.6-1.3,2.35,2.35,0,0,1,1.7-.6A2.55,2.55,0,0,1,351.2,365.3Zm-3.1,3.7a1.28,1.28,0,0,0-.4,1,1.16,1.16,0,0,0,.4,1,2.31,2.31,0,0,0,2.6,0,1.28,1.28,0,0,0,.4-1,1.16,1.16,0,0,0-.4-1,1.84,1.84,0,0,0-1.3-.4A2,2,0,0,0,348.1,369Zm.2-3.2a1.27,1.27,0,0,0-.4.9,1.22,1.22,0,0,0,.3.9,1.59,1.59,0,0,0,1.2.4,1.46,1.46,0,0,0,1.2-.4,1.34,1.34,0,0,0-.1-1.8,1.59,1.59,0,0,0-1.2-.4A1.43,1.43,0,0,0,348.3,365.8Zm8.1.3a.5.5,0,0,1,0,.8.76.76,0,0,1-.4.2.52.52,0,0,1-.4-.2.76.76,0,0,1-.2-.4.4.4,0,0,1,.2-.4.5.5,0,0,1,.8,0Zm0,3.7a.5.5,0,0,1,0,.8.76.76,0,0,1-.4.2.52.52,0,0,1-.4-.2.76.76,0,0,1-.2-.4.4.4,0,0,1,.2-.4.76.76,0,0,1,.4-.2A.4.4,0,0,1,356.4,369.8Zm12.8-4.6a1.68,1.68,0,0,1,.6,1.4,1.59,1.59,0,0,1-1.2,1.6,2.07,2.07,0,0,1,1,.6,1.78,1.78,0,0,1,.4,1,2,2,0,0,1-.7,1.6,2.79,2.79,0,0,1-1.8.6,3.1,3.1,0,0,1-1.7-.5,2.2,2.2,0,0,1-.8-1.8h.8a1.49,1.49,0,0,0,.6,1.3,2.1,2.1,0,0,0,1.1.4,1.59,1.59,0,0,0,1.2-.4,1.28,1.28,0,0,0,.4-1,1.16,1.16,0,0,0-.4-1,2.13,2.13,0,0,0-1.2-.3H367V368h.5a1.8,1.8,0,0,0,1.1-.3,1.27,1.27,0,0,0,.4-.9,1,1,0,0,0-.4-.9,1.8,1.8,0,0,0-1.1-.3,1.37,1.37,0,0,0-1.1.4,1.88,1.88,0,0,0-.5,1.1h-.8a2.39,2.39,0,0,1,2.4-2.2A3.06,3.06,0,0,1,369.2,365.2Zm7.2.7a4.76,4.76,0,0,1,.6,2.6,5,5,0,0,1-.6,2.6,2.14,2.14,0,0,1-1.9,1.1,2,2,0,0,1-1.9-1.1,4.76,4.76,0,0,1-.6-2.6,5,5,0,0,1,.6-2.6,2,2,0,0,1,1.9-1.1A1.82,1.82,0,0,1,376.4,365.9Zm-3.3.6a5.25,5.25,0,0,0-.3,2,5.62,5.62,0,0,0,.3,2,1.48,1.48,0,0,0,2.8,0,5.25,5.25,0,0,0,.3-2,5.62,5.62,0,0,0-.3-2,1.48,1.48,0,0,0-2.8,0Zm10.9,2.6v.7h-5v-.7Zm6.3-3.8a2,2,0,0,1,.6,1.5,2.34,2.34,0,0,1-.7,1.7,5.65,5.65,0,0,1-1.5,1.1,4.69,4.69,0,0,0-1.6,1.6h3.7v.7H386a2.74,2.74,0,0,1,.7-1.8c.3-.3.8-.7,1.5-1.3a6.49,6.49,0,0,0,1.1-.9,1.66,1.66,0,0,0,.5-1.3,1.16,1.16,0,0,0-.4-1,1.82,1.82,0,0,0-1.1-.4,1.29,1.29,0,0,0-1.1.5,2,2,0,0,0-.4,1.4H386a2.49,2.49,0,0,1,.7-1.9,2.06,2.06,0,0,1,1.7-.7A4.19,4.19,0,0,1,390.3,365.3Zm5.2-.4V372h-.8v-6.1a3.23,3.23,0,0,1-1.7,1V366a4.18,4.18,0,0,0,1-.4c.3-.2.6-.5.9-.7Zm5,1.2a.5.5,0,0,1,0,.8.76.76,0,0,1-.4.2.52.52,0,0,1-.4-.2.76.76,0,0,1-.2-.4.4.4,0,0,1,.2-.4.5.5,0,0,1,.8,0Zm0,3.7a.5.5,0,0,1,0,.8.76.76,0,0,1-.4.2.52.52,0,0,1-.4-.2.76.76,0,0,1-.2-.4.4.4,0,0,1,.2-.4.76.76,0,0,1,.4-.2A.4.4,0,0,1,400.5,369.8Zm12.8-4.6a1.68,1.68,0,0,1,.6,1.4,1.59,1.59,0,0,1-1.2,1.6,2.07,2.07,0,0,1,1,.6,1.78,1.78,0,0,1,.4,1,2,2,0,0,1-.7,1.6,2.79,2.79,0,0,1-1.8.6,3.1,3.1,0,0,1-1.7-.5,2.2,2.2,0,0,1-.8-1.8h.8a1.49,1.49,0,0,0,.6,1.3,2.1,2.1,0,0,0,1.1.4,1.59,1.59,0,0,0,1.2-.4,1.28,1.28,0,0,0,.4-1,1.16,1.16,0,0,0-.4-1,2.13,2.13,0,0,0-1.2-.3H411V368h.5a1.8,1.8,0,0,0,1.1-.3,1.27,1.27,0,0,0,.4-.9,1,1,0,0,0-.4-.9,1.8,1.8,0,0,0-1.1-.3,1.37,1.37,0,0,0-1.1.4,1.88,1.88,0,0,0-.5,1.1h-.8a2.39,2.39,0,0,1,2.4-2.2A3.61,3.61,0,0,1,413.3,365.2Zm7.2.7a4.76,4.76,0,0,1,.6,2.6,5,5,0,0,1-.6,2.6,2.14,2.14,0,0,1-1.9,1.1,2,2,0,0,1-1.9-1.1,4.76,4.76,0,0,1-.6-2.6,5,5,0,0,1,.6-2.6,2,2,0,0,1,1.9-1.1A1.9,1.9,0,0,1,420.5,365.9Zm-3.3.6a5.25,5.25,0,0,0-.3,2,5.62,5.62,0,0,0,.3,2,1.48,1.48,0,0,0,2.8,0,5.25,5.25,0,0,0,.3-2,5.62,5.62,0,0,0-.3-2,1.38,1.38,0,0,0-1.4-1A1.31,1.31,0,0,0,417.2,366.5Z" transform="translate(-1.5 -62)"/><path class="cls-3" d="M326.3,329.5V331h-4.7v2.1h3.9v10.5H324V343h-9.6v.6h-1.5V333h3.8v-2.1H312v-1.5h14.3Zm-2.4,12v-2.3h-2.1c-1.2,0-1.7-.6-1.7-1.8v-3h-2v.1a6.34,6.34,0,0,1-2.6,5.6l-1.1-1v2.3h9.5Zm-7.3-6.9v-.1h-2.3v4.7A5.37,5.37,0,0,0,316.6,334.6Zm1.5-1.6h2v-2.1h-2Zm3.5,4.1c0,.5.2.7.7.7H324v-3.4h-2.4v2.7Zm12.4-2.3c.4-.8.9-1.6,1.3-2.5l1.6.5c-.4.7-.7,1.4-1.1,2h8v1.5h-3.1a13.52,13.52,0,0,1-2.1,3.8c1.6.7,3.2,1.5,4.9,2.4l-1,1.3c-1.6-1-3.3-1.8-4.9-2.6a10.91,10.91,0,0,1-7.1,2.5l-.9-1.4a10.55,10.55,0,0,0,6.4-1.8,37.46,37.46,0,0,0-4.3-1.6c.5-.9,1.1-1.7,1.6-2.6h-3.6v-1.5H334Zm9.5-.9H342v-2.1H331.4v2.1h-1.5v-3.6h6a5.39,5.39,0,0,0-.7-1.3l1.7-.3c.2.5.4,1,.7,1.6h6v3.6Zm-9.7,4.3c1.1.3,2.2.7,3.3,1.1a10.75,10.75,0,0,0,1.9-3.1h-4A17.58,17.58,0,0,1,333.8,338.2Zm15.9,1v1.3h-1.5V331h5.1v-2.1h1.5V331H360v8.3h-5.2v1.6c0,.8.3,1.1,1,1.1h3.5a.78.78,0,0,0,.7-.3,7.46,7.46,0,0,0,.3-1.7l1.5.5a4.55,4.55,0,0,1-.6,2.5,2.2,2.2,0,0,1-1.6.4h-4.1c-1.5,0-2.2-.8-2.2-2.3v-1.8h-3.6Zm0-6.8v2h3.6v-2Zm0,5.4h3.6v-2h-3.6Zm8.8-5.4h-3.7v2h3.7Zm0,5.4v-2h-3.7v2Zm13-2.2v-2a18.31,18.31,0,0,0,3.6-2.6h-8.6v-1.4h10.6V331a29.58,29.58,0,0,1-4.2,3.4v1.3h6v1.5h-6v4.9a1.43,1.43,0,0,1-1.6,1.6h-2.8l-.4-1.5h2.6c.4,0,.7-.2.7-.6v-4.4h-6.6v-1.5h6.7Zm13.5-2.5v-2l-2.2.3-.3-1.4a27.06,27.06,0,0,0,5.5-1l.5,1.4c-.7.2-1.3.3-2,.5v2.2h2v1.5h-2v.6c.8.6,1.7,1.4,2.6,2.2l-.8,1.3c-.7-.8-1.3-1.5-1.7-2v7H385v-6.9a19,19,0,0,1-2.3,3.9L382,339a11.83,11.83,0,0,0,2.8-4.3h-2.3v-1.5H385Zm11.9,5.8-1.5.2v4.5h-1.5v-4.2l-4.8.8-.2-1.5,5-.8V329h1.5v8.7l1.3-.2Zm-3.9-3-1.1,1.1a18.09,18.09,0,0,0-2.8-2.5l1.1-1A16.75,16.75,0,0,1,393,335.9Zm.4-3.8-1,1.1a18.12,18.12,0,0,0-2.8-2.3l1.1-1A11.79,11.79,0,0,1,393.4,332.1Zm6.9,11.4L400,342a4.87,4.87,0,0,0,1.2.1c.4,0,.6-.2.6-.7V338c-.6.2-1.2.4-1.7.6l-.4-1.5,2.1-.6V333H400v-1.5h1.8v-2.8h1.5v2.8h1.6V333h-1.6v2.8c.5-.3,1.1-.5,1.6-.8v1.5c-.5.3-1.1.5-1.6.8v4.4c0,1.1-.5,1.6-1.5,1.6h-1.5Zm8.7-12.4V329h1.5v2.1h3.7v1.5h-3.7v2.3h3.1v1.3a10,10,0,0,1-2.6,4.3,20.06,20.06,0,0,0,3.6,2l-.8,1.2a18.24,18.24,0,0,1-3.9-2.3,16.57,16.57,0,0,1-4.4,2.3l-.7-1.3a14.24,14.24,0,0,0,4.1-2,9.09,9.09,0,0,1-2.5-4.2h-.8v-1.4H409v-2.3h-3.7V331H409Zm.9,8.5a10,10,0,0,0,2.2-3.3h-4.3A8.42,8.42,0,0,0,409.9,339.6Zm13.9-6.6a21.3,21.3,0,0,0,.2-2.7v-1.4h1.5v1a26.61,26.61,0,0,1-.2,3h6.5v1.5h-6.1a13.72,13.72,0,0,0,6.5,7.9l-.9,1.2a15.33,15.33,0,0,1-6.5-7.9,12.67,12.67,0,0,1-6.5,8.1l-1-1.3a11.08,11.08,0,0,0,6.2-8h-5.9V333Zm25.4,2.9h-1.5v-2.4H436.9v2.4h-1.5V332h2.9a13.35,13.35,0,0,0-1.6-2.3l1.4-.7a27.21,27.21,0,0,1,1.6,2.5l-1,.5h6a19.62,19.62,0,0,0,1.7-3.2l1.6.6a19.71,19.71,0,0,1-1.6,2.6h2.9v3.9Zm-2.6-1.4v1.3a21.65,21.65,0,0,1-3.4,1.9v.6h6v1.4h-6v2.4c0,.9-.5,1.4-1.5,1.4h-2l-.4-1.4h1.9c.3,0,.5-.2.5-.6v-1.9h-6.3v-1.4h6.3V337q1.65-.75,2.7-1.2H438v-1.3h8.6Zm-3.2-3.2-1.4.7a30,30,0,0,0-1.5-2.6l1.4-.7C442.4,329.5,442.9,330.4,443.4,331.3Z" transform="translate(-1.5 -62)"/><path class="cls-3" d="M338.4,352.2v-.7h3.8l-.6-1.5.7-.2c.2.6.4,1.1.6,1.6l-.4.1h4.1v.7h-3.7v2.4h3.2v.7h-3.2V358H347v.7h-8.9V358h4.1v-2.7H339v-.7h3.2v-2.4h-3.8Zm12.1-.4v-1.9h.7v1.9h1v.7h-1v.8a14.7,14.7,0,0,1,1,1.3,9.74,9.74,0,0,0,1.5-2.4l.6.3a12,12,0,0,1-1.6,2.5l-.4-.3.2.3-.4.6a19.42,19.42,0,0,0-1-1.7v5h-.7v-5.1a11.26,11.26,0,0,1-1.3,2.7l-.3-.8a9.22,9.22,0,0,0,1.6-3.3h-1.3v-.7h1.4Zm6.2,2.4a5.52,5.52,0,0,1-1.1,2.7,7.44,7.44,0,0,0,2.5,1.4l-.4.6a7.55,7.55,0,0,1-2.5-1.5,6.09,6.09,0,0,1-2.7,1.6l-.4-.6a6.47,6.47,0,0,0,2.6-1.4,5.68,5.68,0,0,1-1.2-2.6l.6-.2a5.23,5.23,0,0,0,1,2.3,6.91,6.91,0,0,0,.9-2.3Zm-1.8-3.1c-.2-.5-.4-.9-.6-1.3l.7-.1c.2.4.4.9.6,1.4h2.2v.7h-5.4v-.7Zm3.2,3.5-.6.4a22.17,22.17,0,0,0-1.7-2.4l.6-.3A15,15,0,0,1,358.1,354.6Zm10.5-4.4v.7h-7.2v7h7.5v.7h-8.2v-8.3h7.9Zm-3.2,3.8a10.37,10.37,0,0,0,1.5-2.5l.6.3a12,12,0,0,1-1.6,2.7,20.79,20.79,0,0,1,2.1,2.1l-.6.6c-.6-.7-1.3-1.4-2-2.1a10.55,10.55,0,0,1-3,2.2l-.4-.6a8.37,8.37,0,0,0,2.9-2c-.8-.7-1.7-1.4-2.6-2.1l.5-.5A15.72,15.72,0,0,1,365.4,354Zm14.3-4.3a9.77,9.77,0,0,0-1.3,4.7,8.24,8.24,0,0,0,.4,2.6,9.49,9.49,0,0,0,.9,2.1H379a6.81,6.81,0,0,1-1-2.1,7.83,7.83,0,0,1-.4-2.6,7.46,7.46,0,0,1,.4-2.6,10,10,0,0,1,1-2.1Zm5.9.2V359h-.7v-1.7a11.42,11.42,0,0,1-2.6.9l-.2-.7a9.38,9.38,0,0,0,2.8-1v-3.2h-2.6v-.7h2.6v-2.8h.7Zm2.6,8.9c-.6,0-.9-.3-.9-1v-8h.7v3.3a11.88,11.88,0,0,0,2.5-1.3l.4.6a15.25,15.25,0,0,1-2.9,1.4v3.8c0,.3.1.4.4.4h1.2a.76.76,0,0,0,.5-.2,11.05,11.05,0,0,0,.2-1.8l.7.2a9.34,9.34,0,0,1-.3,2.1,1.27,1.27,0,0,1-.9.4h-1.6Zm6.3-7v-1.9h.7v1.9h1v.7h-1v.8a14.7,14.7,0,0,1,1,1.3,9.74,9.74,0,0,0,1.5-2.4l.6.3a12,12,0,0,1-1.6,2.5l-.4-.3.2.3-.4.6a19.42,19.42,0,0,0-1-1.7v5h-.7v-5.1a11.26,11.26,0,0,1-1.3,2.7l-.3-.8a9.22,9.22,0,0,0,1.6-3.3h-1.3v-.7h1.4Zm6.2,2.4a5.52,5.52,0,0,1-1.1,2.7,7.44,7.44,0,0,0,2.5,1.4l-.4.6a7.55,7.55,0,0,1-2.5-1.5,6.09,6.09,0,0,1-2.7,1.6l-.4-.6a6.47,6.47,0,0,0,2.6-1.4,5.68,5.68,0,0,1-1.2-2.6l.6-.2a5.23,5.23,0,0,0,1,2.3,6.91,6.91,0,0,0,.9-2.3Zm-1.8-3.1c-.2-.5-.4-.9-.6-1.3l.7-.1c.2.4.4.9.6,1.4h2.2v.7h-5.4v-.7Zm3.2,3.5-.6.4a22.17,22.17,0,0,0-1.7-2.4l.6-.3A15,15,0,0,1,402.1,354.6Zm10.5-4.4v.7h-7.2v7h7.5v.7h-8.2v-8.3h7.9Zm-3.2,3.8a10.37,10.37,0,0,0,1.5-2.5l.6.3a12,12,0,0,1-1.6,2.7,20.79,20.79,0,0,1,2.1,2.1l-.6.6c-.6-.7-1.3-1.4-2-2.1a10.55,10.55,0,0,1-3,2.2l-.4-.6a8.37,8.37,0,0,0,2.9-2c-.8-.7-1.7-1.4-2.6-2.1l.5-.5A15.72,15.72,0,0,1,409.4,354Zm6.6-4.3a6.81,6.81,0,0,1,1,2.1,8.65,8.65,0,0,1,0,5.2,20,20,0,0,1-1,2.1h-.7a9.49,9.49,0,0,0,.9-2.1,8.65,8.65,0,0,0,0-5.2,9.49,9.49,0,0,0-.9-2.1Z" transform="translate(-1.5 -62)"/><path class="cls-2" d="M661.4,84.6V97.4h-1.3V95.2a36.16,36.16,0,0,1-3.5,1.3l-.3-1.3a17.06,17.06,0,0,0,3.8-1.3V89.7h-3.6V88.4h3.6V84.6ZM665,97.2c-1,0-1.5-.5-1.5-1.6v-11h1.3v4.5a17.26,17.26,0,0,0,3.3-1.7l.8,1.1a23.69,23.69,0,0,1-4,1.9v5.1c0,.4.2.5.5.5H667a.71.71,0,0,0,.6-.3,8,8,0,0,0,.2-2.3l1.2.4a9.62,9.62,0,0,1-.5,3,1.73,1.73,0,0,1-1.3.5H665ZM675.7,94a13.88,13.88,0,0,1-3.2,3.2l-.8-1.1a11.07,11.07,0,0,0,3.1-3Zm2.9-8.1h5.7v1.2H671.8V85.9h5.5a13.41,13.41,0,0,0-.6-1.2l1.4-.2A12.13,12.13,0,0,0,678.6,85.9Zm4,2.3v4.2h-3.9V96a1.27,1.27,0,0,1-1.4,1.4h-1.5l-.3-1.3a6.6,6.6,0,0,0,1.4.1c.4,0,.6-.2.6-.5V92.5h-4V88.3h9.1Zm-1.3,1.3h-6.6v1.7h6.6Zm3,6.7-1,1a21.18,21.18,0,0,0-3-3.2l.9-.9A18.16,18.16,0,0,1,684.3,96.2Z" transform="translate(-1.5 -62)"/><path class="cls-2" d="M649.1,64.1a6.18,6.18,0,0,1,.9,3.6,7.21,7.21,0,0,1-1,4,3.17,3.17,0,0,1-2.7,1.5,3,3,0,0,1-3.3-2.7h1.5a1.67,1.67,0,0,0,1.8,1.5,2.21,2.21,0,0,0,1.7-1,4.5,4.5,0,0,0,.6-2.4v-.2h-.1a2.66,2.66,0,0,1-1.1,1,3.19,3.19,0,0,1-1.4.3,3,3,0,0,1-2.4-1,3.24,3.24,0,0,1-.9-2.4,3.42,3.42,0,0,1,3.5-3.5A3.13,3.13,0,0,1,649.1,64.1Zm-4.2.6a2.11,2.11,0,0,0-.6,1.6,2.05,2.05,0,0,0,2.1,2.1,2,2,0,0,0,1.5-.6,2.07,2.07,0,0,0,.5-1.6,2.11,2.11,0,0,0-.6-1.6,2,2,0,0,0-1.5-.6A2.67,2.67,0,0,0,644.9,64.7Zm10,9.8-1-.9a8.44,8.44,0,0,0,1.4-4.7V62h8.3V73c0,.9-.5,1.3-1.4,1.3h-1.8L660,73c.6,0,1.2.1,1.7.1.3,0,.4-.2.4-.6V70h-5.7A7.8,7.8,0,0,1,654.9,74.5Zm7.4-11.2h-5.7v2.1h5.7Zm-5.7,5.5h5.7V66.6h-5.7Zm17.6-5.2a2.94,2.94,0,0,1,.9,2.2,3.25,3.25,0,0,1-1,2.4,18,18,0,0,1-2.1,1.6,4.2,4.2,0,0,0-1.9,1.9h5V73h-6.9a3.54,3.54,0,0,1,1-2.6,15.2,15.2,0,0,1,2.3-1.8c.7-.5,1.1-.9,1.4-1.1a2.83,2.83,0,0,0,.7-1.6,1.73,1.73,0,0,0-.5-1.3,2,2,0,0,0-1.4-.4,1.68,1.68,0,0,0-1.4.6,3,3,0,0,0-.5,1.8h-1.5a3.62,3.62,0,0,1,1-2.7,3.31,3.31,0,0,1,2.6-1.1A3.57,3.57,0,0,1,674.2,63.6Zm7.4-.6V73h-1.5V64.8a5.76,5.76,0,0,1-2.3,1.3V64.6a5.34,5.34,0,0,0,1.4-.6,6.42,6.42,0,0,0,1.3-1ZM696,74.4h-1.3v-1h-6.3v1H687V62h9Zm-1.3-7.5V63.3h-6.3v3.6Zm0,5.2V68.2h-6.3v3.9Z" transform="translate(-1.5 -62)"/><path class="cls-2" d="M633.4,174.9V182h-.8v-6.1a3.23,3.23,0,0,1-1.7,1V176a4.18,4.18,0,0,0,1-.4c.3-.2.6-.5.9-.7h.6Zm6.8.4a1.61,1.61,0,0,1,.6,1.3,1.69,1.69,0,0,1-.3,1,1.56,1.56,0,0,1-.8.6h0a1.46,1.46,0,0,1,.9.6,1.59,1.59,0,0,1,.4,1.2,1.8,1.8,0,0,1-.7,1.5,2.88,2.88,0,0,1-1.9.6,2.71,2.71,0,0,1-1.9-.6,2.13,2.13,0,0,1-.7-1.5,1.59,1.59,0,0,1,.4-1.2,2.36,2.36,0,0,1,.9-.6h0a1,1,0,0,1-.8-.6,1.69,1.69,0,0,1-.3-1,1.61,1.61,0,0,1,.6-1.3,2.35,2.35,0,0,1,1.7-.6A2.55,2.55,0,0,1,640.2,175.3Zm-3.1,3.7a1.28,1.28,0,0,0-.4,1,1.16,1.16,0,0,0,.4,1,2.31,2.31,0,0,0,2.6,0,1.28,1.28,0,0,0,.4-1,1.16,1.16,0,0,0-.4-1,1.84,1.84,0,0,0-1.3-.4A2,2,0,0,0,637.1,179Zm.2-3.2a1.27,1.27,0,0,0-.4.9,1.22,1.22,0,0,0,.3.9,1.59,1.59,0,0,0,1.2.4,1.46,1.46,0,0,0,1.2-.4,1.34,1.34,0,0,0-.1-1.8,1.59,1.59,0,0,0-1.2-.4A1.43,1.43,0,0,0,637.3,175.8Zm8.1.3a.5.5,0,0,1,0,.8.6.6,0,0,1-1-.4.4.4,0,0,1,.2-.4.5.5,0,0,1,.8,0Zm0,3.7a.5.5,0,0,1,0,.8.6.6,0,0,1-1-.4.4.4,0,0,1,.2-.4.76.76,0,0,1,.4-.2A.4.4,0,0,1,645.4,179.8Zm12.8-4.6a1.68,1.68,0,0,1,.6,1.4,1.59,1.59,0,0,1-1.2,1.6,2.07,2.07,0,0,1,1,.6,1.78,1.78,0,0,1,.4,1,2,2,0,0,1-.7,1.6,2.79,2.79,0,0,1-1.8.6,3.1,3.1,0,0,1-1.7-.5,2.2,2.2,0,0,1-.8-1.8h.8a1.49,1.49,0,0,0,.6,1.3,2.1,2.1,0,0,0,1.1.4,1.59,1.59,0,0,0,1.2-.4,1.28,1.28,0,0,0,.4-1,1.16,1.16,0,0,0-.4-1,2.13,2.13,0,0,0-1.2-.3H656V178h.5a1.8,1.8,0,0,0,1.1-.3,1.27,1.27,0,0,0,.4-.9,1,1,0,0,0-.4-.9,1.8,1.8,0,0,0-1.1-.3,1.37,1.37,0,0,0-1.1.4,1.88,1.88,0,0,0-.5,1.1h-.8a2.39,2.39,0,0,1,2.4-2.2A3.06,3.06,0,0,1,658.2,175.2Zm7.2.7a4.76,4.76,0,0,1,.6,2.6,5,5,0,0,1-.6,2.6,2.14,2.14,0,0,1-1.9,1.1,2,2,0,0,1-1.9-1.1,4.76,4.76,0,0,1-.6-2.6,5,5,0,0,1,.6-2.6,2,2,0,0,1,1.9-1.1A1.82,1.82,0,0,1,665.4,175.9Zm-3.3.6a5.25,5.25,0,0,0-.3,2,5.62,5.62,0,0,0,.3,2,1.48,1.48,0,0,0,2.8,0,5.25,5.25,0,0,0,.3-2,5.62,5.62,0,0,0-.3-2,1.48,1.48,0,0,0-2.8,0Zm10.9,2.6v.7h-5v-.7Zm6.3-3.8a2,2,0,0,1,.6,1.5,2.34,2.34,0,0,1-.7,1.7,5.65,5.65,0,0,1-1.5,1.1,4.68,4.68,0,0,0-1.6,1.6h3.7v.7H675a2.74,2.74,0,0,1,.7-1.8c.3-.3.8-.7,1.5-1.3a6.49,6.49,0,0,0,1.1-.9,1.66,1.66,0,0,0,.5-1.3,1.16,1.16,0,0,0-.4-1,1.82,1.82,0,0,0-1.1-.4,1.29,1.29,0,0,0-1.1.5,2,2,0,0,0-.4,1.4H675a2.49,2.49,0,0,1,.7-1.9,2.06,2.06,0,0,1,1.7-.7A4.19,4.19,0,0,1,679.3,175.3Zm5.2-.4V182h-.8v-6.1a3.23,3.23,0,0,1-1.7,1V176a4.18,4.18,0,0,0,1-.4c.3-.2.6-.5.9-.7h.6Zm5,1.2a.5.5,0,0,1,0,.8.76.76,0,0,1-.4.2.52.52,0,0,1-.4-.2.76.76,0,0,1-.2-.4.4.4,0,0,1,.2-.4.5.5,0,0,1,.8,0Zm0,3.7a.5.5,0,0,1,0,.8.76.76,0,0,1-.4.2.52.52,0,0,1-.4-.2.76.76,0,0,1-.2-.4.4.4,0,0,1,.2-.4.76.76,0,0,1,.4-.2A.4.4,0,0,1,689.5,179.8Zm12.8-4.6a1.68,1.68,0,0,1,.6,1.4,1.59,1.59,0,0,1-1.2,1.6,2.07,2.07,0,0,1,1,.6,1.78,1.78,0,0,1,.4,1,2,2,0,0,1-.7,1.6,2.79,2.79,0,0,1-1.8.6,3.1,3.1,0,0,1-1.7-.5,2.2,2.2,0,0,1-.8-1.8h.8a1.49,1.49,0,0,0,.6,1.3,2.1,2.1,0,0,0,1.1.4,1.59,1.59,0,0,0,1.2-.4,1.28,1.28,0,0,0,.4-1,1.16,1.16,0,0,0-.4-1,2.13,2.13,0,0,0-1.2-.3H700V178h.5a1.8,1.8,0,0,0,1.1-.3,1.27,1.27,0,0,0,.4-.9,1,1,0,0,0-.4-.9,1.8,1.8,0,0,0-1.1-.3,1.37,1.37,0,0,0-1.1.4,1.88,1.88,0,0,0-.5,1.1h-.8a2.39,2.39,0,0,1,2.4-2.2A3.61,3.61,0,0,1,702.3,175.2Zm7.2.7a4.76,4.76,0,0,1,.6,2.6,5,5,0,0,1-.6,2.6,2.14,2.14,0,0,1-1.9,1.1,2,2,0,0,1-1.9-1.1,4.76,4.76,0,0,1-.6-2.6,5,5,0,0,1,.6-2.6,2,2,0,0,1,1.9-1.1A1.9,1.9,0,0,1,709.5,175.9Zm-3.3.6a5.25,5.25,0,0,0-.3,2,5.62,5.62,0,0,0,.3,2,1.48,1.48,0,0,0,2.8,0,5.25,5.25,0,0,0,.3-2,5.62,5.62,0,0,0-.3-2,1.38,1.38,0,0,0-1.4-1A1.31,1.31,0,0,0,706.2,176.5Z" transform="translate(-1.5 -62)"/><path class="cls-3" d="M624.9,138.9v14.6h-1.5V151a27,27,0,0,1-4,1.4l-.4-1.5a17.61,17.61,0,0,0,4.4-1.5v-4.8h-4.1v-1.5h4.1v-4.3h1.5Zm4,14.5c-1.1,0-1.7-.6-1.7-1.8V138.9h1.5v5.2a13.28,13.28,0,0,0,3.7-2l.9,1.2a23.75,23.75,0,0,1-4.6,2.2v5.8c0,.4.2.6.5.6h1.9a.75.75,0,0,0,.7-.4,11.61,11.61,0,0,0,.2-2.7l1.4.5a11.21,11.21,0,0,1-.5,3.4,1.75,1.75,0,0,1-1.5.6h-2.5Zm12.3-3.7a14.1,14.1,0,0,1-3.7,3.6l-1-1.2a16.68,16.68,0,0,0,3.6-3.4Zm3.3-9.2H651v1.4H636.7v-1.4h6.2c-.2-.5-.4-1-.6-1.4l1.6-.3C644.1,139.3,644.3,139.9,644.5,140.5Zm4.6,2.6v4.8h-4.5v4a1.43,1.43,0,0,1-1.6,1.6h-1.7l-.4-1.5a8.6,8.6,0,0,0,1.6.1.53.53,0,0,0,.6-.6v-3.6h-4.6v-4.8Zm-1.5,1.5H640v1.9h7.5v-1.9Zm3.4,7.6-1.1,1.1a23,23,0,0,0-3.5-3.6l1-1A30.14,30.14,0,0,1,651,152.2Zm10.8.8h-1.4v-1H656v.9h-1.4V141h2.9v-2.2H659V141h2.9v12Zm-4.4-7.3v-3.3H656v3.3Zm0,5v-3.6H656v3.6Zm1.5-5h1.4v-3.3h-1.4Zm1.4,5v-3.6h-1.4v3.6Zm8-11.1v1.1c-.5,1.6-1,3.2-1.6,4.6a7.76,7.76,0,0,1,1.7,3.9,2.4,2.4,0,0,1-.6,1.9,3.93,3.93,0,0,1-2.6.6l-.4-1.5a7.08,7.08,0,0,0,1.4.1,1.17,1.17,0,0,0,.7-.2c.1-.1.1-.4.1-.8a7.26,7.26,0,0,0-1.8-3.9,41.76,41.76,0,0,0,1.5-4.3h-2.4v12.7h-1.4V139.7h5.4Zm6.1,9.6v1.3h-1.5V141H678v-2.1h1.5V141h5.2v8.3h-5.2v1.6c0,.8.3,1.1,1,1.1H684a.78.78,0,0,0,.7-.3,7.46,7.46,0,0,0,.3-1.7l1.5.5a4.55,4.55,0,0,1-.6,2.5,2.2,2.2,0,0,1-1.6.4h-4.1c-1.5,0-2.2-.8-2.2-2.3v-1.8h-3.6Zm0-6.8v2H678v-2Zm0,5.4H678v-2h-3.6Zm8.8-5.4h-3.7v2h3.7Zm0,5.4v-2h-3.7v2Zm12.5-4.8a21.3,21.3,0,0,0,.2-2.7v-1.4h1.5v1a26.6,26.6,0,0,1-.2,3h6.5v1.5h-6.1a13.72,13.72,0,0,0,6.5,7.9l-.9,1.2a15.33,15.33,0,0,1-6.5-7.9,12.67,12.67,0,0,1-6.5,8.1l-1-1.3a11.08,11.08,0,0,0,6.2-8h-5.9V143Zm25.4,2.9h-1.5v-2.4H708.8v2.4h-1.5V142h2.9a13.36,13.36,0,0,0-1.6-2.3l1.4-.7a27.21,27.21,0,0,1,1.6,2.5l-1,.5h6a19.62,19.62,0,0,0,1.7-3.2l1.6.6a19.71,19.71,0,0,1-1.6,2.6h2.9v3.9Zm-2.6-1.4v1.3a21.65,21.65,0,0,1-3.4,1.9v.6h6v1.4h-6v2.4c0,.9-.5,1.4-1.5,1.4h-2l-.4-1.4h1.9c.3,0,.5-.2.5-.6v-1.9h-6.3v-1.4h6.3V147q1.65-.75,2.7-1.2h-6.5v-1.3Zm-3.2-3.2-1.4.7a30,30,0,0,0-1.5-2.6l1.4-.7C714.3,139.5,714.8,140.4,715.3,141.3Z" transform="translate(-1.5 -62)"/><path class="cls-3" d="M665.1,161.7v-1.8h.7v1.8h3.9v.7h-3.3a11.08,11.08,0,0,0,3.6,4.3l-.5.6a11.42,11.42,0,0,1-3.7-4.9h-.1v3.9h2.1v.7h-2.1v2H665v-2h-2.1v-.7H665v-3.9h-.1a10.36,10.36,0,0,1-3.8,5l-.4-.7a9.31,9.31,0,0,0,3.6-4.3H661v-.7h4.1Zm8.9,1.9h1a7.51,7.51,0,0,0,.7-1.8l.7.2a5.23,5.23,0,0,1-.7,1.5h1.2v.7h-5v-.7h1.3c-.2-.5-.4-1-.6-1.4l.7-.2A5.44,5.44,0,0,1,674,163.6Zm.2-2.8a3.55,3.55,0,0,0-.4-.9l.7-.1c.1.3.2.6.3,1h2v.7h-4.7v-.7Zm2.4,8.1h-.7v-.6h-2.6v.6h-.7v-3.8h4Zm-.8-1.2v-1.8h-2.6v1.8Zm5-7.4v.5a24.68,24.68,0,0,1-1,2.9,4.29,4.29,0,0,1,1.1,2.3,1.7,1.7,0,0,1-.4,1.3,2.83,2.83,0,0,1-1.6.4l-.2-.8h.7a1,1,0,0,0,.7-.2c.1-.1.1-.4.2-.7a3.91,3.91,0,0,0-1.2-2.3,29.07,29.07,0,0,0,1-2.8h-1.8V169h-.7v-8.7Z" transform="translate(-1.5 -62)"/><path class="cls-2" d="M91.1,276H81v4.7a14.13,14.13,0,0,1-1.5,6.7l-1-.9a12.87,12.87,0,0,0,1.2-5.8v-5.9H91.1Zm-.4.6v1H86.6c-.1.2-.1.4-.2.5h3.5V283H85.1c-.2.2-.3.4-.4.5h4.9v.8a5.72,5.72,0,0,1-1.6,1.5,19.82,19.82,0,0,0,3.6.4l-.3,1.1a17.19,17.19,0,0,1-4.8-.8,16,16,0,0,1-5.3.8l-.5-1a16.24,16.24,0,0,0,4.1-.4,7.68,7.68,0,0,1-1.8-1,3.51,3.51,0,0,1-1.4.6l-.7-1a6.38,6.38,0,0,0,2.9-1.6H82.5V278h2.7c.1-.2.1-.4.2-.5H81.6v-1h9.1Zm-2,2.9V279H83.6v.5Zm0,1.3v-.5H83.6v.5Zm0,.8H83.6v.6h5.1Zm-.6,2.9H84.2a12.24,12.24,0,0,0,2.3,1A6.24,6.24,0,0,0,88.1,284.5Zm7.9-7.7v10.6H94.7V276.8Zm2.8.1-1.2.6a16.68,16.68,0,0,0-1.7-2.6l1.2-.5A15.64,15.64,0,0,1,98.8,276.9Zm4.7,10.4-.3-1.2h1.2c.4,0,.6-.3.6-.7v-9H99.7v-1.2h6.6v10.6a1.39,1.39,0,0,1-1.6,1.6h-1.2Z" transform="translate(-1.5 -62)"/><path class="cls-2" d="M65.1,253v10H63.6v-8.2a5.76,5.76,0,0,1-2.3,1.3v-1.5a5.34,5.34,0,0,0,1.4-.6,6.42,6.42,0,0,0,1.3-1Zm9.6,1.3a8.06,8.06,0,0,1,0,7.4,3.18,3.18,0,0,1-5.4,0,6.76,6.76,0,0,1-.9-3.7,6.53,6.53,0,0,1,.9-3.7,3.18,3.18,0,0,1,5.4,0Zm-4.4,1.1a6,6,0,0,0-.4,2.5,5.67,5.67,0,0,0,.4,2.5,1.73,1.73,0,0,0,3.4,0,8.15,8.15,0,0,0,.4-2.5,5.67,5.67,0,0,0-.4-2.5A1.78,1.78,0,0,0,72,254,1.9,1.9,0,0,0,70.3,255.4Zm10.2,9.1-1-.9a8.44,8.44,0,0,0,1.4-4.7V252h8.3v11c0,.9-.5,1.3-1.4,1.3H86l-.4-1.3c.6,0,1.2.1,1.7.1.3,0,.4-.2.4-.6V260H82A7.8,7.8,0,0,1,80.5,264.5Zm7.3-11.2H82.1v2.1h5.7Zm-5.7,5.5h5.7v-2.2H82.1ZM97.4,253v10H95.9v-8.2a5.76,5.76,0,0,1-2.3,1.3v-1.5A5.34,5.34,0,0,0,95,254a6.42,6.42,0,0,0,1.3-1Zm9.6,1.3a8.06,8.06,0,0,1,0,7.4,3.18,3.18,0,0,1-5.4,0,6.76,6.76,0,0,1-.9-3.7,6.53,6.53,0,0,1,.9-3.7,3.18,3.18,0,0,1,5.4,0Zm-4.4,1.1a6,6,0,0,0-.4,2.5,5.67,5.67,0,0,0,.4,2.5,1.73,1.73,0,0,0,3.4,0,8.15,8.15,0,0,0,.4-2.5,5.67,5.67,0,0,0-.4-2.5,1.78,1.78,0,0,0-1.7-1.4A1.9,1.9,0,0,0,102.6,255.4Zm18.9,9h-1.3v-1h-6.3v1h-1.3V252h9v12.4Zm-1.3-7.5v-3.6h-6.3v3.6Zm0,5.2v-3.9h-6.3v3.9Z" transform="translate(-1.5 -62)"/><path class="cls-2" d="M55.4,364.9V372h-.8v-6.1a3.23,3.23,0,0,1-1.7,1V366a4.18,4.18,0,0,0,1-.4c.3-.2.6-.5.9-.7Zm6.8.4a1.61,1.61,0,0,1,.6,1.3,1.69,1.69,0,0,1-.3,1,1.56,1.56,0,0,1-.8.6h0a1.46,1.46,0,0,1,.9.6A1.59,1.59,0,0,1,63,370a1.8,1.8,0,0,1-.7,1.5,2.88,2.88,0,0,1-1.9.6,2.71,2.71,0,0,1-1.9-.6,2.13,2.13,0,0,1-.7-1.5,1.59,1.59,0,0,1,.4-1.2,2.36,2.36,0,0,1,.9-.6h0a1,1,0,0,1-.8-.6,1.69,1.69,0,0,1-.3-1,1.61,1.61,0,0,1,.6-1.3,2.35,2.35,0,0,1,1.7-.6A2.55,2.55,0,0,1,62.2,365.3ZM59.1,369a1.28,1.28,0,0,0-.4,1,1.16,1.16,0,0,0,.4,1,2.31,2.31,0,0,0,2.6,0,1.28,1.28,0,0,0,.4-1,1.16,1.16,0,0,0-.4-1,1.84,1.84,0,0,0-1.3-.4A2,2,0,0,0,59.1,369Zm.2-3.2a1.27,1.27,0,0,0-.4.9,1.22,1.22,0,0,0,.3.9,1.59,1.59,0,0,0,1.2.4,1.46,1.46,0,0,0,1.2-.4,1.34,1.34,0,0,0-.1-1.8,1.59,1.59,0,0,0-1.2-.4A1.43,1.43,0,0,0,59.3,365.8Zm8.1.3a.5.5,0,0,1,0,.8.6.6,0,0,1-1-.4.4.4,0,0,1,.2-.4.5.5,0,0,1,.8,0Zm0,3.7a.5.5,0,0,1,0,.8.6.6,0,0,1-1-.4.4.4,0,0,1,.2-.4.76.76,0,0,1,.4-.2A.4.4,0,0,1,67.4,369.8Zm12.8-4.6a1.68,1.68,0,0,1,.6,1.4,1.59,1.59,0,0,1-1.2,1.6,2.07,2.07,0,0,1,1,.6,1.78,1.78,0,0,1,.4,1,2,2,0,0,1-.7,1.6,2.79,2.79,0,0,1-1.8.6,3.1,3.1,0,0,1-1.7-.5,2.2,2.2,0,0,1-.8-1.8h.8a1.49,1.49,0,0,0,.6,1.3,2.1,2.1,0,0,0,1.1.4,1.59,1.59,0,0,0,1.2-.4,1.28,1.28,0,0,0,.4-1,1.16,1.16,0,0,0-.4-1,2.13,2.13,0,0,0-1.2-.3H78V368h.5a1.8,1.8,0,0,0,1.1-.3,1.27,1.27,0,0,0,.4-.9,1,1,0,0,0-.4-.9,1.8,1.8,0,0,0-1.1-.3,1.37,1.37,0,0,0-1.1.4,1.88,1.88,0,0,0-.5,1.1h-.8a2.39,2.39,0,0,1,2.4-2.2A3.06,3.06,0,0,1,80.2,365.2Zm7.2.7a4.76,4.76,0,0,1,.6,2.6,5,5,0,0,1-.6,2.6,2.14,2.14,0,0,1-1.9,1.1,2,2,0,0,1-1.9-1.1,4.76,4.76,0,0,1-.6-2.6,5,5,0,0,1,.6-2.6,2,2,0,0,1,1.9-1.1A1.82,1.82,0,0,1,87.4,365.9Zm-3.3.6a5.25,5.25,0,0,0-.3,2,5.62,5.62,0,0,0,.3,2,1.48,1.48,0,0,0,2.8,0,5.25,5.25,0,0,0,.3-2,5.62,5.62,0,0,0-.3-2,1.48,1.48,0,0,0-2.8,0ZM95,369.1v.7H90v-.7Zm6.3-3.8a2,2,0,0,1,.6,1.5,2.34,2.34,0,0,1-.7,1.7,5.65,5.65,0,0,1-1.5,1.1,4.68,4.68,0,0,0-1.6,1.6h3.7v.7H97a2.74,2.74,0,0,1,.7-1.8c.3-.3.8-.7,1.5-1.3a6.49,6.49,0,0,0,1.1-.9,1.66,1.66,0,0,0,.5-1.3,1.16,1.16,0,0,0-.4-1,1.82,1.82,0,0,0-1.1-.4,1.29,1.29,0,0,0-1.1.5,2,2,0,0,0-.4,1.4H97a2.49,2.49,0,0,1,.7-1.9,2.06,2.06,0,0,1,1.7-.7A4.19,4.19,0,0,1,101.3,365.3Zm5.2-.4V372h-.8v-6.1a3.23,3.23,0,0,1-1.7,1V366a4.18,4.18,0,0,0,1-.4c.3-.2.6-.5.9-.7Zm5,1.2a.5.5,0,0,1,0,.8.6.6,0,0,1-1-.4.4.4,0,0,1,.2-.4.5.5,0,0,1,.8,0Zm0,3.7a.5.5,0,0,1,0,.8.6.6,0,0,1-1-.4.4.4,0,0,1,.2-.4.76.76,0,0,1,.4-.2A.4.4,0,0,1,111.5,369.8Zm12.8-4.6a1.68,1.68,0,0,1,.6,1.4,1.59,1.59,0,0,1-1.2,1.6,2.07,2.07,0,0,1,1,.6,1.78,1.78,0,0,1,.4,1,2,2,0,0,1-.7,1.6,2.79,2.79,0,0,1-1.8.6,3.1,3.1,0,0,1-1.7-.5,2.2,2.2,0,0,1-.8-1.8h.8a1.49,1.49,0,0,0,.6,1.3,2.1,2.1,0,0,0,1.1.4,1.59,1.59,0,0,0,1.2-.4,1.28,1.28,0,0,0,.4-1,1.16,1.16,0,0,0-.4-1,2.13,2.13,0,0,0-1.2-.3H122V368h.5a1.8,1.8,0,0,0,1.1-.3,1.27,1.27,0,0,0,.4-.9,1,1,0,0,0-.4-.9,1.8,1.8,0,0,0-1.1-.3,1.37,1.37,0,0,0-1.1.4,1.88,1.88,0,0,0-.5,1.1h-.8a2.39,2.39,0,0,1,2.4-2.2A3.61,3.61,0,0,1,124.3,365.2Zm7.2.7a4.76,4.76,0,0,1,.6,2.6,5,5,0,0,1-.6,2.6,2.14,2.14,0,0,1-1.9,1.1,2,2,0,0,1-1.9-1.1,4.76,4.76,0,0,1-.6-2.6,5,5,0,0,1,.6-2.6,2,2,0,0,1,1.9-1.1A1.9,1.9,0,0,1,131.5,365.9Zm-3.3.6a5.25,5.25,0,0,0-.3,2,5.62,5.62,0,0,0,.3,2,1.48,1.48,0,0,0,2.8,0,5.25,5.25,0,0,0,.3-2,5.62,5.62,0,0,0-.3-2,1.38,1.38,0,0,0-1.4-1A1.31,1.31,0,0,0,128.2,366.5Z" transform="translate(-1.5 -62)"/><path class="cls-3" d="M72.7,330.6H61.1V336a16.13,16.13,0,0,1-1.7,7.6l-1.1-1a13.57,13.57,0,0,0,1.3-6.6v-6.7H72.7Zm-.4.7v1.2H67.6c-.1.2-.1.4-.2.6h4v5.6H65.9a2.65,2.65,0,0,0-.5.6H71v.9a9.76,9.76,0,0,1-1.8,1.7,18.72,18.72,0,0,0,4.2.4l-.3,1.2a22.58,22.58,0,0,1-5.5-.9,17.85,17.85,0,0,1-6.1.9l-.5-1.2a30.56,30.56,0,0,0,4.7-.4,14.32,14.32,0,0,1-2.1-1.2,11.11,11.11,0,0,1-1.6.7l-.8-1.1a7.58,7.58,0,0,0,3.3-1.8H63V333h3.1a1.42,1.42,0,0,0,.2-.6H62v-1.2H72.3ZM70,334.6V334H64.2v.6Zm0,1.5v-.6H64.2v.6Zm0,.9H64.2v.6H70Zm-.8,3.3H64.8a15.64,15.64,0,0,0,2.6,1.1A7.84,7.84,0,0,0,69.2,340.3Zm9.1-8.8v12.1H76.8V331.5Zm3.1.1-1.4.7a22.34,22.34,0,0,0-2-3l1.4-.6A11.54,11.54,0,0,1,81.4,331.6Zm5.4,11.9-.4-1.4h1.4c.4,0,.6-.3.6-.8V331h-6v-1.4H90v12.1a1.59,1.59,0,0,1-1.8,1.8ZM100.1,333a21.3,21.3,0,0,0,.2-2.7v-1.4h1.5v1a26.61,26.61,0,0,1-.2,3h6.5v1.5H102a13.72,13.72,0,0,0,6.5,7.9l-.9,1.2a15.33,15.33,0,0,1-6.5-7.9,12.67,12.67,0,0,1-6.5,8.1l-1-1.3a11.08,11.08,0,0,0,6.2-8H93.9V333Zm25.4,2.9H124v-2.4H113.2v2.4h-1.5V332h2.9a13.36,13.36,0,0,0-1.6-2.3l1.4-.7a27.21,27.21,0,0,1,1.6,2.5l-1,.5h6a19.62,19.62,0,0,0,1.7-3.2l1.6.6a19.71,19.71,0,0,1-1.6,2.6h2.9v3.9Zm-2.6-1.4v1.3a21.65,21.65,0,0,1-3.4,1.9v.6h6v1.4h-6v2.4c0,.9-.5,1.4-1.5,1.4h-2l-.4-1.4h1.9c.3,0,.5-.2.5-.6v-1.9h-6.3v-1.4H118V337q1.65-.75,2.7-1.2h-6.5v-1.3h8.7Zm-3.2-3.2-1.4.7a30,30,0,0,0-1.5-2.6l1.4-.7C118.7,329.5,119.2,330.4,119.7,331.3Z" transform="translate(-1.5 -62)"/><path class="cls-3" d="M73.8,355.8a11,11,0,0,1-1.2,2.9l-.6-.4a12.27,12.27,0,0,0,1.2-2.6Zm5.8-5.6v4.6H73.3v-4.6Zm-3.5,2v-1.3H74v1.3Zm0,.6H74v1.3h2.1Zm-.7,6.1c-.7,0-1-.4-1-1.1v-2.2h.7v2c0,.4.2.5.5.5h2.2a.76.76,0,0,0,.5-.2,2.23,2.23,0,0,0,.2-1.2l.7.2a3.16,3.16,0,0,1-.4,1.6,1.08,1.08,0,0,1-.8.2H75.4Zm2.3-2-.7.3a7.68,7.68,0,0,0-1-1.8l.6-.2A9.91,9.91,0,0,1,77.7,356.9Zm-.9-4.7h2.1v-1.3H76.8Zm2.1.6H76.8v1.3h2.1ZM81,358l-.6.3a11.74,11.74,0,0,0-1.5-2.7l.7-.2C80.1,356.3,80.6,357.1,81,358Zm5.3-.7H84.1v.8h-.7v-7.7h3v6.9Zm-.7-3.8v-2.3H84v2.3Zm0,3.1v-2.4H84v2.4Zm1.3,2.4-.6-.5a7,7,0,0,0,1.1-3.6v-4.7h4.1V358a.8.8,0,0,1-.9.9H89.3l-.2-.7h1.3c.3,0,.4-.2.4-.5v-2.1H88.1A5.77,5.77,0,0,1,86.9,359Zm3.9-8.1H88.2v1.8h2.6ZM88.1,355h2.6v-1.7H88.1Zm7.4-3.2v-1.9h.7v1.9h1v.7h-1v.8a14.7,14.7,0,0,1,1,1.3,9.74,9.74,0,0,0,1.5-2.4l.6.3a12,12,0,0,1-1.6,2.5l-.4-.3.2.3-.4.6a19.42,19.42,0,0,0-1-1.7v5h-.7v-5.1a11.26,11.26,0,0,1-1.3,2.7l-.3-.8a9.22,9.22,0,0,0,1.6-3.3H94.1v-.7h1.4Zm6.2,2.4a5.52,5.52,0,0,1-1.1,2.7,7.44,7.44,0,0,0,2.5,1.4l-.4.6a7.55,7.55,0,0,1-2.5-1.5,6.09,6.09,0,0,1-2.7,1.6l-.4-.6a6.47,6.47,0,0,0,2.6-1.4,5.68,5.68,0,0,1-1.2-2.6l.6-.2a5.23,5.23,0,0,0,1,2.3,6.91,6.91,0,0,0,.9-2.3Zm-1.8-3.1c-.2-.5-.4-.9-.6-1.3l.7-.1c.2.4.4.9.6,1.4h2.2v.7H97.4v-.7Zm3.2,3.5-.6.4a22.18,22.18,0,0,0-1.7-2.4l.6-.3A15,15,0,0,1,103.1,354.6Zm10.5-4.4v.7h-7.2v7h7.5v.7h-8.2v-8.3h7.9Zm-3.2,3.8a10.37,10.37,0,0,0,1.5-2.5l.6.3a12,12,0,0,1-1.6,2.7,20.79,20.79,0,0,1,2.1,2.1l-.6.6c-.6-.7-1.3-1.4-2-2.1a10.55,10.55,0,0,1-3,2.2l-.4-.6a8.37,8.37,0,0,0,2.9-2c-.8-.7-1.7-1.4-2.6-2.1l.5-.5A15.72,15.72,0,0,1,110.4,354Z" transform="translate(-1.5 -62)"/><path class="cls-2" d="M522.09,464v12.79h-1.34v-2.21a26.61,26.61,0,0,1-3.5,1.26l-.32-1.32a17.81,17.81,0,0,0,3.82-1.27V469h-3.56v-1.27h3.56V464Zm3.54,12.66c-1,0-1.49-.53-1.49-1.57V464h1.33v4.52a14.1,14.1,0,0,0,3.28-1.72l.77,1.08a23.17,23.17,0,0,1-4,1.92v5.08c0,.35.15.53.46.53h1.63a.63.63,0,0,0,.57-.32,10.42,10.42,0,0,0,.21-2.33l1.25.41a8.12,8.12,0,0,1-.48,3,1.55,1.55,0,0,1-1.33.5Z" transform="translate(-1.5 -62)"/><path class="cls-2" d="M536.36,473.36a13.63,13.63,0,0,1-3.21,3.19l-.84-1.08a12.8,12.8,0,0,0,3.11-3Zm2.87-8h5.66v1.25h-12.5v-1.25h5.46a10.06,10.06,0,0,0-.56-1.22l1.37-.22A14.67,14.67,0,0,1,539.23,465.31Zm4,2.3v4.23h-3.91v3.52a1.24,1.24,0,0,1-1.42,1.37h-1.51l-.31-1.28a11.44,11.44,0,0,0,1.36.08c.36,0,.56-.18.56-.52v-3.18h-4v-4.23Zm-1.32,1.27h-6.6v1.68h6.6Zm3,6.67-1,1a20.59,20.59,0,0,0-3-3.15l.88-.85A23.87,23.87,0,0,1,544.93,475.56Z" transform="translate(-1.5 -62)"/><path class="cls-2" d="M503.77,442.5v10h-1.53v-8.17a5.47,5.47,0,0,1-2.3,1.26v-1.51a5.76,5.76,0,0,0,2.68-1.58Z" transform="translate(-1.5 -62)"/><path class="cls-2" d="M513.4,443.79a8.25,8.25,0,0,1,0,7.42,3.25,3.25,0,0,1-5.46,0,8.25,8.25,0,0,1,0-7.42,3.26,3.26,0,0,1,5.46,0ZM508.93,445a7,7,0,0,0-.36,2.55,7.08,7.08,0,0,0,.36,2.55,1.79,1.79,0,0,0,3.47,0,7.43,7.43,0,0,0,.36-2.55,7.31,7.31,0,0,0-.36-2.55,1.79,1.79,0,0,0-3.47,0Z" transform="translate(-1.5 -62)"/><path class="cls-2" d="M519.12,454l-1-.94a8.1,8.1,0,0,0,1.36-4.71V441.5h8.35v11a1.2,1.2,0,0,1-1.36,1.34h-1.79l-.36-1.3c.62,0,1.19.06,1.72.06.29,0,.45-.2.45-.56v-2.45h-5.74A8.84,8.84,0,0,1,519.12,454Zm7.34-11.25h-5.67v2.1h5.67Zm-5.67,5.55h5.67v-2.2h-5.67Z" transform="translate(-1.5 -62)"/><path class="cls-2" d="M536,442.5v10h-1.53v-8.17a5.47,5.47,0,0,1-2.3,1.26v-1.51a5.76,5.76,0,0,0,2.68-1.58Z" transform="translate(-1.5 -62)"/><path class="cls-2" d="M545.61,443.63a6,6,0,0,1,.94,3.59,7.11,7.11,0,0,1-1,4,3.18,3.18,0,0,1-2.75,1.53c-1.95,0-3-.91-3.29-2.72H541a1.67,1.67,0,0,0,1.82,1.46,1.9,1.9,0,0,0,1.65-1,4.61,4.61,0,0,0,.6-2.42c0-.06,0-.11,0-.18H545a2.85,2.85,0,0,1-1.06,1,3.15,3.15,0,0,1-1.39.31,3.1,3.1,0,0,1-2.37-1,3.37,3.37,0,0,1-.85-2.4,3.24,3.24,0,0,1,1-2.46,3.41,3.41,0,0,1,2.49-1A3.21,3.21,0,0,1,545.61,443.63Zm-4.22.55a2.19,2.19,0,0,0-.56,1.57,2.05,2.05,0,0,0,.56,1.53,1.87,1.87,0,0,0,1.47.59,1.94,1.94,0,0,0,1.48-.59,2.23,2.23,0,0,0,.55-1.57,2.16,2.16,0,0,0-.56-1.55,2,2,0,0,0-1.46-.59A1.86,1.86,0,0,0,541.4,444.18Z" transform="translate(-1.5 -62)"/><path class="cls-2" d="M560.15,453.87h-1.33v-1H552.5v1h-1.33v-12.4h9Zm-1.33-7.48v-3.61H552.5v3.61Zm0,5.2V447.7H552.5v3.89Z" transform="translate(-1.5 -62)"/><path class="cls-2" d="M495.09,554.05a6.12,6.12,0,0,1,0,5.16,2.11,2.11,0,0,1-1.93,1.13,2.09,2.09,0,0,1-1.93-1.13,6.12,6.12,0,0,1,0-5.16,2.07,2.07,0,0,1,1.93-1.13A2.09,2.09,0,0,1,495.09,554.05Zm-3.31.6a5.29,5.29,0,0,0-.3,2,5.37,5.37,0,0,0,.3,2,1.44,1.44,0,0,0,2.76,0,5.32,5.32,0,0,0,.31-2,5.25,5.25,0,0,0-.31-2,1.44,1.44,0,0,0-2.76,0Z" transform="translate(-1.5 -62)"/><path class="cls-2" d="M502,553.88a4.44,4.44,0,0,1,.63,2.56,5.25,5.25,0,0,1-.67,2.78,2.2,2.2,0,0,1-1.92,1.12,2,2,0,0,1-2.28-1.91h.81a1.35,1.35,0,0,0,1.48,1.22,1.5,1.5,0,0,0,1.32-.83,3.92,3.92,0,0,0,.47-2s0-.14,0-.26h0a2.13,2.13,0,0,1-.77.86,2.05,2.05,0,0,1-1.11.31,2.16,2.16,0,0,1-1.66-.68,2.33,2.33,0,0,1-.61-1.68,2.36,2.36,0,0,1,.68-1.75,2.29,2.29,0,0,1,1.73-.7A2.21,2.21,0,0,1,502,553.88Zm-3.11.22a1.8,1.8,0,0,0-.44,1.27,1.64,1.64,0,0,0,.44,1.21,1.54,1.54,0,0,0,1.18.47,1.59,1.59,0,0,0,1.17-.48,1.73,1.73,0,0,0,.46-1.22,1.77,1.77,0,0,0-.44-1.23,1.65,1.65,0,0,0-2.37,0Z" transform="translate(-1.5 -62)"/><path class="cls-2" d="M507.08,554.3a.57.57,0,0,1,.17.42.58.58,0,0,1-.17.43.64.64,0,0,1-.44.17.62.62,0,0,1-.43-.17.57.57,0,0,1-.17-.43.54.54,0,0,1,.17-.42.57.57,0,0,1,.43-.17A.6.6,0,0,1,507.08,554.3Zm0,3.66a.57.57,0,0,1,.17.42.58.58,0,0,1-.17.43.64.64,0,0,1-.44.17.61.61,0,0,1-.43-.17.57.57,0,0,1-.17-.43.53.53,0,0,1,.17-.42.57.57,0,0,1,.43-.17A.6.6,0,0,1,507.08,558Z" transform="translate(-1.5 -62)"/><path class="cls-2" d="M520.06,554.05a6.12,6.12,0,0,1,0,5.16,2.11,2.11,0,0,1-1.93,1.13,2.09,2.09,0,0,1-1.93-1.13,6.12,6.12,0,0,1,0-5.16,2.07,2.07,0,0,1,1.93-1.13A2.09,2.09,0,0,1,520.06,554.05Zm-3.31.6a5.29,5.29,0,0,0-.3,2,5.37,5.37,0,0,0,.3,2,1.44,1.44,0,0,0,2.76,0,5.32,5.32,0,0,0,.31-2,5.25,5.25,0,0,0-.31-2,1.44,1.44,0,0,0-2.76,0Z" transform="translate(-1.5 -62)"/><path class="cls-2" d="M527,554.05a6.12,6.12,0,0,1,0,5.16,2.11,2.11,0,0,1-1.93,1.13,2.09,2.09,0,0,1-1.93-1.13,6.12,6.12,0,0,1,0-5.16,2.07,2.07,0,0,1,1.93-1.13A2.09,2.09,0,0,1,527,554.05Zm-3.31.6a5.29,5.29,0,0,0-.3,2,5.37,5.37,0,0,0,.3,2,1.44,1.44,0,0,0,2.76,0,5.32,5.32,0,0,0,.31-2,5.25,5.25,0,0,0-.31-2,1.44,1.44,0,0,0-2.76,0Z" transform="translate(-1.5 -62)"/><path class="cls-2" d="M534.66,557.27V558h-5v-.68Z" transform="translate(-1.5 -62)"/><path class="cls-2" d="M539.09,553.06v7.14h-.82v-6.14a3.81,3.81,0,0,1-1.68,1v-.82a4.24,4.24,0,0,0,1-.43,4.16,4.16,0,0,0,.86-.73Z" transform="translate(-1.5 -62)"/><path class="cls-2" d="M545.9,553.5a1.72,1.72,0,0,1,.58,1.31,1.64,1.64,0,0,1-.27,1,1.7,1.7,0,0,1-.85.62v0a1.74,1.74,0,0,1,.95.62,1.83,1.83,0,0,1,.42,1.2,1.91,1.91,0,0,1-.66,1.52,2.88,2.88,0,0,1-1.92.59,2.84,2.84,0,0,1-1.92-.59,1.91,1.91,0,0,1-.66-1.52A1.83,1.83,0,0,1,542,557a1.7,1.7,0,0,1,.95-.62v0a1.62,1.62,0,0,1-.85-.62,1.64,1.64,0,0,1-.27-1,1.68,1.68,0,0,1,.58-1.31,2.93,2.93,0,0,1,3.5,0Zm-3.08,3.69a1.44,1.44,0,0,0,0,2.07,2.35,2.35,0,0,0,2.67,0,1.33,1.33,0,0,0,.43-1,1.36,1.36,0,0,0-.43-1,1.93,1.93,0,0,0-1.34-.43A1.87,1.87,0,0,0,542.82,557.19ZM543,554a1.09,1.09,0,0,0-.37.86,1.2,1.2,0,0,0,.33.88,1.68,1.68,0,0,0,1.23.4,1.71,1.71,0,0,0,1.23-.4,1.2,1.2,0,0,0,.33-.88,1.12,1.12,0,0,0-.37-.86,1.72,1.72,0,0,0-1.19-.39A1.69,1.69,0,0,0,543,554Z" transform="translate(-1.5 -62)"/><path class="cls-2" d="M551.08,554.3a.57.57,0,0,1,.17.42.58.58,0,0,1-.17.43.64.64,0,0,1-.44.17.62.62,0,0,1-.43-.17.57.57,0,0,1-.17-.43.54.54,0,0,1,.17-.42.57.57,0,0,1,.43-.17A.59.59,0,0,1,551.08,554.3Zm0,3.66a.57.57,0,0,1,.17.42.58.58,0,0,1-.17.43.63.63,0,0,1-.44.17.61.61,0,0,1-.43-.17.57.57,0,0,1-.17-.43.53.53,0,0,1,.17-.42.57.57,0,0,1,.43-.17A.59.59,0,0,1,551.08,558Z" transform="translate(-1.5 -62)"/><path class="cls-2" d="M564.06,554.05a6.11,6.11,0,0,1,0,5.16,2.21,2.21,0,0,1-3.86,0,6.11,6.11,0,0,1,0-5.16,2.21,2.21,0,0,1,3.86,0Zm-3.31.6a5.27,5.27,0,0,0-.3,2,5.35,5.35,0,0,0,.3,2,1.44,1.44,0,0,0,2.76,0,5.32,5.32,0,0,0,.31-2,5.25,5.25,0,0,0-.31-2,1.44,1.44,0,0,0-2.76,0Z" transform="translate(-1.5 -62)"/><path class="cls-2" d="M571,554.05a6.11,6.11,0,0,1,0,5.16,2.21,2.21,0,0,1-3.86,0,6.11,6.11,0,0,1,0-5.16,2.21,2.21,0,0,1,3.86,0Zm-3.31.6a5.27,5.27,0,0,0-.3,2,5.35,5.35,0,0,0,.3,2,1.44,1.44,0,0,0,2.76,0,5.32,5.32,0,0,0,.31-2,5.25,5.25,0,0,0-.31-2,1.44,1.44,0,0,0-2.76,0Z" transform="translate(-1.5 -62)"/><g class="cls-5"><path class="cls-6" d="M497.42,520.74a7,7,0,0,1,0,8.5,5.86,5.86,0,0,1-8.23,0,7,7,0,0,1,0-8.47,5.14,5.14,0,0,1,4.11-1.71A5.22,5.22,0,0,1,497.42,520.74Zm-6.95,1.07a5.74,5.74,0,0,0,0,6.35,3.92,3.92,0,0,0,5.65,0,4.87,4.87,0,0,0,1-3.2,5,5,0,0,0-1-3.23,3.91,3.91,0,0,0-5.65,0Z" transform="translate(-1.5 -62)"/><path class="cls-6" d="M506.94,519.27c2.72,0,4.08,1.15,4.08,3.47s-1.38,3.5-4.11,3.5h-3v4.45h-1.75V519.27Zm-3,5.49h2.85a3,3,0,0,0,1.89-.48,1.89,1.89,0,0,0,.59-1.54,1.75,1.75,0,0,0-.61-1.5,3,3,0,0,0-1.87-.48H504Z" transform="translate(-1.5 -62)"/><path class="cls-6" d="M522.43,519.27v1.49H516v3.33H522v1.49H516v3.63h6.74v1.49h-8.48V519.27Z" transform="translate(-1.5 -62)"/><path class="cls-6" d="M527.82,519.27l5.84,8.5h.06v-8.5h1.75V530.7h-1.7l-5.91-8.6h-.06v8.6h-1.75V519.27Z" transform="translate(-1.5 -62)"/><path class="cls-6" d="M543.47,519.27a5.41,5.41,0,0,1,4.19,1.55A5.89,5.89,0,0,1,549,525a6,6,0,0,1-1.38,4.18,5.46,5.46,0,0,1-4.19,1.54h-4.13V519.27Zm-2.42,9.94h2.06a4.31,4.31,0,0,0,3.19-1,5.67,5.67,0,0,0,0-6.39,4.27,4.27,0,0,0-3.17-1h-2.1Z" transform="translate(-1.5 -62)"/><path class="cls-6" d="M557.63,519.27,562,530.7h-1.87l-1.07-2.95h-4.91l-1.07,2.95h-1.86l4.4-11.43Zm.93,7-1.89-5.17h-.06l-1.91,5.17Z" transform="translate(-1.5 -62)"/><path class="cls-6" d="M565.79,519.27l3.3,5.23,3.3-5.23h2.1L570,526.14v4.56h-1.73v-4.56l-4.53-6.87Z" transform="translate(-1.5 -62)"/></g><path class="cls-4" d="M534.64,495.5v-8.2a3,3,0,1,0-6,0v8.2c0,1.9,1.2,3.5,3,3.5S534.64,497.4,534.64,495.5Zm1.7-1.5v2a4.7,4.7,0,1,1-9.4,0v-2h-1.3v2a5.8,5.8,0,0,0,5,6v3h-2v1h6v-1h-2v-3c3-.3,5-2.8,5-6v-2Z" transform="translate(-1.5 -62)"/><g class="cls-5"><path class="cls-6" d="M497.23,538.86v9.07h-.74v-1.68a17.33,17.33,0,0,1-2.63,1l-.17-.71a13.45,13.45,0,0,0,2.8-1v-3.21h-2.65v-.69h2.65v-2.77Zm2.63,9c-.63,0-.94-.34-.94-1v-8h.73v3.35a11.19,11.19,0,0,0,2.53-1.33l.42.59a15.42,15.42,0,0,1-2.95,1.42v3.84c0,.28.12.43.37.43h1.25a.52.52,0,0,0,.48-.24,7.32,7.32,0,0,0,.17-1.79l.68.22a6,6,0,0,1-.32,2.13,1,1,0,0,1-.89.36Z" transform="translate(-1.5 -62)"/><path class="cls-6" d="M507.49,545.46a10,10,0,0,1-2.36,2.32l-.45-.58A9.69,9.69,0,0,0,507,545Zm2-5.55h4.1v.67h-8.85v-.67h4a7.65,7.65,0,0,0-.46-1l.74-.13A10.32,10.32,0,0,1,509.49,539.91Zm2.86,1.64v2.8h-2.79V547a.8.8,0,0,1-.91.9h-1.08l-.16-.69c.34,0,.67.05,1,.05a.39.39,0,0,0,.44-.44v-2.49H506v-2.8Zm-.72.69H506.7v1.42h4.93Zm2,5-.53.53a16.33,16.33,0,0,0-2.24-2.31l.47-.47A18.31,18.31,0,0,1,513.62,547.24Z" transform="translate(-1.5 -62)"/><path class="cls-6" d="M523.64,548h-.73v-.79H517.4V548h-.73v-7.58H519a8.34,8.34,0,0,0,.5-1.63l.79.11a6.73,6.73,0,0,1-.49,1.52h3.79Zm-.73-4.61v-2.26H517.4v2.26Zm0,3.12v-2.44H517.4v2.44Z" transform="translate(-1.5 -62)"/><path class="cls-6" d="M535.08,540.53v7.28h-.72v-.67h-6.45v.66h-.72v-7.3h.72v5.95h2.86v-7.56h.74v7.56h2.85v-5.92Z" transform="translate(-1.5 -62)"/><path class="cls-6" d="M539.45,542.66a7,7,0,0,1-1.35,2.75l-.53-.47a6.2,6.2,0,0,0,1.24-2.53Zm2.14-3.8v1.93h3.19c0,.68,0,1.3-.05,1.88l.63-.31a31.43,31.43,0,0,1,1.39,3l-.66.32a24.88,24.88,0,0,0-1.36-3c0,.9-.08,1.68-.14,2.33a6.8,6.8,0,0,1-.48,2.25,1.26,1.26,0,0,1-1.08.66H541.9l-.2-.7,1,0c.52,0,.87-.36,1-1.06a32.23,32.23,0,0,0,.33-4.72h-2.49a11.4,11.4,0,0,1-.83,3.94,5.56,5.56,0,0,1-2.57,2.57l-.39-.63a5.22,5.22,0,0,0,2.41-2.49,11.22,11.22,0,0,0,.65-3.39h-2.48v-.69h2.5v-1.93Z" transform="translate(-1.5 -62)"/><path class="cls-6" d="M552.07,539.19a11.42,11.42,0,0,1-2.93,4.8l-.56-.49a10.57,10.57,0,0,0,2.83-4.57Zm4.75,8.5-.67.3q-.22-.51-.45-1c-1.76.28-3.73.48-5.91.62l-.13-.7q1.2-.63,3-4.74l.7.24a21.5,21.5,0,0,1-2.58,4.47c1.63-.1,3.16-.27,4.59-.5a20.28,20.28,0,0,0-1.21-2l.65-.22A20.14,20.14,0,0,1,556.82,547.7Zm.86-4.28-.51.59a9.68,9.68,0,0,1-3.11-4.81l.61-.34A9.38,9.38,0,0,0,557.68,543.42Z" transform="translate(-1.5 -62)"/><path class="cls-6" d="M568.23,539.24v.69H561v7h7.54v.69h-8.23v-8.34ZM565,543a11.88,11.88,0,0,0,1.48-2.52l.65.35a12.3,12.3,0,0,1-1.57,2.67q1.17,1.08,2.13,2.13l-.56.56a23.66,23.66,0,0,0-2-2.13,9.1,9.1,0,0,1-3,2.16l-.42-.65a8.18,8.18,0,0,0,2.91-2c-.79-.7-1.66-1.42-2.62-2.15l.52-.5C563.32,541.55,564.18,542.25,565,543Z" transform="translate(-1.5 -62)"/></g></svg>