<?xml version="1.0" encoding="utf-8"?>
<!-- Generator: Adobe Illustrator 21.0.0, SVG Export Plug-In . SVG Version: 6.00 Build 0)  -->
<svg version="1.1" id="图层_1" xmlns="http://www.w3.org/2000/svg" xmlns:xlink="http://www.w3.org/1999/xlink" x="0px" y="0px"
	 viewBox="0 0 772 622" style="enable-background:new 0 0 772 622;" xml:space="preserve">
<style type="text/css">
	.st0{fill:none;stroke:#4A90E2;stroke-linecap:square;stroke-miterlimit:10;}
	.st1{fill:#ABABAB;}
	.st2{fill:#59A3E8;}
	.st3{fill-rule:evenodd;clip-rule:evenodd;fill:#4A90E2;}
</style>
<g>
	<path class="st0" d="M2,128h743c13.8,0,25,11.2,25,25v141c0,13.8-11.2,25-25,25H22c-11,0-20,9-20,20v147c0,11,9,20,20,20h748"/>
	<path class="st1" d="M79.6,84.6c0.9,1.7,2.1,3.1,3.9,4.2l-0.8,1.1c-0.5-0.3-0.9-0.6-1.3-1v1.2h-4.9v-1.2c-0.4,0.4-0.8,0.7-1.2,1
		l-0.4-0.7v6.5h-1.2v-0.7h-1.4v1h-1.3V85.6h3.9v3c1.5-1.1,2.7-2.4,3.6-4H79.6z M73.6,93.9v-7.1h-1.4v7.1H73.6z M82.1,97.5h-1.3v-0.7
		h-3.7v0.7h-1.3v-5.8h6.2V97.5z M81.4,88.9c-0.9-0.9-1.7-1.9-2.4-3c-0.7,1.2-1.5,2.2-2.4,3H81.4z M80.8,95.5v-2.6h-3.7v2.6H80.8z
		 M90.3,91.1c-0.8,2-1.8,3.6-3,5.1l-1.1-0.8c1.1-1.3,2.1-3,2.9-4.8L90.3,91.1z M87.4,90.3l-0.9-0.9c1.3-1.4,2.2-3.1,2.7-5l1.3,0.3
		c-0.1,0.5-0.3,1-0.5,1.4h7.7v0.9c-0.2,1-0.5,2-0.8,3l-1.3-0.4c0.3-0.6,0.5-1.4,0.7-2.2h-6.8C88.9,88.5,88.2,89.5,87.4,90.3z
		 M89.9,97.4l-0.3-1.3c0.6,0.1,1.1,0.1,1.6,0.1c0.4,0,0.5-0.2,0.5-0.6v-7.2h1.3v7.5c0,1-0.5,1.5-1.4,1.5H89.9z M98.4,95.9l-1.2,0.6
		c-0.8-2-1.7-3.9-2.7-5.4l1.2-0.4C96.7,92.2,97.6,94,98.4,95.9z M104.5,90l-0.9,1c-0.5-0.6-1.3-1.3-2.2-2.1l1-0.9
		C103.2,88.7,103.9,89.3,104.5,90z M104.6,92.4c-0.5,1.7-1.2,3.3-1.8,4.8l-1.2-0.5c0.7-1.5,1.4-3.1,1.9-4.8L104.6,92.4z M104.8,86.4
		l-0.9,1c-0.5-0.6-1.3-1.2-2.2-1.8l1-0.9C103.5,85.2,104.2,85.8,104.8,86.4z M108.8,95.5c-0.8,0.7-1.9,1.4-3.1,1.9l-0.8-1.1
		c1.2-0.5,2.2-1.1,3-1.7L108.8,95.5z M112.2,88.8c-1.3,0.3-2.8,0.6-4.5,0.8v0.6h5.4v1.2H112v1.9h2.1v1.3H105v-1.3h1.3v-4.7
		c2.1-0.2,3.8-0.5,5.1-1L112.2,88.8z M113.8,88.4h-1.3v-1.5h-6.1v1.5h-1.3v-2.7h3.6c-0.2-0.4-0.3-0.7-0.5-1l1.3-0.2
		c0.2,0.4,0.4,0.8,0.5,1.2h3.7V88.4z M110.8,93.2v-1.9h-3v1.9H110.8z M114.1,96.4l-0.8,1.1c-1-0.8-2-1.4-3-1.9l0.7-1
		C112.1,95.1,113.1,95.7,114.1,96.4z"/>
	<path class="st1" d="M71.1,64.1c0.6,0.9,0.9,2,0.9,3.6c0,1.6-0.3,2.9-1,4c-0.7,1-1.6,1.5-2.7,1.5c-1.9,0-3-0.9-3.3-2.7h1.5
		c0.2,1,0.8,1.5,1.8,1.5c0.7,0,1.2-0.4,1.7-1c0.4-0.6,0.6-1.5,0.6-2.4c0-0.1,0-0.1,0-0.2h-0.1c-0.3,0.4-0.6,0.8-1.1,1
		c-0.4,0.2-0.9,0.3-1.4,0.3c-1,0-1.8-0.3-2.4-1c-0.6-0.6-0.9-1.4-0.9-2.4c0-1,0.3-1.8,1-2.5c0.7-0.7,1.5-1,2.5-1
		C69.6,62.8,70.5,63.2,71.1,64.1z M66.9,64.7c-0.4,0.4-0.6,0.9-0.6,1.6s0.2,1.1,0.6,1.5c0.4,0.4,0.8,0.6,1.5,0.6
		c0.6,0,1.1-0.2,1.5-0.6s0.5-0.9,0.5-1.6c0-0.7-0.2-1.2-0.6-1.6c-0.4-0.4-0.9-0.6-1.5-0.6C67.8,64.1,67.3,64.3,66.9,64.7z
		 M76.9,74.5l-1-0.9c0.9-1.2,1.3-2.8,1.4-4.7V62h8.3v11c0,0.9-0.5,1.3-1.4,1.3h-1.8L82.1,73c0.6,0,1.2,0.1,1.7,0.1
		c0.3,0,0.4-0.2,0.4-0.6v-2.5h-5.7C78.3,71.9,77.8,73.3,76.9,74.5z M84.3,63.3h-5.7v2.1h5.7V63.3z M78.6,68.8h5.7v-2.2h-5.7V68.8z
		 M93.8,63v10h-1.5v-8.2c-0.6,0.6-1.4,1-2.3,1.3v-1.5c0.4-0.1,0.9-0.3,1.4-0.6c0.5-0.3,0.9-0.6,1.3-1H93.8z M103.3,63.6
		c0.6,0.5,0.8,1.1,0.8,1.9c0,0.5-0.1,1-0.3,1.3c-0.3,0.4-0.6,0.7-1.1,0.9v0c0.5,0.1,0.9,0.4,1.2,0.8c0.4,0.5,0.6,1,0.6,1.7
		c0,0.9-0.3,1.6-1,2.2c-0.7,0.5-1.6,0.8-2.8,0.8c-1.2,0-2.1-0.3-2.8-0.8c-0.6-0.6-1-1.3-1-2.2c0-0.6,0.2-1.2,0.6-1.7
		c0.3-0.4,0.7-0.7,1.2-0.8v0c-0.5-0.2-0.9-0.5-1.1-0.9c-0.2-0.4-0.3-0.8-0.3-1.3c0-0.7,0.3-1.4,0.8-1.9c0.6-0.6,1.5-0.8,2.5-0.8
		S102.7,63.1,103.3,63.6z M99.1,68.9c-0.4,0.3-0.6,0.8-0.6,1.3c0,0.5,0.2,0.9,0.6,1.3c0.4,0.3,0.9,0.5,1.6,0.5
		c0.7,0,1.3-0.2,1.7-0.5c0.4-0.3,0.5-0.7,0.5-1.3c0-0.6-0.2-1-0.5-1.3c-0.4-0.4-0.9-0.5-1.7-0.5S99.5,68.5,99.1,68.9z M99.3,64.5
		c-0.3,0.3-0.5,0.6-0.5,1.1c0,0.5,0.1,0.9,0.4,1.1c0.3,0.3,0.8,0.5,1.6,0.5c0.7,0,1.2-0.2,1.6-0.5c0.3-0.3,0.4-0.7,0.4-1.1
		c0-0.4-0.2-0.8-0.5-1.1c-0.4-0.3-0.9-0.5-1.5-0.5S99.7,64.2,99.3,64.5z M118,74.4h-1.3v-1h-6.3v1H109V62h9V74.4z M116.7,66.9v-3.6
		h-6.3v3.6H116.7z M116.7,72.1v-3.9h-6.3v3.9H116.7z"/>
	<path class="st1" d="M55.4,174.9v7.1h-0.8v-6.1c-0.4,0.5-1,0.8-1.7,1V176c0.3-0.1,0.7-0.2,1-0.4c0.3-0.2,0.6-0.5,0.9-0.7H55.4z
		 M62.2,175.3c0.4,0.3,0.6,0.8,0.6,1.3c0,0.4-0.1,0.7-0.3,1c-0.2,0.3-0.5,0.5-0.8,0.6v0c0.4,0.1,0.7,0.3,0.9,0.6
		c0.3,0.3,0.4,0.7,0.4,1.2c0,0.6-0.2,1.1-0.7,1.5c-0.5,0.4-1.1,0.6-1.9,0.6c-0.8,0-1.5-0.2-1.9-0.6c-0.4-0.4-0.7-0.9-0.7-1.5
		c0-0.5,0.1-0.9,0.4-1.2c0.3-0.3,0.6-0.5,0.9-0.6v0c-0.4-0.1-0.7-0.3-0.8-0.6c-0.2-0.3-0.3-0.6-0.3-1c0-0.5,0.2-1,0.6-1.3
		c0.4-0.4,1-0.6,1.7-0.6C61.2,174.7,61.8,174.9,62.2,175.3z M59.1,179c-0.3,0.3-0.4,0.6-0.4,1c0,0.4,0.1,0.8,0.4,1
		c0.3,0.3,0.7,0.4,1.3,0.4s1-0.1,1.3-0.4c0.3-0.3,0.4-0.6,0.4-1c0-0.4-0.1-0.8-0.4-1c-0.3-0.3-0.8-0.4-1.3-0.4
		C59.9,178.6,59.5,178.7,59.1,179z M59.3,175.8c-0.2,0.2-0.4,0.5-0.4,0.9c0,0.4,0.1,0.7,0.3,0.9c0.3,0.3,0.7,0.4,1.2,0.4
		c0.5,0,1-0.1,1.2-0.4c0.2-0.2,0.3-0.5,0.3-0.9c0-0.3-0.1-0.6-0.4-0.9c-0.3-0.3-0.7-0.4-1.2-0.4C60,175.4,59.6,175.5,59.3,175.8z
		 M67.4,176.1c0.1,0.1,0.2,0.2,0.2,0.4c0,0.2-0.1,0.3-0.2,0.4c-0.1,0.1-0.3,0.2-0.4,0.2s-0.3-0.1-0.4-0.2c-0.1-0.1-0.2-0.3-0.2-0.4
		s0-0.3,0.2-0.4c0.1-0.1,0.3-0.2,0.4-0.2S67.3,176,67.4,176.1z M67.4,179.8c0.1,0.1,0.2,0.2,0.2,0.4c0,0.2-0.1,0.3-0.2,0.4
		c-0.1,0.1-0.3,0.2-0.4,0.2s-0.3-0.1-0.4-0.2c-0.1-0.1-0.2-0.3-0.2-0.4s0-0.3,0.2-0.4c0.1-0.1,0.3-0.2,0.4-0.2
		S67.3,179.6,67.4,179.8z M80.2,175.2c0.4,0.3,0.6,0.8,0.6,1.4c0,0.8-0.4,1.3-1.2,1.6c0.4,0.1,0.7,0.3,1,0.6c0.2,0.3,0.4,0.6,0.4,1
		c0,0.6-0.2,1.2-0.7,1.6c-0.5,0.4-1.1,0.6-1.8,0.6c-0.7,0-1.2-0.2-1.7-0.5c-0.5-0.4-0.8-1-0.8-1.8h0.8c0,0.6,0.2,1,0.6,1.3
		c0.3,0.2,0.7,0.4,1.1,0.4c0.5,0,0.9-0.1,1.2-0.4c0.3-0.3,0.4-0.6,0.4-1c0-0.4-0.1-0.8-0.4-1s-0.7-0.3-1.2-0.3H78V178h0.5
		c0.5,0,0.8-0.1,1.1-0.3c0.2-0.2,0.4-0.5,0.4-0.9s-0.1-0.7-0.4-0.9c-0.3-0.2-0.6-0.3-1.1-0.3c-0.5,0-0.8,0.1-1.1,0.4
		c-0.3,0.3-0.4,0.6-0.5,1.1h-0.8c0.1-0.7,0.3-1.2,0.8-1.6c0.4-0.4,1-0.6,1.6-0.6S79.8,174.9,80.2,175.2z M87.4,175.9
		c0.4,0.6,0.6,1.5,0.6,2.6s-0.2,1.9-0.6,2.6c-0.4,0.7-1.1,1.1-1.9,1.1c-0.9,0-1.5-0.4-1.9-1.1c-0.4-0.6-0.6-1.5-0.6-2.6
		s0.2-1.9,0.6-2.6c0.4-0.8,1.1-1.1,1.9-1.1C86.3,174.7,87,175.1,87.4,175.9z M84.1,176.5c-0.2,0.5-0.3,1.1-0.3,2
		c0,0.8,0.1,1.5,0.3,2c0.3,0.7,0.7,1,1.4,1s1.1-0.3,1.4-1c0.2-0.5,0.3-1.1,0.3-2c0-0.8-0.1-1.5-0.3-2c-0.3-0.7-0.7-1-1.4-1
		S84.4,175.8,84.1,176.5z M95,179.1v0.7h-5v-0.7H95z M101.3,175.3c0.4,0.4,0.6,0.9,0.6,1.5s-0.2,1.2-0.7,1.7
		c-0.2,0.3-0.7,0.6-1.5,1.1c-0.9,0.6-1.4,1.2-1.6,1.6h3.7v0.7h-4.8c0-0.6,0.2-1.2,0.7-1.8c0.3-0.3,0.8-0.7,1.5-1.3
		c0.6-0.4,0.9-0.7,1.1-0.9c0.4-0.4,0.5-0.8,0.5-1.3c0-0.4-0.1-0.8-0.4-1s-0.6-0.4-1.1-0.4c-0.5,0-0.9,0.2-1.1,0.5
		c-0.3,0.3-0.4,0.8-0.4,1.4h-0.8c0-0.8,0.2-1.4,0.7-1.9c0.4-0.5,1-0.7,1.7-0.7C100.3,174.7,100.8,174.9,101.3,175.3z M106.5,174.9
		v7.1h-0.8v-6.1c-0.4,0.5-1,0.8-1.7,1V176c0.3-0.1,0.7-0.2,1-0.4c0.3-0.2,0.6-0.5,0.9-0.7H106.5z M111.5,176.1
		c0.1,0.1,0.2,0.2,0.2,0.4c0,0.2-0.1,0.3-0.2,0.4c-0.1,0.1-0.3,0.2-0.4,0.2s-0.3-0.1-0.4-0.2c-0.1-0.1-0.2-0.3-0.2-0.4
		s0-0.3,0.2-0.4c0.1-0.1,0.3-0.2,0.4-0.2S111.4,176,111.5,176.1z M111.5,179.8c0.1,0.1,0.2,0.2,0.2,0.4c0,0.2-0.1,0.3-0.2,0.4
		c-0.1,0.1-0.3,0.2-0.4,0.2s-0.3-0.1-0.4-0.2c-0.1-0.1-0.2-0.3-0.2-0.4s0-0.3,0.2-0.4c0.1-0.1,0.3-0.2,0.4-0.2
		S111.4,179.6,111.5,179.8z M124.3,175.2c0.4,0.3,0.6,0.8,0.6,1.4c0,0.8-0.4,1.3-1.2,1.6c0.4,0.1,0.7,0.3,1,0.6
		c0.2,0.3,0.4,0.6,0.4,1c0,0.6-0.2,1.2-0.7,1.6c-0.5,0.4-1.1,0.6-1.8,0.6c-0.7,0-1.2-0.2-1.7-0.5c-0.5-0.4-0.8-1-0.8-1.8h0.8
		c0,0.6,0.2,1,0.6,1.3c0.3,0.2,0.7,0.4,1.1,0.4c0.5,0,0.9-0.1,1.2-0.4c0.3-0.3,0.4-0.6,0.4-1c0-0.4-0.1-0.8-0.4-1s-0.7-0.3-1.2-0.3
		h-0.6V178h0.5c0.5,0,0.8-0.1,1.1-0.3c0.2-0.2,0.4-0.5,0.4-0.9s-0.1-0.7-0.4-0.9c-0.3-0.2-0.6-0.3-1.1-0.3c-0.5,0-0.8,0.1-1.1,0.4
		c-0.3,0.3-0.4,0.6-0.5,1.1h-0.8c0.1-0.7,0.3-1.2,0.8-1.6c0.4-0.4,1-0.6,1.6-0.6S123.8,174.9,124.3,175.2z M131.5,175.9
		c0.4,0.6,0.6,1.5,0.6,2.6s-0.2,1.9-0.6,2.6c-0.4,0.7-1.1,1.1-1.9,1.1c-0.9,0-1.5-0.4-1.9-1.1c-0.4-0.6-0.6-1.5-0.6-2.6
		s0.2-1.9,0.6-2.6c0.4-0.8,1.1-1.1,1.9-1.1C130.4,174.7,131,175.1,131.5,175.9z M128.2,176.5c-0.2,0.5-0.3,1.1-0.3,2
		c0,0.8,0.1,1.5,0.3,2c0.3,0.7,0.7,1,1.4,1s1.1-0.3,1.4-1c0.2-0.5,0.3-1.1,0.3-2c0-0.8-0.1-1.5-0.3-2c-0.3-0.7-0.7-1-1.4-1
		S128.4,175.8,128.2,176.5z"/>
	<path class="st2" d="M42.5,139c1,1.9,2.4,3.5,4.4,4.8l-0.9,1.3c-0.5-0.4-1-0.7-1.5-1.2v1.3H39v-1.3c-0.5,0.4-0.9,0.8-1.4,1.2
		l-0.5-0.8v7.4h-1.4V151H34v1.1h-1.4v-12H37v3.5c1.7-1.2,3-2.8,4.1-4.6H42.5z M35.6,149.6v-8.1H34v8.1H35.6z M45.4,153.7h-1.5v-0.8
		h-4.2v0.8h-1.4V147h7.1V153.7z M44.5,143.8c-1.1-1-2-2.1-2.7-3.5c-0.8,1.3-1.7,2.5-2.8,3.5H44.5z M43.9,151.4v-3h-4.2v3H43.9z
		 M54.7,146.4c-1,2.2-2.1,4.2-3.4,5.8l-1.2-0.9c1.3-1.5,2.4-3.4,3.3-5.5L54.7,146.4z M51.4,145.5l-1.1-1c1.5-1.6,2.5-3.5,3.1-5.8
		l1.5,0.4c-0.2,0.6-0.3,1.1-0.5,1.6h8.8v1c-0.2,1.1-0.5,2.3-0.9,3.4l-1.5-0.4c0.3-0.7,0.6-1.6,0.8-2.5h-7.8
		C53.1,143.5,52.3,144.6,51.4,145.5z M54.2,153.6l-0.3-1.5c0.6,0.1,1.2,0.1,1.8,0.1c0.4,0,0.6-0.2,0.6-0.7v-8.2h1.5v8.6
		c0,1.1-0.5,1.7-1.6,1.7H54.2z M64,151.8l-1.4,0.6c-0.9-2.3-2-4.4-3.1-6.2l1.4-0.5C62,147.7,63.1,149.7,64,151.8z M71,145.2
		l-1.1,1.1c-0.6-0.7-1.5-1.5-2.5-2.4l1.1-1.1C69.4,143.6,70.3,144.4,71,145.2z M71.1,147.9c-0.6,2-1.3,3.8-2.1,5.5l-1.4-0.6
		c0.8-1.8,1.6-3.6,2.2-5.4L71.1,147.9z M71.3,141.1l-1.1,1.1c-0.6-0.7-1.4-1.4-2.5-2.1l1.1-1.1C69.8,139.7,70.6,140.4,71.3,141.1z
		 M75.9,151.5c-1,0.8-2.1,1.6-3.5,2.2l-0.9-1.2c1.3-0.6,2.5-1.2,3.4-2L75.9,151.5z M79.8,143.7c-1.5,0.4-3.2,0.7-5.1,0.9v0.7h6.2
		v1.4h-1.2v2.1H82v1.4H71.6v-1.4h1.5v-5.3c2.4-0.2,4.4-0.6,5.9-1.1L79.8,143.7z M81.6,143.3h-1.5v-1.7h-7v1.7h-1.5v-3.1h4.2
		c-0.2-0.4-0.4-0.8-0.6-1.1l1.5-0.3c0.2,0.4,0.4,0.9,0.6,1.4h4.2V143.3z M78.1,148.8v-2.1h-3.5v2.1H78.1z M81.9,152.4l-0.9,1.3
		c-1.1-0.9-2.3-1.6-3.5-2.2l0.8-1.1C79.6,151,80.8,151.7,81.9,152.4z M86.1,141.3v-1.5h12.4v1.5H93v10.2h6.1v1.5h-14v-1.5h6.3v-10.2
		H86.1z M108.8,139v12.6h1.9V139h1.5v12.6h4.7v1.5h-14.3v-1.5h4.6V139H108.8z M106.5,149.3l-1.4,0.4c-0.5-2.5-1.2-4.9-2.1-7.3
		l1.3-0.4C105.1,144.1,105.8,146.5,106.5,149.3z M116.6,142.4c-0.6,2.8-1.4,5.2-2.4,7.2l-1.4-0.5c0.9-1.9,1.7-4.2,2.4-7.1
		L116.6,142.4z M126.5,143c0.1-0.8,0.2-1.7,0.2-2.7v-1.4h1.5v1c0,1.1-0.1,2.1-0.2,3h6.5v1.5h-6.1c1.1,3.4,3.3,6.1,6.5,7.9l-0.9,1.2
		c-3.1-1.9-5.2-4.5-6.5-7.9c-1.1,3.7-3.2,6.4-6.5,8.1l-1-1.3c3.3-1.6,5.4-4.3,6.2-8h-5.9V143H126.5z M151.9,145.9h-1.5v-2.4h-10.8
		v2.4h-1.5V142h2.9c-0.5-0.9-1-1.6-1.6-2.3l1.4-0.7c0.5,0.7,1.1,1.6,1.6,2.5l-1,0.5h6c0.7-1,1.2-2.1,1.7-3.2l1.6,0.6
		c-0.5,1-1.1,1.9-1.6,2.6h2.9V145.9z M149.3,144.5v1.3c-1,0.7-2.1,1.3-3.4,1.9v0.6h6v1.4h-6v2.4c0,0.9-0.5,1.4-1.5,1.4h-2l-0.4-1.4
		c0.6,0,1.2,0,1.9,0c0.3,0,0.5-0.2,0.5-0.6v-1.9h-6.3v-1.4h6.3v-1.2c1.1-0.5,2-0.9,2.7-1.2h-6.5v-1.3H149.3z M146.1,141.3l-1.4,0.7
		c-0.5-1-1-1.8-1.5-2.6l1.4-0.7C145.1,139.5,145.6,140.4,146.1,141.3z"/>
	<path class="st2" d="M59.6,161.7v-1.8h0.7v1.8h3.9v0.7H61c0.7,1.6,1.9,3,3.6,4.3l-0.5,0.6c-1.8-1.4-3-3.1-3.7-4.9h-0.1v3.9h2.1v0.7
		h-2.1v2h-0.7v-2h-2.1v-0.7h2.1v-3.9h-0.1c-0.7,2-2,3.7-3.8,5l-0.4-0.7c1.7-1.1,2.9-2.6,3.6-4.3h-3.3v-0.7H59.6z M68.5,163.6h1
		c0.3-0.5,0.5-1.1,0.7-1.8L71,162c-0.2,0.6-0.4,1.1-0.7,1.5h1.2v0.7h-5v-0.7h1.3c-0.2-0.5-0.4-1-0.6-1.4l0.7-0.2
		C68.1,162.3,68.3,162.9,68.5,163.6z M68.7,160.8c-0.1-0.3-0.2-0.6-0.4-0.9l0.7-0.1c0.1,0.3,0.2,0.6,0.3,1h2v0.7h-4.7v-0.7H68.7z
		 M71.1,168.9h-0.7v-0.6h-2.6v0.6h-0.7v-3.8h4V168.9z M70.3,167.7v-1.8h-2.6v1.8H70.3z M75.3,160.3v0.5c-0.3,1-0.6,2-1,2.9
		c0.7,0.9,1.1,1.7,1.1,2.3c0,0.6-0.1,1-0.4,1.3c-0.3,0.2-0.8,0.4-1.6,0.4l-0.2-0.8c0.3,0,0.5,0,0.7,0c0.4,0,0.6-0.1,0.7-0.2
		c0.1-0.1,0.1-0.4,0.2-0.7c0-0.6-0.4-1.4-1.2-2.3c0.3-0.8,0.7-1.7,1-2.8h-1.8v8.1H72v-8.7H75.3z M86.2,159.7
		c-0.4,0.7-0.7,1.3-0.9,2.1c-0.3,0.9-0.4,1.7-0.4,2.6c0,0.8,0.1,1.7,0.4,2.6c0.2,0.7,0.5,1.4,0.9,2.1h-0.7c-0.4-0.6-0.8-1.3-1-2.1
		c-0.3-0.9-0.4-1.7-0.4-2.6c0-0.9,0.1-1.8,0.4-2.6c0.2-0.7,0.6-1.4,1-2.1H86.2z M97.5,160.3v0.7h-3v1.5h2.4v6.4h-0.7v-0.4h-6.3v0.4
		h-0.7v-6.4h2.4V161h-3v-0.7H97.5z M96.2,167.8v-1.6h-1.4c-0.7,0-1-0.3-1-1v-2.1h-1.5v0.2c0,1.6-0.6,2.7-1.6,3.5l-0.6-0.5
		c1-0.6,1.5-1.6,1.5-3v-0.2h-1.7v4.6H96.2z M92.2,162.5h1.5V161h-1.5V162.5z M94.4,165.1c0,0.3,0.1,0.5,0.5,0.5h1.3v-2.4h-1.7V165.1
		z M101,161.8v-1.9h0.7v1.9h1v0.7h-1v0.8c0.3,0.4,0.7,0.8,1,1.3c0.6-0.7,1.1-1.5,1.5-2.4l0.6,0.3c-0.5,1-1,1.8-1.6,2.5l-0.4-0.3
		l0.2,0.3l-0.4,0.6c-0.4-0.7-0.7-1.3-1-1.7v5H101v-5.1c-0.3,1-0.8,1.9-1.3,2.7l-0.3-0.8c0.7-1,1.3-2,1.6-3.3h-1.3v-0.7H101z
		 M107.2,164.2c-0.2,1.1-0.5,2-1.1,2.7c0.6,0.6,1.5,1,2.5,1.4l-0.4,0.6c-1-0.4-1.9-0.9-2.5-1.5c-0.7,0.7-1.6,1.3-2.7,1.6l-0.4-0.6
		c1.1-0.3,1.9-0.8,2.6-1.4c-0.6-0.7-1-1.6-1.2-2.6l0.6-0.2c0.1,0.8,0.5,1.6,1,2.3c0.4-0.6,0.7-1.4,0.9-2.3L107.2,164.2z
		 M105.4,161.1c-0.2-0.5-0.4-0.9-0.6-1.3l0.7-0.1c0.2,0.4,0.4,0.9,0.6,1.4h2.2v0.7H103v-0.7H105.4z M108.6,164.6L108,165
		c-0.4-0.7-1-1.5-1.7-2.4l0.6-0.3C107.6,163.1,108.2,163.9,108.6,164.6z M119.1,160.2v0.7h-7.2v7h7.5v0.7h-8.2v-8.3H119.1z
		 M115.9,164c0.6-0.7,1.1-1.6,1.5-2.5l0.6,0.3c-0.4,1-1,1.9-1.6,2.7c0.8,0.7,1.5,1.4,2.1,2.1l-0.6,0.6c-0.6-0.7-1.3-1.4-2-2.1
		c-0.9,0.9-1.9,1.7-3,2.2l-0.4-0.6c1.1-0.5,2.1-1.1,2.9-2c-0.8-0.7-1.7-1.4-2.6-2.1l0.5-0.5C114.2,162.6,115.1,163.3,115.9,164z
		 M122.5,159.7c0.4,0.6,0.8,1.3,1,2.1c0.3,0.9,0.4,1.7,0.4,2.6c0,0.9-0.1,1.7-0.4,2.6c-0.3,0.7-0.6,1.4-1,2.1h-0.7
		c0.4-0.7,0.7-1.4,0.9-2.1c0.3-0.9,0.4-1.7,0.4-2.6c0-0.9-0.1-1.7-0.4-2.6c-0.2-0.7-0.5-1.4-0.9-2.1H122.5z"/>
	<path class="st3" d="M95.5,117.5v-8.2c0-1.9-1.4-3.3-3.5-3.3c-2.1,0-3.5,1.4-3.5,3.3v8.2c0,1.9,1.4,3.5,3.5,3.5
		C94.1,121,95.5,119.4,95.5,117.5z M97.4,116v2c0,2.6-2.4,4.7-5.4,4.7c-3,0-5.4-2.1-5.4-4.7v-2H85v2c0,3.1,2.3,5.6,5.8,6v3h-2.3v1h7
		v-1h-2.3v-3c3.5-0.3,5.8-2.8,5.8-6v-2H97.4z"/>
	<path class="st3" d="M385,117.5v-8.2c0-1.9-1.2-3.3-3-3.3s-3,1.4-3,3.3v8.2c0,1.9,1.2,3.5,3,3.5S385,119.4,385,117.5z M386.7,116v2
		c0,2.6-2.1,4.7-4.7,4.7s-4.7-2.1-4.7-4.7v-2H376v2c0,3.1,2,5.6,5,6v3h-2v1h6v-1h-2v-3c3-0.3,5-2.8,5-6v-2H386.7z"/>
	<path class="st3" d="M673,117.5v-8.2c0-1.9-1.2-3.3-3-3.3s-3,1.4-3,3.3v8.2c0,1.9,1.2,3.5,3,3.5S673,119.4,673,117.5z M674.7,116v2
		c0,2.6-2.1,4.7-4.7,4.7c-2.6,0-4.7-2.1-4.7-4.7v-2H664v2c0,3.1,2,5.6,5,6v3h-2v1h6v-1h-2v-3c3-0.3,5-2.8,5-6v-2H674.7z"/>
	<path class="st3" d="M95.5,308.5v-8.2c0-1.9-1.4-3.3-3.5-3.3c-2.1,0-3.5,1.4-3.5,3.3v8.2c0,1.9,1.4,3.5,3.5,3.5
		C94.1,312,95.5,310.4,95.5,308.5z M97.4,307v2c0,2.6-2.4,4.7-5.4,4.7c-3,0-5.4-2.1-5.4-4.7v-2H85v2c0,3.1,2.3,5.6,5.8,6v3h-2.3v1h7
		v-1h-2.3v-3c3.5-0.3,5.8-2.8,5.8-6v-2H97.4z"/>
	<path class="st3" d="M385,308.5v-8.2c0-1.9-1.2-3.3-3-3.3s-3,1.4-3,3.3v8.2c0,1.9,1.2,3.5,3,3.5S385,310.4,385,308.5z M386.7,307v2
		c0,2.6-2.1,4.7-4.7,4.7s-4.7-2.1-4.7-4.7v-2H376v2c0,3.1,2,5.6,5,6v3h-2v1h6v-1h-2v-3c3-0.3,5-2.8,5-6v-2H386.7z"/>
	<path class="st3" d="M673,308.5v-8.2c0-1.9-1.2-3.3-3-3.3s-3,1.4-3,3.3v8.2c0,1.9,1.2,3.5,3,3.5S673,310.4,673,308.5z M674.7,307v2
		c0,2.6-2.1,4.7-4.7,4.7c-2.6,0-4.7-2.1-4.7-4.7v-2H664v2c0,3.1,2,5.6,5,6v3h-2v1h6v-1h-2v-3c3-0.3,5-2.8,5-6v-2H674.7z"/>
	<path class="st3" d="M95.5,495.5v-8.2c0-1.9-1.4-3.3-3.5-3.3c-2.1,0-3.5,1.4-3.5,3.3v8.2c0,1.9,1.4,3.5,3.5,3.5
		C94.1,499,95.5,497.4,95.5,495.5z M97.4,494v2c0,2.6-2.4,4.7-5.4,4.7c-3,0-5.4-2.1-5.4-4.7v-2H85v2c0,3.1,2.3,5.6,5.8,6v3h-2.3v1h7
		v-1h-2.3v-3c3.5-0.3,5.8-2.8,5.8-6v-2H97.4z"/>
	<path class="st3" d="M385,495.5v-8.2c0-1.9-1.2-3.3-3-3.3s-3,1.4-3,3.3v8.2c0,1.9,1.2,3.5,3,3.5S385,497.4,385,495.5z M386.7,494v2
		c0,2.6-2.1,4.7-4.7,4.7s-4.7-2.1-4.7-4.7v-2H376v2c0,3.1,2,5.6,5,6v3h-2v1h6v-1h-2v-3c3-0.3,5-2.8,5-6v-2H386.7z"/>
	<path class="st3" d="M673,495.5v-8.2c0-1.9-1.2-3.3-3-3.3s-3,1.4-3,3.3v8.2c0,1.9,1.2,3.5,3,3.5S673,497.4,673,495.5z M674.7,494v2
		c0,2.6-2.1,4.7-4.7,4.7c-2.6,0-4.7-2.1-4.7-4.7v-2H664v2c0,3.1,2,5.6,5,6v3h-2v1h6v-1h-2v-3c3-0.3,5-2.8,5-6v-2H674.7z"/>
	<path class="st1" d="M661.9,279.7v1.8h2.3v1.2h-2.3v2.2c0.9-0.2,1.8-0.4,2.6-0.7v1.3c-2.3,0.7-4.8,1.3-7.7,1.7l-0.2-1.3
		c0.4-0.1,0.8-0.1,1.2-0.2v-4.9h1.3v4.7c0.5-0.1,1-0.2,1.4-0.3v-5.5H661.9z M664.5,277.7c-0.1-1-0.1-2.1-0.1-3.2h1.3
		c0,1.2,0,2.3,0.1,3.2h3.5v1.3h-3.4c0.1,1.1,0.2,1.9,0.3,2.6c0.3,1.4,0.6,2.4,0.9,3.1c0.3,0.6,0.6,0.9,0.7,0.9
		c0.1,0,0.3-0.6,0.4-1.8l1.2,0.7c-0.3,1.9-0.8,2.8-1.4,2.8c-0.5,0-1.1-0.4-1.7-1.3c-0.6-0.8-1.1-2.1-1.4-3.9
		c-0.2-0.9-0.4-1.9-0.4-3.1h-7.7v-1.3H664.5z M663.3,275.4v1.2h-5.4v-1.2H663.3z M668.9,276.8l-1.1,0.6c-0.4-0.9-0.9-1.6-1.5-2.3
		l1.1-0.5C668,275.2,668.5,276,668.9,276.8z M675.6,280l-1,0.9c-0.6-0.6-1.4-1.4-2.5-2.1l1-0.9C674.1,278.6,675,279.3,675.6,280z
		 M676,282.4c-0.7,1.8-1.4,3.4-2.3,5l-1.3-0.6c0.9-1.6,1.7-3.2,2.4-4.9L676,282.4z M676,276.9l-1,1c-0.6-0.7-1.4-1.4-2.5-2.2
		l0.9-0.9C674.5,275.4,675.3,276.1,676,276.9z M680.7,284.3c-1.1,1.3-2.4,2.3-4,3.1l-0.9-1.1c1.6-0.8,3-1.9,4-3.1
		c-1.4-2-2.2-4.1-2.5-6.6h-1.1v-1.3h7.8v1.2c-0.5,2.6-1.4,4.9-2.7,6.7c1,1.1,2.1,2.1,3.6,3l-0.9,1.1
		C682.8,286.4,681.7,285.4,680.7,284.3z M682.9,276.7h-4.2c0.2,2,0.9,3.9,2,5.5C681.7,280.6,682.5,278.8,682.9,276.7z"/>
	<path class="st1" d="M648.3,254.1c0.6,0.9,0.9,2,0.9,3.6c0,1.6-0.3,2.9-1,4c-0.7,1-1.6,1.5-2.7,1.5c-1.9,0-3-0.9-3.3-2.7h1.5
		c0.2,1,0.8,1.5,1.8,1.5c0.7,0,1.2-0.4,1.7-1c0.4-0.6,0.6-1.5,0.6-2.4c0-0.1,0-0.1,0-0.2h-0.1c-0.3,0.4-0.6,0.8-1.1,1
		c-0.4,0.2-0.9,0.3-1.4,0.3c-1,0-1.8-0.3-2.4-1c-0.6-0.6-0.9-1.4-0.9-2.4c0-1,0.3-1.8,1-2.5c0.7-0.7,1.5-1,2.5-1
		C646.7,252.8,647.6,253.2,648.3,254.1z M644.1,254.7c-0.4,0.4-0.6,0.9-0.6,1.6s0.2,1.1,0.6,1.5c0.4,0.4,0.8,0.6,1.5,0.6
		c0.6,0,1.1-0.2,1.5-0.6s0.5-0.9,0.5-1.6c0-0.7-0.2-1.2-0.6-1.6c-0.4-0.4-0.9-0.6-1.5-0.6C644.9,254.1,644.4,254.3,644.1,254.7z
		 M654.1,264.5l-1-0.9c0.9-1.2,1.3-2.8,1.4-4.7V252h8.3v11c0,0.9-0.5,1.3-1.4,1.3h-1.8l-0.4-1.3c0.6,0,1.2,0.1,1.7,0.1
		c0.3,0,0.4-0.2,0.4-0.6v-2.5h-5.7C655.5,261.9,655,263.3,654.1,264.5z M661.4,253.3h-5.7v2.1h5.7V253.3z M655.7,258.8h5.7v-2.2
		h-5.7V258.8z M673.3,253.6c0.6,0.6,0.9,1.3,0.9,2.2c0,0.9-0.3,1.7-1,2.4c-0.4,0.4-1.1,0.9-2.1,1.6c-1.1,0.7-1.7,1.3-1.9,1.9h5v1.3
		h-6.9c0-1,0.3-1.9,1-2.6c0.4-0.4,1.1-1,2.3-1.8c0.7-0.5,1.1-0.9,1.4-1.1c0.4-0.5,0.7-1.1,0.7-1.6c0-0.6-0.2-1-0.5-1.3
		s-0.8-0.4-1.4-0.4c-0.6,0-1.1,0.2-1.4,0.6c-0.3,0.4-0.5,1-0.5,1.8h-1.5c0-1.1,0.3-2,1-2.7c0.6-0.7,1.5-1.1,2.6-1.1
		C671.9,252.8,672.7,253.1,673.3,253.6z M683.8,253v1.3H679l-0.3,2.9h0c0.3-0.3,0.7-0.5,1.1-0.7c0.4-0.2,0.8-0.2,1.2-0.2
		c0.9,0,1.7,0.3,2.3,0.9s0.9,1.5,0.9,2.5c0,1-0.4,1.9-1.1,2.5c-0.7,0.6-1.6,0.9-2.6,0.9c-0.9,0-1.7-0.3-2.3-0.7
		c-0.7-0.5-1.1-1.3-1.2-2.2h1.5c0.1,0.6,0.3,1,0.7,1.3c0.3,0.3,0.8,0.4,1.3,0.4c0.6,0,1.1-0.2,1.6-0.6c0.4-0.4,0.6-0.9,0.6-1.5
		c0-0.7-0.2-1.2-0.5-1.6s-0.9-0.6-1.5-0.6c-0.4,0-0.8,0.1-1.2,0.2c-0.4,0.2-0.6,0.4-0.8,0.8h-1.4l0.5-5.6H683.8z M697.8,264.4h-1.3
		v-1h-6.3v1h-1.3V252h9V264.4z M696.5,256.9v-3.6h-6.3v3.6H696.5z M696.5,262.1v-3.9h-6.3v3.9H696.5z"/>
	<path class="st1" d="M633.4,364.9v7.1h-0.8v-6.1c-0.4,0.5-1,0.8-1.7,1V366c0.3-0.1,0.7-0.2,1-0.4c0.3-0.2,0.6-0.5,0.9-0.7H633.4z
		 M640.2,365.3c0.4,0.3,0.6,0.8,0.6,1.3c0,0.4-0.1,0.7-0.3,1c-0.2,0.3-0.5,0.5-0.8,0.6v0c0.4,0.1,0.7,0.3,0.9,0.6
		c0.3,0.3,0.4,0.7,0.4,1.2c0,0.6-0.2,1.1-0.7,1.5c-0.5,0.4-1.1,0.6-1.9,0.6c-0.8,0-1.5-0.2-1.9-0.6c-0.4-0.4-0.7-0.9-0.7-1.5
		c0-0.5,0.1-0.9,0.4-1.2c0.3-0.3,0.6-0.5,0.9-0.6v0c-0.4-0.1-0.7-0.3-0.8-0.6c-0.2-0.3-0.3-0.6-0.3-1c0-0.5,0.2-1,0.6-1.3
		c0.4-0.4,1-0.6,1.7-0.6C639.2,364.7,639.8,364.9,640.2,365.3z M637.1,369c-0.3,0.3-0.4,0.6-0.4,1c0,0.4,0.1,0.8,0.4,1
		c0.3,0.3,0.7,0.4,1.3,0.4c0.6,0,1-0.1,1.3-0.4c0.3-0.3,0.4-0.6,0.4-1c0-0.4-0.1-0.8-0.4-1c-0.3-0.3-0.8-0.4-1.3-0.4
		C637.9,368.6,637.5,368.7,637.1,369z M637.3,365.8c-0.2,0.2-0.4,0.5-0.4,0.9c0,0.4,0.1,0.7,0.3,0.9c0.3,0.3,0.7,0.4,1.2,0.4
		c0.5,0,1-0.1,1.2-0.4c0.2-0.2,0.3-0.5,0.3-0.9c0-0.3-0.1-0.6-0.4-0.9c-0.3-0.3-0.7-0.4-1.2-0.4C638,365.4,637.6,365.5,637.3,365.8z
		 M645.4,366.1c0.1,0.1,0.2,0.2,0.2,0.4c0,0.2-0.1,0.3-0.2,0.4c-0.1,0.1-0.3,0.2-0.4,0.2s-0.3-0.1-0.4-0.2c-0.1-0.1-0.2-0.3-0.2-0.4
		s0-0.3,0.2-0.4c0.1-0.1,0.3-0.2,0.4-0.2S645.3,366,645.4,366.1z M645.4,369.8c0.1,0.1,0.2,0.2,0.2,0.4c0,0.2-0.1,0.3-0.2,0.4
		c-0.1,0.1-0.3,0.2-0.4,0.2s-0.3-0.1-0.4-0.2c-0.1-0.1-0.2-0.3-0.2-0.4s0-0.3,0.2-0.4c0.1-0.1,0.3-0.2,0.4-0.2
		S645.3,369.6,645.4,369.8z M658.2,365.2c0.4,0.3,0.6,0.8,0.6,1.4c0,0.8-0.4,1.3-1.2,1.6c0.4,0.1,0.7,0.3,1,0.6
		c0.2,0.3,0.4,0.6,0.4,1c0,0.6-0.2,1.2-0.7,1.6c-0.5,0.4-1.1,0.6-1.8,0.6c-0.7,0-1.2-0.2-1.7-0.5c-0.5-0.4-0.8-1-0.8-1.8h0.8
		c0,0.6,0.2,1,0.6,1.3c0.3,0.2,0.7,0.4,1.1,0.4c0.5,0,0.9-0.1,1.2-0.4c0.3-0.3,0.4-0.6,0.4-1c0-0.4-0.1-0.8-0.4-1s-0.7-0.3-1.2-0.3
		H656V368h0.5c0.5,0,0.8-0.1,1.1-0.3c0.2-0.2,0.4-0.5,0.4-0.9s-0.1-0.7-0.4-0.9c-0.3-0.2-0.6-0.3-1.1-0.3c-0.5,0-0.8,0.1-1.1,0.4
		c-0.3,0.3-0.4,0.6-0.5,1.1h-0.8c0.1-0.7,0.3-1.2,0.8-1.6c0.4-0.4,1-0.6,1.6-0.6S657.8,364.9,658.2,365.2z M665.4,365.9
		c0.4,0.6,0.6,1.5,0.6,2.6s-0.2,1.9-0.6,2.6c-0.4,0.7-1.1,1.1-1.9,1.1c-0.9,0-1.5-0.4-1.9-1.1c-0.4-0.6-0.6-1.5-0.6-2.6
		s0.2-1.9,0.6-2.6c0.4-0.8,1.1-1.1,1.9-1.1C664.3,364.7,665,365.1,665.4,365.9z M662.1,366.5c-0.2,0.5-0.3,1.1-0.3,2
		c0,0.8,0.1,1.5,0.3,2c0.3,0.7,0.7,1,1.4,1s1.1-0.3,1.4-1c0.2-0.5,0.3-1.1,0.3-2c0-0.8-0.1-1.5-0.3-2c-0.3-0.7-0.7-1-1.4-1
		S662.4,365.8,662.1,366.5z M673,369.1v0.7h-5v-0.7H673z M679.3,365.3c0.4,0.4,0.6,0.9,0.6,1.5s-0.2,1.2-0.7,1.7
		c-0.2,0.3-0.7,0.6-1.5,1.1c-0.9,0.6-1.4,1.2-1.6,1.6h3.7v0.7h-4.8c0-0.6,0.2-1.2,0.7-1.8c0.3-0.3,0.8-0.7,1.5-1.3
		c0.6-0.4,0.9-0.7,1.1-0.9c0.4-0.4,0.5-0.8,0.5-1.3c0-0.4-0.1-0.8-0.4-1c-0.3-0.2-0.6-0.4-1.1-0.4c-0.5,0-0.9,0.2-1.1,0.5
		c-0.3,0.3-0.4,0.8-0.4,1.4h-0.8c0-0.8,0.2-1.4,0.7-1.9c0.4-0.5,1-0.7,1.7-0.7C678.3,364.7,678.8,364.9,679.3,365.3z M684.5,364.9
		v7.1h-0.8v-6.1c-0.4,0.5-1,0.8-1.7,1V366c0.3-0.1,0.7-0.2,1-0.4c0.3-0.2,0.6-0.5,0.9-0.7H684.5z M689.5,366.1
		c0.1,0.1,0.2,0.2,0.2,0.4c0,0.2-0.1,0.3-0.2,0.4c-0.1,0.1-0.3,0.2-0.4,0.2c-0.2,0-0.3-0.1-0.4-0.2c-0.1-0.1-0.2-0.3-0.2-0.4
		s0-0.3,0.2-0.4c0.1-0.1,0.3-0.2,0.4-0.2C689.2,365.9,689.4,366,689.5,366.1z M689.5,369.8c0.1,0.1,0.2,0.2,0.2,0.4
		c0,0.2-0.1,0.3-0.2,0.4c-0.1,0.1-0.3,0.2-0.4,0.2c-0.2,0-0.3-0.1-0.4-0.2c-0.1-0.1-0.2-0.3-0.2-0.4s0-0.3,0.2-0.4
		c0.1-0.1,0.3-0.2,0.4-0.2C689.2,369.6,689.4,369.6,689.5,369.8z M702.3,365.2c0.4,0.3,0.6,0.8,0.6,1.4c0,0.8-0.4,1.3-1.2,1.6
		c0.4,0.1,0.7,0.3,1,0.6c0.2,0.3,0.4,0.6,0.4,1c0,0.6-0.2,1.2-0.7,1.6c-0.5,0.4-1.1,0.6-1.8,0.6c-0.7,0-1.2-0.2-1.7-0.5
		c-0.5-0.4-0.8-1-0.8-1.8h0.8c0,0.6,0.2,1,0.6,1.3c0.3,0.2,0.7,0.4,1.1,0.4c0.5,0,0.9-0.1,1.2-0.4c0.3-0.3,0.4-0.6,0.4-1
		c0-0.4-0.1-0.8-0.4-1s-0.7-0.3-1.2-0.3h-0.6V368h0.5c0.5,0,0.8-0.1,1.1-0.3c0.2-0.2,0.4-0.5,0.4-0.9s-0.1-0.7-0.4-0.9
		c-0.3-0.2-0.6-0.3-1.1-0.3c-0.5,0-0.8,0.1-1.1,0.4c-0.3,0.3-0.4,0.6-0.5,1.1h-0.8c0.1-0.7,0.3-1.2,0.8-1.6c0.4-0.4,1-0.6,1.6-0.6
		S701.8,364.9,702.3,365.2z M709.5,365.9c0.4,0.6,0.6,1.5,0.6,2.6s-0.2,1.9-0.6,2.6c-0.4,0.7-1.1,1.1-1.9,1.1
		c-0.9,0-1.5-0.4-1.9-1.1c-0.4-0.6-0.6-1.5-0.6-2.6s0.2-1.9,0.6-2.6c0.4-0.8,1.1-1.1,1.9-1.1C708.4,364.7,709,365.1,709.5,365.9z
		 M706.2,366.5c-0.2,0.5-0.3,1.1-0.3,2c0,0.8,0.1,1.5,0.3,2c0.3,0.7,0.7,1,1.4,1s1.1-0.3,1.4-1c0.2-0.5,0.3-1.1,0.3-2
		c0-0.8-0.1-1.5-0.3-2c-0.3-0.7-0.7-1-1.4-1S706.4,365.8,706.2,366.5z"/>
	<path class="st2" d="M619.5,334.7l-0.5-1.6c2-1.2,3.4-2.7,4.4-4.3l1.3,0.6c-0.5,0.9-1.1,1.8-1.9,2.6v5.3h-1.5v-3.9
		C620.7,333.8,620.1,334.3,619.5,334.7z M625.4,338.3v-1.4h1.5v1.4h6.2v1.5H627v3.9h-1.5v-3.9h-6.2v-1.5H625.4z M628.1,336.8
		c-1.1,0-1.6-0.5-1.6-1.6v-0.9c-0.7,0.3-1.4,0.5-2.1,0.8l-0.9-1.3c1.1-0.4,2-0.7,2.9-1.1v-3.6h1.5v2.9c1.5-0.8,2.7-1.6,3.7-2.5
		l1,1.1c-1.4,1.2-2.9,2.2-4.8,3v1.3c0,0.3,0.2,0.5,0.6,0.5h2.2c0.4,0,0.6-0.1,0.8-0.3c0.2-0.2,0.4-0.8,0.4-1.8l1.4,0.5
		c-0.2,1.4-0.4,2.3-0.8,2.5c-0.4,0.3-0.9,0.4-1.6,0.4H628.1z M644.6,328.8v2.8h5.7v7.7h-1.5v-0.9h-4.2v5.4H643v-5.4h-4.2v0.9h-1.5
		v-7.7h5.7v-2.8H644.6z M643,336.9v-3.8h-4.2v3.8H643z M648.8,336.9v-3.8h-4.2v3.8H648.8z M656.9,333.1v-2c-0.7,0.1-1.5,0.2-2.2,0.3
		l-0.3-1.4c2.1-0.2,3.9-0.5,5.5-1l0.5,1.4c-0.7,0.2-1.3,0.3-2,0.5v2.2h2v1.5h-2v0.6c0.8,0.6,1.7,1.4,2.6,2.2l-0.8,1.3
		c-0.7-0.8-1.3-1.5-1.7-2v7h-1.5v-6.9c-0.6,1.4-1.4,2.7-2.3,3.9l-0.7-1.7c1.3-1.3,2.2-2.7,2.8-4.3h-2.3v-1.5H656.9z M668.8,338.9
		l-1.5,0.2v4.5h-1.5v-4.2l-4.8,0.8l-0.2-1.5l5-0.8v-8.9h1.5v8.7l1.3-0.2L668.8,338.9z M664.9,335.9l-1.1,1.1
		c-0.7-0.8-1.6-1.6-2.8-2.5l1.1-1C663.2,334.2,664.1,335.1,664.9,335.9z M665.3,332.1l-1,1.1c-0.7-0.7-1.6-1.5-2.8-2.3l1.1-1
		C663.6,330.5,664.6,331.3,665.3,332.1z M672.2,343.5l-0.3-1.4c0.4,0.1,0.8,0.1,1.2,0.1c0.4,0,0.6-0.2,0.6-0.7v-3.4
		c-0.6,0.2-1.2,0.4-1.7,0.6l-0.4-1.5c0.7-0.2,1.4-0.4,2.1-0.6v-3.5h-1.8v-1.5h1.8v-2.8h1.5v2.8h1.6v1.5h-1.6v2.8
		c0.5-0.3,1.1-0.5,1.6-0.8v1.5c-0.5,0.3-1.1,0.5-1.6,0.8v4.4c0,1.1-0.5,1.6-1.5,1.6H672.2z M680.9,331.1v-2.1h1.5v2.1h3.7v1.5h-3.7
		v2.3h3.1v1.3c-0.5,1.7-1.4,3.1-2.6,4.3c1,0.7,2.2,1.4,3.6,2l-0.8,1.2c-1.5-0.7-2.8-1.4-3.9-2.3c-1.2,0.9-2.7,1.7-4.4,2.3l-0.7-1.3
		c1.6-0.5,3-1.2,4.1-2c-1.2-1.2-2.1-2.6-2.5-4.2h-0.8v-1.4h3.4v-2.3h-3.7v-1.5H680.9z M681.8,339.6c1-1,1.7-2.1,2.2-3.3h-4.3
		C680.1,337.5,680.8,338.6,681.8,339.6z M695.7,333c0.1-0.8,0.2-1.7,0.2-2.7v-1.4h1.5v1c0,1.1-0.1,2.1-0.2,3h6.5v1.5h-6.1
		c1.1,3.4,3.3,6.1,6.5,7.9l-0.9,1.2c-3.1-1.9-5.2-4.5-6.5-7.9c-1.1,3.7-3.2,6.4-6.5,8.1l-1-1.3c3.3-1.6,5.4-4.3,6.2-8h-5.9V333
		H695.7z M721.1,335.9h-1.5v-2.4h-10.8v2.4h-1.5V332h2.9c-0.5-0.9-1-1.6-1.6-2.3l1.4-0.7c0.5,0.7,1.1,1.6,1.6,2.5l-1,0.5h6
		c0.7-1,1.2-2.1,1.7-3.2l1.6,0.6c-0.5,1-1.1,1.9-1.6,2.6h2.9V335.9z M718.5,334.5v1.3c-1,0.7-2.1,1.3-3.4,1.9v0.6h6v1.4h-6v2.4
		c0,0.9-0.5,1.4-1.5,1.4h-2l-0.4-1.4c0.6,0,1.2,0,1.9,0c0.3,0,0.5-0.2,0.5-0.6v-1.9h-6.3v-1.4h6.3v-1.2c1.1-0.5,2-0.9,2.7-1.2h-6.5
		v-1.3H718.5z M715.3,331.3l-1.4,0.7c-0.5-1-1-1.8-1.5-2.6l1.4-0.7C714.3,329.5,714.8,330.4,715.3,331.3z"/>
	<path class="st2" d="M637.6,351.7v-1.8h0.7v1.8h3.9v0.7H639c0.7,1.6,1.9,3,3.6,4.3l-0.5,0.6c-1.8-1.4-3-3.1-3.7-4.9h-0.1v3.9h2.1
		v0.7h-2.1v2h-0.7v-2h-2.1v-0.7h2.1v-3.9h-0.1c-0.7,2-2,3.7-3.8,5l-0.4-0.7c1.7-1.1,2.9-2.6,3.6-4.3h-3.3v-0.7H637.6z M646.5,353.6
		h1c0.3-0.5,0.5-1.1,0.7-1.8l0.7,0.2c-0.2,0.6-0.4,1.1-0.7,1.5h1.2v0.7h-5v-0.7h1.3c-0.2-0.5-0.4-1-0.6-1.4l0.7-0.2
		C646.1,352.3,646.3,352.9,646.5,353.6z M646.7,350.8c-0.1-0.3-0.2-0.6-0.4-0.9l0.7-0.1c0.1,0.3,0.2,0.6,0.3,1h2v0.7h-4.7v-0.7
		H646.7z M649.1,358.9h-0.7v-0.6h-2.6v0.6h-0.7v-3.8h4V358.9z M648.3,357.7v-1.8h-2.6v1.8H648.3z M653.3,350.3v0.5
		c-0.3,1-0.6,2-1,2.9c0.7,0.9,1.1,1.7,1.1,2.3c0,0.6-0.1,1-0.4,1.3c-0.3,0.2-0.8,0.4-1.6,0.4l-0.2-0.8c0.3,0,0.5,0,0.7,0
		c0.4,0,0.6-0.1,0.7-0.2c0.1-0.1,0.1-0.4,0.2-0.7c0-0.6-0.4-1.4-1.2-2.3c0.3-0.8,0.7-1.7,1-2.8h-1.8v8.1H650v-8.7H653.3z
		 M664.2,349.7c-0.4,0.7-0.7,1.3-0.9,2.1c-0.3,0.9-0.4,1.7-0.4,2.6c0,0.8,0.1,1.7,0.4,2.6c0.2,0.7,0.5,1.4,0.9,2.1h-0.7
		c-0.4-0.6-0.8-1.3-1-2.1c-0.3-0.9-0.4-1.7-0.4-2.6c0-0.9,0.1-1.8,0.4-2.6c0.2-0.7,0.6-1.4,1-2.1H664.2z M670.1,349.9v9.1h-0.7v-1.7
		c-0.8,0.4-1.7,0.7-2.6,0.9l-0.2-0.7c1-0.2,1.9-0.5,2.8-1v-3.2h-2.6v-0.7h2.6v-2.8H670.1z M672.7,358.8c-0.6,0-0.9-0.3-0.9-1v-8h0.7
		v3.3c0.9-0.3,1.7-0.8,2.5-1.3l0.4,0.6c-1,0.6-2,1.1-2.9,1.4v3.8c0,0.3,0.1,0.4,0.4,0.4h1.2c0.2,0,0.4-0.1,0.5-0.2
		c0.1-0.2,0.1-0.8,0.2-1.8l0.7,0.2c-0.1,1.2-0.2,1.9-0.3,2.1c-0.2,0.2-0.5,0.4-0.9,0.4H672.7z M679,351.8v-1.9h0.7v1.9h1v0.7h-1v0.8
		c0.3,0.4,0.7,0.8,1,1.3c0.6-0.7,1.1-1.5,1.5-2.4l0.6,0.3c-0.5,1-1,1.8-1.6,2.5l-0.4-0.3l0.2,0.3l-0.4,0.6c-0.4-0.7-0.7-1.3-1-1.7v5
		H679v-5.1c-0.3,1-0.8,1.9-1.3,2.7l-0.3-0.8c0.7-1,1.3-2,1.6-3.3h-1.3v-0.7H679z M685.2,354.2c-0.2,1.1-0.5,2-1.1,2.7
		c0.6,0.6,1.5,1,2.5,1.4l-0.4,0.6c-1-0.4-1.9-0.9-2.5-1.5c-0.7,0.7-1.6,1.3-2.7,1.6l-0.4-0.6c1.1-0.3,1.9-0.8,2.6-1.4
		c-0.6-0.7-1-1.6-1.2-2.6l0.6-0.2c0.1,0.8,0.5,1.6,1,2.3c0.4-0.6,0.7-1.4,0.9-2.3L685.2,354.2z M683.4,351.1
		c-0.2-0.5-0.4-0.9-0.6-1.3l0.7-0.1c0.2,0.4,0.4,0.9,0.6,1.4h2.2v0.7H681v-0.7H683.4z M686.6,354.6L686,355c-0.4-0.7-1-1.5-1.7-2.4
		l0.6-0.3C685.6,353.1,686.2,353.9,686.6,354.6z M697.1,350.2v0.7h-7.2v7h7.5v0.7h-8.2v-8.3H697.1z M693.9,354
		c0.6-0.7,1.1-1.6,1.5-2.5l0.6,0.3c-0.4,1-1,1.9-1.6,2.7c0.8,0.7,1.5,1.4,2.1,2.1l-0.6,0.6c-0.6-0.7-1.3-1.4-2-2.1
		c-0.9,0.9-1.9,1.7-3,2.2l-0.4-0.6c1.1-0.5,2.1-1.1,2.9-2c-0.8-0.7-1.7-1.4-2.6-2.1l0.5-0.5C692.2,352.6,693.1,353.3,693.9,354z
		 M700.5,349.7c0.4,0.6,0.8,1.3,1,2.1c0.3,0.9,0.4,1.7,0.4,2.6c0,0.9-0.1,1.7-0.4,2.6c-0.3,0.7-0.6,1.4-1,2.1h-0.7
		c0.4-0.7,0.7-1.4,0.9-2.1c0.3-0.9,0.4-1.7,0.4-2.6c0-0.9-0.1-1.7-0.4-2.6c-0.2-0.7-0.5-1.4-0.9-2.1H700.5z"/>
	<path class="st1" d="M84.4,467.1v-0.7h-4.1v-3h4.1v-0.8h1.3v0.8h4.1v3h-4.1v0.7h5.6v1.1H78.8v-1.1H84.4z M85.9,470.7
		c-0.2,1.7-0.6,2.8-1.3,3.4c-0.7,0.7-2.4,1.2-5.2,1.4l-0.5-1.2c2.3-0.1,3.8-0.4,4.6-1c0.7-0.5,1-1.4,1.1-2.7L85.9,470.7z M89.7,473
		h-1.3v-3h-6.5v3.2h-1.3v-4.3h9.1V473z M84.4,464.4h-2.8v0.9h2.8V464.4z M91.3,474.5l-0.7,1.1c-1.7-0.7-3.3-1.3-5.1-1.8l0.7-1
		C88.1,473.3,89.8,473.8,91.3,474.5z M88.6,464.4h-2.8v0.9h2.8V464.4z M99.4,463v1c-0.4,1.2-1,2.5-1.6,3.8c0.9,1.3,1.4,2.4,1.5,3.3
		c0,0.6-0.2,1.1-0.4,1.4c-0.4,0.4-1.2,0.5-2.3,0.6l-0.4-1.3c0.3,0,0.5,0.1,0.7,0.1c0.4,0,0.7-0.1,0.9-0.2c0.1-0.1,0.2-0.3,0.2-0.5
		c0-0.9-0.5-2-1.5-3.2c0.7-1.4,1.2-2.7,1.6-3.8h-2.2v11.3h-1.3V463H99.4z M106.4,475.4h-1.3v-1.1h-3.9v1H100v-12.2h6.5V475.4z
		 M105.2,468.1v-3.7h-3.9v3.7H105.2z M105.2,473.1v-3.7h-3.9v3.7H105.2z"/>
	<path class="st1" d="M65.1,441v10h-1.5v-8.2c-0.6,0.6-1.4,1-2.3,1.3v-1.5c0.4-0.1,0.9-0.3,1.4-0.6c0.5-0.3,0.9-0.6,1.3-1H65.1z
		 M74.7,442.3c0.6,0.9,0.9,2.2,0.9,3.7c0,1.5-0.3,2.8-0.9,3.7c-0.6,1-1.6,1.5-2.7,1.5s-2.1-0.5-2.7-1.5c-0.6-0.9-0.9-2.2-0.9-3.7
		c0-1.6,0.3-2.8,0.9-3.7c0.6-1,1.6-1.5,2.7-1.5S74.1,441.3,74.7,442.3z M70.3,443.4c-0.3,0.6-0.4,1.5-0.4,2.5c0,1.1,0.1,1.9,0.4,2.5
		c0.3,0.9,0.9,1.4,1.7,1.4c0.8,0,1.4-0.5,1.7-1.4c0.2-0.6,0.4-1.5,0.4-2.5c0-1.1-0.1-1.9-0.4-2.5c-0.3-0.9-0.9-1.4-1.7-1.4
		C71.2,442.1,70.6,442.5,70.3,443.4z M80.5,452.5l-1-0.9c0.9-1.2,1.3-2.8,1.4-4.7V440h8.3v11c0,0.9-0.5,1.3-1.4,1.3H86l-0.4-1.3
		c0.6,0,1.2,0.1,1.7,0.1c0.3,0,0.4-0.2,0.4-0.6v-2.5h-5.7C81.9,449.9,81.4,451.3,80.5,452.5z M87.8,441.3h-5.7v2.1h5.7V441.3z
		 M82.1,446.8h5.7v-2.2h-5.7V446.8z M97.4,441v10h-1.5v-8.2c-0.6,0.6-1.4,1-2.3,1.3v-1.5c0.4-0.1,0.9-0.3,1.4-0.6
		c0.5-0.3,0.9-0.6,1.3-1H97.4z M106.8,441.6c0.6,0.6,0.9,1.3,0.9,2.2c0,0.9-0.3,1.7-1,2.4c-0.4,0.4-1.1,0.9-2.1,1.6
		c-1.1,0.7-1.7,1.3-1.9,1.9h5v1.3h-6.9c0-1,0.3-1.9,1-2.6c0.4-0.4,1.1-1,2.3-1.8c0.7-0.5,1.1-0.9,1.4-1.1c0.4-0.5,0.7-1.1,0.7-1.6
		c0-0.6-0.2-1-0.5-1.3s-0.8-0.4-1.4-0.4c-0.6,0-1.1,0.2-1.4,0.6c-0.3,0.4-0.5,1-0.5,1.8h-1.5c0-1.1,0.3-2,1-2.7
		c0.6-0.7,1.5-1.1,2.6-1.1C105.4,440.8,106.2,441.1,106.8,441.6z M121.5,452.4h-1.3v-1h-6.3v1h-1.3V440h9V452.4z M120.2,444.9v-3.6
		h-6.3v3.6H120.2z M120.2,450.1v-3.9h-6.3v3.9H120.2z"/>
	<path class="st1" d="M55.4,552.9v7.1h-0.8v-6.1c-0.4,0.5-1,0.8-1.7,1V554c0.3-0.1,0.7-0.2,1-0.4c0.3-0.2,0.6-0.5,0.9-0.7H55.4z
		 M62.2,553.3c0.4,0.3,0.6,0.8,0.6,1.3c0,0.4-0.1,0.7-0.3,1c-0.2,0.3-0.5,0.5-0.8,0.6v0c0.4,0.1,0.7,0.3,0.9,0.6
		c0.3,0.3,0.4,0.7,0.4,1.2c0,0.6-0.2,1.1-0.7,1.5c-0.5,0.4-1.1,0.6-1.9,0.6c-0.8,0-1.5-0.2-1.9-0.6c-0.4-0.4-0.7-0.9-0.7-1.5
		c0-0.5,0.1-0.9,0.4-1.2c0.3-0.3,0.6-0.5,0.9-0.6v0c-0.4-0.1-0.7-0.3-0.8-0.6c-0.2-0.3-0.3-0.6-0.3-1c0-0.5,0.2-1,0.6-1.3
		c0.4-0.4,1-0.6,1.7-0.6C61.2,552.7,61.8,552.9,62.2,553.3z M59.1,557c-0.3,0.3-0.4,0.6-0.4,1c0,0.4,0.1,0.8,0.4,1
		c0.3,0.3,0.7,0.4,1.3,0.4s1-0.1,1.3-0.4c0.3-0.3,0.4-0.6,0.4-1c0-0.4-0.1-0.8-0.4-1c-0.3-0.3-0.8-0.4-1.3-0.4
		C59.9,556.6,59.5,556.7,59.1,557z M59.3,553.8c-0.2,0.2-0.4,0.5-0.4,0.9c0,0.4,0.1,0.7,0.3,0.9c0.3,0.3,0.7,0.4,1.2,0.4
		c0.5,0,1-0.1,1.2-0.4c0.2-0.2,0.3-0.5,0.3-0.9c0-0.3-0.1-0.6-0.4-0.9c-0.3-0.3-0.7-0.4-1.2-0.4C60,553.4,59.6,553.5,59.3,553.8z
		 M67.4,554.1c0.1,0.1,0.2,0.2,0.2,0.4c0,0.2-0.1,0.3-0.2,0.4c-0.1,0.1-0.3,0.2-0.4,0.2s-0.3-0.1-0.4-0.2c-0.1-0.1-0.2-0.3-0.2-0.4
		s0-0.3,0.2-0.4c0.1-0.1,0.3-0.2,0.4-0.2S67.3,554,67.4,554.1z M67.4,557.8c0.1,0.1,0.2,0.2,0.2,0.4c0,0.2-0.1,0.3-0.2,0.4
		c-0.1,0.1-0.3,0.2-0.4,0.2s-0.3-0.1-0.4-0.2c-0.1-0.1-0.2-0.3-0.2-0.4c0-0.2,0-0.3,0.2-0.4c0.1-0.1,0.3-0.2,0.4-0.2
		S67.3,557.6,67.4,557.8z M80.2,553.2c0.4,0.3,0.6,0.8,0.6,1.4c0,0.8-0.4,1.3-1.2,1.6c0.4,0.1,0.7,0.3,1,0.6c0.2,0.3,0.4,0.6,0.4,1
		c0,0.6-0.2,1.2-0.7,1.6c-0.5,0.4-1.1,0.6-1.8,0.6c-0.7,0-1.2-0.2-1.7-0.5c-0.5-0.4-0.8-1-0.8-1.8h0.8c0,0.6,0.2,1,0.6,1.3
		c0.3,0.2,0.7,0.4,1.1,0.4c0.5,0,0.9-0.1,1.2-0.4c0.3-0.3,0.4-0.6,0.4-1c0-0.4-0.1-0.8-0.4-1s-0.7-0.3-1.2-0.3H78V556h0.5
		c0.5,0,0.8-0.1,1.1-0.3c0.2-0.2,0.4-0.5,0.4-0.9s-0.1-0.7-0.4-0.9c-0.3-0.2-0.6-0.3-1.1-0.3c-0.5,0-0.8,0.1-1.1,0.4
		c-0.3,0.3-0.4,0.6-0.5,1.1h-0.8c0.1-0.7,0.3-1.2,0.8-1.6c0.4-0.4,1-0.6,1.6-0.6S79.8,552.9,80.2,553.2z M87.4,553.9
		c0.4,0.6,0.6,1.5,0.6,2.6s-0.2,1.9-0.6,2.6c-0.4,0.7-1.1,1.1-1.9,1.1c-0.9,0-1.5-0.4-1.9-1.1c-0.4-0.6-0.6-1.5-0.6-2.6
		s0.2-1.9,0.6-2.6c0.4-0.8,1.1-1.1,1.9-1.1C86.3,552.7,87,553.1,87.4,553.9z M84.1,554.5c-0.2,0.5-0.3,1.1-0.3,2
		c0,0.8,0.1,1.5,0.3,2c0.3,0.7,0.7,1,1.4,1s1.1-0.3,1.4-1c0.2-0.5,0.3-1.1,0.3-2c0-0.8-0.1-1.5-0.3-2c-0.3-0.7-0.7-1-1.4-1
		S84.4,553.8,84.1,554.5z M95,557.1v0.7h-5v-0.7H95z M101.3,553.3c0.4,0.4,0.6,0.9,0.6,1.5s-0.2,1.2-0.7,1.7
		c-0.2,0.3-0.7,0.6-1.5,1.1c-0.9,0.6-1.4,1.2-1.6,1.6h3.7v0.7h-4.8c0-0.6,0.2-1.2,0.7-1.8c0.3-0.3,0.8-0.7,1.5-1.3
		c0.6-0.4,0.9-0.7,1.1-0.9c0.4-0.4,0.5-0.8,0.5-1.3c0-0.4-0.1-0.8-0.4-1s-0.6-0.4-1.1-0.4c-0.5,0-0.9,0.2-1.1,0.5
		c-0.3,0.3-0.4,0.8-0.4,1.4h-0.8c0-0.8,0.2-1.4,0.7-1.9c0.4-0.5,1-0.7,1.7-0.7C100.3,552.7,100.8,552.9,101.3,553.3z M106.5,552.9
		v7.1h-0.8v-6.1c-0.4,0.5-1,0.8-1.7,1V554c0.3-0.1,0.7-0.2,1-0.4c0.3-0.2,0.6-0.5,0.9-0.7H106.5z M111.5,554.1
		c0.1,0.1,0.2,0.2,0.2,0.4c0,0.2-0.1,0.3-0.2,0.4c-0.1,0.1-0.3,0.2-0.4,0.2s-0.3-0.1-0.4-0.2c-0.1-0.1-0.2-0.3-0.2-0.4
		s0-0.3,0.2-0.4c0.1-0.1,0.3-0.2,0.4-0.2S111.4,554,111.5,554.1z M111.5,557.8c0.1,0.1,0.2,0.2,0.2,0.4c0,0.2-0.1,0.3-0.2,0.4
		c-0.1,0.1-0.3,0.2-0.4,0.2s-0.3-0.1-0.4-0.2c-0.1-0.1-0.2-0.3-0.2-0.4c0-0.2,0-0.3,0.2-0.4c0.1-0.1,0.3-0.2,0.4-0.2
		S111.4,557.6,111.5,557.8z M124.3,553.2c0.4,0.3,0.6,0.8,0.6,1.4c0,0.8-0.4,1.3-1.2,1.6c0.4,0.1,0.7,0.3,1,0.6
		c0.2,0.3,0.4,0.6,0.4,1c0,0.6-0.2,1.2-0.7,1.6c-0.5,0.4-1.1,0.6-1.8,0.6c-0.7,0-1.2-0.2-1.7-0.5c-0.5-0.4-0.8-1-0.8-1.8h0.8
		c0,0.6,0.2,1,0.6,1.3c0.3,0.2,0.7,0.4,1.1,0.4c0.5,0,0.9-0.1,1.2-0.4c0.3-0.3,0.4-0.6,0.4-1c0-0.4-0.1-0.8-0.4-1s-0.7-0.3-1.2-0.3
		h-0.6V556h0.5c0.5,0,0.8-0.1,1.1-0.3c0.2-0.2,0.4-0.5,0.4-0.9s-0.1-0.7-0.4-0.9c-0.3-0.2-0.6-0.3-1.1-0.3c-0.5,0-0.8,0.1-1.1,0.4
		c-0.3,0.3-0.4,0.6-0.5,1.1h-0.8c0.1-0.7,0.3-1.2,0.8-1.6c0.4-0.4,1-0.6,1.6-0.6S123.8,552.9,124.3,553.2z M131.5,553.9
		c0.4,0.6,0.6,1.5,0.6,2.6s-0.2,1.9-0.6,2.6c-0.4,0.7-1.1,1.1-1.9,1.1c-0.9,0-1.5-0.4-1.9-1.1c-0.4-0.6-0.6-1.5-0.6-2.6
		s0.2-1.9,0.6-2.6c0.4-0.8,1.1-1.1,1.9-1.1C130.4,552.7,131,553.1,131.5,553.9z M128.2,554.5c-0.2,0.5-0.3,1.1-0.3,2
		c0,0.8,0.1,1.5,0.3,2c0.3,0.7,0.7,1,1.4,1s1.1-0.3,1.4-1c0.2-0.5,0.3-1.1,0.3-2c0-0.8-0.1-1.5-0.3-2c-0.3-0.7-0.7-1-1.4-1
		S128.4,553.8,128.2,554.5z"/>
	<path class="st2" d="M65.1,522.1v-0.8h-4.6v-3.4h4.6v-1h1.5v1h4.7v3.4h-4.7v0.8H73v1.3H58.6v-1.3H65.1z M66.7,526.2
		c-0.2,2-0.7,3.2-1.5,3.9c-0.8,0.8-2.8,1.3-5.9,1.6l-0.6-1.4c2.6-0.1,4.4-0.5,5.2-1.1c0.8-0.6,1.2-1.6,1.3-3.1L66.7,526.2z
		 M71.1,528.8h-1.5v-3.4h-7.4v3.6h-1.5v-4.9h10.4V528.8z M65.1,519.1h-3.2v1.1h3.2V519.1z M72.9,530.5l-0.8,1.3
		c-1.9-0.8-3.8-1.5-5.8-2l0.8-1.1C69.2,529.2,71.1,529.8,72.9,530.5z M69.8,519.1h-3.2v1.1h3.2V519.1z M78.8,521.1
		c-0.2,1.6-0.6,3.2-1.1,4.7l-1.4-0.5c0.6-1.4,1-3,1.2-4.6L78.8,521.1z M83.7,525l-1.2,0.6c-0.4-1.4-1-2.6-1.5-3.7v0.1
		c0,4.4-1,7.6-3,9.7l-1.1-1c1.8-1.8,2.6-4.7,2.7-8.7v-4.9H81v4.5l1-0.5C82.7,522.3,83.2,523.6,83.7,525z M85.5,517.5v3.9l1-0.4
		c0.6,1.2,1.2,2.5,1.7,3.9l-1.2,0.6c-0.4-1.3-0.9-2.5-1.4-3.6v9.2H84v-13.7H85.5z M89.9,517v14.7h-1.5V517H89.9z M100.1,521
		c0.1-0.8,0.2-1.7,0.2-2.7v-1.4h1.5v1c0,1.1-0.1,2.1-0.2,3h6.5v1.5H102c1.1,3.4,3.3,6.1,6.5,7.9l-0.9,1.2c-3.1-1.9-5.2-4.5-6.5-7.9
		c-1.1,3.7-3.2,6.4-6.5,8.1l-1-1.3c3.3-1.6,5.4-4.3,6.2-8h-5.9V521H100.1z M125.5,523.9H124v-2.4h-10.8v2.4h-1.5V520h2.9
		c-0.5-0.9-1-1.6-1.6-2.3l1.4-0.7c0.5,0.7,1.1,1.6,1.6,2.5l-1,0.5h6c0.7-1,1.2-2.1,1.7-3.2l1.6,0.6c-0.5,1-1.1,1.9-1.6,2.6h2.9
		V523.9z M122.9,522.5v1.3c-1,0.7-2.1,1.3-3.4,1.9v0.6h6v1.4h-6v2.4c0,0.9-0.5,1.4-1.5,1.4h-2l-0.4-1.4c0.6,0,1.2,0,1.9,0
		c0.3,0,0.5-0.2,0.5-0.6v-1.9h-6.3v-1.4h6.3v-1.2c1.1-0.5,2-0.9,2.7-1.2h-6.5v-1.3H122.9z M119.7,519.3l-1.4,0.7
		c-0.5-1-1-1.8-1.5-2.6l1.4-0.7C118.7,517.5,119.2,518.4,119.7,519.3z"/>
	<path class="st2" d="M81.1,537.9v9.1h-0.7v-1.7c-0.8,0.4-1.7,0.7-2.6,0.9l-0.2-0.7c1-0.2,1.9-0.5,2.8-1v-3.2h-2.6v-0.7h2.6v-2.8
		H81.1z M83.7,546.8c-0.6,0-0.9-0.3-0.9-1v-8h0.7v3.3c0.9-0.3,1.7-0.8,2.5-1.3l0.4,0.6c-1,0.6-2,1.1-2.9,1.4v3.8
		c0,0.3,0.1,0.4,0.4,0.4h1.2c0.2,0,0.4-0.1,0.5-0.2c0.1-0.2,0.1-0.8,0.2-1.8l0.7,0.2c-0.1,1.2-0.2,1.9-0.3,2.1
		c-0.2,0.2-0.5,0.4-0.9,0.4H83.7z M90,539.8v-1.9h0.7v1.9h1v0.7h-1v0.8c0.3,0.4,0.7,0.8,1,1.3c0.6-0.7,1.1-1.5,1.5-2.4l0.6,0.3
		c-0.5,1-1,1.8-1.6,2.5l-0.4-0.3l0.2,0.3l-0.4,0.6c-0.4-0.7-0.7-1.3-1-1.7v5H90v-5.1c-0.3,1-0.8,1.9-1.3,2.7l-0.3-0.8
		c0.7-1,1.3-2,1.6-3.3h-1.3v-0.7H90z M96.2,542.2c-0.2,1.1-0.5,2-1.1,2.7c0.6,0.6,1.5,1,2.5,1.4l-0.4,0.6c-1-0.4-1.9-0.9-2.5-1.5
		c-0.7,0.7-1.6,1.3-2.7,1.6l-0.4-0.6c1.1-0.3,1.9-0.8,2.6-1.4c-0.6-0.7-1-1.6-1.2-2.6l0.6-0.2c0.1,0.8,0.5,1.6,1,2.3
		c0.4-0.6,0.7-1.4,0.9-2.3L96.2,542.2z M94.4,539.1c-0.2-0.5-0.4-0.9-0.6-1.3l0.7-0.1c0.2,0.4,0.4,0.9,0.6,1.4h2.2v0.7H92v-0.7H94.4
		z M97.6,542.6L97,543c-0.4-0.7-1-1.5-1.7-2.4l0.6-0.3C96.6,541.1,97.2,541.9,97.6,542.6z M108.1,538.2v0.7h-7.2v7h7.5v0.7h-8.2
		v-8.3H108.1z M104.9,542c0.6-0.7,1.1-1.6,1.5-2.5l0.6,0.3c-0.4,1-1,1.9-1.6,2.7c0.8,0.7,1.5,1.4,2.1,2.1l-0.6,0.6
		c-0.6-0.7-1.3-1.4-2-2.1c-0.9,0.9-1.9,1.7-3,2.2l-0.4-0.6c1.1-0.5,2.1-1.1,2.9-2c-0.8-0.7-1.7-1.4-2.6-2.1l0.5-0.5
		C103.2,540.6,104.1,541.3,104.9,542z"/>
	<path class="st1" d="M369.9,90.2l-0.9,0.9c-0.5-0.7-1.3-1.4-2.2-2.2l0.9-0.9C368.5,88.8,369.3,89.5,369.9,90.2z M370.2,92.4
		c-0.6,1.8-1.3,3.4-2,5l-1.3-0.6c0.8-1.6,1.5-3.2,2.1-4.8L370.2,92.4z M370.2,86.9l-0.9,0.9c-0.6-0.7-1.3-1.4-2.3-2.1l0.9-0.9
		C368.8,85.5,369.6,86.2,370.2,86.9z M378.8,90.4h-1.3v-2.4h-2.2c-0.1,0.8-0.2,1.5-0.3,2.2h1.2v5.5c0,0.3,0.2,0.4,0.5,0.4h1
		c0.2,0,0.3-0.1,0.4-0.2c0.2-0.2,0.3-0.9,0.3-2.1l1.2,0.4c-0.1,1.5-0.3,2.4-0.5,2.7c-0.3,0.3-0.6,0.4-1.1,0.4h-1.7
		c-1,0-1.4-0.5-1.4-1.4v-5.3c-0.7,3.2-2.2,5.5-4.6,7l-0.8-1.1c2.7-1.6,4.2-4.4,4.5-8.5h-2.1v2.4h-1.3v-3.7h3.4c0-0.1,0-0.2,0-0.3
		v-1.8h1.3v1.5c0,0.2,0,0.4,0,0.6h3.4V90.4z M387.4,85v1c-0.4,1.2-1,2.5-1.6,3.8c0.9,1.3,1.4,2.4,1.5,3.3c0,0.6-0.2,1.1-0.4,1.4
		c-0.4,0.4-1.2,0.5-2.3,0.6l-0.4-1.3c0.3,0,0.5,0.1,0.7,0.1c0.4,0,0.7-0.1,0.9-0.2c0.1-0.1,0.2-0.3,0.2-0.5c0-0.9-0.5-2-1.5-3.2
		c0.7-1.4,1.2-2.7,1.6-3.8h-2.2v11.3h-1.3V85H387.4z M394.4,97.4h-1.3v-1.1h-3.9v1H388V85.2h6.5V97.4z M393.2,90.1v-3.7h-3.9v3.7
		H393.2z M393.2,95.1v-3.7h-3.9v3.7H393.2z"/>
	<path class="st1" d="M358.3,64.1c0.6,0.9,0.9,2,0.9,3.6c0,1.6-0.3,2.9-1,4c-0.7,1-1.6,1.5-2.7,1.5c-1.9,0-3-0.9-3.3-2.7h1.5
		c0.2,1,0.8,1.5,1.8,1.5c0.7,0,1.2-0.4,1.7-1c0.4-0.6,0.6-1.5,0.6-2.4c0-0.1,0-0.1,0-0.2h-0.1c-0.3,0.4-0.6,0.8-1.1,1
		c-0.4,0.2-0.9,0.3-1.4,0.3c-1,0-1.8-0.3-2.4-1c-0.6-0.6-0.9-1.4-0.9-2.4c0-1,0.3-1.8,1-2.5c0.7-0.7,1.5-1,2.5-1
		C356.7,62.8,357.6,63.2,358.3,64.1z M354.1,64.7c-0.4,0.4-0.6,0.9-0.6,1.6s0.2,1.1,0.6,1.5c0.4,0.4,0.8,0.6,1.5,0.6
		c0.6,0,1.1-0.2,1.5-0.6s0.5-0.9,0.5-1.6c0-0.7-0.2-1.2-0.6-1.6c-0.4-0.4-0.9-0.6-1.5-0.6C354.9,64.1,354.4,64.3,354.1,64.7z
		 M364.1,74.5l-1-0.9c0.9-1.2,1.3-2.8,1.4-4.7V62h8.3v11c0,0.9-0.5,1.3-1.4,1.3h-1.8l-0.4-1.3c0.6,0,1.2,0.1,1.7,0.1
		c0.3,0,0.4-0.2,0.4-0.6v-2.5h-5.7C365.5,71.9,365,73.3,364.1,74.5z M371.4,63.3h-5.7v2.1h5.7V63.3z M365.7,68.8h5.7v-2.2h-5.7V68.8
		z M383.3,63.6c0.6,0.6,0.9,1.3,0.9,2.2c0,0.9-0.3,1.7-1,2.4c-0.4,0.4-1.1,0.9-2.1,1.6c-1.1,0.7-1.7,1.3-1.9,1.9h5V73h-6.9
		c0-1,0.3-1.9,1-2.6c0.4-0.4,1.1-1,2.3-1.8c0.7-0.5,1.1-0.9,1.4-1.1c0.4-0.5,0.7-1.1,0.7-1.6c0-0.6-0.2-1-0.5-1.3s-0.8-0.4-1.4-0.4
		c-0.6,0-1.1,0.2-1.4,0.6c-0.3,0.4-0.5,1-0.5,1.8h-1.5c0-1.1,0.3-2,1-2.7c0.6-0.7,1.5-1.1,2.6-1.1C381.9,62.8,382.7,63.1,383.3,63.6
		z M393.3,64.3c0.6,0.9,0.9,2.2,0.9,3.7c0,1.5-0.3,2.8-0.9,3.7c-0.6,1-1.6,1.5-2.7,1.5s-2.1-0.5-2.7-1.5c-0.6-0.9-0.9-2.2-0.9-3.7
		c0-1.6,0.3-2.8,0.9-3.7c0.6-1,1.6-1.5,2.7-1.5S392.7,63.3,393.3,64.3z M388.9,65.4c-0.3,0.6-0.4,1.5-0.4,2.5c0,1.1,0.1,1.9,0.4,2.5
		c0.3,0.9,0.9,1.4,1.7,1.4c0.8,0,1.4-0.5,1.7-1.4c0.2-0.6,0.4-1.5,0.4-2.5c0-1.1-0.1-1.9-0.4-2.5c-0.3-0.9-0.9-1.4-1.7-1.4
		C389.8,64.1,389.2,64.5,388.9,65.4z M407.8,74.4h-1.3v-1h-6.3v1h-1.3V62h9V74.4z M406.5,66.9v-3.6h-6.3v3.6H406.5z M406.5,72.1
		v-3.9h-6.3v3.9H406.5z"/>
	<path class="st1" d="M344.4,174.9v7.1h-0.8v-6.1c-0.4,0.5-1,0.8-1.7,1V176c0.3-0.1,0.7-0.2,1-0.4c0.3-0.2,0.6-0.5,0.9-0.7H344.4z
		 M351.2,175.3c0.4,0.3,0.6,0.8,0.6,1.3c0,0.4-0.1,0.7-0.3,1c-0.2,0.3-0.5,0.5-0.8,0.6v0c0.4,0.1,0.7,0.3,0.9,0.6
		c0.3,0.3,0.4,0.7,0.4,1.2c0,0.6-0.2,1.1-0.7,1.5c-0.5,0.4-1.1,0.6-1.9,0.6c-0.8,0-1.5-0.2-1.9-0.6c-0.4-0.4-0.7-0.9-0.7-1.5
		c0-0.5,0.1-0.9,0.4-1.2c0.3-0.3,0.6-0.5,0.9-0.6v0c-0.4-0.1-0.7-0.3-0.8-0.6c-0.2-0.3-0.3-0.6-0.3-1c0-0.5,0.2-1,0.6-1.3
		c0.4-0.4,1-0.6,1.7-0.6C350.2,174.7,350.8,174.9,351.2,175.3z M348.1,179c-0.3,0.3-0.4,0.6-0.4,1c0,0.4,0.1,0.8,0.4,1
		c0.3,0.3,0.7,0.4,1.3,0.4s1-0.1,1.3-0.4c0.3-0.3,0.4-0.6,0.4-1c0-0.4-0.1-0.8-0.4-1c-0.3-0.3-0.8-0.4-1.3-0.4
		C348.9,178.6,348.5,178.7,348.1,179z M348.3,175.8c-0.2,0.2-0.4,0.5-0.4,0.9c0,0.4,0.1,0.7,0.3,0.9c0.3,0.3,0.7,0.4,1.2,0.4
		c0.5,0,1-0.1,1.2-0.4c0.2-0.2,0.3-0.5,0.3-0.9c0-0.3-0.1-0.6-0.4-0.9c-0.3-0.3-0.7-0.4-1.2-0.4C349,175.4,348.6,175.5,348.3,175.8z
		 M356.4,176.1c0.1,0.1,0.2,0.2,0.2,0.4c0,0.2-0.1,0.3-0.2,0.4c-0.1,0.1-0.3,0.2-0.4,0.2c-0.2,0-0.3-0.1-0.4-0.2
		c-0.1-0.1-0.2-0.3-0.2-0.4s0-0.3,0.2-0.4c0.1-0.1,0.3-0.2,0.4-0.2C356.1,175.9,356.3,176,356.4,176.1z M356.4,179.8
		c0.1,0.1,0.2,0.2,0.2,0.4c0,0.2-0.1,0.3-0.2,0.4c-0.1,0.1-0.3,0.2-0.4,0.2c-0.2,0-0.3-0.1-0.4-0.2c-0.1-0.1-0.2-0.3-0.2-0.4
		s0-0.3,0.2-0.4c0.1-0.1,0.3-0.2,0.4-0.2C356.1,179.6,356.3,179.6,356.4,179.8z M369.2,175.2c0.4,0.3,0.6,0.8,0.6,1.4
		c0,0.8-0.4,1.3-1.2,1.6c0.4,0.1,0.7,0.3,1,0.6c0.2,0.3,0.4,0.6,0.4,1c0,0.6-0.2,1.2-0.7,1.6c-0.5,0.4-1.1,0.6-1.8,0.6
		c-0.7,0-1.2-0.2-1.7-0.5c-0.5-0.4-0.8-1-0.8-1.8h0.8c0,0.6,0.2,1,0.6,1.3c0.3,0.2,0.7,0.4,1.1,0.4c0.5,0,0.9-0.1,1.2-0.4
		c0.3-0.3,0.4-0.6,0.4-1c0-0.4-0.1-0.8-0.4-1s-0.7-0.3-1.2-0.3H367V178h0.5c0.5,0,0.8-0.1,1.1-0.3c0.2-0.2,0.4-0.5,0.4-0.9
		s-0.1-0.7-0.4-0.9c-0.3-0.2-0.6-0.3-1.1-0.3c-0.5,0-0.8,0.1-1.1,0.4c-0.3,0.3-0.4,0.6-0.5,1.1h-0.8c0.1-0.7,0.3-1.2,0.8-1.6
		c0.4-0.4,1-0.6,1.6-0.6S368.8,174.9,369.2,175.2z M376.4,175.9c0.4,0.6,0.6,1.5,0.6,2.6s-0.2,1.9-0.6,2.6c-0.4,0.7-1.1,1.1-1.9,1.1
		c-0.9,0-1.5-0.4-1.9-1.1c-0.4-0.6-0.6-1.5-0.6-2.6s0.2-1.9,0.6-2.6c0.4-0.8,1.1-1.1,1.9-1.1C375.3,174.7,376,175.1,376.4,175.9z
		 M373.1,176.5c-0.2,0.5-0.3,1.1-0.3,2c0,0.8,0.1,1.5,0.3,2c0.3,0.7,0.7,1,1.4,1s1.1-0.3,1.4-1c0.2-0.5,0.3-1.1,0.3-2
		c0-0.8-0.1-1.5-0.3-2c-0.3-0.7-0.7-1-1.4-1S373.4,175.8,373.1,176.5z M384,179.1v0.7h-5v-0.7H384z M390.3,175.3
		c0.4,0.4,0.6,0.9,0.6,1.5s-0.2,1.2-0.7,1.7c-0.2,0.3-0.7,0.6-1.5,1.1c-0.9,0.6-1.4,1.2-1.6,1.6h3.7v0.7h-4.8c0-0.6,0.2-1.2,0.7-1.8
		c0.3-0.3,0.8-0.7,1.5-1.3c0.6-0.4,0.9-0.7,1.1-0.9c0.4-0.4,0.5-0.8,0.5-1.3c0-0.4-0.1-0.8-0.4-1s-0.6-0.4-1.1-0.4
		c-0.5,0-0.9,0.2-1.1,0.5c-0.3,0.3-0.4,0.8-0.4,1.4h-0.8c0-0.8,0.2-1.4,0.7-1.9c0.4-0.5,1-0.7,1.7-0.7
		C389.3,174.7,389.8,174.9,390.3,175.3z M395.5,174.9v7.1h-0.8v-6.1c-0.4,0.5-1,0.8-1.7,1V176c0.3-0.1,0.7-0.2,1-0.4
		c0.3-0.2,0.6-0.5,0.9-0.7H395.5z M400.5,176.1c0.1,0.1,0.2,0.2,0.2,0.4c0,0.2-0.1,0.3-0.2,0.4c-0.1,0.1-0.3,0.2-0.4,0.2
		c-0.2,0-0.3-0.1-0.4-0.2c-0.1-0.1-0.2-0.3-0.2-0.4s0-0.3,0.2-0.4c0.1-0.1,0.3-0.2,0.4-0.2C400.2,175.9,400.4,176,400.5,176.1z
		 M400.5,179.8c0.1,0.1,0.2,0.2,0.2,0.4c0,0.2-0.1,0.3-0.2,0.4c-0.1,0.1-0.3,0.2-0.4,0.2c-0.2,0-0.3-0.1-0.4-0.2
		c-0.1-0.1-0.2-0.3-0.2-0.4s0-0.3,0.2-0.4c0.1-0.1,0.3-0.2,0.4-0.2C400.2,179.6,400.4,179.6,400.5,179.8z M413.3,175.2
		c0.4,0.3,0.6,0.8,0.6,1.4c0,0.8-0.4,1.3-1.2,1.6c0.4,0.1,0.7,0.3,1,0.6c0.2,0.3,0.4,0.6,0.4,1c0,0.6-0.2,1.2-0.7,1.6
		c-0.5,0.4-1.1,0.6-1.8,0.6c-0.7,0-1.2-0.2-1.7-0.5c-0.5-0.4-0.8-1-0.8-1.8h0.8c0,0.6,0.2,1,0.6,1.3c0.3,0.2,0.7,0.4,1.1,0.4
		c0.5,0,0.9-0.1,1.2-0.4c0.3-0.3,0.4-0.6,0.4-1c0-0.4-0.1-0.8-0.4-1s-0.7-0.3-1.2-0.3h-0.6V178h0.5c0.5,0,0.8-0.1,1.1-0.3
		c0.2-0.2,0.4-0.5,0.4-0.9s-0.1-0.7-0.4-0.9c-0.3-0.2-0.6-0.3-1.1-0.3c-0.5,0-0.8,0.1-1.1,0.4c-0.3,0.3-0.4,0.6-0.5,1.1h-0.8
		c0.1-0.7,0.3-1.2,0.8-1.6c0.4-0.4,1-0.6,1.6-0.6S412.8,174.9,413.3,175.2z M420.5,175.9c0.4,0.6,0.6,1.5,0.6,2.6s-0.2,1.9-0.6,2.6
		c-0.4,0.7-1.1,1.1-1.9,1.1c-0.9,0-1.5-0.4-1.9-1.1c-0.4-0.6-0.6-1.5-0.6-2.6s0.2-1.9,0.6-2.6c0.4-0.8,1.1-1.1,1.9-1.1
		C419.4,174.7,420,175.1,420.5,175.9z M417.2,176.5c-0.2,0.5-0.3,1.1-0.3,2c0,0.8,0.1,1.5,0.3,2c0.3,0.7,0.7,1,1.4,1s1.1-0.3,1.4-1
		c0.2-0.5,0.3-1.1,0.3-2c0-0.8-0.1-1.5-0.3-2c-0.3-0.7-0.7-1-1.4-1S417.4,175.8,417.2,176.5z"/>
	<path class="st2" d="M351.8,149.2c-1,1.4-2.3,2.7-3.8,3.7l-1-1.3c1.5-1,2.7-2.1,3.7-3.4L351.8,149.2z M351.4,140.7
		c0.3-0.6,0.5-1.3,0.8-2l1.5,0.3c-0.2,0.6-0.4,1.1-0.7,1.6h8v1.5h-8.7c-0.7,1.4-1.4,2.6-2.2,3.6h3.7v-2.2h1.5v2.2h4.9v1.4h-4.9v4.8
		c0,1.1-0.6,1.6-1.7,1.6H352l-0.3-1.5c0.5,0.1,1,0.1,1.5,0.1c0.4,0,0.7-0.2,0.7-0.6v-4.4h-5.3l-0.4-1.4c0.9-1,1.7-2.2,2.5-3.7h-3.2
		v-1.5H351.4z M361.6,151.8l-1.1,1.1c-0.8-1.2-2-2.4-3.5-3.8l1-1C359.4,149.4,360.6,150.6,361.6,151.8z M370.6,138.9v14.6H369V151
		c-1.3,0.6-2.6,1-4,1.4l-0.4-1.5c1.5-0.3,3-0.8,4.4-1.5v-4.8H365v-1.5h4.1v-4.3H370.6z M374.6,153.4c-1.1,0-1.7-0.6-1.7-1.8v-12.7
		h1.5v5.2c1.3-0.5,2.6-1.1,3.7-2l0.9,1.2c-1.6,1-3.2,1.7-4.6,2.2v5.8c0,0.4,0.2,0.6,0.5,0.6h1.9c0.3,0,0.5-0.1,0.7-0.4
		c0.1-0.3,0.2-1.2,0.2-2.7l1.4,0.5c-0.1,1.9-0.3,3-0.5,3.4c-0.3,0.4-0.8,0.6-1.5,0.6H374.6z M388.6,143c0.1-0.8,0.2-1.7,0.2-2.7
		v-1.4h1.5v1c0,1.1-0.1,2.1-0.2,3h6.5v1.5h-6.1c1.1,3.4,3.3,6.1,6.5,7.9l-0.9,1.2c-3.1-1.9-5.2-4.5-6.5-7.9
		c-1.1,3.7-3.2,6.4-6.5,8.1l-1-1.3c3.3-1.6,5.4-4.3,6.2-8h-5.9V143H388.6z M414,145.9h-1.5v-2.4h-10.8v2.4h-1.5V142h2.9
		c-0.5-0.9-1-1.6-1.6-2.3l1.4-0.7c0.5,0.7,1.1,1.6,1.6,2.5l-1,0.5h6c0.7-1,1.2-2.1,1.7-3.2l1.6,0.6c-0.5,1-1.1,1.9-1.6,2.6h2.9
		V145.9z M411.4,144.5v1.3c-1,0.7-2.1,1.3-3.4,1.9v0.6h6v1.4h-6v2.4c0,0.9-0.5,1.4-1.5,1.4h-2l-0.4-1.4c0.6,0,1.2,0,1.9,0
		c0.3,0,0.5-0.2,0.5-0.6v-1.9h-6.3v-1.4h6.3v-1.2c1.1-0.5,2-0.9,2.7-1.2h-6.5v-1.3H411.4z M408.2,141.3l-1.4,0.7
		c-0.5-1-1-1.8-1.5-2.6l1.4-0.7C407.2,139.5,407.7,140.4,408.2,141.3z"/>
	<path class="st2" d="M362.8,163.8l-0.5,0.5c-0.4-0.5-1-1-1.8-1.5l0.5-0.5C361.8,162.8,362.4,163.3,362.8,163.8z M363.1,165.4
		c-0.5,1.3-1,2.4-1.7,3.5l-0.7-0.3c0.7-1.1,1.2-2.3,1.7-3.5L363.1,165.4z M363.2,161.5l-0.5,0.5c-0.4-0.5-1.1-1-1.9-1.5l0.5-0.5
		C362.1,160.5,362.7,161,363.2,161.5z M366.2,161.4c-0.1,0.3-0.2,0.7-0.4,1h3.4v0.6h-3.6c-0.3,0.6-0.6,1.2-1,1.7h1.6v-1.2h0.7v1.2
		h2.1v0.6H367v1.2h2.6v0.7H367v1.7h-0.7v-1.7h-2.9v-0.7h2.9v-1.2H364l-0.1-0.6c0.4-0.5,0.7-1.1,1.1-1.7h-1.3v-0.6h1.5
		c0.1-0.4,0.3-0.7,0.4-1.1L366.2,161.4z M369.3,161.9h-0.7v-1.1h-4.4v1.1h-0.7v-1.7h5.7V161.9z M375.7,160.8l0.1-1l0.7,0.1
		c0,0.3-0.1,0.6-0.1,0.9h4v0.7h-4.1c-0.1,0.4-0.1,0.7-0.2,1h3.8v5.5c0,0.6-0.3,0.9-0.9,0.9h-1l-0.2-0.7l0.9,0c0.3,0,0.4-0.1,0.4-0.4
		v-4.7h-6.4v5.8h-0.7v-6.5h3.3c0.1-0.3,0.1-0.7,0.2-1h-4v-0.7H375.7z M375.5,164.7h1c0.2-0.4,0.4-0.8,0.6-1.3l0.7,0.2
		c-0.2,0.4-0.4,0.7-0.6,1.1h1.1v0.6h-2v1h2.3v0.6h-2.3v1.8h-0.7V167h-2.3v-0.6h2.3v-1h-2v-0.6h1.1c-0.1-0.4-0.3-0.7-0.5-1l0.6-0.2
		C375.1,163.8,375.3,164.2,375.5,164.7z M384,161.8v-1.9h0.7v1.9h1v0.7h-1v0.8c0.3,0.4,0.7,0.8,1,1.3c0.6-0.7,1.1-1.5,1.5-2.4
		l0.6,0.3c-0.5,1-1,1.8-1.6,2.5l-0.4-0.3l0.2,0.3l-0.4,0.6c-0.4-0.7-0.7-1.3-1-1.7v5H384v-5.1c-0.3,1-0.8,1.9-1.3,2.7l-0.3-0.8
		c0.7-1,1.3-2,1.6-3.3h-1.3v-0.7H384z M390.2,164.2c-0.2,1.1-0.5,2-1.1,2.7c0.6,0.6,1.5,1,2.5,1.4l-0.4,0.6c-1-0.4-1.9-0.9-2.5-1.5
		c-0.7,0.7-1.6,1.3-2.7,1.6l-0.4-0.6c1.1-0.3,1.9-0.8,2.6-1.4c-0.6-0.7-1-1.6-1.2-2.6l0.6-0.2c0.1,0.8,0.5,1.6,1,2.3
		c0.4-0.6,0.7-1.4,0.9-2.3L390.2,164.2z M388.4,161.1c-0.2-0.5-0.4-0.9-0.6-1.3l0.7-0.1c0.2,0.4,0.4,0.9,0.6,1.4h2.2v0.7H386v-0.7
		H388.4z M391.6,164.6L391,165c-0.4-0.7-1-1.5-1.7-2.4l0.6-0.3C390.6,163.1,391.2,163.9,391.6,164.6z M402.1,160.2v0.7h-7.2v7h7.5
		v0.7h-8.2v-8.3H402.1z M398.9,164c0.6-0.7,1.1-1.6,1.5-2.5l0.6,0.3c-0.4,1-1,1.9-1.6,2.7c0.8,0.7,1.5,1.4,2.1,2.1l-0.6,0.6
		c-0.6-0.7-1.3-1.4-2-2.1c-0.9,0.9-1.9,1.7-3,2.2l-0.4-0.6c1.1-0.5,2.1-1.1,2.9-2c-0.8-0.7-1.7-1.4-2.6-2.1l0.5-0.5
		C397.2,162.6,398.1,163.3,398.9,164z"/>
	<path class="st1" d="M379.4,275v1.3h-4.1v1.8h3.4v9.2h-1.3v-0.5h-8.4v0.5h-1.3v-9.2h3.3v-1.8h-4.1V275H379.4z M377.3,285.6v-2h-1.9
		c-1,0-1.5-0.5-1.5-1.5v-2.6h-1.7v0.1c0,2.2-0.8,3.9-2.3,4.9l-1-0.9v2H377.3z M370.9,279.5v-0.1h-2v4.1
		C370.2,282.7,370.9,281.3,370.9,279.5z M372.2,278.1h1.7v-1.8h-1.7V278.1z M375.3,281.7c0,0.4,0.2,0.6,0.6,0.6h1.5v-3h-2.1V281.7z
		 M386.2,279.7c0.4-0.7,0.8-1.4,1.1-2.2l1.4,0.4c-0.3,0.6-0.6,1.2-0.9,1.8h7v1.3H392c-0.6,1.4-1.2,2.5-1.8,3.3
		c1.4,0.6,2.8,1.3,4.3,2.1l-0.9,1.2c-1.4-0.8-2.9-1.6-4.3-2.3c-1.6,1.4-3.7,2.1-6.2,2.2l-0.8-1.2c2.3,0,4.2-0.5,5.6-1.5
		c-1.3-0.5-2.5-1-3.8-1.4c0.5-0.8,0.9-1.5,1.4-2.3h-3.2v-1.3H386.2z M394.5,279h-1.3v-1.9h-9.3v1.9h-1.3v-3.2h5.2
		c-0.2-0.4-0.4-0.8-0.6-1.1l1.5-0.3c0.2,0.4,0.4,0.9,0.6,1.4h5.2V279z M386,282.7c1,0.3,1.9,0.6,2.9,1c0.7-0.8,1.2-1.7,1.7-2.7H387
		C386.7,281.6,386.3,282.2,386,282.7z"/>
	<path class="st1" d="M359.1,254.1c0.6,0.9,0.9,2,0.9,3.6c0,1.6-0.3,2.9-1,4c-0.7,1-1.6,1.5-2.7,1.5c-1.9,0-3-0.9-3.3-2.7h1.5
		c0.2,1,0.8,1.5,1.8,1.5c0.7,0,1.2-0.4,1.7-1c0.4-0.6,0.6-1.5,0.6-2.4c0-0.1,0-0.1,0-0.2h-0.1c-0.3,0.4-0.6,0.8-1.1,1
		c-0.4,0.2-0.9,0.3-1.4,0.3c-1,0-1.8-0.3-2.4-1c-0.6-0.6-0.9-1.4-0.9-2.4c0-1,0.3-1.8,1-2.5c0.7-0.7,1.5-1,2.5-1
		C357.6,252.8,358.5,253.2,359.1,254.1z M354.9,254.7c-0.4,0.4-0.6,0.9-0.6,1.6s0.2,1.1,0.6,1.5c0.4,0.4,0.8,0.6,1.5,0.6
		c0.6,0,1.1-0.2,1.5-0.6s0.5-0.9,0.5-1.6c0-0.7-0.2-1.2-0.6-1.6c-0.4-0.4-0.9-0.6-1.5-0.6C355.8,254.1,355.3,254.3,354.9,254.7z
		 M364.9,264.5l-1-0.9c0.9-1.2,1.3-2.8,1.4-4.7V252h8.3v11c0,0.9-0.5,1.3-1.4,1.3h-1.8l-0.4-1.3c0.6,0,1.2,0.1,1.7,0.1
		c0.3,0,0.4-0.2,0.4-0.6v-2.5h-5.7C366.3,261.9,365.8,263.3,364.9,264.5z M372.3,253.3h-5.7v2.1h5.7V253.3z M366.6,258.8h5.7v-2.2
		h-5.7V258.8z M384.2,253.6c0.6,0.6,0.9,1.3,0.9,2.2c0,0.9-0.3,1.7-1,2.4c-0.4,0.4-1.1,0.9-2.1,1.6c-1.1,0.7-1.7,1.3-1.9,1.9h5v1.3
		h-6.9c0-1,0.3-1.9,1-2.6c0.4-0.4,1.1-1,2.3-1.8c0.7-0.5,1.1-0.9,1.4-1.1c0.4-0.5,0.7-1.1,0.7-1.6c0-0.6-0.2-1-0.5-1.3
		s-0.8-0.4-1.4-0.4c-0.6,0-1.1,0.2-1.4,0.6c-0.3,0.4-0.5,1-0.5,1.8h-1.5c0-1.1,0.3-2,1-2.7c0.6-0.7,1.5-1.1,2.6-1.1
		C382.8,252.8,383.6,253.1,384.2,253.6z M394.4,253v1.2l-3.5,8.8h-1.6l3.6-8.6h-5.2V253H394.4z M408,264.4h-1.3v-1h-6.3v1H399V252h9
		V264.4z M406.7,256.9v-3.6h-6.3v3.6H406.7z M406.7,262.1v-3.9h-6.3v3.9H406.7z"/>
	<path class="st1" d="M344.4,364.9v7.1h-0.8v-6.1c-0.4,0.5-1,0.8-1.7,1V366c0.3-0.1,0.7-0.2,1-0.4c0.3-0.2,0.6-0.5,0.9-0.7H344.4z
		 M351.2,365.3c0.4,0.3,0.6,0.8,0.6,1.3c0,0.4-0.1,0.7-0.3,1c-0.2,0.3-0.5,0.5-0.8,0.6v0c0.4,0.1,0.7,0.3,0.9,0.6
		c0.3,0.3,0.4,0.7,0.4,1.2c0,0.6-0.2,1.1-0.7,1.5c-0.5,0.4-1.1,0.6-1.9,0.6c-0.8,0-1.5-0.2-1.9-0.6c-0.4-0.4-0.7-0.9-0.7-1.5
		c0-0.5,0.1-0.9,0.4-1.2c0.3-0.3,0.6-0.5,0.9-0.6v0c-0.4-0.1-0.7-0.3-0.8-0.6c-0.2-0.3-0.3-0.6-0.3-1c0-0.5,0.2-1,0.6-1.3
		c0.4-0.4,1-0.6,1.7-0.6C350.2,364.7,350.8,364.9,351.2,365.3z M348.1,369c-0.3,0.3-0.4,0.6-0.4,1c0,0.4,0.1,0.8,0.4,1
		c0.3,0.3,0.7,0.4,1.3,0.4s1-0.1,1.3-0.4c0.3-0.3,0.4-0.6,0.4-1c0-0.4-0.1-0.8-0.4-1c-0.3-0.3-0.8-0.4-1.3-0.4
		C348.9,368.6,348.5,368.7,348.1,369z M348.3,365.8c-0.2,0.2-0.4,0.5-0.4,0.9c0,0.4,0.1,0.7,0.3,0.9c0.3,0.3,0.7,0.4,1.2,0.4
		c0.5,0,1-0.1,1.2-0.4c0.2-0.2,0.3-0.5,0.3-0.9c0-0.3-0.1-0.6-0.4-0.9c-0.3-0.3-0.7-0.4-1.2-0.4C349,365.4,348.6,365.5,348.3,365.8z
		 M356.4,366.1c0.1,0.1,0.2,0.2,0.2,0.4c0,0.2-0.1,0.3-0.2,0.4c-0.1,0.1-0.3,0.2-0.4,0.2c-0.2,0-0.3-0.1-0.4-0.2
		c-0.1-0.1-0.2-0.3-0.2-0.4s0-0.3,0.2-0.4c0.1-0.1,0.3-0.2,0.4-0.2C356.1,365.9,356.3,366,356.4,366.1z M356.4,369.8
		c0.1,0.1,0.2,0.2,0.2,0.4c0,0.2-0.1,0.3-0.2,0.4c-0.1,0.1-0.3,0.2-0.4,0.2c-0.2,0-0.3-0.1-0.4-0.2c-0.1-0.1-0.2-0.3-0.2-0.4
		s0-0.3,0.2-0.4c0.1-0.1,0.3-0.2,0.4-0.2C356.1,369.6,356.3,369.6,356.4,369.8z M369.2,365.2c0.4,0.3,0.6,0.8,0.6,1.4
		c0,0.8-0.4,1.3-1.2,1.6c0.4,0.1,0.7,0.3,1,0.6c0.2,0.3,0.4,0.6,0.4,1c0,0.6-0.2,1.2-0.7,1.6c-0.5,0.4-1.1,0.6-1.8,0.6
		c-0.7,0-1.2-0.2-1.7-0.5c-0.5-0.4-0.8-1-0.8-1.8h0.8c0,0.6,0.2,1,0.6,1.3c0.3,0.2,0.7,0.4,1.1,0.4c0.5,0,0.9-0.1,1.2-0.4
		c0.3-0.3,0.4-0.6,0.4-1c0-0.4-0.1-0.8-0.4-1s-0.7-0.3-1.2-0.3H367V368h0.5c0.5,0,0.8-0.1,1.1-0.3c0.2-0.2,0.4-0.5,0.4-0.9
		s-0.1-0.7-0.4-0.9c-0.3-0.2-0.6-0.3-1.1-0.3c-0.5,0-0.8,0.1-1.1,0.4c-0.3,0.3-0.4,0.6-0.5,1.1h-0.8c0.1-0.7,0.3-1.2,0.8-1.6
		c0.4-0.4,1-0.6,1.6-0.6S368.8,364.9,369.2,365.2z M376.4,365.9c0.4,0.6,0.6,1.5,0.6,2.6s-0.2,1.9-0.6,2.6c-0.4,0.7-1.1,1.1-1.9,1.1
		c-0.9,0-1.5-0.4-1.9-1.1c-0.4-0.6-0.6-1.5-0.6-2.6s0.2-1.9,0.6-2.6c0.4-0.8,1.1-1.1,1.9-1.1C375.3,364.7,376,365.1,376.4,365.9z
		 M373.1,366.5c-0.2,0.5-0.3,1.1-0.3,2c0,0.8,0.1,1.5,0.3,2c0.3,0.7,0.7,1,1.4,1s1.1-0.3,1.4-1c0.2-0.5,0.3-1.1,0.3-2
		c0-0.8-0.1-1.5-0.3-2c-0.3-0.7-0.7-1-1.4-1S373.4,365.8,373.1,366.5z M384,369.1v0.7h-5v-0.7H384z M390.3,365.3
		c0.4,0.4,0.6,0.9,0.6,1.5s-0.2,1.2-0.7,1.7c-0.2,0.3-0.7,0.6-1.5,1.1c-0.9,0.6-1.4,1.2-1.6,1.6h3.7v0.7h-4.8c0-0.6,0.2-1.2,0.7-1.8
		c0.3-0.3,0.8-0.7,1.5-1.3c0.6-0.4,0.9-0.7,1.1-0.9c0.4-0.4,0.5-0.8,0.5-1.3c0-0.4-0.1-0.8-0.4-1s-0.6-0.4-1.1-0.4
		c-0.5,0-0.9,0.2-1.1,0.5c-0.3,0.3-0.4,0.8-0.4,1.4h-0.8c0-0.8,0.2-1.4,0.7-1.9c0.4-0.5,1-0.7,1.7-0.7
		C389.3,364.7,389.8,364.9,390.3,365.3z M395.5,364.9v7.1h-0.8v-6.1c-0.4,0.5-1,0.8-1.7,1V366c0.3-0.1,0.7-0.2,1-0.4
		c0.3-0.2,0.6-0.5,0.9-0.7H395.5z M400.5,366.1c0.1,0.1,0.2,0.2,0.2,0.4c0,0.2-0.1,0.3-0.2,0.4c-0.1,0.1-0.3,0.2-0.4,0.2
		c-0.2,0-0.3-0.1-0.4-0.2c-0.1-0.1-0.2-0.3-0.2-0.4s0-0.3,0.2-0.4c0.1-0.1,0.3-0.2,0.4-0.2C400.2,365.9,400.4,366,400.5,366.1z
		 M400.5,369.8c0.1,0.1,0.2,0.2,0.2,0.4c0,0.2-0.1,0.3-0.2,0.4c-0.1,0.1-0.3,0.2-0.4,0.2c-0.2,0-0.3-0.1-0.4-0.2
		c-0.1-0.1-0.2-0.3-0.2-0.4s0-0.3,0.2-0.4c0.1-0.1,0.3-0.2,0.4-0.2C400.2,369.6,400.4,369.6,400.5,369.8z M413.3,365.2
		c0.4,0.3,0.6,0.8,0.6,1.4c0,0.8-0.4,1.3-1.2,1.6c0.4,0.1,0.7,0.3,1,0.6c0.2,0.3,0.4,0.6,0.4,1c0,0.6-0.2,1.2-0.7,1.6
		c-0.5,0.4-1.1,0.6-1.8,0.6c-0.7,0-1.2-0.2-1.7-0.5c-0.5-0.4-0.8-1-0.8-1.8h0.8c0,0.6,0.2,1,0.6,1.3c0.3,0.2,0.7,0.4,1.1,0.4
		c0.5,0,0.9-0.1,1.2-0.4c0.3-0.3,0.4-0.6,0.4-1c0-0.4-0.1-0.8-0.4-1s-0.7-0.3-1.2-0.3h-0.6V368h0.5c0.5,0,0.8-0.1,1.1-0.3
		c0.2-0.2,0.4-0.5,0.4-0.9s-0.1-0.7-0.4-0.9c-0.3-0.2-0.6-0.3-1.1-0.3c-0.5,0-0.8,0.1-1.1,0.4c-0.3,0.3-0.4,0.6-0.5,1.1h-0.8
		c0.1-0.7,0.3-1.2,0.8-1.6c0.4-0.4,1-0.6,1.6-0.6S412.8,364.9,413.3,365.2z M420.5,365.9c0.4,0.6,0.6,1.5,0.6,2.6s-0.2,1.9-0.6,2.6
		c-0.4,0.7-1.1,1.1-1.9,1.1c-0.9,0-1.5-0.4-1.9-1.1c-0.4-0.6-0.6-1.5-0.6-2.6s0.2-1.9,0.6-2.6c0.4-0.8,1.1-1.1,1.9-1.1
		C419.4,364.7,420,365.1,420.5,365.9z M417.2,366.5c-0.2,0.5-0.3,1.1-0.3,2c0,0.8,0.1,1.5,0.3,2c0.3,0.7,0.7,1,1.4,1s1.1-0.3,1.4-1
		c0.2-0.5,0.3-1.1,0.3-2c0-0.8-0.1-1.5-0.3-2c-0.3-0.7-0.7-1-1.4-1S417.4,365.8,417.2,366.5z"/>
	<path class="st2" d="M326.3,329.5v1.5h-4.7v2.1h3.9v10.5h-1.5v-0.6h-9.6v0.6h-1.5V333h3.8v-2.1h-4.7v-1.5H326.3z M323.9,341.5v-2.3
		h-2.1c-1.2,0-1.7-0.6-1.7-1.8v-3h-2v0.1c0,2.6-0.9,4.4-2.6,5.6l-1.1-1v2.3H323.9z M316.6,334.6v-0.1h-2.3v4.7
		C315.8,338.2,316.5,336.7,316.6,334.6z M318.1,333h2v-2.1h-2V333z M321.6,337.1c0,0.5,0.2,0.7,0.7,0.7h1.7v-3.4h-2.4V337.1z
		 M334,334.8c0.4-0.8,0.9-1.6,1.3-2.5l1.6,0.5c-0.4,0.7-0.7,1.4-1.1,2h8v1.5h-3.1c-0.6,1.6-1.3,2.8-2.1,3.8c1.6,0.7,3.2,1.5,4.9,2.4
		l-1,1.3c-1.6-1-3.3-1.8-4.9-2.6c-1.8,1.6-4.2,2.4-7.1,2.5l-0.9-1.4c2.6,0,4.8-0.6,6.4-1.8c-1.4-0.6-2.9-1.2-4.3-1.6
		c0.5-0.9,1.1-1.7,1.6-2.6h-3.6v-1.5H334z M343.5,333.9H342v-2.1h-10.6v2.1h-1.5v-3.6h6c-0.2-0.5-0.4-0.9-0.7-1.3l1.7-0.3
		c0.2,0.5,0.4,1,0.7,1.6h6V333.9z M333.8,338.2c1.1,0.3,2.2,0.7,3.3,1.1c0.8-0.9,1.4-1.9,1.9-3.1h-4
		C334.6,337,334.2,337.6,333.8,338.2z M349.7,339.2v1.3h-1.5V331h5.1v-2.1h1.5v2.1h5.2v8.3h-5.2v1.6c0,0.8,0.3,1.1,1,1.1h3.5
		c0.3,0,0.6-0.1,0.7-0.3c0.1-0.2,0.2-0.8,0.3-1.7l1.5,0.5c-0.1,1.4-0.3,2.2-0.6,2.5c-0.3,0.3-0.8,0.4-1.6,0.4h-4.1
		c-1.5,0-2.2-0.8-2.2-2.3v-1.8H349.7z M349.7,332.4v2h3.6v-2H349.7z M349.7,337.8h3.6v-2h-3.6V337.8z M358.5,332.4h-3.7v2h3.7V332.4
		z M358.5,337.8v-2h-3.7v2H358.5z M371.5,335.6v-2c1.3-0.7,2.5-1.6,3.6-2.6h-8.6v-1.4h10.6v1.4c-1.2,1.2-2.6,2.3-4.2,3.4v1.3h6v1.5
		h-6v4.9c0,1-0.5,1.6-1.6,1.6h-2.8l-0.4-1.5c0.8,0,1.7,0,2.6,0c0.4,0,0.7-0.2,0.7-0.6v-4.4h-6.6v-1.5H371.5z M385,333.1v-2
		c-0.7,0.1-1.5,0.2-2.2,0.3l-0.3-1.4c2.1-0.2,3.9-0.5,5.5-1l0.5,1.4c-0.7,0.2-1.3,0.3-2,0.5v2.2h2v1.5h-2v0.6
		c0.8,0.6,1.7,1.4,2.6,2.2l-0.8,1.3c-0.7-0.8-1.3-1.5-1.7-2v7H385v-6.9c-0.6,1.4-1.4,2.7-2.3,3.9l-0.7-1.7c1.3-1.3,2.2-2.7,2.8-4.3
		h-2.3v-1.5H385z M396.9,338.9l-1.5,0.2v4.5h-1.5v-4.2l-4.8,0.8l-0.2-1.5l5-0.8v-8.9h1.5v8.7l1.3-0.2L396.9,338.9z M393,335.9
		l-1.1,1.1c-0.7-0.8-1.6-1.6-2.8-2.5l1.1-1C391.3,334.2,392.2,335.1,393,335.9z M393.4,332.1l-1,1.1c-0.7-0.7-1.6-1.5-2.8-2.3l1.1-1
		C391.7,330.5,392.7,331.3,393.4,332.1z M400.3,343.5L400,342c0.4,0.1,0.8,0.1,1.2,0.1c0.4,0,0.6-0.2,0.6-0.7v-3.4
		c-0.6,0.2-1.2,0.4-1.7,0.6l-0.4-1.5c0.7-0.2,1.4-0.4,2.1-0.6v-3.5h-1.8v-1.5h1.8v-2.8h1.5v2.8h1.6v1.5h-1.6v2.8
		c0.5-0.3,1.1-0.5,1.6-0.8v1.5c-0.5,0.3-1.1,0.5-1.6,0.8v4.4c0,1.1-0.5,1.6-1.5,1.6H400.3z M409,331.1v-2.1h1.5v2.1h3.7v1.5h-3.7
		v2.3h3.1v1.3c-0.5,1.7-1.4,3.1-2.6,4.3c1,0.7,2.2,1.4,3.6,2l-0.8,1.2c-1.5-0.7-2.8-1.4-3.9-2.3c-1.2,0.9-2.7,1.7-4.4,2.3l-0.7-1.3
		c1.6-0.5,3-1.2,4.1-2c-1.2-1.2-2.1-2.6-2.5-4.2h-0.8v-1.4h3.4v-2.3h-3.7v-1.5H409z M409.9,339.6c1-1,1.7-2.1,2.2-3.3h-4.3
		C408.2,337.5,408.9,338.6,409.9,339.6z M423.8,333c0.1-0.8,0.2-1.7,0.2-2.7v-1.4h1.5v1c0,1.1-0.1,2.1-0.2,3h6.5v1.5h-6.1
		c1.1,3.4,3.3,6.1,6.5,7.9l-0.9,1.2c-3.1-1.9-5.2-4.5-6.5-7.9c-1.1,3.7-3.2,6.4-6.5,8.1l-1-1.3c3.3-1.6,5.4-4.3,6.2-8h-5.9V333
		H423.8z M449.2,335.9h-1.5v-2.4h-10.8v2.4h-1.5V332h2.9c-0.5-0.9-1-1.6-1.6-2.3l1.4-0.7c0.5,0.7,1.1,1.6,1.6,2.5l-1,0.5h6
		c0.7-1,1.2-2.1,1.7-3.2l1.6,0.6c-0.5,1-1.1,1.9-1.6,2.6h2.9V335.9z M446.6,334.5v1.3c-1,0.7-2.1,1.3-3.4,1.9v0.6h6v1.4h-6v2.4
		c0,0.9-0.5,1.4-1.5,1.4h-2l-0.4-1.4c0.6,0,1.2,0,1.9,0c0.3,0,0.5-0.2,0.5-0.6v-1.9h-6.3v-1.4h6.3v-1.2c1.1-0.5,2-0.9,2.7-1.2H438
		v-1.3H446.6z M443.4,331.3L442,332c-0.5-1-1-1.8-1.5-2.6l1.4-0.7C442.4,329.5,442.9,330.4,443.4,331.3z"/>
	<path class="st2" d="M338.4,352.2v-0.7h3.8c-0.2-0.5-0.4-1-0.6-1.5l0.7-0.2c0.2,0.6,0.4,1.1,0.6,1.6l-0.4,0.1h4.1v0.7h-3.7v2.4h3.2
		v0.7h-3.2v2.7h4.1v0.7h-8.9V358h4.1v-2.7h-3.2v-0.7h3.2v-2.4H338.4z M350.5,351.8v-1.9h0.7v1.9h1v0.7h-1v0.8c0.3,0.4,0.7,0.8,1,1.3
		c0.6-0.7,1.1-1.5,1.5-2.4l0.6,0.3c-0.5,1-1,1.8-1.6,2.5l-0.4-0.3l0.2,0.3l-0.4,0.6c-0.4-0.7-0.7-1.3-1-1.7v5h-0.7v-5.1
		c-0.3,1-0.8,1.9-1.3,2.7l-0.3-0.8c0.7-1,1.3-2,1.6-3.3h-1.3v-0.7H350.5z M356.7,354.2c-0.2,1.1-0.5,2-1.1,2.7
		c0.6,0.6,1.5,1,2.5,1.4l-0.4,0.6c-1-0.4-1.9-0.9-2.5-1.5c-0.7,0.7-1.6,1.3-2.7,1.6l-0.4-0.6c1.1-0.3,1.9-0.8,2.6-1.4
		c-0.6-0.7-1-1.6-1.2-2.6l0.6-0.2c0.1,0.8,0.5,1.6,1,2.3c0.4-0.6,0.7-1.4,0.9-2.3L356.7,354.2z M354.9,351.1
		c-0.2-0.5-0.4-0.9-0.6-1.3l0.7-0.1c0.2,0.4,0.4,0.9,0.6,1.4h2.2v0.7h-5.4v-0.7H354.9z M358.1,354.6l-0.6,0.4
		c-0.4-0.7-1-1.5-1.7-2.4l0.6-0.3C357.1,353.1,357.7,353.9,358.1,354.6z M368.6,350.2v0.7h-7.2v7h7.5v0.7h-8.2v-8.3H368.6z
		 M365.4,354c0.6-0.7,1.1-1.6,1.5-2.5l0.6,0.3c-0.4,1-1,1.9-1.6,2.7c0.8,0.7,1.5,1.4,2.1,2.1l-0.6,0.6c-0.6-0.7-1.3-1.4-2-2.1
		c-0.9,0.9-1.9,1.7-3,2.2l-0.4-0.6c1.1-0.5,2.1-1.1,2.9-2c-0.8-0.7-1.7-1.4-2.6-2.1l0.5-0.5C363.7,352.6,364.6,353.3,365.4,354z
		 M379.7,349.7c-0.4,0.7-0.7,1.3-0.9,2.1c-0.3,0.9-0.4,1.7-0.4,2.6c0,0.8,0.1,1.7,0.4,2.6c0.2,0.7,0.5,1.4,0.9,2.1H379
		c-0.4-0.6-0.8-1.3-1-2.1c-0.3-0.9-0.4-1.7-0.4-2.6c0-0.9,0.1-1.8,0.4-2.6c0.2-0.7,0.6-1.4,1-2.1H379.7z M385.6,349.9v9.1h-0.7v-1.7
		c-0.8,0.4-1.7,0.7-2.6,0.9l-0.2-0.7c1-0.2,1.9-0.5,2.8-1v-3.2h-2.6v-0.7h2.6v-2.8H385.6z M388.2,358.8c-0.6,0-0.9-0.3-0.9-1v-8h0.7
		v3.3c0.9-0.3,1.7-0.8,2.5-1.3l0.4,0.6c-1,0.6-2,1.1-2.9,1.4v3.8c0,0.3,0.1,0.4,0.4,0.4h1.2c0.2,0,0.4-0.1,0.5-0.2
		c0.1-0.2,0.1-0.8,0.2-1.8l0.7,0.2c-0.1,1.2-0.2,1.9-0.3,2.1c-0.2,0.2-0.5,0.4-0.9,0.4H388.2z M394.5,351.8v-1.9h0.7v1.9h1v0.7h-1
		v0.8c0.3,0.4,0.7,0.8,1,1.3c0.6-0.7,1.1-1.5,1.5-2.4l0.6,0.3c-0.5,1-1,1.8-1.6,2.5l-0.4-0.3l0.2,0.3l-0.4,0.6
		c-0.4-0.7-0.7-1.3-1-1.7v5h-0.7v-5.1c-0.3,1-0.8,1.9-1.3,2.7l-0.3-0.8c0.7-1,1.3-2,1.6-3.3h-1.3v-0.7H394.5z M400.7,354.2
		c-0.2,1.1-0.5,2-1.1,2.7c0.6,0.6,1.5,1,2.5,1.4l-0.4,0.6c-1-0.4-1.9-0.9-2.5-1.5c-0.7,0.7-1.6,1.3-2.7,1.6l-0.4-0.6
		c1.1-0.3,1.9-0.8,2.6-1.4c-0.6-0.7-1-1.6-1.2-2.6l0.6-0.2c0.1,0.8,0.5,1.6,1,2.3c0.4-0.6,0.7-1.4,0.9-2.3L400.7,354.2z
		 M398.9,351.1c-0.2-0.5-0.4-0.9-0.6-1.3l0.7-0.1c0.2,0.4,0.4,0.9,0.6,1.4h2.2v0.7h-5.4v-0.7H398.9z M402.1,354.6l-0.6,0.4
		c-0.4-0.7-1-1.5-1.7-2.4l0.6-0.3C401.1,353.1,401.7,353.9,402.1,354.6z M412.6,350.2v0.7h-7.2v7h7.5v0.7h-8.2v-8.3H412.6z
		 M409.4,354c0.6-0.7,1.1-1.6,1.5-2.5l0.6,0.3c-0.4,1-1,1.9-1.6,2.7c0.8,0.7,1.5,1.4,2.1,2.1l-0.6,0.6c-0.6-0.7-1.3-1.4-2-2.1
		c-0.9,0.9-1.9,1.7-3,2.2l-0.4-0.6c1.1-0.5,2.1-1.1,2.9-2c-0.8-0.7-1.7-1.4-2.6-2.1l0.5-0.5C407.7,352.6,408.6,353.3,409.4,354z
		 M416,349.7c0.4,0.6,0.8,1.3,1,2.1c0.3,0.9,0.4,1.7,0.4,2.6c0,0.9-0.1,1.7-0.4,2.6c-0.3,0.7-0.6,1.4-1,2.1h-0.7
		c0.4-0.7,0.7-1.4,0.9-2.1c0.3-0.9,0.4-1.7,0.4-2.6c0-0.9-0.1-1.7-0.4-2.6c-0.2-0.7-0.5-1.4-0.9-2.1H416z"/>
	<path class="st1" d="M372.9,462.6v12.8h-1.3v-2.2c-1.1,0.5-2.3,0.9-3.5,1.3l-0.3-1.3c1.3-0.3,2.6-0.7,3.8-1.3v-4.2H368v-1.3h3.6
		v-3.8H372.9z M376.5,475.2c-1,0-1.5-0.5-1.5-1.6v-11.1h1.3v4.5c1.1-0.4,2.2-1,3.3-1.7l0.8,1.1c-1.4,0.8-2.8,1.5-4,1.9v5.1
		c0,0.4,0.2,0.5,0.5,0.5h1.6c0.3,0,0.4-0.1,0.6-0.3c0.1-0.2,0.2-1,0.2-2.3l1.2,0.4c-0.1,1.6-0.3,2.6-0.5,3c-0.3,0.3-0.7,0.5-1.3,0.5
		H376.5z M387.2,472c-0.9,1.2-1.9,2.3-3.2,3.2l-0.8-1.1c1.2-0.8,2.3-1.8,3.1-3L387.2,472z M390.1,463.9h5.7v1.2h-12.5v-1.2h5.5
		c-0.2-0.4-0.4-0.9-0.6-1.2l1.4-0.2C389.7,462.9,389.9,463.4,390.1,463.9z M394.1,466.2v4.2h-3.9v3.5c0,0.9-0.5,1.4-1.4,1.4h-1.5
		l-0.3-1.3c0.5,0.1,0.9,0.1,1.4,0.1c0.4,0,0.6-0.2,0.6-0.5v-3.2h-4v-4.2H394.1z M392.8,467.5h-6.6v1.7h6.6V467.5z M395.8,474.2l-1,1
		c-0.7-1-1.7-2-3-3.2l0.9-0.9C393.9,472.1,395,473.1,395.8,474.2z"/>
	<path class="st1" d="M354.1,441v10h-1.5v-8.2c-0.6,0.6-1.4,1-2.3,1.3v-1.5c0.4-0.1,0.9-0.3,1.4-0.6c0.5-0.3,0.9-0.6,1.3-1H354.1z
		 M363.7,442.3c0.6,0.9,0.9,2.2,0.9,3.7c0,1.5-0.3,2.8-0.9,3.7c-0.6,1-1.6,1.5-2.7,1.5s-2.1-0.5-2.7-1.5c-0.6-0.9-0.9-2.2-0.9-3.7
		c0-1.6,0.3-2.8,0.9-3.7c0.6-1,1.6-1.5,2.7-1.5S363.1,441.3,363.7,442.3z M359.3,443.4c-0.3,0.6-0.4,1.5-0.4,2.5
		c0,1.1,0.1,1.9,0.4,2.5c0.3,0.9,0.9,1.4,1.7,1.4c0.8,0,1.4-0.5,1.7-1.4c0.2-0.6,0.4-1.5,0.4-2.5c0-1.1-0.1-1.9-0.4-2.5
		c-0.3-0.9-0.9-1.4-1.7-1.4C360.2,442.1,359.6,442.5,359.3,443.4z M369.5,452.5l-1-0.9c0.9-1.2,1.3-2.8,1.4-4.7V440h8.3v11
		c0,0.9-0.5,1.3-1.4,1.3H375l-0.4-1.3c0.6,0,1.2,0.1,1.7,0.1c0.3,0,0.4-0.2,0.4-0.6v-2.5h-5.7C370.9,449.9,370.4,451.3,369.5,452.5z
		 M376.8,441.3h-5.7v2.1h5.7V441.3z M371.1,446.8h5.7v-2.2h-5.7V446.8z M386.4,441v10h-1.5v-8.2c-0.6,0.6-1.4,1-2.3,1.3v-1.5
		c0.4-0.1,0.9-0.3,1.4-0.6c0.5-0.3,0.9-0.6,1.3-1H386.4z M395.9,441.6c0.6,0.5,0.8,1.1,0.8,1.9c0,0.5-0.1,1-0.3,1.3
		c-0.3,0.4-0.6,0.7-1.1,0.9v0c0.5,0.1,0.9,0.4,1.2,0.8c0.4,0.5,0.6,1,0.6,1.7c0,0.9-0.3,1.6-1,2.2c-0.7,0.5-1.6,0.8-2.8,0.8
		c-1.2,0-2.1-0.3-2.8-0.8c-0.6-0.6-1-1.3-1-2.2c0-0.6,0.2-1.2,0.6-1.7c0.3-0.4,0.7-0.7,1.2-0.8v0c-0.5-0.2-0.9-0.5-1.1-0.9
		c-0.2-0.4-0.3-0.8-0.3-1.3c0-0.7,0.3-1.4,0.8-1.9c0.6-0.6,1.5-0.8,2.5-0.8S395.2,441.1,395.9,441.6z M391.7,446.9
		c-0.4,0.3-0.6,0.8-0.6,1.3c0,0.5,0.2,0.9,0.6,1.3c0.4,0.3,0.9,0.5,1.6,0.5c0.7,0,1.3-0.2,1.7-0.5c0.4-0.3,0.5-0.7,0.5-1.3
		c0-0.6-0.2-1-0.5-1.3c-0.4-0.4-0.9-0.5-1.7-0.5S392,446.5,391.7,446.9z M391.8,442.5c-0.3,0.3-0.5,0.6-0.5,1.1
		c0,0.5,0.1,0.9,0.4,1.1c0.3,0.3,0.8,0.5,1.6,0.5c0.7,0,1.2-0.2,1.6-0.5c0.3-0.3,0.4-0.7,0.4-1.1c0-0.4-0.2-0.8-0.5-1.1
		c-0.4-0.3-0.9-0.5-1.5-0.5S392.2,442.2,391.8,442.5z M410.5,452.4h-1.3v-1h-6.3v1h-1.3V440h9V452.4z M409.2,444.9v-3.6h-6.3v3.6
		H409.2z M409.2,450.1v-3.9h-6.3v3.9H409.2z"/>
	<path class="st1" d="M344.4,552.9v7.1h-0.8v-6.1c-0.4,0.5-1,0.8-1.7,1V554c0.3-0.1,0.7-0.2,1-0.4c0.3-0.2,0.6-0.5,0.9-0.7H344.4z
		 M351.2,553.3c0.4,0.3,0.6,0.8,0.6,1.3c0,0.4-0.1,0.7-0.3,1c-0.2,0.3-0.5,0.5-0.8,0.6v0c0.4,0.1,0.7,0.3,0.9,0.6
		c0.3,0.3,0.4,0.7,0.4,1.2c0,0.6-0.2,1.1-0.7,1.5c-0.5,0.4-1.1,0.6-1.9,0.6c-0.8,0-1.5-0.2-1.9-0.6c-0.4-0.4-0.7-0.9-0.7-1.5
		c0-0.5,0.1-0.9,0.4-1.2c0.3-0.3,0.6-0.5,0.9-0.6v0c-0.4-0.1-0.7-0.3-0.8-0.6c-0.2-0.3-0.3-0.6-0.3-1c0-0.5,0.2-1,0.6-1.3
		c0.4-0.4,1-0.6,1.7-0.6C350.2,552.7,350.8,552.9,351.2,553.3z M348.1,557c-0.3,0.3-0.4,0.6-0.4,1c0,0.4,0.1,0.8,0.4,1
		c0.3,0.3,0.7,0.4,1.3,0.4s1-0.1,1.3-0.4c0.3-0.3,0.4-0.6,0.4-1c0-0.4-0.1-0.8-0.4-1c-0.3-0.3-0.8-0.4-1.3-0.4
		C348.9,556.6,348.5,556.7,348.1,557z M348.3,553.8c-0.2,0.2-0.4,0.5-0.4,0.9c0,0.4,0.1,0.7,0.3,0.9c0.3,0.3,0.7,0.4,1.2,0.4
		c0.5,0,1-0.1,1.2-0.4c0.2-0.2,0.3-0.5,0.3-0.9c0-0.3-0.1-0.6-0.4-0.9c-0.3-0.3-0.7-0.4-1.2-0.4C349,553.4,348.6,553.5,348.3,553.8z
		 M356.4,554.1c0.1,0.1,0.2,0.2,0.2,0.4c0,0.2-0.1,0.3-0.2,0.4c-0.1,0.1-0.3,0.2-0.4,0.2c-0.2,0-0.3-0.1-0.4-0.2
		c-0.1-0.1-0.2-0.3-0.2-0.4s0-0.3,0.2-0.4c0.1-0.1,0.3-0.2,0.4-0.2C356.1,553.9,356.3,554,356.4,554.1z M356.4,557.8
		c0.1,0.1,0.2,0.2,0.2,0.4c0,0.2-0.1,0.3-0.2,0.4c-0.1,0.1-0.3,0.2-0.4,0.2c-0.2,0-0.3-0.1-0.4-0.2c-0.1-0.1-0.2-0.3-0.2-0.4
		c0-0.2,0-0.3,0.2-0.4c0.1-0.1,0.3-0.2,0.4-0.2C356.1,557.6,356.3,557.6,356.4,557.8z M369.2,553.2c0.4,0.3,0.6,0.8,0.6,1.4
		c0,0.8-0.4,1.3-1.2,1.6c0.4,0.1,0.7,0.3,1,0.6c0.2,0.3,0.4,0.6,0.4,1c0,0.6-0.2,1.2-0.7,1.6c-0.5,0.4-1.1,0.6-1.8,0.6
		c-0.7,0-1.2-0.2-1.7-0.5c-0.5-0.4-0.8-1-0.8-1.8h0.8c0,0.6,0.2,1,0.6,1.3c0.3,0.2,0.7,0.4,1.1,0.4c0.5,0,0.9-0.1,1.2-0.4
		c0.3-0.3,0.4-0.6,0.4-1c0-0.4-0.1-0.8-0.4-1s-0.7-0.3-1.2-0.3H367V556h0.5c0.5,0,0.8-0.1,1.1-0.3c0.2-0.2,0.4-0.5,0.4-0.9
		s-0.1-0.7-0.4-0.9c-0.3-0.2-0.6-0.3-1.1-0.3c-0.5,0-0.8,0.1-1.1,0.4c-0.3,0.3-0.4,0.6-0.5,1.1h-0.8c0.1-0.7,0.3-1.2,0.8-1.6
		c0.4-0.4,1-0.6,1.6-0.6S368.8,552.9,369.2,553.2z M376.4,553.9c0.4,0.6,0.6,1.5,0.6,2.6s-0.2,1.9-0.6,2.6c-0.4,0.7-1.1,1.1-1.9,1.1
		c-0.9,0-1.5-0.4-1.9-1.1c-0.4-0.6-0.6-1.5-0.6-2.6s0.2-1.9,0.6-2.6c0.4-0.8,1.1-1.1,1.9-1.1C375.3,552.7,376,553.1,376.4,553.9z
		 M373.1,554.5c-0.2,0.5-0.3,1.1-0.3,2c0,0.8,0.1,1.5,0.3,2c0.3,0.7,0.7,1,1.4,1s1.1-0.3,1.4-1c0.2-0.5,0.3-1.1,0.3-2
		c0-0.8-0.1-1.5-0.3-2c-0.3-0.7-0.7-1-1.4-1S373.4,553.8,373.1,554.5z M384,557.1v0.7h-5v-0.7H384z M390.3,553.3
		c0.4,0.4,0.6,0.9,0.6,1.5s-0.2,1.2-0.7,1.7c-0.2,0.3-0.7,0.6-1.5,1.1c-0.9,0.6-1.4,1.2-1.6,1.6h3.7v0.7h-4.8c0-0.6,0.2-1.2,0.7-1.8
		c0.3-0.3,0.8-0.7,1.5-1.3c0.6-0.4,0.9-0.7,1.1-0.9c0.4-0.4,0.5-0.8,0.5-1.3c0-0.4-0.1-0.8-0.4-1s-0.6-0.4-1.1-0.4
		c-0.5,0-0.9,0.2-1.1,0.5c-0.3,0.3-0.4,0.8-0.4,1.4h-0.8c0-0.8,0.2-1.4,0.7-1.9c0.4-0.5,1-0.7,1.7-0.7
		C389.3,552.7,389.8,552.9,390.3,553.3z M395.5,552.9v7.1h-0.8v-6.1c-0.4,0.5-1,0.8-1.7,1V554c0.3-0.1,0.7-0.2,1-0.4
		c0.3-0.2,0.6-0.5,0.9-0.7H395.5z M400.5,554.1c0.1,0.1,0.2,0.2,0.2,0.4c0,0.2-0.1,0.3-0.2,0.4c-0.1,0.1-0.3,0.2-0.4,0.2
		c-0.2,0-0.3-0.1-0.4-0.2c-0.1-0.1-0.2-0.3-0.2-0.4s0-0.3,0.2-0.4c0.1-0.1,0.3-0.2,0.4-0.2C400.2,553.9,400.4,554,400.5,554.1z
		 M400.5,557.8c0.1,0.1,0.2,0.2,0.2,0.4c0,0.2-0.1,0.3-0.2,0.4c-0.1,0.1-0.3,0.2-0.4,0.2c-0.2,0-0.3-0.1-0.4-0.2
		c-0.1-0.1-0.2-0.3-0.2-0.4c0-0.2,0-0.3,0.2-0.4c0.1-0.1,0.3-0.2,0.4-0.2C400.2,557.6,400.4,557.6,400.5,557.8z M413.3,553.2
		c0.4,0.3,0.6,0.8,0.6,1.4c0,0.8-0.4,1.3-1.2,1.6c0.4,0.1,0.7,0.3,1,0.6c0.2,0.3,0.4,0.6,0.4,1c0,0.6-0.2,1.2-0.7,1.6
		c-0.5,0.4-1.1,0.6-1.8,0.6c-0.7,0-1.2-0.2-1.7-0.5c-0.5-0.4-0.8-1-0.8-1.8h0.8c0,0.6,0.2,1,0.6,1.3c0.3,0.2,0.7,0.4,1.1,0.4
		c0.5,0,0.9-0.1,1.2-0.4c0.3-0.3,0.4-0.6,0.4-1c0-0.4-0.1-0.8-0.4-1s-0.7-0.3-1.2-0.3h-0.6V556h0.5c0.5,0,0.8-0.1,1.1-0.3
		c0.2-0.2,0.4-0.5,0.4-0.9s-0.1-0.7-0.4-0.9c-0.3-0.2-0.6-0.3-1.1-0.3c-0.5,0-0.8,0.1-1.1,0.4c-0.3,0.3-0.4,0.6-0.5,1.1h-0.8
		c0.1-0.7,0.3-1.2,0.8-1.6c0.4-0.4,1-0.6,1.6-0.6S412.8,552.9,413.3,553.2z M420.5,553.9c0.4,0.6,0.6,1.5,0.6,2.6s-0.2,1.9-0.6,2.6
		c-0.4,0.7-1.1,1.1-1.9,1.1c-0.9,0-1.5-0.4-1.9-1.1c-0.4-0.6-0.6-1.5-0.6-2.6s0.2-1.9,0.6-2.6c0.4-0.8,1.1-1.1,1.9-1.1
		C419.4,552.7,420,553.1,420.5,553.9z M417.2,554.5c-0.2,0.5-0.3,1.1-0.3,2c0,0.8,0.1,1.5,0.3,2c0.3,0.7,0.7,1,1.4,1s1.1-0.3,1.4-1
		c0.2-0.5,0.3-1.1,0.3-2c0-0.8-0.1-1.5-0.3-2c-0.3-0.7-0.7-1-1.4-1S417.4,553.8,417.2,554.5z"/>
	<path class="st2" d="M351.3,523.2l-1.1,1.1c-0.6-0.7-1.5-1.5-2.6-2.4l1.1-1.1C349.7,521.6,350.6,522.4,351.3,523.2z M351.3,525.9
		c-0.6,2-1.3,3.8-2.1,5.6l-1.4-0.6c0.8-1.8,1.5-3.6,2.1-5.5L351.3,525.9z M351.6,519.1l-1.1,1.1c-0.6-0.7-1.4-1.3-2.4-2.1l1.1-1.1
		C350.1,517.7,350.9,518.4,351.6,519.1z M357.6,516.9v0.9h4.1v1.2h-4.1v0.8h3.5v1.2h-3.5v0.8h4.6v1.2h-10.6v-1.2h4.5V521h-3.3v-1.2
		h3.3V519h-4v-1.2h4v-0.9H357.6z M354.4,531.6h-1.4v-7.8h7.9v6.2c0,1-0.5,1.5-1.5,1.5h-1.5l-0.4-1.3l1.4,0.1c0.3,0,0.4-0.2,0.4-0.5
		v-0.6h-5V531.6z M359.3,525.1h-5v0.9h5V525.1z M354.4,528h5v-0.9h-5V528z M365.7,522.7l-0.5-1.6c2-1.2,3.4-2.7,4.4-4.3l1.3,0.6
		c-0.5,0.9-1.1,1.8-1.9,2.6v5.3h-1.5v-3.9C366.9,521.8,366.3,522.3,365.7,522.7z M371.6,526.3v-1.4h1.5v1.4h6.2v1.5h-6.2v3.9h-1.5
		v-3.9h-6.2v-1.5H371.6z M374.3,524.8c-1.1,0-1.6-0.5-1.6-1.6v-0.9c-0.7,0.3-1.4,0.5-2.1,0.8l-0.9-1.3c1.1-0.4,2-0.7,2.9-1.1v-3.6
		h1.5v2.9c1.5-0.8,2.7-1.6,3.7-2.5l1,1.1c-1.4,1.2-2.9,2.2-4.8,3v1.3c0,0.3,0.2,0.5,0.6,0.5h2.2c0.4,0,0.6-0.1,0.8-0.3
		c0.2-0.2,0.4-0.8,0.4-1.8l1.4,0.5c-0.2,1.4-0.4,2.3-0.8,2.5c-0.4,0.3-0.9,0.4-1.6,0.4H374.3z M389.1,521c0.1-0.8,0.2-1.7,0.2-2.7
		v-1.4h1.5v1c0,1.1-0.1,2.1-0.2,3h6.5v1.5H391c1.1,3.4,3.3,6.1,6.5,7.9l-0.9,1.2c-3.1-1.9-5.2-4.5-6.5-7.9c-1.1,3.7-3.2,6.4-6.5,8.1
		l-1-1.3c3.3-1.6,5.4-4.3,6.2-8h-5.9V521H389.1z M414.5,523.9H413v-2.4h-10.8v2.4h-1.5V520h2.9c-0.5-0.9-1-1.6-1.6-2.3l1.4-0.7
		c0.5,0.7,1.1,1.6,1.6,2.5l-1,0.5h6c0.7-1,1.2-2.1,1.7-3.2l1.6,0.6c-0.5,1-1.1,1.9-1.6,2.6h2.9V523.9z M411.9,522.5v1.3
		c-1,0.7-2.1,1.3-3.4,1.9v0.6h6v1.4h-6v2.4c0,0.9-0.5,1.4-1.5,1.4h-2l-0.4-1.4c0.6,0,1.2,0,1.9,0c0.3,0,0.5-0.2,0.5-0.6v-1.9h-6.3
		v-1.4h6.3v-1.2c1.1-0.5,2-0.9,2.7-1.2h-6.5v-1.3H411.9z M408.7,519.3l-1.4,0.7c-0.5-1-1-1.8-1.5-2.6l1.4-0.7
		C407.7,517.5,408.2,518.4,408.7,519.3z"/>
	<path class="st2" d="M376.1,539.7v-1.8h0.7v1.8h3.9v0.7h-3.3c0.7,1.6,1.9,3,3.6,4.3l-0.5,0.6c-1.8-1.4-3-3.1-3.7-4.9h-0.1v3.9h2.1
		v0.7h-2.1v2h-0.7v-2h-2.1v-0.7h2.1v-3.9h-0.1c-0.7,2-2,3.7-3.8,5l-0.4-0.7c1.7-1.1,2.9-2.6,3.6-4.3h-3.3v-0.7H376.1z M385,541.6h1
		c0.3-0.5,0.5-1.1,0.7-1.8l0.7,0.2c-0.2,0.6-0.4,1.1-0.7,1.5h1.2v0.7h-5v-0.7h1.3c-0.2-0.5-0.4-1-0.6-1.4l0.7-0.2
		C384.6,540.3,384.8,540.9,385,541.6z M385.2,538.8c-0.1-0.3-0.2-0.6-0.4-0.9l0.7-0.1c0.1,0.3,0.2,0.6,0.3,1h2v0.7h-4.7v-0.7H385.2z
		 M387.6,546.9h-0.7v-0.6h-2.6v0.6h-0.7v-3.8h4V546.9z M386.8,545.7v-1.8h-2.6v1.8H386.8z M391.8,538.3v0.5c-0.3,1-0.6,2-1,2.9
		c0.7,0.9,1.1,1.7,1.1,2.3c0,0.6-0.1,1-0.4,1.3c-0.3,0.2-0.8,0.4-1.6,0.4l-0.2-0.8c0.3,0,0.5,0,0.7,0c0.4,0,0.6-0.1,0.7-0.2
		c0.1-0.1,0.1-0.4,0.2-0.7c0-0.6-0.4-1.4-1.2-2.3c0.3-0.8,0.7-1.7,1-2.8h-1.8v8.1h-0.7v-8.7H391.8z"/>
	<path class="st1" d="M661.4,84.6v12.8h-1.3v-2.2c-1.1,0.5-2.3,0.9-3.5,1.3l-0.3-1.3c1.3-0.3,2.6-0.7,3.8-1.3v-4.2h-3.6v-1.3h3.6
		v-3.8H661.4z M665,97.2c-1,0-1.5-0.5-1.5-1.6V84.6h1.3v4.5c1.1-0.4,2.2-1,3.3-1.7l0.8,1.1c-1.4,0.8-2.8,1.5-4,1.9v5.1
		c0,0.4,0.2,0.5,0.5,0.5h1.6c0.3,0,0.4-0.1,0.6-0.3c0.1-0.2,0.2-1,0.2-2.3l1.2,0.4c-0.1,1.6-0.3,2.6-0.5,3c-0.3,0.3-0.7,0.5-1.3,0.5
		H665z M675.7,94c-0.9,1.2-1.9,2.3-3.2,3.2l-0.8-1.1c1.2-0.8,2.3-1.8,3.1-3L675.7,94z M678.6,85.9h5.7v1.2h-12.5v-1.2h5.5
		c-0.2-0.4-0.4-0.9-0.6-1.2l1.4-0.2C678.2,84.9,678.4,85.4,678.6,85.9z M682.6,88.2v4.2h-3.9V96c0,0.9-0.5,1.4-1.4,1.4h-1.5
		l-0.3-1.3c0.5,0.1,0.9,0.1,1.4,0.1c0.4,0,0.6-0.2,0.6-0.5v-3.2h-4v-4.2H682.6z M681.3,89.5h-6.6v1.7h6.6V89.5z M684.3,96.2l-1,1
		c-0.7-1-1.7-2-3-3.2l0.9-0.9C682.4,94.1,683.5,95.1,684.3,96.2z"/>
	<path class="st1" d="M649.1,64.1c0.6,0.9,0.9,2,0.9,3.6c0,1.6-0.3,2.9-1,4c-0.7,1-1.6,1.5-2.7,1.5c-1.9,0-3-0.9-3.3-2.7h1.5
		c0.2,1,0.8,1.5,1.8,1.5c0.7,0,1.2-0.4,1.7-1c0.4-0.6,0.6-1.5,0.6-2.4c0-0.1,0-0.1,0-0.2h-0.1c-0.3,0.4-0.6,0.8-1.1,1
		c-0.4,0.2-0.9,0.3-1.4,0.3c-1,0-1.8-0.3-2.4-1c-0.6-0.6-0.9-1.4-0.9-2.4c0-1,0.3-1.8,1-2.5c0.7-0.7,1.5-1,2.5-1
		C647.6,62.8,648.5,63.2,649.1,64.1z M644.9,64.7c-0.4,0.4-0.6,0.9-0.6,1.6s0.2,1.1,0.6,1.5c0.4,0.4,0.8,0.6,1.5,0.6
		c0.6,0,1.1-0.2,1.5-0.6s0.5-0.9,0.5-1.6c0-0.7-0.2-1.2-0.6-1.6c-0.4-0.4-0.9-0.6-1.5-0.6C645.8,64.1,645.3,64.3,644.9,64.7z
		 M654.9,74.5l-1-0.9c0.9-1.2,1.3-2.8,1.4-4.7V62h8.3v11c0,0.9-0.5,1.3-1.4,1.3h-1.8l-0.4-1.3c0.6,0,1.2,0.1,1.7,0.1
		c0.3,0,0.4-0.2,0.4-0.6v-2.5h-5.7C656.3,71.9,655.8,73.3,654.9,74.5z M662.3,63.3h-5.7v2.1h5.7V63.3z M656.6,68.8h5.7v-2.2h-5.7
		V68.8z M674.2,63.6c0.6,0.6,0.9,1.3,0.9,2.2c0,0.9-0.3,1.7-1,2.4c-0.4,0.4-1.1,0.9-2.1,1.6c-1.1,0.7-1.7,1.3-1.9,1.9h5V73h-6.9
		c0-1,0.3-1.9,1-2.6c0.4-0.4,1.1-1,2.3-1.8c0.7-0.5,1.1-0.9,1.4-1.1c0.4-0.5,0.7-1.1,0.7-1.6c0-0.6-0.2-1-0.5-1.3s-0.8-0.4-1.4-0.4
		c-0.6,0-1.1,0.2-1.4,0.6c-0.3,0.4-0.5,1-0.5,1.8h-1.5c0-1.1,0.3-2,1-2.7c0.6-0.7,1.5-1.1,2.6-1.1C672.8,62.8,673.6,63.1,674.2,63.6
		z M681.6,63v10h-1.5v-8.2c-0.6,0.6-1.4,1-2.3,1.3v-1.5c0.4-0.1,0.9-0.3,1.4-0.6c0.5-0.3,0.9-0.6,1.3-1H681.6z M696,74.4h-1.3v-1
		h-6.3v1H687V62h9V74.4z M694.7,66.9v-3.6h-6.3v3.6H694.7z M694.7,72.1v-3.9h-6.3v3.9H694.7z"/>
	<path class="st1" d="M633.4,174.9v7.1h-0.8v-6.1c-0.4,0.5-1,0.8-1.7,1V176c0.3-0.1,0.7-0.2,1-0.4c0.3-0.2,0.6-0.5,0.9-0.7H633.4z
		 M640.2,175.3c0.4,0.3,0.6,0.8,0.6,1.3c0,0.4-0.1,0.7-0.3,1c-0.2,0.3-0.5,0.5-0.8,0.6v0c0.4,0.1,0.7,0.3,0.9,0.6
		c0.3,0.3,0.4,0.7,0.4,1.2c0,0.6-0.2,1.1-0.7,1.5c-0.5,0.4-1.1,0.6-1.9,0.6c-0.8,0-1.5-0.2-1.9-0.6c-0.4-0.4-0.7-0.9-0.7-1.5
		c0-0.5,0.1-0.9,0.4-1.2c0.3-0.3,0.6-0.5,0.9-0.6v0c-0.4-0.1-0.7-0.3-0.8-0.6c-0.2-0.3-0.3-0.6-0.3-1c0-0.5,0.2-1,0.6-1.3
		c0.4-0.4,1-0.6,1.7-0.6C639.2,174.7,639.8,174.9,640.2,175.3z M637.1,179c-0.3,0.3-0.4,0.6-0.4,1c0,0.4,0.1,0.8,0.4,1
		c0.3,0.3,0.7,0.4,1.3,0.4c0.6,0,1-0.1,1.3-0.4c0.3-0.3,0.4-0.6,0.4-1c0-0.4-0.1-0.8-0.4-1c-0.3-0.3-0.8-0.4-1.3-0.4
		C637.9,178.6,637.5,178.7,637.1,179z M637.3,175.8c-0.2,0.2-0.4,0.5-0.4,0.9c0,0.4,0.1,0.7,0.3,0.9c0.3,0.3,0.7,0.4,1.2,0.4
		c0.5,0,1-0.1,1.2-0.4c0.2-0.2,0.3-0.5,0.3-0.9c0-0.3-0.1-0.6-0.4-0.9c-0.3-0.3-0.7-0.4-1.2-0.4C638,175.4,637.6,175.5,637.3,175.8z
		 M645.4,176.1c0.1,0.1,0.2,0.2,0.2,0.4c0,0.2-0.1,0.3-0.2,0.4c-0.1,0.1-0.3,0.2-0.4,0.2s-0.3-0.1-0.4-0.2c-0.1-0.1-0.2-0.3-0.2-0.4
		s0-0.3,0.2-0.4c0.1-0.1,0.3-0.2,0.4-0.2S645.3,176,645.4,176.1z M645.4,179.8c0.1,0.1,0.2,0.2,0.2,0.4c0,0.2-0.1,0.3-0.2,0.4
		c-0.1,0.1-0.3,0.2-0.4,0.2s-0.3-0.1-0.4-0.2c-0.1-0.1-0.2-0.3-0.2-0.4s0-0.3,0.2-0.4c0.1-0.1,0.3-0.2,0.4-0.2
		S645.3,179.6,645.4,179.8z M658.2,175.2c0.4,0.3,0.6,0.8,0.6,1.4c0,0.8-0.4,1.3-1.2,1.6c0.4,0.1,0.7,0.3,1,0.6
		c0.2,0.3,0.4,0.6,0.4,1c0,0.6-0.2,1.2-0.7,1.6c-0.5,0.4-1.1,0.6-1.8,0.6c-0.7,0-1.2-0.2-1.7-0.5c-0.5-0.4-0.8-1-0.8-1.8h0.8
		c0,0.6,0.2,1,0.6,1.3c0.3,0.2,0.7,0.4,1.1,0.4c0.5,0,0.9-0.1,1.2-0.4c0.3-0.3,0.4-0.6,0.4-1c0-0.4-0.1-0.8-0.4-1s-0.7-0.3-1.2-0.3
		H656V178h0.5c0.5,0,0.8-0.1,1.1-0.3c0.2-0.2,0.4-0.5,0.4-0.9s-0.1-0.7-0.4-0.9c-0.3-0.2-0.6-0.3-1.1-0.3c-0.5,0-0.8,0.1-1.1,0.4
		c-0.3,0.3-0.4,0.6-0.5,1.1h-0.8c0.1-0.7,0.3-1.2,0.8-1.6c0.4-0.4,1-0.6,1.6-0.6S657.8,174.9,658.2,175.2z M665.4,175.9
		c0.4,0.6,0.6,1.5,0.6,2.6s-0.2,1.9-0.6,2.6c-0.4,0.7-1.1,1.1-1.9,1.1c-0.9,0-1.5-0.4-1.9-1.1c-0.4-0.6-0.6-1.5-0.6-2.6
		s0.2-1.9,0.6-2.6c0.4-0.8,1.1-1.1,1.9-1.1C664.3,174.7,665,175.1,665.4,175.9z M662.1,176.5c-0.2,0.5-0.3,1.1-0.3,2
		c0,0.8,0.1,1.5,0.3,2c0.3,0.7,0.7,1,1.4,1s1.1-0.3,1.4-1c0.2-0.5,0.3-1.1,0.3-2c0-0.8-0.1-1.5-0.3-2c-0.3-0.7-0.7-1-1.4-1
		S662.4,175.8,662.1,176.5z M673,179.1v0.7h-5v-0.7H673z M679.3,175.3c0.4,0.4,0.6,0.9,0.6,1.5s-0.2,1.2-0.7,1.7
		c-0.2,0.3-0.7,0.6-1.5,1.1c-0.9,0.6-1.4,1.2-1.6,1.6h3.7v0.7h-4.8c0-0.6,0.2-1.2,0.7-1.8c0.3-0.3,0.8-0.7,1.5-1.3
		c0.6-0.4,0.9-0.7,1.1-0.9c0.4-0.4,0.5-0.8,0.5-1.3c0-0.4-0.1-0.8-0.4-1c-0.3-0.2-0.6-0.4-1.1-0.4c-0.5,0-0.9,0.2-1.1,0.5
		c-0.3,0.3-0.4,0.8-0.4,1.4h-0.8c0-0.8,0.2-1.4,0.7-1.9c0.4-0.5,1-0.7,1.7-0.7C678.3,174.7,678.8,174.9,679.3,175.3z M684.5,174.9
		v7.1h-0.8v-6.1c-0.4,0.5-1,0.8-1.7,1V176c0.3-0.1,0.7-0.2,1-0.4c0.3-0.2,0.6-0.5,0.9-0.7H684.5z M689.5,176.1
		c0.1,0.1,0.2,0.2,0.2,0.4c0,0.2-0.1,0.3-0.2,0.4c-0.1,0.1-0.3,0.2-0.4,0.2c-0.2,0-0.3-0.1-0.4-0.2c-0.1-0.1-0.2-0.3-0.2-0.4
		s0-0.3,0.2-0.4c0.1-0.1,0.3-0.2,0.4-0.2C689.2,175.9,689.4,176,689.5,176.1z M689.5,179.8c0.1,0.1,0.2,0.2,0.2,0.4
		c0,0.2-0.1,0.3-0.2,0.4c-0.1,0.1-0.3,0.2-0.4,0.2c-0.2,0-0.3-0.1-0.4-0.2c-0.1-0.1-0.2-0.3-0.2-0.4s0-0.3,0.2-0.4
		c0.1-0.1,0.3-0.2,0.4-0.2C689.2,179.6,689.4,179.6,689.5,179.8z M702.3,175.2c0.4,0.3,0.6,0.8,0.6,1.4c0,0.8-0.4,1.3-1.2,1.6
		c0.4,0.1,0.7,0.3,1,0.6c0.2,0.3,0.4,0.6,0.4,1c0,0.6-0.2,1.2-0.7,1.6c-0.5,0.4-1.1,0.6-1.8,0.6c-0.7,0-1.2-0.2-1.7-0.5
		c-0.5-0.4-0.8-1-0.8-1.8h0.8c0,0.6,0.2,1,0.6,1.3c0.3,0.2,0.7,0.4,1.1,0.4c0.5,0,0.9-0.1,1.2-0.4c0.3-0.3,0.4-0.6,0.4-1
		c0-0.4-0.1-0.8-0.4-1s-0.7-0.3-1.2-0.3h-0.6V178h0.5c0.5,0,0.8-0.1,1.1-0.3c0.2-0.2,0.4-0.5,0.4-0.9s-0.1-0.7-0.4-0.9
		c-0.3-0.2-0.6-0.3-1.1-0.3c-0.5,0-0.8,0.1-1.1,0.4c-0.3,0.3-0.4,0.6-0.5,1.1h-0.8c0.1-0.7,0.3-1.2,0.8-1.6c0.4-0.4,1-0.6,1.6-0.6
		S701.8,174.9,702.3,175.2z M709.5,175.9c0.4,0.6,0.6,1.5,0.6,2.6s-0.2,1.9-0.6,2.6c-0.4,0.7-1.1,1.1-1.9,1.1
		c-0.9,0-1.5-0.4-1.9-1.1c-0.4-0.6-0.6-1.5-0.6-2.6s0.2-1.9,0.6-2.6c0.4-0.8,1.1-1.1,1.9-1.1C708.4,174.7,709,175.1,709.5,175.9z
		 M706.2,176.5c-0.2,0.5-0.3,1.1-0.3,2c0,0.8,0.1,1.5,0.3,2c0.3,0.7,0.7,1,1.4,1s1.1-0.3,1.4-1c0.2-0.5,0.3-1.1,0.3-2
		c0-0.8-0.1-1.5-0.3-2c-0.3-0.7-0.7-1-1.4-1S706.4,175.8,706.2,176.5z"/>
	<path class="st2" d="M624.9,138.9v14.6h-1.5V151c-1.3,0.6-2.6,1-4,1.4l-0.4-1.5c1.5-0.3,3-0.8,4.4-1.5v-4.8h-4.1v-1.5h4.1v-4.3
		H624.9z M628.9,153.4c-1.1,0-1.7-0.6-1.7-1.8v-12.7h1.5v5.2c1.3-0.5,2.6-1.1,3.7-2l0.9,1.2c-1.6,1-3.2,1.7-4.6,2.2v5.8
		c0,0.4,0.2,0.6,0.5,0.6h1.9c0.3,0,0.5-0.1,0.7-0.4c0.1-0.3,0.2-1.2,0.2-2.7l1.4,0.5c-0.1,1.9-0.3,3-0.5,3.4
		c-0.3,0.4-0.8,0.6-1.5,0.6H628.9z M641.2,149.7c-1,1.4-2.2,2.6-3.7,3.6l-1-1.2c1.4-1,2.6-2.1,3.6-3.4L641.2,149.7z M644.5,140.5
		h6.5v1.4h-14.3v-1.4h6.2c-0.2-0.5-0.4-1-0.6-1.4l1.6-0.3C644.1,139.3,644.3,139.9,644.5,140.5z M649.1,143.1v4.8h-4.5v4
		c0,1-0.5,1.6-1.6,1.6h-1.7l-0.4-1.5c0.5,0.1,1.1,0.1,1.6,0.1c0.4,0,0.6-0.2,0.6-0.6v-3.6h-4.6v-4.8H649.1z M647.6,144.6H640v1.9
		h7.5V144.6z M651,152.2l-1.1,1.1c-0.8-1.1-2-2.3-3.5-3.6l1-1C648.8,149.9,650,151,651,152.2z M661.8,153h-1.4V152H656v0.9h-1.4V141
		h2.9v-2.2h1.5v2.2h2.9V153z M657.4,145.7v-3.3H656v3.3H657.4z M657.4,150.7v-3.6H656v3.6H657.4z M658.9,145.7h1.4v-3.3h-1.4V145.7z
		 M660.3,150.7v-3.6h-1.4v3.6H660.3z M668.3,139.6v1.1c-0.5,1.6-1,3.2-1.6,4.6c1.1,1.6,1.7,2.9,1.7,3.9c0,0.9-0.2,1.6-0.6,1.9
		c-0.4,0.4-1.3,0.6-2.6,0.6l-0.4-1.5c0.5,0.1,1,0.1,1.4,0.1c0.3,0,0.6-0.1,0.7-0.2c0.1-0.1,0.1-0.4,0.1-0.8c0-1-0.6-2.3-1.8-3.9
		c0.5-1.2,1-2.6,1.5-4.3h-2.4v12.7h-1.4v-14.1H668.3z M674.4,149.2v1.3h-1.5V141h5.1v-2.1h1.5v2.1h5.2v8.3h-5.2v1.6
		c0,0.8,0.3,1.1,1,1.1h3.5c0.3,0,0.6-0.1,0.7-0.3c0.1-0.2,0.2-0.8,0.3-1.7l1.5,0.5c-0.1,1.4-0.3,2.2-0.6,2.5
		c-0.3,0.3-0.8,0.4-1.6,0.4h-4.1c-1.5,0-2.2-0.8-2.2-2.3v-1.8H674.4z M674.4,142.4v2h3.6v-2H674.4z M674.4,147.8h3.6v-2h-3.6V147.8z
		 M683.2,142.4h-3.7v2h3.7V142.4z M683.2,147.8v-2h-3.7v2H683.2z M695.7,143c0.1-0.8,0.2-1.7,0.2-2.7v-1.4h1.5v1
		c0,1.1-0.1,2.1-0.2,3h6.5v1.5h-6.1c1.1,3.4,3.3,6.1,6.5,7.9l-0.9,1.2c-3.1-1.9-5.2-4.5-6.5-7.9c-1.1,3.7-3.2,6.4-6.5,8.1l-1-1.3
		c3.3-1.6,5.4-4.3,6.2-8h-5.9V143H695.7z M721.1,145.9h-1.5v-2.4h-10.8v2.4h-1.5V142h2.9c-0.5-0.9-1-1.6-1.6-2.3l1.4-0.7
		c0.5,0.7,1.1,1.6,1.6,2.5l-1,0.5h6c0.7-1,1.2-2.1,1.7-3.2l1.6,0.6c-0.5,1-1.1,1.9-1.6,2.6h2.9V145.9z M718.5,144.5v1.3
		c-1,0.7-2.1,1.3-3.4,1.9v0.6h6v1.4h-6v2.4c0,0.9-0.5,1.4-1.5,1.4h-2l-0.4-1.4c0.6,0,1.2,0,1.9,0c0.3,0,0.5-0.2,0.5-0.6v-1.9h-6.3
		v-1.4h6.3v-1.2c1.1-0.5,2-0.9,2.7-1.2h-6.5v-1.3H718.5z M715.3,141.3l-1.4,0.7c-0.5-1-1-1.8-1.5-2.6l1.4-0.7
		C714.3,139.5,714.8,140.4,715.3,141.3z"/>
	<path class="st2" d="M665.1,161.7v-1.8h0.7v1.8h3.9v0.7h-3.3c0.7,1.6,1.9,3,3.6,4.3l-0.5,0.6c-1.8-1.4-3-3.1-3.7-4.9h-0.1v3.9h2.1
		v0.7h-2.1v2h-0.7v-2h-2.1v-0.7h2.1v-3.9h-0.1c-0.7,2-2,3.7-3.8,5l-0.4-0.7c1.7-1.1,2.9-2.6,3.6-4.3h-3.3v-0.7H665.1z M674,163.6h1
		c0.3-0.5,0.5-1.1,0.7-1.8l0.7,0.2c-0.2,0.6-0.4,1.1-0.7,1.5h1.2v0.7h-5v-0.7h1.3c-0.2-0.5-0.4-1-0.6-1.4l0.7-0.2
		C673.6,162.3,673.8,162.9,674,163.6z M674.2,160.8c-0.1-0.3-0.2-0.6-0.4-0.9l0.7-0.1c0.1,0.3,0.2,0.6,0.3,1h2v0.7h-4.7v-0.7H674.2z
		 M676.6,168.9h-0.7v-0.6h-2.6v0.6h-0.7v-3.8h4V168.9z M675.8,167.7v-1.8h-2.6v1.8H675.8z M680.8,160.3v0.5c-0.3,1-0.6,2-1,2.9
		c0.7,0.9,1.1,1.7,1.1,2.3c0,0.6-0.1,1-0.4,1.3c-0.3,0.2-0.8,0.4-1.6,0.4l-0.2-0.8c0.3,0,0.5,0,0.7,0c0.4,0,0.6-0.1,0.7-0.2
		c0.1-0.1,0.1-0.4,0.2-0.7c0-0.6-0.4-1.4-1.2-2.3c0.3-0.8,0.7-1.7,1-2.8h-1.8v8.1h-0.7v-8.7H680.8z"/>
	<path class="st1" d="M91.1,276H81v4.7c-0.1,2.8-0.5,5-1.5,6.7l-1-0.9c0.8-1.4,1.1-3.3,1.2-5.8v-5.9h11.4V276z M90.7,276.6v1h-4.1
		c-0.1,0.2-0.1,0.4-0.2,0.5h3.5v4.9h-4.8c-0.2,0.2-0.3,0.4-0.4,0.5h4.9v0.8c-0.4,0.6-1,1.1-1.6,1.5c1.1,0.2,2.3,0.4,3.6,0.4
		l-0.3,1.1c-1.8-0.1-3.4-0.3-4.8-0.8c-1.4,0.5-3.2,0.8-5.3,0.8l-0.5-1c1.6,0,3-0.1,4.1-0.4c-0.7-0.3-1.3-0.6-1.8-1
		c-0.4,0.3-0.9,0.5-1.4,0.6l-0.7-1c1.1-0.3,2.1-0.8,2.9-1.6h-1.3v-4.9h2.7c0.1-0.2,0.1-0.4,0.2-0.5h-3.8v-1H90.7z M88.7,279.5V279
		h-5.1v0.5H88.7z M88.7,280.8v-0.5h-5.1v0.5H88.7z M88.7,281.6h-5.1v0.6h5.1V281.6z M88.1,284.5h-3.9c0.7,0.4,1.4,0.7,2.3,1
		C87.1,285.2,87.7,284.9,88.1,284.5z M96,276.8v10.6h-1.3v-10.6H96z M98.8,276.9l-1.2,0.6c-0.5-1-1.1-1.8-1.7-2.6l1.2-0.5
		C97.7,275.1,98.3,276,98.8,276.9z M103.5,287.3l-0.3-1.2l1.2,0c0.4,0,0.6-0.3,0.6-0.7v-9h-5.3v-1.2h6.6v10.6c0,1.1-0.5,1.6-1.6,1.6
		H103.5z"/>
	<path class="st1" d="M65.1,253v10h-1.5v-8.2c-0.6,0.6-1.4,1-2.3,1.3v-1.5c0.4-0.1,0.9-0.3,1.4-0.6c0.5-0.3,0.9-0.6,1.3-1H65.1z
		 M74.7,254.3c0.6,0.9,0.9,2.2,0.9,3.7c0,1.5-0.3,2.8-0.9,3.7c-0.6,1-1.6,1.5-2.7,1.5s-2.1-0.5-2.7-1.5c-0.6-0.9-0.9-2.2-0.9-3.7
		c0-1.6,0.3-2.8,0.9-3.7c0.6-1,1.6-1.5,2.7-1.5S74.1,253.3,74.7,254.3z M70.3,255.4c-0.3,0.6-0.4,1.5-0.4,2.5c0,1.1,0.1,1.9,0.4,2.5
		c0.3,0.9,0.9,1.4,1.7,1.4c0.8,0,1.4-0.5,1.7-1.4c0.2-0.6,0.4-1.5,0.4-2.5c0-1.1-0.1-1.9-0.4-2.5c-0.3-0.9-0.9-1.4-1.7-1.4
		C71.2,254.1,70.6,254.5,70.3,255.4z M80.5,264.5l-1-0.9c0.9-1.2,1.3-2.8,1.4-4.7V252h8.3v11c0,0.9-0.5,1.3-1.4,1.3H86l-0.4-1.3
		c0.6,0,1.2,0.1,1.7,0.1c0.3,0,0.4-0.2,0.4-0.6v-2.5h-5.7C81.9,261.9,81.4,263.3,80.5,264.5z M87.8,253.3h-5.7v2.1h5.7V253.3z
		 M82.1,258.8h5.7v-2.2h-5.7V258.8z M97.4,253v10h-1.5v-8.2c-0.6,0.6-1.4,1-2.3,1.3v-1.5c0.4-0.1,0.9-0.3,1.4-0.6
		c0.5-0.3,0.9-0.6,1.3-1H97.4z M107,254.3c0.6,0.9,0.9,2.2,0.9,3.7c0,1.5-0.3,2.8-0.9,3.7c-0.6,1-1.6,1.5-2.7,1.5s-2.1-0.5-2.7-1.5
		c-0.6-0.9-0.9-2.2-0.9-3.7c0-1.6,0.3-2.8,0.9-3.7c0.6-1,1.6-1.5,2.7-1.5S106.4,253.3,107,254.3z M102.6,255.4
		c-0.3,0.6-0.4,1.5-0.4,2.5c0,1.1,0.1,1.9,0.4,2.5c0.3,0.9,0.9,1.4,1.7,1.4c0.8,0,1.4-0.5,1.7-1.4c0.2-0.6,0.4-1.5,0.4-2.5
		c0-1.1-0.1-1.9-0.4-2.5c-0.3-0.9-0.9-1.4-1.7-1.4C103.5,254.1,102.9,254.5,102.6,255.4z M121.5,264.4h-1.3v-1h-6.3v1h-1.3V252h9
		V264.4z M120.2,256.9v-3.6h-6.3v3.6H120.2z M120.2,262.1v-3.9h-6.3v3.9H120.2z"/>
	<path class="st1" d="M55.4,364.9v7.1h-0.8v-6.1c-0.4,0.5-1,0.8-1.7,1V366c0.3-0.1,0.7-0.2,1-0.4c0.3-0.2,0.6-0.5,0.9-0.7H55.4z
		 M62.2,365.3c0.4,0.3,0.6,0.8,0.6,1.3c0,0.4-0.1,0.7-0.3,1c-0.2,0.3-0.5,0.5-0.8,0.6v0c0.4,0.1,0.7,0.3,0.9,0.6
		c0.3,0.3,0.4,0.7,0.4,1.2c0,0.6-0.2,1.1-0.7,1.5c-0.5,0.4-1.1,0.6-1.9,0.6c-0.8,0-1.5-0.2-1.9-0.6c-0.4-0.4-0.7-0.9-0.7-1.5
		c0-0.5,0.1-0.9,0.4-1.2c0.3-0.3,0.6-0.5,0.9-0.6v0c-0.4-0.1-0.7-0.3-0.8-0.6c-0.2-0.3-0.3-0.6-0.3-1c0-0.5,0.2-1,0.6-1.3
		c0.4-0.4,1-0.6,1.7-0.6C61.2,364.7,61.8,364.9,62.2,365.3z M59.1,369c-0.3,0.3-0.4,0.6-0.4,1c0,0.4,0.1,0.8,0.4,1
		c0.3,0.3,0.7,0.4,1.3,0.4s1-0.1,1.3-0.4c0.3-0.3,0.4-0.6,0.4-1c0-0.4-0.1-0.8-0.4-1c-0.3-0.3-0.8-0.4-1.3-0.4
		C59.9,368.6,59.5,368.7,59.1,369z M59.3,365.8c-0.2,0.2-0.4,0.5-0.4,0.9c0,0.4,0.1,0.7,0.3,0.9c0.3,0.3,0.7,0.4,1.2,0.4
		c0.5,0,1-0.1,1.2-0.4c0.2-0.2,0.3-0.5,0.3-0.9c0-0.3-0.1-0.6-0.4-0.9c-0.3-0.3-0.7-0.4-1.2-0.4C60,365.4,59.6,365.5,59.3,365.8z
		 M67.4,366.1c0.1,0.1,0.2,0.2,0.2,0.4c0,0.2-0.1,0.3-0.2,0.4c-0.1,0.1-0.3,0.2-0.4,0.2s-0.3-0.1-0.4-0.2c-0.1-0.1-0.2-0.3-0.2-0.4
		s0-0.3,0.2-0.4c0.1-0.1,0.3-0.2,0.4-0.2S67.3,366,67.4,366.1z M67.4,369.8c0.1,0.1,0.2,0.2,0.2,0.4c0,0.2-0.1,0.3-0.2,0.4
		c-0.1,0.1-0.3,0.2-0.4,0.2s-0.3-0.1-0.4-0.2c-0.1-0.1-0.2-0.3-0.2-0.4s0-0.3,0.2-0.4c0.1-0.1,0.3-0.2,0.4-0.2
		S67.3,369.6,67.4,369.8z M80.2,365.2c0.4,0.3,0.6,0.8,0.6,1.4c0,0.8-0.4,1.3-1.2,1.6c0.4,0.1,0.7,0.3,1,0.6c0.2,0.3,0.4,0.6,0.4,1
		c0,0.6-0.2,1.2-0.7,1.6c-0.5,0.4-1.1,0.6-1.8,0.6c-0.7,0-1.2-0.2-1.7-0.5c-0.5-0.4-0.8-1-0.8-1.8h0.8c0,0.6,0.2,1,0.6,1.3
		c0.3,0.2,0.7,0.4,1.1,0.4c0.5,0,0.9-0.1,1.2-0.4c0.3-0.3,0.4-0.6,0.4-1c0-0.4-0.1-0.8-0.4-1s-0.7-0.3-1.2-0.3H78V368h0.5
		c0.5,0,0.8-0.1,1.1-0.3c0.2-0.2,0.4-0.5,0.4-0.9s-0.1-0.7-0.4-0.9c-0.3-0.2-0.6-0.3-1.1-0.3c-0.5,0-0.8,0.1-1.1,0.4
		c-0.3,0.3-0.4,0.6-0.5,1.1h-0.8c0.1-0.7,0.3-1.2,0.8-1.6c0.4-0.4,1-0.6,1.6-0.6S79.8,364.9,80.2,365.2z M87.4,365.9
		c0.4,0.6,0.6,1.5,0.6,2.6s-0.2,1.9-0.6,2.6c-0.4,0.7-1.1,1.1-1.9,1.1c-0.9,0-1.5-0.4-1.9-1.1c-0.4-0.6-0.6-1.5-0.6-2.6
		s0.2-1.9,0.6-2.6c0.4-0.8,1.1-1.1,1.9-1.1C86.3,364.7,87,365.1,87.4,365.9z M84.1,366.5c-0.2,0.5-0.3,1.1-0.3,2
		c0,0.8,0.1,1.5,0.3,2c0.3,0.7,0.7,1,1.4,1s1.1-0.3,1.4-1c0.2-0.5,0.3-1.1,0.3-2c0-0.8-0.1-1.5-0.3-2c-0.3-0.7-0.7-1-1.4-1
		S84.4,365.8,84.1,366.5z M95,369.1v0.7h-5v-0.7H95z M101.3,365.3c0.4,0.4,0.6,0.9,0.6,1.5s-0.2,1.2-0.7,1.7
		c-0.2,0.3-0.7,0.6-1.5,1.1c-0.9,0.6-1.4,1.2-1.6,1.6h3.7v0.7h-4.8c0-0.6,0.2-1.2,0.7-1.8c0.3-0.3,0.8-0.7,1.5-1.3
		c0.6-0.4,0.9-0.7,1.1-0.9c0.4-0.4,0.5-0.8,0.5-1.3c0-0.4-0.1-0.8-0.4-1s-0.6-0.4-1.1-0.4c-0.5,0-0.9,0.2-1.1,0.5
		c-0.3,0.3-0.4,0.8-0.4,1.4h-0.8c0-0.8,0.2-1.4,0.7-1.9c0.4-0.5,1-0.7,1.7-0.7C100.3,364.7,100.8,364.9,101.3,365.3z M106.5,364.9
		v7.1h-0.8v-6.1c-0.4,0.5-1,0.8-1.7,1V366c0.3-0.1,0.7-0.2,1-0.4c0.3-0.2,0.6-0.5,0.9-0.7H106.5z M111.5,366.1
		c0.1,0.1,0.2,0.2,0.2,0.4c0,0.2-0.1,0.3-0.2,0.4c-0.1,0.1-0.3,0.2-0.4,0.2s-0.3-0.1-0.4-0.2c-0.1-0.1-0.2-0.3-0.2-0.4
		s0-0.3,0.2-0.4c0.1-0.1,0.3-0.2,0.4-0.2S111.4,366,111.5,366.1z M111.5,369.8c0.1,0.1,0.2,0.2,0.2,0.4c0,0.2-0.1,0.3-0.2,0.4
		c-0.1,0.1-0.3,0.2-0.4,0.2s-0.3-0.1-0.4-0.2c-0.1-0.1-0.2-0.3-0.2-0.4s0-0.3,0.2-0.4c0.1-0.1,0.3-0.2,0.4-0.2
		S111.4,369.6,111.5,369.8z M124.3,365.2c0.4,0.3,0.6,0.8,0.6,1.4c0,0.8-0.4,1.3-1.2,1.6c0.4,0.1,0.7,0.3,1,0.6
		c0.2,0.3,0.4,0.6,0.4,1c0,0.6-0.2,1.2-0.7,1.6c-0.5,0.4-1.1,0.6-1.8,0.6c-0.7,0-1.2-0.2-1.7-0.5c-0.5-0.4-0.8-1-0.8-1.8h0.8
		c0,0.6,0.2,1,0.6,1.3c0.3,0.2,0.7,0.4,1.1,0.4c0.5,0,0.9-0.1,1.2-0.4c0.3-0.3,0.4-0.6,0.4-1c0-0.4-0.1-0.8-0.4-1s-0.7-0.3-1.2-0.3
		h-0.6V368h0.5c0.5,0,0.8-0.1,1.1-0.3c0.2-0.2,0.4-0.5,0.4-0.9s-0.1-0.7-0.4-0.9c-0.3-0.2-0.6-0.3-1.1-0.3c-0.5,0-0.8,0.1-1.1,0.4
		c-0.3,0.3-0.4,0.6-0.5,1.1h-0.8c0.1-0.7,0.3-1.2,0.8-1.6c0.4-0.4,1-0.6,1.6-0.6S123.8,364.9,124.3,365.2z M131.5,365.9
		c0.4,0.6,0.6,1.5,0.6,2.6s-0.2,1.9-0.6,2.6c-0.4,0.7-1.1,1.1-1.9,1.1c-0.9,0-1.5-0.4-1.9-1.1c-0.4-0.6-0.6-1.5-0.6-2.6
		s0.2-1.9,0.6-2.6c0.4-0.8,1.1-1.1,1.9-1.1C130.4,364.7,131,365.1,131.5,365.9z M128.2,366.5c-0.2,0.5-0.3,1.1-0.3,2
		c0,0.8,0.1,1.5,0.3,2c0.3,0.7,0.7,1,1.4,1s1.1-0.3,1.4-1c0.2-0.5,0.3-1.1,0.3-2c0-0.8-0.1-1.5-0.3-2c-0.3-0.7-0.7-1-1.4-1
		S128.4,365.8,128.2,366.5z"/>
	<path class="st2" d="M72.7,330.6H61.1v5.4c-0.1,3.2-0.6,5.7-1.7,7.6l-1.1-1c0.9-1.6,1.3-3.8,1.3-6.6v-6.7h13.1V330.6z M72.3,331.3
		v1.2h-4.7c-0.1,0.2-0.1,0.4-0.2,0.6h4v5.6h-5.5c-0.2,0.2-0.4,0.4-0.5,0.6H71v0.9c-0.5,0.6-1.1,1.2-1.8,1.7c1.3,0.3,2.7,0.4,4.2,0.4
		l-0.3,1.2c-2-0.1-3.9-0.4-5.5-0.9c-1.6,0.6-3.7,0.9-6.1,0.9l-0.5-1.2c1.8,0,3.4-0.2,4.7-0.4c-0.8-0.4-1.4-0.7-2.1-1.2
		c-0.5,0.3-1.1,0.5-1.6,0.7l-0.8-1.1c1.3-0.4,2.4-0.9,3.3-1.8h-1.5V333h3.1c0.1-0.2,0.2-0.4,0.2-0.6h-4.3v-1.2H72.3z M70,334.6V334
		h-5.8v0.6H70z M70,336.1v-0.6h-5.8v0.6H70z M70,337h-5.8v0.6H70V337z M69.2,340.3h-4.4c0.8,0.4,1.6,0.8,2.6,1.1
		C68.1,341.1,68.7,340.7,69.2,340.3z M78.3,331.5v12.1h-1.5v-12.1H78.3z M81.4,331.6l-1.4,0.7c-0.6-1.1-1.3-2.1-2-3l1.4-0.6
		C80.2,329.6,80.9,330.5,81.4,331.6z M86.8,343.5l-0.4-1.4l1.4,0c0.4,0,0.6-0.3,0.6-0.8V331h-6v-1.4H90v12.1c0,1.2-0.6,1.8-1.8,1.8
		H86.8z M100.1,333c0.1-0.8,0.2-1.7,0.2-2.7v-1.4h1.5v1c0,1.1-0.1,2.1-0.2,3h6.5v1.5H102c1.1,3.4,3.3,6.1,6.5,7.9l-0.9,1.2
		c-3.1-1.9-5.2-4.5-6.5-7.9c-1.1,3.7-3.2,6.4-6.5,8.1l-1-1.3c3.3-1.6,5.4-4.3,6.2-8h-5.9V333H100.1z M125.5,335.9H124v-2.4h-10.8
		v2.4h-1.5V332h2.9c-0.5-0.9-1-1.6-1.6-2.3l1.4-0.7c0.5,0.7,1.1,1.6,1.6,2.5l-1,0.5h6c0.7-1,1.2-2.1,1.7-3.2l1.6,0.6
		c-0.5,1-1.1,1.9-1.6,2.6h2.9V335.9z M122.9,334.5v1.3c-1,0.7-2.1,1.3-3.4,1.9v0.6h6v1.4h-6v2.4c0,0.9-0.5,1.4-1.5,1.4h-2l-0.4-1.4
		c0.6,0,1.2,0,1.9,0c0.3,0,0.5-0.2,0.5-0.6v-1.9h-6.3v-1.4h6.3v-1.2c1.1-0.5,2-0.9,2.7-1.2h-6.5v-1.3H122.9z M119.7,331.3l-1.4,0.7
		c-0.5-1-1-1.8-1.5-2.6l1.4-0.7C118.7,329.5,119.2,330.4,119.7,331.3z"/>
	<path class="st2" d="M73.8,355.8c-0.3,1.1-0.7,2.1-1.2,2.9l-0.6-0.4c0.5-0.8,0.9-1.7,1.2-2.6L73.8,355.8z M79.6,350.2v4.6h-6.3
		v-4.6H79.6z M76.1,352.2v-1.3h-2.1v1.3H76.1z M76.1,352.8h-2.1v1.3h2.1V352.8z M75.4,358.9c-0.7,0-1-0.4-1-1.1v-2.2h0.7v2
		c0,0.4,0.2,0.5,0.5,0.5h2.2c0.2,0,0.4-0.1,0.5-0.2c0.1-0.1,0.2-0.5,0.2-1.2l0.7,0.2c-0.1,0.9-0.2,1.4-0.4,1.6
		c-0.2,0.2-0.5,0.2-0.8,0.2H75.4z M77.7,356.9l-0.7,0.3c-0.3-0.7-0.6-1.3-1-1.8l0.6-0.2C77,355.7,77.4,356.3,77.7,356.9z
		 M76.8,352.2h2.1v-1.3h-2.1V352.2z M78.9,352.8h-2.1v1.3h2.1V352.8z M81,358l-0.6,0.3c-0.4-1-0.9-1.9-1.5-2.7l0.7-0.2
		C80.1,356.3,80.6,357.1,81,358z M86.3,357.3h-2.2v0.8h-0.7v-7.7h3V357.3z M85.6,353.5v-2.3h-1.6v2.3H85.6z M85.6,356.6v-2.4h-1.6
		v2.4H85.6z M86.9,359l-0.6-0.5c0.7-1,1-2.2,1.1-3.6v-4.7h4.1v7.8c0,0.6-0.3,0.9-0.9,0.9h-1.3l-0.2-0.7c0.5,0,0.9,0,1.3,0
		c0.3,0,0.4-0.2,0.4-0.5v-2.1h-2.7C88,357,87.6,358.2,86.9,359z M90.8,350.9h-2.6v1.8h2.6V350.9z M88.1,355h2.6v-1.7h-2.6V355z
		 M95.5,351.8v-1.9h0.7v1.9h1v0.7h-1v0.8c0.3,0.4,0.7,0.8,1,1.3c0.6-0.7,1.1-1.5,1.5-2.4l0.6,0.3c-0.5,1-1,1.8-1.6,2.5l-0.4-0.3
		l0.2,0.3l-0.4,0.6c-0.4-0.7-0.7-1.3-1-1.7v5h-0.7v-5.1c-0.3,1-0.8,1.9-1.3,2.7l-0.3-0.8c0.7-1,1.3-2,1.6-3.3h-1.3v-0.7H95.5z
		 M101.7,354.2c-0.2,1.1-0.5,2-1.1,2.7c0.6,0.6,1.5,1,2.5,1.4l-0.4,0.6c-1-0.4-1.9-0.9-2.5-1.5c-0.7,0.7-1.6,1.3-2.7,1.6l-0.4-0.6
		c1.1-0.3,1.9-0.8,2.6-1.4c-0.6-0.7-1-1.6-1.2-2.6l0.6-0.2c0.1,0.8,0.5,1.6,1,2.3c0.4-0.6,0.7-1.4,0.9-2.3L101.7,354.2z M99.9,351.1
		c-0.2-0.5-0.4-0.9-0.6-1.3l0.7-0.1c0.2,0.4,0.4,0.9,0.6,1.4h2.2v0.7h-5.4v-0.7H99.9z M103.1,354.6l-0.6,0.4c-0.4-0.7-1-1.5-1.7-2.4
		l0.6-0.3C102.1,353.1,102.7,353.9,103.1,354.6z M113.6,350.2v0.7h-7.2v7h7.5v0.7h-8.2v-8.3H113.6z M110.4,354
		c0.6-0.7,1.1-1.6,1.5-2.5l0.6,0.3c-0.4,1-1,1.9-1.6,2.7c0.8,0.7,1.5,1.4,2.1,2.1l-0.6,0.6c-0.6-0.7-1.3-1.4-2-2.1
		c-0.9,0.9-1.9,1.7-3,2.2l-0.4-0.6c1.1-0.5,2.1-1.1,2.9-2c-0.8-0.7-1.7-1.4-2.6-2.1l0.5-0.5C108.7,352.6,109.6,353.3,110.4,354z"/>
	<path class="st1" d="M661.9,462.6v12.8h-1.3v-2.2c-1.1,0.5-2.3,0.9-3.5,1.3l-0.3-1.3c1.3-0.3,2.6-0.7,3.8-1.3v-4.2H657v-1.3h3.6
		v-3.8H661.9z M665.5,475.2c-1,0-1.5-0.5-1.5-1.6v-11.1h1.3v4.5c1.1-0.4,2.2-1,3.3-1.7l0.8,1.1c-1.4,0.8-2.8,1.5-4,1.9v5.1
		c0,0.4,0.2,0.5,0.5,0.5h1.6c0.3,0,0.4-0.1,0.6-0.3c0.1-0.2,0.2-1,0.2-2.3l1.2,0.4c-0.1,1.6-0.3,2.6-0.5,3c-0.3,0.3-0.7,0.5-1.3,0.5
		H665.5z M676.2,472c-0.9,1.2-1.9,2.3-3.2,3.2l-0.8-1.1c1.2-0.8,2.3-1.8,3.1-3L676.2,472z M679.1,463.9h5.7v1.2h-12.5v-1.2h5.5
		c-0.2-0.4-0.4-0.9-0.6-1.2l1.4-0.2C678.7,462.9,678.9,463.4,679.1,463.9z M683.1,466.2v4.2h-3.9v3.5c0,0.9-0.5,1.4-1.4,1.4h-1.5
		l-0.3-1.3c0.5,0.1,0.9,0.1,1.4,0.1c0.4,0,0.6-0.2,0.6-0.5v-3.2h-4v-4.2H683.1z M681.8,467.5h-6.6v1.7h6.6V467.5z M684.8,474.2l-1,1
		c-0.7-1-1.7-2-3-3.2l0.9-0.9C682.9,472.1,684,473.1,684.8,474.2z"/>
	<path class="st1" d="M643.6,441v10h-1.5v-8.2c-0.6,0.6-1.4,1-2.3,1.3v-1.5c0.4-0.1,0.9-0.3,1.4-0.6c0.5-0.3,0.9-0.6,1.3-1H643.6z
		 M653.2,442.3c0.6,0.9,0.9,2.2,0.9,3.7c0,1.5-0.3,2.8-0.9,3.7c-0.6,1-1.6,1.5-2.7,1.5s-2.1-0.5-2.7-1.5c-0.6-0.9-0.9-2.2-0.9-3.7
		c0-1.6,0.3-2.8,0.9-3.7c0.6-1,1.6-1.5,2.7-1.5S652.6,441.3,653.2,442.3z M648.8,443.4c-0.3,0.6-0.4,1.5-0.4,2.5
		c0,1.1,0.1,1.9,0.4,2.5c0.3,0.9,0.9,1.4,1.7,1.4c0.8,0,1.4-0.5,1.7-1.4c0.2-0.6,0.4-1.5,0.4-2.5c0-1.1-0.1-1.9-0.4-2.5
		c-0.3-0.9-0.9-1.4-1.7-1.4C649.7,442.1,649.1,442.5,648.8,443.4z M659,452.5l-1-0.9c0.9-1.2,1.3-2.8,1.4-4.7V440h8.3v11
		c0,0.9-0.5,1.3-1.4,1.3h-1.8l-0.4-1.3c0.6,0,1.2,0.1,1.7,0.1c0.3,0,0.4-0.2,0.4-0.6v-2.5h-5.7C660.4,449.9,659.9,451.3,659,452.5z
		 M666.3,441.3h-5.7v2.1h5.7V441.3z M660.6,446.8h5.7v-2.2h-5.7V446.8z M675.9,441v10h-1.5v-8.2c-0.6,0.6-1.4,1-2.3,1.3v-1.5
		c0.4-0.1,0.9-0.3,1.4-0.6c0.5-0.3,0.9-0.6,1.3-1H675.9z M685.5,442.1c0.6,0.9,0.9,2,0.9,3.6c0,1.6-0.3,2.9-1,4
		c-0.7,1-1.6,1.5-2.7,1.5c-1.9,0-3-0.9-3.3-2.7h1.5c0.2,1,0.8,1.5,1.8,1.5c0.7,0,1.2-0.4,1.7-1c0.4-0.6,0.6-1.5,0.6-2.4
		c0-0.1,0-0.1,0-0.2h-0.1c-0.3,0.4-0.6,0.8-1.1,1c-0.4,0.2-0.9,0.3-1.4,0.3c-1,0-1.8-0.3-2.4-1c-0.6-0.6-0.9-1.4-0.9-2.4
		c0-1,0.3-1.8,1-2.5c0.7-0.7,1.5-1,2.5-1C683.9,440.8,684.8,441.2,685.5,442.1z M681.3,442.7c-0.4,0.4-0.6,0.9-0.6,1.6
		s0.2,1.1,0.6,1.5c0.4,0.4,0.8,0.6,1.5,0.6c0.6,0,1.1-0.2,1.5-0.6s0.5-0.9,0.5-1.6c0-0.7-0.2-1.2-0.6-1.6c-0.4-0.4-0.9-0.6-1.5-0.6
		C682.1,442.1,681.6,442.3,681.3,442.7z M700,452.4h-1.3v-1h-6.3v1h-1.3V440h9V452.4z M698.7,444.9v-3.6h-6.3v3.6H698.7z
		 M698.7,450.1v-3.9h-6.3v3.9H698.7z"/>
	<path class="st1" d="M633.4,552.9v7.1h-0.8v-6.1c-0.4,0.5-1,0.8-1.7,1V554c0.3-0.1,0.7-0.2,1-0.4c0.3-0.2,0.6-0.5,0.9-0.7H633.4z
		 M640.2,553.3c0.4,0.3,0.6,0.8,0.6,1.3c0,0.4-0.1,0.7-0.3,1c-0.2,0.3-0.5,0.5-0.8,0.6v0c0.4,0.1,0.7,0.3,0.9,0.6
		c0.3,0.3,0.4,0.7,0.4,1.2c0,0.6-0.2,1.1-0.7,1.5c-0.5,0.4-1.1,0.6-1.9,0.6c-0.8,0-1.5-0.2-1.9-0.6c-0.4-0.4-0.7-0.9-0.7-1.5
		c0-0.5,0.1-0.9,0.4-1.2c0.3-0.3,0.6-0.5,0.9-0.6v0c-0.4-0.1-0.7-0.3-0.8-0.6c-0.2-0.3-0.3-0.6-0.3-1c0-0.5,0.2-1,0.6-1.3
		c0.4-0.4,1-0.6,1.7-0.6C639.2,552.7,639.8,552.9,640.2,553.3z M637.1,557c-0.3,0.3-0.4,0.6-0.4,1c0,0.4,0.1,0.8,0.4,1
		c0.3,0.3,0.7,0.4,1.3,0.4c0.6,0,1-0.1,1.3-0.4c0.3-0.3,0.4-0.6,0.4-1c0-0.4-0.1-0.8-0.4-1c-0.3-0.3-0.8-0.4-1.3-0.4
		C637.9,556.6,637.5,556.7,637.1,557z M637.3,553.8c-0.2,0.2-0.4,0.5-0.4,0.9c0,0.4,0.1,0.7,0.3,0.9c0.3,0.3,0.7,0.4,1.2,0.4
		c0.5,0,1-0.1,1.2-0.4c0.2-0.2,0.3-0.5,0.3-0.9c0-0.3-0.1-0.6-0.4-0.9c-0.3-0.3-0.7-0.4-1.2-0.4C638,553.4,637.6,553.5,637.3,553.8z
		 M645.4,554.1c0.1,0.1,0.2,0.2,0.2,0.4c0,0.2-0.1,0.3-0.2,0.4c-0.1,0.1-0.3,0.2-0.4,0.2s-0.3-0.1-0.4-0.2c-0.1-0.1-0.2-0.3-0.2-0.4
		s0-0.3,0.2-0.4c0.1-0.1,0.3-0.2,0.4-0.2S645.3,554,645.4,554.1z M645.4,557.8c0.1,0.1,0.2,0.2,0.2,0.4c0,0.2-0.1,0.3-0.2,0.4
		c-0.1,0.1-0.3,0.2-0.4,0.2s-0.3-0.1-0.4-0.2c-0.1-0.1-0.2-0.3-0.2-0.4c0-0.2,0-0.3,0.2-0.4c0.1-0.1,0.3-0.2,0.4-0.2
		S645.3,557.6,645.4,557.8z M658.2,553.2c0.4,0.3,0.6,0.8,0.6,1.4c0,0.8-0.4,1.3-1.2,1.6c0.4,0.1,0.7,0.3,1,0.6
		c0.2,0.3,0.4,0.6,0.4,1c0,0.6-0.2,1.2-0.7,1.6c-0.5,0.4-1.1,0.6-1.8,0.6c-0.7,0-1.2-0.2-1.7-0.5c-0.5-0.4-0.8-1-0.8-1.8h0.8
		c0,0.6,0.2,1,0.6,1.3c0.3,0.2,0.7,0.4,1.1,0.4c0.5,0,0.9-0.1,1.2-0.4c0.3-0.3,0.4-0.6,0.4-1c0-0.4-0.1-0.8-0.4-1s-0.7-0.3-1.2-0.3
		H656V556h0.5c0.5,0,0.8-0.1,1.1-0.3c0.2-0.2,0.4-0.5,0.4-0.9s-0.1-0.7-0.4-0.9c-0.3-0.2-0.6-0.3-1.1-0.3c-0.5,0-0.8,0.1-1.1,0.4
		c-0.3,0.3-0.4,0.6-0.5,1.1h-0.8c0.1-0.7,0.3-1.2,0.8-1.6c0.4-0.4,1-0.6,1.6-0.6S657.8,552.9,658.2,553.2z M665.4,553.9
		c0.4,0.6,0.6,1.5,0.6,2.6s-0.2,1.9-0.6,2.6c-0.4,0.7-1.1,1.1-1.9,1.1c-0.9,0-1.5-0.4-1.9-1.1c-0.4-0.6-0.6-1.5-0.6-2.6
		s0.2-1.9,0.6-2.6c0.4-0.8,1.1-1.1,1.9-1.1C664.3,552.7,665,553.1,665.4,553.9z M662.1,554.5c-0.2,0.5-0.3,1.1-0.3,2
		c0,0.8,0.1,1.5,0.3,2c0.3,0.7,0.7,1,1.4,1s1.1-0.3,1.4-1c0.2-0.5,0.3-1.1,0.3-2c0-0.8-0.1-1.5-0.3-2c-0.3-0.7-0.7-1-1.4-1
		S662.4,553.8,662.1,554.5z M673,557.1v0.7h-5v-0.7H673z M679.3,553.3c0.4,0.4,0.6,0.9,0.6,1.5s-0.2,1.2-0.7,1.7
		c-0.2,0.3-0.7,0.6-1.5,1.1c-0.9,0.6-1.4,1.2-1.6,1.6h3.7v0.7h-4.8c0-0.6,0.2-1.2,0.7-1.8c0.3-0.3,0.8-0.7,1.5-1.3
		c0.6-0.4,0.9-0.7,1.1-0.9c0.4-0.4,0.5-0.8,0.5-1.3c0-0.4-0.1-0.8-0.4-1c-0.3-0.2-0.6-0.4-1.1-0.4c-0.5,0-0.9,0.2-1.1,0.5
		c-0.3,0.3-0.4,0.8-0.4,1.4h-0.8c0-0.8,0.2-1.4,0.7-1.9c0.4-0.5,1-0.7,1.7-0.7C678.3,552.7,678.8,552.9,679.3,553.3z M684.5,552.9
		v7.1h-0.8v-6.1c-0.4,0.5-1,0.8-1.7,1V554c0.3-0.1,0.7-0.2,1-0.4c0.3-0.2,0.6-0.5,0.9-0.7H684.5z M689.5,554.1
		c0.1,0.1,0.2,0.2,0.2,0.4c0,0.2-0.1,0.3-0.2,0.4c-0.1,0.1-0.3,0.2-0.4,0.2c-0.2,0-0.3-0.1-0.4-0.2c-0.1-0.1-0.2-0.3-0.2-0.4
		s0-0.3,0.2-0.4c0.1-0.1,0.3-0.2,0.4-0.2C689.2,553.9,689.4,554,689.5,554.1z M689.5,557.8c0.1,0.1,0.2,0.2,0.2,0.4
		c0,0.2-0.1,0.3-0.2,0.4c-0.1,0.1-0.3,0.2-0.4,0.2c-0.2,0-0.3-0.1-0.4-0.2c-0.1-0.1-0.2-0.3-0.2-0.4c0-0.2,0-0.3,0.2-0.4
		c0.1-0.1,0.3-0.2,0.4-0.2C689.2,557.6,689.4,557.6,689.5,557.8z M702.3,553.2c0.4,0.3,0.6,0.8,0.6,1.4c0,0.8-0.4,1.3-1.2,1.6
		c0.4,0.1,0.7,0.3,1,0.6c0.2,0.3,0.4,0.6,0.4,1c0,0.6-0.2,1.2-0.7,1.6c-0.5,0.4-1.1,0.6-1.8,0.6c-0.7,0-1.2-0.2-1.7-0.5
		c-0.5-0.4-0.8-1-0.8-1.8h0.8c0,0.6,0.2,1,0.6,1.3c0.3,0.2,0.7,0.4,1.1,0.4c0.5,0,0.9-0.1,1.2-0.4c0.3-0.3,0.4-0.6,0.4-1
		c0-0.4-0.1-0.8-0.4-1s-0.7-0.3-1.2-0.3h-0.6V556h0.5c0.5,0,0.8-0.1,1.1-0.3c0.2-0.2,0.4-0.5,0.4-0.9s-0.1-0.7-0.4-0.9
		c-0.3-0.2-0.6-0.3-1.1-0.3c-0.5,0-0.8,0.1-1.1,0.4c-0.3,0.3-0.4,0.6-0.5,1.1h-0.8c0.1-0.7,0.3-1.2,0.8-1.6c0.4-0.4,1-0.6,1.6-0.6
		S701.8,552.9,702.3,553.2z M709.5,553.9c0.4,0.6,0.6,1.5,0.6,2.6s-0.2,1.9-0.6,2.6c-0.4,0.7-1.1,1.1-1.9,1.1
		c-0.9,0-1.5-0.4-1.9-1.1c-0.4-0.6-0.6-1.5-0.6-2.6s0.2-1.9,0.6-2.6c0.4-0.8,1.1-1.1,1.9-1.1C708.4,552.7,709,553.1,709.5,553.9z
		 M706.2,554.5c-0.2,0.5-0.3,1.1-0.3,2c0,0.8,0.1,1.5,0.3,2c0.3,0.7,0.7,1,1.4,1s1.1-0.3,1.4-1c0.2-0.5,0.3-1.1,0.3-2
		c0-0.8-0.1-1.5-0.3-2c-0.3-0.7-0.7-1-1.4-1S706.4,553.8,706.2,554.5z"/>
	<path class="st2" d="M643,516.9v14.6h-1.5V529c-1.3,0.6-2.6,1-4,1.4l-0.4-1.5c1.5-0.3,3-0.8,4.4-1.5v-4.8h-4.1v-1.5h4.1v-4.3H643z
		 M647,531.4c-1.1,0-1.7-0.6-1.7-1.8v-12.7h1.5v5.2c1.3-0.5,2.6-1.1,3.7-2l0.9,1.2c-1.6,1-3.2,1.7-4.6,2.2v5.8
		c0,0.4,0.2,0.6,0.5,0.6h1.9c0.3,0,0.5-0.1,0.7-0.4c0.1-0.3,0.2-1.2,0.2-2.7l1.4,0.5c-0.1,1.9-0.3,3-0.5,3.4
		c-0.3,0.4-0.8,0.6-1.5,0.6H647z M659.3,527.7c-1,1.4-2.2,2.6-3.7,3.6l-1-1.2c1.4-1,2.6-2.1,3.6-3.4L659.3,527.7z M662.6,518.5h6.5
		v1.4h-14.3v-1.4h6.2c-0.2-0.5-0.4-1-0.6-1.4l1.6-0.3C662.2,517.3,662.4,517.9,662.6,518.5z M667.2,521.1v4.8h-4.5v4
		c0,1-0.5,1.6-1.6,1.6h-1.7l-0.4-1.5c0.5,0.1,1.1,0.1,1.6,0.1c0.4,0,0.6-0.2,0.6-0.6v-3.6h-4.6v-4.8H667.2z M665.7,522.6h-7.5v1.9
		h7.5V522.6z M669.1,530.2l-1.1,1.1c-0.8-1.1-2-2.3-3.5-3.6l1-1C666.9,527.9,668.1,529,669.1,530.2z M678.6,521
		c0.1-0.8,0.2-1.7,0.2-2.7v-1.4h1.5v1c0,1.1-0.1,2.1-0.2,3h6.5v1.5h-6.1c1.1,3.4,3.3,6.1,6.5,7.9l-0.9,1.2c-3.1-1.9-5.2-4.5-6.5-7.9
		c-1.1,3.7-3.2,6.4-6.5,8.1l-1-1.3c3.3-1.6,5.4-4.3,6.2-8h-5.9V521H678.6z M704,523.9h-1.5v-2.4h-10.8v2.4h-1.5V520h2.9
		c-0.5-0.9-1-1.6-1.6-2.3l1.4-0.7c0.5,0.7,1.1,1.6,1.6,2.5l-1,0.5h6c0.7-1,1.2-2.1,1.7-3.2l1.6,0.6c-0.5,1-1.1,1.9-1.6,2.6h2.9
		V523.9z M701.4,522.5v1.3c-1,0.7-2.1,1.3-3.4,1.9v0.6h6v1.4h-6v2.4c0,0.9-0.5,1.4-1.5,1.4h-2l-0.4-1.4c0.6,0,1.2,0,1.9,0
		c0.3,0,0.5-0.2,0.5-0.6v-1.9h-6.3v-1.4h6.3v-1.2c1.1-0.5,2-0.9,2.7-1.2h-6.5v-1.3H701.4z M698.2,519.3l-1.4,0.7
		c-0.5-1-1-1.8-1.5-2.6l1.4-0.7C697.2,517.5,697.7,518.4,698.2,519.3z"/>
	<path class="st2" d="M665.1,539.7v-1.8h0.7v1.8h3.9v0.7h-3.3c0.7,1.6,1.9,3,3.6,4.3l-0.5,0.6c-1.8-1.4-3-3.1-3.7-4.9h-0.1v3.9h2.1
		v0.7h-2.1v2h-0.7v-2h-2.1v-0.7h2.1v-3.9h-0.1c-0.7,2-2,3.7-3.8,5l-0.4-0.7c1.7-1.1,2.9-2.6,3.6-4.3h-3.3v-0.7H665.1z M674,541.6h1
		c0.3-0.5,0.5-1.1,0.7-1.8l0.7,0.2c-0.2,0.6-0.4,1.1-0.7,1.5h1.2v0.7h-5v-0.7h1.3c-0.2-0.5-0.4-1-0.6-1.4l0.7-0.2
		C673.6,540.3,673.8,540.9,674,541.6z M674.2,538.8c-0.1-0.3-0.2-0.6-0.4-0.9l0.7-0.1c0.1,0.3,0.2,0.6,0.3,1h2v0.7h-4.7v-0.7H674.2z
		 M676.6,546.9h-0.7v-0.6h-2.6v0.6h-0.7v-3.8h4V546.9z M675.8,545.7v-1.8h-2.6v1.8H675.8z M680.8,538.3v0.5c-0.3,1-0.6,2-1,2.9
		c0.7,0.9,1.1,1.7,1.1,2.3c0,0.6-0.1,1-0.4,1.3c-0.3,0.2-0.8,0.4-1.6,0.4l-0.2-0.8c0.3,0,0.5,0,0.7,0c0.4,0,0.6-0.1,0.7-0.2
		c0.1-0.1,0.1-0.4,0.2-0.7c0-0.6-0.4-1.4-1.2-2.3c0.3-0.8,0.7-1.7,1-2.8h-1.8v8.1h-0.7v-8.7H680.8z"/>
</g>
</svg>
