<?xml version="1.0" encoding="utf-8"?>
<!-- Generator: Adobe Illustrator 21.0.0, SVG Export Plug-In . SVG Version: 6.00 Build 0)  -->
<svg version="1.1" id="图层_1" xmlns="http://www.w3.org/2000/svg" xmlns:xlink="http://www.w3.org/1999/xlink" x="0px" y="0px"
	 viewBox="0 0 769 528" style="enable-background:new 0 0 769 528;" xml:space="preserve">
<style type="text/css">
	.st0{fill:#AAAAAA;}
	.st1{fill:#4F93E2;}
	.st2{fill:#ABABAB;}
</style>
<path class="st0" d="M632.2,316.8v7.1h-0.8v-6.1c-0.4,0.5-1,0.8-1.7,1V318c0.3-0.1,0.7-0.2,1-0.4c0.3-0.2,0.6-0.5,0.9-0.7H632.2z
	 M639.2,317.6c0.4,0.6,0.6,1.5,0.6,2.6c0,1.1-0.2,2.1-0.7,2.8c-0.5,0.7-1.1,1.1-1.9,1.1c-1.3,0-2.1-0.6-2.3-1.9h0.8
	c0.1,0.8,0.6,1.2,1.5,1.2c0.5,0,1-0.3,1.3-0.8c0.3-0.5,0.5-1.2,0.5-2c0,0,0-0.1,0-0.3h0c-0.2,0.4-0.4,0.6-0.8,0.9
	c-0.3,0.2-0.7,0.3-1.1,0.3c-0.7,0-1.2-0.2-1.7-0.7c-0.4-0.4-0.6-1-0.6-1.7c0-0.7,0.2-1.3,0.7-1.7c0.4-0.5,1-0.7,1.7-0.7
	C638.1,316.7,638.7,317,639.2,317.6z M636.1,317.8c-0.3,0.3-0.4,0.7-0.4,1.3c0,0.5,0.1,0.9,0.4,1.2c0.3,0.3,0.7,0.5,1.2,0.5
	c0.5,0,0.8-0.2,1.2-0.5c0.3-0.3,0.5-0.7,0.5-1.2c0-0.5-0.1-0.9-0.4-1.2c-0.3-0.3-0.7-0.5-1.2-0.5
	C636.8,317.3,636.4,317.5,636.1,317.8z M644.2,318c0.1,0.1,0.2,0.2,0.2,0.4c0,0.2-0.1,0.3-0.2,0.4c-0.1,0.1-0.3,0.2-0.4,0.2
	c-0.2,0-0.3-0.1-0.4-0.2c-0.1-0.1-0.2-0.3-0.2-0.4c0-0.2,0-0.3,0.2-0.4c0.1-0.1,0.3-0.2,0.4-0.2C644,317.9,644.1,317.9,644.2,318z
	 M644.2,321.7c0.1,0.1,0.2,0.2,0.2,0.4c0,0.2-0.1,0.3-0.2,0.4c-0.1,0.1-0.3,0.2-0.4,0.2c-0.2,0-0.3-0.1-0.4-0.2
	c-0.1-0.1-0.2-0.3-0.2-0.4c0-0.2,0-0.3,0.2-0.4c0.1-0.1,0.3-0.2,0.4-0.2C644,321.5,644.1,321.6,644.2,321.7z M657.2,317.8
	c0.4,0.6,0.6,1.5,0.6,2.6s-0.2,1.9-0.6,2.6c-0.4,0.7-1.1,1.1-1.9,1.1c-0.9,0-1.5-0.4-1.9-1.1c-0.4-0.6-0.6-1.5-0.6-2.6
	s0.2-1.9,0.6-2.6c0.4-0.8,1.1-1.1,1.9-1.1C656.2,316.7,656.8,317,657.2,317.8z M653.9,318.4c-0.2,0.5-0.3,1.1-0.3,2
	c0,0.8,0.1,1.5,0.3,2c0.3,0.7,0.7,1,1.4,1s1.1-0.3,1.4-1c0.2-0.5,0.3-1.1,0.3-2c0-0.8-0.1-1.5-0.3-2c-0.3-0.7-0.7-1-1.4-1
	S654.2,317.7,653.9,318.4z M664.2,317.8c0.4,0.6,0.6,1.5,0.6,2.6s-0.2,1.9-0.6,2.6c-0.4,0.7-1.1,1.1-1.9,1.1c-0.9,0-1.5-0.4-1.9-1.1
	c-0.4-0.6-0.6-1.5-0.6-2.6s0.2-1.9,0.6-2.6c0.4-0.8,1.1-1.1,1.9-1.1C663.2,316.7,663.8,317,664.2,317.8z M660.9,318.4
	c-0.2,0.5-0.3,1.1-0.3,2c0,0.8,0.1,1.5,0.3,2c0.3,0.7,0.7,1,1.4,1s1.1-0.3,1.4-1c0.2-0.5,0.3-1.1,0.3-2c0-0.8-0.1-1.5-0.3-2
	c-0.3-0.7-0.7-1-1.4-1S661.2,317.7,660.9,318.4z M671.8,321v0.7h-5V321H671.8z M678.1,317.2c0.4,0.4,0.6,0.9,0.6,1.5
	s-0.2,1.2-0.7,1.7c-0.2,0.3-0.7,0.6-1.5,1.1c-0.9,0.6-1.4,1.2-1.6,1.6h3.7v0.7H674c0-0.6,0.2-1.2,0.7-1.8c0.3-0.3,0.8-0.7,1.5-1.3
	c0.6-0.4,0.9-0.7,1.1-0.9c0.4-0.4,0.5-0.8,0.5-1.3c0-0.4-0.1-0.8-0.4-1c-0.3-0.2-0.6-0.4-1.1-0.4c-0.5,0-0.9,0.2-1.1,0.5
	c-0.3,0.3-0.4,0.8-0.4,1.4H674c0-0.8,0.2-1.4,0.7-1.9c0.4-0.5,1-0.7,1.7-0.7C677.1,316.7,677.7,316.8,678.1,317.2z M683.3,316.8v7.1
	h-0.8v-6.1c-0.4,0.5-1,0.8-1.7,1V318c0.3-0.1,0.7-0.2,1-0.4c0.3-0.2,0.6-0.5,0.9-0.7H683.3z M688.3,318c0.1,0.1,0.2,0.2,0.2,0.4
	c0,0.2-0.1,0.3-0.2,0.4c-0.1,0.1-0.3,0.2-0.4,0.2s-0.3-0.1-0.4-0.2c-0.1-0.1-0.2-0.3-0.2-0.4c0-0.2,0-0.3,0.2-0.4
	c0.1-0.1,0.3-0.2,0.4-0.2S688.2,317.9,688.3,318z M688.3,321.7c0.1,0.1,0.2,0.2,0.2,0.4c0,0.2-0.1,0.3-0.2,0.4
	c-0.1,0.1-0.3,0.2-0.4,0.2s-0.3-0.1-0.4-0.2c-0.1-0.1-0.2-0.3-0.2-0.4c0-0.2,0-0.3,0.2-0.4c0.1-0.1,0.3-0.2,0.4-0.2
	S688.2,321.6,688.3,321.7z M701.1,317.2c0.4,0.3,0.6,0.8,0.6,1.4c0,0.8-0.4,1.3-1.2,1.6c0.4,0.1,0.7,0.3,1,0.6
	c0.2,0.3,0.4,0.6,0.4,1c0,0.6-0.2,1.2-0.7,1.6c-0.5,0.4-1.1,0.6-1.8,0.6c-0.7,0-1.2-0.2-1.7-0.5c-0.5-0.4-0.8-1-0.8-1.8h0.8
	c0,0.6,0.2,1,0.6,1.3c0.3,0.2,0.7,0.4,1.1,0.4c0.5,0,0.9-0.1,1.2-0.4c0.3-0.3,0.4-0.6,0.4-1c0-0.4-0.1-0.8-0.4-1s-0.7-0.3-1.2-0.3
	h-0.6v-0.6h0.5c0.5,0,0.8-0.1,1.1-0.3c0.2-0.2,0.4-0.5,0.4-0.9s-0.1-0.7-0.4-0.9c-0.3-0.2-0.6-0.3-1.1-0.3c-0.5,0-0.8,0.1-1.1,0.4
	c-0.3,0.3-0.4,0.6-0.5,1.1H697c0.1-0.7,0.3-1.2,0.8-1.6c0.4-0.4,1-0.6,1.6-0.6S700.7,316.8,701.1,317.2z M708.3,317.8
	c0.4,0.6,0.6,1.5,0.6,2.6s-0.2,1.9-0.6,2.6c-0.4,0.7-1.1,1.1-1.9,1.1c-0.9,0-1.5-0.4-1.9-1.1c-0.4-0.6-0.6-1.5-0.6-2.6
	s0.2-1.9,0.6-2.6c0.4-0.8,1.1-1.1,1.9-1.1C707.2,316.7,707.9,317,708.3,317.8z M705,318.4c-0.2,0.5-0.3,1.1-0.3,2
	c0,0.8,0.1,1.5,0.3,2c0.3,0.7,0.7,1,1.4,1s1.1-0.3,1.4-1c0.2-0.5,0.3-1.1,0.3-2c0-0.8-0.1-1.5-0.3-2c-0.3-0.7-0.7-1-1.4-1
	S705.3,317.7,705,318.4z"/>
<path class="st1" d="M769,458.5H20.5C9.2,458.5,0,449.3,0,438V291c0-11.3,9.2-20.5,20.5-20.5h723c13.5,0,24.5-11,24.5-24.5V105
	c0-13.5-11-24.5-24.5-24.5H0v-1h743.5c14.1,0,25.5,11.4,25.5,25.5v141c0,14.1-11.4,25.5-25.5,25.5h-723C9.7,271.5,1,280.2,1,291v147
	c0,10.7,8.7,19.5,19.5,19.5H769V458.5z"/>
<path class="st2" d="M78.1,36.6c0.9,1.7,2.1,3.1,3.9,4.2l-0.8,1.1c-0.5-0.3-0.9-0.6-1.3-1v1.2H75v-1.2c-0.4,0.4-0.8,0.7-1.2,1
	l-0.4-0.7v6.5h-1.2V47h-1.4v1h-1.3V37.6h3.9v3c1.5-1.1,2.7-2.4,3.6-4H78.1z M72.1,45.9v-7.1h-1.4v7.1H72.1z M80.6,49.5h-1.3v-0.7
	h-3.7v0.7h-1.3v-5.8h6.2v5.8H80.6z M79.9,40.9c-0.9-0.9-1.7-1.9-2.4-3c-0.7,1.2-1.5,2.2-2.4,3H79.9z M79.3,47.5v-2.6h-3.7v2.6H79.3z
	 M88.8,43.1c-0.8,2-1.8,3.6-3,5.1l-1.1-0.8c1.1-1.3,2.1-3,2.9-4.8L88.8,43.1z M85.9,42.3L85,41.4c1.3-1.4,2.2-3.1,2.7-5l1.3,0.3
	c-0.1,0.5-0.3,1-0.5,1.4h7.7V39c-0.2,1-0.5,2-0.8,3l-1.3-0.4c0.3-0.6,0.5-1.4,0.7-2.2H88C87.4,40.5,86.7,41.5,85.9,42.3z M88.4,49.4
	l-0.3-1.3c0.6,0.1,1.1,0.1,1.6,0.1c0.4,0,0.5-0.2,0.5-0.6v-7.2h1.3v7.5c0,1-0.5,1.5-1.4,1.5H88.4z M96.9,47.9l-1.2,0.6
	c-0.8-2-1.7-3.9-2.7-5.4l1.2-0.4C95.2,44.2,96.1,46,96.9,47.9z M103,42l-0.9,1c-0.5-0.6-1.3-1.3-2.2-2.1l1-0.9
	C101.7,40.7,102.4,41.3,103,42z M103.1,44.4c-0.5,1.7-1.2,3.3-1.8,4.8l-1.2-0.5c0.7-1.5,1.4-3.1,1.9-4.8L103.1,44.4z M103.3,38.4
	l-0.9,1c-0.5-0.6-1.3-1.2-2.2-1.8l1-0.9C102,37.2,102.7,37.8,103.3,38.4z M107.3,47.5c-0.8,0.7-1.9,1.4-3.1,1.9l-0.8-1.1
	c1.2-0.5,2.2-1.1,3-1.7L107.3,47.5z M110.7,40.8c-1.3,0.3-2.8,0.6-4.5,0.8v0.6h5.4v1.2h-1.1v1.9h2.1v1.3h-9.1v-1.3h1.3v-4.7
	c2.1-0.2,3.8-0.5,5.1-1L110.7,40.8z M112.3,40.4H111v-1.5h-6.1v1.5h-1.3v-2.7h3.6c-0.2-0.4-0.3-0.7-0.5-1l1.3-0.2
	c0.2,0.4,0.4,0.8,0.5,1.2h3.7v2.7H112.3z M109.3,45.2v-1.9h-3v1.9H109.3z M112.6,48.4l-0.8,1.1c-1-0.8-2-1.4-3-1.9l0.7-1
	C110.6,47.1,111.6,47.7,112.6,48.4z"/>
<path class="st2" d="M69.6,16.1c0.6,0.9,0.9,2,0.9,3.6s-0.3,2.9-1,4c-0.7,1-1.6,1.5-2.7,1.5c-1.9,0-3-0.9-3.3-2.7H65
	c0.2,1,0.8,1.5,1.8,1.5c0.7,0,1.2-0.4,1.7-1c0.4-0.6,0.6-1.5,0.6-2.4c0-0.1,0-0.1,0-0.2H69c-0.3,0.4-0.6,0.8-1.1,1
	c-0.4,0.2-0.9,0.3-1.4,0.3c-1,0-1.8-0.3-2.4-1c-0.6-0.6-0.9-1.4-0.9-2.4s0.3-1.8,1-2.5c0.7-0.7,1.5-1,2.5-1
	C68.1,14.8,69,15.2,69.6,16.1z M65.4,16.7c-0.4,0.4-0.6,0.9-0.6,1.6s0.2,1.1,0.6,1.5s0.8,0.6,1.5,0.6c0.6,0,1.1-0.2,1.5-0.6
	s0.5-0.9,0.5-1.6s-0.2-1.2-0.6-1.6S67.4,16,66.8,16C66.3,16.1,65.8,16.3,65.4,16.7z M75.4,26.5l-1-0.9c0.9-1.2,1.3-2.8,1.4-4.7V14
	h8.3v11c0,0.9-0.5,1.3-1.4,1.3h-1.8L80.6,25c0.6,0,1.2,0.1,1.7,0.1c0.3,0,0.4-0.2,0.4-0.6V22H77C76.8,23.9,76.3,25.3,75.4,26.5z
	 M82.8,15.3h-5.7v2.1h5.7V15.3z M77.1,20.8h5.7v-2.2h-5.7V20.8z M92.3,15v10h-1.5v-8.2c-0.6,0.6-1.4,1-2.3,1.3v-1.5
	c0.4-0.1,0.9-0.3,1.4-0.6s0.9-0.6,1.3-1C91.2,15,92.3,15,92.3,15z M101.8,15.6c0.6,0.5,0.8,1.1,0.8,1.9c0,0.5-0.1,1-0.3,1.3
	c-0.3,0.4-0.6,0.7-1.1,0.9l0,0c0.5,0.1,0.9,0.4,1.2,0.8c0.4,0.5,0.6,1,0.6,1.7c0,0.9-0.3,1.6-1,2.2c-0.7,0.5-1.6,0.8-2.8,0.8
	c-1.2,0-2.1-0.3-2.8-0.8c-0.6-0.6-1-1.3-1-2.2c0-0.6,0.2-1.2,0.6-1.7c0.3-0.4,0.7-0.7,1.2-0.8l0,0c-0.5-0.2-0.9-0.5-1.1-0.9
	s-0.3-0.8-0.3-1.3c0-0.7,0.3-1.4,0.8-1.9c0.6-0.6,1.5-0.8,2.5-0.8S101.2,15.1,101.8,15.6z M97.6,20.9c-0.4,0.3-0.6,0.8-0.6,1.3
	s0.2,0.9,0.6,1.3c0.4,0.3,0.9,0.5,1.6,0.5s1.3-0.2,1.7-0.5c0.4-0.3,0.5-0.7,0.5-1.3c0-0.6-0.2-1-0.5-1.3c-0.4-0.4-0.9-0.5-1.7-0.5
	S98,20.5,97.6,20.9z M97.8,16.5c-0.3,0.3-0.5,0.6-0.5,1.1s0.1,0.9,0.4,1.1c0.3,0.3,0.8,0.5,1.6,0.5c0.7,0,1.2-0.2,1.6-0.5
	c0.3-0.3,0.4-0.7,0.4-1.1s-0.2-0.8-0.5-1.1c-0.4-0.3-0.9-0.5-1.5-0.5S98.2,16.2,97.8,16.5z M116.5,26.4h-1.3v-1h-6.3v1h-1.3V14h9
	L116.5,26.4L116.5,26.4z M115.2,18.9v-3.6h-6.3v3.6H115.2z M115.2,24.1v-3.9h-6.3v3.9H115.2z"/>
<path class="st2" d="M53.9,126.9v7.1h-0.8v-6.1c-0.4,0.5-1,0.8-1.7,1V128c0.3-0.1,0.7-0.2,1-0.4c0.3-0.2,0.6-0.5,0.9-0.7H53.9z
	 M60.7,127.3c0.4,0.3,0.6,0.8,0.6,1.3c0,0.4-0.1,0.7-0.3,1s-0.5,0.5-0.8,0.6l0,0c0.4,0.1,0.7,0.3,0.9,0.6c0.3,0.3,0.4,0.7,0.4,1.2
	c0,0.6-0.2,1.1-0.7,1.5s-1.1,0.6-1.9,0.6c-0.8,0-1.5-0.2-1.9-0.6c-0.4-0.4-0.7-0.9-0.7-1.5c0-0.5,0.1-0.9,0.4-1.2
	c0.3-0.3,0.6-0.5,0.9-0.6l0,0c-0.4-0.1-0.7-0.3-0.8-0.6c-0.2-0.3-0.3-0.6-0.3-1c0-0.5,0.2-1,0.6-1.3c0.4-0.4,1-0.6,1.7-0.6
	C59.7,126.7,60.3,126.9,60.7,127.3z M57.6,131c-0.3,0.3-0.4,0.6-0.4,1s0.1,0.8,0.4,1c0.3,0.3,0.7,0.4,1.3,0.4s1-0.1,1.3-0.4
	c0.3-0.3,0.4-0.6,0.4-1s-0.1-0.8-0.4-1c-0.3-0.3-0.8-0.4-1.3-0.4C58.4,130.6,58,130.7,57.6,131z M57.8,127.8
	c-0.2,0.2-0.4,0.5-0.4,0.9s0.1,0.7,0.3,0.9c0.3,0.3,0.7,0.4,1.2,0.4s1-0.1,1.2-0.4c0.2-0.2,0.3-0.5,0.3-0.9c0-0.3-0.1-0.6-0.4-0.9
	c-0.3-0.3-0.7-0.4-1.2-0.4C58.5,127.4,58.1,127.5,57.8,127.8z M65.9,128.1c0.1,0.1,0.2,0.2,0.2,0.4s-0.1,0.3-0.2,0.4
	c-0.1,0.1-0.3,0.2-0.4,0.2s-0.3-0.1-0.4-0.2c-0.1-0.1-0.2-0.3-0.2-0.4s0-0.3,0.2-0.4c0.1-0.1,0.3-0.2,0.4-0.2S65.8,128,65.9,128.1z
	 M65.9,131.8c0.1,0.1,0.2,0.2,0.2,0.4s-0.1,0.3-0.2,0.4c-0.1,0.1-0.3,0.2-0.4,0.2s-0.3-0.1-0.4-0.2c-0.1-0.1-0.2-0.3-0.2-0.4
	s0-0.3,0.2-0.4c0.1-0.1,0.3-0.2,0.4-0.2S65.8,131.6,65.9,131.8z M78.7,127.2c0.4,0.3,0.6,0.8,0.6,1.4c0,0.8-0.4,1.3-1.2,1.6
	c0.4,0.1,0.7,0.3,1,0.6c0.2,0.3,0.4,0.6,0.4,1c0,0.6-0.2,1.2-0.7,1.6c-0.5,0.4-1.1,0.6-1.8,0.6c-0.7,0-1.2-0.2-1.7-0.5
	c-0.5-0.4-0.8-1-0.8-1.8h0.8c0,0.6,0.2,1,0.6,1.3c0.3,0.2,0.7,0.4,1.1,0.4c0.5,0,0.9-0.1,1.2-0.4c0.3-0.3,0.4-0.6,0.4-1
	s-0.1-0.8-0.4-1s-0.7-0.3-1.2-0.3h-0.6V130H77c0.5,0,0.8-0.1,1.1-0.3c0.2-0.2,0.4-0.5,0.4-0.9s-0.1-0.7-0.4-0.9
	c-0.3-0.2-0.6-0.3-1.1-0.3s-0.8,0.1-1.1,0.4c-0.3,0.3-0.4,0.6-0.5,1.1h-0.8c0.1-0.7,0.3-1.2,0.8-1.6c0.4-0.4,1-0.6,1.6-0.6
	S78.3,126.9,78.7,127.2z M85.9,127.9c0.4,0.6,0.6,1.5,0.6,2.6s-0.2,1.9-0.6,2.6c-0.4,0.7-1.1,1.1-1.9,1.1c-0.9,0-1.5-0.4-1.9-1.1
	c-0.4-0.6-0.6-1.5-0.6-2.6s0.2-1.9,0.6-2.6c0.4-0.8,1.1-1.1,1.9-1.1C84.8,126.7,85.5,127.1,85.9,127.9z M82.6,128.5
	c-0.2,0.5-0.3,1.1-0.3,2c0,0.8,0.1,1.5,0.3,2c0.3,0.7,0.7,1,1.4,1s1.1-0.3,1.4-1c0.2-0.5,0.3-1.1,0.3-2c0-0.8-0.1-1.5-0.3-2
	c-0.3-0.7-0.7-1-1.4-1S82.9,127.8,82.6,128.5z M93.5,131.1v0.7h-5v-0.7H93.5z M99.8,127.3c0.4,0.4,0.6,0.9,0.6,1.5s-0.2,1.2-0.7,1.7
	c-0.2,0.3-0.7,0.6-1.5,1.1c-0.9,0.6-1.4,1.2-1.6,1.6h3.7v0.7h-4.8c0-0.6,0.2-1.2,0.7-1.8c0.3-0.3,0.8-0.7,1.5-1.3
	c0.6-0.4,0.9-0.7,1.1-0.9c0.4-0.4,0.5-0.8,0.5-1.3c0-0.4-0.1-0.8-0.4-1s-0.6-0.4-1.1-0.4s-0.9,0.2-1.1,0.5c-0.3,0.3-0.4,0.8-0.4,1.4
	h-0.8c0-0.8,0.2-1.4,0.7-1.9c0.4-0.5,1-0.7,1.7-0.7C98.8,126.7,99.3,126.9,99.8,127.3z M105,126.9v7.1h-0.8v-6.1
	c-0.4,0.5-1,0.8-1.7,1V128c0.3-0.1,0.7-0.2,1-0.4c0.3-0.2,0.6-0.5,0.9-0.7H105z M110,128.1c0.1,0.1,0.2,0.2,0.2,0.4
	s-0.1,0.3-0.2,0.4c-0.1,0.1-0.3,0.2-0.4,0.2s-0.3-0.1-0.4-0.2c-0.1-0.1-0.2-0.3-0.2-0.4s0-0.3,0.2-0.4c0.1-0.1,0.3-0.2,0.4-0.2
	S109.9,128,110,128.1z M110,131.8c0.1,0.1,0.2,0.2,0.2,0.4s-0.1,0.3-0.2,0.4c-0.1,0.1-0.3,0.2-0.4,0.2s-0.3-0.1-0.4-0.2
	c-0.1-0.1-0.2-0.3-0.2-0.4s0-0.3,0.2-0.4c0.1-0.1,0.3-0.2,0.4-0.2S109.9,131.6,110,131.8z M122.8,127.2c0.4,0.3,0.6,0.8,0.6,1.4
	c0,0.8-0.4,1.3-1.2,1.6c0.4,0.1,0.7,0.3,1,0.6c0.2,0.3,0.4,0.6,0.4,1c0,0.6-0.2,1.2-0.7,1.6c-0.5,0.4-1.1,0.6-1.8,0.6
	c-0.7,0-1.2-0.2-1.7-0.5c-0.5-0.4-0.8-1-0.8-1.8h0.8c0,0.6,0.2,1,0.6,1.3c0.3,0.2,0.7,0.4,1.1,0.4c0.5,0,0.9-0.1,1.2-0.4
	c0.3-0.3,0.4-0.6,0.4-1s-0.1-0.8-0.4-1s-0.7-0.3-1.2-0.3h-0.6V130h0.5c0.5,0,0.8-0.1,1.1-0.3c0.2-0.2,0.4-0.5,0.4-0.9
	s-0.1-0.7-0.4-0.9c-0.3-0.2-0.6-0.3-1.1-0.3s-0.8,0.1-1.1,0.4c-0.3,0.3-0.4,0.6-0.5,1.1h-0.8c0.1-0.7,0.3-1.2,0.8-1.6
	c0.4-0.4,1-0.6,1.6-0.6S122.3,126.9,122.8,127.2z M130,127.9c0.4,0.6,0.6,1.5,0.6,2.6s-0.2,1.9-0.6,2.6c-0.4,0.7-1.1,1.1-1.9,1.1
	c-0.9,0-1.5-0.4-1.9-1.1c-0.4-0.6-0.6-1.5-0.6-2.6s0.2-1.9,0.6-2.6c0.4-0.8,1.1-1.1,1.9-1.1C128.9,126.7,129.5,127.1,130,127.9z
	 M126.7,128.5c-0.2,0.5-0.3,1.1-0.3,2c0,0.8,0.1,1.5,0.3,2c0.3,0.7,0.7,1,1.4,1s1.1-0.3,1.4-1c0.2-0.5,0.3-1.1,0.3-2
	c0-0.8-0.1-1.5-0.3-2c-0.3-0.7-0.7-1-1.4-1S126.9,127.8,126.7,128.5z"/>
<path class="st1" d="M41,91c1,1.9,2.4,3.5,4.4,4.8l-0.9,1.3c-0.5-0.4-1-0.7-1.5-1.2v1.3h-5.6v-1.3c-0.5,0.4-0.9,0.8-1.4,1.2
	l-0.5-0.8v7.4h-1.4V103h-1.6v1.1H31v-12h4.5v3.5c1.7-1.2,3-2.8,4.1-4.6H41z M34.1,101.6v-8.1h-1.6v8.1H34.1z M43.9,105.7h-1.5v-0.8
	h-4.2v0.8h-1.4V99h7.1C43.9,99,43.9,105.7,43.9,105.7z M43,95.8c-1.1-1-2-2.1-2.7-3.5c-0.8,1.3-1.7,2.5-2.8,3.5H43z M42.4,103.4v-3
	h-4.2v3H42.4z M53.2,98.4c-1,2.2-2.1,4.2-3.4,5.8l-1.2-0.9c1.3-1.5,2.4-3.4,3.3-5.5L53.2,98.4z M49.9,97.5l-1.1-1
	c1.5-1.6,2.5-3.5,3.1-5.8l1.5,0.4c-0.2,0.6-0.3,1.1-0.5,1.6h8.8v1c-0.2,1.1-0.5,2.3-0.9,3.4l-1.5-0.4c0.3-0.7,0.6-1.6,0.8-2.5h-7.8
	C51.6,95.5,50.8,96.6,49.9,97.5z M52.7,105.6l-0.3-1.5c0.6,0.1,1.2,0.1,1.8,0.1c0.4,0,0.6-0.2,0.6-0.7v-8.2h1.5v8.6
	c0,1.1-0.5,1.7-1.6,1.7H52.7z M62.5,103.8l-1.4,0.6c-0.9-2.3-2-4.4-3.1-6.2l1.4-0.5C60.5,99.7,61.6,101.7,62.5,103.8z M69.5,97.2
	l-1.1,1.1c-0.6-0.7-1.5-1.5-2.5-2.4l1.1-1.1C67.9,95.6,68.8,96.4,69.5,97.2z M69.6,99.9c-0.6,2-1.3,3.8-2.1,5.5l-1.4-0.6
	c0.8-1.8,1.6-3.6,2.2-5.4L69.6,99.9z M69.8,93.1l-1.1,1.1c-0.6-0.7-1.4-1.4-2.5-2.1l1.1-1.1C68.3,91.7,69.1,92.4,69.8,93.1z
	 M74.4,103.5c-1,0.8-2.1,1.6-3.5,2.2l-0.9-1.2c1.3-0.6,2.5-1.2,3.4-2L74.4,103.5z M78.3,95.7c-1.5,0.4-3.2,0.7-5.1,0.9v0.7h6.2v1.4
	h-1.2v2.1h2.4v1.4H70.1v-1.4h1.5v-5.3c2.4-0.2,4.4-0.6,5.9-1.1L78.3,95.7z M80.1,95.3h-1.5v-1.7h-7v1.7h-1.5v-3.1h4.2
	c-0.2-0.4-0.4-0.8-0.6-1.1l1.5-0.3c0.2,0.4,0.4,0.9,0.6,1.4H80v3.1H80.1z M76.6,100.8v-2.1h-3.5v2.1H76.6z M80.4,104.4l-0.9,1.3
	c-1.1-0.9-2.3-1.6-3.5-2.2l0.8-1.1C78.1,103,79.3,103.7,80.4,104.4z M84.6,93.3v-1.5H97v1.5h-5.5v10.2h6.1v1.5h-14v-1.5H90V93.3
	H84.6z M107.3,91v12.6h1.9V91h1.5v12.6h4.7v1.5h-14.3v-1.5h4.6V91H107.3z M105,101.3l-1.4,0.4c-0.5-2.5-1.2-4.9-2.1-7.3l1.3-0.4
	C103.6,96.1,104.3,98.5,105,101.3z M115.1,94.4c-0.6,2.8-1.4,5.2-2.4,7.2l-1.4-0.5c0.9-1.9,1.7-4.2,2.4-7.1L115.1,94.4z M125,95
	c0.1-0.8,0.2-1.7,0.2-2.7v-1.4h1.5v1c0,1.1-0.1,2.1-0.2,3h6.5v1.5h-6.1c1.1,3.4,3.3,6.1,6.5,7.9l-0.9,1.2c-3.1-1.9-5.2-4.5-6.5-7.9
	c-1.1,3.7-3.2,6.4-6.5,8.1l-1-1.3c3.3-1.6,5.4-4.3,6.2-8h-5.9V95H125z M150.4,97.9h-1.5v-2.4h-10.8v2.4h-1.5V94h2.9
	c-0.5-0.9-1-1.6-1.6-2.3l1.4-0.7c0.5,0.7,1.1,1.6,1.6,2.5l-1,0.5h6c0.7-1,1.2-2.1,1.7-3.2l1.6,0.6c-0.5,1-1.1,1.9-1.6,2.6h2.9
	L150.4,97.9L150.4,97.9z M147.8,96.5v1.3c-1,0.7-2.1,1.3-3.4,1.9v0.6h6v1.4h-6v2.4c0,0.9-0.5,1.4-1.5,1.4h-2l-0.4-1.4
	c0.6,0,1.2,0,1.9,0c0.3,0,0.5-0.2,0.5-0.6v-1.9h-6.3v-1.4h6.3V99c1.1-0.5,2-0.9,2.7-1.2h-6.5v-1.3C139.1,96.5,147.8,96.5,147.8,96.5
	z M144.6,93.3l-1.4,0.7c-0.5-1-1-1.8-1.5-2.6l1.4-0.7C143.6,91.5,144.1,92.4,144.6,93.3z"/>
<path class="st1" d="M58.1,113.7v-1.8h0.7v1.8h3.9v0.7h-3.3c0.7,1.6,1.9,3,3.6,4.3l-0.5,0.6c-1.8-1.4-3-3.1-3.7-4.9h-0.1v3.9H61v0.7
	h-2.1v2h-0.7v-2h-2.1v-0.7h2.1v-3.9h-0.1c-0.7,2-2,3.7-3.8,5l-0.4-0.7c1.7-1.1,2.9-2.6,3.6-4.3h-3.3v-0.7H58.1z M67,115.6h1
	c0.3-0.5,0.5-1.1,0.7-1.8l0.7,0.2c-0.2,0.6-0.4,1.1-0.7,1.5H70v0.7h-5v-0.7h1.3c-0.2-0.5-0.4-1-0.6-1.4l0.7-0.2
	C66.6,114.3,66.8,114.9,67,115.6z M67.2,112.8c-0.1-0.3-0.2-0.6-0.4-0.9l0.7-0.1c0.1,0.3,0.2,0.6,0.3,1h2v0.7h-4.7v-0.7H67.2z
	 M69.6,120.9h-0.7v-0.6h-2.6v0.6h-0.7v-3.8h4C69.6,117.1,69.6,120.9,69.6,120.9z M68.8,119.7v-1.8h-2.6v1.8H68.8z M73.8,112.3v0.5
	c-0.3,1-0.6,2-1,2.9c0.7,0.9,1.1,1.7,1.1,2.3c0,0.6-0.1,1-0.4,1.3c-0.3,0.2-0.8,0.4-1.6,0.4l-0.2-0.8c0.3,0,0.5,0,0.7,0
	c0.4,0,0.6-0.1,0.7-0.2s0.1-0.4,0.2-0.7c0-0.6-0.4-1.4-1.2-2.3c0.3-0.8,0.7-1.7,1-2.8h-1.8v8.1h-0.7v-8.7
	C70.6,112.3,73.8,112.3,73.8,112.3z M84.7,111.7c-0.4,0.7-0.7,1.3-0.9,2.1c-0.3,0.9-0.4,1.7-0.4,2.6c0,0.8,0.1,1.7,0.4,2.6
	c0.2,0.7,0.5,1.4,0.9,2.1H84c-0.4-0.6-0.8-1.3-1-2.1c-0.3-0.9-0.4-1.7-0.4-2.6s0.1-1.8,0.4-2.6c0.2-0.7,0.6-1.4,1-2.1H84.7z
	 M96,112.3v0.7h-3v1.5h2.4v6.4h-0.7v-0.4h-6.3v0.4h-0.7v-6.4H90V113h-3v-0.7H96z M94.7,119.8v-1.6h-1.4c-0.7,0-1-0.3-1-1v-2.1h-1.5
	v0.2c0,1.6-0.6,2.7-1.6,3.5l-0.6-0.5c1-0.6,1.5-1.6,1.5-3v-0.2h-1.7v4.6L94.7,119.8L94.7,119.8z M90.7,114.5h1.5V113h-1.5V114.5z
	 M92.9,117.1c0,0.3,0.1,0.5,0.5,0.5h1.3v-2.4H93v1.9H92.9z M99.5,113.8v-1.9h0.7v1.9h1v0.7h-1v0.8c0.3,0.4,0.7,0.8,1,1.3
	c0.6-0.7,1.1-1.5,1.5-2.4l0.6,0.3c-0.5,1-1,1.8-1.6,2.5l-0.4-0.3l0.2,0.3l-0.4,0.6c-0.4-0.7-0.7-1.3-1-1.7v5h-0.7v-5.1
	c-0.3,1-0.8,1.9-1.3,2.7l-0.3-0.8c0.7-1,1.3-2,1.6-3.3h-1.3v-0.7L99.5,113.8L99.5,113.8z M105.7,116.2c-0.2,1.1-0.5,2-1.1,2.7
	c0.6,0.6,1.5,1,2.5,1.4l-0.4,0.6c-1-0.4-1.9-0.9-2.5-1.5c-0.7,0.7-1.6,1.3-2.7,1.6l-0.4-0.6c1.1-0.3,1.9-0.8,2.6-1.4
	c-0.6-0.7-1-1.6-1.2-2.6l0.6-0.2c0.1,0.8,0.5,1.6,1,2.3c0.4-0.6,0.7-1.4,0.9-2.3H105.7z M103.9,113.1c-0.2-0.5-0.4-0.9-0.6-1.3
	l0.7-0.1c0.2,0.4,0.4,0.9,0.6,1.4h2.2v0.7h-5.4v-0.7H103.9z M107.1,116.6l-0.6,0.4c-0.4-0.7-1-1.5-1.7-2.4l0.6-0.3
	C106.1,115.1,106.7,115.9,107.1,116.6z M117.6,112.2v0.7h-7.2v7h7.5v0.7h-8.2v-8.3L117.6,112.2L117.6,112.2z M114.4,116
	c0.6-0.7,1.1-1.6,1.5-2.5l0.6,0.3c-0.4,1-1,1.9-1.6,2.7c0.8,0.7,1.5,1.4,2.1,2.1l-0.6,0.6c-0.6-0.7-1.3-1.4-2-2.1
	c-0.9,0.9-1.9,1.7-3,2.2l-0.4-0.6c1.1-0.5,2.1-1.1,2.9-2c-0.8-0.7-1.7-1.4-2.6-2.1l0.5-0.5C112.7,114.6,113.6,115.3,114.4,116z
	 M121,111.7c0.4,0.6,0.8,1.3,1,2.1c0.3,0.9,0.4,1.7,0.4,2.6s-0.1,1.7-0.4,2.6c-0.3,0.7-0.6,1.4-1,2.1h-0.7c0.4-0.7,0.7-1.4,0.9-2.1
	c0.3-0.9,0.4-1.7,0.4-2.6s-0.1-1.7-0.4-2.6c-0.2-0.7-0.5-1.4-0.9-2.1H121z"/>
<path class="st1" d="M94,69.5v-8.2c0-1.9-1.4-3.3-3.5-3.3S87,59.4,87,61.3v8.2c0,1.9,1.4,3.5,3.5,3.5S94,71.4,94,69.5z M95.9,68v2
	c0,2.6-2.4,4.7-5.4,4.7s-5.4-2.1-5.4-4.7v-2h-1.6v2c0,3.1,2.3,5.6,5.8,6v3H87v1h7v-1h-2.3v-3c3.5-0.3,5.8-2.8,5.8-6v-2H95.9z"/>
<path class="st1" d="M383.5,69.5v-8.2c0-1.9-1.2-3.3-3-3.3s-3,1.4-3,3.3v8.2c0,1.9,1.2,3.5,3,3.5S383.5,71.4,383.5,69.5z M385.2,68
	v2c0,2.6-2.1,4.7-4.7,4.7s-4.7-2.1-4.7-4.7v-2h-1.3v2c0,3.1,2,5.6,5,6v3h-2v1h6v-1h-2v-3c3-0.3,5-2.8,5-6v-2H385.2z"/>
<path class="st1" d="M671.5,69.5v-8.2c0-1.9-1.2-3.3-3-3.3s-3,1.4-3,3.3v8.2c0,1.9,1.2,3.5,3,3.5S671.5,71.4,671.5,69.5z M673.2,68
	v2c0,2.6-2.1,4.7-4.7,4.7c-2.6,0-4.7-2.1-4.7-4.7v-2h-1.3v2c0,3.1,2,5.6,5,6v3h-2v1h6v-1h-2v-3c3-0.3,5-2.8,5-6v-2H673.2z"/>
<path class="st1" d="M94,260.5v-8.2c0-1.9-1.4-3.3-3.5-3.3s-3.5,1.4-3.5,3.3v8.2c0,1.9,1.4,3.5,3.5,3.5S94,262.4,94,260.5z
	 M95.9,259v2c0,2.6-2.4,4.7-5.4,4.7s-5.4-2.1-5.4-4.7v-2h-1.6v2c0,3.1,2.3,5.6,5.8,6v3H87v1h7v-1h-2.3v-3c3.5-0.3,5.8-2.8,5.8-6v-2
	H95.9z"/>
<path class="st1" d="M383.5,260.5v-8.2c0-1.9-1.2-3.3-3-3.3s-3,1.4-3,3.3v8.2c0,1.9,1.2,3.5,3,3.5S383.5,262.4,383.5,260.5z
	 M385.2,259v2c0,2.6-2.1,4.7-4.7,4.7s-4.7-2.1-4.7-4.7v-2h-1.3v2c0,3.1,2,5.6,5,6v3h-2v1h6v-1h-2v-3c3-0.3,5-2.8,5-6v-2H385.2z"/>
<path class="st1" d="M671.5,260.5v-8.2c0-1.9-1.2-3.3-3-3.3s-3,1.4-3,3.3v8.2c0,1.9,1.2,3.5,3,3.5S671.5,262.4,671.5,260.5z
	 M673.2,259v2c0,2.6-2.1,4.7-4.7,4.7c-2.6,0-4.7-2.1-4.7-4.7v-2h-1.3v2c0,3.1,2,5.6,5,6v3h-2v1h6v-1h-2v-3c3-0.3,5-2.8,5-6v-2H673.2
	z"/>
<path class="st1" d="M94,447.5v-8.2c0-1.9-1.4-3.3-3.5-3.3s-3.5,1.4-3.5,3.3v8.2c0,1.9,1.4,3.5,3.5,3.5S94,449.4,94,447.5z
	 M95.9,446v2c0,2.6-2.4,4.7-5.4,4.7s-5.4-2.1-5.4-4.7v-2h-1.6v2c0,3.1,2.3,5.6,5.8,6v3H87v1h7v-1h-2.3v-3c3.5-0.3,5.8-2.8,5.8-6v-2
	H95.9z"/>
<path class="st1" d="M383.5,447.5v-8.2c0-1.9-1.2-3.3-3-3.3s-3,1.4-3,3.3v8.2c0,1.9,1.2,3.5,3,3.5S383.5,449.4,383.5,447.5z
	 M385.2,446v2c0,2.6-2.1,4.7-4.7,4.7s-4.7-2.1-4.7-4.7v-2h-1.3v2c0,3.1,2,5.6,5,6v3h-2v1h6v-1h-2v-3c3-0.3,5-2.8,5-6v-2H385.2z"/>
<path class="st1" d="M671.5,447.5v-8.2c0-1.9-1.2-3.3-3-3.3s-3,1.4-3,3.3v8.2c0,1.9,1.2,3.5,3,3.5S671.5,449.4,671.5,447.5z
	 M673.2,446v2c0,2.6-2.1,4.7-4.7,4.7c-2.6,0-4.7-2.1-4.7-4.7v-2h-1.3v2c0,3.1,2,5.6,5,6v3h-2v1h6v-1h-2v-3c3-0.3,5-2.8,5-6v-2H673.2
	z"/>
<path class="st2" d="M372.3,231.7v1.8h2.3v1.2h-2.3v2.2c0.9-0.2,1.8-0.4,2.6-0.7v1.3c-2.3,0.7-4.8,1.3-7.7,1.7l-0.2-1.3
	c0.4-0.1,0.8-0.1,1.2-0.2v-4.9h1.3v4.7c0.5-0.1,1-0.2,1.4-0.3v-5.5H372.3z M374.9,229.7c-0.1-1-0.1-2.1-0.1-3.2h1.3
	c0,1.2,0,2.3,0.1,3.2h3.5v1.3h-3.4c0.1,1.1,0.2,1.9,0.3,2.6c0.3,1.4,0.6,2.4,0.9,3.1c0.3,0.6,0.6,0.9,0.7,0.9c0.1,0,0.3-0.6,0.4-1.8
	l1.2,0.7c-0.3,1.9-0.8,2.8-1.4,2.8c-0.5,0-1.1-0.4-1.7-1.3c-0.6-0.8-1.1-2.1-1.4-3.9c-0.2-0.9-0.4-1.9-0.4-3.1h-7.7v-1.3H374.9z
	 M373.7,227.4v1.2h-5.4v-1.2H373.7z M379.3,228.8l-1.1,0.6c-0.4-0.9-0.9-1.6-1.5-2.3l1.1-0.5C378.4,227.2,378.9,228,379.3,228.8z
	 M386,232l-1,0.9c-0.6-0.6-1.4-1.4-2.5-2.1l1-0.9C384.5,230.6,385.4,231.3,386,232z M386.4,234.4c-0.7,1.8-1.4,3.4-2.3,5l-1.3-0.6
	c0.9-1.6,1.7-3.2,2.4-4.9L386.4,234.4z M386.4,228.9l-1,1c-0.6-0.7-1.4-1.4-2.5-2.2l0.9-0.9C384.9,227.4,385.7,228.1,386.4,228.9z
	 M391.1,236.3c-1.1,1.3-2.4,2.3-4,3.1l-0.9-1.1c1.6-0.8,3-1.9,4-3.1c-1.4-2-2.2-4.1-2.5-6.6h-1.1v-1.3h7.8v1.2
	c-0.5,2.6-1.4,4.9-2.7,6.7c1,1.1,2.1,2.1,3.6,3l-0.9,1.1C393.2,238.4,392.1,237.4,391.1,236.3z M393.3,228.7h-4.2
	c0.2,2,0.9,3.9,2,5.5C392.1,232.6,392.9,230.8,393.3,228.7z"/>
<path class="st2" d="M646.3,206.1c0.6,0.9,0.9,2,0.9,3.6s-0.3,2.9-1,4c-0.7,1-1.6,1.5-2.7,1.5c-1.9,0-3-0.9-3.3-2.7h1.5
	c0.2,1,0.8,1.5,1.8,1.5c0.7,0,1.2-0.4,1.7-1c0.4-0.6,0.6-1.5,0.6-2.4c0-0.1,0-0.1,0-0.2h-0.1c-0.3,0.4-0.6,0.8-1.1,1
	c-0.4,0.2-0.9,0.3-1.4,0.3c-1,0-1.8-0.3-2.4-1c-0.6-0.6-0.9-1.4-0.9-2.4s0.3-1.8,1-2.5s1.5-1,2.5-1
	C644.7,204.8,645.6,205.2,646.3,206.1z M642.1,206.7c-0.4,0.4-0.6,0.9-0.6,1.6s0.2,1.1,0.6,1.5c0.4,0.4,0.8,0.6,1.5,0.6
	c0.6,0,1.1-0.2,1.5-0.6s0.5-0.9,0.5-1.6c0-0.7-0.2-1.2-0.6-1.6c-0.4-0.4-0.9-0.6-1.5-0.6C642.9,206.1,642.4,206.3,642.1,206.7z
	 M652.1,216.5l-1-0.9c0.9-1.2,1.3-2.8,1.4-4.7V204h8.3v11c0,0.9-0.5,1.3-1.4,1.3h-1.8l-0.4-1.3c0.6,0,1.2,0.1,1.7,0.1
	c0.3,0,0.4-0.2,0.4-0.6V212h-5.7C653.5,213.9,653,215.3,652.1,216.5z M659.4,205.3h-5.7v2.1h5.7V205.3z M653.7,210.8h5.7v-2.2h-5.7
	V210.8z M671.3,205.6c0.6,0.6,0.9,1.3,0.9,2.2s-0.3,1.7-1,2.4c-0.4,0.4-1.1,0.9-2.1,1.6c-1.1,0.7-1.7,1.3-1.9,1.9h5v1.3h-6.9
	c0-1,0.3-1.9,1-2.6c0.4-0.4,1.1-1,2.3-1.8c0.7-0.5,1.1-0.9,1.4-1.1c0.4-0.5,0.7-1.1,0.7-1.6c0-0.6-0.2-1-0.5-1.3s-0.8-0.4-1.4-0.4
	c-0.6,0-1.1,0.2-1.4,0.6c-0.3,0.4-0.5,1-0.5,1.8h-1.5c0-1.1,0.3-2,1-2.7c0.6-0.7,1.5-1.1,2.6-1.1
	C669.9,204.8,670.7,205.1,671.3,205.6z M681.8,205v1.3H677l-0.3,2.9l0,0c0.3-0.3,0.7-0.5,1.1-0.7c0.4-0.2,0.8-0.2,1.2-0.2
	c0.9,0,1.7,0.3,2.3,0.9s0.9,1.5,0.9,2.5s-0.4,1.9-1.1,2.5c-0.7,0.6-1.6,0.9-2.6,0.9c-0.9,0-1.7-0.3-2.3-0.7
	c-0.7-0.5-1.1-1.3-1.2-2.2h1.5c0.1,0.6,0.3,1,0.7,1.3c0.3,0.3,0.8,0.4,1.3,0.4c0.6,0,1.1-0.2,1.6-0.6c0.4-0.4,0.6-0.9,0.6-1.5
	c0-0.7-0.2-1.2-0.5-1.6s-0.9-0.6-1.5-0.6c-0.4,0-0.8,0.1-1.2,0.2c-0.4,0.2-0.6,0.4-0.8,0.8h-1.4l0.5-5.6L681.8,205L681.8,205z
	 M695.8,216.4h-1.3v-1h-6.3v1h-1.3V204h9v12.4H695.8z M694.5,208.9v-3.6h-6.3v3.6H694.5z M694.5,214.1v-3.9h-6.3v3.9H694.5z"/>
<path class="st2" d="M343.8,316.9v7.1H343v-6.1c-0.4,0.5-1,0.8-1.7,1V318c0.3-0.1,0.7-0.2,1-0.4c0.3-0.2,0.6-0.5,0.9-0.7H343.8z
	 M350.6,317.3c0.4,0.3,0.6,0.8,0.6,1.3c0,0.4-0.1,0.7-0.3,1s-0.5,0.5-0.8,0.6l0,0c0.4,0.1,0.7,0.3,0.9,0.6c0.3,0.3,0.4,0.7,0.4,1.2
	c0,0.6-0.2,1.1-0.7,1.5s-1.1,0.6-1.9,0.6c-0.8,0-1.5-0.2-1.9-0.6s-0.7-0.9-0.7-1.5c0-0.5,0.1-0.9,0.4-1.2c0.3-0.3,0.6-0.5,0.9-0.6
	l0,0c-0.4-0.1-0.7-0.3-0.8-0.6c-0.2-0.3-0.3-0.6-0.3-1c0-0.5,0.2-1,0.6-1.3c0.4-0.4,1-0.6,1.7-0.6
	C349.6,316.7,350.2,316.9,350.6,317.3z M347.5,321c-0.3,0.3-0.4,0.6-0.4,1s0.1,0.8,0.4,1c0.3,0.3,0.7,0.4,1.3,0.4s1-0.1,1.3-0.4
	s0.4-0.6,0.4-1s-0.1-0.8-0.4-1c-0.3-0.3-0.8-0.4-1.3-0.4C348.3,320.6,347.9,320.7,347.5,321z M347.7,317.8c-0.2,0.2-0.4,0.5-0.4,0.9
	s0.1,0.7,0.3,0.9c0.3,0.3,0.7,0.4,1.2,0.4s1-0.1,1.2-0.4c0.2-0.2,0.3-0.5,0.3-0.9c0-0.3-0.1-0.6-0.4-0.9c-0.3-0.3-0.7-0.4-1.2-0.4
	C348.4,317.4,348,317.5,347.7,317.8z M355.8,318.1c0.1,0.1,0.2,0.2,0.2,0.4c0,0.2-0.1,0.3-0.2,0.4c-0.1,0.1-0.3,0.2-0.4,0.2
	s-0.3-0.1-0.4-0.2c-0.1-0.1-0.2-0.3-0.2-0.4s0-0.3,0.2-0.4c0.1-0.1,0.3-0.2,0.4-0.2S355.7,318,355.8,318.1z M355.8,321.8
	c0.1,0.1,0.2,0.2,0.2,0.4c0,0.2-0.1,0.3-0.2,0.4c-0.1,0.1-0.3,0.2-0.4,0.2s-0.3-0.1-0.4-0.2c-0.1-0.1-0.2-0.3-0.2-0.4s0-0.3,0.2-0.4
	c0.1-0.1,0.3-0.2,0.4-0.2S355.7,321.6,355.8,321.8z M368.6,317.2c0.4,0.3,0.6,0.8,0.6,1.4c0,0.8-0.4,1.3-1.2,1.6
	c0.4,0.1,0.7,0.3,1,0.6c0.2,0.3,0.4,0.6,0.4,1c0,0.6-0.2,1.2-0.7,1.6s-1.1,0.6-1.8,0.6s-1.2-0.2-1.7-0.5c-0.5-0.4-0.8-1-0.8-1.8h0.8
	c0,0.6,0.2,1,0.6,1.3c0.3,0.2,0.7,0.4,1.1,0.4c0.5,0,0.9-0.1,1.2-0.4s0.4-0.6,0.4-1s-0.1-0.8-0.4-1s-0.7-0.3-1.2-0.3h-0.6V320h0.5
	c0.5,0,0.8-0.1,1.1-0.3c0.2-0.2,0.4-0.5,0.4-0.9s-0.1-0.7-0.4-0.9c-0.3-0.2-0.6-0.3-1.1-0.3s-0.8,0.1-1.1,0.4s-0.4,0.6-0.5,1.1h-0.8
	c0.1-0.7,0.3-1.2,0.8-1.6c0.4-0.4,1-0.6,1.6-0.6S368.2,316.9,368.6,317.2z M375.8,317.9c0.4,0.6,0.6,1.5,0.6,2.6s-0.2,1.9-0.6,2.6
	c-0.4,0.7-1.1,1.1-1.9,1.1c-0.9,0-1.5-0.4-1.9-1.1c-0.4-0.6-0.6-1.5-0.6-2.6s0.2-1.9,0.6-2.6c0.4-0.8,1.1-1.1,1.9-1.1
	C374.7,316.7,375.4,317.1,375.8,317.9z M372.5,318.5c-0.2,0.5-0.3,1.1-0.3,2c0,0.8,0.1,1.5,0.3,2c0.3,0.7,0.7,1,1.4,1s1.1-0.3,1.4-1
	c0.2-0.5,0.3-1.1,0.3-2c0-0.8-0.1-1.5-0.3-2c-0.3-0.7-0.7-1-1.4-1S372.8,317.8,372.5,318.5z M383.4,321.1v0.7h-5v-0.7H383.4z
	 M389.7,317.3c0.4,0.4,0.6,0.9,0.6,1.5s-0.2,1.2-0.7,1.7c-0.2,0.3-0.7,0.6-1.5,1.1c-0.9,0.6-1.4,1.2-1.6,1.6h3.7v0.7h-4.8
	c0-0.6,0.2-1.2,0.7-1.8c0.3-0.3,0.8-0.7,1.5-1.3c0.6-0.4,0.9-0.7,1.1-0.9c0.4-0.4,0.5-0.8,0.5-1.3c0-0.4-0.1-0.8-0.4-1
	c-0.3-0.2-0.6-0.4-1.1-0.4s-0.9,0.2-1.1,0.5c-0.3,0.3-0.4,0.8-0.4,1.4h-0.8c0-0.8,0.2-1.4,0.7-1.9c0.4-0.5,1-0.7,1.7-0.7
	C388.7,316.7,389.2,316.9,389.7,317.3z M394.9,316.9v7.1h-0.8v-6.1c-0.4,0.5-1,0.8-1.7,1V318c0.3-0.1,0.7-0.2,1-0.4
	c0.3-0.2,0.6-0.5,0.9-0.7H394.9z M399.9,318.1c0.1,0.1,0.2,0.2,0.2,0.4c0,0.2-0.1,0.3-0.2,0.4c-0.1,0.1-0.3,0.2-0.4,0.2
	c-0.2,0-0.3-0.1-0.4-0.2c-0.1-0.1-0.2-0.3-0.2-0.4s0-0.3,0.2-0.4c0.1-0.1,0.3-0.2,0.4-0.2S399.8,318,399.9,318.1z M399.9,321.8
	c0.1,0.1,0.2,0.2,0.2,0.4c0,0.2-0.1,0.3-0.2,0.4c-0.1,0.1-0.3,0.2-0.4,0.2c-0.2,0-0.3-0.1-0.4-0.2c-0.1-0.1-0.2-0.3-0.2-0.4
	s0-0.3,0.2-0.4c0.1-0.1,0.3-0.2,0.4-0.2C399.6,321.6,399.8,321.6,399.9,321.8z M412.7,317.2c0.4,0.3,0.6,0.8,0.6,1.4
	c0,0.8-0.4,1.3-1.2,1.6c0.4,0.1,0.7,0.3,1,0.6c0.2,0.3,0.4,0.6,0.4,1c0,0.6-0.2,1.2-0.7,1.6s-1.1,0.6-1.8,0.6s-1.2-0.2-1.7-0.5
	c-0.5-0.4-0.8-1-0.8-1.8h0.8c0,0.6,0.2,1,0.6,1.3c0.3,0.2,0.7,0.4,1.1,0.4c0.5,0,0.9-0.1,1.2-0.4s0.4-0.6,0.4-1s-0.1-0.8-0.4-1
	s-0.7-0.3-1.2-0.3h-0.6V320h0.5c0.5,0,0.8-0.1,1.1-0.3c0.2-0.2,0.4-0.5,0.4-0.9s-0.1-0.7-0.4-0.9c-0.3-0.2-0.6-0.3-1.1-0.3
	s-0.8,0.1-1.1,0.4s-0.4,0.6-0.5,1.1h-0.8c0.1-0.7,0.3-1.2,0.8-1.6c0.4-0.4,1-0.6,1.6-0.6S412.2,316.9,412.7,317.2z M419.9,317.9
	c0.4,0.6,0.6,1.5,0.6,2.6s-0.2,1.9-0.6,2.6c-0.4,0.7-1.1,1.1-1.9,1.1c-0.9,0-1.5-0.4-1.9-1.1c-0.4-0.6-0.6-1.5-0.6-2.6
	s0.2-1.9,0.6-2.6c0.4-0.8,1.1-1.1,1.9-1.1C418.8,316.7,419.4,317.1,419.9,317.9z M416.6,318.5c-0.2,0.5-0.3,1.1-0.3,2
	c0,0.8,0.1,1.5,0.3,2c0.3,0.7,0.7,1,1.4,1s1.1-0.3,1.4-1c0.2-0.5,0.3-1.1,0.3-2c0-0.8-0.1-1.5-0.3-2c-0.3-0.7-0.7-1-1.4-1
	S416.8,317.8,416.6,318.5z"/>
<path class="st1" d="M329.9,286.7l-0.5-1.6c2-1.2,3.4-2.7,4.4-4.3l1.3,0.6c-0.5,0.9-1.1,1.8-1.9,2.6v5.3h-1.5v-3.9
	C331.1,285.8,330.5,286.3,329.9,286.7z M335.8,290.3v-1.4h1.5v1.4h6.2v1.5h-6.2v3.9h-1.5v-3.9h-6.2v-1.5H335.8z M338.5,288.8
	c-1.1,0-1.6-0.5-1.6-1.6v-0.9c-0.7,0.3-1.4,0.5-2.1,0.8l-0.9-1.3c1.1-0.4,2-0.7,2.9-1.1v-3.6h1.5v2.9c1.5-0.8,2.7-1.6,3.7-2.5l1,1.1
	c-1.4,1.2-2.9,2.2-4.8,3v1.3c0,0.3,0.2,0.5,0.6,0.5h2.2c0.4,0,0.6-0.1,0.8-0.3c0.2-0.2,0.4-0.8,0.4-1.8l1.4,0.5
	c-0.2,1.4-0.4,2.3-0.8,2.5c-0.4,0.3-0.9,0.4-1.6,0.4h-2.7V288.8z M355,280.8v2.8h5.7v7.7h-1.5v-0.9H355v5.4h-1.6v-5.4h-4.2v0.9h-1.5
	v-7.7h5.7v-2.8H355z M353.4,288.9v-3.8h-4.2v3.8H353.4z M359.2,288.9v-3.8H355v3.8H359.2z M367.3,285.1v-2c-0.7,0.1-1.5,0.2-2.2,0.3
	l-0.3-1.4c2.1-0.2,3.9-0.5,5.5-1l0.5,1.4c-0.7,0.2-1.3,0.3-2,0.5v2.2h2v1.5h-2v0.6c0.8,0.6,1.7,1.4,2.6,2.2l-0.8,1.3
	c-0.7-0.8-1.3-1.5-1.7-2v7h-1.5v-6.9c-0.6,1.4-1.4,2.7-2.3,3.9l-0.7-1.7c1.3-1.3,2.2-2.7,2.8-4.3h-2.3v-1.5h2.4V285.1z M379.2,290.9
	l-1.5,0.2v4.5h-1.5v-4.2l-4.8,0.8l-0.2-1.5l5-0.8V281h1.5v8.7l1.3-0.2L379.2,290.9z M375.3,287.9l-1.1,1.1c-0.7-0.8-1.6-1.6-2.8-2.5
	l1.1-1C373.6,286.2,374.5,287.1,375.3,287.9z M375.7,284.1l-1,1.1c-0.7-0.7-1.6-1.5-2.8-2.3l1.1-1C374,282.5,375,283.3,375.7,284.1z
	 M382.6,295.5l-0.3-1.4c0.4,0.1,0.8,0.1,1.2,0.1s0.6-0.2,0.6-0.7v-3.4c-0.6,0.2-1.2,0.4-1.7,0.6l-0.4-1.5c0.7-0.2,1.4-0.4,2.1-0.6
	v-3.5h-1.8v-1.5h1.8v-2.8h1.5v2.8h1.6v1.5h-1.6v2.8c0.5-0.3,1.1-0.5,1.6-0.8v1.5c-0.5,0.3-1.1,0.5-1.6,0.8v4.4
	c0,1.1-0.5,1.6-1.5,1.6h-1.5V295.5z M391.3,283.1V281h1.5v2.1h3.7v1.5h-3.7v2.3h3.1v1.3c-0.5,1.7-1.4,3.1-2.6,4.3
	c1,0.7,2.2,1.4,3.6,2l-0.8,1.2c-1.5-0.7-2.8-1.4-3.9-2.3c-1.2,0.9-2.7,1.7-4.4,2.3l-0.7-1.3c1.6-0.5,3-1.2,4.1-2
	c-1.2-1.2-2.1-2.6-2.5-4.2h-0.8v-1.4h3.4v-2.3h-3.7V283h3.7V283.1z M392.2,291.6c1-1,1.7-2.1,2.2-3.3h-4.3
	C390.5,289.5,391.2,290.6,392.2,291.6z M406.1,285c0.1-0.8,0.2-1.7,0.2-2.7v-1.4h1.5v1c0,1.1-0.1,2.1-0.2,3h6.5v1.5H408
	c1.1,3.4,3.3,6.1,6.5,7.9l-0.9,1.2c-3.1-1.9-5.2-4.5-6.5-7.9c-1.1,3.7-3.2,6.4-6.5,8.1l-1-1.3c3.3-1.6,5.4-4.3,6.2-8h-5.9V285H406.1
	z M431.5,287.9H430v-2.4h-10.8v2.4h-1.5V284h2.9c-0.5-0.9-1-1.6-1.6-2.3l1.4-0.7c0.5,0.7,1.1,1.6,1.6,2.5l-1,0.5h6
	c0.7-1,1.2-2.1,1.7-3.2l1.6,0.6c-0.5,1-1.1,1.9-1.6,2.6h2.9v3.9H431.5z M428.9,286.5v1.3c-1,0.7-2.1,1.3-3.4,1.9v0.6h6v1.4h-6v2.4
	c0,0.9-0.5,1.4-1.5,1.4h-2l-0.4-1.4c0.6,0,1.2,0,1.9,0c0.3,0,0.5-0.2,0.5-0.6v-1.9h-6.3v-1.4h6.3V289c1.1-0.5,2-0.9,2.7-1.2h-6.5
	v-1.3L428.9,286.5L428.9,286.5z M425.7,283.3l-1.4,0.7c-0.5-1-1-1.8-1.5-2.6l1.4-0.7C424.7,281.5,425.2,282.4,425.7,283.3z"/>
<path class="st1" d="M375.4,303.7v-1.8h0.7v1.8h3.9v0.7h-3.3c0.7,1.6,1.9,3,3.6,4.3l-0.5,0.6c-1.8-1.4-3-3.1-3.7-4.9H376v3.9h2.1
	v0.7H376v2h-0.7v-2h-2.1v-0.7h2.1v-3.9h-0.1c-0.7,2-2,3.7-3.8,5l-0.4-0.7c1.7-1.1,2.9-2.6,3.6-4.3h-3.3v-0.7H375.4z M384.3,305.6h1
	c0.3-0.5,0.5-1.1,0.7-1.8l0.7,0.2c-0.2,0.6-0.4,1.1-0.7,1.5h1.2v0.7h-5v-0.7h1.3c-0.2-0.5-0.4-1-0.6-1.4l0.7-0.2
	C383.9,304.3,384.1,304.9,384.3,305.6z M384.5,302.8c-0.1-0.3-0.2-0.6-0.4-0.9l0.7-0.1c0.1,0.3,0.2,0.6,0.3,1h2v0.7h-4.7v-0.7H384.5
	z M386.9,310.9h-0.7v-0.6h-2.6v0.6h-0.7v-3.8h4V310.9z M386.1,309.7v-1.8h-2.6v1.8H386.1z M391.1,302.3v0.5c-0.3,1-0.6,2-1,2.9
	c0.7,0.9,1.1,1.7,1.1,2.3c0,0.6-0.1,1-0.4,1.3c-0.3,0.2-0.8,0.4-1.6,0.4l-0.2-0.8c0.3,0,0.5,0,0.7,0c0.4,0,0.6-0.1,0.7-0.2
	c0.1-0.1,0.1-0.4,0.2-0.7c0-0.6-0.4-1.4-1.2-2.3c0.3-0.8,0.7-1.7,1-2.8h-1.8v8.1h-0.7v-8.7L391.1,302.3L391.1,302.3z"/>
<path class="st2" d="M82.9,419.1v-0.7h-4.1v-3h4.1v-0.8h1.3v0.8h4.1v3h-4.1v0.7h5.6v1.1H77.3v-1.1H82.9z M84.4,422.7
	c-0.2,1.7-0.6,2.8-1.3,3.4c-0.7,0.7-2.4,1.2-5.2,1.4l-0.5-1.2c2.3-0.1,3.8-0.4,4.6-1c0.7-0.5,1-1.4,1.1-2.7L84.4,422.7z M88.2,425
	h-1.3v-3h-6.5v3.2h-1.3v-4.3h9.1C88.2,420.9,88.2,425,88.2,425z M82.9,416.4h-2.8v0.9h2.8V416.4z M89.8,426.5l-0.7,1.1
	c-1.7-0.7-3.3-1.3-5.1-1.8l0.7-1C86.6,425.3,88.3,425.8,89.8,426.5z M87.1,416.4h-2.8v0.9h2.8V416.4z M94.9,418.2
	c-0.2,1.4-0.5,2.8-1,4.1l-1.2-0.4c0.5-1.3,0.8-2.6,1-4L94.9,418.2z M99.3,421.7l-1.1,0.5c-0.4-1.2-0.8-2.3-1.3-3.2v0.1
	c0,3.9-0.9,6.7-2.6,8.5l-1-0.9c1.5-1.6,2.3-4.1,2.3-7.6v-4.3h1.3v3.9l0.9-0.4C98.4,419.2,98.9,420.4,99.3,421.7z M100.8,415v3.4
	l0.9-0.4c0.6,1,1.1,2.2,1.5,3.4l-1.1,0.5c-0.4-1.1-0.8-2.2-1.3-3.1v8h-1.3V415H100.8z M104.7,414.6v12.9h-1.3v-12.9H104.7z"/>
<path class="st2" d="M63.6,393v10h-1.5v-8.2c-0.6,0.6-1.4,1-2.3,1.3v-1.5c0.4-0.1,0.9-0.3,1.4-0.6c0.5-0.3,0.9-0.6,1.3-1L63.6,393
	L63.6,393z M73.2,394.3c0.6,0.9,0.9,2.2,0.9,3.7s-0.3,2.8-0.9,3.7c-0.6,1-1.6,1.5-2.7,1.5s-2.1-0.5-2.7-1.5
	c-0.6-0.9-0.9-2.2-0.9-3.7c0-1.6,0.3-2.8,0.9-3.7c0.6-1,1.6-1.5,2.7-1.5S72.6,393.3,73.2,394.3z M68.8,395.4
	c-0.3,0.6-0.4,1.5-0.4,2.5c0,1.1,0.1,1.9,0.4,2.5c0.3,0.9,0.9,1.4,1.7,1.4c0.8,0,1.4-0.5,1.7-1.4c0.2-0.6,0.4-1.5,0.4-2.5
	c0-1.1-0.1-1.9-0.4-2.5c-0.3-0.9-0.9-1.4-1.7-1.4C69.7,394.1,69.1,394.5,68.8,395.4z M79,404.5l-1-0.9c0.9-1.2,1.3-2.8,1.4-4.7V392
	h8.3v11c0,0.9-0.5,1.3-1.4,1.3h-1.8l-0.4-1.3c0.6,0,1.2,0.1,1.7,0.1c0.3,0,0.4-0.2,0.4-0.6V400h-5.7C80.4,401.9,79.9,403.3,79,404.5
	z M86.3,393.3h-5.7v2.1h5.7V393.3z M80.6,398.8h5.7v-2.2h-5.7V398.8z M95.9,393v10h-1.5v-8.2c-0.6,0.6-1.4,1-2.3,1.3v-1.5
	c0.4-0.1,0.9-0.3,1.4-0.6c0.5-0.3,0.9-0.6,1.3-1L95.9,393L95.9,393z M105.3,393.6c0.6,0.6,0.9,1.3,0.9,2.2c0,0.9-0.3,1.7-1,2.4
	c-0.4,0.4-1.1,0.9-2.1,1.6c-1.1,0.7-1.7,1.3-1.9,1.9h5v1.3h-6.9c0-1,0.3-1.9,1-2.6c0.4-0.4,1.1-1,2.3-1.8c0.7-0.5,1.1-0.9,1.4-1.1
	c0.4-0.5,0.7-1.1,0.7-1.6c0-0.6-0.2-1-0.5-1.3s-0.8-0.4-1.4-0.4s-1.1,0.2-1.4,0.6s-0.5,1-0.5,1.8h-1.5c0-1.1,0.3-2,1-2.7
	c0.6-0.7,1.5-1.1,2.6-1.1C103.9,392.8,104.7,393.1,105.3,393.6z M120,404.4h-1.3v-1h-6.3v1h-1.3V392h9L120,404.4L120,404.4z
	 M118.7,396.9v-3.6h-6.3v3.6H118.7z M118.7,402.1v-3.9h-6.3v3.9H118.7z"/>
<path class="st2" d="M53.9,504.9v7.1h-0.8v-6.1c-0.4,0.5-1,0.8-1.7,1V506c0.3-0.1,0.7-0.2,1-0.4c0.3-0.2,0.6-0.5,0.9-0.7H53.9z
	 M60.7,505.3c0.4,0.3,0.6,0.8,0.6,1.3c0,0.4-0.1,0.7-0.3,1s-0.5,0.5-0.8,0.6l0,0c0.4,0.1,0.7,0.3,0.9,0.6c0.3,0.3,0.4,0.7,0.4,1.2
	c0,0.6-0.2,1.1-0.7,1.5s-1.1,0.6-1.9,0.6c-0.8,0-1.5-0.2-1.9-0.6s-0.7-0.9-0.7-1.5c0-0.5,0.1-0.9,0.4-1.2c0.3-0.3,0.6-0.5,0.9-0.6
	l0,0c-0.4-0.1-0.7-0.3-0.8-0.6c-0.2-0.3-0.3-0.6-0.3-1c0-0.5,0.2-1,0.6-1.3c0.4-0.4,1-0.6,1.7-0.6C59.7,504.7,60.3,504.9,60.7,505.3
	z M57.6,509c-0.3,0.3-0.4,0.6-0.4,1s0.1,0.8,0.4,1c0.3,0.3,0.7,0.4,1.3,0.4s1-0.1,1.3-0.4s0.4-0.6,0.4-1s-0.1-0.8-0.4-1
	c-0.3-0.3-0.8-0.4-1.3-0.4C58.4,508.6,58,508.7,57.6,509z M57.8,505.8c-0.2,0.2-0.4,0.5-0.4,0.9s0.1,0.7,0.3,0.9
	c0.3,0.3,0.7,0.4,1.2,0.4s1-0.1,1.2-0.4c0.2-0.2,0.3-0.5,0.3-0.9c0-0.3-0.1-0.6-0.4-0.9c-0.3-0.3-0.7-0.4-1.2-0.4
	C58.5,505.4,58.1,505.5,57.8,505.8z M65.9,506.1c0.1,0.1,0.2,0.2,0.2,0.4c0,0.2-0.1,0.3-0.2,0.4s-0.3,0.2-0.4,0.2s-0.3-0.1-0.4-0.2
	s-0.2-0.3-0.2-0.4s0-0.3,0.2-0.4c0.1-0.1,0.3-0.2,0.4-0.2S65.8,506,65.9,506.1z M65.9,509.8c0.1,0.1,0.2,0.2,0.2,0.4
	c0,0.2-0.1,0.3-0.2,0.4s-0.3,0.2-0.4,0.2s-0.3-0.1-0.4-0.2s-0.2-0.3-0.2-0.4s0-0.3,0.2-0.4c0.1-0.1,0.3-0.2,0.4-0.2
	S65.8,509.6,65.9,509.8z M78.7,505.2c0.4,0.3,0.6,0.8,0.6,1.4c0,0.8-0.4,1.3-1.2,1.6c0.4,0.1,0.7,0.3,1,0.6c0.2,0.3,0.4,0.6,0.4,1
	c0,0.6-0.2,1.2-0.7,1.6S77.7,512,77,512c-0.7,0-1.2-0.2-1.7-0.5c-0.5-0.4-0.8-1-0.8-1.8h0.8c0,0.6,0.2,1,0.6,1.3
	c0.3,0.2,0.7,0.4,1.1,0.4c0.5,0,0.9-0.1,1.2-0.4c0.3-0.3,0.4-0.6,0.4-1s-0.1-0.8-0.4-1s-0.7-0.3-1.2-0.3h-0.6V508H77
	c0.5,0,0.8-0.1,1.1-0.3c0.2-0.2,0.4-0.5,0.4-0.9s-0.1-0.7-0.4-0.9c-0.3-0.2-0.6-0.3-1.1-0.3s-0.8,0.1-1.1,0.4
	c-0.3,0.3-0.4,0.6-0.5,1.1h-0.8c0.1-0.7,0.3-1.2,0.8-1.6c0.4-0.4,1-0.6,1.6-0.6S78.3,504.9,78.7,505.2z M85.9,505.9
	c0.4,0.6,0.6,1.5,0.6,2.6s-0.2,1.9-0.6,2.6s-1.1,1.1-1.9,1.1c-0.9,0-1.5-0.4-1.9-1.1c-0.4-0.6-0.6-1.5-0.6-2.6s0.2-1.9,0.6-2.6
	c0.4-0.8,1.1-1.1,1.9-1.1C84.8,504.7,85.5,505.1,85.9,505.9z M82.6,506.5c-0.2,0.5-0.3,1.1-0.3,2c0,0.8,0.1,1.5,0.3,2
	c0.3,0.7,0.7,1,1.4,1s1.1-0.3,1.4-1c0.2-0.5,0.3-1.1,0.3-2c0-0.8-0.1-1.5-0.3-2c-0.3-0.7-0.7-1-1.4-1S82.9,505.8,82.6,506.5z
	 M93.5,509.1v0.7h-5v-0.7H93.5z M99.8,505.3c0.4,0.4,0.6,0.9,0.6,1.5s-0.2,1.2-0.7,1.7c-0.2,0.3-0.7,0.6-1.5,1.1
	c-0.9,0.6-1.4,1.2-1.6,1.6h3.7v0.7h-4.8c0-0.6,0.2-1.2,0.7-1.8c0.3-0.3,0.8-0.7,1.5-1.3c0.6-0.4,0.9-0.7,1.1-0.9
	c0.4-0.4,0.5-0.8,0.5-1.3c0-0.4-0.1-0.8-0.4-1s-0.6-0.4-1.1-0.4s-0.9,0.2-1.1,0.5c-0.3,0.3-0.4,0.8-0.4,1.4h-0.8
	c0-0.8,0.2-1.4,0.7-1.9c0.4-0.5,1-0.7,1.7-0.7C98.8,504.7,99.3,504.9,99.8,505.3z M105,504.9v7.1h-0.8v-6.1c-0.4,0.5-1,0.8-1.7,1
	V506c0.3-0.1,0.7-0.2,1-0.4c0.3-0.2,0.6-0.5,0.9-0.7H105z M110,506.1c0.1,0.1,0.2,0.2,0.2,0.4c0,0.2-0.1,0.3-0.2,0.4
	s-0.3,0.2-0.4,0.2s-0.3-0.1-0.4-0.2s-0.2-0.3-0.2-0.4s0-0.3,0.2-0.4c0.1-0.1,0.3-0.2,0.4-0.2S109.9,506,110,506.1z M110,509.8
	c0.1,0.1,0.2,0.2,0.2,0.4c0,0.2-0.1,0.3-0.2,0.4s-0.3,0.2-0.4,0.2s-0.3-0.1-0.4-0.2s-0.2-0.3-0.2-0.4s0-0.3,0.2-0.4
	c0.1-0.1,0.3-0.2,0.4-0.2S109.9,509.6,110,509.8z M122.8,505.2c0.4,0.3,0.6,0.8,0.6,1.4c0,0.8-0.4,1.3-1.2,1.6
	c0.4,0.1,0.7,0.3,1,0.6c0.2,0.3,0.4,0.6,0.4,1c0,0.6-0.2,1.2-0.7,1.6s-1.1,0.6-1.8,0.6c-0.7,0-1.2-0.2-1.7-0.5
	c-0.5-0.4-0.8-1-0.8-1.8h0.8c0,0.6,0.2,1,0.6,1.3c0.3,0.2,0.7,0.4,1.1,0.4c0.5,0,0.9-0.1,1.2-0.4c0.3-0.3,0.4-0.6,0.4-1
	s-0.1-0.8-0.4-1s-0.7-0.3-1.2-0.3h-0.6V508h0.5c0.5,0,0.8-0.1,1.1-0.3c0.2-0.2,0.4-0.5,0.4-0.9s-0.1-0.7-0.4-0.9
	c-0.3-0.2-0.6-0.3-1.1-0.3s-0.8,0.1-1.1,0.4c-0.3,0.3-0.4,0.6-0.5,1.1h-0.8c0.1-0.7,0.3-1.2,0.8-1.6c0.4-0.4,1-0.6,1.6-0.6
	S122.3,504.9,122.8,505.2z M130,505.9c0.4,0.6,0.6,1.5,0.6,2.6s-0.2,1.9-0.6,2.6c-0.4,0.7-1.1,1.1-1.9,1.1c-0.9,0-1.5-0.4-1.9-1.1
	c-0.4-0.6-0.6-1.5-0.6-2.6s0.2-1.9,0.6-2.6c0.4-0.8,1.1-1.1,1.9-1.1C128.9,504.7,129.5,505.1,130,505.9z M126.7,506.5
	c-0.2,0.5-0.3,1.1-0.3,2c0,0.8,0.1,1.5,0.3,2c0.3,0.7,0.7,1,1.4,1s1.1-0.3,1.4-1c0.2-0.5,0.3-1.1,0.3-2c0-0.8-0.1-1.5-0.3-2
	c-0.3-0.7-0.7-1-1.4-1S126.9,505.8,126.7,506.5z"/>
<path class="st1" d="M63.6,474.1v-0.8H59v-3.4h4.6v-1h1.5v1h4.7v3.4h-4.7v0.8h6.4v1.3H57.1v-1.3H63.6z M65.2,478.2
	c-0.2,2-0.7,3.2-1.5,3.9c-0.8,0.8-2.8,1.3-5.9,1.6l-0.6-1.4c2.6-0.1,4.4-0.5,5.2-1.1s1.2-1.6,1.3-3.1L65.2,478.2z M69.6,480.8h-1.5
	v-3.4h-7.4v3.6h-1.5v-4.9h10.4V480.8z M63.6,471.1h-3.2v1.1h3.2V471.1z M71.4,482.5l-0.8,1.3c-1.9-0.8-3.8-1.5-5.8-2l0.8-1.1
	C67.7,481.2,69.6,481.8,71.4,482.5z M68.3,471.1h-3.2v1.1h3.2V471.1z M77.3,473.1c-0.2,1.6-0.6,3.2-1.1,4.7l-1.4-0.5
	c0.6-1.4,1-3,1.2-4.6L77.3,473.1z M82.2,477l-1.2,0.6c-0.4-1.4-1-2.6-1.5-3.7v0.1c0,4.4-1,7.6-3,9.7l-1.1-1c1.8-1.8,2.6-4.7,2.7-8.7
	v-4.9h1.5v4.5l1-0.5C81.2,474.3,81.7,475.6,82.2,477z M84,469.5v3.9l1-0.4c0.6,1.2,1.2,2.5,1.7,3.9l-1.2,0.6
	c-0.4-1.3-0.9-2.5-1.4-3.6v9.2h-1.5v-13.7H84V469.5z M88.4,469v14.7h-1.5V469H88.4z M98.6,473c0.1-0.8,0.2-1.7,0.2-2.7v-1.4h1.5v1
	c0,1.1-0.1,2.1-0.2,3h6.5v1.5h-6.1c1.1,3.4,3.3,6.1,6.5,7.9l-0.9,1.2c-3.1-1.9-5.2-4.5-6.5-7.9c-1.1,3.7-3.2,6.4-6.5,8.1l-1-1.3
	c3.3-1.6,5.4-4.3,6.2-8h-5.9V473H98.6z M124,475.9h-1.5v-2.4h-10.8v2.4h-1.5V472h2.9c-0.5-0.9-1-1.6-1.6-2.3l1.4-0.7
	c0.5,0.7,1.1,1.6,1.6,2.5l-1,0.5h6c0.7-1,1.2-2.1,1.7-3.2l1.6,0.6c-0.5,1-1.1,1.9-1.6,2.6h2.9L124,475.9L124,475.9z M121.4,474.5
	v1.3c-1,0.7-2.1,1.3-3.4,1.9v0.6h6v1.4h-6v2.4c0,0.9-0.5,1.4-1.5,1.4h-2l-0.4-1.4c0.6,0,1.2,0,1.9,0c0.3,0,0.5-0.2,0.5-0.6v-1.9
	h-6.3v-1.4h6.3V477c1.1-0.5,2-0.9,2.7-1.2h-6.5v-1.3L121.4,474.5L121.4,474.5z M118.2,471.3l-1.4,0.7c-0.5-1-1-1.8-1.5-2.6l1.4-0.7
	C117.2,469.5,117.7,470.4,118.2,471.3z"/>
<path class="st1" d="M79.6,489.9v9.1h-0.7v-1.7c-0.8,0.4-1.7,0.7-2.6,0.9l-0.2-0.7c1-0.2,1.9-0.5,2.8-1v-3.2h-2.6v-0.7h2.6v-2.8h0.7
	V489.9z M82.2,498.8c-0.6,0-0.9-0.3-0.9-1v-8H82v3.3c0.9-0.3,1.7-0.8,2.5-1.3l0.4,0.6c-1,0.6-2,1.1-2.9,1.4v3.8
	c0,0.3,0.1,0.4,0.4,0.4h1.2c0.2,0,0.4-0.1,0.5-0.2c0.1-0.2,0.1-0.8,0.2-1.8l0.7,0.2c-0.1,1.2-0.2,1.9-0.3,2.1
	c-0.2,0.2-0.5,0.4-0.9,0.4h-1.6V498.8z M88.5,491.8v-1.9h0.7v1.9h1v0.7h-1v0.8c0.3,0.4,0.7,0.8,1,1.3c0.6-0.7,1.1-1.5,1.5-2.4
	l0.6,0.3c-0.5,1-1,1.8-1.6,2.5l-0.4-0.3l0.2,0.3l-0.4,0.6c-0.4-0.7-0.7-1.3-1-1.7v5h-0.7v-5.1c-0.3,1-0.8,1.9-1.3,2.7l-0.3-0.8
	c0.7-1,1.3-2,1.6-3.3h-1.3v-0.7h1.4V491.8z M94.7,494.2c-0.2,1.1-0.5,2-1.1,2.7c0.6,0.6,1.5,1,2.5,1.4l-0.4,0.6
	c-1-0.4-1.9-0.9-2.5-1.5c-0.7,0.7-1.6,1.3-2.7,1.6l-0.4-0.6c1.1-0.3,1.9-0.8,2.6-1.4c-0.6-0.7-1-1.6-1.2-2.6l0.6-0.2
	c0.1,0.8,0.5,1.6,1,2.3c0.4-0.6,0.7-1.4,0.9-2.3H94.7z M92.9,491.1c-0.2-0.5-0.4-0.9-0.6-1.3l0.7-0.1c0.2,0.4,0.4,0.9,0.6,1.4h2.2
	v0.7h-5.4v-0.7H92.9z M96.1,494.6l-0.6,0.4c-0.4-0.7-1-1.5-1.7-2.4l0.6-0.3C95.1,493.1,95.7,493.9,96.1,494.6z M106.6,490.2v0.7
	h-7.2v7h7.5v0.7h-8.2v-8.3h7.9V490.2z M103.4,494c0.6-0.7,1.1-1.6,1.5-2.5l0.6,0.3c-0.4,1-1,1.9-1.6,2.7c0.8,0.7,1.5,1.4,2.1,2.1
	l-0.6,0.6c-0.6-0.7-1.3-1.4-2-2.1c-0.9,0.9-1.9,1.7-3,2.2l-0.4-0.6c1.1-0.5,2.1-1.1,2.9-2c-0.8-0.7-1.7-1.4-2.6-2.1l0.5-0.5
	C101.7,492.6,102.6,493.3,103.4,494z"/>
<path class="st2" d="M368.4,42.2l-0.9,0.9c-0.5-0.7-1.3-1.4-2.2-2.2l0.9-0.9C367,40.8,367.8,41.5,368.4,42.2z M368.7,44.4
	c-0.6,1.8-1.3,3.4-2,5l-1.3-0.6c0.8-1.6,1.5-3.2,2.1-4.8L368.7,44.4z M368.7,38.9l-0.9,0.9c-0.6-0.7-1.3-1.4-2.3-2.1l0.9-0.9
	C367.3,37.5,368.1,38.2,368.7,38.9z M377.3,42.4H376V40h-2.2c-0.1,0.8-0.2,1.5-0.3,2.2h1.2v5.5c0,0.3,0.2,0.4,0.5,0.4h1
	c0.2,0,0.3-0.1,0.4-0.2c0.2-0.2,0.3-0.9,0.3-2.1l1.2,0.4c-0.1,1.5-0.3,2.4-0.5,2.7c-0.3,0.3-0.6,0.4-1.1,0.4h-1.7
	c-1,0-1.4-0.5-1.4-1.4v-5.3c-0.7,3.2-2.2,5.5-4.6,7l-0.8-1.1c2.7-1.6,4.2-4.4,4.5-8.5h-2.1v2.4h-1.3v-3.7h3.4c0-0.1,0-0.2,0-0.3
	v-1.8h1.3v1.5c0,0.2,0,0.4,0,0.6h3.4v3.7H377.3z M385.9,37v1c-0.4,1.2-1,2.5-1.6,3.8c0.9,1.3,1.4,2.4,1.5,3.3c0,0.6-0.2,1.1-0.4,1.4
	c-0.4,0.4-1.2,0.5-2.3,0.6l-0.4-1.3c0.3,0,0.5,0.1,0.7,0.1c0.4,0,0.7-0.1,0.9-0.2c0.1-0.1,0.2-0.3,0.2-0.5c0-0.9-0.5-2-1.5-3.2
	c0.7-1.4,1.2-2.7,1.6-3.8h-2.2v11.3h-1.3V37H385.9z M392.9,49.4h-1.3v-1.1h-3.9v1h-1.3V37.2h6.5L392.9,49.4L392.9,49.4z M391.7,42.1
	v-3.7h-3.9v3.7H391.7z M391.7,47.1v-3.7h-3.9v3.7H391.7z"/>
<path class="st2" d="M356.8,16.1c0.6,0.9,0.9,2,0.9,3.6s-0.3,2.9-1,4c-0.7,1-1.6,1.5-2.7,1.5c-1.9,0-3-0.9-3.3-2.7h1.5
	c0.2,1,0.8,1.5,1.8,1.5c0.7,0,1.2-0.4,1.7-1c0.4-0.6,0.6-1.5,0.6-2.4c0-0.1,0-0.1,0-0.2h-0.1c-0.3,0.4-0.6,0.8-1.1,1
	c-0.4,0.2-0.9,0.3-1.4,0.3c-1,0-1.8-0.3-2.4-1c-0.6-0.6-0.9-1.4-0.9-2.4s0.3-1.8,1-2.5s1.5-1,2.5-1
	C355.2,14.8,356.1,15.2,356.8,16.1z M352.6,16.7c-0.4,0.4-0.6,0.9-0.6,1.6s0.2,1.1,0.6,1.5s0.8,0.6,1.5,0.6c0.6,0,1.1-0.2,1.5-0.6
	s0.5-0.9,0.5-1.6s-0.2-1.2-0.6-1.6S354.6,16,354,16C353.4,16.1,352.9,16.3,352.6,16.7z M362.6,26.5l-1-0.9c0.9-1.2,1.3-2.8,1.4-4.7
	V14h8.3v11c0,0.9-0.5,1.3-1.4,1.3h-1.8l-0.4-1.3c0.6,0,1.2,0.1,1.7,0.1c0.3,0,0.4-0.2,0.4-0.6V22h-5.7
	C364,23.9,363.5,25.3,362.6,26.5z M369.9,15.3h-5.7v2.1h5.7V15.3z M364.2,20.8h5.7v-2.2h-5.7V20.8z M381.8,15.6
	c0.6,0.6,0.9,1.3,0.9,2.2c0,0.9-0.3,1.7-1,2.4c-0.4,0.4-1.1,0.9-2.1,1.6c-1.1,0.7-1.7,1.3-1.9,1.9h5V25h-6.9c0-1,0.3-1.9,1-2.6
	c0.4-0.4,1.1-1,2.3-1.8c0.7-0.5,1.1-0.9,1.4-1.1c0.4-0.5,0.7-1.1,0.7-1.6c0-0.6-0.2-1-0.5-1.3s-0.8-0.4-1.4-0.4s-1.1,0.2-1.4,0.6
	s-0.5,1-0.5,1.8h-1.5c0-1.1,0.3-2,1-2.7c0.6-0.7,1.5-1.1,2.6-1.1C380.4,14.8,381.2,15.1,381.8,15.6z M391.8,16.3
	c0.6,0.9,0.9,2.2,0.9,3.7s-0.3,2.8-0.9,3.7c-0.6,1-1.6,1.5-2.7,1.5s-2.1-0.5-2.7-1.5c-0.6-0.9-0.9-2.2-0.9-3.7
	c0-1.6,0.3-2.8,0.9-3.7c0.6-1,1.6-1.5,2.7-1.5S391.2,15.3,391.8,16.3z M387.4,17.4c-0.3,0.6-0.4,1.5-0.4,2.5c0,1.1,0.1,1.9,0.4,2.5
	c0.3,0.9,0.9,1.4,1.7,1.4c0.8,0,1.4-0.5,1.7-1.4c0.2-0.6,0.4-1.5,0.4-2.5c0-1.1-0.1-1.9-0.4-2.5c-0.3-0.9-0.9-1.4-1.7-1.4
	C388.3,16.1,387.7,16.5,387.4,17.4z M406.3,26.4H405v-1h-6.3v1h-1.3V14h9v12.4H406.3z M405,18.9v-3.6h-6.3v3.6H405z M405,24.1v-3.9
	h-6.3v3.9H405z"/>
<path class="st2" d="M342.9,126.9v7.1h-0.8v-6.1c-0.4,0.5-1,0.8-1.7,1V128c0.3-0.1,0.7-0.2,1-0.4c0.3-0.2,0.6-0.5,0.9-0.7H342.9z
	 M349.7,127.3c0.4,0.3,0.6,0.8,0.6,1.3c0,0.4-0.1,0.7-0.3,1c-0.2,0.3-0.5,0.5-0.8,0.6l0,0c0.4,0.1,0.7,0.3,0.9,0.6
	c0.3,0.3,0.4,0.7,0.4,1.2c0,0.6-0.2,1.1-0.7,1.5s-1.1,0.6-1.9,0.6s-1.5-0.2-1.9-0.6c-0.4-0.4-0.7-0.9-0.7-1.5c0-0.5,0.1-0.9,0.4-1.2
	s0.6-0.5,0.9-0.6l0,0c-0.4-0.1-0.7-0.3-0.8-0.6c-0.2-0.3-0.3-0.6-0.3-1c0-0.5,0.2-1,0.6-1.3c0.4-0.4,1-0.6,1.7-0.6
	C348.7,126.7,349.3,126.9,349.7,127.3z M346.6,131c-0.3,0.3-0.4,0.6-0.4,1s0.1,0.8,0.4,1c0.3,0.3,0.7,0.4,1.3,0.4s1-0.1,1.3-0.4
	c0.3-0.3,0.4-0.6,0.4-1s-0.1-0.8-0.4-1c-0.3-0.3-0.8-0.4-1.3-0.4S347,130.7,346.6,131z M346.8,127.8c-0.2,0.2-0.4,0.5-0.4,0.9
	s0.1,0.7,0.3,0.9c0.3,0.3,0.7,0.4,1.2,0.4s1-0.1,1.2-0.4c0.2-0.2,0.3-0.5,0.3-0.9c0-0.3-0.1-0.6-0.4-0.9c-0.3-0.3-0.7-0.4-1.2-0.4
	C347.5,127.4,347.1,127.5,346.8,127.8z M354.9,128.1c0.1,0.1,0.2,0.2,0.2,0.4s-0.1,0.3-0.2,0.4c-0.1,0.1-0.3,0.2-0.4,0.2
	c-0.2,0-0.3-0.1-0.4-0.2c-0.1-0.1-0.2-0.3-0.2-0.4s0-0.3,0.2-0.4c0.1-0.1,0.3-0.2,0.4-0.2C354.6,127.9,354.8,128,354.9,128.1z
	 M354.9,131.8c0.1,0.1,0.2,0.2,0.2,0.4s-0.1,0.3-0.2,0.4c-0.1,0.1-0.3,0.2-0.4,0.2c-0.2,0-0.3-0.1-0.4-0.2c-0.1-0.1-0.2-0.3-0.2-0.4
	s0-0.3,0.2-0.4c0.1-0.1,0.3-0.2,0.4-0.2S354.8,131.6,354.9,131.8z M367.7,127.2c0.4,0.3,0.6,0.8,0.6,1.4c0,0.8-0.4,1.3-1.2,1.6
	c0.4,0.1,0.7,0.3,1,0.6c0.2,0.3,0.4,0.6,0.4,1c0,0.6-0.2,1.2-0.7,1.6c-0.5,0.4-1.1,0.6-1.8,0.6c-0.7,0-1.2-0.2-1.7-0.5
	c-0.5-0.4-0.8-1-0.8-1.8h0.8c0,0.6,0.2,1,0.6,1.3c0.3,0.2,0.7,0.4,1.1,0.4c0.5,0,0.9-0.1,1.2-0.4c0.3-0.3,0.4-0.6,0.4-1
	s-0.1-0.8-0.4-1s-0.7-0.3-1.2-0.3h-0.6V130h0.5c0.5,0,0.8-0.1,1.1-0.3c0.2-0.2,0.4-0.5,0.4-0.9s-0.1-0.7-0.4-0.9
	c-0.3-0.2-0.6-0.3-1.1-0.3s-0.8,0.1-1.1,0.4c-0.3,0.3-0.4,0.6-0.5,1.1h-0.8c0.1-0.7,0.3-1.2,0.8-1.6c0.4-0.4,1-0.6,1.6-0.6
	S367.3,126.9,367.7,127.2z M374.9,127.9c0.4,0.6,0.6,1.5,0.6,2.6s-0.2,1.9-0.6,2.6c-0.4,0.7-1.1,1.1-1.9,1.1c-0.9,0-1.5-0.4-1.9-1.1
	c-0.4-0.6-0.6-1.5-0.6-2.6s0.2-1.9,0.6-2.6c0.4-0.8,1.1-1.1,1.9-1.1C373.8,126.7,374.5,127.1,374.9,127.9z M371.6,128.5
	c-0.2,0.5-0.3,1.1-0.3,2c0,0.8,0.1,1.5,0.3,2c0.3,0.7,0.7,1,1.4,1s1.1-0.3,1.4-1c0.2-0.5,0.3-1.1,0.3-2c0-0.8-0.1-1.5-0.3-2
	c-0.3-0.7-0.7-1-1.4-1S371.9,127.8,371.6,128.5z M382.5,131.1v0.7h-5v-0.7H382.5z M388.8,127.3c0.4,0.4,0.6,0.9,0.6,1.5
	s-0.2,1.2-0.7,1.7c-0.2,0.3-0.7,0.6-1.5,1.1c-0.9,0.6-1.4,1.2-1.6,1.6h3.7v0.7h-4.8c0-0.6,0.2-1.2,0.7-1.8c0.3-0.3,0.8-0.7,1.5-1.3
	c0.6-0.4,0.9-0.7,1.1-0.9c0.4-0.4,0.5-0.8,0.5-1.3c0-0.4-0.1-0.8-0.4-1s-0.6-0.4-1.1-0.4s-0.9,0.2-1.1,0.5c-0.3,0.3-0.4,0.8-0.4,1.4
	h-0.8c0-0.8,0.2-1.4,0.7-1.9c0.4-0.5,1-0.7,1.7-0.7C387.8,126.7,388.3,126.9,388.8,127.3z M394,126.9v7.1h-0.8v-6.1
	c-0.4,0.5-1,0.8-1.7,1V128c0.3-0.1,0.7-0.2,1-0.4c0.3-0.2,0.6-0.5,0.9-0.7H394z M399,128.1c0.1,0.1,0.2,0.2,0.2,0.4
	s-0.1,0.3-0.2,0.4c-0.1,0.1-0.3,0.2-0.4,0.2c-0.2,0-0.3-0.1-0.4-0.2c-0.1-0.1-0.2-0.3-0.2-0.4s0-0.3,0.2-0.4
	c0.1-0.1,0.3-0.2,0.4-0.2C398.7,127.9,398.9,128,399,128.1z M399,131.8c0.1,0.1,0.2,0.2,0.2,0.4s-0.1,0.3-0.2,0.4
	c-0.1,0.1-0.3,0.2-0.4,0.2c-0.2,0-0.3-0.1-0.4-0.2c-0.1-0.1-0.2-0.3-0.2-0.4s0-0.3,0.2-0.4c0.1-0.1,0.3-0.2,0.4-0.2
	S398.9,131.6,399,131.8z M411.8,127.2c0.4,0.3,0.6,0.8,0.6,1.4c0,0.8-0.4,1.3-1.2,1.6c0.4,0.1,0.7,0.3,1,0.6c0.2,0.3,0.4,0.6,0.4,1
	c0,0.6-0.2,1.2-0.7,1.6c-0.5,0.4-1.1,0.6-1.8,0.6c-0.7,0-1.2-0.2-1.7-0.5c-0.5-0.4-0.8-1-0.8-1.8h0.8c0,0.6,0.2,1,0.6,1.3
	c0.3,0.2,0.7,0.4,1.1,0.4c0.5,0,0.9-0.1,1.2-0.4c0.3-0.3,0.4-0.6,0.4-1s-0.1-0.8-0.4-1s-0.7-0.3-1.2-0.3h-0.6V130h0.5
	c0.5,0,0.8-0.1,1.1-0.3c0.2-0.2,0.4-0.5,0.4-0.9s-0.1-0.7-0.4-0.9c-0.3-0.2-0.6-0.3-1.1-0.3s-0.8,0.1-1.1,0.4
	c-0.3,0.3-0.4,0.6-0.5,1.1h-0.8c0.1-0.7,0.3-1.2,0.8-1.6c0.4-0.4,1-0.6,1.6-0.6S411.3,126.9,411.8,127.2z M419,127.9
	c0.4,0.6,0.6,1.5,0.6,2.6s-0.2,1.9-0.6,2.6c-0.4,0.7-1.1,1.1-1.9,1.1c-0.9,0-1.5-0.4-1.9-1.1c-0.4-0.6-0.6-1.5-0.6-2.6
	s0.2-1.9,0.6-2.6c0.4-0.8,1.1-1.1,1.9-1.1C417.9,126.7,418.5,127.1,419,127.9z M415.7,128.5c-0.2,0.5-0.3,1.1-0.3,2
	c0,0.8,0.1,1.5,0.3,2c0.3,0.7,0.7,1,1.4,1s1.1-0.3,1.4-1c0.2-0.5,0.3-1.1,0.3-2c0-0.8-0.1-1.5-0.3-2c-0.3-0.7-0.7-1-1.4-1
	S415.9,127.8,415.7,128.5z"/>
<path class="st1" d="M350.3,101.2c-1,1.4-2.3,2.7-3.8,3.7l-1-1.3c1.5-1,2.7-2.1,3.7-3.4L350.3,101.2z M349.9,92.7
	c0.3-0.6,0.5-1.3,0.8-2l1.5,0.3c-0.2,0.6-0.4,1.1-0.7,1.6h8v1.5h-8.7c-0.7,1.4-1.4,2.6-2.2,3.6h3.7v-2.2h1.5v2.2h4.9v1.4h-4.9v4.8
	c0,1.1-0.6,1.6-1.7,1.6h-1.7l-0.3-1.5c0.5,0.1,1,0.1,1.5,0.1c0.4,0,0.7-0.2,0.7-0.6v-4.4H347l-0.4-1.4c0.9-1,1.7-2.2,2.5-3.7H346
	v-1.5h3.9V92.7z M360.1,103.8l-1.1,1.1c-0.8-1.2-2-2.4-3.5-3.8l1-1C357.9,101.4,359.1,102.6,360.1,103.8z M369.1,90.9v14.6h-1.5V103
	c-1.3,0.6-2.6,1-4,1.4l-0.4-1.5c1.5-0.3,3-0.8,4.4-1.5v-4.8h-4.1v-1.5h4.1v-4.3h1.5V90.9z M373.1,105.4c-1.1,0-1.7-0.6-1.7-1.8V90.9
	h1.5v5.2c1.3-0.5,2.6-1.1,3.7-2l0.9,1.2c-1.6,1-3.2,1.7-4.6,2.2v5.8c0,0.4,0.2,0.6,0.5,0.6h1.9c0.3,0,0.5-0.1,0.7-0.4
	c0.1-0.3,0.2-1.2,0.2-2.7l1.4,0.5c-0.1,1.9-0.3,3-0.5,3.4c-0.3,0.4-0.8,0.6-1.5,0.6h-2.5V105.4z M387.1,95c0.1-0.8,0.2-1.7,0.2-2.7
	v-1.4h1.5v1c0,1.1-0.1,2.1-0.2,3h6.5v1.5H389c1.1,3.4,3.3,6.1,6.5,7.9l-0.9,1.2c-3.1-1.9-5.2-4.5-6.5-7.9c-1.1,3.7-3.2,6.4-6.5,8.1
	l-1-1.3c3.3-1.6,5.4-4.3,6.2-8h-5.9V95H387.1z M412.5,97.9H411v-2.4h-10.8v2.4h-1.5V94h2.9c-0.5-0.9-1-1.6-1.6-2.3l1.4-0.7
	c0.5,0.7,1.1,1.6,1.6,2.5l-1,0.5h6c0.7-1,1.2-2.1,1.7-3.2l1.6,0.6c-0.5,1-1.1,1.9-1.6,2.6h2.9v3.9H412.5z M409.9,96.5v1.3
	c-1,0.7-2.1,1.3-3.4,1.9v0.6h6v1.4h-6v2.4c0,0.9-0.5,1.4-1.5,1.4h-2l-0.4-1.4c0.6,0,1.2,0,1.9,0c0.3,0,0.5-0.2,0.5-0.6v-1.9h-6.3
	v-1.4h6.3V99c1.1-0.5,2-0.9,2.7-1.2h-6.5v-1.3C401.2,96.5,409.9,96.5,409.9,96.5z M406.7,93.3l-1.4,0.7c-0.5-1-1-1.8-1.5-2.6
	l1.4-0.7C405.7,91.5,406.2,92.4,406.7,93.3z"/>
<path class="st1" d="M361.3,115.8l-0.5,0.5c-0.4-0.5-1-1-1.8-1.5l0.5-0.5C360.3,114.8,360.9,115.3,361.3,115.8z M361.6,117.4
	c-0.5,1.3-1,2.4-1.7,3.5l-0.7-0.3c0.7-1.1,1.2-2.3,1.7-3.5L361.6,117.4z M361.7,113.5l-0.5,0.5c-0.4-0.5-1.1-1-1.9-1.5l0.5-0.5
	C360.6,112.5,361.2,113,361.7,113.5z M364.7,113.4c-0.1,0.3-0.2,0.7-0.4,1h3.4v0.6h-3.6c-0.3,0.6-0.6,1.2-1,1.7h1.6v-1.2h0.7v1.2
	h2.1v0.6h-2.1v1.2h2.6v0.7h-2.6v1.7h-0.7v-1.7h-2.9v-0.7h2.9v-1.2h-2.3l-0.1-0.6c0.4-0.5,0.7-1.1,1.1-1.7h-1.3v-0.6h1.5
	c0.1-0.4,0.3-0.7,0.4-1.1L364.7,113.4z M367.8,113.9h-0.7v-1.1h-4.4v1.1H362v-1.7h5.7L367.8,113.9L367.8,113.9z M374.2,112.8l0.1-1
	l0.7,0.1c0,0.3-0.1,0.6-0.1,0.9h4v0.7h-4.1c-0.1,0.4-0.1,0.7-0.2,1h3.8v5.5c0,0.6-0.3,0.9-0.9,0.9h-1l-0.2-0.7h0.9
	c0.3,0,0.4-0.1,0.4-0.4v-4.7h-6.4v5.8h-0.7v-6.5h3.3c0.1-0.3,0.1-0.7,0.2-1h-4v-0.7L374.2,112.8L374.2,112.8z M374,116.7h1
	c0.2-0.4,0.4-0.8,0.6-1.3l0.7,0.2c-0.2,0.4-0.4,0.7-0.6,1.1h1.1v0.6h-2v1h2.3v0.6h-2.3v1.8h-0.7V119h-2.3v-0.6h2.3v-1h-2v-0.6h1.1
	c-0.1-0.4-0.3-0.7-0.5-1l0.6-0.2C373.6,115.8,373.8,116.2,374,116.7z M382.5,113.8v-1.9h0.7v1.9h1v0.7h-1v0.8c0.3,0.4,0.7,0.8,1,1.3
	c0.6-0.7,1.1-1.5,1.5-2.4l0.6,0.3c-0.5,1-1,1.8-1.6,2.5l-0.4-0.3l0.2,0.3l-0.4,0.6c-0.4-0.7-0.7-1.3-1-1.7v5h-0.7v-5.1
	c-0.3,1-0.8,1.9-1.3,2.7l-0.3-0.8c0.7-1,1.3-2,1.6-3.3h-1.3v-0.7L382.5,113.8L382.5,113.8z M388.7,116.2c-0.2,1.1-0.5,2-1.1,2.7
	c0.6,0.6,1.5,1,2.5,1.4l-0.4,0.6c-1-0.4-1.9-0.9-2.5-1.5c-0.7,0.7-1.6,1.3-2.7,1.6l-0.4-0.6c1.1-0.3,1.9-0.8,2.6-1.4
	c-0.6-0.7-1-1.6-1.2-2.6l0.6-0.2c0.1,0.8,0.5,1.6,1,2.3c0.4-0.6,0.7-1.4,0.9-2.3H388.7z M386.9,113.1c-0.2-0.5-0.4-0.9-0.6-1.3
	l0.7-0.1c0.2,0.4,0.4,0.9,0.6,1.4h2.2v0.7h-5.4v-0.7H386.9z M390.1,116.6l-0.6,0.4c-0.4-0.7-1-1.5-1.7-2.4l0.6-0.3
	C389.1,115.1,389.7,115.9,390.1,116.6z M400.6,112.2v0.7h-7.2v7h7.5v0.7h-8.2v-8.3L400.6,112.2L400.6,112.2z M397.4,116
	c0.6-0.7,1.1-1.6,1.5-2.5l0.6,0.3c-0.4,1-1,1.9-1.6,2.7c0.8,0.7,1.5,1.4,2.1,2.1l-0.6,0.6c-0.6-0.7-1.3-1.4-2-2.1
	c-0.9,0.9-1.9,1.7-3,2.2l-0.4-0.6c1.1-0.5,2.1-1.1,2.9-2c-0.8-0.7-1.7-1.4-2.6-2.1l0.5-0.5C395.7,114.6,396.6,115.3,397.4,116z"/>
<path class="st2" d="M667.2,227v1.3h-4.1v1.8h3.4v9.2h-1.3v-0.5h-8.4v0.5h-1.3v-9.2h3.3v-1.8h-4.1V227H667.2z M665.1,237.6v-2h-1.9
	c-1,0-1.5-0.5-1.5-1.5v-2.6H660v0.1c0,2.2-0.8,3.9-2.3,4.9l-1-0.9v2H665.1z M658.7,231.5v-0.1h-2v4.1
	C658,234.7,658.7,233.3,658.7,231.5z M660,230.1h1.7v-1.8H660V230.1z M663.1,233.7c0,0.4,0.2,0.6,0.6,0.6h1.5v-3h-2.1V233.7z
	 M674,231.7c0.4-0.7,0.8-1.4,1.1-2.2l1.4,0.4c-0.3,0.6-0.6,1.2-0.9,1.8h7v1.3h-2.7c-0.6,1.4-1.2,2.5-1.8,3.3
	c1.4,0.6,2.8,1.3,4.3,2.1l-0.9,1.2c-1.4-0.8-2.9-1.6-4.3-2.3c-1.6,1.4-3.7,2.1-6.2,2.2l-0.8-1.2c2.3,0,4.2-0.5,5.6-1.5
	c-1.3-0.5-2.5-1-3.8-1.4c0.5-0.8,0.9-1.5,1.4-2.3h-3.2v-1.3h3.8V231.7z M682.3,231H681v-1.9h-9.3v1.9h-1.4v-3.2h5.2
	c-0.2-0.4-0.4-0.8-0.6-1.1l1.5-0.3c0.2,0.4,0.4,0.9,0.6,1.4h5.2L682.3,231L682.3,231z M673.8,234.7c1,0.3,1.9,0.6,2.9,1
	c0.7-0.8,1.2-1.7,1.7-2.7h-3.5C674.5,233.6,674.1,234.2,673.8,234.7z"/>
<path class="st2" d="M359.8,206.1c0.6,0.9,0.9,2,0.9,3.6s-0.3,2.9-1,4c-0.7,1-1.6,1.5-2.7,1.5c-1.9,0-3-0.9-3.3-2.7h1.5
	c0.2,1,0.8,1.5,1.8,1.5c0.7,0,1.2-0.4,1.7-1c0.4-0.6,0.6-1.5,0.6-2.4c0-0.1,0-0.1,0-0.2h-0.1c-0.3,0.4-0.6,0.8-1.1,1
	c-0.4,0.2-0.9,0.3-1.4,0.3c-1,0-1.8-0.3-2.4-1c-0.6-0.6-0.9-1.4-0.9-2.4s0.3-1.8,1-2.5s1.5-1,2.5-1
	C358.3,204.8,359.2,205.2,359.8,206.1z M355.6,206.7c-0.4,0.4-0.6,0.9-0.6,1.6s0.2,1.1,0.6,1.5s0.8,0.6,1.5,0.6
	c0.6,0,1.1-0.2,1.5-0.6s0.5-0.9,0.5-1.6c0-0.7-0.2-1.2-0.6-1.6c-0.4-0.4-0.9-0.6-1.5-0.6C356.5,206.1,356,206.3,355.6,206.7z
	 M365.6,216.5l-1-0.9c0.9-1.2,1.3-2.8,1.4-4.7V204h8.3v11c0,0.9-0.5,1.3-1.4,1.3h-1.8l-0.4-1.3c0.6,0,1.2,0.1,1.7,0.1
	c0.3,0,0.4-0.2,0.4-0.6V212h-5.6C367,213.9,366.5,215.3,365.6,216.5z M373,205.3h-5.7v2.1h5.7V205.3z M367.3,210.8h5.7v-2.2h-5.7
	V210.8z M384.9,205.6c0.6,0.6,0.9,1.3,0.9,2.2s-0.3,1.7-1,2.4c-0.4,0.4-1.1,0.9-2.1,1.6c-1.1,0.7-1.7,1.3-1.9,1.9h5v1.3h-6.9
	c0-1,0.3-1.9,1-2.6c0.4-0.4,1.1-1,2.3-1.8c0.7-0.5,1.1-0.9,1.4-1.1c0.4-0.5,0.7-1.1,0.7-1.6c0-0.6-0.2-1-0.5-1.3s-0.8-0.4-1.4-0.4
	s-1.1,0.2-1.4,0.6c-0.3,0.4-0.5,1-0.5,1.8H379c0-1.1,0.3-2,1-2.7c0.6-0.7,1.5-1.1,2.6-1.1C383.5,204.8,384.3,205.1,384.9,205.6z
	 M395.1,205v1.2l-3.5,8.8H390l3.6-8.6h-5.2V205H395.1z M408.7,216.4h-1.3v-1h-6.3v1h-1.3V204h9v12.4H408.7z M407.4,208.9v-3.6h-6.3
	v3.6H407.4z M407.4,214.1v-3.9h-6.3v3.9H407.4z"/>
<path class="st1" d="M614.1,281.5v1.5h-4.7v2.1h3.9v10.5h-1.5V295h-9.6v0.6h-1.5V285h3.8v-2.1h-4.7v-1.5h14.3V281.5z M611.7,293.5
	v-2.3h-2.1c-1.2,0-1.7-0.6-1.7-1.8v-3h-2v0.1c0,2.6-0.9,4.4-2.6,5.6l-1.1-1v2.3L611.7,293.5L611.7,293.5z M604.4,286.6v-0.1h-2.3
	v4.7C603.6,290.2,604.3,288.7,604.4,286.6z M605.9,285h2v-2.1h-2V285z M609.4,289.1c0,0.5,0.2,0.7,0.7,0.7h1.7v-3.4h-2.4
	L609.4,289.1L609.4,289.1z M621.8,286.8c0.4-0.8,0.9-1.6,1.3-2.5l1.6,0.5c-0.4,0.7-0.7,1.4-1.1,2h8v1.5h-3.1
	c-0.6,1.6-1.3,2.8-2.1,3.8c1.6,0.7,3.2,1.5,4.9,2.4l-1,1.3c-1.6-1-3.3-1.8-4.9-2.6c-1.8,1.6-4.2,2.4-7.1,2.5l-0.9-1.4
	c2.6,0,4.8-0.6,6.4-1.8c-1.4-0.6-2.9-1.2-4.3-1.6c0.5-0.9,1.1-1.7,1.6-2.6h-3.6v-1.5L621.8,286.8L621.8,286.8z M631.3,285.9h-1.5
	v-2.1h-10.6v2.1h-1.5v-3.6h6c-0.2-0.5-0.4-0.9-0.7-1.3l1.7-0.3c0.2,0.5,0.4,1,0.7,1.6h6L631.3,285.9L631.3,285.9z M621.6,290.2
	c1.1,0.3,2.2,0.7,3.3,1.1c0.8-0.9,1.4-1.9,1.9-3.1h-4C622.4,289,622,289.6,621.6,290.2z M637.5,291.2v1.3H636V283h5.1v-2.1h1.5v2.1
	h5.2v8.3h-5.2v1.6c0,0.8,0.3,1.1,1,1.1h3.5c0.3,0,0.6-0.1,0.7-0.3c0.1-0.2,0.2-0.8,0.3-1.7l1.5,0.5c-0.1,1.4-0.3,2.2-0.6,2.5
	s-0.8,0.4-1.6,0.4h-4.1c-1.5,0-2.2-0.8-2.2-2.3v-1.8h-3.6V291.2z M637.5,284.4v2h3.6v-2H637.5z M637.5,289.8h3.6v-2h-3.6V289.8z
	 M646.3,284.4h-3.7v2h3.7V284.4z M646.3,289.8v-2h-3.7v2H646.3z M659.3,287.6v-2c1.3-0.7,2.5-1.6,3.6-2.6h-8.6v-1.4h10.6v1.4
	c-1.2,1.2-2.6,2.3-4.2,3.4v1.3h6v1.5h-6v4.9c0,1-0.5,1.6-1.6,1.6h-2.8l-0.4-1.5c0.8,0,1.7,0,2.6,0c0.4,0,0.7-0.2,0.7-0.6v-4.4h-6.6
	v-1.5L659.3,287.6L659.3,287.6z M672.8,285.1v-2c-0.7,0.1-1.5,0.2-2.2,0.3l-0.3-1.4c2.1-0.2,3.9-0.5,5.5-1l0.5,1.4
	c-0.7,0.2-1.3,0.3-2,0.5v2.2h2v1.5h-2v0.6c0.8,0.6,1.7,1.4,2.6,2.2l-0.8,1.3c-0.7-0.8-1.3-1.5-1.7-2v7h-1.5v-6.9
	c-0.6,1.4-1.4,2.7-2.3,3.9l-0.7-1.7c1.3-1.3,2.2-2.7,2.8-4.3h-2.4v-1.5h2.5V285.1z M684.7,290.9l-1.5,0.2v4.5h-1.5v-4.2l-4.8,0.8
	l-0.2-1.5l5-0.8V281h1.5v8.7l1.3-0.2L684.7,290.9z M680.8,287.9l-1.1,1.1c-0.7-0.8-1.6-1.6-2.8-2.5l1.1-1
	C679.1,286.2,680,287.1,680.8,287.9z M681.2,284.1l-1,1.1c-0.7-0.7-1.6-1.5-2.8-2.3l1.1-1C679.5,282.5,680.5,283.3,681.2,284.1z
	 M688.1,295.5l-0.3-1.4c0.4,0.1,0.8,0.1,1.2,0.1c0.4,0,0.6-0.2,0.6-0.7v-3.4c-0.6,0.2-1.2,0.4-1.7,0.6l-0.4-1.5
	c0.7-0.2,1.4-0.4,2.1-0.6v-3.5h-1.8v-1.5h1.8v-2.8h1.5v2.8h1.6v1.5h-1.6v2.8c0.5-0.3,1.1-0.5,1.6-0.8v1.5c-0.5,0.3-1.1,0.5-1.6,0.8
	v4.4c0,1.1-0.5,1.6-1.5,1.6h-1.5V295.5z M696.8,283.1V281h1.5v2.1h3.7v1.5h-3.7v2.3h3.1v1.3c-0.5,1.7-1.4,3.1-2.6,4.3
	c1,0.7,2.2,1.4,3.6,2l-0.8,1.2c-1.5-0.7-2.8-1.4-3.9-2.3c-1.2,0.9-2.7,1.7-4.4,2.3l-0.7-1.3c1.6-0.5,3-1.2,4.1-2
	c-1.2-1.2-2.1-2.6-2.5-4.2h-0.9v-1.4h3.4v-2.3H693V283h3.8V283.1z M697.7,291.6c1-1,1.7-2.1,2.2-3.3h-4.3
	C696,289.5,696.7,290.6,697.7,291.6z M711.6,285c0.1-0.8,0.2-1.7,0.2-2.7v-1.4h1.5v1c0,1.1-0.1,2.1-0.2,3h6.5v1.5h-6.1
	c1.1,3.4,3.3,6.1,6.5,7.9l-0.9,1.2c-3.1-1.9-5.2-4.5-6.5-7.9c-1.1,3.7-3.2,6.4-6.5,8.1l-1-1.3c3.3-1.6,5.4-4.3,6.2-8h-5.9V285H711.6
	z M737,287.9h-1.5v-2.4h-10.8v2.4h-1.5V284h2.9c-0.5-0.9-1-1.6-1.6-2.3l1.4-0.7c0.5,0.7,1.1,1.6,1.6,2.5l-1,0.5h6
	c0.7-1,1.2-2.1,1.7-3.2l1.6,0.6c-0.5,1-1.1,1.9-1.6,2.6h2.9L737,287.9L737,287.9z M734.4,286.5v1.3c-1,0.7-2.1,1.3-3.4,1.9v0.6h6
	v1.4h-6v2.4c0,0.9-0.5,1.4-1.5,1.4h-2l-0.4-1.4c0.6,0,1.2,0,1.9,0c0.3,0,0.5-0.2,0.5-0.6v-1.9h-6.3v-1.4h6.3V289
	c1.1-0.5,2-0.9,2.7-1.2h-6.5v-1.3L734.4,286.5L734.4,286.5z M731.2,283.3l-1.4,0.7c-0.5-1-1-1.8-1.5-2.6l1.4-0.7
	C730.2,281.5,730.7,282.4,731.2,283.3z"/>
<path class="st1" d="M626.2,304.2v-0.7h3.8c-0.2-0.5-0.4-1-0.6-1.5l0.7-0.2c0.2,0.6,0.4,1.1,0.6,1.6l-0.4,0.1h4.1v0.7h-3.7v2.4h3.2
	v0.7h-3.2v2.7h4.1v0.7h-8.9V310h4.1v-2.7h-3.2v-0.7h3.2v-2.4L626.2,304.2L626.2,304.2z M638.3,303.8v-1.9h0.7v1.9h1v0.7h-1v0.8
	c0.3,0.4,0.7,0.8,1,1.3c0.6-0.7,1.1-1.5,1.5-2.4l0.6,0.3c-0.5,1-1,1.8-1.6,2.5l-0.4-0.3l0.2,0.3l-0.4,0.6c-0.4-0.7-0.7-1.3-1-1.7v5
	h-0.6v-5.1c-0.3,1-0.8,1.9-1.3,2.7l-0.3-0.8c0.7-1,1.3-2,1.6-3.3H637v-0.7h1.3V303.8z M644.5,306.2c-0.2,1.1-0.5,2-1.1,2.7
	c0.6,0.6,1.5,1,2.5,1.4l-0.4,0.6c-1-0.4-1.9-0.9-2.5-1.5c-0.7,0.7-1.6,1.3-2.7,1.6l-0.4-0.6c1.1-0.3,1.9-0.8,2.6-1.4
	c-0.6-0.7-1-1.6-1.2-2.6l0.6-0.2c0.1,0.8,0.5,1.6,1,2.3c0.4-0.6,0.7-1.4,0.9-2.3H644.5z M642.7,303.1c-0.2-0.5-0.4-0.9-0.6-1.3
	l0.7-0.1c0.2,0.4,0.4,0.9,0.6,1.4h2.2v0.7h-5.3v-0.7H642.7z M645.9,306.6l-0.6,0.4c-0.4-0.7-1-1.5-1.7-2.4l0.6-0.3
	C644.9,305.1,645.5,305.9,645.9,306.6z M656.4,302.2v0.7h-7.2v7h7.5v0.7h-8.2v-8.3h7.9V302.2z M653.2,306c0.6-0.7,1.1-1.6,1.5-2.5
	l0.6,0.3c-0.4,1-1,1.9-1.6,2.7c0.8,0.7,1.5,1.4,2.1,2.1l-0.6,0.6c-0.6-0.7-1.3-1.4-2-2.1c-0.9,0.9-1.9,1.7-3,2.2l-0.4-0.6
	c1.1-0.5,2.1-1.1,2.9-2c-0.8-0.7-1.7-1.4-2.6-2.1l0.5-0.5C651.5,304.6,652.4,305.3,653.2,306z M667.5,301.7
	c-0.4,0.7-0.7,1.3-0.9,2.1c-0.3,0.9-0.4,1.7-0.4,2.6c0,0.8,0.1,1.7,0.4,2.6c0.2,0.7,0.5,1.4,0.9,2.1h-0.7c-0.4-0.6-0.8-1.3-1-2.1
	c-0.3-0.9-0.4-1.7-0.4-2.6s0.1-1.8,0.4-2.6c0.2-0.7,0.6-1.4,1-2.1H667.5z M673.4,301.9v9.1h-0.7v-1.7c-0.8,0.4-1.7,0.7-2.6,0.9
	l-0.2-0.7c1-0.2,1.9-0.5,2.8-1v-3.2h-2.6v-0.7h2.6v-2.8h0.7V301.9z M676,310.8c-0.6,0-0.9-0.3-0.9-1v-8h0.7v3.3
	c0.9-0.3,1.7-0.8,2.5-1.3l0.4,0.6c-1,0.6-2,1.1-2.9,1.4v3.8c0,0.3,0.1,0.4,0.4,0.4h1.2c0.2,0,0.4-0.1,0.5-0.2
	c0.1-0.2,0.1-0.8,0.2-1.8l0.7,0.2c-0.1,1.2-0.2,1.9-0.3,2.1c-0.2,0.2-0.5,0.4-0.9,0.4H676V310.8z M682.3,303.8v-1.9h0.7v1.9h1v0.7
	h-1v0.8c0.3,0.4,0.7,0.8,1,1.3c0.6-0.7,1.1-1.5,1.5-2.4l0.6,0.3c-0.5,1-1,1.8-1.6,2.5l-0.4-0.3l0.2,0.3l-0.4,0.6
	c-0.4-0.7-0.7-1.3-1-1.7v5h-0.6v-5.1c-0.3,1-0.8,1.9-1.3,2.7l-0.3-0.8c0.7-1,1.3-2,1.6-3.3H681v-0.7h1.3V303.8z M688.5,306.2
	c-0.2,1.1-0.5,2-1.1,2.7c0.6,0.6,1.5,1,2.5,1.4l-0.4,0.6c-1-0.4-1.9-0.9-2.5-1.5c-0.7,0.7-1.6,1.3-2.7,1.6l-0.4-0.6
	c1.1-0.3,1.9-0.8,2.6-1.4c-0.6-0.7-1-1.6-1.2-2.6l0.6-0.2c0.1,0.8,0.5,1.6,1,2.3c0.4-0.6,0.7-1.4,0.9-2.3H688.5z M686.7,303.1
	c-0.2-0.5-0.4-0.9-0.6-1.3l0.7-0.1c0.2,0.4,0.4,0.9,0.6,1.4h2.2v0.7h-5.3v-0.7H686.7z M689.9,306.6l-0.6,0.4c-0.4-0.7-1-1.5-1.7-2.4
	l0.6-0.3C688.9,305.1,689.5,305.9,689.9,306.6z M700.4,302.2v0.7h-7.2v7h7.5v0.7h-8.2v-8.3h7.9V302.2z M697.2,306
	c0.6-0.7,1.1-1.6,1.5-2.5l0.6,0.3c-0.4,1-1,1.9-1.6,2.7c0.8,0.7,1.5,1.4,2.1,2.1l-0.6,0.6c-0.6-0.7-1.3-1.4-2-2.1
	c-0.9,0.9-1.9,1.7-3,2.2l-0.4-0.6c1.1-0.5,2.1-1.1,2.9-2c-0.8-0.7-1.7-1.4-2.6-2.1l0.5-0.5C695.5,304.6,696.4,305.3,697.2,306z
	 M703.8,301.7c0.4,0.6,0.8,1.3,1,2.1c0.3,0.9,0.4,1.7,0.4,2.6s-0.1,1.7-0.4,2.6c-0.3,0.7-0.6,1.4-1,2.1h-0.7
	c0.4-0.7,0.7-1.4,0.9-2.1c0.3-0.9,0.4-1.7,0.4-2.6s-0.1-1.7-0.4-2.6c-0.2-0.7-0.5-1.4-0.9-2.1H703.8z"/>
<path class="st2" d="M371.4,414.6v12.8h-1.3v-2.2c-1.1,0.5-2.3,0.9-3.5,1.3l-0.3-1.3c1.3-0.3,2.6-0.7,3.8-1.3v-4.2h-3.6v-1.3h3.6
	v-3.8H371.4z M375,427.2c-1,0-1.5-0.5-1.5-1.6v-11.1h1.3v4.5c1.1-0.4,2.2-1,3.3-1.7l0.8,1.1c-1.4,0.8-2.8,1.5-4,1.9v5.1
	c0,0.4,0.2,0.5,0.5,0.5h1.6c0.3,0,0.4-0.1,0.6-0.3c0.1-0.2,0.2-1,0.2-2.3l1.2,0.4c-0.1,1.6-0.3,2.6-0.5,3c-0.3,0.3-0.7,0.5-1.3,0.5
	H375z M385.7,424c-0.9,1.2-1.9,2.3-3.2,3.2l-0.8-1.1c1.2-0.8,2.3-1.8,3.1-3L385.7,424z M388.6,415.9h5.7v1.2h-12.5v-1.2h5.5
	c-0.2-0.4-0.4-0.9-0.6-1.2l1.4-0.2C388.2,414.9,388.4,415.4,388.6,415.9z M392.6,418.2v4.2h-3.9v3.5c0,0.9-0.5,1.4-1.4,1.4h-1.5
	l-0.3-1.3c0.5,0.1,0.9,0.1,1.4,0.1c0.4,0,0.6-0.2,0.6-0.5v-3.2h-4v-4.2H392.6z M391.3,419.5h-6.6v1.7h6.6V419.5z M394.3,426.2l-1,1
	c-0.7-1-1.7-2-3-3.2l0.9-0.9C392.4,424.1,393.5,425.1,394.3,426.2z"/>
<path class="st2" d="M352.6,393v10h-1.5v-8.2c-0.6,0.6-1.4,1-2.3,1.3v-1.5c0.4-0.1,0.9-0.3,1.4-0.6c0.5-0.3,0.9-0.6,1.3-1L352.6,393
	L352.6,393z M362.2,394.3c0.6,0.9,0.9,2.2,0.9,3.7s-0.3,2.8-0.9,3.7c-0.6,1-1.6,1.5-2.7,1.5s-2.1-0.5-2.7-1.5
	c-0.6-0.9-0.9-2.2-0.9-3.7c0-1.6,0.3-2.8,0.9-3.7c0.6-1,1.6-1.5,2.7-1.5S361.6,393.3,362.2,394.3z M357.8,395.4
	c-0.3,0.6-0.4,1.5-0.4,2.5c0,1.1,0.1,1.9,0.4,2.5c0.3,0.9,0.9,1.4,1.7,1.4c0.8,0,1.4-0.5,1.7-1.4c0.2-0.6,0.4-1.5,0.4-2.5
	c0-1.1-0.1-1.9-0.4-2.5c-0.3-0.9-0.9-1.4-1.7-1.4C358.7,394.1,358.1,394.5,357.8,395.4z M368,404.5l-1-0.9c0.9-1.2,1.3-2.8,1.4-4.7
	V392h8.3v11c0,0.9-0.5,1.3-1.4,1.3h-1.8l-0.4-1.3c0.6,0,1.2,0.1,1.7,0.1c0.3,0,0.4-0.2,0.4-0.6V400h-5.7
	C369.4,401.9,368.9,403.3,368,404.5z M375.3,393.3h-5.7v2.1h5.7V393.3z M369.6,398.8h5.7v-2.2h-5.7V398.8z M384.9,393v10h-1.5v-8.2
	c-0.6,0.6-1.4,1-2.3,1.3v-1.5c0.4-0.1,0.9-0.3,1.4-0.6c0.5-0.3,0.9-0.6,1.3-1L384.9,393L384.9,393z M394.4,393.6
	c0.6,0.5,0.8,1.1,0.8,1.9c0,0.5-0.1,1-0.3,1.3c-0.3,0.4-0.6,0.7-1.1,0.9l0,0c0.5,0.1,0.9,0.4,1.2,0.8c0.4,0.5,0.6,1,0.6,1.7
	c0,0.9-0.3,1.6-1,2.2c-0.7,0.5-1.6,0.8-2.8,0.8c-1.2,0-2.1-0.3-2.8-0.8c-0.6-0.6-1-1.3-1-2.2c0-0.6,0.2-1.2,0.6-1.7
	c0.3-0.4,0.7-0.7,1.2-0.8l0,0c-0.5-0.2-0.9-0.5-1.1-0.9s-0.3-0.8-0.3-1.3c0-0.7,0.3-1.4,0.8-1.9c0.6-0.6,1.5-0.8,2.5-0.8
	S393.7,393.1,394.4,393.6z M390.2,398.9c-0.4,0.3-0.6,0.8-0.6,1.3s0.2,0.9,0.6,1.3c0.4,0.3,0.9,0.5,1.6,0.5s1.3-0.2,1.7-0.5
	c0.4-0.3,0.5-0.7,0.5-1.3c0-0.6-0.2-1-0.5-1.3c-0.4-0.4-0.9-0.5-1.7-0.5S390.5,398.5,390.2,398.9z M390.3,394.5
	c-0.3,0.3-0.5,0.6-0.5,1.1s0.1,0.9,0.4,1.1c0.3,0.3,0.8,0.5,1.6,0.5c0.7,0,1.2-0.2,1.6-0.5c0.3-0.3,0.4-0.7,0.4-1.1
	s-0.2-0.8-0.5-1.1c-0.4-0.3-0.9-0.5-1.5-0.5S390.7,394.2,390.3,394.5z M409,404.4h-1.3v-1h-6.3v1h-1.3V392h9v12.4H409z M407.7,396.9
	v-3.6h-6.3v3.6H407.7z M407.7,402.1v-3.9h-6.3v3.9H407.7z"/>
<path class="st2" d="M342.9,504.9v7.1h-0.8v-6.1c-0.4,0.5-1,0.8-1.7,1V506c0.3-0.1,0.7-0.2,1-0.4c0.3-0.2,0.6-0.5,0.9-0.7H342.9z
	 M349.7,505.3c0.4,0.3,0.6,0.8,0.6,1.3c0,0.4-0.1,0.7-0.3,1c-0.2,0.3-0.5,0.5-0.8,0.6l0,0c0.4,0.1,0.7,0.3,0.9,0.6
	c0.3,0.3,0.4,0.7,0.4,1.2c0,0.6-0.2,1.1-0.7,1.5s-1.1,0.6-1.9,0.6s-1.5-0.2-1.9-0.6s-0.7-0.9-0.7-1.5c0-0.5,0.1-0.9,0.4-1.2
	c0.3-0.3,0.6-0.5,0.9-0.6l0,0c-0.4-0.1-0.7-0.3-0.8-0.6c-0.2-0.3-0.3-0.6-0.3-1c0-0.5,0.2-1,0.6-1.3c0.4-0.4,1-0.6,1.7-0.6
	C348.7,504.7,349.3,504.9,349.7,505.3z M346.6,509c-0.3,0.3-0.4,0.6-0.4,1s0.1,0.8,0.4,1c0.3,0.3,0.7,0.4,1.3,0.4s1-0.1,1.3-0.4
	s0.4-0.6,0.4-1s-0.1-0.8-0.4-1c-0.3-0.3-0.8-0.4-1.3-0.4S347,508.7,346.6,509z M346.8,505.8c-0.2,0.2-0.4,0.5-0.4,0.9
	s0.1,0.7,0.3,0.9c0.3,0.3,0.7,0.4,1.2,0.4s1-0.1,1.2-0.4c0.2-0.2,0.3-0.5,0.3-0.9c0-0.3-0.1-0.6-0.4-0.9s-0.7-0.4-1.2-0.4
	C347.5,505.4,347.1,505.5,346.8,505.8z M354.9,506.1c0.1,0.1,0.2,0.2,0.2,0.4c0,0.2-0.1,0.3-0.2,0.4s-0.3,0.2-0.4,0.2
	c-0.2,0-0.3-0.1-0.4-0.2s-0.2-0.3-0.2-0.4s0-0.3,0.2-0.4c0.1-0.1,0.3-0.2,0.4-0.2S354.8,506,354.9,506.1z M354.9,509.8
	c0.1,0.1,0.2,0.2,0.2,0.4c0,0.2-0.1,0.3-0.2,0.4s-0.3,0.2-0.4,0.2c-0.2,0-0.3-0.1-0.4-0.2s-0.2-0.3-0.2-0.4s0-0.3,0.2-0.4
	c0.1-0.1,0.3-0.2,0.4-0.2C354.6,509.6,354.8,509.6,354.9,509.8z M367.7,505.2c0.4,0.3,0.6,0.8,0.6,1.4c0,0.8-0.4,1.3-1.2,1.6
	c0.4,0.1,0.7,0.3,1,0.6c0.2,0.3,0.4,0.6,0.4,1c0,0.6-0.2,1.2-0.7,1.6s-1.1,0.6-1.8,0.6c-0.7,0-1.2-0.2-1.7-0.5
	c-0.5-0.4-0.8-1-0.8-1.8h0.8c0,0.6,0.2,1,0.6,1.3c0.3,0.2,0.7,0.4,1.1,0.4c0.5,0,0.9-0.1,1.2-0.4c0.3-0.3,0.4-0.6,0.4-1
	s-0.1-0.8-0.4-1s-0.7-0.3-1.2-0.3h-0.6V508h0.5c0.5,0,0.8-0.1,1.1-0.3c0.2-0.2,0.4-0.5,0.4-0.9s-0.1-0.7-0.4-0.9
	c-0.3-0.2-0.6-0.3-1.1-0.3s-0.8,0.1-1.1,0.4c-0.3,0.3-0.4,0.6-0.5,1.1h-0.8c0.1-0.7,0.3-1.2,0.8-1.6c0.4-0.4,1-0.6,1.6-0.6
	S367.3,504.9,367.7,505.2z M374.9,505.9c0.4,0.6,0.6,1.5,0.6,2.6s-0.2,1.9-0.6,2.6s-1.1,1.1-1.9,1.1c-0.9,0-1.5-0.4-1.9-1.1
	c-0.4-0.6-0.6-1.5-0.6-2.6s0.2-1.9,0.6-2.6c0.4-0.8,1.1-1.1,1.9-1.1C373.8,504.7,374.5,505.1,374.9,505.9z M371.6,506.5
	c-0.2,0.5-0.3,1.1-0.3,2c0,0.8,0.1,1.5,0.3,2c0.3,0.7,0.7,1,1.4,1s1.1-0.3,1.4-1c0.2-0.5,0.3-1.1,0.3-2c0-0.8-0.1-1.5-0.3-2
	c-0.3-0.7-0.7-1-1.4-1S371.9,505.8,371.6,506.5z M382.5,509.1v0.7h-5v-0.7H382.5z M388.8,505.3c0.4,0.4,0.6,0.9,0.6,1.5
	s-0.2,1.2-0.7,1.7c-0.2,0.3-0.7,0.6-1.5,1.1c-0.9,0.6-1.4,1.2-1.6,1.6h3.7v0.7h-4.8c0-0.6,0.2-1.2,0.7-1.8c0.3-0.3,0.8-0.7,1.5-1.3
	c0.6-0.4,0.9-0.7,1.1-0.9c0.4-0.4,0.5-0.8,0.5-1.3c0-0.4-0.1-0.8-0.4-1s-0.6-0.4-1.1-0.4s-0.9,0.2-1.1,0.5c-0.3,0.3-0.4,0.8-0.4,1.4
	h-0.8c0-0.8,0.2-1.4,0.7-1.9c0.4-0.5,1-0.7,1.7-0.7C387.8,504.7,388.3,504.9,388.8,505.3z M394,504.9v7.1h-0.8v-6.1
	c-0.4,0.5-1,0.8-1.7,1V506c0.3-0.1,0.7-0.2,1-0.4c0.3-0.2,0.6-0.5,0.9-0.7H394z M399,506.1c0.1,0.1,0.2,0.2,0.2,0.4
	c0,0.2-0.1,0.3-0.2,0.4s-0.3,0.2-0.4,0.2c-0.2,0-0.3-0.1-0.4-0.2s-0.2-0.3-0.2-0.4s0-0.3,0.2-0.4c0.1-0.1,0.3-0.2,0.4-0.2
	S398.9,506,399,506.1z M399,509.8c0.1,0.1,0.2,0.2,0.2,0.4c0,0.2-0.1,0.3-0.2,0.4s-0.3,0.2-0.4,0.2c-0.2,0-0.3-0.1-0.4-0.2
	s-0.2-0.3-0.2-0.4s0-0.3,0.2-0.4c0.1-0.1,0.3-0.2,0.4-0.2C398.7,509.6,398.9,509.6,399,509.8z M411.8,505.2c0.4,0.3,0.6,0.8,0.6,1.4
	c0,0.8-0.4,1.3-1.2,1.6c0.4,0.1,0.7,0.3,1,0.6c0.2,0.3,0.4,0.6,0.4,1c0,0.6-0.2,1.2-0.7,1.6s-1.1,0.6-1.8,0.6
	c-0.7,0-1.2-0.2-1.7-0.5c-0.5-0.4-0.8-1-0.8-1.8h0.8c0,0.6,0.2,1,0.6,1.3c0.3,0.2,0.7,0.4,1.1,0.4c0.5,0,0.9-0.1,1.2-0.4
	c0.3-0.3,0.4-0.6,0.4-1s-0.1-0.8-0.4-1s-0.7-0.3-1.2-0.3h-0.6V508h0.5c0.5,0,0.8-0.1,1.1-0.3c0.2-0.2,0.4-0.5,0.4-0.9
	s-0.1-0.7-0.4-0.9c-0.3-0.2-0.6-0.3-1.1-0.3s-0.8,0.1-1.1,0.4c-0.3,0.3-0.4,0.6-0.5,1.1h-0.8c0.1-0.7,0.3-1.2,0.8-1.6
	c0.4-0.4,1-0.6,1.6-0.6S411.3,504.9,411.8,505.2z M419,505.9c0.4,0.6,0.6,1.5,0.6,2.6s-0.2,1.9-0.6,2.6s-1.1,1.1-1.9,1.1
	c-0.9,0-1.5-0.4-1.9-1.1c-0.4-0.6-0.6-1.5-0.6-2.6s0.2-1.9,0.6-2.6c0.4-0.8,1.1-1.1,1.9-1.1C417.9,504.7,418.5,505.1,419,505.9z
	 M415.7,506.5c-0.2,0.5-0.3,1.1-0.3,2c0,0.8,0.1,1.5,0.3,2c0.3,0.7,0.7,1,1.4,1s1.1-0.3,1.4-1c0.2-0.5,0.3-1.1,0.3-2
	c0-0.8-0.1-1.5-0.3-2c-0.3-0.7-0.7-1-1.4-1S415.9,505.8,415.7,506.5z"/>
<path class="st1" d="M349.8,475.2l-1.1,1.1c-0.6-0.7-1.5-1.5-2.6-2.4l1.1-1.1C348.2,473.6,349.1,474.4,349.8,475.2z M349.8,477.9
	c-0.6,2-1.3,3.8-2.1,5.6l-1.4-0.6c0.8-1.8,1.5-3.6,2.1-5.5L349.8,477.9z M350.1,471.1l-1.1,1.1c-0.6-0.7-1.4-1.3-2.4-2.1l1.1-1.1
	C348.6,469.7,349.4,470.4,350.1,471.1z M356.1,468.9v0.9h4.1v1.2h-4.1v0.8h3.5v1.2h-3.5v0.8h4.6v1.2h-10.6v-1.2h4.5V473h-3.3v-1.2
	h3.3V471h-4v-1.2h4v-0.9H356.1z M352.9,483.6h-1.4v-7.8h7.9v6.2c0,1-0.5,1.5-1.5,1.5h-1.5l-0.4-1.3l1.4,0.1c0.3,0,0.4-0.2,0.4-0.5
	v-0.6h-5v2.4H352.9z M357.8,477.1h-5v0.9h5V477.1z M352.9,480h5v-0.9h-5V480z M364.2,474.7l-0.5-1.6c2-1.2,3.4-2.7,4.4-4.3l1.3,0.6
	c-0.5,0.9-1.1,1.8-1.9,2.6v5.3H366v-3.9C365.4,473.8,364.8,474.3,364.2,474.7z M370.1,478.3v-1.4h1.5v1.4h6.2v1.5h-6.2v3.9h-1.5
	v-3.9h-6.2v-1.5H370.1z M372.8,476.8c-1.1,0-1.6-0.5-1.6-1.6v-0.9c-0.7,0.3-1.4,0.5-2.1,0.8l-0.9-1.3c1.1-0.4,2-0.7,2.9-1.1v-3.6
	h1.5v2.9c1.5-0.8,2.7-1.6,3.7-2.5l1,1.1c-1.4,1.2-2.9,2.2-4.8,3v1.3c0,0.3,0.2,0.5,0.6,0.5h2.2c0.4,0,0.6-0.1,0.8-0.3
	c0.2-0.2,0.4-0.8,0.4-1.8l1.4,0.5c-0.2,1.4-0.4,2.3-0.8,2.5c-0.4,0.3-0.9,0.4-1.6,0.4h-2.7V476.8z M387.6,473
	c0.1-0.8,0.2-1.7,0.2-2.7v-1.4h1.5v1c0,1.1-0.1,2.1-0.2,3h6.5v1.5h-6.1c1.1,3.4,3.3,6.1,6.5,7.9l-0.9,1.2c-3.1-1.9-5.2-4.5-6.5-7.9
	c-1.1,3.7-3.2,6.4-6.5,8.1l-1-1.3c3.3-1.6,5.4-4.3,6.2-8h-5.9V473H387.6z M413,475.9h-1.5v-2.4h-10.8v2.4h-1.5V472h2.9
	c-0.5-0.9-1-1.6-1.6-2.3l1.4-0.7c0.5,0.7,1.1,1.6,1.6,2.5l-1,0.5h6c0.7-1,1.2-2.1,1.7-3.2l1.6,0.6c-0.5,1-1.1,1.9-1.6,2.6h2.9v3.9
	H413z M410.4,474.5v1.3c-1,0.7-2.1,1.3-3.4,1.9v0.6h6v1.4h-6v2.4c0,0.9-0.5,1.4-1.5,1.4h-2l-0.4-1.4c0.6,0,1.2,0,1.9,0
	c0.3,0,0.5-0.2,0.5-0.6v-1.9h-6.3v-1.4h6.3V477c1.1-0.5,2-0.9,2.7-1.2h-6.5v-1.3L410.4,474.5L410.4,474.5z M407.2,471.3l-1.4,0.7
	c-0.5-1-1-1.8-1.5-2.6l1.4-0.7C406.2,469.5,406.7,470.4,407.2,471.3z"/>
<path class="st1" d="M374.6,491.7v-1.8h0.7v1.8h3.9v0.7H376c0.7,1.6,1.9,3,3.6,4.3l-0.5,0.6c-1.8-1.4-3-3.1-3.7-4.9h-0.1v3.9h2.1
	v0.7h-2.1v2h-0.7v-2h-2.1v-0.7h2.1v-3.9h-0.1c-0.7,2-2,3.7-3.8,5l-0.4-0.7c1.7-1.1,2.9-2.6,3.6-4.3h-3.3v-0.7H374.6z M383.5,493.6h1
	c0.3-0.5,0.5-1.1,0.7-1.8l0.7,0.2c-0.2,0.6-0.4,1.1-0.7,1.5h1.2v0.7h-5v-0.7h1.3c-0.2-0.5-0.4-1-0.6-1.4l0.7-0.2
	C383.1,492.3,383.3,492.9,383.5,493.6z M383.7,490.8c-0.1-0.3-0.2-0.6-0.4-0.9l0.7-0.1c0.1,0.3,0.2,0.6,0.3,1h2v0.7h-4.7v-0.7H383.7
	z M386.1,498.9h-0.7v-0.6h-2.6v0.6h-0.7v-3.8h4L386.1,498.9L386.1,498.9z M385.3,497.7v-1.8h-2.6v1.8H385.3z M390.3,490.3v0.5
	c-0.3,1-0.6,2-1,2.9c0.7,0.9,1.1,1.7,1.1,2.3c0,0.6-0.1,1-0.4,1.3c-0.3,0.2-0.8,0.4-1.6,0.4l-0.2-0.8c0.3,0,0.5,0,0.7,0
	c0.4,0,0.6-0.1,0.7-0.2s0.1-0.4,0.2-0.7c0-0.6-0.4-1.4-1.2-2.3c0.3-0.8,0.7-1.7,1-2.8h-1.8v8.1H387v-8.7L390.3,490.3L390.3,490.3z"
	/>
<path class="st2" d="M659.9,36.6v12.8h-1.3v-2.2c-1.1,0.5-2.3,0.9-3.5,1.3l-0.3-1.3c1.3-0.3,2.6-0.7,3.8-1.3v-4.2H655v-1.3h3.6v-3.8
	H659.9z M663.5,49.2c-1,0-1.5-0.5-1.5-1.6v-11h1.3v4.5c1.1-0.4,2.2-1,3.3-1.7l0.8,1.1c-1.4,0.8-2.8,1.5-4,1.9v5.1
	c0,0.4,0.2,0.5,0.5,0.5h1.6c0.3,0,0.4-0.1,0.6-0.3c0.1-0.2,0.2-1,0.2-2.3l1.2,0.4c-0.1,1.6-0.3,2.6-0.5,3c-0.3,0.3-0.7,0.5-1.3,0.5
	L663.5,49.2L663.5,49.2z M674.2,46c-0.9,1.2-1.9,2.3-3.2,3.2l-0.8-1.1c1.2-0.8,2.3-1.8,3.1-3L674.2,46z M677.1,37.9h5.7v1.2h-12.5
	v-1.2h5.5c-0.2-0.4-0.4-0.9-0.6-1.2l1.4-0.2C676.7,36.9,676.9,37.4,677.1,37.9z M681.1,40.2v4.2h-3.9V48c0,0.9-0.5,1.4-1.4,1.4h-1.5
	l-0.3-1.3c0.5,0.1,0.9,0.1,1.4,0.1c0.4,0,0.6-0.2,0.6-0.5v-3.2h-4v-4.2L681.1,40.2L681.1,40.2z M679.8,41.5h-6.6v1.7h6.6V41.5z
	 M682.8,48.2l-1,1c-0.7-1-1.7-2-3-3.2l0.9-0.9C680.9,46.1,682,47.1,682.8,48.2z"/>
<path class="st2" d="M647.6,16.1c0.6,0.9,0.9,2,0.9,3.6s-0.3,2.9-1,4c-0.7,1-1.6,1.5-2.7,1.5c-1.9,0-3-0.9-3.3-2.7h1.5
	c0.2,1,0.8,1.5,1.8,1.5c0.7,0,1.2-0.4,1.7-1c0.4-0.6,0.6-1.5,0.6-2.4c0-0.1,0-0.1,0-0.2H647c-0.3,0.4-0.6,0.8-1.1,1
	c-0.4,0.2-0.9,0.3-1.4,0.3c-1,0-1.8-0.3-2.4-1c-0.6-0.6-0.9-1.4-0.9-2.4s0.3-1.8,1-2.5s1.5-1,2.5-1C646.1,14.8,647,15.2,647.6,16.1z
	 M643.4,16.7c-0.4,0.4-0.6,0.9-0.6,1.6s0.2,1.1,0.6,1.5c0.4,0.4,0.8,0.6,1.5,0.6c0.6,0,1.1-0.2,1.5-0.6s0.5-0.9,0.5-1.6
	s-0.2-1.2-0.6-1.6c-0.4-0.4-0.9-0.6-1.5-0.6C644.3,16.1,643.8,16.3,643.4,16.7z M653.4,26.5l-1-0.9c0.9-1.2,1.3-2.8,1.4-4.7V14h8.3
	v11c0,0.9-0.5,1.3-1.4,1.3h-1.8l-0.4-1.3c0.6,0,1.2,0.1,1.7,0.1c0.3,0,0.4-0.2,0.4-0.6V22H655C654.8,23.9,654.3,25.3,653.4,26.5z
	 M660.8,15.3h-5.7v2.1h5.7V15.3z M655.1,20.8h5.7v-2.2h-5.7V20.8z M672.7,15.6c0.6,0.6,0.9,1.3,0.9,2.2c0,0.9-0.3,1.7-1,2.4
	c-0.4,0.4-1.1,0.9-2.1,1.6c-1.1,0.7-1.7,1.3-1.9,1.9h5V25h-6.9c0-1,0.3-1.9,1-2.6c0.4-0.4,1.1-1,2.3-1.8c0.7-0.5,1.1-0.9,1.4-1.1
	c0.4-0.5,0.7-1.1,0.7-1.6c0-0.6-0.2-1-0.5-1.3s-0.8-0.4-1.4-0.4c-0.6,0-1.1,0.2-1.4,0.6c-0.3,0.4-0.5,1-0.5,1.8h-1.5
	c0-1.1,0.3-2,1-2.7c0.6-0.7,1.5-1.1,2.6-1.1C671.3,14.8,672.1,15.1,672.7,15.6z M680.1,15v10h-1.5v-8.2c-0.6,0.6-1.4,1-2.3,1.3v-1.5
	c0.4-0.1,0.9-0.3,1.4-0.6s0.9-0.6,1.3-1C679,15,680.1,15,680.1,15z M694.5,26.4h-1.3v-1h-6.3v1h-1.3V14h9v12.4H694.5z M693.2,18.9
	v-3.6h-6.3v3.6H693.2z M693.2,24.1v-3.9h-6.3v3.9H693.2z"/>
<path class="st2" d="M631.9,126.9v7.1h-0.8v-6.1c-0.4,0.5-1,0.8-1.7,1V128c0.3-0.1,0.7-0.2,1-0.4c0.3-0.2,0.6-0.5,0.9-0.7H631.9z
	 M638.7,127.3c0.4,0.3,0.6,0.8,0.6,1.3c0,0.4-0.1,0.7-0.3,1s-0.5,0.5-0.8,0.6l0,0c0.4,0.1,0.7,0.3,0.9,0.6c0.3,0.3,0.4,0.7,0.4,1.2
	c0,0.6-0.2,1.1-0.7,1.5s-1.1,0.6-1.9,0.6c-0.8,0-1.5-0.2-1.9-0.6c-0.4-0.4-0.7-0.9-0.7-1.5c0-0.5,0.1-0.9,0.4-1.2
	c0.3-0.3,0.6-0.5,0.9-0.6l0,0c-0.4-0.1-0.7-0.3-0.8-0.6c-0.2-0.3-0.3-0.6-0.3-1c0-0.5,0.2-1,0.6-1.3c0.4-0.4,1-0.6,1.7-0.6
	C637.7,126.7,638.3,126.9,638.7,127.3z M635.6,131c-0.3,0.3-0.4,0.6-0.4,1s0.1,0.8,0.4,1c0.3,0.3,0.7,0.4,1.3,0.4s1-0.1,1.3-0.4
	c0.3-0.3,0.4-0.6,0.4-1s-0.1-0.8-0.4-1c-0.3-0.3-0.8-0.4-1.3-0.4C636.4,130.6,636,130.7,635.6,131z M635.8,127.8
	c-0.2,0.2-0.4,0.5-0.4,0.9s0.1,0.7,0.3,0.9c0.3,0.3,0.7,0.4,1.2,0.4s1-0.1,1.2-0.4c0.2-0.2,0.3-0.5,0.3-0.9c0-0.3-0.1-0.6-0.4-0.9
	c-0.3-0.3-0.7-0.4-1.2-0.4C636.5,127.4,636.1,127.5,635.8,127.8z M643.9,128.1c0.1,0.1,0.2,0.2,0.2,0.4s-0.1,0.3-0.2,0.4
	c-0.1,0.1-0.3,0.2-0.4,0.2s-0.3-0.1-0.4-0.2c-0.1-0.1-0.2-0.3-0.2-0.4s0-0.3,0.2-0.4c0.1-0.1,0.3-0.2,0.4-0.2S643.8,128,643.9,128.1
	z M643.9,131.8c0.1,0.1,0.2,0.2,0.2,0.4s-0.1,0.3-0.2,0.4c-0.1,0.1-0.3,0.2-0.4,0.2s-0.3-0.1-0.4-0.2c-0.1-0.1-0.2-0.3-0.2-0.4
	s0-0.3,0.2-0.4c0.1-0.1,0.3-0.2,0.4-0.2S643.8,131.6,643.9,131.8z M656.7,127.2c0.4,0.3,0.6,0.8,0.6,1.4c0,0.8-0.4,1.3-1.2,1.6
	c0.4,0.1,0.7,0.3,1,0.6c0.2,0.3,0.4,0.6,0.4,1c0,0.6-0.2,1.2-0.7,1.6c-0.5,0.4-1.1,0.6-1.8,0.6s-1.2-0.2-1.7-0.5
	c-0.5-0.4-0.8-1-0.8-1.8h0.8c0,0.6,0.2,1,0.6,1.3c0.3,0.2,0.7,0.4,1.1,0.4c0.5,0,0.9-0.1,1.2-0.4c0.3-0.3,0.4-0.6,0.4-1
	s-0.1-0.8-0.4-1s-0.7-0.3-1.2-0.3h-0.6V130h0.5c0.5,0,0.8-0.1,1.1-0.3c0.2-0.2,0.4-0.5,0.4-0.9s-0.1-0.7-0.4-0.9
	c-0.3-0.2-0.6-0.3-1.1-0.3s-0.8,0.1-1.1,0.4s-0.4,0.6-0.5,1.1h-0.8c0.1-0.7,0.3-1.2,0.8-1.6c0.4-0.4,1-0.6,1.6-0.6
	S656.3,126.9,656.7,127.2z M663.9,127.9c0.4,0.6,0.6,1.5,0.6,2.6s-0.2,1.9-0.6,2.6c-0.4,0.7-1.1,1.1-1.9,1.1c-0.9,0-1.5-0.4-1.9-1.1
	c-0.4-0.6-0.6-1.5-0.6-2.6s0.2-1.9,0.6-2.6c0.4-0.8,1.1-1.1,1.9-1.1C662.8,126.7,663.5,127.1,663.9,127.9z M660.6,128.5
	c-0.2,0.5-0.3,1.1-0.3,2c0,0.8,0.1,1.5,0.3,2c0.3,0.7,0.7,1,1.4,1s1.1-0.3,1.4-1c0.2-0.5,0.3-1.1,0.3-2c0-0.8-0.1-1.5-0.3-2
	c-0.3-0.7-0.7-1-1.4-1S660.9,127.8,660.6,128.5z M671.5,131.1v0.7h-5v-0.7H671.5z M677.8,127.3c0.4,0.4,0.6,0.9,0.6,1.5
	s-0.2,1.2-0.7,1.7c-0.2,0.3-0.7,0.6-1.5,1.1c-0.9,0.6-1.4,1.2-1.6,1.6h3.7v0.7h-4.8c0-0.6,0.2-1.2,0.7-1.8c0.3-0.3,0.8-0.7,1.5-1.3
	c0.6-0.4,0.9-0.7,1.1-0.9c0.4-0.4,0.5-0.8,0.5-1.3c0-0.4-0.1-0.8-0.4-1c-0.3-0.2-0.6-0.4-1.1-0.4s-0.9,0.2-1.1,0.5
	c-0.3,0.3-0.4,0.8-0.4,1.4h-0.8c0-0.8,0.2-1.4,0.7-1.9c0.4-0.5,1-0.7,1.7-0.7C676.8,126.7,677.3,126.9,677.8,127.3z M683,126.9v7.1
	h-0.8v-6.1c-0.4,0.5-1,0.8-1.7,1V128c0.3-0.1,0.7-0.2,1-0.4c0.3-0.2,0.6-0.5,0.9-0.7H683z M688,128.1c0.1,0.1,0.2,0.2,0.2,0.4
	s-0.1,0.3-0.2,0.4c-0.1,0.1-0.3,0.2-0.4,0.2c-0.2,0-0.3-0.1-0.4-0.2c-0.1-0.1-0.2-0.3-0.2-0.4s0-0.3,0.2-0.4
	c0.1-0.1,0.3-0.2,0.4-0.2C687.7,127.9,687.9,128,688,128.1z M688,131.8c0.1,0.1,0.2,0.2,0.2,0.4s-0.1,0.3-0.2,0.4
	c-0.1,0.1-0.3,0.2-0.4,0.2c-0.2,0-0.3-0.1-0.4-0.2c-0.1-0.1-0.2-0.3-0.2-0.4s0-0.3,0.2-0.4c0.1-0.1,0.3-0.2,0.4-0.2
	S687.9,131.6,688,131.8z M700.8,127.2c0.4,0.3,0.6,0.8,0.6,1.4c0,0.8-0.4,1.3-1.2,1.6c0.4,0.1,0.7,0.3,1,0.6c0.2,0.3,0.4,0.6,0.4,1
	c0,0.6-0.2,1.2-0.7,1.6c-0.5,0.4-1.1,0.6-1.8,0.6s-1.2-0.2-1.7-0.5c-0.5-0.4-0.8-1-0.8-1.8h0.8c0,0.6,0.2,1,0.6,1.3
	c0.3,0.2,0.7,0.4,1.1,0.4c0.5,0,0.9-0.1,1.2-0.4c0.3-0.3,0.4-0.6,0.4-1s-0.1-0.8-0.4-1s-0.7-0.3-1.2-0.3h-0.6V130h0.5
	c0.5,0,0.8-0.1,1.1-0.3c0.2-0.2,0.4-0.5,0.4-0.9s-0.1-0.7-0.4-0.9c-0.3-0.2-0.6-0.3-1.1-0.3s-0.8,0.1-1.1,0.4s-0.4,0.6-0.5,1.1h-0.8
	c0.1-0.7,0.3-1.2,0.8-1.6c0.4-0.4,1-0.6,1.6-0.6S700.3,126.9,700.8,127.2z M708,127.9c0.4,0.6,0.6,1.5,0.6,2.6s-0.2,1.9-0.6,2.6
	c-0.4,0.7-1.1,1.1-1.9,1.1c-0.9,0-1.5-0.4-1.9-1.1c-0.4-0.6-0.6-1.5-0.6-2.6s0.2-1.9,0.6-2.6c0.4-0.8,1.1-1.1,1.9-1.1
	C706.9,126.7,707.5,127.1,708,127.9z M704.7,128.5c-0.2,0.5-0.3,1.1-0.3,2c0,0.8,0.1,1.5,0.3,2c0.3,0.7,0.7,1,1.4,1s1.1-0.3,1.4-1
	c0.2-0.5,0.3-1.1,0.3-2c0-0.8-0.1-1.5-0.3-2c-0.3-0.7-0.7-1-1.4-1S704.9,127.8,704.7,128.5z"/>
<path class="st1" d="M623.4,90.9v14.6h-1.5V103c-1.3,0.6-2.6,1-4,1.4l-0.4-1.5c1.5-0.3,3-0.8,4.4-1.5v-4.8h-4.1v-1.5h4.1v-4.3h1.5
	V90.9z M627.4,105.4c-1.1,0-1.7-0.6-1.7-1.8V90.9h1.5v5.2c1.3-0.5,2.6-1.1,3.7-2l0.9,1.2c-1.6,1-3.2,1.7-4.6,2.2v5.8
	c0,0.4,0.2,0.6,0.5,0.6h1.9c0.3,0,0.5-0.1,0.7-0.4c0.1-0.3,0.2-1.2,0.2-2.7l1.4,0.5c-0.1,1.9-0.3,3-0.5,3.4
	c-0.3,0.4-0.8,0.6-1.5,0.6h-2.5V105.4z M639.7,101.7c-1,1.4-2.2,2.6-3.7,3.6l-1-1.2c1.4-1,2.6-2.1,3.6-3.4L639.7,101.7z M643,92.5
	h6.5v1.4h-14.3v-1.4h6.2c-0.2-0.5-0.4-1-0.6-1.4l1.6-0.3C642.6,91.3,642.8,91.9,643,92.5z M647.6,95.1v4.8h-4.5v4
	c0,1-0.5,1.6-1.6,1.6h-1.7l-0.4-1.5c0.5,0.1,1.1,0.1,1.6,0.1c0.4,0,0.6-0.2,0.6-0.6v-3.6H637v-4.8H647.6z M646.1,96.6h-7.5v1.9h7.5
	V96.6z M649.5,104.2l-1.1,1.1c-0.8-1.1-2-2.3-3.5-3.6l1-1C647.3,101.9,648.5,103,649.5,104.2z M660.3,105h-1.4v-1h-4.4v0.9H653V93
	h2.9v-2.2h1.5V93h2.9L660.3,105L660.3,105z M655.9,97.7v-3.3h-1.4v3.3H655.9z M655.9,102.7v-3.6h-1.4v3.6H655.9z M657.4,97.7h1.4
	v-3.3h-1.4V97.7z M658.8,102.7v-3.6h-1.4v3.6H658.8z M666.8,91.6v1.1c-0.5,1.6-1,3.2-1.6,4.6c1.1,1.6,1.7,2.9,1.7,3.9
	c0,0.9-0.2,1.6-0.6,1.9c-0.4,0.4-1.3,0.6-2.6,0.6l-0.4-1.5c0.5,0.1,1,0.1,1.4,0.1c0.3,0,0.6-0.1,0.7-0.2c0.1-0.1,0.1-0.4,0.1-0.8
	c0-1-0.6-2.3-1.8-3.9c0.5-1.2,1-2.6,1.5-4.3h-2.4v12.7h-1.4V91.6H666.8z M672.9,101.2v1.3h-1.5V93h5.1v-2.1h1.5V93h5.2v8.3H678v1.6
	c0,0.8,0.3,1.1,1,1.1h3.5c0.3,0,0.6-0.1,0.7-0.3c0.1-0.2,0.2-0.8,0.3-1.7l1.5,0.5c-0.1,1.4-0.3,2.2-0.6,2.5s-0.8,0.4-1.6,0.4h-4.1
	c-1.5,0-2.2-0.8-2.2-2.3v-1.8L672.9,101.2L672.9,101.2z M672.9,94.4v2h3.6v-2H672.9z M672.9,99.8h3.6v-2h-3.6V99.8z M681.7,94.4H678
	v2h3.7V94.4z M681.7,99.8v-2H678v2H681.7z M694.2,95c0.1-0.8,0.2-1.7,0.2-2.7v-1.4h1.5v1c0,1.1-0.1,2.1-0.2,3h6.5v1.5h-6.1
	c1.1,3.4,3.3,6.1,6.5,7.9l-0.9,1.2c-3.1-1.9-5.2-4.5-6.5-7.9c-1.1,3.7-3.2,6.4-6.5,8.1l-1-1.3c3.3-1.6,5.4-4.3,6.2-8H688V95H694.2z
	 M719.6,97.9h-1.5v-2.4h-10.8v2.4h-1.5V94h2.9c-0.5-0.9-1-1.6-1.6-2.3l1.4-0.7c0.5,0.7,1.1,1.6,1.6,2.5l-1,0.5h6
	c0.7-1,1.2-2.1,1.7-3.2l1.6,0.6c-0.5,1-1.1,1.9-1.6,2.6h2.9v3.9H719.6z M717,96.5v1.3c-1,0.7-2.1,1.3-3.4,1.9v0.6h6v1.4h-6v2.4
	c0,0.9-0.5,1.4-1.5,1.4h-2l-0.4-1.4c0.6,0,1.2,0,1.9,0c0.3,0,0.5-0.2,0.5-0.6v-1.9h-6.3v-1.4h6.3V99c1.1-0.5,2-0.9,2.7-1.2h-6.5
	v-1.3C708.3,96.5,717,96.5,717,96.5z M713.8,93.3l-1.4,0.7c-0.5-1-1-1.8-1.5-2.6l1.4-0.7C712.8,91.5,713.3,92.4,713.8,93.3z"/>
<path class="st1" d="M663.6,113.7v-1.8h0.7v1.8h3.9v0.7H665c0.7,1.6,1.9,3,3.6,4.3l-0.5,0.6c-1.8-1.4-3-3.1-3.7-4.9h-0.1v3.9h2.1
	v0.7h-2.1v2h-0.7v-2h-2.1v-0.7h2.1v-3.9h-0.1c-0.7,2-2,3.7-3.8,5l-0.4-0.7c1.7-1.1,2.9-2.6,3.6-4.3h-3.3v-0.7H663.6z M672.5,115.6h1
	c0.3-0.5,0.5-1.1,0.7-1.8l0.7,0.2c-0.2,0.6-0.4,1.1-0.7,1.5h1.2v0.7h-5v-0.7h1.3c-0.2-0.5-0.4-1-0.6-1.4l0.7-0.2
	C672.1,114.3,672.3,114.9,672.5,115.6z M672.7,112.8c-0.1-0.3-0.2-0.6-0.4-0.9l0.7-0.1c0.1,0.3,0.2,0.6,0.3,1h2v0.7h-4.7v-0.7H672.7
	z M675.1,120.9h-0.7v-0.6h-2.6v0.6h-0.7v-3.8h4V120.9z M674.3,119.7v-1.8h-2.6v1.8H674.3z M679.3,112.3v0.5c-0.3,1-0.6,2-1,2.9
	c0.7,0.9,1.1,1.7,1.1,2.3c0,0.6-0.1,1-0.4,1.3c-0.3,0.2-0.8,0.4-1.6,0.4l-0.2-0.8c0.3,0,0.5,0,0.7,0c0.4,0,0.6-0.1,0.7-0.2
	c0.1-0.1,0.1-0.4,0.2-0.7c0-0.6-0.4-1.4-1.2-2.3c0.3-0.8,0.7-1.7,1-2.8h-1.8v8.1H676v-8.7C676,112.3,679.3,112.3,679.3,112.3z"/>
<path class="st2" d="M89.6,228H79.5v4.7c-0.1,2.8-0.5,5-1.5,6.7l-1-0.9c0.8-1.4,1.1-3.3,1.2-5.8v-5.9h11.4V228z M89.2,228.6v1h-4.1
	c-0.1,0.2-0.1,0.4-0.2,0.5h3.5v4.9h-4.8c-0.2,0.2-0.3,0.4-0.4,0.5h4.9v0.8c-0.4,0.6-1,1.1-1.6,1.5c1.1,0.2,2.3,0.4,3.6,0.4l-0.3,1.1
	c-1.8-0.1-3.4-0.3-4.8-0.8c-1.4,0.5-3.2,0.8-5.3,0.8l-0.5-1c1.6,0,3-0.1,4.1-0.4c-0.7-0.3-1.3-0.6-1.8-1c-0.4,0.3-0.9,0.5-1.4,0.6
	l-0.7-1c1.1-0.3,2.1-0.8,2.9-1.6H81V230h2.7c0.1-0.2,0.1-0.4,0.2-0.5h-3.8v-1L89.2,228.6L89.2,228.6z M87.2,231.5V231h-5.1v0.5H87.2
	z M87.2,232.8v-0.5h-5.1v0.5H87.2z M87.2,233.6h-5.1v0.6h5.1V233.6z M86.6,236.5h-3.9c0.7,0.4,1.4,0.7,2.3,1
	C85.6,237.2,86.2,236.9,86.6,236.5z M94.5,228.8v10.6h-1.3v-10.6H94.5z M97.3,228.9l-1.2,0.6c-0.5-1-1.1-1.8-1.7-2.6l1.2-0.5
	C96.2,227.1,96.8,228,97.3,228.9z M102,239.3l-0.3-1.2h1.2c0.4,0,0.6-0.3,0.6-0.7v-9h-5.3v-1.2h6.6v10.6c0,1.1-0.5,1.6-1.6,1.6H102
	V239.3z"/>
<path class="st2" d="M63.6,205v10h-1.5v-8.2c-0.6,0.6-1.4,1-2.3,1.3v-1.5c0.4-0.1,0.9-0.3,1.4-0.6s0.9-0.6,1.3-1H63.6z M73.2,206.3
	c0.6,0.9,0.9,2.2,0.9,3.7s-0.3,2.8-0.9,3.7c-0.6,1-1.6,1.5-2.7,1.5s-2.1-0.5-2.7-1.5c-0.6-0.9-0.9-2.2-0.9-3.7
	c0-1.6,0.3-2.8,0.9-3.7c0.6-1,1.6-1.5,2.7-1.5S72.6,205.3,73.2,206.3z M68.8,207.4c-0.3,0.6-0.4,1.5-0.4,2.5c0,1.1,0.1,1.9,0.4,2.5
	c0.3,0.9,0.9,1.4,1.7,1.4c0.8,0,1.4-0.5,1.7-1.4c0.2-0.6,0.4-1.5,0.4-2.5c0-1.1-0.1-1.9-0.4-2.5c-0.3-0.9-0.9-1.4-1.7-1.4
	C69.7,206.1,69.1,206.5,68.8,207.4z M79,216.5l-1-0.9c0.9-1.2,1.3-2.8,1.4-4.7V204h8.3v11c0,0.9-0.5,1.3-1.4,1.3h-1.8l-0.4-1.3
	c0.6,0,1.2,0.1,1.7,0.1c0.3,0,0.4-0.2,0.4-0.6V212h-5.7C80.4,213.9,79.9,215.3,79,216.5z M86.3,205.3h-5.7v2.1h5.7V205.3z
	 M80.6,210.8h5.7v-2.2h-5.7V210.8z M95.9,205v10h-1.5v-8.2c-0.6,0.6-1.4,1-2.3,1.3v-1.5c0.4-0.1,0.9-0.3,1.4-0.6s0.9-0.6,1.3-1H95.9
	z M105.5,206.3c0.6,0.9,0.9,2.2,0.9,3.7s-0.3,2.8-0.9,3.7c-0.6,1-1.6,1.5-2.7,1.5s-2.1-0.5-2.7-1.5c-0.6-0.9-0.9-2.2-0.9-3.7
	c0-1.6,0.3-2.8,0.9-3.7c0.6-1,1.6-1.5,2.7-1.5S104.9,205.3,105.5,206.3z M101.1,207.4c-0.3,0.6-0.4,1.5-0.4,2.5
	c0,1.1,0.1,1.9,0.4,2.5c0.3,0.9,0.9,1.4,1.7,1.4c0.8,0,1.4-0.5,1.7-1.4c0.2-0.6,0.4-1.5,0.4-2.5c0-1.1-0.1-1.9-0.4-2.5
	c-0.3-0.9-0.9-1.4-1.7-1.4C102,206.1,101.4,206.5,101.1,207.4z M120,216.4h-1.3v-1h-6.3v1h-1.3V204h9L120,216.4L120,216.4z
	 M118.7,208.9v-3.6h-6.3v3.6H118.7z M118.7,214.1v-3.9h-6.3v3.9H118.7z"/>
<path class="st2" d="M53.9,316.9v7.1h-0.8v-6.1c-0.4,0.5-1,0.8-1.7,1V318c0.3-0.1,0.7-0.2,1-0.4c0.3-0.2,0.6-0.5,0.9-0.7H53.9z
	 M60.7,317.3c0.4,0.3,0.6,0.8,0.6,1.3c0,0.4-0.1,0.7-0.3,1s-0.5,0.5-0.8,0.6l0,0c0.4,0.1,0.7,0.3,0.9,0.6c0.3,0.3,0.4,0.7,0.4,1.2
	c0,0.6-0.2,1.1-0.7,1.5s-1.1,0.6-1.9,0.6c-0.8,0-1.5-0.2-1.9-0.6s-0.7-0.9-0.7-1.5c0-0.5,0.1-0.9,0.4-1.2c0.3-0.3,0.6-0.5,0.9-0.6
	l0,0c-0.4-0.1-0.7-0.3-0.8-0.6c-0.2-0.3-0.3-0.6-0.3-1c0-0.5,0.2-1,0.6-1.3c0.4-0.4,1-0.6,1.7-0.6C59.7,316.7,60.3,316.9,60.7,317.3
	z M57.6,321c-0.3,0.3-0.4,0.6-0.4,1s0.1,0.8,0.4,1c0.3,0.3,0.7,0.4,1.3,0.4s1-0.1,1.3-0.4s0.4-0.6,0.4-1s-0.1-0.8-0.4-1
	c-0.3-0.3-0.8-0.4-1.3-0.4C58.4,320.6,58,320.7,57.6,321z M57.8,317.8c-0.2,0.2-0.4,0.5-0.4,0.9s0.1,0.7,0.3,0.9
	c0.3,0.3,0.7,0.4,1.2,0.4s1-0.1,1.2-0.4c0.2-0.2,0.3-0.5,0.3-0.9c0-0.3-0.1-0.6-0.4-0.9c-0.3-0.3-0.7-0.4-1.2-0.4
	C58.5,317.4,58.1,317.5,57.8,317.8z M65.9,318.1c0.1,0.1,0.2,0.2,0.2,0.4c0,0.2-0.1,0.3-0.2,0.4s-0.3,0.2-0.4,0.2s-0.3-0.1-0.4-0.2
	s-0.2-0.3-0.2-0.4s0-0.3,0.2-0.4c0.1-0.1,0.3-0.2,0.4-0.2S65.8,318,65.9,318.1z M65.9,321.8c0.1,0.1,0.2,0.2,0.2,0.4
	c0,0.2-0.1,0.3-0.2,0.4s-0.3,0.2-0.4,0.2s-0.3-0.1-0.4-0.2s-0.2-0.3-0.2-0.4s0-0.3,0.2-0.4c0.1-0.1,0.3-0.2,0.4-0.2
	S65.8,321.6,65.9,321.8z M78.7,317.2c0.4,0.3,0.6,0.8,0.6,1.4c0,0.8-0.4,1.3-1.2,1.6c0.4,0.1,0.7,0.3,1,0.6c0.2,0.3,0.4,0.6,0.4,1
	c0,0.6-0.2,1.2-0.7,1.6S77.7,324,77,324c-0.7,0-1.2-0.2-1.7-0.5c-0.5-0.4-0.8-1-0.8-1.8h0.8c0,0.6,0.2,1,0.6,1.3
	c0.3,0.2,0.7,0.4,1.1,0.4c0.5,0,0.9-0.1,1.2-0.4c0.3-0.3,0.4-0.6,0.4-1s-0.1-0.8-0.4-1s-0.7-0.3-1.2-0.3h-0.6V320H77
	c0.5,0,0.8-0.1,1.1-0.3c0.2-0.2,0.4-0.5,0.4-0.9s-0.1-0.7-0.4-0.9c-0.3-0.2-0.6-0.3-1.1-0.3s-0.8,0.1-1.1,0.4
	c-0.3,0.3-0.4,0.6-0.5,1.1h-0.8c0.1-0.7,0.3-1.2,0.8-1.6c0.4-0.4,1-0.6,1.6-0.6S78.3,316.9,78.7,317.2z M85.9,317.9
	c0.4,0.6,0.6,1.5,0.6,2.6s-0.2,1.9-0.6,2.6s-1.1,1.1-1.9,1.1c-0.9,0-1.5-0.4-1.9-1.1c-0.4-0.6-0.6-1.5-0.6-2.6s0.2-1.9,0.6-2.6
	c0.4-0.8,1.1-1.1,1.9-1.1C84.8,316.7,85.5,317.1,85.9,317.9z M82.6,318.5c-0.2,0.5-0.3,1.1-0.3,2c0,0.8,0.1,1.5,0.3,2
	c0.3,0.7,0.7,1,1.4,1s1.1-0.3,1.4-1c0.2-0.5,0.3-1.1,0.3-2c0-0.8-0.1-1.5-0.3-2c-0.3-0.7-0.7-1-1.4-1S82.9,317.8,82.6,318.5z
	 M93.5,321.1v0.7h-5v-0.7H93.5z M99.8,317.3c0.4,0.4,0.6,0.9,0.6,1.5s-0.2,1.2-0.7,1.7c-0.2,0.3-0.7,0.6-1.5,1.1
	c-0.9,0.6-1.4,1.2-1.6,1.6h3.7v0.7h-4.8c0-0.6,0.2-1.2,0.7-1.8c0.3-0.3,0.8-0.7,1.5-1.3c0.6-0.4,0.9-0.7,1.1-0.9
	c0.4-0.4,0.5-0.8,0.5-1.3c0-0.4-0.1-0.8-0.4-1s-0.6-0.4-1.1-0.4s-0.9,0.2-1.1,0.5c-0.3,0.3-0.4,0.8-0.4,1.4h-0.8
	c0-0.8,0.2-1.4,0.7-1.9c0.4-0.5,1-0.7,1.7-0.7C98.8,316.7,99.3,316.9,99.8,317.3z M105,316.9v7.1h-0.8v-6.1c-0.4,0.5-1,0.8-1.7,1
	V318c0.3-0.1,0.7-0.2,1-0.4c0.3-0.2,0.6-0.5,0.9-0.7H105z M110,318.1c0.1,0.1,0.2,0.2,0.2,0.4c0,0.2-0.1,0.3-0.2,0.4
	s-0.3,0.2-0.4,0.2s-0.3-0.1-0.4-0.2s-0.2-0.3-0.2-0.4s0-0.3,0.2-0.4c0.1-0.1,0.3-0.2,0.4-0.2S109.9,318,110,318.1z M110,321.8
	c0.1,0.1,0.2,0.2,0.2,0.4c0,0.2-0.1,0.3-0.2,0.4s-0.3,0.2-0.4,0.2s-0.3-0.1-0.4-0.2s-0.2-0.3-0.2-0.4s0-0.3,0.2-0.4
	c0.1-0.1,0.3-0.2,0.4-0.2S109.9,321.6,110,321.8z M122.8,317.2c0.4,0.3,0.6,0.8,0.6,1.4c0,0.8-0.4,1.3-1.2,1.6
	c0.4,0.1,0.7,0.3,1,0.6c0.2,0.3,0.4,0.6,0.4,1c0,0.6-0.2,1.2-0.7,1.6s-1.1,0.6-1.8,0.6c-0.7,0-1.2-0.2-1.7-0.5
	c-0.5-0.4-0.8-1-0.8-1.8h0.8c0,0.6,0.2,1,0.6,1.3c0.3,0.2,0.7,0.4,1.1,0.4c0.5,0,0.9-0.1,1.2-0.4c0.3-0.3,0.4-0.6,0.4-1
	s-0.1-0.8-0.4-1s-0.7-0.3-1.2-0.3h-0.6V320h0.5c0.5,0,0.8-0.1,1.1-0.3c0.2-0.2,0.4-0.5,0.4-0.9s-0.1-0.7-0.4-0.9
	c-0.3-0.2-0.6-0.3-1.1-0.3s-0.8,0.1-1.1,0.4c-0.3,0.3-0.4,0.6-0.5,1.1h-0.8c0.1-0.7,0.3-1.2,0.8-1.6c0.4-0.4,1-0.6,1.6-0.6
	S122.3,316.9,122.8,317.2z M130,317.9c0.4,0.6,0.6,1.5,0.6,2.6s-0.2,1.9-0.6,2.6c-0.4,0.7-1.1,1.1-1.9,1.1c-0.9,0-1.5-0.4-1.9-1.1
	c-0.4-0.6-0.6-1.5-0.6-2.6s0.2-1.9,0.6-2.6c0.4-0.8,1.1-1.1,1.9-1.1C128.9,316.7,129.5,317.1,130,317.9z M126.7,318.5
	c-0.2,0.5-0.3,1.1-0.3,2c0,0.8,0.1,1.5,0.3,2c0.3,0.7,0.7,1,1.4,1s1.1-0.3,1.4-1c0.2-0.5,0.3-1.1,0.3-2c0-0.8-0.1-1.5-0.3-2
	c-0.3-0.7-0.7-1-1.4-1S126.9,317.8,126.7,318.5z"/>
<path class="st1" d="M71.2,282.6H59.6v5.4c-0.1,3.2-0.6,5.7-1.7,7.6l-1.1-1c0.9-1.6,1.3-3.8,1.3-6.6v-6.7h13.1V282.6z M70.8,283.3
	v1.2h-4.7c-0.1,0.2-0.1,0.4-0.2,0.6h4v5.6h-5.5c-0.2,0.2-0.4,0.4-0.5,0.6h5.7v0.9c-0.5,0.6-1.1,1.2-1.8,1.7c1.3,0.3,2.7,0.4,4.2,0.4
	l-0.3,1.2c-2-0.1-3.9-0.4-5.5-0.9c-1.6,0.6-3.7,0.9-6.1,0.9l-0.5-1.2c1.8,0,3.4-0.2,4.7-0.4c-0.8-0.4-1.4-0.7-2.1-1.2
	c-0.5,0.3-1.1,0.5-1.6,0.7l-0.8-1.1c1.3-0.4,2.4-0.9,3.3-1.8h-1.5V285h3.1c0.1-0.2,0.2-0.4,0.2-0.6h-4.3v-1.2h10.2V283.3z
	 M68.5,286.6V286h-5.8v0.6H68.5z M68.5,288.1v-0.6h-5.8v0.6H68.5z M68.5,289h-5.8v0.6h5.8V289z M67.7,292.3h-4.4
	c0.8,0.4,1.6,0.8,2.6,1.1C66.6,293.1,67.2,292.7,67.7,292.3z M76.8,283.5v12.1h-1.5v-12.1H76.8z M79.9,283.6l-1.4,0.7
	c-0.6-1.1-1.3-2.1-2-3l1.4-0.6C78.7,281.6,79.4,282.5,79.9,283.6z M85.3,295.5l-0.4-1.4h1.4c0.4,0,0.6-0.3,0.6-0.8V283h-6v-1.4h7.5
	v12.1c0,1.2-0.6,1.8-1.8,1.8H85.3z M98.6,285c0.1-0.8,0.2-1.7,0.2-2.7v-1.4h1.5v1c0,1.1-0.1,2.1-0.2,3h6.5v1.5h-6.1
	c1.1,3.4,3.3,6.1,6.5,7.9l-0.9,1.2c-3.1-1.9-5.2-4.5-6.5-7.9c-1.1,3.7-3.2,6.4-6.5,8.1l-1-1.3c3.3-1.6,5.4-4.3,6.2-8h-5.9V285H98.6z
	 M124,287.9h-1.5v-2.4h-10.8v2.4h-1.5V284h2.9c-0.5-0.9-1-1.6-1.6-2.3l1.4-0.7c0.5,0.7,1.1,1.6,1.6,2.5l-1,0.5h6
	c0.7-1,1.2-2.1,1.7-3.2l1.6,0.6c-0.5,1-1.1,1.9-1.6,2.6h2.9L124,287.9L124,287.9z M121.4,286.5v1.3c-1,0.7-2.1,1.3-3.4,1.9v0.6h6
	v1.4h-6v2.4c0,0.9-0.5,1.4-1.5,1.4h-2l-0.4-1.4c0.6,0,1.2,0,1.9,0c0.3,0,0.5-0.2,0.5-0.6v-1.9h-6.3v-1.4h6.3V289
	c1.1-0.5,2-0.9,2.7-1.2h-6.5v-1.3L121.4,286.5L121.4,286.5z M118.2,283.3l-1.4,0.7c-0.5-1-1-1.8-1.5-2.6l1.4-0.7
	C117.2,281.5,117.7,282.4,118.2,283.3z"/>
<path class="st1" d="M72.3,307.8c-0.3,1.1-0.7,2.1-1.2,2.9l-0.6-0.4c0.5-0.8,0.9-1.7,1.2-2.6L72.3,307.8z M78.1,302.2v4.6h-6.3v-4.6
	H78.1z M74.6,304.2v-1.3h-2.1v1.3H74.6z M74.6,304.8h-2.1v1.3h2.1V304.8z M73.9,310.9c-0.7,0-1-0.4-1-1.1v-2.2h0.7v2
	c0,0.4,0.2,0.5,0.5,0.5h2.2c0.2,0,0.4-0.1,0.5-0.2s0.2-0.5,0.2-1.2l0.7,0.2c-0.1,0.9-0.2,1.4-0.4,1.6c-0.2,0.2-0.5,0.2-0.8,0.2h-2.6
	V310.9z M76.2,308.9l-0.7,0.3c-0.3-0.7-0.6-1.3-1-1.8l0.6-0.2C75.5,307.7,75.9,308.3,76.2,308.9z M75.3,304.2h2.1v-1.3h-2.1V304.2z
	 M77.4,304.8h-2.1v1.3h2.1V304.8z M79.5,310l-0.6,0.3c-0.4-1-0.9-1.9-1.5-2.7l0.7-0.2C78.6,308.3,79.1,309.1,79.5,310z M84.8,309.3
	h-2.2v0.8h-0.7v-7.7h3v6.9H84.8z M84.1,305.5v-2.3h-1.6v2.3H84.1z M84.1,308.6v-2.4h-1.6v2.4H84.1z M85.4,311l-0.6-0.5
	c0.7-1,1-2.2,1.1-3.6v-4.7H90v7.8c0,0.6-0.3,0.9-0.9,0.9h-1.3l-0.2-0.7c0.5,0,0.9,0,1.3,0c0.3,0,0.4-0.2,0.4-0.5v-2.1h-2.7
	C86.5,309,86.1,310.2,85.4,311z M89.3,302.9h-2.6v1.8h2.6V302.9z M86.6,307h2.6v-1.7h-2.6V307z M94,303.8v-1.9h0.7v1.9h1v0.7h-1v0.8
	c0.3,0.4,0.7,0.8,1,1.3c0.6-0.7,1.1-1.5,1.5-2.4l0.6,0.3c-0.5,1-1,1.8-1.6,2.5l-0.4-0.3L96,307l-0.4,0.6c-0.4-0.7-0.7-1.3-1-1.7v5
	H94v-5.1c-0.3,1-0.8,1.9-1.3,2.7l-0.3-0.8c0.7-1,1.3-2,1.6-3.3h-1.3v-0.7H94V303.8z M100.2,306.2c-0.2,1.1-0.5,2-1.1,2.7
	c0.6,0.6,1.5,1,2.5,1.4l-0.4,0.6c-1-0.4-1.9-0.9-2.5-1.5c-0.7,0.7-1.6,1.3-2.7,1.6l-0.4-0.6c1.1-0.3,1.9-0.8,2.6-1.4
	c-0.6-0.7-1-1.6-1.2-2.6l0.6-0.2c0.1,0.8,0.5,1.6,1,2.3c0.4-0.6,0.7-1.4,0.9-2.3H100.2z M98.4,303.1c-0.2-0.5-0.4-0.9-0.6-1.3
	l0.7-0.1c0.2,0.4,0.4,0.9,0.6,1.4h2.2v0.7H96v-0.7H98.4z M101.6,306.6L101,307c-0.4-0.7-1-1.5-1.7-2.4l0.6-0.3
	C100.6,305.1,101.2,305.9,101.6,306.6z M112.1,302.2v0.7h-7.2v7h7.5v0.7h-8.2v-8.3h7.9V302.2z M108.9,306c0.6-0.7,1.1-1.6,1.5-2.5
	l0.6,0.3c-0.4,1-1,1.9-1.6,2.7c0.8,0.7,1.5,1.4,2.1,2.1l-0.6,0.6c-0.6-0.7-1.3-1.4-2-2.1c-0.9,0.9-1.9,1.7-3,2.2l-0.4-0.6
	c1.1-0.5,2.1-1.1,2.9-2c-0.8-0.7-1.7-1.4-2.6-2.1l0.5-0.5C107.2,304.6,108.1,305.3,108.9,306z"/>
<path class="st2" d="M660.4,414.6v12.8h-1.3v-2.2c-1.1,0.5-2.3,0.9-3.5,1.3l-0.3-1.3c1.3-0.3,2.6-0.7,3.8-1.3v-4.2h-3.6v-1.3h3.6
	v-3.8H660.4z M664,427.2c-1,0-1.5-0.5-1.5-1.6v-11.1h1.3v4.5c1.1-0.4,2.2-1,3.3-1.7l0.8,1.1c-1.4,0.8-2.8,1.5-4,1.9v5.1
	c0,0.4,0.2,0.5,0.5,0.5h1.6c0.3,0,0.4-0.1,0.6-0.3c0.1-0.2,0.2-1,0.2-2.3l1.2,0.4c-0.1,1.6-0.3,2.6-0.5,3c-0.3,0.3-0.7,0.5-1.3,0.5
	H664z M674.7,424c-0.9,1.2-1.9,2.3-3.2,3.2l-0.8-1.1c1.2-0.8,2.3-1.8,3.1-3L674.7,424z M677.6,415.9h5.7v1.2h-12.5v-1.2h5.5
	c-0.2-0.4-0.4-0.9-0.6-1.2l1.4-0.2C677.2,414.9,677.4,415.4,677.6,415.9z M681.6,418.2v4.2h-3.9v3.5c0,0.9-0.5,1.4-1.4,1.4h-1.5
	l-0.3-1.3c0.5,0.1,0.9,0.1,1.4,0.1c0.4,0,0.6-0.2,0.6-0.5v-3.2h-4v-4.2H681.6z M680.3,419.5h-6.6v1.7h6.6V419.5z M683.3,426.2l-1,1
	c-0.7-1-1.7-2-3-3.2l0.9-0.9C681.4,424.1,682.5,425.1,683.3,426.2z"/>
<path class="st2" d="M642.1,393v10h-1.5v-8.2c-0.6,0.6-1.4,1-2.3,1.3v-1.5c0.4-0.1,0.9-0.3,1.4-0.6c0.5-0.3,0.9-0.6,1.3-1L642.1,393
	L642.1,393z M651.7,394.3c0.6,0.9,0.9,2.2,0.9,3.7s-0.3,2.8-0.9,3.7c-0.6,1-1.6,1.5-2.7,1.5s-2.1-0.5-2.7-1.5
	c-0.6-0.9-0.9-2.2-0.9-3.7c0-1.6,0.3-2.8,0.9-3.7c0.6-1,1.6-1.5,2.7-1.5S651.1,393.3,651.7,394.3z M647.3,395.4
	c-0.3,0.6-0.4,1.5-0.4,2.5c0,1.1,0.1,1.9,0.4,2.5c0.3,0.9,0.9,1.4,1.7,1.4s1.4-0.5,1.7-1.4c0.2-0.6,0.4-1.5,0.4-2.5
	c0-1.1-0.1-1.9-0.4-2.5c-0.3-0.9-0.9-1.4-1.7-1.4C648.2,394.1,647.6,394.5,647.3,395.4z M657.5,404.5l-1-0.9
	c0.9-1.2,1.3-2.8,1.4-4.7V392h8.3v11c0,0.9-0.5,1.3-1.4,1.3H663l-0.4-1.3c0.6,0,1.2,0.1,1.7,0.1c0.3,0,0.4-0.2,0.4-0.6V400H659
	C658.9,401.9,658.4,403.3,657.5,404.5z M664.8,393.3h-5.7v2.1h5.7V393.3z M659.1,398.8h5.7v-2.2h-5.7V398.8z M674.4,393v10h-1.5
	v-8.2c-0.6,0.6-1.4,1-2.3,1.3v-1.5c0.4-0.1,0.9-0.3,1.4-0.6c0.5-0.3,0.9-0.6,1.3-1L674.4,393L674.4,393z M684,394.1
	c0.6,0.9,0.9,2,0.9,3.6s-0.3,2.9-1,4c-0.7,1-1.6,1.5-2.7,1.5c-1.9,0-3-0.9-3.3-2.7h1.5c0.2,1,0.8,1.5,1.8,1.5c0.7,0,1.2-0.4,1.7-1
	c0.4-0.6,0.6-1.5,0.6-2.4c0-0.1,0-0.1,0-0.2h-0.1c-0.3,0.4-0.6,0.8-1.1,1c-0.4,0.2-0.9,0.3-1.4,0.3c-1,0-1.8-0.3-2.4-1
	c-0.6-0.6-0.9-1.4-0.9-2.4s0.3-1.8,1-2.5s1.5-1,2.5-1C682.4,392.8,683.3,393.2,684,394.1z M679.8,394.7c-0.4,0.4-0.6,0.9-0.6,1.6
	s0.2,1.1,0.6,1.5c0.4,0.4,0.8,0.6,1.5,0.6c0.6,0,1.1-0.2,1.5-0.6s0.5-0.9,0.5-1.6s-0.2-1.2-0.6-1.6c-0.4-0.4-0.9-0.6-1.5-0.6
	C680.6,394.1,680.1,394.3,679.8,394.7z M698.5,404.4h-1.3v-1h-6.3v1h-1.3V392h9v12.4H698.5z M697.2,396.9v-3.6h-6.3v3.6H697.2z
	 M697.2,402.1v-3.9h-6.3v3.9H697.2z"/>
<path class="st2" d="M631.9,504.9v7.1h-0.8v-6.1c-0.4,0.5-1,0.8-1.7,1V506c0.3-0.1,0.7-0.2,1-0.4c0.3-0.2,0.6-0.5,0.9-0.7H631.9z
	 M638.7,505.3c0.4,0.3,0.6,0.8,0.6,1.3c0,0.4-0.1,0.7-0.3,1s-0.5,0.5-0.8,0.6l0,0c0.4,0.1,0.7,0.3,0.9,0.6c0.3,0.3,0.4,0.7,0.4,1.2
	c0,0.6-0.2,1.1-0.7,1.5s-1.1,0.6-1.9,0.6c-0.8,0-1.5-0.2-1.9-0.6s-0.7-0.9-0.7-1.5c0-0.5,0.1-0.9,0.4-1.2c0.3-0.3,0.6-0.5,0.9-0.6
	l0,0c-0.4-0.1-0.7-0.3-0.8-0.6c-0.2-0.3-0.3-0.6-0.3-1c0-0.5,0.2-1,0.6-1.3c0.4-0.4,1-0.6,1.7-0.6
	C637.7,504.7,638.3,504.9,638.7,505.3z M635.6,509c-0.3,0.3-0.4,0.6-0.4,1s0.1,0.8,0.4,1c0.3,0.3,0.7,0.4,1.3,0.4s1-0.1,1.3-0.4
	s0.4-0.6,0.4-1s-0.1-0.8-0.4-1c-0.3-0.3-0.8-0.4-1.3-0.4C636.4,508.6,636,508.7,635.6,509z M635.8,505.8c-0.2,0.2-0.4,0.5-0.4,0.9
	s0.1,0.7,0.3,0.9c0.3,0.3,0.7,0.4,1.2,0.4s1-0.1,1.2-0.4c0.2-0.2,0.3-0.5,0.3-0.9c0-0.3-0.1-0.6-0.4-0.9c-0.3-0.3-0.7-0.4-1.2-0.4
	C636.5,505.4,636.1,505.5,635.8,505.8z M643.9,506.1c0.1,0.1,0.2,0.2,0.2,0.4c0,0.2-0.1,0.3-0.2,0.4c-0.1,0.1-0.3,0.2-0.4,0.2
	s-0.3-0.1-0.4-0.2c-0.1-0.1-0.2-0.3-0.2-0.4s0-0.3,0.2-0.4c0.1-0.1,0.3-0.2,0.4-0.2S643.8,506,643.9,506.1z M643.9,509.8
	c0.1,0.1,0.2,0.2,0.2,0.4c0,0.2-0.1,0.3-0.2,0.4c-0.1,0.1-0.3,0.2-0.4,0.2s-0.3-0.1-0.4-0.2c-0.1-0.1-0.2-0.3-0.2-0.4s0-0.3,0.2-0.4
	c0.1-0.1,0.3-0.2,0.4-0.2S643.8,509.6,643.9,509.8z M656.7,505.2c0.4,0.3,0.6,0.8,0.6,1.4c0,0.8-0.4,1.3-1.2,1.6
	c0.4,0.1,0.7,0.3,1,0.6c0.2,0.3,0.4,0.6,0.4,1c0,0.6-0.2,1.2-0.7,1.6s-1.1,0.6-1.8,0.6s-1.2-0.2-1.7-0.5c-0.5-0.4-0.8-1-0.8-1.8h0.8
	c0,0.6,0.2,1,0.6,1.3c0.3,0.2,0.7,0.4,1.1,0.4c0.5,0,0.9-0.1,1.2-0.4s0.4-0.6,0.4-1s-0.1-0.8-0.4-1s-0.7-0.3-1.2-0.3h-0.6V508h0.5
	c0.5,0,0.8-0.1,1.1-0.3c0.2-0.2,0.4-0.5,0.4-0.9s-0.1-0.7-0.4-0.9c-0.3-0.2-0.6-0.3-1.1-0.3s-0.8,0.1-1.1,0.4s-0.4,0.6-0.5,1.1h-0.8
	c0.1-0.7,0.3-1.2,0.8-1.6c0.4-0.4,1-0.6,1.6-0.6S656.3,504.9,656.7,505.2z M663.9,505.9c0.4,0.6,0.6,1.5,0.6,2.6s-0.2,1.9-0.6,2.6
	c-0.4,0.7-1.1,1.1-1.9,1.1c-0.9,0-1.5-0.4-1.9-1.1c-0.4-0.6-0.6-1.5-0.6-2.6s0.2-1.9,0.6-2.6c0.4-0.8,1.1-1.1,1.9-1.1
	C662.8,504.7,663.5,505.1,663.9,505.9z M660.6,506.5c-0.2,0.5-0.3,1.1-0.3,2c0,0.8,0.1,1.5,0.3,2c0.3,0.7,0.7,1,1.4,1s1.1-0.3,1.4-1
	c0.2-0.5,0.3-1.1,0.3-2c0-0.8-0.1-1.5-0.3-2c-0.3-0.7-0.7-1-1.4-1S660.9,505.8,660.6,506.5z M671.5,509.1v0.7h-5v-0.7H671.5z
	 M677.8,505.3c0.4,0.4,0.6,0.9,0.6,1.5s-0.2,1.2-0.7,1.7c-0.2,0.3-0.7,0.6-1.5,1.1c-0.9,0.6-1.4,1.2-1.6,1.6h3.7v0.7h-4.8
	c0-0.6,0.2-1.2,0.7-1.8c0.3-0.3,0.8-0.7,1.5-1.3c0.6-0.4,0.9-0.7,1.1-0.9c0.4-0.4,0.5-0.8,0.5-1.3c0-0.4-0.1-0.8-0.4-1
	c-0.3-0.2-0.6-0.4-1.1-0.4s-0.9,0.2-1.1,0.5c-0.3,0.3-0.4,0.8-0.4,1.4h-0.8c0-0.8,0.2-1.4,0.7-1.9c0.4-0.5,1-0.7,1.7-0.7
	C676.8,504.7,677.3,504.9,677.8,505.3z M683,504.9v7.1h-0.8v-6.1c-0.4,0.5-1,0.8-1.7,1V506c0.3-0.1,0.7-0.2,1-0.4
	c0.3-0.2,0.6-0.5,0.9-0.7H683z M688,506.1c0.1,0.1,0.2,0.2,0.2,0.4c0,0.2-0.1,0.3-0.2,0.4c-0.1,0.1-0.3,0.2-0.4,0.2
	c-0.2,0-0.3-0.1-0.4-0.2c-0.1-0.1-0.2-0.3-0.2-0.4s0-0.3,0.2-0.4c0.1-0.1,0.3-0.2,0.4-0.2S687.9,506,688,506.1z M688,509.8
	c0.1,0.1,0.2,0.2,0.2,0.4c0,0.2-0.1,0.3-0.2,0.4c-0.1,0.1-0.3,0.2-0.4,0.2c-0.2,0-0.3-0.1-0.4-0.2c-0.1-0.1-0.2-0.3-0.2-0.4
	s0-0.3,0.2-0.4c0.1-0.1,0.3-0.2,0.4-0.2C687.7,509.6,687.9,509.6,688,509.8z M700.8,505.2c0.4,0.3,0.6,0.8,0.6,1.4
	c0,0.8-0.4,1.3-1.2,1.6c0.4,0.1,0.7,0.3,1,0.6c0.2,0.3,0.4,0.6,0.4,1c0,0.6-0.2,1.2-0.7,1.6s-1.1,0.6-1.8,0.6s-1.2-0.2-1.7-0.5
	c-0.5-0.4-0.8-1-0.8-1.8h0.8c0,0.6,0.2,1,0.6,1.3c0.3,0.2,0.7,0.4,1.1,0.4c0.5,0,0.9-0.1,1.2-0.4s0.4-0.6,0.4-1s-0.1-0.8-0.4-1
	s-0.7-0.3-1.2-0.3h-0.6V508h0.5c0.5,0,0.8-0.1,1.1-0.3c0.2-0.2,0.4-0.5,0.4-0.9s-0.1-0.7-0.4-0.9c-0.3-0.2-0.6-0.3-1.1-0.3
	s-0.8,0.1-1.1,0.4s-0.4,0.6-0.5,1.1h-0.8c0.1-0.7,0.3-1.2,0.8-1.6c0.4-0.4,1-0.6,1.6-0.6S700.3,504.9,700.8,505.2z M708,505.9
	c0.4,0.6,0.6,1.5,0.6,2.6s-0.2,1.9-0.6,2.6c-0.4,0.7-1.1,1.1-1.9,1.1c-0.9,0-1.5-0.4-1.9-1.1c-0.4-0.6-0.6-1.5-0.6-2.6
	s0.2-1.9,0.6-2.6c0.4-0.8,1.1-1.1,1.9-1.1C706.9,504.7,707.5,505.1,708,505.9z M704.7,506.5c-0.2,0.5-0.3,1.1-0.3,2
	c0,0.8,0.1,1.5,0.3,2c0.3,0.7,0.7,1,1.4,1s1.1-0.3,1.4-1c0.2-0.5,0.3-1.1,0.3-2c0-0.8-0.1-1.5-0.3-2c-0.3-0.7-0.7-1-1.4-1
	S704.9,505.8,704.7,506.5z"/>
<path class="st1" d="M641.5,468.9v14.6H640V481c-1.3,0.6-2.6,1-4,1.4l-0.4-1.5c1.5-0.3,3-0.8,4.4-1.5v-4.8h-4.1v-1.5h4.1v-4.3
	L641.5,468.9L641.5,468.9z M645.5,483.4c-1.1,0-1.7-0.6-1.7-1.8v-12.7h1.5v5.2c1.3-0.5,2.6-1.1,3.7-2l0.9,1.2
	c-1.6,1-3.2,1.7-4.6,2.2v5.8c0,0.4,0.2,0.6,0.5,0.6h1.9c0.3,0,0.5-0.1,0.7-0.4c0.1-0.3,0.2-1.2,0.2-2.7l1.4,0.5
	c-0.1,1.9-0.3,3-0.5,3.4c-0.3,0.4-0.8,0.6-1.5,0.6L645.5,483.4L645.5,483.4z M657.8,479.7c-1,1.4-2.2,2.6-3.7,3.6l-1-1.2
	c1.4-1,2.6-2.1,3.6-3.4L657.8,479.7z M661.1,470.5h6.5v1.4h-14.3v-1.4h6.2c-0.2-0.5-0.4-1-0.6-1.4l1.6-0.3
	C660.7,469.3,660.9,469.9,661.1,470.5z M665.7,473.1v4.8h-4.5v4c0,1-0.5,1.6-1.6,1.6h-1.7l-0.4-1.5c0.5,0.1,1.1,0.1,1.6,0.1
	c0.4,0,0.6-0.2,0.6-0.6v-3.6h-4.6v-4.8H665.7z M664.2,474.6h-7.5v1.9h7.5V474.6z M667.6,482.2l-1.1,1.1c-0.8-1.1-2-2.3-3.5-3.6l1-1
	C665.4,479.9,666.6,481,667.6,482.2z M677.1,473c0.1-0.8,0.2-1.7,0.2-2.7v-1.4h1.5v1c0,1.1-0.1,2.1-0.2,3h6.5v1.5H679
	c1.1,3.4,3.3,6.1,6.5,7.9l-0.9,1.2c-3.1-1.9-5.2-4.5-6.5-7.9c-1.1,3.7-3.2,6.4-6.5,8.1l-1-1.3c3.3-1.6,5.4-4.3,6.2-8h-5.9V473H677.1
	z M702.5,475.9H701v-2.4h-10.8v2.4h-1.5V472h2.9c-0.5-0.9-1-1.6-1.6-2.3l1.4-0.7c0.5,0.7,1.1,1.6,1.6,2.5l-1,0.5h6
	c0.7-1,1.2-2.1,1.7-3.2l1.6,0.6c-0.5,1-1.1,1.9-1.6,2.6h2.9v3.9H702.5z M699.9,474.5v1.3c-1,0.7-2.1,1.3-3.4,1.9v0.6h6v1.4h-6v2.4
	c0,0.9-0.5,1.4-1.5,1.4h-2l-0.4-1.4c0.6,0,1.2,0,1.9,0c0.3,0,0.5-0.2,0.5-0.6v-1.9h-6.3v-1.4h6.3V477c1.1-0.5,2-0.9,2.7-1.2h-6.5
	v-1.3L699.9,474.5L699.9,474.5z M696.7,471.3l-1.4,0.7c-0.5-1-1-1.8-1.5-2.6l1.4-0.7C695.7,469.5,696.2,470.4,696.7,471.3z"/>
<path class="st1" d="M663.6,491.7v-1.8h0.7v1.8h3.9v0.7H665c0.7,1.6,1.9,3,3.6,4.3l-0.5,0.6c-1.8-1.4-3-3.1-3.7-4.9h-0.1v3.9h2.1
	v0.7h-2.1v2h-0.7v-2h-2.1v-0.7h2.1v-3.9h-0.1c-0.7,2-2,3.7-3.8,5l-0.4-0.7c1.7-1.1,2.9-2.6,3.6-4.3h-3.3v-0.7H663.6z M672.5,493.6h1
	c0.3-0.5,0.5-1.1,0.7-1.8l0.7,0.2c-0.2,0.6-0.4,1.1-0.7,1.5h1.2v0.7h-5v-0.7h1.3c-0.2-0.5-0.4-1-0.6-1.4l0.7-0.2
	C672.1,492.3,672.3,492.9,672.5,493.6z M672.7,490.8c-0.1-0.3-0.2-0.6-0.4-0.9l0.7-0.1c0.1,0.3,0.2,0.6,0.3,1h2v0.7h-4.7v-0.7H672.7
	z M675.1,498.9h-0.7v-0.6h-2.6v0.6h-0.7v-3.8h4V498.9z M674.3,497.7v-1.8h-2.6v1.8H674.3z M679.3,490.3v0.5c-0.3,1-0.6,2-1,2.9
	c0.7,0.9,1.1,1.7,1.1,2.3c0,0.6-0.1,1-0.4,1.3c-0.3,0.2-0.8,0.4-1.6,0.4l-0.2-0.8c0.3,0,0.5,0,0.7,0c0.4,0,0.6-0.1,0.7-0.2
	c0.1-0.1,0.1-0.4,0.2-0.7c0-0.6-0.4-1.4-1.2-2.3c0.3-0.8,0.7-1.7,1-2.8h-1.8v8.1H676v-8.7L679.3,490.3L679.3,490.3z"/>
</svg>
