<?xml version="1.0" encoding="utf-8"?>
<!-- Generator: Adobe Illustrator 21.0.0, SVG Export Plug-In . SVG Version: 6.00 Build 0)  -->
<svg version="1.1" id="图层_1" xmlns="http://www.w3.org/2000/svg" xmlns:xlink="http://www.w3.org/1999/xlink" x="0px" y="0px"
	 viewBox="0 0 300 791" style="enable-background:new 0 0 300 791;" xml:space="preserve">
<style type="text/css">
	.st0{fill:#4A90E2;}
	.st1{fill:#ABABAB;}
	.st2{fill:#59A3E8;}
	.st3{fill:#AAAAAA;}
	.st4{fill:none;}
</style>
<path class="st0" d="M94.5,86.4v-8.2c0-1.9-1.4-3.3-3.5-3.3s-3.5,1.4-3.5,3.3v8.2c0,1.9,1.4,3.5,3.5,3.5S94.5,88.2,94.5,86.4z
	 M96.4,84.9v2c0,2.6-2.4,4.7-5.4,4.7s-5.4-2.1-5.4-4.7v-2H84v2c0,3.1,2.3,5.6,5.8,6v3h-2.3v1h7v-1h-2.3v-3c3.5-0.3,5.8-2.8,5.8-6v-2
	H96.4z"/>
<path class="st1" d="M80,58.9c0.7,1.3,1.7,2.4,3,3.3l-0.6,0.9c-0.4-0.2-0.7-0.5-1-0.8v0.9h-3.9v-0.9c-0.3,0.3-0.6,0.6-1,0.8
	l-0.4-0.5v5.1h-1v-0.5H74V68h-1v-8.3h3.1v2.4c1.1-0.8,2.1-1.9,2.8-3.2H80z M75.2,66.2v-5.6h-1.1v5.6H75.2z M81.9,69h-1v-0.6H78V69
	h-1v-4.6h4.9V69z M81.4,62.3c-0.7-0.7-1.4-1.5-1.9-2.4c-0.6,0.9-1.2,1.7-1.9,2.4H81.4z M80.9,67.5v-2.1H78v2.1H80.9z M88.3,64
	c-0.7,1.5-1.4,2.9-2.3,4l-0.9-0.6c0.9-1.1,1.7-2.3,2.3-3.8L88.3,64z M86.1,63.4l-0.7-0.7c1-1.1,1.7-2.4,2.2-4l1,0.3
	c-0.1,0.4-0.2,0.7-0.4,1.1h6v0.7c-0.2,0.8-0.4,1.6-0.6,2.3l-1-0.3c0.2-0.5,0.4-1.1,0.5-1.7h-5.3C87.3,62,86.7,62.8,86.1,63.4z
	 M88,69l-0.2-1c0.4,0,0.9,0.1,1.3,0.1c0.3,0,0.4-0.2,0.4-0.5V62h1.1v5.9c0,0.8-0.4,1.2-1.1,1.2L88,69L88,69z M94.7,67.8l-1,0.4
	c-0.6-1.6-1.4-3-2.1-4.3l0.9-0.3C93.4,64.9,94.1,66.3,94.7,67.8z M99.6,63.2l-0.7,0.7c-0.4-0.5-1-1-1.7-1.6l0.7-0.7
	C98.5,62.1,99.1,62.6,99.6,63.2z M99.6,65c-0.4,1.3-0.9,2.6-1.5,3.8l-1-0.4c0.6-1.2,1.1-2.5,1.5-3.7L99.6,65z M99.8,60.4L99,61.1
	c-0.4-0.5-1-0.9-1.7-1.5l0.8-0.7C98.8,59.4,99.3,59.9,99.8,60.4z M102.9,67.5c-0.7,0.6-1.5,1.1-2.4,1.5l-0.6-0.8
	c0.9-0.4,1.7-0.8,2.3-1.4L102.9,67.5z M105.6,62.2c-1,0.3-2.2,0.5-3.5,0.6v0.5h4.2v0.9h-0.8v1.5h1.7v1H100v-1h1.1V62
	c1.7-0.2,3-0.4,4-0.8L105.6,62.2z M106.9,61.9h-1v-1.1H101V62h-1v-2.2h2.9c-0.1-0.3-0.3-0.5-0.4-0.8l1.1-0.2c0.1,0.3,0.3,0.6,0.4,1
	h2.9V61.9z M104.4,65.7v-1.5H102v1.5H104.4z M107.1,68.2l-0.6,0.9c-0.8-0.6-1.6-1.1-2.4-1.5l0.5-0.8
	C105.5,67.2,106.3,67.6,107.1,68.2z"/>
<path class="st1" d="M73.8,43.9c0.5,0.7,0.7,1.6,0.7,2.8c0,1.3-0.3,2.3-0.8,3.1S72.4,51,71.5,51c-1.5,0-2.4-0.7-2.6-2.1h1.2
	c0.2,0.8,0.6,1.1,1.4,1.1c0.5,0,1-0.3,1.3-0.8s0.5-1.1,0.5-1.9v-0.1l0,0c-0.2,0.3-0.5,0.6-0.8,0.8s-0.7,0.2-1.1,0.2
	c-0.8,0-1.4-0.3-1.9-0.7c-0.5-0.5-0.7-1.1-0.7-1.9c0-0.8,0.3-1.4,0.8-1.9s1.2-0.8,2-0.8C72.6,42.9,73.3,43.2,73.8,43.9z M70.5,44.3
	c-0.3,0.3-0.4,0.7-0.4,1.2s0.1,0.9,0.4,1.2s0.7,0.5,1.2,0.5s0.9-0.2,1.2-0.5s0.4-0.7,0.4-1.2s-0.2-0.9-0.4-1.2
	c-0.3-0.3-0.7-0.5-1.1-0.5C71.2,43.9,70.8,44,70.5,44.3z M78.4,52.1l-0.8-0.7c0.7-1,1-2.2,1.1-3.7v-5.4h6.6v8.6
	c0,0.7-0.4,1.1-1.1,1.1h-1.4l-0.3-1c0.5,0,0.9,0,1.4,0c0.2,0,0.4-0.2,0.4-0.4v-1.9h-4.5C79.5,50,79.1,51.1,78.4,52.1z M84.1,43.2
	h-4.5v1.7h4.5V43.2z M79.7,47.6h4.5v-1.7h-4.5V47.6z M91.7,43v7.9h-1.2v-6.4c-0.5,0.5-1.1,0.8-1.8,1v-1.2c0.4-0.1,0.7-0.2,1.1-0.5
	c0.4-0.2,0.7-0.5,1-0.8H91.7z M99.1,43.5c0.4,0.4,0.7,0.9,0.7,1.5c0,0.4-0.1,0.7-0.3,1c-0.2,0.3-0.5,0.5-0.9,0.7l0,0
	c0.4,0.1,0.7,0.3,1,0.7s0.5,0.8,0.5,1.3c0,0.7-0.3,1.3-0.8,1.7C98.7,50.8,98,51,97.1,51s-1.7-0.2-2.2-0.6c-0.5-0.4-0.8-1-0.8-1.7
	c0-0.5,0.2-0.9,0.5-1.3c0.3-0.4,0.6-0.6,1-0.7l0,0c-0.4-0.2-0.7-0.4-0.9-0.7c-0.2-0.3-0.3-0.6-0.3-1c0-0.6,0.2-1.1,0.7-1.5
	s1.2-0.7,2-0.7S98.6,43.1,99.1,43.5z M95.8,47.6c-0.3,0.3-0.4,0.6-0.4,1s0.1,0.7,0.5,1c0.3,0.3,0.7,0.4,1.3,0.4c0.6,0,1-0.1,1.3-0.4
	c0.3-0.3,0.4-0.6,0.4-1s-0.1-0.8-0.4-1c-0.3-0.3-0.7-0.4-1.3-0.4S96.1,47.4,95.8,47.6z M95.9,44.2c-0.3,0.2-0.4,0.5-0.4,0.8
	c0,0.4,0.1,0.7,0.3,0.9c0.3,0.3,0.7,0.4,1.2,0.4c0.6,0,1-0.1,1.2-0.4c0.2-0.2,0.3-0.5,0.3-0.9c0-0.3-0.1-0.6-0.4-0.8
	c-0.3-0.3-0.7-0.4-1.2-0.4S96.2,43.9,95.9,44.2z M110.6,51.9h-1v-0.8h-5V52h-1v-9.7h7.1L110.6,51.9L110.6,51.9z M109.6,46.1v-2.8h-5
	v2.8H109.6z M109.6,50.2v-3.1h-5v3.1H109.6z"/>
<path class="st1" d="M57.2,140.4v6.4h-0.7v-5.5c-0.4,0.4-0.9,0.7-1.5,0.9v-0.7c0.3-0.1,0.6-0.2,0.9-0.4c0.3-0.2,0.6-0.4,0.8-0.7
	H57.2z M63.3,140.8c0.3,0.3,0.5,0.7,0.5,1.2c0,0.3-0.1,0.6-0.2,0.9c-0.2,0.3-0.4,0.4-0.8,0.6l0,0c0.3,0.1,0.6,0.3,0.9,0.6
	c0.3,0.3,0.4,0.7,0.4,1.1c0,0.6-0.2,1-0.6,1.4c-0.4,0.4-1,0.5-1.7,0.5s-1.3-0.2-1.7-0.5s-0.6-0.8-0.6-1.4c0-0.4,0.1-0.8,0.4-1.1
	c0.2-0.3,0.5-0.5,0.9-0.6l0,0c-0.3-0.1-0.6-0.3-0.8-0.6c-0.2-0.2-0.2-0.5-0.2-0.9c0-0.5,0.2-0.9,0.5-1.2c0.4-0.4,0.9-0.5,1.6-0.5
	C62.4,140.3,62.9,140.5,63.3,140.8z M60.5,144.2c-0.3,0.2-0.4,0.5-0.4,0.9s0.1,0.7,0.4,0.9c0.3,0.2,0.7,0.4,1.2,0.4s0.9-0.1,1.2-0.4
	c0.3-0.2,0.4-0.5,0.4-0.9s-0.1-0.7-0.4-0.9c-0.3-0.3-0.7-0.4-1.2-0.4S60.8,143.9,60.5,144.2z M60.7,141.3c-0.2,0.2-0.3,0.5-0.3,0.8
	s0.1,0.6,0.3,0.8s0.6,0.4,1.1,0.4s0.9-0.1,1.1-0.4c0.2-0.2,0.3-0.5,0.3-0.8s-0.1-0.6-0.3-0.8c-0.3-0.2-0.6-0.4-1.1-0.4
	C61.3,140.9,60.9,141,60.7,141.3z M68,141.6c0.1,0.1,0.2,0.2,0.2,0.4s-0.1,0.3-0.2,0.4c-0.1,0.1-0.2,0.2-0.4,0.2s-0.3-0.1-0.4-0.2
	c-0.1-0.1-0.2-0.2-0.2-0.4s0-0.3,0.2-0.4c0.1-0.1,0.2-0.2,0.4-0.2S67.9,141.5,68,141.6z M68,144.9c0.1,0.1,0.2,0.2,0.2,0.4
	s-0.1,0.3-0.2,0.4c-0.1,0.1-0.2,0.2-0.4,0.2s-0.3-0.1-0.4-0.2c-0.1-0.1-0.2-0.2-0.2-0.4s0-0.3,0.2-0.4c0.1-0.1,0.2-0.2,0.4-0.2
	S67.9,144.7,68,144.9z M79.5,140.8c0.4,0.3,0.6,0.7,0.6,1.3c0,0.7-0.4,1.2-1.1,1.4c0.4,0.1,0.7,0.3,0.9,0.5c0.2,0.3,0.3,0.6,0.3,0.9
	c0,0.6-0.2,1.1-0.6,1.4c-0.4,0.4-1,0.6-1.6,0.6s-1.1-0.2-1.5-0.5c-0.5-0.4-0.7-0.9-0.8-1.6h0.7c0,0.5,0.2,0.9,0.5,1.2
	c0.3,0.2,0.6,0.3,1,0.3c0.5,0,0.8-0.1,1.1-0.4c0.3-0.3,0.4-0.6,0.4-0.9c0-0.4-0.1-0.7-0.4-0.9s-0.6-0.3-1-0.3h-0.5v-0.6H78
	c0.4,0,0.8-0.1,1-0.3s0.3-0.5,0.3-0.8s-0.1-0.6-0.3-0.8c-0.2-0.2-0.6-0.3-1-0.3s-0.8,0.1-1,0.3c-0.3,0.2-0.4,0.6-0.4,1h-0.7
	c0.1-0.6,0.3-1.1,0.7-1.5c0.4-0.4,0.9-0.5,1.5-0.5S79.1,140.5,79.5,140.8z M86,141.3c0.3,0.6,0.5,1.4,0.5,2.3s-0.2,1.7-0.5,2.3
	c-0.4,0.7-1,1-1.7,1c-0.8,0-1.4-0.3-1.7-1c-0.3-0.6-0.5-1.4-0.5-2.3s0.2-1.7,0.5-2.3c0.4-0.7,1-1,1.7-1S85.6,140.7,86,141.3z
	 M83,141.9c-0.2,0.4-0.3,1-0.3,1.8c0,0.7,0.1,1.3,0.3,1.8c0.3,0.6,0.7,0.9,1.2,0.9s1-0.3,1.2-0.9c0.2-0.4,0.3-1,0.3-1.8
	s-0.1-1.4-0.3-1.8c-0.3-0.6-0.7-0.9-1.2-0.9S83.2,141.3,83,141.9z M92.8,144.2v0.6h-4.5v-0.6H92.8z M98.4,140.8
	c0.4,0.3,0.6,0.8,0.6,1.4s-0.2,1.1-0.6,1.5c-0.2,0.2-0.7,0.6-1.3,1c-0.8,0.5-1.3,1-1.4,1.5H99v0.7h-4.3c0-0.6,0.2-1.1,0.6-1.6
	c0.3-0.3,0.7-0.7,1.4-1.1c0.5-0.4,0.8-0.6,1-0.8c0.3-0.4,0.5-0.7,0.5-1.2c0-0.4-0.1-0.7-0.4-0.9s-0.6-0.3-1-0.3s-0.8,0.1-1,0.5
	c-0.3,0.3-0.4,0.7-0.4,1.3h-0.7c0-0.7,0.2-1.3,0.6-1.7s0.9-0.6,1.6-0.6C97.6,140.3,98,140.5,98.4,140.8z M103.1,140.4v6.4h-0.7v-5.5
	c-0.4,0.4-0.9,0.7-1.5,0.9v-0.7c0.3-0.1,0.6-0.2,0.9-0.4s0.6-0.4,0.8-0.7H103.1z M107.6,141.6c0.1,0.1,0.2,0.2,0.2,0.4
	s-0.1,0.3-0.2,0.4c-0.1,0.1-0.2,0.2-0.4,0.2s-0.3-0.1-0.4-0.2c-0.1-0.1-0.2-0.2-0.2-0.4s0-0.3,0.2-0.4c0.1-0.1,0.2-0.2,0.4-0.2
	S107.5,141.5,107.6,141.6z M107.6,144.9c0.1,0.1,0.2,0.2,0.2,0.4s-0.1,0.3-0.2,0.4c-0.1,0.1-0.2,0.2-0.4,0.2s-0.3-0.1-0.4-0.2
	c-0.1-0.1-0.2-0.2-0.2-0.4s0-0.3,0.2-0.4c0.1-0.1,0.2-0.2,0.4-0.2S107.5,144.7,107.6,144.9z M119.1,140.8c0.4,0.3,0.6,0.7,0.6,1.3
	c0,0.7-0.4,1.2-1.1,1.4c0.4,0.1,0.7,0.3,0.9,0.5c0.2,0.3,0.3,0.6,0.3,0.9c0,0.6-0.2,1.1-0.6,1.4c-0.4,0.4-1,0.6-1.6,0.6
	s-1.1-0.2-1.5-0.5c-0.5-0.4-0.7-0.9-0.8-1.6h0.7c0,0.5,0.2,0.9,0.5,1.2c0.3,0.2,0.6,0.3,1,0.3c0.5,0,0.8-0.1,1.1-0.4
	c0.3-0.3,0.4-0.6,0.4-0.9c0-0.4-0.1-0.7-0.4-0.9s-0.6-0.3-1-0.3h-0.5v-0.6h0.5c0.4,0,0.8-0.1,1-0.3s0.3-0.5,0.3-0.8
	s-0.1-0.6-0.3-0.8c-0.2-0.2-0.6-0.3-1-0.3s-0.8,0.1-1,0.3c-0.3,0.2-0.4,0.6-0.4,1h-0.7c0.1-0.6,0.3-1.1,0.7-1.5
	c0.4-0.4,0.9-0.5,1.5-0.5S118.8,140.5,119.1,140.8z M125.6,141.3c0.3,0.6,0.5,1.4,0.5,2.3s-0.2,1.7-0.5,2.3c-0.4,0.7-1,1-1.7,1
	c-0.8,0-1.4-0.3-1.7-1c-0.3-0.6-0.5-1.4-0.5-2.3s0.2-1.7,0.5-2.3c0.4-0.7,1-1,1.7-1S125.2,140.7,125.6,141.3z M122.6,141.9
	c-0.2,0.4-0.3,1-0.3,1.8c0,0.7,0.1,1.3,0.3,1.8c0.3,0.6,0.7,0.9,1.2,0.9s1-0.3,1.2-0.9c0.2-0.4,0.3-1,0.3-1.8s-0.1-1.4-0.3-1.8
	c-0.3-0.6-0.7-0.9-1.2-0.9S122.9,141.3,122.6,141.9z"/>
<path class="st2" d="M53.1,107.1c0.7,1.4,1.8,2.6,3.3,3.6l-0.7,1c-0.4-0.3-0.8-0.6-1.1-0.9v1h-4.2v-1c-0.3,0.3-0.7,0.6-1.1,0.9
	l-0.4-0.6v5.6H48v-0.6h-1.2v0.8h-1.1v-9H49v2.6c1.2-0.9,2.3-2.1,3.1-3.4H53.1z M48,115.1V109h-1.2v6.1H48z M55.3,118.1h-1.1v-0.6H51
	v0.6h-1v-5h5.3V118.1z M54.6,110.8c-0.8-0.7-1.5-1.6-2-2.6c-0.6,1-1.3,1.9-2.1,2.6H54.6z M54.2,116.4v-2.2H51v2.2H54.2z M62.2,112.7
	c-0.7,1.7-1.6,3.1-2.6,4.3l-0.9-0.7c1-1.2,1.8-2.5,2.5-4.1L62.2,112.7z M59.8,112l-0.8-0.8c1.1-1.2,1.9-2.7,2.4-4.3l1.1,0.3
	c-0.1,0.4-0.3,0.8-0.4,1.2h6.6v0.7c-0.2,0.9-0.4,1.7-0.7,2.5l-1.1-0.3c0.2-0.6,0.4-1.2,0.6-1.9h-5.8C61.1,110.5,60.5,111.3,59.8,112
	z M61.9,118.1l-0.3-1.1c0.5,0,0.9,0.1,1.4,0.1c0.3,0,0.5-0.2,0.5-0.5v-6.1h1.2v6.4c0,0.9-0.4,1.3-1.2,1.3h-1.6V118.1z M69.2,116.8
	l-1.1,0.5c-0.7-1.8-1.5-3.3-2.3-4.7l1-0.3C67.8,113.6,68.6,115.1,69.2,116.8z M74.5,111.8l-0.8,0.8c-0.5-0.6-1.1-1.1-1.9-1.8
	l0.8-0.8C73.3,110.6,74,111.2,74.5,111.8z M74.6,113.8c-0.5,1.5-1,2.9-1.6,4.1l-1-0.5c0.6-1.3,1.2-2.7,1.6-4.1L74.6,113.8z
	 M74.7,108.7l-0.8,0.8c-0.5-0.5-1.1-1-1.9-1.6l0.8-0.8C73.6,107.6,74.2,108.2,74.7,108.7z M78.2,116.5c-0.7,0.6-1.6,1.2-2.7,1.7
	l-0.7-0.9c1-0.4,1.8-0.9,2.5-1.5L78.2,116.5z M81.1,110.7c-1.1,0.3-2.4,0.5-3.8,0.7v0.5h4.6v1H81v1.6h1.8v1.1H75v-1.1h1.2v-4
	c1.8-0.2,3.3-0.5,4.4-0.8L81.1,110.7z M82.4,110.3h-1.1v-1.2H76v1.3h-1V108h3.1c-0.1-0.3-0.3-0.6-0.4-0.9l1.2-0.2
	c0.1,0.3,0.3,0.7,0.4,1h3.2L82.4,110.3L82.4,110.3z M79.8,114.5v-1.6h-2.6v1.6H79.8z M82.7,117.2l-0.6,1c-0.8-0.7-1.7-1.2-2.6-1.6
	l0.6-0.8C81,116.1,81.9,116.6,82.7,117.2z M85.8,108.9v-1.1h9.3v1.1H91v7.6h4.6v1.1H85.2v-1.1h4.7v-7.6H85.8z M102.9,107.1v9.4h1.4
	v-9.4h1.1v9.4h3.5v1.1H98.2v-1.1h3.5v-9.4H102.9z M101.1,114.8l-1,0.3c-0.4-1.9-0.9-3.7-1.6-5.5l1-0.3
	C100.1,110.9,100.6,112.8,101.1,114.8z M108.7,109.7c-0.5,2.1-1,3.9-1.8,5.4l-1-0.4c0.7-1.4,1.3-3.2,1.8-5.3L108.7,109.7z
	 M116.1,110.1c0.1-0.6,0.1-1.3,0.1-2v-1h1.2v0.8c0,0.8,0,1.5-0.1,2.3h4.9v1.1h-4.6c0.8,2.6,2.5,4.5,4.8,5.9l-0.7,0.9
	c-2.3-1.4-3.9-3.4-4.8-5.9c-0.8,2.7-2.4,4.8-4.8,6l-0.7-1c2.5-1.2,4-3.2,4.7-6h-4.4v-1.1C111.7,110.1,116.1,110.1,116.1,110.1z
	 M135.2,112.3h-1.1v-1.8H126v1.8h-1.1v-2.9h2.2c-0.4-0.6-0.8-1.2-1.2-1.7l1-0.5c0.4,0.6,0.8,1.2,1.2,1.8l-0.8,0.4h4.5
	c0.5-0.7,0.9-1.5,1.3-2.4l1.2,0.4c-0.4,0.8-0.8,1.4-1.2,2h2.2L135.2,112.3L135.2,112.3z M133.2,111.2v1c-0.8,0.5-1.6,1-2.5,1.4v0.4
	h4.5v1.1h-4.5v1.8c0,0.7-0.4,1.1-1.1,1.1h-1.5l-0.3-1c0.4,0,0.9,0,1.4,0c0.3,0,0.4-0.2,0.4-0.5v-1.4h-4.7V114h4.7v-0.9
	c0.8-0.4,1.5-0.7,2-0.9h-4.8v-1H133.2z M130.8,108.9l-1,0.5c-0.4-0.7-0.7-1.4-1.2-2l1-0.5C130.1,107.5,130.5,108.2,130.8,108.9z"/>
<path class="st2" d="M60,127.2v-1.6h0.7v1.6h3.5v0.6h-2.9c0.6,1.4,1.7,2.7,3.2,3.8l-0.4,0.6c-1.6-1.3-2.7-2.8-3.3-4.4h-0.1v3.5h1.9
	v0.6h-1.9v1.8H60v-1.8h-1.9v-0.6H60v-3.5l0,0c-0.7,1.8-1.8,3.3-3.4,4.5l-0.4-0.6c1.5-1,2.6-2.3,3.3-3.9h-2.9v-0.6L60,127.2L60,127.2
	z M68,128.9h1c0.3-0.5,0.5-1,0.7-1.6l0.6,0.2c-0.2,0.5-0.4,1-0.6,1.4h1.1v0.6h-4.5v-0.6h1.2c-0.2-0.5-0.4-0.9-0.6-1.3l0.6-0.2
	C67.7,127.8,67.9,128.3,68,128.9z M68.2,126.4c-0.1-0.3-0.2-0.6-0.3-0.8l0.7-0.1c0.1,0.3,0.2,0.6,0.3,0.9h1.8v0.6h-4.3v-0.6H68.2z
	 M70.3,133.7h-0.6v-0.5h-2.3v0.5h-0.6v-3.4h3.6L70.3,133.7L70.3,133.7z M69.7,132.6v-1.7h-2.3v1.7H69.7z M74.1,125.9v0.5
	c-0.3,0.9-0.6,1.8-0.9,2.6c0.7,0.8,1,1.5,1,2.1s-0.1,0.9-0.4,1.2c-0.3,0.2-0.7,0.3-1.5,0.3l-0.2-0.7c0.3,0,0.5,0,0.6,0
	c0.3,0,0.5-0.1,0.6-0.2c0.1-0.1,0.1-0.3,0.1-0.7c0-0.5-0.4-1.2-1.1-2.1c0.3-0.7,0.6-1.6,0.9-2.5h-1.6v7.3H71v-7.9L74.1,125.9
	L74.1,125.9z M83.9,125.4c-0.4,0.6-0.6,1.2-0.9,1.9c-0.3,0.8-0.4,1.6-0.4,2.3c0,0.8,0.1,1.5,0.4,2.3c0.2,0.6,0.5,1.3,0.9,1.9h-0.6
	c-0.4-0.6-0.7-1.2-0.9-1.9c-0.3-0.8-0.4-1.6-0.4-2.3c0-0.8,0.1-1.6,0.4-2.4c0.2-0.7,0.5-1.3,0.9-1.9L83.9,125.4L83.9,125.4z
	 M94.1,125.9v0.6h-2.7v1.4h2.2v5.8H93v-0.4h-5.7v0.4h-0.6v-5.8h2.1v-1.4H86v-0.6C86,125.9,94.1,125.9,94.1,125.9z M92.9,132.7v-1.4
	h-1.3c-0.6,0-0.9-0.3-0.9-0.9v-1.9h-1.4v0.2c0,1.4-0.5,2.5-1.5,3.1l-0.5-0.4c0.9-0.6,1.3-1.4,1.4-2.7v-0.2h-1.5v4.2L92.9,132.7
	L92.9,132.7z M89.4,127.9h1.4v-1.4h-1.4V127.9z M91.3,130.3c0,0.3,0.1,0.4,0.4,0.4h1.1v-2.2h-1.5V130.3z M97.2,127.3v-1.7h0.7v1.7
	h0.9v0.6h-0.9v0.7c0.3,0.4,0.6,0.8,0.9,1.2c0.5-0.6,1-1.3,1.4-2.1l0.5,0.3c-0.4,0.9-0.9,1.6-1.5,2.3l-0.4-0.3l0.2,0.3l-0.4,0.5
	c-0.3-0.6-0.6-1.1-0.9-1.5v4.5H97v-4.6c-0.3,0.9-0.7,1.7-1.2,2.4l-0.3-0.7c0.7-0.9,1.2-1.8,1.4-3H96v-0.6
	C96,127.3,97.2,127.3,97.2,127.3z M102.9,129.4c-0.2,1-0.5,1.8-1,2.4c0.6,0.5,1.3,0.9,2.2,1.3l-0.3,0.6c-0.9-0.4-1.7-0.8-2.3-1.4
	c-0.6,0.7-1.4,1.1-2.4,1.4l-0.4-0.6c1-0.3,1.7-0.7,2.3-1.3c-0.6-0.7-0.9-1.5-1.1-2.4l0.6-0.2c0.1,0.8,0.4,1.4,0.9,2
	c0.4-0.6,0.7-1.3,0.8-2.1L102.9,129.4z M101.3,126.7c-0.2-0.4-0.3-0.8-0.5-1.1l0.7-0.1c0.2,0.4,0.4,0.8,0.5,1.3h2v0.6h-4.8v-0.6h2.1
	V126.7z M104.1,129.8l-0.5,0.4c-0.4-0.7-0.9-1.4-1.5-2.2l0.5-0.3C103.2,128.5,103.7,129.2,104.1,129.8z M113.6,125.9v0.6H107v6.3
	h6.8v0.6h-7.4v-7.5C106.4,125.9,113.6,125.9,113.6,125.9z M110.6,129.2c0.5-0.7,1-1.4,1.3-2.3l0.6,0.3c-0.4,0.9-0.9,1.7-1.4,2.4
	c0.7,0.6,1.3,1.3,1.9,1.9l-0.5,0.5c-0.5-0.6-1.1-1.3-1.8-1.9c-0.8,0.8-1.7,1.5-2.7,1.9l-0.4-0.6c1-0.4,1.9-1,2.6-1.8
	c-0.7-0.6-1.5-1.3-2.4-1.9l0.5-0.5C109.1,128,109.9,128.6,110.6,129.2z M116.6,125.4c0.4,0.6,0.7,1.2,0.9,1.9
	c0.3,0.8,0.4,1.6,0.4,2.4c0,0.8-0.1,1.6-0.4,2.3c-0.2,0.6-0.5,1.3-0.9,1.9H116c0.4-0.6,0.6-1.2,0.9-1.9c0.3-0.8,0.4-1.6,0.4-2.3
	c0-0.8-0.1-1.5-0.4-2.3c-0.2-0.6-0.5-1.3-0.9-1.9L116.6,125.4L116.6,125.4z"/>
<path class="st0" d="M213,86.4v-8.2c0-1.9-1.2-3.3-3-3.3s-3,1.4-3,3.3v8.2c0,1.9,1.2,3.5,3,3.5S213,88.2,213,86.4z M214.7,84.9v2
	c0,2.6-2.1,4.7-4.7,4.7c-2.6,0-4.7-2.1-4.7-4.7v-2H204v2c0,3.1,2,5.6,5,6v3h-2v1h6v-1h-2v-3c3-0.3,5-2.8,5-6v-2H214.7z"/>
<path class="st1" d="M201.4,63.3l-0.7,0.7c-0.4-0.5-1-1.1-1.7-1.7l0.7-0.7C200.3,62.2,200.9,62.8,201.4,63.3z M201.6,65
	c-0.5,1.4-1,2.7-1.6,3.9l-1-0.5c0.6-1.2,1.2-2.5,1.7-3.8L201.6,65z M201.6,60.7l-0.7,0.7c-0.4-0.5-1.1-1.1-1.8-1.7l0.7-0.7
	C200.5,59.6,201.1,60.2,201.6,60.7z M208.4,63.4h-1v-1.9h-1.7c0,0.6-0.1,1.2-0.2,1.7h1v4.3c0,0.2,0.1,0.3,0.4,0.3h0.8
	c0.1,0,0.2-0.1,0.3-0.2s0.2-0.7,0.2-1.6l0.9,0.3c-0.1,1.2-0.2,1.9-0.4,2.1s-0.5,0.3-0.8,0.3h-1.4c-0.7,0-1.1-0.4-1.1-1.1v-4.2
	c-0.6,2.5-1.8,4.3-3.6,5.5l-0.6-0.9c2.1-1.2,3.3-3.5,3.6-6.6H203v1.9h-1v-2.9h2.7c0-0.1,0-0.2,0-0.2v-1.4h1V60c0,0.2,0,0.3,0,0.5
	h2.7V63.4z M215.1,59.2V60c-0.4,0.9-0.8,1.9-1.2,3c0.7,1,1.1,1.9,1.2,2.6c0,0.5-0.1,0.9-0.3,1.1c-0.3,0.3-0.9,0.4-1.8,0.4l-0.3-1
	c0.2,0,0.4,0.1,0.6,0.1c0.3,0,0.6-0.1,0.7-0.1c0.1-0.1,0.2-0.2,0.2-0.4c0-0.7-0.4-1.6-1.2-2.5c0.5-1.1,0.9-2.1,1.2-3h-1.7V69h-1
	v-9.8H215.1z M220.7,69h-1v-0.8h-3.1V69h-1v-9.6h5.1V69z M219.7,63.3v-2.9h-3.1v2.9H219.7z M219.7,67.1v-2.9h-3.1v2.9H219.7z"/>
<path class="st1" d="M191.8,43.9c0.5,0.7,0.7,1.6,0.7,2.8c0,1.3-0.3,2.3-0.8,3.1s-1.3,1.2-2.2,1.2c-1.5,0-2.4-0.7-2.6-2.1h1.2
	c0.2,0.8,0.6,1.1,1.4,1.1c0.5,0,1-0.3,1.3-0.8s0.5-1.1,0.5-1.9v-0.1l0,0c-0.2,0.3-0.5,0.6-0.8,0.8s-0.7,0.2-1.1,0.2
	c-0.8,0-1.4-0.3-1.9-0.7c-0.5-0.5-0.7-1.1-0.7-1.9c0-0.8,0.3-1.4,0.8-1.9s1.2-0.8,2-0.8C190.5,42.9,191.2,43.2,191.8,43.9z
	 M188.4,44.3c-0.3,0.3-0.4,0.7-0.4,1.2s0.1,0.9,0.4,1.2c0.3,0.3,0.7,0.5,1.2,0.5s0.9-0.2,1.2-0.5s0.4-0.7,0.4-1.2s-0.2-0.9-0.4-1.2
	c-0.3-0.3-0.7-0.5-1.1-0.5C189.1,43.9,188.7,44,188.4,44.3z M196.3,52.1l-0.8-0.7c0.7-1,1-2.2,1.1-3.7v-5.4h6.6v8.6
	c0,0.7-0.4,1.1-1.1,1.1h-1.4l-0.3-1c0.5,0,0.9,0,1.4,0c0.2,0,0.4-0.2,0.4-0.4v-1.9h-4.5C197.4,50,197,51.1,196.3,52.1z M202.1,43.2
	h-4.5v1.7h4.5V43.2z M197.6,47.6h4.5v-1.7h-4.5V47.6z M211.4,43.5c0.5,0.4,0.7,1,0.7,1.7s-0.3,1.3-0.8,1.9c-0.3,0.3-0.8,0.7-1.6,1.3
	s-1.4,1.1-1.5,1.5h3.9V51h-5.4c0-0.8,0.3-1.5,0.8-2.1c0.3-0.3,0.9-0.8,1.8-1.4c0.5-0.4,0.9-0.7,1.1-0.9c0.4-0.4,0.5-0.8,0.5-1.3
	c0-0.4-0.1-0.8-0.4-1c-0.2-0.2-0.6-0.3-1.1-0.3s-0.9,0.2-1.1,0.5c-0.3,0.3-0.4,0.8-0.4,1.4h-1.2c0-0.9,0.3-1.6,0.8-2.1
	c0.5-0.6,1.2-0.8,2-0.8C210.3,42.9,210.9,43.1,211.4,43.5z M219.3,44c0.5,0.7,0.7,1.7,0.7,2.9s-0.2,2.2-0.7,2.9
	c-0.5,0.8-1.2,1.2-2.1,1.2s-1.6-0.4-2.1-1.2c-0.5-0.7-0.7-1.7-0.7-2.9s0.2-2.2,0.7-2.9c0.5-0.8,1.2-1.2,2.1-1.2S218.8,43.2,219.3,44
	z M215.8,44.9c-0.2,0.5-0.3,1.2-0.3,2s0.1,1.5,0.3,2c0.3,0.7,0.7,1.1,1.4,1.1c0.6,0,1.1-0.4,1.4-1.1c0.2-0.5,0.3-1.2,0.3-2
	s-0.1-1.5-0.3-2c-0.3-0.7-0.7-1.1-1.4-1.1C216.5,43.9,216.1,44.2,215.8,44.9z M230.7,51.9h-1v-0.8h-5V52h-1v-9.7h7.1v9.6H230.7z
	 M229.6,46.1v-2.8h-5v2.8H229.6z M229.6,50.2v-3.1h-5v3.1H229.6z"/>
<path class="st1" d="M176.7,140.4v6.4H176v-5.5c-0.4,0.4-0.9,0.7-1.5,0.9v-0.7c0.3-0.1,0.6-0.2,0.9-0.4c0.3-0.2,0.6-0.4,0.8-0.7
	H176.7z M182.8,140.8c0.3,0.3,0.5,0.7,0.5,1.2c0,0.3-0.1,0.6-0.2,0.9c-0.2,0.3-0.4,0.4-0.8,0.6l0,0c0.3,0.1,0.6,0.3,0.9,0.6
	c0.3,0.3,0.4,0.7,0.4,1.1c0,0.6-0.2,1-0.6,1.4c-0.4,0.4-1,0.5-1.7,0.5s-1.3-0.2-1.7-0.5s-0.6-0.8-0.6-1.4c0-0.4,0.1-0.8,0.4-1.1
	c0.2-0.3,0.5-0.5,0.9-0.6l0,0c-0.3-0.1-0.6-0.3-0.8-0.6c-0.2-0.2-0.2-0.5-0.2-0.9c0-0.5,0.2-0.9,0.5-1.2c0.4-0.4,0.9-0.5,1.6-0.5
	C181.9,140.3,182.4,140.5,182.8,140.8z M180,144.2c-0.3,0.2-0.4,0.5-0.4,0.9s0.1,0.7,0.4,0.9c0.3,0.2,0.7,0.4,1.2,0.4
	s0.9-0.1,1.2-0.4c0.3-0.2,0.4-0.5,0.4-0.9s-0.1-0.7-0.4-0.9c-0.3-0.3-0.7-0.4-1.2-0.4S180.3,143.9,180,144.2z M180.2,141.3
	c-0.2,0.2-0.3,0.5-0.3,0.8s0.1,0.6,0.3,0.8s0.6,0.4,1.1,0.4s0.9-0.1,1.1-0.4c0.2-0.2,0.3-0.5,0.3-0.8s-0.1-0.6-0.3-0.8
	c-0.3-0.2-0.6-0.4-1.1-0.4C180.8,140.9,180.4,141,180.2,141.3z M187.5,141.6c0.1,0.1,0.2,0.2,0.2,0.4s-0.1,0.3-0.2,0.4
	c-0.1,0.1-0.2,0.2-0.4,0.2s-0.3-0.1-0.4-0.2c-0.1-0.1-0.2-0.2-0.2-0.4s0-0.3,0.2-0.4c0.1-0.1,0.2-0.2,0.4-0.2
	S187.4,141.5,187.5,141.6z M187.5,144.9c0.1,0.1,0.2,0.2,0.2,0.4s-0.1,0.3-0.2,0.4c-0.1,0.1-0.2,0.2-0.4,0.2s-0.3-0.1-0.4-0.2
	c-0.1-0.1-0.2-0.2-0.2-0.4s0-0.3,0.2-0.4c0.1-0.1,0.2-0.2,0.4-0.2S187.4,144.7,187.5,144.9z M199,140.8c0.4,0.3,0.6,0.7,0.6,1.3
	c0,0.7-0.4,1.2-1.1,1.4c0.4,0.1,0.7,0.3,0.9,0.5c0.2,0.3,0.3,0.6,0.3,0.9c0,0.6-0.2,1.1-0.6,1.4c-0.4,0.4-1,0.6-1.6,0.6
	s-1.1-0.2-1.5-0.5c-0.5-0.4-0.7-0.9-0.8-1.6h0.7c0,0.5,0.2,0.9,0.5,1.2c0.3,0.2,0.6,0.3,1,0.3c0.5,0,0.8-0.1,1.1-0.4
	c0.3-0.3,0.4-0.6,0.4-0.9c0-0.4-0.1-0.7-0.4-0.9s-0.6-0.3-1-0.3H197v-0.6h0.5c0.4,0,0.8-0.1,1-0.3s0.3-0.5,0.3-0.8s-0.1-0.6-0.3-0.8
	s-0.6-0.3-1-0.3s-0.8,0.1-1,0.3c-0.3,0.2-0.4,0.6-0.4,1h-0.7c0.1-0.6,0.3-1.1,0.7-1.5s0.9-0.5,1.5-0.5S198.6,140.5,199,140.8z
	 M205.5,141.3c0.3,0.6,0.5,1.4,0.5,2.3s-0.2,1.7-0.5,2.3c-0.4,0.7-1,1-1.7,1c-0.8,0-1.4-0.3-1.7-1c-0.3-0.6-0.5-1.4-0.5-2.3
	s0.2-1.7,0.5-2.3c0.4-0.7,1-1,1.7-1S205.1,140.7,205.5,141.3z M202.5,141.9c-0.2,0.4-0.3,1-0.3,1.8c0,0.7,0.1,1.3,0.3,1.8
	c0.3,0.6,0.7,0.9,1.2,0.9s1-0.3,1.2-0.9c0.2-0.4,0.3-1,0.3-1.8s-0.1-1.4-0.3-1.8c-0.3-0.6-0.7-0.9-1.2-0.9S202.7,141.3,202.5,141.9z
	 M212.3,144.2v0.6h-4.5v-0.6H212.3z M217.9,140.8c0.4,0.3,0.6,0.8,0.6,1.4s-0.2,1.1-0.6,1.5c-0.2,0.2-0.7,0.6-1.3,1
	c-0.8,0.5-1.3,1-1.4,1.5h3.4v0.7h-4.3c0-0.6,0.2-1.1,0.6-1.6c0.3-0.3,0.7-0.7,1.4-1.1c0.5-0.4,0.8-0.6,1-0.8
	c0.3-0.4,0.5-0.7,0.5-1.2c0-0.4-0.1-0.7-0.4-0.9s-0.6-0.3-1-0.3s-0.8,0.1-1,0.5c-0.3,0.3-0.4,0.7-0.4,1.3h-0.7
	c0-0.7,0.2-1.3,0.6-1.7c0.4-0.4,0.9-0.6,1.6-0.6C217.1,140.3,217.5,140.5,217.9,140.8z M222.6,140.4v6.4h-0.7v-5.5
	c-0.4,0.4-0.9,0.7-1.5,0.9v-0.7c0.3-0.1,0.6-0.2,0.9-0.4c0.3-0.2,0.6-0.4,0.8-0.7H222.6z M227.1,141.6c0.1,0.1,0.2,0.2,0.2,0.4
	s-0.1,0.3-0.2,0.4c-0.1,0.1-0.2,0.2-0.4,0.2s-0.3-0.1-0.4-0.2c-0.1-0.1-0.2-0.2-0.2-0.4s0-0.3,0.2-0.4c0.1-0.1,0.2-0.2,0.4-0.2
	S227,141.5,227.1,141.6z M227.1,144.9c0.1,0.1,0.2,0.2,0.2,0.4s-0.1,0.3-0.2,0.4c-0.1,0.1-0.2,0.2-0.4,0.2s-0.3-0.1-0.4-0.2
	c-0.1-0.1-0.2-0.2-0.2-0.4s0-0.3,0.2-0.4c0.1-0.1,0.2-0.2,0.4-0.2S227,144.7,227.1,144.9z M238.6,140.8c0.4,0.3,0.6,0.7,0.6,1.3
	c0,0.7-0.4,1.2-1.1,1.4c0.4,0.1,0.7,0.3,0.9,0.5c0.2,0.3,0.3,0.6,0.3,0.9c0,0.6-0.2,1.1-0.6,1.4c-0.4,0.4-1,0.6-1.6,0.6
	s-1.1-0.2-1.5-0.5c-0.5-0.4-0.7-0.9-0.8-1.6h0.7c0,0.5,0.2,0.9,0.5,1.2c0.3,0.2,0.6,0.3,1,0.3c0.5,0,0.8-0.1,1.1-0.4
	c0.3-0.3,0.4-0.6,0.4-0.9c0-0.4-0.1-0.7-0.4-0.9s-0.6-0.3-1-0.3h-0.5v-0.6h0.5c0.4,0,0.8-0.1,1-0.3s0.3-0.5,0.3-0.8
	s-0.1-0.6-0.3-0.8s-0.6-0.3-1-0.3s-0.8,0.1-1,0.3c-0.3,0.2-0.4,0.6-0.4,1H235c0.1-0.6,0.3-1.1,0.7-1.5s0.9-0.5,1.5-0.5
	S238.3,140.5,238.6,140.8z M245.1,141.3c0.3,0.6,0.5,1.4,0.5,2.3s-0.2,1.7-0.5,2.3c-0.4,0.7-1,1-1.7,1c-0.8,0-1.4-0.3-1.7-1
	c-0.3-0.6-0.5-1.4-0.5-2.3s0.2-1.7,0.5-2.3c0.4-0.7,1-1,1.7-1S244.7,140.7,245.1,141.3z M242.1,141.9c-0.2,0.4-0.3,1-0.3,1.8
	c0,0.7,0.1,1.3,0.3,1.8c0.3,0.6,0.7,0.9,1.2,0.9s1-0.3,1.2-0.9c0.2-0.4,0.3-1,0.3-1.8s-0.1-1.4-0.3-1.8c-0.3-0.6-0.7-0.9-1.2-0.9
	S242.4,141.3,242.1,141.9z"/>
<path class="st2" d="M188.2,114.7c-0.8,1.1-1.7,2-2.9,2.8l-0.7-0.9c1.1-0.7,2-1.6,2.8-2.5L188.2,114.7z M187.9,108.4
	c0.2-0.5,0.4-1,0.6-1.5l1.1,0.3c-0.2,0.4-0.3,0.8-0.5,1.2h6v1.1h-6.5c-0.5,1-1.1,1.9-1.7,2.7h2.8v-1.6h1.1v1.6h3.7v1.1h-3.7v3.6
	c0,0.8-0.4,1.2-1.3,1.2h-1.2L188,117c0.4,0,0.8,0.1,1.1,0.1s0.5-0.2,0.5-0.4v-3.3h-4l-0.3-1c0.7-0.7,1.3-1.6,1.9-2.7H185v-1.1h2.9
	V108.4z M195.6,116.7l-0.8,0.8c-0.6-0.9-1.5-1.8-2.6-2.8l0.8-0.7C193.9,114.9,194.8,115.8,195.6,116.7z M202.3,107.1V118h-1.2v-1.9
	c-0.9,0.4-1.9,0.8-3,1.1l-0.3-1.1c1.1-0.2,2.2-0.6,3.3-1.1v-3.6h-3v-1.1h3v-3.2C201.1,107.1,202.3,107.1,202.3,107.1z M205.3,117.9
	c-0.9,0-1.3-0.5-1.3-1.3v-9.5h1.1v3.9c1-0.4,1.9-0.9,2.8-1.5l0.7,0.9c-1.2,0.7-2.4,1.3-3.5,1.6v4.4c0,0.3,0.1,0.5,0.4,0.5h1.4
	c0.2,0,0.4-0.1,0.5-0.3c0.1-0.2,0.1-0.9,0.2-2l1.1,0.3c-0.1,1.4-0.2,2.3-0.4,2.6c-0.2,0.3-0.6,0.4-1.1,0.4H205.3z M215.8,110.1
	c0.1-0.6,0.1-1.3,0.1-2v-1h1.2v0.8c0,0.8,0,1.5-0.1,2.3h4.9v1.1h-4.6c0.8,2.6,2.5,4.5,4.8,5.9l-0.7,0.9c-2.3-1.4-3.9-3.4-4.8-5.9
	c-0.8,2.7-2.4,4.8-4.8,6l-0.7-1c2.5-1.2,4-3.2,4.7-6h-4.4v-1.1C211.4,110.1,215.8,110.1,215.8,110.1z M234.9,112.3h-1.1v-1.8h-8.1
	v1.8h-1.1v-2.9h2.2c-0.4-0.6-0.8-1.2-1.2-1.7l1-0.5c0.4,0.6,0.8,1.2,1.2,1.8l-0.8,0.4h4.5c0.5-0.7,0.9-1.5,1.3-2.4l1.2,0.4
	c-0.4,0.8-0.8,1.4-1.2,2h2.2L234.9,112.3L234.9,112.3z M232.9,111.2v1c-0.8,0.5-1.6,1-2.5,1.4v0.4h4.5v1.1h-4.5v1.8
	c0,0.7-0.4,1.1-1.1,1.1h-1.5l-0.3-1c0.4,0,0.9,0,1.4,0c0.3,0,0.4-0.2,0.4-0.5v-1.4h-4.7V114h4.7v-0.9c0.8-0.4,1.5-0.7,2-0.9h-4.8v-1
	H232.9z M230.5,108.9l-1,0.5c-0.4-0.7-0.7-1.4-1.2-2l1-0.5C229.8,107.5,230.2,108.2,230.5,108.9z"/>
<path class="st2" d="M192.8,129.1l-0.5,0.5c-0.4-0.4-0.9-0.9-1.6-1.4l0.5-0.4C191.8,128.2,192.3,128.7,192.8,129.1z M193,130.5
	c-0.5,1.1-0.9,2.2-1.5,3.2l-0.6-0.3c0.6-1,1.1-2.1,1.6-3.2L193,130.5z M193.1,127l-0.5,0.5c-0.4-0.4-1-0.9-1.7-1.4l0.5-0.4
	C192.1,126.1,192.6,126.6,193.1,127z M195.8,126.9c-0.1,0.3-0.2,0.6-0.3,0.9h3v0.6h-3.3c-0.3,0.6-0.6,1.1-0.9,1.5h1.5v-1.1h0.6v1.1
	h1.9v0.6h-1.9v1.1h2.3v0.6h-2.3v1.6h-0.6v-1.6h-2.6v-0.6h2.6v-1.1h-2.1l-0.1-0.5c0.4-0.4,0.7-1,1-1.6h-1.1v-0.6h1.4
	c0.1-0.3,0.3-0.7,0.4-1L195.8,126.9z M198.6,127.4H198v-1h-4v1h-0.6v-1.5h5.2L198.6,127.4L198.6,127.4z M204.3,126.4l0.1-0.9
	l0.7,0.1c0,0.3-0.1,0.5-0.1,0.8h3.6v0.6h-3.7c-0.1,0.3-0.1,0.6-0.2,0.9h3.4v5c0,0.6-0.3,0.9-0.8,0.9h-0.9l-0.2-0.6h0.8
	c0.3,0,0.4-0.1,0.4-0.4v-4.2h-5.8v5.3H201V128h3c0.1-0.3,0.1-0.6,0.2-0.9h-3.6v-0.6L204.3,126.4L204.3,126.4z M204.1,129.9h0.9
	c0.2-0.4,0.4-0.8,0.5-1.2l0.6,0.2c-0.2,0.4-0.3,0.7-0.5,1h1v0.6h-1.8v0.9h2.1v0.6h-2.1v1.6h-0.6V132h-2.1v-0.6h2.1v-0.9h-1.8v-0.6h1
	c-0.1-0.3-0.3-0.6-0.5-0.9l0.6-0.2C203.8,129.1,204,129.5,204.1,129.9z M211.8,127.3v-1.7h0.7v1.7h0.9v0.6h-0.9v0.7
	c0.3,0.4,0.6,0.8,0.9,1.2c0.5-0.6,1-1.3,1.4-2.1l0.5,0.3c-0.4,0.9-0.9,1.6-1.5,2.3l-0.4-0.3l0.2,0.3l-0.4,0.5
	c-0.3-0.6-0.6-1.1-0.9-1.5v4.5h-0.7v-4.6c-0.3,0.9-0.7,1.7-1.2,2.4l-0.3-0.7c0.7-0.9,1.2-1.8,1.4-3h-1.2v-0.6
	C210.3,127.3,211.8,127.3,211.8,127.3z M217.4,129.4c-0.2,1-0.5,1.8-1,2.4c0.6,0.5,1.3,0.9,2.2,1.3l-0.3,0.6
	c-0.9-0.4-1.7-0.8-2.3-1.4c-0.6,0.7-1.4,1.1-2.4,1.4l-0.4-0.6c1-0.3,1.7-0.7,2.3-1.3c-0.6-0.7-0.9-1.5-1.1-2.4l0.6-0.2
	c0.1,0.8,0.4,1.4,0.9,2c0.4-0.6,0.7-1.3,0.8-2.1L217.4,129.4z M215.8,126.7c-0.2-0.4-0.3-0.8-0.5-1.1l0.7-0.1
	c0.2,0.4,0.4,0.8,0.5,1.3h2v0.6h-4.8v-0.6h2.1V126.7z M218.6,129.8l-0.5,0.4c-0.4-0.7-0.9-1.4-1.5-2.2l0.5-0.3
	C217.7,128.5,218.2,129.2,218.6,129.8z M228.1,125.9v0.6h-6.5v6.3h6.8v0.6H221v-7.5C221,125.9,228.1,125.9,228.1,125.9z
	 M225.2,129.2c0.5-0.7,1-1.4,1.3-2.3l0.6,0.3c-0.4,0.9-0.9,1.7-1.4,2.4c0.7,0.6,1.3,1.3,1.9,1.9l-0.5,0.5c-0.5-0.6-1.1-1.3-1.8-1.9
	c-0.8,0.8-1.7,1.5-2.7,1.9l-0.4-0.6c1-0.4,1.9-1,2.6-1.8c-0.7-0.6-1.5-1.3-2.4-1.9l0.5-0.5C223.7,128,224.5,128.6,225.2,129.2z"/>
<path class="st0" d="M94,234.4v-8.2c0-1.9-1.2-3.3-3-3.3s-3,1.4-3,3.3v8.2c0,1.9,1.2,3.5,3,3.5S94,236.2,94,234.4z M95.7,232.9v2
	c0,2.6-2.1,4.7-4.7,4.7s-4.7-2.1-4.7-4.7v-2H85v2c0,3.1,2,5.6,5,6v3h-2v1h6v-1h-2v-3c3-0.3,5-2.8,5-6v-2H95.7z"/>
<g>
	<path class="st1" d="M202.8,205.9v10h-1.1v-1.7c-0.9,0.4-1.8,0.7-2.8,1l-0.3-1c1-0.2,2-0.6,3-1v-3.3h-2.8v-1h2.8v-3H202.8z
		 M205.6,215.8c-0.8,0-1.2-0.4-1.2-1.2v-8.7h1v3.6c0.9-0.3,1.8-0.8,2.6-1.4l0.6,0.8c-1.1,0.7-2.2,1.2-3.2,1.5v4
		c0,0.3,0.1,0.4,0.4,0.4h1.3c0.2,0,0.4-0.1,0.5-0.3c0.1-0.2,0.1-0.8,0.2-1.8l1,0.3c-0.1,1.3-0.2,2.1-0.4,2.3c-0.2,0.3-0.5,0.4-1,0.4
		L205.6,215.8L205.6,215.8z M213.9,213.3c-0.7,1-1.5,1.8-2.5,2.5l-0.7-0.8c1-0.7,1.8-1.4,2.4-2.3L213.9,213.3z M216.2,207h4.4v1
		h-9.8v-1h4.3c-0.1-0.4-0.3-0.7-0.4-1l1.1-0.2C215.9,206.1,216.1,206.5,216.2,207z M219.3,208.8v3.3h-3.1v2.8c0,0.7-0.4,1.1-1.1,1.1
		h-1.2l-0.2-1c0.4,0,0.7,0.1,1.1,0.1c0.3,0,0.4-0.1,0.4-0.4v-2.5h-3.1v-3.3h7.2V208.8z M218.3,209.8h-5.2v1.3h5.2V209.8z M220.6,215
		l-0.8,0.8c-0.6-0.8-1.4-1.6-2.4-2.5l0.7-0.7C219.2,213.4,220.1,214.2,220.6,215z"/>
	<path class="st1" d="M193.6,190.9c0.5,0.7,0.7,1.6,0.7,2.8c0,1.3-0.3,2.3-0.8,3.1s-1.3,1.2-2.2,1.2c-1.5,0-2.4-0.7-2.6-2.1h1.2
		c0.2,0.8,0.6,1.1,1.4,1.1c0.5,0,1-0.3,1.3-0.8s0.5-1.1,0.5-1.9v-0.1l0,0c-0.2,0.3-0.5,0.6-0.8,0.8s-0.7,0.2-1.1,0.2
		c-0.8,0-1.4-0.3-1.9-0.7c-0.5-0.5-0.7-1.1-0.7-1.9c0-0.8,0.3-1.4,0.8-1.9s1.2-0.8,2-0.8C192.3,189.9,193.1,190.2,193.6,190.9z
		 M190.2,191.3c-0.3,0.3-0.4,0.7-0.4,1.2s0.1,0.9,0.4,1.2s0.7,0.5,1.2,0.5s0.9-0.2,1.2-0.5c0.3-0.3,0.4-0.7,0.4-1.2
		s-0.2-0.9-0.4-1.2c-0.3-0.3-0.7-0.5-1.1-0.5C190.9,190.9,190.6,191,190.2,191.3z M198.1,199.1l-0.8-0.7c0.7-1,1-2.2,1.1-3.7v-5.4
		h6.6v8.6c0,0.7-0.4,1.1-1.1,1.1h-1.4l-0.3-1c0.5,0,0.9,0,1.4,0c0.2,0,0.4-0.2,0.4-0.4v-1.9h-4.5C199.2,197,198.8,198.1,198.1,199.1
		z M203.8,190.2h-4.5v1.7h4.5V190.2z M199.4,194.6h4.5v-1.7h-4.5V194.6z M213.2,190.5c0.5,0.4,0.7,1,0.7,1.7s-0.3,1.3-0.8,1.9
		c-0.3,0.3-0.8,0.7-1.6,1.3s-1.4,1.1-1.5,1.5h3.9v1.1h-5.4c0-0.8,0.3-1.5,0.8-2.1c0.3-0.3,0.9-0.8,1.8-1.4c0.5-0.4,0.9-0.7,1.1-0.9
		c0.4-0.4,0.5-0.8,0.5-1.3c0-0.4-0.1-0.8-0.4-1c-0.2-0.2-0.6-0.3-1.1-0.3s-0.9,0.2-1.1,0.5c-0.3,0.3-0.4,0.8-0.4,1.4h-1.2
		c0-0.9,0.3-1.6,0.8-2.1c0.5-0.6,1.2-0.8,2-0.8C212.1,189.9,212.8,190.1,213.2,190.5z M219.1,190v7.9h-1.2v-6.4
		c-0.5,0.5-1.1,0.8-1.8,1v-1.2c0.4-0.1,0.7-0.2,1.1-0.5c0.4-0.2,0.7-0.5,1-0.8H219.1z M230.3,198.9h-1v-0.8h-5v0.8h-1v-9.7h7.1v9.7
		H230.3z M229.3,193.1v-2.8h-5v2.8H229.3z M229.3,197.2v-3.1h-5v3.1H229.3z"/>
	<path class="st1" d="M176.9,287.4v6.4h-0.7v-5.5c-0.4,0.4-0.9,0.7-1.5,0.9v-0.7c0.3-0.1,0.6-0.2,0.9-0.4c0.3-0.2,0.6-0.4,0.8-0.7
		L176.9,287.4L176.9,287.4z M183,287.8c0.3,0.3,0.5,0.7,0.5,1.2c0,0.3-0.1,0.6-0.2,0.9c-0.2,0.3-0.4,0.4-0.8,0.6l0,0
		c0.3,0.1,0.6,0.3,0.9,0.6c0.3,0.3,0.4,0.7,0.4,1.1c0,0.6-0.2,1-0.6,1.4c-0.4,0.4-1,0.5-1.7,0.5c-0.7,0-1.3-0.2-1.7-0.5
		c-0.4-0.3-0.6-0.8-0.6-1.4c0-0.4,0.1-0.8,0.4-1.1c0.2-0.3,0.5-0.5,0.9-0.6l0,0c-0.3-0.1-0.6-0.3-0.8-0.6c-0.2-0.2-0.2-0.5-0.2-0.9
		c0-0.5,0.2-0.9,0.5-1.2c0.4-0.4,0.9-0.5,1.6-0.5C182.1,287.3,182.6,287.5,183,287.8z M180.2,291.2c-0.3,0.2-0.4,0.5-0.4,0.9
		s0.1,0.7,0.4,0.9c0.3,0.2,0.7,0.4,1.2,0.4s0.9-0.1,1.2-0.4c0.3-0.2,0.4-0.5,0.4-0.9s-0.1-0.7-0.4-0.9c-0.3-0.3-0.7-0.4-1.2-0.4
		C180.9,290.8,180.5,290.9,180.2,291.2z M180.4,288.3c-0.2,0.2-0.3,0.5-0.3,0.8s0.1,0.6,0.3,0.8c0.2,0.2,0.6,0.4,1.1,0.4
		s0.9-0.1,1.1-0.4c0.2-0.2,0.3-0.5,0.3-0.8s-0.1-0.6-0.3-0.8c-0.3-0.2-0.6-0.4-1.1-0.4S180.6,288,180.4,288.3z M187.8,288.6
		c0.1,0.1,0.2,0.2,0.2,0.4c0,0.2-0.1,0.3-0.2,0.4c-0.1,0.1-0.2,0.2-0.4,0.2c-0.2,0-0.3-0.1-0.4-0.2c-0.1-0.1-0.2-0.2-0.2-0.4
		s0-0.3,0.2-0.4c0.1-0.1,0.2-0.2,0.4-0.2C187.6,288.4,187.6,288.5,187.8,288.6z M187.8,291.9c0.1,0.1,0.2,0.2,0.2,0.4
		c0,0.2-0.1,0.3-0.2,0.4c-0.1,0.1-0.2,0.2-0.4,0.2c-0.2,0-0.3-0.1-0.4-0.2c-0.1-0.1-0.2-0.2-0.2-0.4s0-0.3,0.2-0.4
		c0.1-0.1,0.2-0.2,0.4-0.2C187.6,291.7,187.6,291.7,187.8,291.9z M199.2,287.8c0.4,0.3,0.6,0.7,0.6,1.3c0,0.7-0.4,1.2-1.1,1.4
		c0.4,0.1,0.7,0.3,0.9,0.5c0.2,0.3,0.3,0.6,0.3,0.9c0,0.6-0.2,1.1-0.6,1.4c-0.4,0.4-1,0.6-1.6,0.6c-0.6,0-1.1-0.2-1.5-0.5
		c-0.5-0.4-0.7-0.9-0.8-1.6h0.7c0,0.5,0.2,0.9,0.5,1.2c0.3,0.2,0.6,0.3,1,0.3c0.5,0,0.8-0.1,1.1-0.4s0.4-0.6,0.4-0.9
		c0-0.4-0.1-0.7-0.4-0.9s-0.6-0.3-1-0.3h-0.5v-0.6h0.5c0.4,0,0.8-0.1,1-0.3c0.2-0.2,0.3-0.5,0.3-0.8s-0.1-0.6-0.3-0.8
		c-0.2-0.2-0.6-0.3-1-0.3c-0.4,0-0.8,0.1-1,0.3c-0.3,0.2-0.4,0.6-0.4,1h-0.7c0.1-0.6,0.3-1.1,0.7-1.5c0.4-0.4,0.9-0.5,1.5-0.5
		C198.4,287.3,198.8,287.5,199.2,287.8z M205.8,288.3c0.3,0.6,0.5,1.4,0.5,2.3s-0.2,1.7-0.5,2.3c-0.4,0.7-1,1-1.7,1
		c-0.8,0-1.4-0.3-1.7-1c-0.3-0.6-0.5-1.4-0.5-2.3s0.2-1.7,0.5-2.3c0.4-0.7,1-1,1.7-1S205.3,287.7,205.8,288.3z M202.8,288.9
		c-0.2,0.4-0.3,1-0.3,1.8c0,0.7,0.1,1.3,0.3,1.8c0.3,0.6,0.7,0.9,1.2,0.9s1-0.3,1.2-0.9c0.2-0.4,0.3-1,0.3-1.8s-0.1-1.4-0.3-1.8
		c-0.3-0.6-0.7-0.9-1.2-0.9S202.9,288.3,202.8,288.9z M212.6,291.2v0.6h-4.5v-0.6H212.6z M218.1,287.8c0.4,0.3,0.6,0.8,0.6,1.4
		s-0.2,1.1-0.6,1.5c-0.2,0.2-0.7,0.6-1.3,1c-0.8,0.5-1.3,1-1.4,1.5h3.3v0.7h-4.3c0-0.6,0.2-1.1,0.6-1.6c0.3-0.3,0.7-0.7,1.4-1.1
		c0.5-0.4,0.8-0.6,1-0.8c0.3-0.4,0.5-0.7,0.5-1.2c0-0.4-0.1-0.7-0.4-0.9s-0.6-0.3-1-0.3c-0.4,0-0.8,0.1-1,0.5
		c-0.3,0.3-0.4,0.7-0.4,1.3h-0.7c0-0.7,0.2-1.3,0.6-1.7c0.4-0.4,0.9-0.6,1.6-0.6C217.3,287.3,217.8,287.5,218.1,287.8z M222.8,287.4
		v6.4h-0.7v-5.5c-0.4,0.4-0.9,0.7-1.5,0.9v-0.7c0.3-0.1,0.6-0.2,0.9-0.4c0.3-0.2,0.6-0.4,0.8-0.7L222.8,287.4L222.8,287.4z
		 M227.3,288.6c0.1,0.1,0.2,0.2,0.2,0.4c0,0.2-0.1,0.3-0.2,0.4c-0.1,0.1-0.2,0.2-0.4,0.2c-0.2,0-0.3-0.1-0.4-0.2
		c-0.1-0.1-0.2-0.2-0.2-0.4s0-0.3,0.2-0.4c0.1-0.1,0.2-0.2,0.4-0.2C227.1,288.4,227.2,288.5,227.3,288.6z M227.3,291.9
		c0.1,0.1,0.2,0.2,0.2,0.4c0,0.2-0.1,0.3-0.2,0.4c-0.1,0.1-0.2,0.2-0.4,0.2c-0.2,0-0.3-0.1-0.4-0.2c-0.1-0.1-0.2-0.2-0.2-0.4
		s0-0.3,0.2-0.4c0.1-0.1,0.2-0.2,0.4-0.2C227.1,291.7,227.2,291.7,227.3,291.9z M238.8,287.8c0.4,0.3,0.6,0.7,0.6,1.3
		c0,0.7-0.4,1.2-1.1,1.4c0.4,0.1,0.7,0.3,0.9,0.5c0.2,0.3,0.3,0.6,0.3,0.9c0,0.6-0.2,1.1-0.6,1.4c-0.4,0.4-1,0.6-1.6,0.6
		c-0.6,0-1.1-0.2-1.5-0.5c-0.5-0.4-0.7-0.9-0.8-1.6h0.7c0,0.5,0.2,0.9,0.5,1.2c0.3,0.2,0.6,0.3,1,0.3c0.5,0,0.8-0.1,1.1-0.4
		c0.3-0.3,0.4-0.6,0.4-0.9c0-0.4-0.1-0.7-0.4-0.9s-0.6-0.3-1-0.3h-0.5v-0.6h0.5c0.4,0,0.8-0.1,1-0.3c0.2-0.2,0.3-0.5,0.3-0.8
		s-0.1-0.6-0.3-0.8c-0.2-0.2-0.6-0.3-1-0.3c-0.4,0-0.8,0.1-1,0.3c-0.3,0.2-0.4,0.6-0.4,1h-0.7c0.1-0.6,0.3-1.1,0.7-1.5
		s0.9-0.5,1.5-0.5C238,287.3,238.6,287.5,238.8,287.8z M245.3,288.3c0.3,0.6,0.5,1.4,0.5,2.3s-0.2,1.7-0.5,2.3c-0.4,0.7-1,1-1.7,1
		c-0.8,0-1.4-0.3-1.7-1c-0.3-0.6-0.5-1.4-0.5-2.3s0.2-1.7,0.5-2.3c0.4-0.7,1-1,1.7-1S244.9,287.7,245.3,288.3z M242.3,288.9
		c-0.2,0.4-0.3,1-0.3,1.8c0,0.7,0.1,1.3,0.3,1.8c0.3,0.6,0.7,0.9,1.2,0.9s1-0.3,1.2-0.9c0.2-0.4,0.3-1,0.3-1.8s-0.1-1.4-0.3-1.8
		c-0.3-0.6-0.7-0.9-1.2-0.9S242.6,288.3,242.3,288.9z"/>
	<path class="st2" d="M176.1,254.1V265h-1.2v-1.9c-0.9,0.4-1.9,0.8-3,1.1l-0.3-1.1c1.1-0.2,2.2-0.6,3.3-1.1v-3.6h-3v-1.1h3v-3.2
		L176.1,254.1L176.1,254.1z M179.1,264.9c-0.9,0-1.3-0.5-1.3-1.3v-9.5h1.1v3.9c1-0.4,1.9-0.9,2.8-1.5l0.7,0.9
		c-1.2,0.7-2.4,1.3-3.5,1.6v4.4c0,0.3,0.1,0.5,0.4,0.5h1.4c0.2,0,0.4-0.1,0.5-0.3c0.1-0.2,0.1-0.9,0.2-2l1.1,0.3
		c-0.1,1.4-0.2,2.3-0.4,2.6c-0.2,0.3-0.6,0.4-1.1,0.4H179.1z M188.3,262.1c-0.7,1-1.7,2-2.7,2.7l-0.7-0.9c1.1-0.7,1.9-1.6,2.7-2.5
		L188.3,262.1z M190.8,255.2h4.8v1.1h-10.7v-1.1h4.7c-0.1-0.4-0.3-0.7-0.5-1l1.2-0.2C190.6,254.4,190.6,254.8,190.8,255.2z
		 M194.3,257.2v3.6H191v3c0,0.8-0.4,1.2-1.2,1.2h-1.3l-0.3-1.1c0.4,0,0.8,0.1,1.2,0.1c0.3,0,0.5-0.2,0.5-0.4v-2.7h-3.4v-3.6h7.8
		V257.2z M193.1,258.3h-5.6v1.4h5.6V258.3z M195.8,264l-0.8,0.8c-0.6-0.8-1.5-1.7-2.6-2.7l0.8-0.7
		C194.1,262.3,195.1,263.1,195.8,264z M203.8,264.6h-1.1v-0.7h-3.3v0.7h-1.1v-8.9h2.1V254h1.1v1.7h2.1v8.9H203.8z M200.6,259.2v-2.5
		h-1.1v2.5H200.6z M200.6,262.9v-2.7h-1.1v2.7H200.6z M201.6,259.2h1.1v-2.5h-1.1V259.2z M202.8,262.9v-2.7h-1.1v2.7H202.8z
		 M208.8,254.6v0.8c-0.4,1.2-0.7,2.4-1.2,3.4c0.8,1.2,1.3,2.2,1.3,2.9c0,0.7-0.2,1.2-0.5,1.4c-0.3,0.3-1,0.4-1.9,0.4l-0.3-1.2
		c0.4,0,0.7,0.1,1,0.1s0.4-0.1,0.5-0.2c0.1-0.1,0.1-0.3,0.1-0.6c0-0.7-0.5-1.7-1.3-2.9c0.4-0.9,0.8-2,1.1-3.2h-1.8v9.5h-1.1v-10.5
		h4.1V254.6z M213.3,261.8v0.9h-1.1v-7.1h3.8v-1.5h1.1v1.5h3.9v6.2h-3.9v1.2c0,0.6,0.3,0.9,0.8,0.9h2.6c0.2,0,0.4-0.1,0.6-0.2
		c0.1-0.1,0.2-0.6,0.2-1.3l1.1,0.4c-0.1,1-0.2,1.7-0.4,1.9c-0.2,0.2-0.6,0.3-1.2,0.3h-3.1c-1.1,0-1.6-0.6-1.6-1.8v-1.4H213.3z
		 M213.3,256.7v1.5h2.7v-1.5H213.3z M213.3,260.7h2.7v-1.5h-2.7V260.7z M219.8,256.7h-2.7v1.5h2.7V256.7z M219.8,260.7v-1.5h-2.7
		v1.5H219.8z M229.2,257.1c0.1-0.6,0.1-1.3,0.1-2v-1h1.2v0.8c0,0.8,0,1.5-0.1,2.3h4.9v1.1h-4.6c0.8,2.6,2.5,4.5,4.8,5.9l-0.7,0.9
		c-2.3-1.4-3.9-3.4-4.8-5.9c-0.8,2.7-2.4,4.8-4.8,6l-0.7-1c2.5-1.2,4-3.2,4.7-6h-4.4v-1.1H229.2z M248.4,259.3h-1.1v-1.8h-8.1v1.8
		h-1.1v-2.9h2.2c-0.4-0.6-0.8-1.2-1.2-1.7l1-0.5c0.4,0.6,0.8,1.2,1.2,1.8l-0.8,0.4h4.5c0.5-0.7,0.9-1.5,1.3-2.4l1.2,0.4
		c-0.4,0.8-0.8,1.4-1.2,2h2.2v2.9H248.4z M246.3,258.2v1c-0.8,0.5-1.6,1-2.5,1.4v0.4h4.5v1.1h-4.5v1.8c0,0.7-0.4,1.1-1.1,1.1h-1.5
		l-0.3-1c0.4,0,0.9,0,1.4,0c0.3,0,0.4-0.2,0.4-0.5v-1.4h-4.7V261h4.7v-0.9c0.8-0.4,1.5-0.7,2-0.9h-4.8v-1H246.3z M243.9,255.9
		l-1,0.5c-0.4-0.7-0.7-1.4-1.2-2l1-0.5C243.2,254.5,243.6,255.2,243.9,255.9z"/>
	<path class="st2" d="M204.6,274.2v-1.6h0.7v1.6h3.5v0.6h-3c0.6,1.4,1.7,2.7,3.2,3.8l-0.4,0.6c-1.6-1.3-2.7-2.8-3.3-4.4h-0.1v3.5
		h1.9v0.6h-1.9v1.8h-0.7v-1.8h-1.9v-0.6h1.9v-3.5h-0.1c-0.7,1.8-1.8,3.3-3.4,4.5l-0.4-0.6c1.5-1,2.6-2.3,3.3-3.9h-2.9v-0.6H204.6z
		 M212.6,275.9h0.9c0.3-0.5,0.5-1,0.7-1.6l0.6,0.2c-0.2,0.5-0.4,1-0.6,1.4h1.1v0.6h-4.5v-0.6h1.2c-0.2-0.5-0.4-0.9-0.6-1.3l0.6-0.2
		C212.1,274.8,212.3,275.3,212.6,275.9z M212.6,273.4c-0.1-0.3-0.2-0.6-0.3-0.8l0.7-0.1c0.1,0.3,0.2,0.6,0.3,0.9h1.8v0.6h-4.3v-0.6
		H212.6z M214.8,280.7h-0.6v-0.5h-2.3v0.5h-0.6v-3.4h3.6v3.4H214.8z M214.1,279.6v-1.7h-2.3v1.7H214.1z M218.6,272.9v0.5
		c-0.3,0.9-0.6,1.8-0.9,2.6c0.7,0.8,1,1.5,1,2.1s-0.1,0.9-0.4,1.2c-0.3,0.2-0.7,0.3-1.5,0.3l-0.2-0.7c0.3,0,0.5,0,0.6,0
		c0.3,0,0.5-0.1,0.6-0.2c0.1-0.1,0.1-0.3,0.1-0.7c0-0.5-0.4-1.2-1.1-2.1c0.3-0.7,0.6-1.6,0.9-2.5h-1.6v7.3h-0.6v-7.9h3.1V272.9z"/>
</g>
<path class="st0" d="M213.5,382.4v-8.2c0-1.9-1.4-3.3-3.5-3.3s-3.5,1.4-3.5,3.3v8.2c0,1.9,1.4,3.5,3.5,3.5S213.5,384.2,213.5,382.4z
	 M215.4,380.9v2c0,2.6-2.4,4.7-5.4,4.7s-5.4-2.1-5.4-4.7v-2H203v2c0,3.1,2.3,5.6,5.8,6v3h-2.3v1h7v-1h-2.3v-3c3.5-0.3,5.8-2.8,5.8-6
	v-2H215.4z"/>
<path class="st1" d="M208.6,355h-8v3.7c0,2.2-0.4,3.9-1.2,5.2l-0.8-0.7c0.6-1.1,0.9-2.6,0.9-4.6V354h9v1H208.6z M208.3,355.5v0.8
	h-3.2c0,0.1-0.1,0.3-0.2,0.4h2.7v3.8h-3.8c-0.1,0.2-0.2,0.3-0.4,0.4h3.9v0.6c-0.3,0.4-0.8,0.8-1.3,1.1c0.9,0.2,1.8,0.3,2.9,0.3
	l-0.2,0.9c-1.4-0.1-2.7-0.3-3.8-0.6c-1.1,0.4-2.5,0.6-4.2,0.6l-0.4-0.8c1.2,0,2.3-0.1,3.2-0.3c-0.5-0.2-1-0.5-1.4-0.8
	c-0.4,0.2-0.7,0.4-1.1,0.5l-0.6-0.8c0.9-0.2,1.7-0.6,2.3-1.2h-1v-3.8h2.1c0.1-0.1,0.1-0.3,0.2-0.4h-3v-0.8L208.3,355.5L208.3,355.5z
	 M206.8,357.8v-0.4h-4v0.4H206.8z M206.8,358.8v-0.4h-4v0.4H206.8z M206.8,359.4h-4v0.4h4V359.4z M206.3,361.7h-3
	c0.5,0.3,1.1,0.6,1.8,0.7C205.5,362.2,205.9,362,206.3,361.7z M212.5,355.7v8.3h-1v-8.3H212.5z M214.6,355.7l-0.9,0.5
	c-0.4-0.8-0.9-1.4-1.4-2l0.9-0.4C213.8,354.3,214.3,355,214.6,355.7z M218.4,363.9l-0.3-1h1c0.3,0,0.4-0.2,0.4-0.6v-7.1h-4.1v-1h5.1
	v8.3c0,0.8-0.4,1.3-1.2,1.3h-0.9V363.9z"/>
<path class="st1" d="M188.1,338v7.9h-1.2v-6.4c-0.5,0.5-1.1,0.8-1.8,1v-1.2c0.4-0.1,0.7-0.2,1.1-0.5c0.4-0.2,0.7-0.5,1-0.8H188.1z
	 M195.6,339c0.5,0.7,0.7,1.7,0.7,2.9c0,1.2-0.2,2.2-0.7,2.9c-0.5,0.8-1.2,1.2-2.1,1.2s-1.6-0.4-2.1-1.2c-0.5-0.7-0.7-1.7-0.7-2.9
	c0-1.2,0.2-2.2,0.7-2.9c0.5-0.8,1.2-1.2,2.1-1.2S195.1,338.2,195.6,339z M192.1,339.9c-0.2,0.5-0.3,1.2-0.3,2s0.1,1.5,0.3,2
	c0.3,0.7,0.7,1.1,1.4,1.1c0.6,0,1.1-0.4,1.4-1.1c0.2-0.5,0.3-1.2,0.3-2s-0.1-1.5-0.3-2c-0.3-0.7-0.7-1.1-1.4-1.1
	C192.9,338.9,192.4,339.2,192.1,339.9z M200.2,347.1l-0.8-0.7c0.7-1,1-2.2,1.1-3.7v-5.4h6.6v8.6c0,0.7-0.4,1.1-1.1,1.1h-1.4l-0.3-1
	c0.5,0,0.9,0,1.4,0c0.2,0,0.4-0.2,0.4-0.4v-1.9h-4.5C201.3,345,200.8,346.1,200.2,347.1z M205.9,338.2h-4.5v1.7h4.5V338.2z
	 M201.5,342.6h4.5v-1.7h-4.5V342.6z M213.5,338v7.9h-1.2v-6.4c-0.5,0.5-1.1,0.8-1.8,1v-1.2c0.4-0.1,0.7-0.2,1.1-0.5
	c0.4-0.2,0.7-0.5,1-0.8H213.5z M221,339c0.5,0.7,0.7,1.7,0.7,2.9c0,1.2-0.2,2.2-0.7,2.9c-0.5,0.8-1.2,1.2-2.1,1.2s-1.6-0.4-2.1-1.2
	c-0.5-0.7-0.7-1.7-0.7-2.9c0-1.2,0.2-2.2,0.7-2.9c0.5-0.8,1.2-1.2,2.1-1.2S220.5,338.2,221,339z M217.5,339.9
	c-0.2,0.5-0.3,1.2-0.3,2s0.1,1.5,0.3,2c0.3,0.7,0.7,1.1,1.4,1.1c0.6,0,1.1-0.4,1.4-1.1c0.2-0.5,0.3-1.2,0.3-2s-0.1-1.5-0.3-2
	c-0.3-0.7-0.7-1.1-1.4-1.1C218.2,338.9,217.8,339.2,217.5,339.9z M232.4,346.9h-1v-0.8h-5v0.8h-1v-9.7h7.1v9.7H232.4z M231.4,341.1
	v-2.8h-5v2.8H231.4z M231.4,345.2v-3.1h-5v3.1H231.4z"/>
<path class="st1" d="M176.2,435.4v6.4h-0.7v-5.5c-0.4,0.4-0.9,0.7-1.5,0.9v-0.7c0.3-0.1,0.6-0.2,0.9-0.4c0.3-0.2,0.6-0.4,0.8-0.7
	L176.2,435.4L176.2,435.4z M182.3,435.8c0.3,0.3,0.5,0.7,0.5,1.2c0,0.3-0.1,0.6-0.2,0.9c-0.2,0.3-0.4,0.4-0.8,0.6l0,0
	c0.3,0.1,0.6,0.3,0.9,0.6c0.3,0.3,0.4,0.7,0.4,1.1c0,0.6-0.2,1-0.6,1.4c-0.4,0.4-1,0.5-1.7,0.5s-1.3-0.2-1.7-0.5s-0.6-0.8-0.6-1.4
	c0-0.4,0.1-0.8,0.4-1.1c0.2-0.3,0.5-0.5,0.9-0.6l0,0c-0.3-0.1-0.6-0.3-0.8-0.6c-0.2-0.2-0.2-0.5-0.2-0.9c0-0.5,0.2-0.9,0.5-1.2
	c0.4-0.4,0.9-0.5,1.6-0.5C181.4,435.3,181.9,435.5,182.3,435.8z M179.5,439.2c-0.3,0.2-0.4,0.5-0.4,0.9s0.1,0.7,0.4,0.9
	c0.3,0.2,0.7,0.4,1.2,0.4s0.9-0.1,1.2-0.4c0.3-0.2,0.4-0.5,0.4-0.9s-0.1-0.7-0.4-0.9c-0.3-0.3-0.7-0.4-1.2-0.4
	C180.2,438.8,179.8,438.9,179.5,439.2z M179.7,436.3c-0.2,0.2-0.3,0.5-0.3,0.8s0.1,0.6,0.3,0.8c0.2,0.2,0.6,0.4,1.1,0.4
	s0.9-0.1,1.1-0.4c0.2-0.2,0.3-0.5,0.3-0.8s-0.1-0.6-0.3-0.8c-0.3-0.2-0.6-0.4-1.1-0.4S179.9,436,179.7,436.3z M187,436.6
	c0.1,0.1,0.2,0.2,0.2,0.4c0,0.2-0.1,0.3-0.2,0.4c-0.1,0.1-0.2,0.2-0.4,0.2s-0.3-0.1-0.4-0.2c-0.1-0.1-0.2-0.2-0.2-0.4s0-0.3,0.2-0.4
	c0.1-0.1,0.2-0.2,0.4-0.2S186.9,436.5,187,436.6z M187,439.9c0.1,0.1,0.2,0.2,0.2,0.4c0,0.2-0.1,0.3-0.2,0.4
	c-0.1,0.1-0.2,0.2-0.4,0.2s-0.3-0.1-0.4-0.2c-0.1-0.1-0.2-0.2-0.2-0.4s0-0.3,0.2-0.4c0.1-0.1,0.2-0.2,0.4-0.2S186.9,439.7,187,439.9
	z M198.5,435.8c0.4,0.3,0.6,0.7,0.6,1.3c0,0.7-0.4,1.2-1.1,1.4c0.4,0.1,0.7,0.3,0.9,0.5c0.2,0.3,0.3,0.6,0.3,0.9
	c0,0.6-0.2,1.1-0.6,1.4c-0.4,0.4-1,0.6-1.6,0.6s-1.1-0.2-1.5-0.5c-0.5-0.4-0.7-0.9-0.8-1.6h0.7c0,0.5,0.2,0.9,0.5,1.2
	c0.3,0.2,0.6,0.3,1,0.3c0.5,0,0.8-0.1,1.1-0.4s0.4-0.6,0.4-0.9c0-0.4-0.1-0.7-0.4-0.9s-0.6-0.3-1-0.3h-0.5v-0.6h0.5
	c0.4,0,0.8-0.1,1-0.3c0.2-0.2,0.3-0.5,0.3-0.8s-0.1-0.6-0.3-0.8c-0.2-0.2-0.6-0.3-1-0.3s-0.8,0.1-1,0.3c-0.3,0.2-0.4,0.6-0.4,1h-0.7
	c0.1-0.6,0.3-1.1,0.7-1.5s0.9-0.5,1.5-0.5S198.1,435.5,198.5,435.8z M205,436.3c0.3,0.6,0.5,1.4,0.5,2.3s-0.2,1.7-0.5,2.3
	c-0.4,0.7-1,1-1.7,1c-0.8,0-1.4-0.3-1.7-1c-0.3-0.6-0.5-1.4-0.5-2.3s0.2-1.7,0.5-2.3c0.4-0.7,1-1,1.7-1S204.6,435.7,205,436.3z
	 M202,436.9c-0.2,0.4-0.3,1-0.3,1.8c0,0.7,0.1,1.3,0.3,1.8c0.3,0.6,0.7,0.9,1.2,0.9s1-0.3,1.2-0.9c0.2-0.4,0.3-1,0.3-1.8
	s-0.1-1.4-0.3-1.8c-0.3-0.6-0.7-0.9-1.2-0.9S202.2,436.3,202,436.9z M211.8,439.2v0.6h-4.5v-0.6H211.8z M217.4,435.8
	c0.4,0.3,0.6,0.8,0.6,1.4s-0.2,1.1-0.6,1.5c-0.2,0.2-0.7,0.6-1.3,1c-0.8,0.5-1.3,1-1.4,1.5h3.4v0.7h-4.3c0-0.6,0.2-1.1,0.6-1.6
	c0.3-0.3,0.7-0.7,1.4-1.1c0.5-0.4,0.8-0.6,1-0.8c0.3-0.4,0.5-0.7,0.5-1.2c0-0.4-0.1-0.7-0.4-0.9s-0.6-0.3-1-0.3s-0.8,0.1-1,0.5
	c-0.3,0.3-0.4,0.7-0.4,1.3h-0.7c0-0.7,0.2-1.3,0.6-1.7c0.4-0.4,0.9-0.6,1.6-0.6C216.6,435.3,217,435.5,217.4,435.8z M222.1,435.4
	v6.4h-0.7v-5.5c-0.4,0.4-0.9,0.7-1.5,0.9v-0.7c0.3-0.1,0.6-0.2,0.9-0.4c0.3-0.2,0.6-0.4,0.8-0.7L222.1,435.4L222.1,435.4z
	 M226.6,436.6c0.1,0.1,0.2,0.2,0.2,0.4c0,0.2-0.1,0.3-0.2,0.4c-0.1,0.1-0.2,0.2-0.4,0.2s-0.3-0.1-0.4-0.2c-0.1-0.1-0.2-0.2-0.2-0.4
	s0-0.3,0.2-0.4c0.1-0.1,0.2-0.2,0.4-0.2S226.5,436.5,226.6,436.6z M226.6,439.9c0.1,0.1,0.2,0.2,0.2,0.4c0,0.2-0.1,0.3-0.2,0.4
	c-0.1,0.1-0.2,0.2-0.4,0.2s-0.3-0.1-0.4-0.2c-0.1-0.1-0.2-0.2-0.2-0.4s0-0.3,0.2-0.4c0.1-0.1,0.2-0.2,0.4-0.2
	S226.5,439.7,226.6,439.9z M238.1,435.8c0.4,0.3,0.6,0.7,0.6,1.3c0,0.7-0.4,1.2-1.1,1.4c0.4,0.1,0.7,0.3,0.9,0.5
	c0.2,0.3,0.3,0.6,0.3,0.9c0,0.6-0.2,1.1-0.6,1.4c-0.4,0.4-1,0.6-1.6,0.6s-1.1-0.2-1.5-0.5c-0.5-0.4-0.7-0.9-0.8-1.6h0.7
	c0,0.5,0.2,0.9,0.5,1.2c0.3,0.2,0.6,0.3,1,0.3c0.5,0,0.8-0.1,1.1-0.4s0.4-0.6,0.4-0.9c0-0.4-0.1-0.7-0.4-0.9s-0.6-0.3-1-0.3h-0.5
	v-0.6h0.5c0.4,0,0.8-0.1,1-0.3c0.2-0.2,0.3-0.5,0.3-0.8s-0.1-0.6-0.3-0.8c-0.2-0.2-0.6-0.3-1-0.3s-0.8,0.1-1,0.3
	c-0.3,0.2-0.4,0.6-0.4,1h-0.7c0.1-0.6,0.3-1.1,0.7-1.5s0.9-0.5,1.5-0.5S237.8,435.5,238.1,435.8z M244.6,436.3
	c0.3,0.6,0.5,1.4,0.5,2.3s-0.2,1.7-0.5,2.3c-0.4,0.7-1,1-1.7,1c-0.8,0-1.4-0.3-1.7-1c-0.3-0.6-0.5-1.4-0.5-2.3s0.2-1.7,0.5-2.3
	c0.4-0.7,1-1,1.7-1S244.2,435.7,244.6,436.3z M241.6,436.9c-0.2,0.4-0.3,1-0.3,1.8c0,0.7,0.1,1.3,0.3,1.8c0.3,0.6,0.7,0.9,1.2,0.9
	s1-0.3,1.2-0.9c0.2-0.4,0.3-1,0.3-1.8s-0.1-1.4-0.3-1.8c-0.3-0.6-0.7-0.9-1.2-0.9S241.9,436.3,241.6,436.9z"/>
<path class="st2" d="M194.8,403.3h-8.7v4.1c0,2.4-0.5,4.3-1.3,5.7l-0.8-0.7c0.6-1.2,1-2.9,1-5v-5h9.8V403.3z M194.4,403.8v0.9h-3.5
	c0,0.2-0.1,0.3-0.2,0.5h3v4.2h-4.1c-0.1,0.2-0.3,0.3-0.4,0.5h4.2v0.7c-0.4,0.5-0.8,0.9-1.4,1.2c1,0.2,2,0.3,3.1,0.3L195,413
	c-1.5-0.1-2.9-0.3-4.1-0.6c-1.2,0.5-2.7,0.7-4.6,0.7l-0.4-0.9c1.4,0,2.5-0.1,3.5-0.3c-0.6-0.3-1.1-0.6-1.6-0.9
	c-0.4,0.2-0.8,0.4-1.2,0.5l-0.6-0.8c1-0.3,1.8-0.7,2.5-1.3h-1.1v-4.2h2.3c0.1-0.2,0.1-0.3,0.2-0.5h-3.2v-0.9L194.4,403.8
	L194.4,403.8z M192.7,406.3v-0.5h-4.4v0.5H192.7z M192.7,407.5V407h-4.4v0.4h4.4V407.5z M192.7,408.1h-4.4v0.5h4.4V408.1z
	 M192.2,410.6h-3.3c0.6,0.3,1.2,0.6,1.9,0.8C191.3,411.2,191.8,410.9,192.2,410.6z M199,404v9.1h-1.1V404H199z M201.3,404.1l-1,0.5
	c-0.5-0.8-0.9-1.6-1.5-2.2l1-0.5C200.4,402.6,200.9,403.3,201.3,404.1z M205.4,413l-0.3-1.1h1c0.3,0,0.5-0.2,0.5-0.6v-7.7h-4.5v-1.1
	h5.6v9.1c0,0.9-0.5,1.4-1.4,1.4L205.4,413L205.4,413z M215.3,405.1c0.1-0.6,0.1-1.3,0.1-2v-1h1.2v0.8c0,0.8,0,1.5-0.1,2.3h4.9v1.1
	h-4.6c0.8,2.6,2.5,4.5,4.8,5.9l-0.7,0.9c-2.3-1.4-3.9-3.4-4.8-5.9c-0.8,2.7-2.4,4.8-4.8,6l-0.7-1c2.5-1.2,4-3.2,4.7-6h-4.4v-1.1
	L215.3,405.1L215.3,405.1z M234.4,407.3h-1.1v-1.8h-8.1v1.8H224v-2.9h2.2c-0.4-0.6-0.8-1.2-1.2-1.7l1-0.5c0.4,0.6,0.8,1.2,1.2,1.8
	l-0.8,0.4h4.5c0.5-0.7,0.9-1.5,1.3-2.4l1.2,0.4c-0.4,0.8-0.8,1.4-1.2,2h2.2V407.3z M232.4,406.2v1c-0.8,0.5-1.6,1-2.5,1.4v0.4h4.5
	v1.1h-4.5v1.8c0,0.7-0.4,1.1-1.1,1.1h-1.5l-0.3-1c0.4,0,0.9,0,1.4,0c0.3,0,0.4-0.2,0.4-0.5v-1.4H224V409h4.7v-0.9
	c0.8-0.4,1.5-0.7,2-0.9H226v-1H232.4z M230,403.9l-1,0.5c-0.4-0.7-0.7-1.4-1.2-2l1-0.5C229.3,402.5,229.7,403.2,230,403.9z"/>
<path class="st2" d="M192.7,425.9c-0.3,1-0.6,1.9-1.1,2.6l-0.6-0.4c0.5-0.7,0.8-1.5,1-2.4L192.7,425.9z M198,420.9v4.2h-5.6v-4.2
	H198z M194.9,422.6v-1.2H193v1.2H194.9z M194.9,423.2H193v1.2h1.9V423.2z M194.2,428.7c-0.6,0-0.9-0.3-0.9-1v-1.9h0.6v1.8
	c0,0.3,0.2,0.5,0.5,0.5h2c0.2,0,0.3-0.1,0.4-0.2c0.1-0.1,0.2-0.5,0.2-1.1l0.6,0.2c-0.1,0.8-0.2,1.3-0.4,1.4s-0.4,0.2-0.8,0.2h-2.2
	V428.7z M196.3,426.9l-0.6,0.3c-0.3-0.6-0.6-1.2-0.9-1.6l0.6-0.2C195.7,425.8,196,426.3,196.3,426.9z M195.5,422.6h1.9v-1.2h-1.9
	V422.6z M197.4,423.2h-1.9v1.2h1.9V423.2z M199.3,427.9l-0.6,0.3c-0.4-0.9-0.9-1.7-1.3-2.4l0.6-0.2
	C198.5,426.3,198.9,427.1,199.3,427.9z M204,427.2h-2v0.7h-0.6V421h2.7L204,427.2L204,427.2z M203.4,423.8v-2.1H202v2.1H203.4z
	 M203.4,426.6v-2.2H202v2.2H203.4z M204.6,428.8l-0.5-0.5c0.6-0.9,0.9-2,1-3.3v-4.2h3.7v7.1c0,0.5-0.3,0.8-0.8,0.8h-1.2l-0.2-0.6
	c0.4,0,0.8,0,1.1,0s0.4-0.2,0.4-0.5v-1.9h-2.4C205.5,427,205.2,428,204.6,428.8z M208.1,421.4h-2.4v1.6h2.4V421.4z M205.7,425.2h2.4
	v-1.6h-2.4V425.2z M212.3,422.3v-1.7h0.7v1.7h0.9v0.6H213v0.7c0.3,0.4,0.6,0.8,0.9,1.2c0.5-0.6,1-1.3,1.4-2.1l0.5,0.3
	c-0.4,0.9-0.9,1.6-1.5,2.3l-0.4-0.3l0.2,0.3l-0.4,0.5c-0.3-0.6-0.6-1.1-0.9-1.5v4.5h-0.7v-4.6c-0.3,0.9-0.7,1.7-1.2,2.4l-0.3-0.7
	c0.7-0.9,1.2-1.8,1.4-3h-1v-0.6L212.3,422.3L212.3,422.3z M217.9,424.4c-0.2,1-0.5,1.8-1,2.4c0.6,0.5,1.3,0.9,2.2,1.3l-0.3,0.6
	c-0.9-0.4-1.7-0.8-2.3-1.4c-0.6,0.7-1.4,1.1-2.4,1.4l-0.4-0.6c1-0.3,1.7-0.7,2.3-1.3c-0.6-0.7-0.9-1.5-1.1-2.4l0.6-0.2
	c0.1,0.8,0.4,1.4,0.9,2c0.4-0.6,0.7-1.3,0.8-2.1L217.9,424.4z M216.3,421.7c-0.2-0.4-0.3-0.8-0.5-1.1l0.7-0.1
	c0.2,0.4,0.4,0.8,0.5,1.3h2v0.6h-4.8v-0.6L216.3,421.7L216.3,421.7z M219.1,424.8l-0.5,0.4c-0.4-0.7-0.9-1.4-1.5-2.2l0.5-0.3
	C218.2,423.5,218.7,424.2,219.1,424.8z M228.6,420.9v0.6h-6.5v6.3h6.8v0.6h-7.4v-7.5H228.6z M225.7,424.2c0.5-0.7,1-1.4,1.3-2.3
	l0.6,0.3c-0.4,0.9-0.9,1.7-1.4,2.4c0.7,0.6,1.3,1.3,1.9,1.9l-0.5,0.5c-0.5-0.6-1.1-1.3-1.8-1.9c-0.8,0.8-1.7,1.5-2.7,1.9l-0.4-0.6
	c1-0.4,1.9-1,2.6-1.8c-0.7-0.6-1.5-1.3-2.4-1.9l0.5-0.5C224.2,423,225,423.6,225.7,424.2z"/>
<path class="st0" d="M94,382.4v-8.2c0-1.9-1.2-3.3-3-3.3s-3,1.4-3,3.3v8.2c0,1.9,1.2,3.5,3,3.5S94,384.2,94,382.4z M95.7,380.9v2
	c0,2.6-2.1,4.7-4.7,4.7s-4.7-2.1-4.7-4.7v-2H85v2c0,3.1,2,5.6,5,6v3h-2v1h6v-1h-2v-3c3-0.3,5-2.8,5-6v-2H95.7z"/>
<path class="st1" d="M88.8,206.2v1h-3.2v1.4h2.7v7.3h-1v-0.4h-6.6v0.4h-1v-7.3h2.6v-1.4H79v-1H88.8z M87.2,214.5V213h-1.5
	c-0.8,0-1.2-0.4-1.2-1.2v-2.1h-1.4v0.1c0,1.8-0.6,3-1.8,3.9l-0.8-0.7v1.6L87.2,214.5L87.2,214.5z M82.2,209.8L82.2,209.8l-1.6-0.1
	v3.2C81.6,212.2,82.1,211.2,82.2,209.8z M83.2,208.7h1.4v-1.4h-1.4V208.7z M85.6,211.5c0,0.3,0.1,0.5,0.5,0.5h1.2v-2.3h-1.6
	L85.6,211.5L85.6,211.5z M94.2,209.9c0.3-0.6,0.6-1.1,0.9-1.7l1.1,0.3c-0.3,0.5-0.5,0.9-0.7,1.4h5.5v1h-2.1
	c-0.4,1.1-0.9,1.9-1.4,2.6c1.1,0.5,2.2,1,3.3,1.6L100,216c-1.1-0.7-2.3-1.3-3.4-1.8c-1.2,1.1-2.9,1.7-4.9,1.7l-0.6-1
	c1.8,0,3.3-0.4,4.4-1.2c-1-0.4-2-0.8-3-1.1c0.4-0.6,0.7-1.2,1.1-1.8h-2.5v-1L94.2,209.9L94.2,209.9z M100.7,209.3h-1.1v-1.5h-7.3
	v1.5h-1.1v-2.5h4.1c-0.1-0.3-0.3-0.6-0.5-0.9l1.2-0.2c0.2,0.3,0.3,0.7,0.5,1.1h4.1v2.5H100.7z M94,212.3c0.7,0.2,1.5,0.5,2.3,0.8
	c0.5-0.6,1-1.3,1.3-2.2h-2.8C94.5,211.4,94.3,211.9,94,212.3z"/>
<path class="st1" d="M73,339.4c0.5,0.7,0.7,1.6,0.7,2.8c0,1.3-0.3,2.3-0.8,3.1c-0.5,0.8-1.3,1.2-2.2,1.2c-1.5,0-2.4-0.7-2.6-2.1h1.2
	c0.2,0.8,0.6,1.1,1.4,1.1c0.5,0,1-0.3,1.3-0.8s0.5-1.1,0.5-1.9v-0.1l0,0c-0.2,0.3-0.5,0.6-0.8,0.8c-0.3,0.2-0.7,0.2-1.1,0.2
	c-0.8,0-1.4-0.3-1.9-0.7c-0.5-0.5-0.7-1.1-0.7-1.9s0.3-1.4,0.8-1.9s1.2-0.8,2-0.8C71.8,338.4,72.5,338.7,73,339.4z M69.7,339.8
	c-0.3,0.3-0.4,0.7-0.4,1.2s0.1,0.9,0.4,1.2c0.3,0.3,0.7,0.5,1.2,0.5s0.9-0.2,1.2-0.5s0.4-0.7,0.4-1.2s-0.2-0.9-0.4-1.2
	c-0.3-0.3-0.7-0.5-1.1-0.5C70.4,339.4,70,339.5,69.7,339.8z M77.6,347.6l-0.8-0.7c0.7-1,1-2.2,1.1-3.7v-5.4h6.6v8.6
	c0,0.7-0.4,1.1-1.1,1.1H82l-0.3-1c0.5,0,0.9,0,1.4,0c0.2,0,0.4-0.2,0.4-0.4v-1.9H79C78.7,345.5,78.3,346.6,77.6,347.6z M83.3,338.7
	h-4.5v1.7h4.5V338.7z M78.9,343.1h4.5v-1.7h-4.5V343.1z M92.7,339c0.5,0.4,0.7,1,0.7,1.7s-0.3,1.3-0.8,1.9c-0.3,0.3-0.8,0.7-1.6,1.3
	c-0.8,0.6-1.4,1.1-1.5,1.5h3.9v1.1H88c0-0.8,0.3-1.5,0.8-2.1c0.3-0.3,0.9-0.8,1.8-1.4c0.5-0.4,0.9-0.7,1.1-0.9
	c0.4-0.4,0.5-0.8,0.5-1.3c0-0.4-0.1-0.8-0.4-1s-0.6-0.3-1.1-0.3s-0.9,0.2-1.1,0.5c-0.3,0.3-0.4,0.8-0.4,1.4H88
	c0-0.9,0.3-1.6,0.8-2.1c0.5-0.6,1.2-0.8,2-0.8C91.6,338.4,92.2,338.6,92.7,339z M100.7,338.5v1l-2.8,6.9h-1.3l2.8-6.8h-4.1v-1.1
	H100.7z M111.4,347.4h-1v-0.8h-5v0.8h-1v-9.7h7.1L111.4,347.4L111.4,347.4z M110.4,341.6v-2.8h-5v2.8H110.4z M110.4,345.7v-3.1h-5
	v3.1H110.4z"/>
<path class="st2" d="M49.1,254.5v1.1h-3.5v1.5h2.9v7.9h-1.1v-0.5h-7.2v0.5H39v-7.9h2.8v-1.5h-3.5v-1.1H49.1z M47.3,263.5v-1.7h-1.6
	c-0.9,0-1.3-0.4-1.3-1.3v-2.3h-1.5v0.1c0,1.9-0.7,3.3-2,4.2l-0.9-0.7v1.7L47.3,263.5L47.3,263.5z M41.8,258.3v-0.1h-1.7v3.5
	C41.2,261,41.8,259.9,41.8,258.3z M42.9,257.1h1.5v-1.5h-1.5V257.1z M45.5,260.2c0,0.4,0.2,0.6,0.5,0.6h1.3v-2.5h-1.8V260.2z
	 M54.9,258.5c0.3-0.6,0.7-1.2,1-1.9l1.2,0.3c-0.3,0.5-0.6,1-0.8,1.5h6v1.1H60c-0.5,1.2-1,2.1-1.5,2.8c1.2,0.5,2.4,1.1,3.6,1.8
	l-0.8,1c-1.2-0.7-2.5-1.4-3.7-1.9c-1.4,1.2-3.1,1.8-5.3,1.9l-0.7-1.1c2,0,3.6-0.5,4.8-1.3c-1.1-0.5-2.2-0.9-3.2-1.2
	c0.4-0.7,0.8-1.3,1.2-2h-2.7v-1.1h3.2V258.5z M62,257.8h-1.2v-1.6h-7.9v1.6h-1.2v-2.7h4.5c-0.2-0.3-0.3-0.7-0.5-1l1.3-0.2
	c0.2,0.4,0.3,0.8,0.5,1.2H62V257.8z M54.7,261.1c0.8,0.2,1.7,0.5,2.5,0.9c0.6-0.6,1.1-1.4,1.4-2.4h-3
	C55.3,260.1,55,260.6,54.7,261.1z M66.7,261.8v0.9h-1.1v-7.1h3.8v-1.5h1.1v1.5h3.9v6.2h-3.9v1.2c0,0.6,0.3,0.9,0.8,0.9h2.6
	c0.2,0,0.4-0.1,0.6-0.2c0.1-0.1,0.2-0.6,0.2-1.3l1.1,0.4c-0.1,1-0.2,1.7-0.4,1.9c-0.2,0.2-0.6,0.3-1.2,0.3H71
	c-1.1,0-1.6-0.6-1.6-1.8v-1.4H66.7z M66.7,256.7v1.5h2.7v-1.5H66.7z M66.7,260.7h2.7v-1.5h-2.7V260.7z M73.2,256.7h-2.7v1.5h2.7
	V256.7z M73.2,260.7v-1.5h-2.7v1.5H73.2z M83,259.1v-1.5c0.9-0.6,1.9-1.2,2.7-2h-6.4v-1.1h8v1.1c-0.9,0.9-2,1.8-3.1,2.5v1h4.5v1.1
	h-4.5v3.7c0,0.8-0.4,1.2-1.2,1.2h-2.1l-0.3-1.1c0.6,0,1.3,0,2,0c0.3,0,0.5-0.2,0.5-0.5v-3.3h-5v-1.1L83,259.1L83,259.1z M93.1,257.2
	v-1.5c-0.5,0.1-1.1,0.1-1.6,0.2l-0.2-1.1c1.5-0.1,2.9-0.4,4.1-0.7l0.4,1.1c-0.5,0.1-1,0.3-1.5,0.3v1.7h1.5v1.1h-1.5v0.5
	c0.6,0.5,1.3,1,1.9,1.7l-0.6,1c-0.5-0.6-0.9-1.2-1.3-1.5v5.2h-1.2V260c-0.4,1.1-1,2-1.7,2.9l-0.5-1.3c1-1,1.7-2,2.1-3.3h-1.7v-1.1
	L93.1,257.2L93.1,257.2z M102.1,261.5l-1.1,0.2v3.3h-1.2v-3.2l-3.6,0.6l-0.2-1.1l3.8-0.6V254h1.2v6.5l0.9-0.2L102.1,261.5z
	 M99.1,259.3l-0.8,0.8c-0.5-0.6-1.2-1.2-2.1-1.8l0.8-0.8C97.8,258.1,98.5,258.7,99.1,259.3z M99.4,256.4l-0.8,0.8
	c-0.5-0.6-1.2-1.1-2.1-1.8l0.8-0.8C98.2,255.3,98.9,255.9,99.4,256.4z M104.6,265l-0.2-1.1c0.3,0,0.6,0.1,0.9,0.1s0.4-0.2,0.4-0.5
	V261c-0.4,0.2-0.9,0.3-1.3,0.5l-0.3-1.1c0.5-0.1,1.1-0.3,1.6-0.5v-2.6h-1.4v-1.1h1.4V254h1.1v2.1h1.2v1.1h-1.2v2.1
	c0.4-0.2,0.8-0.4,1.2-0.6v1.1c-0.4,0.2-0.8,0.4-1.2,0.6v3.3c0,0.8-0.4,1.2-1.2,1.2L104.6,265L104.6,265z M111.1,255.7v-1.6h1.1v1.6
	h2.8v1.1h-2.8v1.7h2.4v1c-0.4,1.2-1,2.3-1.9,3.2c0.7,0.6,1.7,1,2.7,1.5l-0.6,0.9c-1.2-0.5-2.1-1.1-2.9-1.7c-0.9,0.7-2,1.3-3.3,1.7
	l-0.5-0.9c1.2-0.4,2.2-0.9,3-1.5c-0.9-0.9-1.6-2-1.9-3.2h-0.6v-1.1h2.6v-1.7h-2.8v-1.1h2.7V255.7z M111.8,262
	c0.7-0.7,1.3-1.5,1.6-2.5h-3.2C110.5,260.5,111,261.3,111.8,262z M122.2,257.1c0.1-0.6,0.1-1.3,0.1-2v-1h1.2v0.8
	c0,0.8,0,1.5-0.1,2.3h4.9v1.1h-4.6c0.8,2.6,2.5,4.5,4.8,5.9l-0.7,0.9c-2.3-1.4-3.9-3.4-4.8-5.9c-0.8,2.7-2.4,4.8-4.8,6l-0.7-1
	c2.5-1.2,4-3.2,4.7-6h-4.4v-1.1L122.2,257.1L122.2,257.1z M141.3,259.3h-1.1v-1.8H132v1.8h-1.1v-2.9h2.2c-0.4-0.6-0.8-1.2-1.2-1.7
	l1-0.5c0.4,0.6,0.8,1.2,1.2,1.8l-0.8,0.4h4.5c0.5-0.7,0.9-1.5,1.3-2.4l1.2,0.4c-0.4,0.8-0.8,1.4-1.2,2h2.2L141.3,259.3L141.3,259.3z
	 M139.3,258.2v1c-0.8,0.5-1.6,1-2.5,1.4v0.4h4.5v1.1h-4.5v1.8c0,0.7-0.4,1.1-1.1,1.1h-1.5l-0.3-1c0.4,0,0.9,0,1.4,0
	c0.3,0,0.4-0.2,0.4-0.5v-1.4H131V261h4.7v-0.9c0.8-0.4,1.5-0.7,2-0.9h-4.8v-1H139.3z M136.9,255.9l-1,0.5c-0.4-0.7-0.7-1.4-1.2-2
	l1-0.5C136.2,254.5,136.6,255.2,136.9,255.9z"/>
<path class="st2" d="M51.7,274.7V274h3.4c-0.2-0.5-0.3-0.9-0.6-1.4l0.6-0.2c0.2,0.5,0.4,1,0.5,1.4l-0.4,0.1h3.7v0.6h-3.3v2.1h2.9
	v0.6h-2.9v2.4h3.7v0.6h-8v-0.6H55v-2.4h-2.9v-0.6H55v-2.1h-3.3V274.7z M62.6,274.3v-1.7h0.7v1.7h0.9v0.6h-0.9v0.7
	c0.3,0.4,0.6,0.8,0.9,1.2c0.5-0.6,1-1.3,1.4-2.1l0.5,0.3c-0.4,0.9-0.9,1.6-1.5,2.3l-0.4-0.3l0.2,0.3l-0.4,0.5
	c-0.3-0.6-0.6-1.1-0.9-1.5v4.5h-0.7v-4.6c-0.3,0.9-0.7,1.7-1.2,2.4l-0.3-0.7c0.7-0.9,1.2-1.8,1.4-3h-1.2v-0.6L62.6,274.3L62.6,274.3
	z M68.2,276.4c-0.2,1-0.5,1.8-1,2.4c0.6,0.5,1.3,0.9,2.2,1.3l-0.3,0.6c-0.9-0.4-1.7-0.8-2.3-1.4c-0.6,0.7-1.4,1.1-2.4,1.4l-0.4-0.6
	c1-0.3,1.7-0.7,2.3-1.3c-0.6-0.7-0.9-1.5-1.1-2.4l0.6-0.2c0.1,0.8,0.4,1.4,0.9,2c0.4-0.6,0.7-1.3,0.8-2.1L68.2,276.4z M66.6,273.7
	c-0.2-0.4-0.3-0.8-0.5-1.1l0.7-0.1c0.2,0.4,0.4,0.8,0.5,1.3h2v0.6h-4.8v-0.6L66.6,273.7L66.6,273.7z M69.4,276.8l-0.5,0.4
	c-0.4-0.7-0.9-1.4-1.5-2.2l0.5-0.3C68.5,275.5,69,276.2,69.4,276.8z M78.9,272.9v0.6h-6.5v6.3h6.8v0.6h-7.4v-7.5H78.9z M76,276.2
	c0.5-0.7,1-1.4,1.3-2.3l0.6,0.3c-0.4,0.9-0.9,1.7-1.4,2.4c0.7,0.6,1.3,1.3,1.9,1.9l-0.5,0.5c-0.5-0.6-1.1-1.3-1.8-1.9
	c-0.8,0.8-1.7,1.5-2.7,1.9l-0.4-0.6c1-0.4,1.9-1,2.6-1.8c-0.7-0.6-1.5-1.3-2.4-1.9l0.5-0.5C74.5,275,75.3,275.6,76,276.2z
	 M88.9,272.4c-0.4,0.6-0.6,1.2-0.9,1.9c-0.3,0.8-0.4,1.6-0.4,2.3c0,0.8,0.1,1.5,0.4,2.3c0.2,0.6,0.5,1.3,0.9,1.9h-0.6
	c-0.4-0.6-0.7-1.2-0.9-1.9c-0.3-0.8-0.4-1.6-0.4-2.3c0-0.8,0.1-1.6,0.4-2.4c0.2-0.7,0.5-1.3,0.9-1.9h0.6V272.4z M94.2,272.5v8.2
	h-0.7v-1.5c-0.7,0.3-1.5,0.6-2.4,0.9l-0.2-0.6c0.9-0.2,1.7-0.5,2.5-0.9v-2.9H91V275h2.4v-2.5H94.2z M96.5,280.6
	c-0.6,0-0.8-0.3-0.8-0.9v-7.2h0.7v3c0.8-0.3,1.5-0.7,2.3-1.2l0.4,0.5c-0.9,0.6-1.8,1-2.7,1.3v3.5c0,0.3,0.1,0.4,0.3,0.4h1.1
	c0.2,0,0.3-0.1,0.4-0.2c0.1-0.2,0.1-0.7,0.2-1.6l0.6,0.2c-0.1,1.1-0.1,1.7-0.3,1.9c-0.1,0.2-0.4,0.3-0.8,0.3L96.5,280.6L96.5,280.6z
	 M102.2,274.3v-1.7h0.7v1.7h0.9v0.6h-0.9v0.7c0.3,0.4,0.6,0.8,0.9,1.2c0.5-0.6,1-1.3,1.4-2.1l0.5,0.3c-0.4,0.9-0.9,1.6-1.5,2.3
	l-0.4-0.3l0.2,0.3l-0.4,0.5c-0.3-0.6-0.6-1.1-0.9-1.5v4.5H102v-4.6c-0.3,0.9-0.7,1.7-1.2,2.4l-0.3-0.7c0.7-0.9,1.2-1.8,1.4-3h-1.2
	v-0.6L102.2,274.3L102.2,274.3z M107.8,276.4c-0.2,1-0.5,1.8-1,2.4c0.6,0.5,1.3,0.9,2.2,1.3l-0.3,0.6c-0.9-0.4-1.7-0.8-2.3-1.4
	c-0.6,0.7-1.4,1.1-2.4,1.4l-0.4-0.6c1-0.3,1.7-0.7,2.3-1.3c-0.6-0.7-0.9-1.5-1.1-2.4l0.6-0.2c0.1,0.8,0.4,1.4,0.9,2
	c0.4-0.6,0.7-1.3,0.8-2.1L107.8,276.4z M106.2,273.7c-0.2-0.4-0.3-0.8-0.5-1.1l0.7-0.1c0.2,0.4,0.4,0.8,0.5,1.3h2v0.6H104v-0.6
	L106.2,273.7L106.2,273.7z M109,276.8l-0.5,0.4c-0.4-0.7-0.9-1.4-1.5-2.2l0.5-0.3C108.1,275.5,108.6,276.2,109,276.8z M118.5,272.9
	v0.6H112v6.3h6.8v0.6h-7.4v-7.5H118.5z M115.6,276.2c0.5-0.7,1-1.4,1.3-2.3l0.6,0.3c-0.4,0.9-0.9,1.7-1.4,2.4
	c0.7,0.6,1.3,1.3,1.9,1.9l-0.5,0.5c-0.5-0.6-1.1-1.3-1.8-1.9c-0.8,0.8-1.7,1.5-2.7,1.9l-0.4-0.6c1-0.4,1.9-1,2.6-1.8
	c-0.7-0.6-1.5-1.3-2.4-1.9l0.5-0.5C114.1,275,114.9,275.6,115.6,276.2z M121.6,272.4c0.4,0.6,0.7,1.2,0.9,1.9
	c0.3,0.8,0.4,1.6,0.4,2.4s-0.1,1.6-0.4,2.3c-0.2,0.6-0.5,1.3-0.9,1.9H121c0.4-0.6,0.6-1.2,0.9-1.9c0.3-0.8,0.4-1.6,0.4-2.3
	c0-0.8-0.1-1.5-0.4-2.3c-0.2-0.6-0.5-1.3-0.9-1.9h0.6V272.4z"/>
<path class="st0" d="M213,234.4v-8.2c0-1.9-1.2-3.3-3-3.3s-3,1.4-3,3.3v8.2c0,1.9,1.2,3.5,3,3.5S213,236.2,213,234.4z M214.7,232.9
	v2c0,2.6-2.1,4.7-4.7,4.7c-2.6,0-4.7-2.1-4.7-4.7v-2H204v2c0,3.1,2,5.6,5,6v3h-2v1h6v-1h-2v-3c3-0.3,5-2.8,5-6v-2H214.7z"/>
<path class="st1" d="M84.7,358.4v1.4h1.8v1h-1.8v1.7c0.7-0.2,1.4-0.3,2.1-0.5v1c-1.8,0.6-3.8,1-6.1,1.3l-0.1-1
	c0.3,0,0.6-0.1,0.9-0.1v-3.8h1v3.7c0.4-0.1,0.8-0.1,1.1-0.2v-4.4h1.1V358.4z M86.7,356.9c0-0.8-0.1-1.6-0.1-2.5h1
	c0,0.9,0,1.8,0.1,2.5h2.8v1h-2.7c0.1,0.8,0.1,1.5,0.3,2.1c0.2,1.1,0.5,1.9,0.7,2.4c0.3,0.5,0.5,0.7,0.6,0.7s0.2-0.5,0.3-1.4l0.9,0.5
	c-0.2,1.5-0.6,2.2-1.1,2.2c-0.4,0-0.8-0.3-1.3-1c-0.5-0.7-0.8-1.7-1.1-3.1c-0.2-0.7-0.3-1.5-0.4-2.5h-6v-1h6V356.9z M85.8,355v1
	h-4.3v-1H85.8z M90.2,356.1l-0.9,0.4c-0.4-0.7-0.7-1.3-1.2-1.8l0.9-0.4C89.5,354.9,89.8,355.5,90.2,356.1z M95.4,358.7l-0.7,0.7
	c-0.5-0.5-1.1-1.1-1.9-1.7l0.7-0.7C94.3,357.6,94.9,358.1,95.4,358.7z M95.8,360.5c-0.5,1.4-1.1,2.7-1.8,3.9l-1-0.5
	c0.7-1.3,1.3-2.5,1.9-3.8L95.8,360.5z M95.7,356.2l-0.7,0.7c-0.5-0.6-1.1-1.1-1.9-1.8l0.7-0.7C94.5,355,95.2,355.6,95.7,356.2z
	 M99.4,362c-0.9,1-1.9,1.8-3.1,2.5l-0.7-0.8c1.3-0.6,2.3-1.5,3.2-2.5c-1.1-1.5-1.7-3.3-1.9-5.1h-0.8v-1h6.2v0.9
	c-0.4,2.1-1.1,3.8-2.1,5.3c0.7,0.9,1.7,1.7,2.8,2.4l-0.7,0.8C101.1,363.7,100.2,362.9,99.4,362z M101.1,356.1h-3.3
	c0.2,1.6,0.7,3,1.6,4.3C100.2,359.1,100.8,357.7,101.1,356.1z"/>
<path class="st1" d="M74,190.9c0.5,0.7,0.7,1.6,0.7,2.8c0,1.3-0.3,2.3-0.8,3.1s-1.3,1.2-2.2,1.2c-1.5,0-2.4-0.7-2.6-2.1h1.2
	c0.2,0.8,0.6,1.1,1.4,1.1c0.5,0,1-0.3,1.3-0.8s0.5-1.1,0.5-1.9v-0.1l0,0c-0.2,0.3-0.5,0.6-0.8,0.8s-0.7,0.2-1.1,0.2
	c-0.8,0-1.4-0.3-1.9-0.7c-0.5-0.5-0.7-1.1-0.7-1.9c0-0.8,0.3-1.4,0.8-1.9s1.2-0.8,2-0.8C72.7,189.9,73.4,190.2,74,190.9z
	 M70.6,191.3c-0.3,0.3-0.4,0.7-0.4,1.2s0.1,0.9,0.4,1.2c0.3,0.3,0.7,0.5,1.2,0.5s0.9-0.2,1.2-0.5s0.4-0.7,0.4-1.2s-0.2-0.9-0.4-1.2
	c-0.3-0.3-0.7-0.5-1.1-0.5C71.3,190.9,70.9,191,70.6,191.3z M78.5,199.1l-0.8-0.7c0.7-1,1-2.2,1.1-3.7v-5.4h6.6v8.6
	c0,0.7-0.4,1.1-1.1,1.1h-1.4l-0.3-1c0.5,0,0.9,0,1.4,0c0.2,0,0.4-0.2,0.4-0.4v-1.9h-4.5C79.6,197,79.2,198.1,78.5,199.1z
	 M84.3,190.2h-4.5v1.7h4.5V190.2z M79.8,194.6h4.5v-1.7h-4.5V194.6z M93.6,190.5c0.5,0.4,0.7,1,0.7,1.7s-0.3,1.3-0.8,1.9
	c-0.3,0.3-0.8,0.7-1.6,1.3s-1.4,1.1-1.5,1.5h3.9v1.1h-5.4c0-0.8,0.3-1.5,0.8-2.1c0.3-0.3,0.9-0.8,1.8-1.4c0.5-0.4,0.9-0.7,1.1-0.9
	c0.4-0.4,0.5-0.8,0.5-1.3c0-0.4-0.1-0.8-0.4-1c-0.2-0.2-0.6-0.3-1.1-0.3s-0.9,0.2-1.1,0.5c-0.3,0.3-0.4,0.8-0.4,1.4h-1.2
	c0-0.9,0.3-1.6,0.8-2.1c0.5-0.6,1.2-0.8,2-0.8C92.5,189.9,93.1,190.1,93.6,190.5z M101.8,190v1.1H98l-0.2,2.3l0,0
	c0.2-0.3,0.5-0.4,0.8-0.5s0.6-0.2,1-0.2c0.7,0,1.3,0.2,1.8,0.7s0.7,1.1,0.7,2c0,0.8-0.3,1.5-0.9,2c-0.6,0.5-1.2,0.7-2,0.7
	c-0.7,0-1.3-0.2-1.8-0.6c-0.6-0.4-0.9-1-0.9-1.7h1.2c0,0.4,0.2,0.8,0.5,1s0.6,0.3,1.1,0.3s0.9-0.2,1.2-0.5s0.5-0.7,0.5-1.2
	c0-0.6-0.1-1-0.4-1.3c-0.3-0.3-0.7-0.5-1.2-0.5c-0.4,0-0.6,0.1-0.9,0.2c-0.3,0.1-0.5,0.3-0.6,0.6h-1.2l0.4-4.4L101.8,190L101.8,190z
	 M112.9,198.9h-1v-0.8h-5v0.8h-1v-9.7h7.1v9.7H112.9z M111.8,193.1v-2.8h-5v2.8H111.8z M111.8,197.2v-3.1h-5v3.1H111.8z"/>
<path class="st1" d="M57.9,435.9v6.4h-0.7v-5.5c-0.4,0.4-0.9,0.7-1.5,0.9V437c0.3-0.1,0.6-0.2,0.9-0.4c0.3-0.2,0.6-0.4,0.8-0.7
	L57.9,435.9L57.9,435.9z M64,436.3c0.3,0.3,0.5,0.7,0.5,1.2c0,0.3-0.1,0.6-0.2,0.9c-0.2,0.3-0.4,0.4-0.8,0.6l0,0
	c0.3,0.1,0.6,0.3,0.9,0.6c0.3,0.3,0.4,0.7,0.4,1.1c0,0.6-0.2,1-0.6,1.4c-0.4,0.4-1,0.5-1.7,0.5s-1.3-0.2-1.7-0.5s-0.6-0.8-0.6-1.4
	c0-0.4,0.1-0.8,0.4-1.1c0.2-0.3,0.5-0.5,0.9-0.6l0,0c-0.3-0.1-0.6-0.3-0.8-0.6c-0.2-0.2-0.2-0.5-0.2-0.9c0-0.5,0.2-0.9,0.5-1.2
	c0.4-0.4,0.9-0.5,1.6-0.5C63.1,435.8,63.6,436,64,436.3z M61.2,439.7c-0.3,0.2-0.4,0.5-0.4,0.9s0.1,0.7,0.4,0.9
	c0.3,0.2,0.7,0.4,1.2,0.4s0.9-0.1,1.2-0.4c0.3-0.2,0.4-0.5,0.4-0.9s-0.1-0.7-0.4-0.9c-0.3-0.3-0.7-0.4-1.2-0.4
	C61.9,439.3,61.5,439.4,61.2,439.7z M61.4,436.8c-0.2,0.2-0.3,0.5-0.3,0.8s0.1,0.6,0.3,0.8c0.2,0.2,0.6,0.4,1.1,0.4s0.9-0.1,1.1-0.4
	c0.2-0.2,0.3-0.5,0.3-0.8s-0.1-0.6-0.3-0.8c-0.3-0.2-0.6-0.4-1.1-0.4S61.6,436.5,61.4,436.8z M68.7,437.1c0.1,0.1,0.2,0.2,0.2,0.4
	c0,0.2-0.1,0.3-0.2,0.4c-0.1,0.1-0.2,0.2-0.4,0.2s-0.3-0.1-0.4-0.2c-0.1-0.1-0.2-0.2-0.2-0.4s0-0.3,0.2-0.4c0.1-0.1,0.2-0.2,0.4-0.2
	S68.6,437,68.7,437.1z M68.7,440.4c0.1,0.1,0.2,0.2,0.2,0.4c0,0.2-0.1,0.3-0.2,0.4c-0.1,0.1-0.2,0.2-0.4,0.2s-0.3-0.1-0.4-0.2
	c-0.1-0.1-0.2-0.2-0.2-0.4s0-0.3,0.2-0.4c0.1-0.1,0.2-0.2,0.4-0.2S68.6,440.2,68.7,440.4z M80.2,436.3c0.4,0.3,0.6,0.7,0.6,1.3
	c0,0.7-0.4,1.2-1.1,1.4c0.4,0.1,0.7,0.3,0.9,0.5c0.2,0.3,0.3,0.6,0.3,0.9c0,0.6-0.2,1.1-0.6,1.4c-0.4,0.4-1,0.6-1.6,0.6
	s-1.1-0.2-1.5-0.5c-0.5-0.4-0.7-0.9-0.8-1.6H77c0,0.5,0.2,0.9,0.5,1.2c0.3,0.2,0.6,0.3,1,0.3c0.5,0,0.8-0.1,1.1-0.4s0.4-0.6,0.4-0.9
	c0-0.4-0.1-0.7-0.4-0.9s-0.6-0.3-1-0.3h-0.5v-0.6h0.5c0.4,0,0.8-0.1,1-0.3c0.2-0.2,0.3-0.5,0.3-0.8s-0.1-0.6-0.3-0.8
	c-0.2-0.2-0.6-0.3-1-0.3s-0.8,0.1-1,0.3c-0.3,0.2-0.4,0.6-0.4,1h-0.7c0.1-0.6,0.3-1.1,0.7-1.5s0.9-0.5,1.5-0.5S79.8,436,80.2,436.3z
	 M86.7,436.8c0.3,0.6,0.5,1.4,0.5,2.3s-0.2,1.7-0.5,2.3c-0.4,0.7-1,1-1.7,1c-0.8,0-1.4-0.3-1.7-1c-0.3-0.6-0.5-1.4-0.5-2.3
	s0.2-1.7,0.5-2.3c0.4-0.7,1-1,1.7-1S86.3,436.2,86.7,436.8z M83.7,437.4c-0.2,0.4-0.3,1-0.3,1.8c0,0.7,0.1,1.3,0.3,1.8
	c0.3,0.6,0.7,0.9,1.2,0.9s1-0.3,1.2-0.9c0.2-0.4,0.3-1,0.3-1.8s-0.1-1.4-0.3-1.8c-0.3-0.6-0.7-0.9-1.2-0.9S83.9,436.8,83.7,437.4z
	 M93.5,439.7v0.6H89v-0.6H93.5z M99.1,436.3c0.4,0.3,0.6,0.8,0.6,1.4s-0.2,1.1-0.6,1.5c-0.2,0.2-0.7,0.6-1.3,1
	c-0.8,0.5-1.3,1-1.4,1.5h3.4v0.7h-4.3c0-0.6,0.2-1.1,0.6-1.6c0.3-0.3,0.7-0.7,1.4-1.1c0.5-0.4,0.8-0.6,1-0.8
	c0.3-0.4,0.5-0.7,0.5-1.2c0-0.4-0.1-0.7-0.4-0.9s-0.6-0.3-1-0.3s-0.8,0.1-1,0.5c-0.3,0.3-0.4,0.7-0.4,1.3h-0.7
	c0-0.7,0.2-1.3,0.6-1.7c0.4-0.4,0.9-0.6,1.6-0.6C98.3,435.8,98.7,436,99.1,436.3z M103.8,435.9v6.4h-0.7v-5.5
	c-0.4,0.4-0.9,0.7-1.5,0.9V437c0.3-0.1,0.6-0.2,0.9-0.4c0.3-0.2,0.6-0.4,0.8-0.7L103.8,435.9L103.8,435.9z M108.3,437.1
	c0.1,0.1,0.2,0.2,0.2,0.4c0,0.2-0.1,0.3-0.2,0.4c-0.1,0.1-0.2,0.2-0.4,0.2s-0.3-0.1-0.4-0.2c-0.1-0.1-0.2-0.2-0.2-0.4s0-0.3,0.2-0.4
	c0.1-0.1,0.2-0.2,0.4-0.2S108.2,437,108.3,437.1z M108.3,440.4c0.1,0.1,0.2,0.2,0.2,0.4c0,0.2-0.1,0.3-0.2,0.4
	c-0.1,0.1-0.2,0.2-0.4,0.2s-0.3-0.1-0.4-0.2c-0.1-0.1-0.2-0.2-0.2-0.4s0-0.3,0.2-0.4c0.1-0.1,0.2-0.2,0.4-0.2
	S108.2,440.2,108.3,440.4z M119.8,436.3c0.4,0.3,0.6,0.7,0.6,1.3c0,0.7-0.4,1.2-1.1,1.4c0.4,0.1,0.7,0.3,0.9,0.5
	c0.2,0.3,0.3,0.6,0.3,0.9c0,0.6-0.2,1.1-0.6,1.4c-0.4,0.4-1,0.6-1.6,0.6s-1.1-0.2-1.5-0.5c-0.5-0.4-0.7-0.9-0.8-1.6h0.7
	c0,0.5,0.2,0.9,0.5,1.2c0.3,0.2,0.6,0.3,1,0.3c0.5,0,0.8-0.1,1.1-0.4s0.4-0.6,0.4-0.9c0-0.4-0.1-0.7-0.4-0.9s-0.6-0.3-1-0.3h-0.5
	v-0.6h0.5c0.4,0,0.8-0.1,1-0.3c0.2-0.2,0.3-0.5,0.3-0.8s-0.1-0.6-0.3-0.8c-0.2-0.2-0.6-0.3-1-0.3s-0.8,0.1-1,0.3
	c-0.3,0.2-0.4,0.6-0.4,1h-0.7c0.1-0.6,0.3-1.1,0.7-1.5s0.9-0.5,1.5-0.5S119.5,436,119.8,436.3z M126.3,436.8
	c0.3,0.6,0.5,1.4,0.5,2.3s-0.2,1.7-0.5,2.3c-0.4,0.7-1,1-1.7,1c-0.8,0-1.4-0.3-1.7-1c-0.3-0.6-0.5-1.4-0.5-2.3s0.2-1.7,0.5-2.3
	c0.4-0.7,1-1,1.7-1S125.9,436.2,126.3,436.8z M123.3,437.4c-0.2,0.4-0.3,1-0.3,1.8c0,0.7,0.1,1.3,0.3,1.8c0.3,0.6,0.7,0.9,1.2,0.9
	s1-0.3,1.2-0.9c0.2-0.4,0.3-1,0.3-1.8s-0.1-1.4-0.3-1.8c-0.3-0.6-0.7-0.9-1.2-0.9S123.6,436.8,123.3,437.4z"/>
<path class="st2" d="M53.1,406.9l-0.4-1.2c1.5-0.9,2.6-2,3.3-3.2l1,0.4c-0.4,0.7-0.8,1.3-1.4,1.9v4h-1.1v-2.9
	C54,406.2,53.6,406.6,53.1,406.9z M57.5,409.6v-1.1h1.2v1.1h4.7v1.1h-4.7v2.9h-1.2v-2.9h-4.6v-1.1H57.5z M59.5,408.4
	c-0.8,0-1.2-0.4-1.2-1.2v-0.7c-0.5,0.2-1,0.4-1.5,0.6l-0.6-0.9c0.8-0.3,1.5-0.5,2.2-0.8v-2.7h1.1v2.2c1.1-0.6,2.1-1.2,2.8-1.9
	l0.8,0.8c-1,0.9-2.2,1.6-3.6,2.3v1c0,0.2,0.1,0.4,0.4,0.4h1.7c0.3,0,0.5-0.1,0.6-0.2c0.2-0.1,0.3-0.6,0.3-1.3l1.1,0.4
	c-0.1,1.1-0.3,1.7-0.6,1.9c-0.3,0.2-0.7,0.3-1.2,0.3h-2.3V408.4z M71.9,402.5v2.1h4.3v5.8h-1.1v-0.7h-3.1v4h-1.3v-4h-3.1v0.7h-1.1
	v-5.8h4.3v-2.1H71.9z M70.7,408.6v-2.9h-3.1v2.9H70.7z M75,408.6v-2.9h-3.1v2.9H75z M81.1,405.7v-1.5c-0.5,0.1-1.1,0.1-1.6,0.2
	l-0.2-1.1c1.5-0.1,2.9-0.4,4.1-0.7l0.4,1.1c-0.5,0.1-1,0.3-1.5,0.3v1.7h1.5v1.1h-1.5v0.5c0.6,0.5,1.3,1,1.9,1.7l-0.6,1
	c-0.5-0.6-0.9-1.2-1.3-1.5v5.2H81v-5.2c-0.4,1.1-1,2-1.7,2.9l-0.5-1.3c1-1,1.7-2,2.1-3.3h-1.7v-1.1L81.1,405.7L81.1,405.7z
	 M90.1,410l-1.1,0.2v3.3h-1.2v-3.2l-3.6,0.6l-0.2-1.1l3.8-0.6v-6.7h1.2v6.5l0.9-0.2L90.1,410z M87.1,407.8l-0.8,0.8
	c-0.5-0.6-1.2-1.2-2.1-1.8l0.8-0.8C85.8,406.6,86.5,407.2,87.1,407.8z M87.4,404.9l-0.8,0.8c-0.5-0.6-1.2-1.1-2.1-1.8l0.8-0.8
	C86.2,403.8,86.9,404.4,87.4,404.9z M92.6,413.5l-0.2-1.1c0.3,0,0.6,0.1,0.9,0.1c0.3,0,0.4-0.2,0.4-0.5v-2.5
	c-0.4,0.2-0.9,0.3-1.3,0.5l-0.3-1.1c0.5-0.1,1.1-0.3,1.6-0.5v-2.6h-1.4v-1.1h1.4v-2.2h1.1v2.1h1.2v1.1h-1.2v2.1
	c0.4-0.2,0.8-0.4,1.2-0.6v1.1c-0.4,0.2-0.8,0.4-1.2,0.6v3.3c0,0.8-0.4,1.2-1.2,1.2L92.6,413.5L92.6,413.5z M99.1,404.2v-1.6h1.1v1.6
	h2.8v1.1h-2.8v1.7h2.4v1c-0.4,1.2-1,2.3-1.9,3.2c0.7,0.6,1.7,1,2.7,1.5l-0.6,0.9c-1.2-0.5-2.1-1.1-2.9-1.7c-0.9,0.7-2,1.3-3.3,1.7
	l-0.5-0.9c1.2-0.4,2.2-0.9,3-1.5c-0.9-0.9-1.6-2-1.9-3.2h-0.6v-1.1h2.6v-1.7h-2.8v-1.1h2.7V404.2z M99.8,410.5
	c0.7-0.7,1.3-1.5,1.6-2.5h-3.2C98.5,409,99,409.8,99.8,410.5z M110.2,405.6c0.1-0.6,0.1-1.3,0.1-2v-1h1.2v0.8c0,0.8,0,1.5-0.1,2.3
	h4.9v1.1h-4.6c0.8,2.6,2.5,4.5,4.8,5.9l-0.7,0.9c-2.3-1.4-3.9-3.4-4.8-5.9c-0.8,2.7-2.4,4.8-4.8,6l-0.7-1c2.5-1.2,4-3.2,4.7-6h-4.4
	v-1.1H110.2z M129.3,407.8h-1.1V406h-8.1v1.8h-1.1v-2.9h2.2c-0.4-0.6-0.8-1.2-1.2-1.7l1-0.5c0.4,0.6,0.8,1.2,1.2,1.8l-0.8,0.4h4.5
	c0.5-0.7,0.9-1.5,1.3-2.4l1.2,0.4c-0.4,0.8-0.8,1.4-1.2,2h2.2L129.3,407.8L129.3,407.8z M127.3,406.7v1c-0.8,0.5-1.6,1-2.5,1.4v0.4
	h4.5v1.1h-4.5v1.8c0,0.7-0.4,1.1-1.1,1.1h-1.5l-0.3-1c0.4,0,0.9,0,1.4,0c0.3,0,0.4-0.2,0.4-0.5v-1.4h-4.7v-1.1h4.7v-0.9
	c0.8-0.4,1.5-0.7,2-0.9h-4.8v-1H127.3z M124.9,404.4l-1,0.5c-0.4-0.7-0.7-1.4-1.2-2l1-0.5C124.2,403,124.6,403.7,124.9,404.4z"/>
<path class="st2" d="M85.3,422.7v-1.6H86v1.6h3.5v0.6h-2.9c0.6,1.4,1.7,2.7,3.2,3.8l-0.4,0.6c-1.6-1.3-2.7-2.8-3.3-4.4H86v3.5h1.9
	v0.6H86v1.8h-0.7v-1.8h-1.9v-0.6h1.9v-3.5l0,0c-0.7,1.8-1.8,3.3-3.4,4.5l-0.4-0.6c1.5-1,2.6-2.3,3.3-3.9H82v-0.6H85.3z M93.3,424.4
	h0.9c0.3-0.5,0.5-1,0.7-1.6l0.6,0.2c-0.2,0.5-0.4,1-0.6,1.4H96v0.6h-4.5v-0.6h1.2c-0.2-0.5-0.4-0.9-0.6-1.3l0.6-0.2
	C93,423.3,93.2,423.8,93.3,424.4z M93.5,421.9c-0.1-0.3-0.2-0.6-0.3-0.8l0.7-0.1c0.1,0.3,0.2,0.6,0.3,0.9H96v0.6h-4.3v-0.6H93.5z
	 M95.6,429.2H95v-0.5h-2.3v0.5h-0.6v-3.4h3.6L95.6,429.2L95.6,429.2z M95,428.1v-1.7h-2.3v1.7H95z M99.4,421.4v0.5
	c-0.3,0.9-0.6,1.8-0.9,2.6c0.7,0.8,1,1.5,1,2.1s-0.1,0.9-0.4,1.2c-0.3,0.2-0.7,0.3-1.5,0.3l-0.2-0.7c0.3,0,0.5,0,0.6,0
	c0.3,0,0.5-0.1,0.6-0.2s0.1-0.3,0.1-0.7c0-0.5-0.4-1.2-1.1-2.1c0.3-0.7,0.6-1.6,0.9-2.5H97v7.3h-0.6v-7.9h3.1V421.4z"/>
<path class="st0" d="M93.5,530.4v-8.2c0-1.9-1.4-3.3-3.5-3.3s-3.5,1.4-3.5,3.3v8.2c0,1.9,1.4,3.5,3.5,3.5S93.5,532.2,93.5,530.4z
	 M95.4,528.9v2c0,2.6-2.4,4.7-5.4,4.7s-5.4-2.1-5.4-4.7v-2H83v2c0,3.1,2.3,5.6,5.8,6v3h-2.3v1h7v-1h-2.3v-3c3.5-0.3,5.8-2.8,5.8-6
	v-2H95.4z"/>
<path class="st1" d="M83.4,506.4v-0.5h-3.2v-2.4h3.2v-0.7h1v0.7h3.2v2.4h-3.2v0.5h4.4v0.9H79v-0.9H83.4z M84.5,509.3
	c-0.2,1.3-0.5,2.2-1,2.7c-0.6,0.6-1.9,0.9-4,1.1l-0.4-0.9c1.8-0.1,3-0.3,3.6-0.8c0.5-0.4,0.8-1.1,0.9-2.1L84.5,509.3z M87.5,511.1
	h-1v-2.4h-5.1v2.5h-1v-3.4h7.1V511.1z M83.4,504.4h-2.2v0.7h2.2V504.4z M88.8,512.2l-0.6,0.9c-1.3-0.6-2.6-1-4-1.4l0.5-0.8
	C86.2,511.3,87.6,511.7,88.8,512.2z M86.6,504.4h-2.2v0.7h2.2V504.4z M95.1,503.2v0.8c-0.4,0.9-0.8,1.9-1.2,3c0.7,1,1.1,1.9,1.2,2.6
	c0,0.5-0.1,0.9-0.3,1.1c-0.3,0.3-0.9,0.4-1.8,0.4l-0.3-1c0.2,0,0.4,0.1,0.6,0.1c0.3,0,0.6-0.1,0.7-0.1c0.1-0.1,0.2-0.2,0.2-0.4
	c0-0.7-0.4-1.6-1.2-2.5c0.5-1.1,0.9-2.1,1.2-3h-1.7v8.8h-1v-9.8H95.1z M100.7,513h-1v-0.8h-3.1v0.8h-1v-9.6h5.1V513z M99.7,507.3
	v-2.9h-3.1v2.9H99.7z M99.7,511.1v-2.9h-3.1v2.9H99.7z"/>
<path class="st1" d="M69.1,487v7.9h-1.2v-6.4c-0.5,0.5-1.1,0.8-1.8,1v-1.2c0.4-0.1,0.7-0.2,1.1-0.5c0.4-0.2,0.7-0.5,1-0.8H69.1z
	 M76.6,488c0.5,0.7,0.7,1.7,0.7,2.9c0,1.2-0.2,2.2-0.7,2.9c-0.5,0.8-1.2,1.2-2.1,1.2s-1.6-0.4-2.1-1.2c-0.5-0.7-0.7-1.7-0.7-2.9
	c0-1.2,0.2-2.2,0.7-2.9c0.5-0.8,1.2-1.2,2.1-1.2S76.1,487.2,76.6,488z M73.1,488.9c-0.2,0.5-0.3,1.2-0.3,2s0.1,1.5,0.3,2
	c0.3,0.7,0.7,1.1,1.4,1.1c0.6,0,1.1-0.4,1.4-1.1c0.2-0.5,0.3-1.2,0.3-2s-0.1-1.5-0.3-2c-0.3-0.7-0.7-1.1-1.4-1.1
	C73.9,487.9,73.4,488.2,73.1,488.9z M81.2,496.1l-0.8-0.7c0.7-1,1-2.2,1.1-3.7v-5.4H88v8.6c0,0.7-0.4,1.1-1.1,1.1h-1.4l-0.3-1
	c0.5,0,0.9,0,1.4,0c0.2,0,0.4-0.2,0.4-0.4v-1.9h-4.5C82.3,494,81.8,495.1,81.2,496.1z M86.9,487.2h-4.5v1.7h4.5V487.2z M82.5,491.6
	H87v-1.7h-4.5V491.6z M94.5,487v7.9h-1.2v-6.4c-0.5,0.5-1.1,0.8-1.8,1v-1.2c0.4-0.1,0.7-0.2,1.1-0.5c0.4-0.2,0.7-0.5,1-0.8H94.5z
	 M101.9,487.5c0.5,0.4,0.7,1,0.7,1.7s-0.3,1.3-0.8,1.9c-0.3,0.3-0.8,0.7-1.6,1.3c-0.8,0.6-1.4,1.1-1.5,1.5h3.9v1.1h-5.4
	c0-0.8,0.3-1.5,0.8-2.1c0.3-0.3,0.9-0.8,1.8-1.4c0.5-0.4,0.9-0.7,1.1-0.9c0.4-0.4,0.5-0.8,0.5-1.3c0-0.4-0.1-0.8-0.4-1
	s-0.6-0.3-1.1-0.3s-0.9,0.2-1.1,0.5c-0.3,0.3-0.4,0.8-0.4,1.4h-1.2c0-0.9,0.3-1.6,0.8-2.1c0.5-0.6,1.2-0.8,2-0.8
	C100.8,486.9,101.4,487.1,101.9,487.5z M113.4,495.9h-1v-0.8h-5v0.8h-1v-9.7h7.1L113.4,495.9L113.4,495.9z M112.4,490.1v-2.8h-5v2.8
	H112.4z M112.4,494.2v-3.1h-5v3.1H112.4z"/>
<path class="st1" d="M57.2,584.4v6.4h-0.7v-5.5c-0.4,0.4-0.9,0.7-1.5,0.9v-0.7c0.3-0.1,0.6-0.2,0.9-0.4c0.3-0.2,0.6-0.4,0.8-0.7
	H57.2z M63.3,584.8c0.3,0.3,0.5,0.7,0.5,1.2c0,0.3-0.1,0.6-0.2,0.9c-0.2,0.3-0.4,0.4-0.8,0.6l0,0c0.3,0.1,0.6,0.3,0.9,0.6
	c0.3,0.3,0.4,0.7,0.4,1.1c0,0.6-0.2,1-0.6,1.4c-0.4,0.4-1,0.5-1.7,0.5s-1.3-0.2-1.7-0.5s-0.6-0.8-0.6-1.4c0-0.4,0.1-0.8,0.4-1.1
	c0.2-0.3,0.5-0.5,0.9-0.6l0,0c-0.3-0.1-0.6-0.3-0.8-0.6c-0.2-0.2-0.2-0.5-0.2-0.9c0-0.5,0.2-0.9,0.5-1.2c0.4-0.4,0.9-0.5,1.6-0.5
	C62.4,584.3,62.9,584.5,63.3,584.8z M60.5,588.2c-0.3,0.2-0.4,0.5-0.4,0.9s0.1,0.7,0.4,0.9c0.3,0.2,0.7,0.4,1.2,0.4s0.9-0.1,1.2-0.4
	c0.3-0.2,0.4-0.5,0.4-0.9s-0.1-0.7-0.4-0.9c-0.3-0.3-0.7-0.4-1.2-0.4S60.8,587.9,60.5,588.2z M60.7,585.3c-0.2,0.2-0.3,0.5-0.3,0.8
	s0.1,0.6,0.3,0.8s0.6,0.4,1.1,0.4s0.9-0.1,1.1-0.4c0.2-0.2,0.3-0.5,0.3-0.8s-0.1-0.6-0.3-0.8c-0.3-0.2-0.6-0.4-1.1-0.4
	C61.3,584.9,60.9,585,60.7,585.3z M68,585.6c0.1,0.1,0.2,0.2,0.2,0.4s-0.1,0.3-0.2,0.4c-0.1,0.1-0.2,0.2-0.4,0.2s-0.3-0.1-0.4-0.2
	c-0.1-0.1-0.2-0.2-0.2-0.4s0-0.3,0.2-0.4c0.1-0.1,0.2-0.2,0.4-0.2S67.9,585.5,68,585.6z M68,588.9c0.1,0.1,0.2,0.2,0.2,0.4
	s-0.1,0.3-0.2,0.4c-0.1,0.1-0.2,0.2-0.4,0.2s-0.3-0.1-0.4-0.2c-0.1-0.1-0.2-0.2-0.2-0.4s0-0.3,0.2-0.4c0.1-0.1,0.2-0.2,0.4-0.2
	S67.9,588.7,68,588.9z M79.5,584.8c0.4,0.3,0.6,0.7,0.6,1.3c0,0.7-0.4,1.2-1.1,1.4c0.4,0.1,0.7,0.3,0.9,0.5c0.2,0.3,0.3,0.6,0.3,0.9
	c0,0.6-0.2,1.1-0.6,1.4c-0.4,0.4-1,0.6-1.6,0.6s-1.1-0.2-1.5-0.5c-0.5-0.4-0.7-0.9-0.8-1.6h0.7c0,0.5,0.2,0.9,0.5,1.2
	c0.3,0.2,0.6,0.3,1,0.3c0.5,0,0.8-0.1,1.1-0.4c0.3-0.3,0.4-0.6,0.4-0.9c0-0.4-0.1-0.7-0.4-0.9s-0.6-0.3-1-0.3h-0.5v-0.6H78
	c0.4,0,0.8-0.1,1-0.3s0.3-0.5,0.3-0.8s-0.1-0.6-0.3-0.8c-0.2-0.2-0.6-0.3-1-0.3s-0.8,0.1-1,0.3c-0.3,0.2-0.4,0.6-0.4,1h-0.7
	c0.1-0.6,0.3-1.1,0.7-1.5c0.4-0.4,0.9-0.5,1.5-0.5S79.1,584.5,79.5,584.8z M86,585.3c0.3,0.6,0.5,1.4,0.5,2.3s-0.2,1.7-0.5,2.3
	c-0.4,0.7-1,1-1.7,1c-0.8,0-1.4-0.3-1.7-1c-0.3-0.6-0.5-1.4-0.5-2.3s0.2-1.7,0.5-2.3c0.4-0.7,1-1,1.7-1S85.6,584.7,86,585.3z
	 M83,585.9c-0.2,0.4-0.3,1-0.3,1.8c0,0.7,0.1,1.3,0.3,1.8c0.3,0.6,0.7,0.9,1.2,0.9s1-0.3,1.2-0.9c0.2-0.4,0.3-1,0.3-1.8
	s-0.1-1.4-0.3-1.8c-0.3-0.6-0.7-0.9-1.2-0.9S83.2,585.3,83,585.9z M92.8,588.2v0.6h-4.5v-0.6H92.8z M98.4,584.8
	c0.4,0.3,0.6,0.8,0.6,1.4s-0.2,1.1-0.6,1.5c-0.2,0.2-0.7,0.6-1.3,1c-0.8,0.5-1.3,1-1.4,1.5H99v0.7h-4.3c0-0.6,0.2-1.1,0.6-1.6
	c0.3-0.3,0.7-0.7,1.4-1.1c0.5-0.4,0.8-0.6,1-0.8c0.3-0.4,0.5-0.7,0.5-1.2c0-0.4-0.1-0.7-0.4-0.9s-0.6-0.3-1-0.3s-0.8,0.1-1,0.5
	c-0.3,0.3-0.4,0.7-0.4,1.3h-0.7c0-0.7,0.2-1.3,0.6-1.7s0.9-0.6,1.6-0.6C97.6,584.3,98,584.5,98.4,584.8z M103.1,584.4v6.4h-0.7v-5.5
	c-0.4,0.4-0.9,0.7-1.5,0.9v-0.7c0.3-0.1,0.6-0.2,0.9-0.4s0.6-0.4,0.8-0.7H103.1z M107.6,585.6c0.1,0.1,0.2,0.2,0.2,0.4
	s-0.1,0.3-0.2,0.4c-0.1,0.1-0.2,0.2-0.4,0.2s-0.3-0.1-0.4-0.2c-0.1-0.1-0.2-0.2-0.2-0.4s0-0.3,0.2-0.4c0.1-0.1,0.2-0.2,0.4-0.2
	S107.5,585.5,107.6,585.6z M107.6,588.9c0.1,0.1,0.2,0.2,0.2,0.4s-0.1,0.3-0.2,0.4c-0.1,0.1-0.2,0.2-0.4,0.2s-0.3-0.1-0.4-0.2
	c-0.1-0.1-0.2-0.2-0.2-0.4s0-0.3,0.2-0.4c0.1-0.1,0.2-0.2,0.4-0.2S107.5,588.7,107.6,588.9z M119.1,584.8c0.4,0.3,0.6,0.7,0.6,1.3
	c0,0.7-0.4,1.2-1.1,1.4c0.4,0.1,0.7,0.3,0.9,0.5c0.2,0.3,0.3,0.6,0.3,0.9c0,0.6-0.2,1.1-0.6,1.4c-0.4,0.4-1,0.6-1.6,0.6
	s-1.1-0.2-1.5-0.5c-0.5-0.4-0.7-0.9-0.8-1.6h0.7c0,0.5,0.2,0.9,0.5,1.2c0.3,0.2,0.6,0.3,1,0.3c0.5,0,0.8-0.1,1.1-0.4
	c0.3-0.3,0.4-0.6,0.4-0.9c0-0.4-0.1-0.7-0.4-0.9s-0.6-0.3-1-0.3h-0.5v-0.6h0.5c0.4,0,0.8-0.1,1-0.3s0.3-0.5,0.3-0.8
	s-0.1-0.6-0.3-0.8c-0.2-0.2-0.6-0.3-1-0.3s-0.8,0.1-1,0.3c-0.3,0.2-0.4,0.6-0.4,1h-0.7c0.1-0.6,0.3-1.1,0.7-1.5
	c0.4-0.4,0.9-0.5,1.5-0.5S118.8,584.5,119.1,584.8z M125.6,585.3c0.3,0.6,0.5,1.4,0.5,2.3s-0.2,1.7-0.5,2.3c-0.4,0.7-1,1-1.7,1
	c-0.8,0-1.4-0.3-1.7-1c-0.3-0.6-0.5-1.4-0.5-2.3s0.2-1.7,0.5-2.3c0.4-0.7,1-1,1.7-1S125.2,584.7,125.6,585.3z M122.6,585.9
	c-0.2,0.4-0.3,1-0.3,1.8c0,0.7,0.1,1.3,0.3,1.8c0.3,0.6,0.7,0.9,1.2,0.9s1-0.3,1.2-0.9c0.2-0.4,0.3-1,0.3-1.8s-0.1-1.4-0.3-1.8
	c-0.3-0.6-0.7-0.9-1.2-0.9S122.9,585.3,122.6,585.9z"/>
<path class="st2" d="M70,554.9v-0.6h-3.5v-2.6H70V551h1.1v0.7h3.5v2.6h-3.5v0.6H76v1H65.2v-1H70z M71.3,558
	c-0.2,1.5-0.5,2.4-1.1,2.9c-0.6,0.6-2.1,1-4.4,1.2l-0.5-1c2-0.1,3.3-0.4,3.9-0.8c0.6-0.5,0.9-1.2,1-2.3L71.3,558z M74.5,560h-1.1
	v-2.6h-5.6v2.7h-1.1v-3.7h7.8C74.5,556.4,74.5,560,74.5,560z M70,552.7h-2.4v0.8H70V552.7z M75.9,561.3l-0.6,0.9
	c-1.4-0.6-2.9-1.1-4.3-1.5l0.6-0.9C73.1,560.2,74.6,560.7,75.9,561.3z M73.6,552.7h-2.4v0.8h2.4V552.7z M80.3,554.2
	c-0.1,1.2-0.4,2.4-0.8,3.5l-1-0.3c0.4-1.1,0.7-2.2,0.9-3.5L80.3,554.2z M84,557.2l-0.9,0.5c-0.3-1-0.7-2-1.1-2.8l0,0
	c0,3.3-0.8,5.7-2.3,7.2l-0.8-0.7c1.3-1.4,2-3.5,2-6.5v-3.7H82v3.4l0.8-0.3C83.2,555.1,83.7,556.1,84,557.2z M85.4,551.5v2.9l0.7-0.3
	c0.5,0.9,0.9,1.9,1.3,2.9l-0.9,0.5c-0.3-1-0.7-1.9-1.1-2.7v6.9h-1.1v-10.2L85.4,551.5L85.4,551.5z M88.7,551.1v11h-1.1v-11H88.7z
	 M96.3,554.1c0.1-0.6,0.1-1.3,0.1-2v-1h1.2v0.8c0,0.8,0,1.5-0.1,2.3h4.9v1.1h-4.6c0.8,2.6,2.5,4.5,4.8,5.9l-0.7,0.9
	c-2.3-1.4-3.9-3.4-4.8-5.9c-0.8,2.7-2.4,4.8-4.8,6l-0.7-1c2.5-1.2,4-3.2,4.7-6h-4.4v-1.1H96.3z M115.4,556.3h-1.1v-1.8h-8.1v1.8H105
	v-2.9h2.2c-0.4-0.6-0.8-1.2-1.2-1.7l1-0.5c0.4,0.6,0.8,1.2,1.2,1.8l-0.8,0.4h4.5c0.5-0.7,0.9-1.5,1.3-2.4l1.2,0.4
	c-0.4,0.8-0.8,1.4-1.2,2h2.2C115.4,553.4,115.4,556.3,115.4,556.3z M113.4,555.2v1c-0.8,0.5-1.6,1-2.5,1.4v0.4h4.5v1.1h-4.5v1.8
	c0,0.7-0.4,1.1-1.1,1.1h-1.5l-0.3-1c0.4,0,0.9,0,1.4,0c0.3,0,0.4-0.2,0.4-0.5v-1.4H105V558h4.7v-0.9c0.8-0.4,1.5-0.7,2-0.9H107v-1
	L113.4,555.2L113.4,555.2z M111,552.9l-1,0.5c-0.4-0.7-0.7-1.4-1.2-2l1-0.5C110.3,551.5,110.7,552.2,111,552.9z"/>
<path class="st2" d="M79.3,569.5v8.2h-0.7v-1.5c-0.7,0.3-1.5,0.6-2.4,0.9l-0.2-0.6c0.9-0.2,1.7-0.5,2.5-0.9v-2.9h-2.4V572h2.4v-2.5
	H79.3z M81.7,577.6c-0.6,0-0.8-0.3-0.8-0.9v-7.2h0.7v3c0.8-0.3,1.5-0.7,2.3-1.2l0.4,0.5c-0.9,0.6-1.8,1-2.7,1.3v3.5
	c0,0.3,0.1,0.4,0.3,0.4H83c0.2,0,0.3-0.1,0.4-0.2c0.1-0.2,0.1-0.7,0.2-1.6l0.6,0.2c-0.1,1.1-0.1,1.7-0.3,1.9
	c-0.1,0.2-0.4,0.3-0.8,0.3H81.7z M87.3,571.3v-1.7H88v1.7h0.9v0.6H88v0.7c0.3,0.4,0.6,0.8,0.9,1.2c0.5-0.6,1-1.3,1.4-2.1l0.5,0.3
	c-0.4,0.9-0.9,1.6-1.5,2.3l-0.4-0.3l0.2,0.3l-0.4,0.5c-0.3-0.6-0.6-1.1-0.9-1.5v4.5h-0.7v-4.6c-0.3,0.9-0.7,1.7-1.2,2.4l-0.3-0.7
	c0.7-0.9,1.2-1.8,1.4-3h-1.2v-0.6L87.3,571.3L87.3,571.3z M93,573.4c-0.2,1-0.5,1.8-1,2.4c0.6,0.5,1.3,0.9,2.2,1.3l-0.3,0.6
	c-0.9-0.4-1.7-0.8-2.3-1.4c-0.6,0.7-1.4,1.1-2.4,1.4l-0.4-0.6c1-0.3,1.7-0.7,2.3-1.3c-0.6-0.7-0.9-1.5-1.1-2.4l0.6-0.2
	c0.1,0.8,0.4,1.4,0.9,2c0.4-0.6,0.7-1.3,0.8-2.1L93,573.4z M91.4,570.7c-0.2-0.4-0.3-0.8-0.5-1.1l0.7-0.1c0.2,0.4,0.4,0.8,0.5,1.3h2
	v0.6h-4.8v-0.6h2.1V570.7z M94.2,573.8l-0.5,0.4c-0.4-0.7-0.9-1.4-1.5-2.2l0.5-0.3C93.3,572.5,93.8,573.2,94.2,573.8z M103.7,569.9
	v0.6h-6.5v6.3h6.8v0.6h-7.4v-7.5L103.7,569.9L103.7,569.9z M100.7,573.2c0.5-0.7,1-1.4,1.3-2.3l0.6,0.3c-0.4,0.9-0.9,1.7-1.4,2.4
	c0.7,0.6,1.3,1.3,1.9,1.9l-0.5,0.5c-0.5-0.6-1.1-1.3-1.8-1.9c-0.8,0.8-1.7,1.5-2.7,1.9l-0.4-0.6c1-0.4,1.9-1,2.6-1.8
	c-0.7-0.6-1.5-1.3-2.4-1.9l0.5-0.5C99.2,572,100,572.6,100.7,573.2z"/>
<path class="st0" d="M213,530.4v-8.2c0-1.9-1.2-3.3-3-3.3s-3,1.4-3,3.3v8.2c0,1.9,1.2,3.5,3,3.5S213,532.2,213,530.4z M214.7,528.9
	v2c0,2.6-2.1,4.7-4.7,4.7c-2.6,0-4.7-2.1-4.7-4.7v-2H204v2c0,3.1,2,5.6,5,6v3h-2v1h6v-1h-2v-3c3-0.3,5-2.8,5-6v-2H214.7z"/>
<path class="st1" d="M203,502.9v10h-1.1v-1.7c-0.9,0.4-1.8,0.7-2.8,1l-0.3-1c1-0.2,2-0.6,3-1v-3.3H199v-1h2.8v-3L203,502.9
	L203,502.9z M205.8,512.8c-0.8,0-1.2-0.4-1.2-1.2v-8.7h1v3.6c0.9-0.3,1.8-0.8,2.6-1.4l0.6,0.8c-1.1,0.7-2.2,1.2-3.2,1.5v4
	c0,0.3,0.1,0.4,0.4,0.4h1.3c0.2,0,0.4-0.1,0.5-0.3c0.1-0.2,0.1-0.8,0.2-1.8l1,0.3c-0.1,1.3-0.2,2.1-0.4,2.3c-0.2,0.3-0.5,0.4-1,0.4
	L205.8,512.8L205.8,512.8z M214.2,510.3c-0.7,1-1.5,1.8-2.5,2.5L211,512c1-0.7,1.8-1.4,2.4-2.3L214.2,510.3z M216.5,504h4.4v1h-9.8
	v-1h4.3c-0.1-0.4-0.3-0.7-0.4-1l1.1-0.2C216.2,503.1,216.3,503.5,216.5,504z M219.6,505.8v3.3h-3.1v2.8c0,0.7-0.4,1.1-1.1,1.1h-1.2
	l-0.2-1c0.4,0,0.7,0.1,1.1,0.1c0.3,0,0.4-0.1,0.4-0.4v-2.5h-3.1v-3.3L219.6,505.8L219.6,505.8z M218.6,506.8h-5.2v1.3h5.2V506.8z
	 M220.9,512l-0.8,0.8c-0.6-0.8-1.4-1.6-2.4-2.5l0.7-0.7C219.5,510.4,220.3,511.2,220.9,512z"/>
<path class="st1" d="M188.1,487v7.9h-1.2v-6.4c-0.5,0.5-1.1,0.8-1.8,1v-1.2c0.4-0.1,0.7-0.2,1.1-0.5c0.4-0.2,0.7-0.5,1-0.8H188.1z
	 M195.6,488c0.5,0.7,0.7,1.7,0.7,2.9c0,1.2-0.2,2.2-0.7,2.9c-0.5,0.8-1.2,1.2-2.1,1.2s-1.6-0.4-2.1-1.2c-0.5-0.7-0.7-1.7-0.7-2.9
	c0-1.2,0.2-2.2,0.7-2.9c0.5-0.8,1.2-1.2,2.1-1.2S195.1,487.2,195.6,488z M192.1,488.9c-0.2,0.5-0.3,1.2-0.3,2s0.1,1.5,0.3,2
	c0.3,0.7,0.7,1.1,1.4,1.1c0.6,0,1.1-0.4,1.4-1.1c0.2-0.5,0.3-1.2,0.3-2s-0.1-1.5-0.3-2c-0.3-0.7-0.7-1.1-1.4-1.1
	C192.9,487.9,192.4,488.2,192.1,488.9z M200.2,496.1l-0.8-0.7c0.7-1,1-2.2,1.1-3.7v-5.4h6.6v8.6c0,0.7-0.4,1.1-1.1,1.1h-1.4l-0.3-1
	c0.5,0,0.9,0,1.4,0c0.2,0,0.4-0.2,0.4-0.4v-1.9h-4.5C201.3,494,200.8,495.1,200.2,496.1z M205.9,487.2h-4.5v1.7h4.5V487.2z
	 M201.5,491.6h4.5v-1.7h-4.5V491.6z M213.5,487v7.9h-1.2v-6.4c-0.5,0.5-1.1,0.8-1.8,1v-1.2c0.4-0.1,0.7-0.2,1.1-0.5
	c0.4-0.2,0.7-0.5,1-0.8H213.5z M220.9,487.5c0.4,0.4,0.7,0.9,0.7,1.5c0,0.4-0.1,0.7-0.3,1s-0.5,0.5-0.9,0.7l0,0
	c0.4,0.1,0.7,0.3,1,0.7c0.3,0.4,0.5,0.8,0.5,1.3c0,0.7-0.3,1.3-0.8,1.7c-0.5,0.4-1.2,0.6-2.2,0.6c-0.9,0-1.7-0.2-2.2-0.6
	s-0.8-1-0.8-1.7c0-0.5,0.2-0.9,0.5-1.3s0.6-0.6,1-0.7l0,0c-0.4-0.2-0.7-0.4-0.9-0.7c-0.2-0.3-0.3-0.6-0.3-1c0-0.6,0.2-1.1,0.7-1.5
	s1.2-0.7,2-0.7S220.4,487.1,220.9,487.5z M217.6,491.6c-0.3,0.3-0.4,0.6-0.4,1s0.1,0.7,0.5,1c0.3,0.3,0.7,0.4,1.3,0.4s1-0.1,1.3-0.4
	s0.4-0.6,0.4-1s-0.1-0.8-0.4-1c-0.3-0.3-0.7-0.4-1.3-0.4S217.9,491.4,217.6,491.6z M217.7,488.2c-0.3,0.2-0.4,0.5-0.4,0.8
	c0,0.4,0.1,0.7,0.3,0.9c0.3,0.3,0.7,0.4,1.2,0.4c0.6,0,1-0.1,1.2-0.4c0.2-0.2,0.3-0.5,0.3-0.9c0-0.3-0.1-0.6-0.4-0.8
	c-0.3-0.3-0.7-0.4-1.2-0.4S218,487.9,217.7,488.2z M232.4,495.9h-1v-0.8h-5v0.8h-1v-9.7h7.1v9.7H232.4z M231.4,490.1v-2.8h-5v2.8
	H231.4z M231.4,494.2v-3.1h-5v3.1H231.4z"/>
<path class="st1" d="M176.2,584.4v6.4h-0.7v-5.5c-0.4,0.4-0.9,0.7-1.5,0.9v-0.7c0.3-0.1,0.6-0.2,0.9-0.4c0.3-0.2,0.6-0.4,0.8-0.7
	H176.2z M182.3,584.8c0.3,0.3,0.5,0.7,0.5,1.2c0,0.3-0.1,0.6-0.2,0.9c-0.2,0.3-0.4,0.4-0.8,0.6l0,0c0.3,0.1,0.6,0.3,0.9,0.6
	c0.3,0.3,0.4,0.7,0.4,1.1c0,0.6-0.2,1-0.6,1.4c-0.4,0.4-1,0.5-1.7,0.5s-1.3-0.2-1.7-0.5s-0.6-0.8-0.6-1.4c0-0.4,0.1-0.8,0.4-1.1
	c0.2-0.3,0.5-0.5,0.9-0.6l0,0c-0.3-0.1-0.6-0.3-0.8-0.6c-0.2-0.2-0.2-0.5-0.2-0.9c0-0.5,0.2-0.9,0.5-1.2c0.4-0.4,0.9-0.5,1.6-0.5
	C181.4,584.3,181.9,584.5,182.3,584.8z M179.5,588.2c-0.3,0.2-0.4,0.5-0.4,0.9s0.1,0.7,0.4,0.9c0.3,0.2,0.7,0.4,1.2,0.4
	s0.9-0.1,1.2-0.4c0.3-0.2,0.4-0.5,0.4-0.9s-0.1-0.7-0.4-0.9c-0.3-0.3-0.7-0.4-1.2-0.4S179.8,587.9,179.5,588.2z M179.7,585.3
	c-0.2,0.2-0.3,0.5-0.3,0.8s0.1,0.6,0.3,0.8s0.6,0.4,1.1,0.4s0.9-0.1,1.1-0.4c0.2-0.2,0.3-0.5,0.3-0.8s-0.1-0.6-0.3-0.8
	c-0.3-0.2-0.6-0.4-1.1-0.4C180.3,584.9,179.9,585,179.7,585.3z M187,585.6c0.1,0.1,0.2,0.2,0.2,0.4s-0.1,0.3-0.2,0.4
	c-0.1,0.1-0.2,0.2-0.4,0.2s-0.3-0.1-0.4-0.2c-0.1-0.1-0.2-0.2-0.2-0.4s0-0.3,0.2-0.4c0.1-0.1,0.2-0.2,0.4-0.2S186.9,585.5,187,585.6
	z M187,588.9c0.1,0.1,0.2,0.2,0.2,0.4s-0.1,0.3-0.2,0.4c-0.1,0.1-0.2,0.2-0.4,0.2s-0.3-0.1-0.4-0.2c-0.1-0.1-0.2-0.2-0.2-0.4
	s0-0.3,0.2-0.4c0.1-0.1,0.2-0.2,0.4-0.2S186.9,588.7,187,588.9z M198.5,584.8c0.4,0.3,0.6,0.7,0.6,1.3c0,0.7-0.4,1.2-1.1,1.4
	c0.4,0.1,0.7,0.3,0.9,0.5c0.2,0.3,0.3,0.6,0.3,0.9c0,0.6-0.2,1.1-0.6,1.4c-0.4,0.4-1,0.6-1.6,0.6s-1.1-0.2-1.5-0.5
	c-0.5-0.4-0.7-0.9-0.8-1.6h0.7c0,0.5,0.2,0.9,0.5,1.2c0.3,0.2,0.6,0.3,1,0.3c0.5,0,0.8-0.1,1.1-0.4c0.3-0.3,0.4-0.6,0.4-0.9
	c0-0.4-0.1-0.7-0.4-0.9s-0.6-0.3-1-0.3h-0.5v-0.6h0.5c0.4,0,0.8-0.1,1-0.3s0.3-0.5,0.3-0.8s-0.1-0.6-0.3-0.8s-0.6-0.3-1-0.3
	s-0.8,0.1-1,0.3c-0.3,0.2-0.4,0.6-0.4,1h-0.7c0.1-0.6,0.3-1.1,0.7-1.5s0.9-0.5,1.5-0.5S198.1,584.5,198.5,584.8z M205,585.3
	c0.3,0.6,0.5,1.4,0.5,2.3s-0.2,1.7-0.5,2.3c-0.4,0.7-1,1-1.7,1c-0.8,0-1.4-0.3-1.7-1c-0.3-0.6-0.5-1.4-0.5-2.3s0.2-1.7,0.5-2.3
	c0.4-0.7,1-1,1.7-1S204.6,584.7,205,585.3z M202,585.9c-0.2,0.4-0.3,1-0.3,1.8c0,0.7,0.1,1.3,0.3,1.8c0.3,0.6,0.7,0.9,1.2,0.9
	s1-0.3,1.2-0.9c0.2-0.4,0.3-1,0.3-1.8s-0.1-1.4-0.3-1.8c-0.3-0.6-0.7-0.9-1.2-0.9S202.2,585.3,202,585.9z M211.8,588.2v0.6h-4.5
	v-0.6H211.8z M217.4,584.8c0.4,0.3,0.6,0.8,0.6,1.4s-0.2,1.1-0.6,1.5c-0.2,0.2-0.7,0.6-1.3,1c-0.8,0.5-1.3,1-1.4,1.5h3.4v0.7h-4.3
	c0-0.6,0.2-1.1,0.6-1.6c0.3-0.3,0.7-0.7,1.4-1.1c0.5-0.4,0.8-0.6,1-0.8c0.3-0.4,0.5-0.7,0.5-1.2c0-0.4-0.1-0.7-0.4-0.9
	s-0.6-0.3-1-0.3s-0.8,0.1-1,0.5c-0.3,0.3-0.4,0.7-0.4,1.3h-0.7c0-0.7,0.2-1.3,0.6-1.7c0.4-0.4,0.9-0.6,1.6-0.6
	C216.6,584.3,217,584.5,217.4,584.8z M222.1,584.4v6.4h-0.7v-5.5c-0.4,0.4-0.9,0.7-1.5,0.9v-0.7c0.3-0.1,0.6-0.2,0.9-0.4
	c0.3-0.2,0.6-0.4,0.8-0.7H222.1z M226.6,585.6c0.1,0.1,0.2,0.2,0.2,0.4s-0.1,0.3-0.2,0.4c-0.1,0.1-0.2,0.2-0.4,0.2s-0.3-0.1-0.4-0.2
	c-0.1-0.1-0.2-0.2-0.2-0.4s0-0.3,0.2-0.4c0.1-0.1,0.2-0.2,0.4-0.2S226.5,585.5,226.6,585.6z M226.6,588.9c0.1,0.1,0.2,0.2,0.2,0.4
	s-0.1,0.3-0.2,0.4c-0.1,0.1-0.2,0.2-0.4,0.2s-0.3-0.1-0.4-0.2c-0.1-0.1-0.2-0.2-0.2-0.4s0-0.3,0.2-0.4c0.1-0.1,0.2-0.2,0.4-0.2
	S226.5,588.7,226.6,588.9z M238.1,584.8c0.4,0.3,0.6,0.7,0.6,1.3c0,0.7-0.4,1.2-1.1,1.4c0.4,0.1,0.7,0.3,0.9,0.5
	c0.2,0.3,0.3,0.6,0.3,0.9c0,0.6-0.2,1.1-0.6,1.4c-0.4,0.4-1,0.6-1.6,0.6s-1.1-0.2-1.5-0.5c-0.5-0.4-0.7-0.9-0.8-1.6h0.7
	c0,0.5,0.2,0.9,0.5,1.2c0.3,0.2,0.6,0.3,1,0.3c0.5,0,0.8-0.1,1.1-0.4c0.3-0.3,0.4-0.6,0.4-0.9c0-0.4-0.1-0.7-0.4-0.9s-0.6-0.3-1-0.3
	h-0.5v-0.6h0.5c0.4,0,0.8-0.1,1-0.3s0.3-0.5,0.3-0.8s-0.1-0.6-0.3-0.8s-0.6-0.3-1-0.3s-0.8,0.1-1,0.3c-0.3,0.2-0.4,0.6-0.4,1h-0.7
	c0.1-0.6,0.3-1.1,0.7-1.5s0.9-0.5,1.5-0.5S237.8,584.5,238.1,584.8z M244.6,585.3c0.3,0.6,0.5,1.4,0.5,2.3s-0.2,1.7-0.5,2.3
	c-0.4,0.7-1,1-1.7,1c-0.8,0-1.4-0.3-1.7-1c-0.3-0.6-0.5-1.4-0.5-2.3s0.2-1.7,0.5-2.3c0.4-0.7,1-1,1.7-1S244.2,584.7,244.6,585.3z
	 M241.6,585.9c-0.2,0.4-0.3,1-0.3,1.8c0,0.7,0.1,1.3,0.3,1.8c0.3,0.6,0.7,0.9,1.2,0.9s1-0.3,1.2-0.9c0.2-0.4,0.3-1,0.3-1.8
	s-0.1-1.4-0.3-1.8c-0.3-0.6-0.7-0.9-1.2-0.9S241.9,585.3,241.6,585.9z"/>
<path class="st2" d="M186.9,555.8l-0.8,0.8c-0.5-0.5-1.1-1.1-1.9-1.8l0.8-0.8C185.8,554.6,186.4,555.2,186.9,555.8z M187,557.8
	c-0.5,1.5-1,2.9-1.6,4.2l-1.1-0.5c0.6-1.3,1.2-2.7,1.6-4.1L187,557.8z M187.2,552.7l-0.8,0.8c-0.4-0.5-1-1-1.8-1.6l0.8-0.8
	C186.1,551.6,186.7,552.2,187.2,552.7z M191.7,551v0.7h3.1v0.9h-3.1v0.6h2.6v0.9h-2.6v0.6h3.4v0.9h-7.9v-0.9h3.4v-0.6H188v-0.9h2.5
	v-0.6h-3v-0.9h3V551H191.7z M189.3,562.1h-1.1v-5.9h5.9v4.7c0,0.7-0.4,1.1-1.1,1.1h-1.1l-0.3-1l1.1,0.1c0.2,0,0.3-0.1,0.3-0.4v-0.5
	h-3.7L189.3,562.1L189.3,562.1z M193,557.2h-3.7v0.7h3.7V557.2z M189.3,559.4h3.7v-0.6h-3.7V559.4z M197.8,555.4l-0.4-1.2
	c1.5-0.9,2.6-2,3.3-3.2l1,0.4c-0.4,0.7-0.8,1.3-1.4,1.9v4h-1.1v-2.9C198.7,554.7,198.3,555.1,197.8,555.4z M202.2,558.1V557h1.2v1.1
	h4.7v1.1h-4.7v2.9h-1.2v-2.9h-4.6v-1.1H202.2z M204.2,556.9c-0.8,0-1.2-0.4-1.2-1.2V555c-0.5,0.2-1,0.4-1.5,0.6l-0.6-0.9
	c0.8-0.3,1.5-0.5,2.2-0.8v-2.7h1.1v2.2c1.1-0.6,2.1-1.2,2.8-1.9l0.8,0.8c-1,0.9-2.2,1.6-3.6,2.3v1c0,0.2,0.1,0.4,0.4,0.4h1.7
	c0.3,0,0.5-0.1,0.6-0.2c0.2-0.1,0.3-0.6,0.3-1.3l1.1,0.4c-0.1,1.1-0.3,1.7-0.6,1.9s-0.7,0.3-1.2,0.3h-2.3V556.9z M215.3,554.1
	c0.1-0.6,0.1-1.3,0.1-2v-1h1.2v0.8c0,0.8,0,1.5-0.1,2.3h4.9v1.1h-4.6c0.8,2.6,2.5,4.5,4.8,5.9l-0.7,0.9c-2.3-1.4-3.9-3.4-4.8-5.9
	c-0.8,2.7-2.4,4.8-4.8,6l-0.7-1c2.5-1.2,4-3.2,4.7-6h-4.4v-1.1H215.3z M234.4,556.3h-1.1v-1.8h-8.1v1.8H224v-2.9h2.2
	c-0.4-0.6-0.8-1.2-1.2-1.7l1-0.5c0.4,0.6,0.8,1.2,1.2,1.8l-0.8,0.4h4.5c0.5-0.7,0.9-1.5,1.3-2.4l1.2,0.4c-0.4,0.8-0.8,1.4-1.2,2h2.2
	V556.3z M232.4,555.2v1c-0.8,0.5-1.6,1-2.5,1.4v0.4h4.5v1.1h-4.5v1.8c0,0.7-0.4,1.1-1.1,1.1h-1.5l-0.3-1c0.4,0,0.9,0,1.4,0
	c0.3,0,0.4-0.2,0.4-0.5v-1.4H224V558h4.7v-0.9c0.8-0.4,1.5-0.7,2-0.9H226v-1L232.4,555.2L232.4,555.2z M230,552.9l-1,0.5
	c-0.4-0.7-0.7-1.4-1.2-2l1-0.5C229.3,551.5,229.7,552.2,230,552.9z"/>
<path class="st2" d="M204.8,571.2v-1.6h0.7v1.6h3.5v0.6h-3c0.6,1.4,1.7,2.7,3.2,3.8l-0.4,0.6c-1.6-1.3-2.7-2.8-3.3-4.4h-0.1v3.5h1.9
	v0.6h-1.9v1.8h-0.7v-1.8h-1.9v-0.6h1.9v-3.5h-0.1c-0.7,1.8-1.8,3.3-3.4,4.5l-0.4-0.6c1.5-1,2.6-2.3,3.3-3.9h-2.9v-0.6L204.8,571.2
	L204.8,571.2z M212.8,572.9h0.9c0.3-0.5,0.5-1,0.7-1.6l0.6,0.2c-0.2,0.5-0.4,1-0.6,1.4h1.1v0.6H211v-0.6h1.2
	c-0.2-0.5-0.4-0.9-0.6-1.3l0.6-0.2C212.4,571.8,212.6,572.3,212.8,572.9z M212.9,570.4c-0.1-0.3-0.2-0.6-0.3-0.8l0.7-0.1
	c0.1,0.3,0.2,0.6,0.3,0.9h1.8v0.6h-4.3v-0.6L212.9,570.4L212.9,570.4z M215.1,577.7h-0.6v-0.5h-2.3v0.5h-0.6v-3.4h3.6L215.1,577.7
	L215.1,577.7z M214.4,576.6v-1.7h-2.3v1.7H214.4z M218.8,569.9v0.5c-0.3,0.9-0.6,1.8-0.9,2.6c0.7,0.8,1,1.5,1,2.1s-0.1,0.9-0.4,1.2
	c-0.3,0.2-0.7,0.3-1.5,0.3l-0.2-0.7c0.3,0,0.5,0,0.6,0c0.3,0,0.5-0.1,0.6-0.2c0.1-0.1,0.1-0.3,0.1-0.7c0-0.5-0.4-1.2-1.1-2.1
	c0.3-0.7,0.6-1.6,0.9-2.5h-1.6v7.3h-0.6v-7.9h3.1V569.9z"/>
<path class="st0" d="M94,678.4v-8.2c0-1.9-1.2-3.3-3-3.3s-3,1.4-3,3.3v8.2c0,1.9,1.2,3.5,3,3.5S94,680.2,94,678.4z M95.7,676.9v2
	c0,2.6-2.1,4.7-4.7,4.7s-4.7-2.1-4.7-4.7v-2H85v2c0,3.1,2,5.6,5,6v3h-2v1h6v-1h-2v-3c3-0.3,5-2.8,5-6v-2H95.7z"/>
<path class="st1" d="M83,650.9v10h-1.1v-1.7c-0.9,0.4-1.8,0.7-2.8,1l-0.3-1c1-0.2,2-0.6,3-1v-3.3H79v-1h2.8v-3H83z M85.8,660.8
	c-0.8,0-1.2-0.4-1.2-1.2v-8.7h1v3.6c0.9-0.3,1.8-0.8,2.6-1.4l0.6,0.8c-1.1,0.7-2.2,1.2-3.2,1.5v4c0,0.3,0.1,0.4,0.4,0.4h1.3
	c0.2,0,0.4-0.1,0.5-0.3s0.1-0.8,0.2-1.8l1,0.3c-0.1,1.3-0.2,2.1-0.4,2.3c-0.2,0.3-0.5,0.4-1,0.4h-1.8V660.8z M94.2,658.3
	c-0.7,1-1.5,1.8-2.5,2.5L91,660c1-0.7,1.8-1.4,2.4-2.3L94.2,658.3z M96.5,652h4.4v1h-9.8v-1h4.3c-0.1-0.4-0.3-0.7-0.4-1l1.1-0.2
	C96.2,651.1,96.3,651.5,96.5,652z M99.6,653.8v3.3h-3.1v2.8c0,0.7-0.4,1.1-1.1,1.1h-1.2l-0.2-1c0.4,0,0.7,0.1,1.1,0.1
	c0.3,0,0.4-0.1,0.4-0.4v-2.5h-3.1v-3.3L99.6,653.8L99.6,653.8z M98.6,654.8h-5.2v1.3h5.2V654.8z M100.9,660l-0.8,0.8
	c-0.6-0.8-1.4-1.6-2.4-2.5l0.7-0.7C99.5,658.4,100.3,659.2,100.9,660z"/>
<path class="st1" d="M68.6,635v7.9h-1.2v-6.4c-0.5,0.5-1.1,0.8-1.8,1v-1.2c0.4-0.1,0.7-0.2,1.1-0.5c0.4-0.2,0.7-0.5,1-0.8H68.6z
	 M76.1,636c0.5,0.7,0.7,1.7,0.7,2.9s-0.2,2.2-0.7,2.9c-0.5,0.8-1.2,1.2-2.1,1.2s-1.6-0.4-2.1-1.2c-0.5-0.7-0.7-1.7-0.7-2.9
	s0.2-2.2,0.7-2.9c0.5-0.8,1.2-1.2,2.1-1.2S75.6,635.2,76.1,636z M72.6,636.9c-0.2,0.5-0.3,1.2-0.3,2s0.1,1.5,0.3,2
	c0.3,0.7,0.7,1.1,1.4,1.1c0.6,0,1.1-0.4,1.4-1.1c0.2-0.5,0.3-1.2,0.3-2s-0.1-1.5-0.3-2c-0.3-0.7-0.7-1.1-1.4-1.1
	C73.4,635.9,72.9,636.2,72.6,636.9z M80.7,644.1l-0.8-0.7c0.7-1,1-2.2,1.1-3.7v-5.4h6.6v8.6c0,0.7-0.4,1.1-1.1,1.1H85l-0.3-1
	c0.5,0,0.9,0,1.4,0c0.2,0,0.4-0.2,0.4-0.4v-1.9H82C81.8,642,81.3,643.1,80.7,644.1z M86.4,635.2H82v1.7h4.5L86.4,635.2L86.4,635.2z
	 M82,639.6h4.5v-1.7H82V639.6z M94,635v7.9h-1.2v-6.4c-0.5,0.5-1.1,0.8-1.8,1v-1.2c0.4-0.1,0.7-0.2,1.1-0.5c0.4-0.2,0.7-0.5,1-0.8
	H94z M101.5,635.9c0.5,0.7,0.7,1.6,0.7,2.8c0,1.3-0.3,2.3-0.8,3.1s-1.3,1.2-2.2,1.2c-1.5,0-2.4-0.7-2.6-2.1h1.2
	c0.2,0.8,0.6,1.1,1.4,1.1c0.5,0,1-0.3,1.3-0.8s0.5-1.1,0.5-1.9v-0.1l0,0c-0.2,0.3-0.5,0.6-0.8,0.8s-0.7,0.2-1.1,0.2
	c-0.8,0-1.4-0.3-1.9-0.7c-0.5-0.5-0.7-1.1-0.7-1.9c0-0.8,0.3-1.4,0.8-1.9s1.2-0.8,2-0.8C100.3,634.9,101,635.2,101.5,635.9z
	 M98.2,636.3c-0.3,0.3-0.4,0.7-0.4,1.2s0.1,0.9,0.4,1.2s0.7,0.5,1.2,0.5s0.9-0.2,1.2-0.5s0.4-0.7,0.4-1.2s-0.2-0.9-0.4-1.2
	c-0.3-0.3-0.7-0.5-1.1-0.5C98.9,635.9,98.5,636,98.2,636.3z M112.9,643.9h-1v-0.8h-5v0.8h-1v-9.7h7.1L112.9,643.9L112.9,643.9z
	 M111.9,638.1v-2.8h-5v2.8H111.9z M111.9,642.2v-3.1h-5v3.1H111.9z"/>
<path class="st1" d="M56.7,732.4v6.4H56v-5.5c-0.4,0.4-0.9,0.7-1.5,0.9v-0.7c0.3-0.1,0.6-0.2,0.9-0.4c0.3-0.2,0.6-0.4,0.8-0.7H56.7z
	 M62.8,732.8c0.3,0.3,0.5,0.7,0.5,1.2c0,0.3-0.1,0.6-0.2,0.9c-0.2,0.3-0.4,0.4-0.8,0.6l0,0c0.3,0.1,0.6,0.3,0.9,0.6
	c0.3,0.3,0.4,0.7,0.4,1.1c0,0.6-0.2,1-0.6,1.4c-0.4,0.4-1,0.5-1.7,0.5s-1.3-0.2-1.7-0.5s-0.6-0.8-0.6-1.4c0-0.4,0.1-0.8,0.4-1.1
	c0.2-0.3,0.5-0.5,0.9-0.6l0,0c-0.3-0.1-0.6-0.3-0.8-0.6c-0.2-0.2-0.2-0.5-0.2-0.9c0-0.5,0.2-0.9,0.5-1.2c0.4-0.4,0.9-0.5,1.6-0.5
	C61.9,732.3,62.4,732.5,62.8,732.8z M60,736.2c-0.3,0.2-0.4,0.5-0.4,0.9s0.1,0.7,0.4,0.9c0.3,0.2,0.7,0.4,1.2,0.4s0.9-0.1,1.2-0.4
	c0.3-0.2,0.4-0.5,0.4-0.9s-0.1-0.7-0.4-0.9c-0.3-0.3-0.7-0.4-1.2-0.4S60.3,735.9,60,736.2z M60.2,733.3c-0.2,0.2-0.3,0.5-0.3,0.8
	s0.1,0.6,0.3,0.8s0.6,0.4,1.1,0.4s0.9-0.1,1.1-0.4c0.2-0.2,0.3-0.5,0.3-0.8s-0.1-0.6-0.3-0.8c-0.3-0.2-0.6-0.4-1.1-0.4
	C60.8,732.9,60.4,733,60.2,733.3z M67.5,733.6c0.1,0.1,0.2,0.2,0.2,0.4s-0.1,0.3-0.2,0.4c-0.1,0.1-0.2,0.2-0.4,0.2s-0.3-0.1-0.4-0.2
	c-0.1-0.1-0.2-0.2-0.2-0.4s0-0.3,0.2-0.4c0.1-0.1,0.2-0.2,0.4-0.2S67.4,733.5,67.5,733.6z M67.5,736.9c0.1,0.1,0.2,0.2,0.2,0.4
	s-0.1,0.3-0.2,0.4c-0.1,0.1-0.2,0.2-0.4,0.2s-0.3-0.1-0.4-0.2c-0.1-0.1-0.2-0.2-0.2-0.4s0-0.3,0.2-0.4c0.1-0.1,0.2-0.2,0.4-0.2
	S67.4,736.7,67.5,736.9z M79,732.8c0.4,0.3,0.6,0.7,0.6,1.3c0,0.7-0.4,1.2-1.1,1.4c0.4,0.1,0.7,0.3,0.9,0.5c0.2,0.3,0.3,0.6,0.3,0.9
	c0,0.6-0.2,1.1-0.6,1.4c-0.4,0.4-1,0.6-1.6,0.6s-1.1-0.2-1.5-0.5c-0.5-0.4-0.7-0.9-0.8-1.6h0.7c0,0.5,0.2,0.9,0.5,1.2
	c0.3,0.2,0.6,0.3,1,0.3c0.5,0,0.8-0.1,1.1-0.4c0.3-0.3,0.4-0.6,0.4-0.9c0-0.4-0.1-0.7-0.4-0.9s-0.6-0.3-1-0.3H77v-0.6h0.5
	c0.4,0,0.8-0.1,1-0.3s0.3-0.5,0.3-0.8s-0.1-0.6-0.3-0.8c-0.2-0.2-0.6-0.3-1-0.3s-0.8,0.1-1,0.3c-0.3,0.2-0.4,0.6-0.4,1h-0.7
	c0.1-0.6,0.3-1.1,0.7-1.5c0.4-0.4,0.9-0.5,1.5-0.5S78.6,732.5,79,732.8z M85.5,733.3c0.3,0.6,0.5,1.4,0.5,2.3s-0.2,1.7-0.5,2.3
	c-0.4,0.7-1,1-1.7,1c-0.8,0-1.4-0.3-1.7-1c-0.3-0.6-0.5-1.4-0.5-2.3s0.2-1.7,0.5-2.3c0.4-0.7,1-1,1.7-1S85.1,732.7,85.5,733.3z
	 M82.5,733.9c-0.2,0.4-0.3,1-0.3,1.8c0,0.7,0.1,1.3,0.3,1.8c0.3,0.6,0.7,0.9,1.2,0.9s1-0.3,1.2-0.9c0.2-0.4,0.3-1,0.3-1.8
	s-0.1-1.4-0.3-1.8c-0.3-0.6-0.7-0.9-1.2-0.9S82.7,733.3,82.5,733.9z M92.3,736.2v0.6h-4.5v-0.6H92.3z M97.9,732.8
	c0.4,0.3,0.6,0.8,0.6,1.4s-0.2,1.1-0.6,1.5c-0.2,0.2-0.7,0.6-1.3,1c-0.8,0.5-1.3,1-1.4,1.5h3.4v0.7h-4.3c0-0.6,0.2-1.1,0.6-1.6
	c0.3-0.3,0.7-0.7,1.4-1.1c0.5-0.4,0.8-0.6,1-0.8c0.3-0.4,0.5-0.7,0.5-1.2c0-0.4-0.1-0.7-0.4-0.9s-0.6-0.3-1-0.3s-0.8,0.1-1,0.5
	c-0.3,0.3-0.4,0.7-0.4,1.3h-0.7c0-0.7,0.2-1.3,0.6-1.7s0.9-0.6,1.6-0.6C97.1,732.3,97.5,732.5,97.9,732.8z M102.6,732.4v6.4h-0.7
	v-5.5c-0.4,0.4-0.9,0.7-1.5,0.9v-0.7c0.3-0.1,0.6-0.2,0.9-0.4s0.6-0.4,0.8-0.7H102.6z M107.1,733.6c0.1,0.1,0.2,0.2,0.2,0.4
	s-0.1,0.3-0.2,0.4c-0.1,0.1-0.2,0.2-0.4,0.2s-0.3-0.1-0.4-0.2c-0.1-0.1-0.2-0.2-0.2-0.4s0-0.3,0.2-0.4c0.1-0.1,0.2-0.2,0.4-0.2
	S107,733.5,107.1,733.6z M107.1,736.9c0.1,0.1,0.2,0.2,0.2,0.4s-0.1,0.3-0.2,0.4c-0.1,0.1-0.2,0.2-0.4,0.2s-0.3-0.1-0.4-0.2
	c-0.1-0.1-0.2-0.2-0.2-0.4s0-0.3,0.2-0.4c0.1-0.1,0.2-0.2,0.4-0.2S107,736.7,107.1,736.9z M118.6,732.8c0.4,0.3,0.6,0.7,0.6,1.3
	c0,0.7-0.4,1.2-1.1,1.4c0.4,0.1,0.7,0.3,0.9,0.5c0.2,0.3,0.3,0.6,0.3,0.9c0,0.6-0.2,1.1-0.6,1.4c-0.4,0.4-1,0.6-1.6,0.6
	s-1.1-0.2-1.5-0.5c-0.5-0.4-0.7-0.9-0.8-1.6h0.7c0,0.5,0.2,0.9,0.5,1.2c0.3,0.2,0.6,0.3,1,0.3c0.5,0,0.8-0.1,1.1-0.4
	c0.3-0.3,0.4-0.6,0.4-0.9c0-0.4-0.1-0.7-0.4-0.9s-0.6-0.3-1-0.3h-0.5v-0.6h0.5c0.4,0,0.8-0.1,1-0.3s0.3-0.5,0.3-0.8
	s-0.1-0.6-0.3-0.8c-0.2-0.2-0.6-0.3-1-0.3s-0.8,0.1-1,0.3c-0.3,0.2-0.4,0.6-0.4,1H115c0.1-0.6,0.3-1.1,0.7-1.5
	c0.4-0.4,0.9-0.5,1.5-0.5S118.3,732.5,118.6,732.8z M125.1,733.3c0.3,0.6,0.5,1.4,0.5,2.3s-0.2,1.7-0.5,2.3c-0.4,0.7-1,1-1.7,1
	c-0.8,0-1.4-0.3-1.7-1c-0.3-0.6-0.5-1.4-0.5-2.3s0.2-1.7,0.5-2.3c0.4-0.7,1-1,1.7-1S124.7,732.7,125.1,733.3z M122.1,733.9
	c-0.2,0.4-0.3,1-0.3,1.8c0,0.7,0.1,1.3,0.3,1.8c0.3,0.6,0.7,0.9,1.2,0.9s1-0.3,1.2-0.9c0.2-0.4,0.3-1,0.3-1.8s-0.1-1.4-0.3-1.8
	c-0.3-0.6-0.7-0.9-1.2-0.9S122.4,733.3,122.1,733.9z"/>
<path class="st2" d="M69.1,699.1v11h-1.2v-1.9c-0.9,0.4-1.9,0.8-3,1.1l-0.3-1.1c1.1-0.2,2.2-0.6,3.3-1.1v-3.6h-3v-1.1h3v-3.2h1.2
	V699.1z M72.1,709.9c-0.9,0-1.3-0.5-1.3-1.3v-9.5H72v3.9c1-0.4,1.9-0.9,2.8-1.5l0.7,0.9c-1.2,0.7-2.4,1.3-3.5,1.6v4.4
	c0,0.3,0.1,0.5,0.4,0.5h1.4c0.2,0,0.4-0.1,0.5-0.3s0.1-0.9,0.2-2l1.1,0.3c-0.1,1.4-0.2,2.3-0.4,2.6c-0.2,0.3-0.6,0.4-1.1,0.4
	L72.1,709.9L72.1,709.9z M81.3,707.1c-0.7,1-1.7,2-2.7,2.7l-0.7-0.9c1.1-0.7,1.9-1.6,2.7-2.5L81.3,707.1z M83.8,700.2h4.8v1.1H77.9
	v-1.1h4.7c-0.1-0.4-0.3-0.7-0.5-1l1.2-0.2C83.5,699.4,83.6,699.8,83.8,700.2z M87.3,702.2v3.6H84v3c0,0.8-0.4,1.2-1.2,1.2h-1.3
	l-0.3-1.1c0.4,0,0.8,0.1,1.2,0.1c0.3,0,0.5-0.2,0.5-0.4v-2.7h-3.4v-3.6L87.3,702.2L87.3,702.2z M86.1,703.3h-5.6v1.4h5.6V703.3z
	 M88.7,709l-0.8,0.8c-0.6-0.8-1.5-1.7-2.6-2.7l0.8-0.7C87.1,707.3,88,708.1,88.7,709z M95.8,702.1c0.1-0.6,0.1-1.3,0.1-2v-1h1.2v0.8
	c0,0.8,0,1.5-0.1,2.3h4.9v1.1h-4.6c0.8,2.6,2.5,4.5,4.8,5.9l-0.7,0.9c-2.3-1.4-3.9-3.4-4.8-5.9c-0.8,2.7-2.4,4.8-4.8,6l-0.7-1
	c2.5-1.2,4-3.2,4.7-6h-4.4v-1.1H95.8z M114.9,704.3h-1.1v-1.8h-8.1v1.8h-1.1v-2.9h2.2c-0.4-0.6-0.8-1.2-1.2-1.7l1-0.5
	c0.4,0.6,0.8,1.2,1.2,1.8l-0.8,0.4h4.5c0.5-0.7,0.9-1.5,1.3-2.4l1.2,0.4c-0.4,0.8-0.8,1.4-1.2,2h2.2L114.9,704.3L114.9,704.3z
	 M112.9,703.2v1c-0.8,0.5-1.6,1-2.5,1.4v0.4h4.5v1.1h-4.5v1.8c0,0.7-0.4,1.1-1.1,1.1h-1.5l-0.3-1c0.4,0,0.9,0,1.4,0
	c0.3,0,0.4-0.2,0.4-0.5v-1.4h-4.7V706h4.7v-0.9c0.8-0.4,1.5-0.7,2-0.9h-4.8v-1L112.9,703.2L112.9,703.2z M110.5,700.9l-1,0.5
	c-0.4-0.7-0.7-1.4-1.2-2l1-0.5C109.8,699.5,110.2,700.2,110.5,700.9z"/>
<path class="st2" d="M85.3,719.2v-1.6H86v1.6h3.5v0.6h-2.9c0.6,1.4,1.7,2.7,3.2,3.8l-0.4,0.6c-1.6-1.3-2.7-2.8-3.3-4.4H86v3.5h1.9
	v0.6H86v1.8h-0.7v-1.8h-1.9v-0.6h1.9v-3.5h-0.1c-0.7,1.8-1.8,3.3-3.4,4.5l-0.4-0.6c1.5-1,2.6-2.3,3.3-3.9h-2.9v-0.6L85.3,719.2
	L85.3,719.2z M93.3,720.9h0.9c0.3-0.5,0.5-1,0.7-1.6l0.6,0.2c-0.2,0.5-0.4,1-0.6,1.4H96v0.6h-4.5v-0.6h1.2c-0.2-0.5-0.4-0.9-0.6-1.3
	l0.6-0.2C92.9,719.8,93.1,720.3,93.3,720.9z M93.4,718.4c-0.1-0.3-0.2-0.6-0.3-0.8l0.7-0.1c0.1,0.3,0.2,0.6,0.3,0.9h1.8v0.6h-4.3
	v-0.6L93.4,718.4L93.4,718.4z M95.6,725.7H95v-0.5h-2.3v0.5H92v-3.4h3.6V725.7z M94.9,724.6v-1.7h-2.3v1.7H94.9z M99.3,717.9v0.5
	c-0.3,0.9-0.6,1.8-0.9,2.6c0.7,0.8,1,1.5,1,2.1s-0.1,0.9-0.4,1.2c-0.3,0.2-0.7,0.3-1.5,0.3l-0.2-0.7c0.3,0,0.5,0,0.6,0
	c0.3,0,0.5-0.1,0.6-0.2c0.1-0.1,0.1-0.3,0.1-0.7c0-0.5-0.4-1.2-1.1-2.1c0.3-0.7,0.6-1.6,0.9-2.5H97v7.3h-0.6v-7.9h2.9V717.9z"/>
<path class="st0" d="M162,690.4l-112-0.9c-11.3-0.1-20.5-9.3-20.5-20.7v-108c0-11.3,9.2-20.5,20.5-20.5h200
	c10.8,0,19.5-8.7,19.5-19.5v-108c0-10.8-8.7-19.5-19.5-19.5H50c-11.3,0-20.5-9.2-20.5-20.5v-108c0-11.3,9.2-20.5,20.5-20.5h200
	c10.8,0,19.5-8.7,19.5-19.5v-108c0-10.8-8.7-19.5-19.5-19.5H29.5v-1H250c11.3,0,20.5,9.2,20.5,20.5v108c0,11.3-9.2,20.5-20.5,20.5
	H50c-10.8,0-19.5,8.7-19.5,19.5v108c0,10.8,8.7,19.5,19.5,19.5h200c11.3,0,20.5,9.2,20.5,20.5v108c0,11.3-9.2,20.5-20.5,20.5H50
	c-10.8,0-19.5,8.7-19.5,19.5v108c0,10.8,8.8,19.6,19.5,19.7l112,0.9V690.4z"/>
<path class="st2" d="M187.3,695.1h-1.1v-0.9h-6.3v0.9h-1.1v-9.2h2.9c0.2-0.6,0.4-1.2,0.6-1.9l1.3,0.2c-0.1,0.6-0.3,1.2-0.5,1.7h4.5
	v9.2H187.3z M186.2,689.4V687h-6.3v2.4H186.2z M186.2,693.1v-2.7h-6.3v2.7H186.2z M201,686.1v8.7h-1.1v-0.7h-7.4v0.7h-1.1V686h1.1v7
	h3.1v-8.9h1.2v8.9h3.1v-6.9H201z M214.8,688v1.1h-5.7c-1,2.1-1.9,3.5-2.7,4.4c2-0.1,3.9-0.3,5.9-0.6c-0.4-0.7-0.8-1.4-1.3-2.1
	l0.9-0.6c1.1,1.6,1.9,3,2.5,4.2l-1,0.7c-0.2-0.4-0.4-0.8-0.6-1.2c-2.4,0.3-5,0.6-7.9,0.8l-0.3-1.2c0.1,0,0.2-0.1,0.3-0.1
	c0.7-0.6,1.7-2,2.9-4.4H204v-1H214.8z M213.8,684.6v1.1h-8.6v-1.1H213.8z M219.2,687.2v-1.5c-0.5,0.1-1.1,0.1-1.6,0.2l-0.2-1.1
	c1.5-0.1,2.9-0.4,4.1-0.7l0.4,1.1c-0.5,0.1-1,0.3-1.5,0.3v1.7h1.5v1.1h-1.5v0.5c0.6,0.5,1.3,1,1.9,1.7l-0.6,1
	c-0.5-0.6-0.9-1.2-1.3-1.5v5.2h-1.2V690c-0.4,1.1-1,2-1.7,2.9l-0.5-1.3c1-1,1.7-2,2.1-3.3h-1.7v-1.1L219.2,687.2L219.2,687.2z
	 M228.2,691.5l-1.1,0.2v3.3h-1.2v-3.2l-3.6,0.6l-0.2-1.1l3.8-0.6V684h1.2v6.5l0.9-0.2L228.2,691.5z M225.2,689.3l-0.8,0.8
	c-0.5-0.6-1.2-1.2-2.1-1.8l0.8-0.8C223.9,688.1,224.6,688.7,225.2,689.3z M225.5,686.4l-0.8,0.8c-0.5-0.6-1.2-1.1-2.1-1.8l0.8-0.8
	C224.3,685.3,225,685.9,225.5,686.4z M230.7,695l-0.2-1.1c0.3,0,0.6,0.1,0.9,0.1c0.3,0,0.4-0.2,0.4-0.5V691
	c-0.4,0.2-0.9,0.3-1.3,0.5l-0.3-1.1c0.5-0.1,1.1-0.3,1.6-0.5v-2.6h-1.4v-1.1h1.4V684h1.1v2.1h1.2v1.1h-1.2v2.1
	c0.4-0.2,0.8-0.4,1.2-0.6v1.1c-0.4,0.2-0.8,0.4-1.2,0.6v3.3c0,0.8-0.4,1.2-1.2,1.2h-1V695z M237.2,685.7v-1.6h1.1v1.6h2.8v1.1h-2.8
	v1.7h2.4v1c-0.4,1.2-1,2.3-1.9,3.2c0.7,0.6,1.7,1,2.7,1.5l-0.6,0.9c-1.2-0.5-2.1-1.1-2.9-1.7c-0.9,0.7-2,1.3-3.3,1.7l-0.5-0.9
	c1.2-0.4,2.2-0.9,3-1.5c-0.9-0.9-1.6-2-1.9-3.2h-0.6v-1.1h2.6v-1.7h-2.8v-1.1L237.2,685.7L237.2,685.7z M237.9,692
	c0.7-0.7,1.3-1.5,1.6-2.5h-3.2C236.6,690.5,237.1,691.3,237.9,692z"/>
<path class="st3" d="M58.2,287.5v6.4h-0.7v-5.5c-0.4,0.4-0.9,0.7-1.5,0.9v-0.7c0.3-0.1,0.6-0.2,0.9-0.4c0.3-0.2,0.6-0.4,0.8-0.7
	H58.2z M64.4,288.2c0.4,0.5,0.6,1.3,0.6,2.3c0,1-0.2,1.8-0.6,2.5c-0.4,0.7-1,1-1.7,1c-1.2,0-1.9-0.6-2-1.7h0.7
	c0.1,0.7,0.6,1.1,1.3,1.1c0.5,0,0.9-0.3,1.2-0.7c0.3-0.5,0.4-1.1,0.4-1.8c0,0,0-0.1,0-0.2h0c-0.2,0.3-0.4,0.6-0.7,0.8
	c-0.3,0.2-0.6,0.3-1,0.3c-0.6,0-1.1-0.2-1.5-0.6c-0.4-0.4-0.5-0.9-0.5-1.5c0-0.6,0.2-1.2,0.6-1.6c0.4-0.4,0.9-0.6,1.5-0.6
	C63.4,287.4,64,287.7,64.4,288.2z M61.6,288.4c-0.3,0.3-0.4,0.7-0.4,1.1c0,0.4,0.1,0.8,0.4,1.1c0.3,0.3,0.6,0.4,1.1,0.4
	c0.4,0,0.8-0.1,1-0.4c0.3-0.3,0.4-0.7,0.4-1.1c0-0.4-0.1-0.8-0.4-1.1c-0.3-0.3-0.6-0.5-1.1-0.5C62.2,288,61.9,288.1,61.6,288.4z
	 M68.9,288.6c0.1,0.1,0.2,0.2,0.2,0.4c0,0.2-0.1,0.3-0.2,0.4c-0.1,0.1-0.2,0.2-0.4,0.2s-0.3-0.1-0.4-0.2c-0.1-0.1-0.2-0.2-0.2-0.4
	c0-0.2,0-0.3,0.2-0.4c0.1-0.1,0.2-0.2,0.4-0.2S68.8,288.5,68.9,288.6z M68.9,291.9c0.1,0.1,0.2,0.2,0.2,0.4c0,0.2-0.1,0.3-0.2,0.4
	c-0.1,0.1-0.2,0.2-0.4,0.2s-0.3-0.1-0.4-0.2c-0.1-0.1-0.2-0.2-0.2-0.4s0-0.3,0.2-0.4c0.1-0.1,0.2-0.2,0.4-0.2S68.8,291.8,68.9,291.9
	z M80.5,288.4c0.3,0.6,0.5,1.3,0.5,2.3s-0.2,1.7-0.5,2.3c-0.4,0.7-1,1-1.7,1c-0.8,0-1.3-0.3-1.7-1c-0.3-0.6-0.5-1.3-0.5-2.3
	s0.2-1.7,0.5-2.3c0.4-0.7,1-1,1.7-1C79.6,287.4,80.2,287.7,80.5,288.4z M77.6,288.9c-0.2,0.4-0.3,1-0.3,1.8c0,0.7,0.1,1.3,0.3,1.8
	c0.3,0.6,0.7,0.9,1.2,0.9c0.6,0,1-0.3,1.2-0.9c0.2-0.4,0.3-1,0.3-1.8c0-0.8-0.1-1.3-0.3-1.8c-0.3-0.6-0.7-0.9-1.2-0.9
	C78.2,288,77.8,288.3,77.6,288.9z M86.8,288.4c0.3,0.6,0.5,1.3,0.5,2.3s-0.2,1.7-0.5,2.3c-0.4,0.7-1,1-1.7,1c-0.8,0-1.3-0.3-1.7-1
	c-0.3-0.6-0.5-1.3-0.5-2.3s0.2-1.7,0.5-2.3c0.4-0.7,1-1,1.7-1C85.8,287.4,86.4,287.7,86.8,288.4z M83.9,288.9
	c-0.2,0.4-0.3,1-0.3,1.8c0,0.7,0.1,1.3,0.3,1.8c0.3,0.6,0.7,0.9,1.2,0.9c0.6,0,1-0.3,1.2-0.9c0.2-0.4,0.3-1,0.3-1.8
	c0-0.8-0.1-1.3-0.3-1.8c-0.3-0.6-0.7-0.9-1.2-0.9C84.5,288,84.1,288.3,83.9,288.9z M93.6,291.3v0.6h-4.5v-0.6H93.6z M99.2,287.9
	c0.4,0.3,0.6,0.8,0.6,1.4c0,0.6-0.2,1.1-0.6,1.5c-0.2,0.2-0.7,0.6-1.3,1c-0.8,0.5-1.3,1-1.4,1.5h3.4v0.7h-4.3c0-0.6,0.2-1.1,0.6-1.6
	c0.3-0.3,0.7-0.7,1.4-1.1c0.5-0.4,0.8-0.6,1-0.8c0.3-0.3,0.5-0.7,0.5-1.1c0-0.4-0.1-0.7-0.3-0.9s-0.6-0.3-1-0.3
	c-0.4,0-0.8,0.1-1,0.4c-0.3,0.3-0.4,0.7-0.4,1.3h-0.7c0-0.7,0.2-1.3,0.6-1.7c0.4-0.4,0.9-0.6,1.6-0.6
	C98.3,287.4,98.8,287.6,99.2,287.9z M103.9,287.5v6.4h-0.7v-5.5c-0.4,0.4-0.9,0.7-1.5,0.9v-0.7c0.3-0.1,0.6-0.2,0.9-0.4
	c0.3-0.2,0.6-0.4,0.8-0.7H103.9z M108.4,288.6c0.1,0.1,0.2,0.2,0.2,0.4c0,0.2-0.1,0.3-0.2,0.4c-0.1,0.1-0.2,0.2-0.4,0.2
	c-0.2,0-0.3-0.1-0.4-0.2c-0.1-0.1-0.2-0.2-0.2-0.4c0-0.2,0-0.3,0.2-0.4c0.1-0.1,0.2-0.2,0.4-0.2
	C108.1,288.5,108.2,288.5,108.4,288.6z M108.4,291.9c0.1,0.1,0.2,0.2,0.2,0.4c0,0.2-0.1,0.3-0.2,0.4c-0.1,0.1-0.2,0.2-0.4,0.2
	c-0.2,0-0.3-0.1-0.4-0.2c-0.1-0.1-0.2-0.2-0.2-0.4s0-0.3,0.2-0.4c0.1-0.1,0.2-0.2,0.4-0.2C108.1,291.7,108.2,291.8,108.4,291.9z
	 M119.8,287.8c0.4,0.3,0.6,0.7,0.6,1.3c0,0.7-0.3,1.2-1,1.4c0.4,0.1,0.7,0.3,0.9,0.5c0.2,0.3,0.3,0.6,0.3,0.9c0,0.6-0.2,1.1-0.6,1.4
	c-0.4,0.4-0.9,0.6-1.6,0.6c-0.6,0-1.1-0.2-1.5-0.5c-0.5-0.4-0.7-0.9-0.8-1.6h0.7c0,0.5,0.2,0.9,0.5,1.1c0.3,0.2,0.6,0.3,1,0.3
	c0.5,0,0.8-0.1,1.1-0.4c0.3-0.3,0.4-0.6,0.4-0.9c0-0.4-0.1-0.7-0.4-0.9c-0.3-0.2-0.6-0.3-1-0.3h-0.5v-0.6h0.5c0.4,0,0.8-0.1,1-0.3
	c0.2-0.2,0.3-0.5,0.3-0.8s-0.1-0.6-0.3-0.8c-0.2-0.2-0.6-0.3-1-0.3c-0.4,0-0.8,0.1-1,0.3c-0.3,0.2-0.4,0.6-0.4,1h-0.7
	c0.1-0.6,0.3-1.1,0.7-1.4c0.4-0.3,0.9-0.5,1.5-0.5S119.4,287.5,119.8,287.8z M126.2,288.4c0.3,0.6,0.5,1.3,0.5,2.3s-0.2,1.7-0.5,2.3
	c-0.4,0.7-1,1-1.7,1c-0.8,0-1.3-0.3-1.7-1c-0.3-0.6-0.5-1.3-0.5-2.3s0.2-1.7,0.5-2.3c0.4-0.7,1-1,1.7-1
	C125.3,287.4,125.8,287.7,126.2,288.4z M123.3,288.9c-0.2,0.4-0.3,1-0.3,1.8c0,0.7,0.1,1.3,0.3,1.8c0.3,0.6,0.7,0.9,1.2,0.9
	s1-0.3,1.2-0.9c0.2-0.4,0.3-1,0.3-1.8c0-0.8-0.1-1.3-0.3-1.8c-0.3-0.6-0.7-0.9-1.2-0.9S123.5,288.3,123.3,288.9z"/>
<rect x="-521" y="-1776.6" class="st4" width="1440" height="4214"/>
</svg>
