<?xml version="1.0" encoding="utf-8"?>
<!-- Generator: Adobe Illustrator 21.0.0, SVG Export Plug-In . SVG Version: 6.00 Build 0)  -->
<svg version="1.1" id="图层_1" xmlns="http://www.w3.org/2000/svg" xmlns:xlink="http://www.w3.org/1999/xlink" x="0px" y="0px"
	 viewBox="0 0 769 528" style="enable-background:new 0 0 769 528;" xml:space="preserve">
<style type="text/css">
	.st0{fill:#4F93E2;}
	.st1{fill:#ABABAB;}
	.st2{fill-rule:evenodd;clip-rule:evenodd;fill:#4F93E2;}
</style>
<g>
	<path class="st0" d="M769,458.5H20.5C9.2,458.5,0,449.3,0,438V291c0-11.3,9.2-20.5,20.5-20.5h723c13.5,0,24.5-11,24.5-24.5V105
		c0-13.5-11-24.5-24.5-24.5H0v-1h743.5c14.1,0,25.5,11.4,25.5,25.5v141c0,14.1-11.4,25.5-25.5,25.5h-723C9.7,271.5,1,280.2,1,291
		v147c0,10.7,8.7,19.5,19.5,19.5H769V458.5z"/>
	<path class="st1" d="M78.1,36.6c0.9,1.7,2.1,3.1,3.9,4.2l-0.8,1.1c-0.5-0.3-0.9-0.6-1.3-1v1.2H75v-1.2c-0.4,0.4-0.8,0.7-1.2,1
		l-0.4-0.7v6.5h-1.2v-0.7h-1.4v1h-1.3V37.6h3.9v3c1.5-1.1,2.7-2.4,3.6-4H78.1z M72.1,45.9v-7.1h-1.4v7.1H72.1z M80.6,49.5h-1.3v-0.7
		h-3.7v0.7h-1.3v-5.8h6.2V49.5z M79.9,40.9c-0.9-0.9-1.7-1.9-2.4-3c-0.7,1.2-1.5,2.2-2.4,3H79.9z M79.3,47.5v-2.6h-3.7v2.6H79.3z
		 M88.8,43.1c-0.8,2-1.8,3.6-3,5.1l-1.1-0.8c1.1-1.3,2.1-3,2.9-4.8L88.8,43.1z M85.9,42.3L85,41.4c1.3-1.4,2.2-3.1,2.7-5l1.3,0.3
		c-0.1,0.5-0.3,1-0.5,1.4h7.7v0.9c-0.2,1-0.5,2-0.8,3l-1.3-0.4c0.3-0.6,0.5-1.4,0.7-2.2H88C87.4,40.5,86.7,41.5,85.9,42.3z
		 M88.4,49.4l-0.3-1.3c0.6,0.1,1.1,0.1,1.6,0.1c0.4,0,0.5-0.2,0.5-0.6v-7.2h1.3v7.5c0,1-0.5,1.5-1.4,1.5H88.4z M96.9,47.9l-1.2,0.6
		c-0.8-2-1.7-3.9-2.7-5.4l1.2-0.4C95.2,44.2,96.1,46,96.9,47.9z M103,42l-0.9,1c-0.5-0.6-1.3-1.3-2.2-2.1l1-0.9
		C101.7,40.7,102.4,41.3,103,42z M103.1,44.4c-0.5,1.7-1.2,3.3-1.8,4.8l-1.2-0.5c0.7-1.5,1.4-3.1,1.9-4.8L103.1,44.4z M103.3,38.4
		l-0.9,1c-0.5-0.6-1.3-1.2-2.2-1.8l1-0.9C102,37.2,102.7,37.8,103.3,38.4z M107.3,47.5c-0.8,0.7-1.9,1.4-3.1,1.9l-0.8-1.1
		c1.2-0.5,2.2-1.1,3-1.7L107.3,47.5z M110.7,40.8c-1.3,0.3-2.8,0.6-4.5,0.8v0.6h5.4v1.2h-1.1v1.9h2.1v1.3h-9.1v-1.3h1.3v-4.7
		c2.1-0.2,3.8-0.5,5.1-1L110.7,40.8z M112.3,40.4H111v-1.5h-6.1v1.5h-1.3v-2.7h3.6c-0.2-0.4-0.3-0.7-0.5-1l1.3-0.2
		c0.2,0.4,0.4,0.8,0.5,1.2h3.7V40.4z M109.3,45.2v-1.9h-3v1.9H109.3z M112.6,48.4l-0.8,1.1c-1-0.8-2-1.4-3-1.9l0.7-1
		C110.6,47.1,111.6,47.7,112.6,48.4z"/>
	<path class="st1" d="M69.6,16.1c0.6,0.9,0.9,2,0.9,3.6c0,1.6-0.3,2.9-1,4c-0.7,1-1.6,1.5-2.7,1.5c-1.9,0-3-0.9-3.3-2.7H65
		c0.2,1,0.8,1.5,1.8,1.5c0.7,0,1.2-0.4,1.7-1c0.4-0.6,0.6-1.5,0.6-2.4c0-0.1,0-0.1,0-0.2H69c-0.3,0.4-0.6,0.8-1.1,1
		c-0.4,0.2-0.9,0.3-1.4,0.3c-1,0-1.8-0.3-2.4-1c-0.6-0.6-0.9-1.4-0.9-2.4c0-1,0.3-1.8,1-2.5c0.7-0.7,1.5-1,2.5-1
		C68.1,14.8,69,15.2,69.6,16.1z M65.4,16.7c-0.4,0.4-0.6,0.9-0.6,1.6s0.2,1.1,0.6,1.5c0.4,0.4,0.8,0.6,1.5,0.6
		c0.6,0,1.1-0.2,1.5-0.6s0.5-0.9,0.5-1.6c0-0.7-0.2-1.2-0.6-1.6c-0.4-0.4-0.9-0.6-1.5-0.6C66.3,16.1,65.8,16.3,65.4,16.7z
		 M75.4,26.5l-1-0.9c0.9-1.2,1.3-2.8,1.4-4.7V14h8.3v11c0,0.9-0.5,1.3-1.4,1.3h-1.8L80.6,25c0.6,0,1.2,0.1,1.7,0.1
		c0.3,0,0.4-0.2,0.4-0.6v-2.5H77C76.8,23.9,76.3,25.3,75.4,26.5z M82.8,15.3h-5.7v2.1h5.7V15.3z M77.1,20.8h5.7v-2.2h-5.7V20.8z
		 M92.3,15v10h-1.5v-8.2c-0.6,0.6-1.4,1-2.3,1.3v-1.5c0.4-0.1,0.9-0.3,1.4-0.6c0.5-0.3,0.9-0.6,1.3-1H92.3z M101.8,15.6
		c0.6,0.5,0.8,1.1,0.8,1.9c0,0.5-0.1,1-0.3,1.3c-0.3,0.4-0.6,0.7-1.1,0.9v0c0.5,0.1,0.9,0.4,1.2,0.8c0.4,0.5,0.6,1,0.6,1.7
		c0,0.9-0.3,1.6-1,2.2c-0.7,0.5-1.6,0.8-2.8,0.8c-1.2,0-2.1-0.3-2.8-0.8c-0.6-0.6-1-1.3-1-2.2c0-0.6,0.2-1.2,0.6-1.7
		c0.3-0.4,0.7-0.7,1.2-0.8v0c-0.5-0.2-0.9-0.5-1.1-0.9c-0.2-0.4-0.3-0.8-0.3-1.3c0-0.7,0.3-1.4,0.8-1.9c0.6-0.6,1.5-0.8,2.5-0.8
		S101.2,15.1,101.8,15.6z M97.6,20.9c-0.4,0.3-0.6,0.8-0.6,1.3c0,0.5,0.2,0.9,0.6,1.3c0.4,0.3,0.9,0.5,1.6,0.5
		c0.7,0,1.3-0.2,1.7-0.5c0.4-0.3,0.5-0.7,0.5-1.3c0-0.6-0.2-1-0.5-1.3c-0.4-0.4-0.9-0.5-1.7-0.5S98,20.5,97.6,20.9z M97.8,16.5
		c-0.3,0.3-0.5,0.6-0.5,1.1c0,0.5,0.1,0.9,0.4,1.1c0.3,0.3,0.8,0.5,1.6,0.5c0.7,0,1.2-0.2,1.6-0.5c0.3-0.3,0.4-0.7,0.4-1.1
		c0-0.4-0.2-0.8-0.5-1.1c-0.4-0.3-0.9-0.5-1.5-0.5S98.2,16.2,97.8,16.5z M116.5,26.4h-1.3v-1h-6.3v1h-1.3V14h9V26.4z M115.2,18.9
		v-3.6h-6.3v3.6H115.2z M115.2,24.1v-3.9h-6.3v3.9H115.2z"/>
	<path class="st1" d="M53.9,126.9v7.1h-0.8v-6.1c-0.4,0.5-1,0.8-1.7,1V128c0.3-0.1,0.7-0.2,1-0.4c0.3-0.2,0.6-0.5,0.9-0.7H53.9z
		 M60.7,127.3c0.4,0.3,0.6,0.8,0.6,1.3c0,0.4-0.1,0.7-0.3,1c-0.2,0.3-0.5,0.5-0.8,0.6v0c0.4,0.1,0.7,0.3,0.9,0.6
		c0.3,0.3,0.4,0.7,0.4,1.2c0,0.6-0.2,1.1-0.7,1.5c-0.5,0.4-1.1,0.6-1.9,0.6c-0.8,0-1.5-0.2-1.9-0.6c-0.4-0.4-0.7-0.9-0.7-1.5
		c0-0.5,0.1-0.9,0.4-1.2c0.3-0.3,0.6-0.5,0.9-0.6v0c-0.4-0.1-0.7-0.3-0.8-0.6c-0.2-0.3-0.3-0.6-0.3-1c0-0.5,0.2-1,0.6-1.3
		c0.4-0.4,1-0.6,1.7-0.6C59.7,126.7,60.3,126.9,60.7,127.3z M57.6,131c-0.3,0.3-0.4,0.6-0.4,1c0,0.4,0.1,0.8,0.4,1
		c0.3,0.3,0.7,0.4,1.3,0.4s1-0.1,1.3-0.4c0.3-0.3,0.4-0.6,0.4-1c0-0.4-0.1-0.8-0.4-1c-0.3-0.3-0.8-0.4-1.3-0.4
		C58.4,130.6,58,130.7,57.6,131z M57.8,127.8c-0.2,0.2-0.4,0.5-0.4,0.9c0,0.4,0.1,0.7,0.3,0.9c0.3,0.3,0.7,0.4,1.2,0.4
		c0.5,0,1-0.1,1.2-0.4c0.2-0.2,0.3-0.5,0.3-0.9c0-0.3-0.1-0.6-0.4-0.9c-0.3-0.3-0.7-0.4-1.2-0.4C58.5,127.4,58.1,127.5,57.8,127.8z
		 M65.9,128.1c0.1,0.1,0.2,0.2,0.2,0.4c0,0.2-0.1,0.3-0.2,0.4c-0.1,0.1-0.3,0.2-0.4,0.2s-0.3-0.1-0.4-0.2c-0.1-0.1-0.2-0.3-0.2-0.4
		s0-0.3,0.2-0.4c0.1-0.1,0.3-0.2,0.4-0.2S65.8,128,65.9,128.1z M65.9,131.8c0.1,0.1,0.2,0.2,0.2,0.4c0,0.2-0.1,0.3-0.2,0.4
		c-0.1,0.1-0.3,0.2-0.4,0.2s-0.3-0.1-0.4-0.2c-0.1-0.1-0.2-0.3-0.2-0.4s0-0.3,0.2-0.4c0.1-0.1,0.3-0.2,0.4-0.2
		S65.8,131.6,65.9,131.8z M78.7,127.2c0.4,0.3,0.6,0.8,0.6,1.4c0,0.8-0.4,1.3-1.2,1.6c0.4,0.1,0.7,0.3,1,0.6c0.2,0.3,0.4,0.6,0.4,1
		c0,0.6-0.2,1.2-0.7,1.6c-0.5,0.4-1.1,0.6-1.8,0.6c-0.7,0-1.2-0.2-1.7-0.5c-0.5-0.4-0.8-1-0.8-1.8h0.8c0,0.6,0.2,1,0.6,1.3
		c0.3,0.2,0.7,0.4,1.1,0.4c0.5,0,0.9-0.1,1.2-0.4c0.3-0.3,0.4-0.6,0.4-1c0-0.4-0.1-0.8-0.4-1s-0.7-0.3-1.2-0.3h-0.6V130H77
		c0.5,0,0.8-0.1,1.1-0.3c0.2-0.2,0.4-0.5,0.4-0.9s-0.1-0.7-0.4-0.9c-0.3-0.2-0.6-0.3-1.1-0.3c-0.5,0-0.8,0.1-1.1,0.4
		c-0.3,0.3-0.4,0.6-0.5,1.1h-0.8c0.1-0.7,0.3-1.2,0.8-1.6c0.4-0.4,1-0.6,1.6-0.6S78.3,126.9,78.7,127.2z M85.9,127.9
		c0.4,0.6,0.6,1.5,0.6,2.6s-0.2,1.9-0.6,2.6c-0.4,0.7-1.1,1.1-1.9,1.1c-0.9,0-1.5-0.4-1.9-1.1c-0.4-0.6-0.6-1.5-0.6-2.6
		s0.2-1.9,0.6-2.6c0.4-0.8,1.1-1.1,1.9-1.1C84.8,126.7,85.5,127.1,85.9,127.9z M82.6,128.5c-0.2,0.5-0.3,1.1-0.3,2
		c0,0.8,0.1,1.5,0.3,2c0.3,0.7,0.7,1,1.4,1s1.1-0.3,1.4-1c0.2-0.5,0.3-1.1,0.3-2c0-0.8-0.1-1.5-0.3-2c-0.3-0.7-0.7-1-1.4-1
		S82.9,127.8,82.6,128.5z M93.5,131.1v0.7h-5v-0.7H93.5z M99.8,127.3c0.4,0.4,0.6,0.9,0.6,1.5s-0.2,1.2-0.7,1.7
		c-0.2,0.3-0.7,0.6-1.5,1.1c-0.9,0.6-1.4,1.2-1.6,1.6h3.7v0.7h-4.8c0-0.6,0.2-1.2,0.7-1.8c0.3-0.3,0.8-0.7,1.5-1.3
		c0.6-0.4,0.9-0.7,1.1-0.9c0.4-0.4,0.5-0.8,0.5-1.3c0-0.4-0.1-0.8-0.4-1s-0.6-0.4-1.1-0.4c-0.5,0-0.9,0.2-1.1,0.5
		c-0.3,0.3-0.4,0.8-0.4,1.4h-0.8c0-0.8,0.2-1.4,0.7-1.9c0.4-0.5,1-0.7,1.7-0.7C98.8,126.7,99.3,126.9,99.8,127.3z M105,126.9v7.1
		h-0.8v-6.1c-0.4,0.5-1,0.8-1.7,1V128c0.3-0.1,0.7-0.2,1-0.4c0.3-0.2,0.6-0.5,0.9-0.7H105z M110,128.1c0.1,0.1,0.2,0.2,0.2,0.4
		c0,0.2-0.1,0.3-0.2,0.4c-0.1,0.1-0.3,0.2-0.4,0.2s-0.3-0.1-0.4-0.2c-0.1-0.1-0.2-0.3-0.2-0.4s0-0.3,0.2-0.4
		c0.1-0.1,0.3-0.2,0.4-0.2S109.9,128,110,128.1z M110,131.8c0.1,0.1,0.2,0.2,0.2,0.4c0,0.2-0.1,0.3-0.2,0.4
		c-0.1,0.1-0.3,0.2-0.4,0.2s-0.3-0.1-0.4-0.2c-0.1-0.1-0.2-0.3-0.2-0.4s0-0.3,0.2-0.4c0.1-0.1,0.3-0.2,0.4-0.2
		S109.9,131.6,110,131.8z M122.8,127.2c0.4,0.3,0.6,0.8,0.6,1.4c0,0.8-0.4,1.3-1.2,1.6c0.4,0.1,0.7,0.3,1,0.6c0.2,0.3,0.4,0.6,0.4,1
		c0,0.6-0.2,1.2-0.7,1.6c-0.5,0.4-1.1,0.6-1.8,0.6c-0.7,0-1.2-0.2-1.7-0.5c-0.5-0.4-0.8-1-0.8-1.8h0.8c0,0.6,0.2,1,0.6,1.3
		c0.3,0.2,0.7,0.4,1.1,0.4c0.5,0,0.9-0.1,1.2-0.4c0.3-0.3,0.4-0.6,0.4-1c0-0.4-0.1-0.8-0.4-1s-0.7-0.3-1.2-0.3h-0.6V130h0.5
		c0.5,0,0.8-0.1,1.1-0.3c0.2-0.2,0.4-0.5,0.4-0.9s-0.1-0.7-0.4-0.9c-0.3-0.2-0.6-0.3-1.1-0.3c-0.5,0-0.8,0.1-1.1,0.4
		c-0.3,0.3-0.4,0.6-0.5,1.1h-0.8c0.1-0.7,0.3-1.2,0.8-1.6c0.4-0.4,1-0.6,1.6-0.6S122.3,126.9,122.8,127.2z M130,127.9
		c0.4,0.6,0.6,1.5,0.6,2.6s-0.2,1.9-0.6,2.6c-0.4,0.7-1.1,1.1-1.9,1.1c-0.9,0-1.5-0.4-1.9-1.1c-0.4-0.6-0.6-1.5-0.6-2.6
		s0.2-1.9,0.6-2.6c0.4-0.8,1.1-1.1,1.9-1.1C128.9,126.7,129.5,127.1,130,127.9z M126.7,128.5c-0.2,0.5-0.3,1.1-0.3,2
		c0,0.8,0.1,1.5,0.3,2c0.3,0.7,0.7,1,1.4,1s1.1-0.3,1.4-1c0.2-0.5,0.3-1.1,0.3-2c0-0.8-0.1-1.5-0.3-2c-0.3-0.7-0.7-1-1.4-1
		S126.9,127.8,126.7,128.5z"/>
	<path class="st0" d="M41,91c1,1.9,2.4,3.5,4.4,4.8l-0.9,1.3c-0.5-0.4-1-0.7-1.5-1.2v1.3h-5.6v-1.3c-0.5,0.4-0.9,0.8-1.4,1.2
		l-0.5-0.8v7.4h-1.4V103h-1.6v1.1H31v-12h4.5v3.5c1.7-1.2,3-2.8,4.1-4.6H41z M34.1,101.6v-8.1h-1.6v8.1H34.1z M43.9,105.7h-1.5v-0.8
		h-4.2v0.8h-1.4V99h7.1V105.7z M43,95.8c-1.1-1-2-2.1-2.7-3.5c-0.8,1.3-1.7,2.5-2.8,3.5H43z M42.4,103.4v-3h-4.2v3H42.4z M53.2,98.4
		c-1,2.2-2.1,4.2-3.4,5.8l-1.2-0.9c1.3-1.5,2.4-3.4,3.3-5.5L53.2,98.4z M49.9,97.5l-1.1-1c1.5-1.6,2.5-3.5,3.1-5.8l1.5,0.4
		c-0.2,0.6-0.3,1.1-0.5,1.6h8.8v1c-0.2,1.1-0.5,2.3-0.9,3.4l-1.5-0.4c0.3-0.7,0.6-1.6,0.8-2.5h-7.8C51.6,95.5,50.8,96.6,49.9,97.5z
		 M52.7,105.6l-0.3-1.5c0.6,0.1,1.2,0.1,1.8,0.1c0.4,0,0.6-0.2,0.6-0.7v-8.2h1.5v8.6c0,1.1-0.5,1.7-1.6,1.7H52.7z M62.5,103.8
		l-1.4,0.6c-0.9-2.3-2-4.4-3.1-6.2l1.4-0.5C60.5,99.7,61.6,101.7,62.5,103.8z M69.5,97.2l-1.1,1.1c-0.6-0.7-1.5-1.5-2.5-2.4l1.1-1.1
		C67.9,95.6,68.8,96.4,69.5,97.2z M69.6,99.9c-0.6,2-1.3,3.8-2.1,5.5l-1.4-0.6c0.8-1.8,1.6-3.6,2.2-5.4L69.6,99.9z M69.8,93.1
		l-1.1,1.1c-0.6-0.7-1.4-1.4-2.5-2.1l1.1-1.1C68.3,91.7,69.1,92.4,69.8,93.1z M74.4,103.5c-1,0.8-2.1,1.6-3.5,2.2l-0.9-1.2
		c1.3-0.6,2.5-1.2,3.4-2L74.4,103.5z M78.3,95.7c-1.5,0.4-3.2,0.7-5.1,0.9v0.7h6.2v1.4h-1.2v2.1h2.4v1.4H70.1v-1.4h1.5v-5.3
		c2.4-0.2,4.4-0.6,5.9-1.1L78.3,95.7z M80.1,95.3h-1.5v-1.7h-7v1.7h-1.5v-3.1h4.2c-0.2-0.4-0.4-0.8-0.6-1.1l1.5-0.3
		c0.2,0.4,0.4,0.9,0.6,1.4h4.2V95.3z M76.6,100.8v-2.1h-3.5v2.1H76.6z M80.4,104.4l-0.9,1.3c-1.1-0.9-2.3-1.6-3.5-2.2l0.8-1.1
		C78.1,103,79.3,103.7,80.4,104.4z M84.6,93.3v-1.5H97v1.5h-5.5v10.2h6.1v1.5h-14v-1.5H90V93.3H84.6z M107.3,91v12.6h1.9V91h1.5
		v12.6h4.7v1.5h-14.3v-1.5h4.6V91H107.3z M105,101.3l-1.4,0.4c-0.5-2.5-1.2-4.9-2.1-7.3l1.3-0.4C103.6,96.1,104.3,98.5,105,101.3z
		 M115.1,94.4c-0.6,2.8-1.4,5.2-2.4,7.2l-1.4-0.5c0.9-1.9,1.7-4.2,2.4-7.1L115.1,94.4z M125,95c0.1-0.8,0.2-1.7,0.2-2.7v-1.4h1.5v1
		c0,1.1-0.1,2.1-0.2,3h6.5v1.5h-6.1c1.1,3.4,3.3,6.1,6.5,7.9l-0.9,1.2c-3.1-1.9-5.2-4.5-6.5-7.9c-1.1,3.7-3.2,6.4-6.5,8.1l-1-1.3
		c3.3-1.6,5.4-4.3,6.2-8h-5.9V95H125z M150.4,97.9h-1.5v-2.4h-10.8v2.4h-1.5V94h2.9c-0.5-0.9-1-1.6-1.6-2.3l1.4-0.7
		c0.5,0.7,1.1,1.6,1.6,2.5l-1,0.5h6c0.7-1,1.2-2.1,1.7-3.2l1.6,0.6c-0.5,1-1.1,1.9-1.6,2.6h2.9V97.9z M147.8,96.5v1.3
		c-1,0.7-2.1,1.3-3.4,1.9v0.6h6v1.4h-6v2.4c0,0.9-0.5,1.4-1.5,1.4h-2l-0.4-1.4c0.6,0,1.2,0,1.9,0c0.3,0,0.5-0.2,0.5-0.6v-1.9h-6.3
		v-1.4h6.3v-1.2c1.1-0.5,2-0.9,2.7-1.2h-6.5v-1.3H147.8z M144.6,93.3l-1.4,0.7c-0.5-1-1-1.8-1.5-2.6l1.4-0.7
		C143.6,91.5,144.1,92.4,144.6,93.3z"/>
	<path class="st0" d="M58.1,113.7v-1.8h0.7v1.8h3.9v0.7h-3.3c0.7,1.6,1.9,3,3.6,4.3l-0.5,0.6c-1.8-1.4-3-3.1-3.7-4.9h-0.1v3.9H61
		v0.7h-2.1v2h-0.7v-2h-2.1v-0.7h2.1v-3.9h-0.1c-0.7,2-2,3.7-3.8,5l-0.4-0.7c1.7-1.1,2.9-2.6,3.6-4.3h-3.3v-0.7H58.1z M67,115.6h1
		c0.3-0.5,0.5-1.1,0.7-1.8l0.7,0.2c-0.2,0.6-0.4,1.1-0.7,1.5H70v0.7h-5v-0.7h1.3c-0.2-0.5-0.4-1-0.6-1.4l0.7-0.2
		C66.6,114.3,66.8,114.9,67,115.6z M67.2,112.8c-0.1-0.3-0.2-0.6-0.4-0.9l0.7-0.1c0.1,0.3,0.2,0.6,0.3,1h2v0.7h-4.7v-0.7H67.2z
		 M69.6,120.9h-0.7v-0.6h-2.6v0.6h-0.7v-3.8h4V120.9z M68.8,119.7v-1.8h-2.6v1.8H68.8z M73.8,112.3v0.5c-0.3,1-0.6,2-1,2.9
		c0.7,0.9,1.1,1.7,1.1,2.3c0,0.6-0.1,1-0.4,1.3c-0.3,0.2-0.8,0.4-1.6,0.4l-0.2-0.8c0.3,0,0.5,0,0.7,0c0.4,0,0.6-0.1,0.7-0.2
		c0.1-0.1,0.1-0.4,0.2-0.7c0-0.6-0.4-1.4-1.2-2.3c0.3-0.8,0.7-1.7,1-2.8h-1.8v8.1h-0.7v-8.7H73.8z M84.7,111.7
		c-0.4,0.7-0.7,1.3-0.9,2.1c-0.3,0.9-0.4,1.7-0.4,2.6c0,0.8,0.1,1.7,0.4,2.6c0.2,0.7,0.5,1.4,0.9,2.1H84c-0.4-0.6-0.8-1.3-1-2.1
		c-0.3-0.9-0.4-1.7-0.4-2.6c0-0.9,0.1-1.8,0.4-2.6c0.2-0.7,0.6-1.4,1-2.1H84.7z M96,112.3v0.7h-3v1.5h2.4v6.4h-0.7v-0.4h-6.3v0.4
		h-0.7v-6.4H90V113h-3v-0.7H96z M94.7,119.8v-1.6h-1.4c-0.7,0-1-0.3-1-1v-2.1h-1.5v0.2c0,1.6-0.6,2.7-1.6,3.5l-0.6-0.5
		c1-0.6,1.5-1.6,1.5-3v-0.2h-1.7v4.6H94.7z M90.7,114.5h1.5V113h-1.5V114.5z M92.9,117.1c0,0.3,0.1,0.5,0.5,0.5h1.3v-2.4h-1.7V117.1
		z M99.5,113.8v-1.9h0.7v1.9h1v0.7h-1v0.8c0.3,0.4,0.7,0.8,1,1.3c0.6-0.7,1.1-1.5,1.5-2.4l0.6,0.3c-0.5,1-1,1.8-1.6,2.5l-0.4-0.3
		l0.2,0.3l-0.4,0.6c-0.4-0.7-0.7-1.3-1-1.7v5h-0.7v-5.1c-0.3,1-0.8,1.9-1.3,2.7l-0.3-0.8c0.7-1,1.3-2,1.6-3.3h-1.3v-0.7H99.5z
		 M105.7,116.2c-0.2,1.1-0.5,2-1.1,2.7c0.6,0.6,1.5,1,2.5,1.4l-0.4,0.6c-1-0.4-1.9-0.9-2.5-1.5c-0.7,0.7-1.6,1.3-2.7,1.6l-0.4-0.6
		c1.1-0.3,1.9-0.8,2.6-1.4c-0.6-0.7-1-1.6-1.2-2.6l0.6-0.2c0.1,0.8,0.5,1.6,1,2.3c0.4-0.6,0.7-1.4,0.9-2.3L105.7,116.2z
		 M103.9,113.1c-0.2-0.5-0.4-0.9-0.6-1.3l0.7-0.1c0.2,0.4,0.4,0.9,0.6,1.4h2.2v0.7h-5.4v-0.7H103.9z M107.1,116.6l-0.6,0.4
		c-0.4-0.7-1-1.5-1.7-2.4l0.6-0.3C106.1,115.1,106.7,115.9,107.1,116.6z M117.6,112.2v0.7h-7.2v7h7.5v0.7h-8.2v-8.3H117.6z
		 M114.4,116c0.6-0.7,1.1-1.6,1.5-2.5l0.6,0.3c-0.4,1-1,1.9-1.6,2.7c0.8,0.7,1.5,1.4,2.1,2.1l-0.6,0.6c-0.6-0.7-1.3-1.4-2-2.1
		c-0.9,0.9-1.9,1.7-3,2.2l-0.4-0.6c1.1-0.5,2.1-1.1,2.9-2c-0.8-0.7-1.7-1.4-2.6-2.1l0.5-0.5C112.7,114.6,113.6,115.3,114.4,116z
		 M121,111.7c0.4,0.6,0.8,1.3,1,2.1c0.3,0.9,0.4,1.7,0.4,2.6c0,0.9-0.1,1.7-0.4,2.6c-0.3,0.7-0.6,1.4-1,2.1h-0.7
		c0.4-0.7,0.7-1.4,0.9-2.1c0.3-0.9,0.4-1.7,0.4-2.6c0-0.9-0.1-1.7-0.4-2.6c-0.2-0.7-0.5-1.4-0.9-2.1H121z"/>
	<path class="st2" d="M94,69.5v-8.2c0-1.9-1.4-3.3-3.5-3.3c-2.1,0-3.5,1.4-3.5,3.3v8.2c0,1.9,1.4,3.5,3.5,3.5
		C92.6,73,94,71.4,94,69.5z M95.9,68v2c0,2.6-2.4,4.7-5.4,4.7c-3,0-5.4-2.1-5.4-4.7v-2h-1.6v2c0,3.1,2.3,5.6,5.8,6v3H87v1h7v-1h-2.3
		v-3c3.5-0.3,5.8-2.8,5.8-6v-2H95.9z"/>
	<path class="st2" d="M383.5,69.5v-8.2c0-1.9-1.2-3.3-3-3.3s-3,1.4-3,3.3v8.2c0,1.9,1.2,3.5,3,3.5S383.5,71.4,383.5,69.5z M385.2,68
		v2c0,2.6-2.1,4.7-4.7,4.7s-4.7-2.1-4.7-4.7v-2h-1.3v2c0,3.1,2,5.6,5,6v3h-2v1h6v-1h-2v-3c3-0.3,5-2.8,5-6v-2H385.2z"/>
	<path class="st2" d="M671.5,69.5v-8.2c0-1.9-1.2-3.3-3-3.3s-3,1.4-3,3.3v8.2c0,1.9,1.2,3.5,3,3.5S671.5,71.4,671.5,69.5z M673.2,68
		v2c0,2.6-2.1,4.7-4.7,4.7c-2.6,0-4.7-2.1-4.7-4.7v-2h-1.3v2c0,3.1,2,5.6,5,6v3h-2v1h6v-1h-2v-3c3-0.3,5-2.8,5-6v-2H673.2z"/>
	<path class="st2" d="M94,260.5v-8.2c0-1.9-1.4-3.3-3.5-3.3c-2.1,0-3.5,1.4-3.5,3.3v8.2c0,1.9,1.4,3.5,3.5,3.5
		C92.6,264,94,262.4,94,260.5z M95.9,259v2c0,2.6-2.4,4.7-5.4,4.7c-3,0-5.4-2.1-5.4-4.7v-2h-1.6v2c0,3.1,2.3,5.6,5.8,6v3H87v1h7v-1
		h-2.3v-3c3.5-0.3,5.8-2.8,5.8-6v-2H95.9z"/>
	<path class="st2" d="M383.5,260.5v-8.2c0-1.9-1.2-3.3-3-3.3s-3,1.4-3,3.3v8.2c0,1.9,1.2,3.5,3,3.5S383.5,262.4,383.5,260.5z
		 M385.2,259v2c0,2.6-2.1,4.7-4.7,4.7s-4.7-2.1-4.7-4.7v-2h-1.3v2c0,3.1,2,5.6,5,6v3h-2v1h6v-1h-2v-3c3-0.3,5-2.8,5-6v-2H385.2z"/>
	<path class="st2" d="M671.5,260.5v-8.2c0-1.9-1.2-3.3-3-3.3s-3,1.4-3,3.3v8.2c0,1.9,1.2,3.5,3,3.5S671.5,262.4,671.5,260.5z
		 M673.2,259v2c0,2.6-2.1,4.7-4.7,4.7c-2.6,0-4.7-2.1-4.7-4.7v-2h-1.3v2c0,3.1,2,5.6,5,6v3h-2v1h6v-1h-2v-3c3-0.3,5-2.8,5-6v-2
		H673.2z"/>
	<path class="st2" d="M94,447.5v-8.2c0-1.9-1.4-3.3-3.5-3.3c-2.1,0-3.5,1.4-3.5,3.3v8.2c0,1.9,1.4,3.5,3.5,3.5
		C92.6,451,94,449.4,94,447.5z M95.9,446v2c0,2.6-2.4,4.7-5.4,4.7c-3,0-5.4-2.1-5.4-4.7v-2h-1.6v2c0,3.1,2.3,5.6,5.8,6v3H87v1h7v-1
		h-2.3v-3c3.5-0.3,5.8-2.8,5.8-6v-2H95.9z"/>
	<path class="st2" d="M383.5,447.5v-8.2c0-1.9-1.2-3.3-3-3.3s-3,1.4-3,3.3v8.2c0,1.9,1.2,3.5,3,3.5S383.5,449.4,383.5,447.5z
		 M385.2,446v2c0,2.6-2.1,4.7-4.7,4.7s-4.7-2.1-4.7-4.7v-2h-1.3v2c0,3.1,2,5.6,5,6v3h-2v1h6v-1h-2v-3c3-0.3,5-2.8,5-6v-2H385.2z"/>
	<path class="st2" d="M671.5,447.5v-8.2c0-1.9-1.2-3.3-3-3.3s-3,1.4-3,3.3v8.2c0,1.9,1.2,3.5,3,3.5S671.5,449.4,671.5,447.5z
		 M673.2,446v2c0,2.6-2.1,4.7-4.7,4.7c-2.6,0-4.7-2.1-4.7-4.7v-2h-1.3v2c0,3.1,2,5.6,5,6v3h-2v1h6v-1h-2v-3c3-0.3,5-2.8,5-6v-2
		H673.2z"/>
	<path class="st1" d="M660.4,231.7v1.8h2.3v1.2h-2.3v2.2c0.9-0.2,1.8-0.4,2.6-0.7v1.3c-2.3,0.7-4.8,1.3-7.7,1.7l-0.2-1.3
		c0.4-0.1,0.8-0.1,1.2-0.2v-4.9h1.3v4.7c0.5-0.1,1-0.2,1.4-0.3v-5.5H660.4z M663,229.7c-0.1-1-0.1-2.1-0.1-3.2h1.3
		c0,1.2,0,2.3,0.1,3.2h3.5v1.3h-3.4c0.1,1.1,0.2,1.9,0.3,2.6c0.3,1.4,0.6,2.4,0.9,3.1c0.3,0.6,0.6,0.9,0.7,0.9
		c0.1,0,0.3-0.6,0.4-1.8l1.2,0.7c-0.3,1.9-0.8,2.8-1.4,2.8c-0.5,0-1.1-0.4-1.7-1.3c-0.6-0.8-1.1-2.1-1.4-3.9
		c-0.2-0.9-0.4-1.9-0.4-3.1h-7.7v-1.3H663z M661.8,227.4v1.2h-5.4v-1.2H661.8z M667.4,228.8l-1.1,0.6c-0.4-0.9-0.9-1.6-1.5-2.3
		l1.1-0.5C666.5,227.2,667,228,667.4,228.8z M674.1,232l-1,0.9c-0.6-0.6-1.4-1.4-2.5-2.1l1-0.9C672.6,230.6,673.5,231.3,674.1,232z
		 M674.5,234.4c-0.7,1.8-1.4,3.4-2.3,5l-1.3-0.6c0.9-1.6,1.7-3.2,2.4-4.9L674.5,234.4z M674.5,228.9l-1,1c-0.6-0.7-1.4-1.4-2.5-2.2
		l0.9-0.9C673,227.4,673.8,228.1,674.5,228.9z M679.2,236.3c-1.1,1.3-2.4,2.3-4,3.1l-0.9-1.1c1.6-0.8,3-1.9,4-3.1
		c-1.4-2-2.2-4.1-2.5-6.6h-1.1v-1.3h7.8v1.2c-0.5,2.6-1.4,4.9-2.7,6.7c1,1.1,2.1,2.1,3.6,3l-0.9,1.1
		C681.3,238.4,680.2,237.4,679.2,236.3z M681.4,228.7h-4.2c0.2,2,0.9,3.9,2,5.5C680.2,232.6,681,230.8,681.4,228.7z"/>
	<path class="st1" d="M646.8,206.1c0.6,0.9,0.9,2,0.9,3.6c0,1.6-0.3,2.9-1,4c-0.7,1-1.6,1.5-2.7,1.5c-1.9,0-3-0.9-3.3-2.7h1.5
		c0.2,1,0.8,1.5,1.8,1.5c0.7,0,1.2-0.4,1.7-1c0.4-0.6,0.6-1.5,0.6-2.4c0-0.1,0-0.1,0-0.2h-0.1c-0.3,0.4-0.6,0.8-1.1,1
		c-0.4,0.2-0.9,0.3-1.4,0.3c-1,0-1.8-0.3-2.4-1c-0.6-0.6-0.9-1.4-0.9-2.4c0-1,0.3-1.8,1-2.5c0.7-0.7,1.5-1,2.5-1
		C645.2,204.8,646.1,205.2,646.8,206.1z M642.6,206.7c-0.4,0.4-0.6,0.9-0.6,1.6s0.2,1.1,0.6,1.5c0.4,0.4,0.8,0.6,1.5,0.6
		c0.6,0,1.1-0.2,1.5-0.6s0.5-0.9,0.5-1.6c0-0.7-0.2-1.2-0.6-1.6c-0.4-0.4-0.9-0.6-1.5-0.6C643.4,206.1,642.9,206.3,642.6,206.7z
		 M652.6,216.5l-1-0.9c0.9-1.2,1.3-2.8,1.4-4.7V204h8.3v11c0,0.9-0.5,1.3-1.4,1.3h-1.8l-0.4-1.3c0.6,0,1.2,0.1,1.7,0.1
		c0.3,0,0.4-0.2,0.4-0.6v-2.5h-5.7C654,213.9,653.5,215.3,652.6,216.5z M659.9,205.3h-5.7v2.1h5.7V205.3z M654.2,210.8h5.7v-2.2
		h-5.7V210.8z M671.8,205.6c0.6,0.6,0.9,1.3,0.9,2.2c0,0.9-0.3,1.7-1,2.4c-0.4,0.4-1.1,0.9-2.1,1.6c-1.1,0.7-1.7,1.3-1.9,1.9h5v1.3
		h-6.9c0-1,0.3-1.9,1-2.6c0.4-0.4,1.1-1,2.3-1.8c0.7-0.5,1.1-0.9,1.4-1.1c0.4-0.5,0.7-1.1,0.7-1.6c0-0.6-0.2-1-0.5-1.3
		s-0.8-0.4-1.4-0.4c-0.6,0-1.1,0.2-1.4,0.6c-0.3,0.4-0.5,1-0.5,1.8h-1.5c0-1.1,0.3-2,1-2.7c0.6-0.7,1.5-1.1,2.6-1.1
		C670.4,204.8,671.2,205.1,671.8,205.6z M682.3,205v1.3h-4.8l-0.3,2.9h0c0.3-0.3,0.7-0.5,1.1-0.7c0.4-0.2,0.8-0.2,1.2-0.2
		c0.9,0,1.7,0.3,2.3,0.9s0.9,1.5,0.9,2.5c0,1-0.4,1.9-1.1,2.5c-0.7,0.6-1.6,0.9-2.6,0.9c-0.9,0-1.7-0.3-2.3-0.7
		c-0.7-0.5-1.1-1.3-1.2-2.2h1.5c0.1,0.6,0.3,1,0.7,1.3c0.3,0.3,0.8,0.4,1.3,0.4c0.6,0,1.1-0.2,1.6-0.6c0.4-0.4,0.6-0.9,0.6-1.5
		c0-0.7-0.2-1.2-0.5-1.6s-0.9-0.6-1.5-0.6c-0.4,0-0.8,0.1-1.2,0.2c-0.4,0.2-0.6,0.4-0.8,0.8h-1.4l0.5-5.6H682.3z M696.3,216.4H695
		v-1h-6.3v1h-1.3V204h9V216.4z M695,208.9v-3.6h-6.3v3.6H695z M695,214.1v-3.9h-6.3v3.9H695z"/>
	<path class="st1" d="M631.9,316.9v7.1h-0.8v-6.1c-0.4,0.5-1,0.8-1.7,1V318c0.3-0.1,0.7-0.2,1-0.4c0.3-0.2,0.6-0.5,0.9-0.7H631.9z
		 M638.7,317.3c0.4,0.3,0.6,0.8,0.6,1.3c0,0.4-0.1,0.7-0.3,1c-0.2,0.3-0.5,0.5-0.8,0.6v0c0.4,0.1,0.7,0.3,0.9,0.6
		c0.3,0.3,0.4,0.7,0.4,1.2c0,0.6-0.2,1.1-0.7,1.5c-0.5,0.4-1.1,0.6-1.9,0.6c-0.8,0-1.5-0.2-1.9-0.6c-0.4-0.4-0.7-0.9-0.7-1.5
		c0-0.5,0.1-0.9,0.4-1.2c0.3-0.3,0.6-0.5,0.9-0.6v0c-0.4-0.1-0.7-0.3-0.8-0.6c-0.2-0.3-0.3-0.6-0.3-1c0-0.5,0.2-1,0.6-1.3
		c0.4-0.4,1-0.6,1.7-0.6C637.7,316.7,638.3,316.9,638.7,317.3z M635.6,321c-0.3,0.3-0.4,0.6-0.4,1c0,0.4,0.1,0.8,0.4,1
		c0.3,0.3,0.7,0.4,1.3,0.4c0.6,0,1-0.1,1.3-0.4c0.3-0.3,0.4-0.6,0.4-1c0-0.4-0.1-0.8-0.4-1c-0.3-0.3-0.8-0.4-1.3-0.4
		C636.4,320.6,636,320.7,635.6,321z M635.8,317.8c-0.2,0.2-0.4,0.5-0.4,0.9c0,0.4,0.1,0.7,0.3,0.9c0.3,0.3,0.7,0.4,1.2,0.4
		c0.5,0,1-0.1,1.2-0.4c0.2-0.2,0.3-0.5,0.3-0.9c0-0.3-0.1-0.6-0.4-0.9c-0.3-0.3-0.7-0.4-1.2-0.4
		C636.5,317.4,636.1,317.5,635.8,317.8z M643.9,318.1c0.1,0.1,0.2,0.2,0.2,0.4c0,0.2-0.1,0.3-0.2,0.4c-0.1,0.1-0.3,0.2-0.4,0.2
		s-0.3-0.1-0.4-0.2c-0.1-0.1-0.2-0.3-0.2-0.4s0-0.3,0.2-0.4c0.1-0.1,0.3-0.2,0.4-0.2S643.8,318,643.9,318.1z M643.9,321.8
		c0.1,0.1,0.2,0.2,0.2,0.4c0,0.2-0.1,0.3-0.2,0.4c-0.1,0.1-0.3,0.2-0.4,0.2s-0.3-0.1-0.4-0.2c-0.1-0.1-0.2-0.3-0.2-0.4
		s0-0.3,0.2-0.4c0.1-0.1,0.3-0.2,0.4-0.2S643.8,321.6,643.9,321.8z M656.7,317.2c0.4,0.3,0.6,0.8,0.6,1.4c0,0.8-0.4,1.3-1.2,1.6
		c0.4,0.1,0.7,0.3,1,0.6c0.2,0.3,0.4,0.6,0.4,1c0,0.6-0.2,1.2-0.7,1.6c-0.5,0.4-1.1,0.6-1.8,0.6c-0.7,0-1.2-0.2-1.7-0.5
		c-0.5-0.4-0.8-1-0.8-1.8h0.8c0,0.6,0.2,1,0.6,1.3c0.3,0.2,0.7,0.4,1.1,0.4c0.5,0,0.9-0.1,1.2-0.4c0.3-0.3,0.4-0.6,0.4-1
		c0-0.4-0.1-0.8-0.4-1s-0.7-0.3-1.2-0.3h-0.6V320h0.5c0.5,0,0.8-0.1,1.1-0.3c0.2-0.2,0.4-0.5,0.4-0.9s-0.1-0.7-0.4-0.9
		c-0.3-0.2-0.6-0.3-1.1-0.3c-0.5,0-0.8,0.1-1.1,0.4c-0.3,0.3-0.4,0.6-0.5,1.1h-0.8c0.1-0.7,0.3-1.2,0.8-1.6c0.4-0.4,1-0.6,1.6-0.6
		S656.3,316.9,656.7,317.2z M663.9,317.9c0.4,0.6,0.6,1.5,0.6,2.6s-0.2,1.9-0.6,2.6c-0.4,0.7-1.1,1.1-1.9,1.1
		c-0.9,0-1.5-0.4-1.9-1.1c-0.4-0.6-0.6-1.5-0.6-2.6s0.2-1.9,0.6-2.6c0.4-0.8,1.1-1.1,1.9-1.1C662.8,316.7,663.5,317.1,663.9,317.9z
		 M660.6,318.5c-0.2,0.5-0.3,1.1-0.3,2c0,0.8,0.1,1.5,0.3,2c0.3,0.7,0.7,1,1.4,1s1.1-0.3,1.4-1c0.2-0.5,0.3-1.1,0.3-2
		c0-0.8-0.1-1.5-0.3-2c-0.3-0.7-0.7-1-1.4-1S660.9,317.8,660.6,318.5z M671.5,321.1v0.7h-5v-0.7H671.5z M677.8,317.3
		c0.4,0.4,0.6,0.9,0.6,1.5s-0.2,1.2-0.7,1.7c-0.2,0.3-0.7,0.6-1.5,1.1c-0.9,0.6-1.4,1.2-1.6,1.6h3.7v0.7h-4.8c0-0.6,0.2-1.2,0.7-1.8
		c0.3-0.3,0.8-0.7,1.5-1.3c0.6-0.4,0.9-0.7,1.1-0.9c0.4-0.4,0.5-0.8,0.5-1.3c0-0.4-0.1-0.8-0.4-1c-0.3-0.2-0.6-0.4-1.1-0.4
		c-0.5,0-0.9,0.2-1.1,0.5c-0.3,0.3-0.4,0.8-0.4,1.4h-0.8c0-0.8,0.2-1.4,0.7-1.9c0.4-0.5,1-0.7,1.7-0.7
		C676.8,316.7,677.3,316.9,677.8,317.3z M683,316.9v7.1h-0.8v-6.1c-0.4,0.5-1,0.8-1.7,1V318c0.3-0.1,0.7-0.2,1-0.4
		c0.3-0.2,0.6-0.5,0.9-0.7H683z M688,318.1c0.1,0.1,0.2,0.2,0.2,0.4c0,0.2-0.1,0.3-0.2,0.4c-0.1,0.1-0.3,0.2-0.4,0.2
		c-0.2,0-0.3-0.1-0.4-0.2c-0.1-0.1-0.2-0.3-0.2-0.4s0-0.3,0.2-0.4c0.1-0.1,0.3-0.2,0.4-0.2C687.7,317.9,687.9,318,688,318.1z
		 M688,321.8c0.1,0.1,0.2,0.2,0.2,0.4c0,0.2-0.1,0.3-0.2,0.4c-0.1,0.1-0.3,0.2-0.4,0.2c-0.2,0-0.3-0.1-0.4-0.2
		c-0.1-0.1-0.2-0.3-0.2-0.4s0-0.3,0.2-0.4c0.1-0.1,0.3-0.2,0.4-0.2C687.7,321.6,687.9,321.6,688,321.8z M700.8,317.2
		c0.4,0.3,0.6,0.8,0.6,1.4c0,0.8-0.4,1.3-1.2,1.6c0.4,0.1,0.7,0.3,1,0.6c0.2,0.3,0.4,0.6,0.4,1c0,0.6-0.2,1.2-0.7,1.6
		c-0.5,0.4-1.1,0.6-1.8,0.6c-0.7,0-1.2-0.2-1.7-0.5c-0.5-0.4-0.8-1-0.8-1.8h0.8c0,0.6,0.2,1,0.6,1.3c0.3,0.2,0.7,0.4,1.1,0.4
		c0.5,0,0.9-0.1,1.2-0.4c0.3-0.3,0.4-0.6,0.4-1c0-0.4-0.1-0.8-0.4-1s-0.7-0.3-1.2-0.3h-0.6V320h0.5c0.5,0,0.8-0.1,1.1-0.3
		c0.2-0.2,0.4-0.5,0.4-0.9s-0.1-0.7-0.4-0.9c-0.3-0.2-0.6-0.3-1.1-0.3c-0.5,0-0.8,0.1-1.1,0.4c-0.3,0.3-0.4,0.6-0.5,1.1h-0.8
		c0.1-0.7,0.3-1.2,0.8-1.6c0.4-0.4,1-0.6,1.6-0.6S700.3,316.9,700.8,317.2z M708,317.9c0.4,0.6,0.6,1.5,0.6,2.6s-0.2,1.9-0.6,2.6
		c-0.4,0.7-1.1,1.1-1.9,1.1c-0.9,0-1.5-0.4-1.9-1.1c-0.4-0.6-0.6-1.5-0.6-2.6s0.2-1.9,0.6-2.6c0.4-0.8,1.1-1.1,1.9-1.1
		C706.9,316.7,707.5,317.1,708,317.9z M704.7,318.5c-0.2,0.5-0.3,1.1-0.3,2c0,0.8,0.1,1.5,0.3,2c0.3,0.7,0.7,1,1.4,1s1.1-0.3,1.4-1
		c0.2-0.5,0.3-1.1,0.3-2c0-0.8-0.1-1.5-0.3-2c-0.3-0.7-0.7-1-1.4-1S704.9,317.8,704.7,318.5z"/>
	<path class="st0" d="M618,286.7l-0.5-1.6c2-1.2,3.4-2.7,4.4-4.3l1.3,0.6c-0.5,0.9-1.1,1.8-1.9,2.6v5.3h-1.5v-3.9
		C619.2,285.8,618.6,286.3,618,286.7z M623.9,290.3v-1.4h1.5v1.4h6.2v1.5h-6.2v3.9h-1.5v-3.9h-6.2v-1.5H623.9z M626.6,288.8
		c-1.1,0-1.6-0.5-1.6-1.6v-0.9c-0.7,0.3-1.4,0.5-2.1,0.8l-0.9-1.3c1.1-0.4,2-0.7,2.9-1.1v-3.6h1.5v2.9c1.5-0.8,2.7-1.6,3.7-2.5
		l1,1.1c-1.4,1.2-2.9,2.2-4.8,3v1.3c0,0.3,0.2,0.5,0.6,0.5h2.2c0.4,0,0.6-0.1,0.8-0.3c0.2-0.2,0.4-0.8,0.4-1.8l1.4,0.5
		c-0.2,1.4-0.4,2.3-0.8,2.5c-0.4,0.3-0.9,0.4-1.6,0.4H626.6z M643.1,280.8v2.8h5.7v7.7h-1.5v-0.9h-4.2v5.4h-1.6v-5.4h-4.2v0.9h-1.5
		v-7.7h5.7v-2.8H643.1z M641.5,288.9v-3.8h-4.2v3.8H641.5z M647.3,288.9v-3.8h-4.2v3.8H647.3z M655.4,285.1v-2
		c-0.7,0.1-1.5,0.2-2.2,0.3l-0.3-1.4c2.1-0.2,3.9-0.5,5.5-1l0.5,1.4c-0.7,0.2-1.3,0.3-2,0.5v2.2h2v1.5h-2v0.6
		c0.8,0.6,1.7,1.4,2.6,2.2l-0.8,1.3c-0.7-0.8-1.3-1.5-1.7-2v7h-1.5v-6.9c-0.6,1.4-1.4,2.7-2.3,3.9l-0.7-1.7c1.3-1.3,2.2-2.7,2.8-4.3
		h-2.3v-1.5H655.4z M667.3,290.9l-1.5,0.2v4.5h-1.5v-4.2l-4.8,0.8l-0.2-1.5l5-0.8v-8.9h1.5v8.7l1.3-0.2L667.3,290.9z M663.4,287.9
		l-1.1,1.1c-0.7-0.8-1.6-1.6-2.8-2.5l1.1-1C661.7,286.2,662.6,287.1,663.4,287.9z M663.8,284.1l-1,1.1c-0.7-0.7-1.6-1.5-2.8-2.3
		l1.1-1C662.1,282.5,663.1,283.3,663.8,284.1z M670.7,295.5l-0.3-1.4c0.4,0.1,0.8,0.1,1.2,0.1c0.4,0,0.6-0.2,0.6-0.7v-3.4
		c-0.6,0.2-1.2,0.4-1.7,0.6l-0.4-1.5c0.7-0.2,1.4-0.4,2.1-0.6v-3.5h-1.8v-1.5h1.8v-2.8h1.5v2.8h1.6v1.5h-1.6v2.8
		c0.5-0.3,1.1-0.5,1.6-0.8v1.5c-0.5,0.3-1.1,0.5-1.6,0.8v4.4c0,1.1-0.5,1.6-1.5,1.6H670.7z M679.4,283.1v-2.1h1.5v2.1h3.7v1.5h-3.7
		v2.3h3.1v1.3c-0.5,1.7-1.4,3.1-2.6,4.3c1,0.7,2.2,1.4,3.6,2l-0.8,1.2c-1.5-0.7-2.8-1.4-3.9-2.3c-1.2,0.9-2.7,1.7-4.4,2.3l-0.7-1.3
		c1.6-0.5,3-1.2,4.1-2c-1.2-1.2-2.1-2.6-2.5-4.2h-0.8v-1.4h3.4v-2.3h-3.7v-1.5H679.4z M680.3,291.6c1-1,1.7-2.1,2.2-3.3h-4.3
		C678.6,289.5,679.3,290.6,680.3,291.6z M694.2,285c0.1-0.8,0.2-1.7,0.2-2.7v-1.4h1.5v1c0,1.1-0.1,2.1-0.2,3h6.5v1.5h-6.1
		c1.1,3.4,3.3,6.1,6.5,7.9l-0.9,1.2c-3.1-1.9-5.2-4.5-6.5-7.9c-1.1,3.7-3.2,6.4-6.5,8.1l-1-1.3c3.3-1.6,5.4-4.3,6.2-8H688V285H694.2
		z M719.6,287.9h-1.5v-2.4h-10.8v2.4h-1.5V284h2.9c-0.5-0.9-1-1.6-1.6-2.3l1.4-0.7c0.5,0.7,1.1,1.6,1.6,2.5l-1,0.5h6
		c0.7-1,1.2-2.1,1.7-3.2l1.6,0.6c-0.5,1-1.1,1.9-1.6,2.6h2.9V287.9z M717,286.5v1.3c-1,0.7-2.1,1.3-3.4,1.9v0.6h6v1.4h-6v2.4
		c0,0.9-0.5,1.4-1.5,1.4h-2l-0.4-1.4c0.6,0,1.2,0,1.9,0c0.3,0,0.5-0.2,0.5-0.6v-1.9h-6.3v-1.4h6.3v-1.2c1.1-0.5,2-0.9,2.7-1.2h-6.5
		v-1.3H717z M713.8,283.3l-1.4,0.7c-0.5-1-1-1.8-1.5-2.6l1.4-0.7C712.8,281.5,713.3,282.4,713.8,283.3z"/>
	<path class="st0" d="M636.1,303.7v-1.8h0.7v1.8h3.9v0.7h-3.3c0.7,1.6,1.9,3,3.6,4.3l-0.5,0.6c-1.8-1.4-3-3.1-3.7-4.9h-0.1v3.9h2.1
		v0.7h-2.1v2h-0.7v-2h-2.1v-0.7h2.1v-3.9h-0.1c-0.7,2-2,3.7-3.8,5l-0.4-0.7c1.7-1.1,2.9-2.6,3.6-4.3h-3.3v-0.7H636.1z M645,305.6h1
		c0.3-0.5,0.5-1.1,0.7-1.8l0.7,0.2c-0.2,0.6-0.4,1.1-0.7,1.5h1.2v0.7h-5v-0.7h1.3c-0.2-0.5-0.4-1-0.6-1.4l0.7-0.2
		C644.6,304.3,644.8,304.9,645,305.6z M645.2,302.8c-0.1-0.3-0.2-0.6-0.4-0.9l0.7-0.1c0.1,0.3,0.2,0.6,0.3,1h2v0.7h-4.7v-0.7H645.2z
		 M647.6,310.9h-0.7v-0.6h-2.6v0.6h-0.7v-3.8h4V310.9z M646.8,309.7v-1.8h-2.6v1.8H646.8z M651.8,302.3v0.5c-0.3,1-0.6,2-1,2.9
		c0.7,0.9,1.1,1.7,1.1,2.3c0,0.6-0.1,1-0.4,1.3c-0.3,0.2-0.8,0.4-1.6,0.4l-0.2-0.8c0.3,0,0.5,0,0.7,0c0.4,0,0.6-0.1,0.7-0.2
		c0.1-0.1,0.1-0.4,0.2-0.7c0-0.6-0.4-1.4-1.2-2.3c0.3-0.8,0.7-1.7,1-2.8h-1.8v8.1h-0.7v-8.7H651.8z M662.7,301.7
		c-0.4,0.7-0.7,1.3-0.9,2.1c-0.3,0.9-0.4,1.7-0.4,2.6c0,0.8,0.1,1.7,0.4,2.6c0.2,0.7,0.5,1.4,0.9,2.1H662c-0.4-0.6-0.8-1.3-1-2.1
		c-0.3-0.9-0.4-1.7-0.4-2.6c0-0.9,0.1-1.8,0.4-2.6c0.2-0.7,0.6-1.4,1-2.1H662.7z M668.6,301.9v9.1h-0.7v-1.7
		c-0.8,0.4-1.7,0.7-2.6,0.9l-0.2-0.7c1-0.2,1.9-0.5,2.8-1v-3.2h-2.6v-0.7h2.6v-2.8H668.6z M671.2,310.8c-0.6,0-0.9-0.3-0.9-1v-8h0.7
		v3.3c0.9-0.3,1.7-0.8,2.5-1.3l0.4,0.6c-1,0.6-2,1.1-2.9,1.4v3.8c0,0.3,0.1,0.4,0.4,0.4h1.2c0.2,0,0.4-0.1,0.5-0.2
		c0.1-0.2,0.1-0.8,0.2-1.8l0.7,0.2c-0.1,1.2-0.2,1.9-0.3,2.1c-0.2,0.2-0.5,0.4-0.9,0.4H671.2z M677.5,303.8v-1.9h0.7v1.9h1v0.7h-1
		v0.8c0.3,0.4,0.7,0.8,1,1.3c0.6-0.7,1.1-1.5,1.5-2.4l0.6,0.3c-0.5,1-1,1.8-1.6,2.5l-0.4-0.3l0.2,0.3l-0.4,0.6
		c-0.4-0.7-0.7-1.3-1-1.7v5h-0.7v-5.1c-0.3,1-0.8,1.9-1.3,2.7l-0.3-0.8c0.7-1,1.3-2,1.6-3.3h-1.3v-0.7H677.5z M683.7,306.2
		c-0.2,1.1-0.5,2-1.1,2.7c0.6,0.6,1.5,1,2.5,1.4l-0.4,0.6c-1-0.4-1.9-0.9-2.5-1.5c-0.7,0.7-1.6,1.3-2.7,1.6l-0.4-0.6
		c1.1-0.3,1.9-0.8,2.6-1.4c-0.6-0.7-1-1.6-1.2-2.6l0.6-0.2c0.1,0.8,0.5,1.6,1,2.3c0.4-0.6,0.7-1.4,0.9-2.3L683.7,306.2z
		 M681.9,303.1c-0.2-0.5-0.4-0.9-0.6-1.3l0.7-0.1c0.2,0.4,0.4,0.9,0.6,1.4h2.2v0.7h-5.4v-0.7H681.9z M685.1,306.6l-0.6,0.4
		c-0.4-0.7-1-1.5-1.7-2.4l0.6-0.3C684.1,305.1,684.7,305.9,685.1,306.6z M695.6,302.2v0.7h-7.2v7h7.5v0.7h-8.2v-8.3H695.6z
		 M692.4,306c0.6-0.7,1.1-1.6,1.5-2.5l0.6,0.3c-0.4,1-1,1.9-1.6,2.7c0.8,0.7,1.5,1.4,2.1,2.1l-0.6,0.6c-0.6-0.7-1.3-1.4-2-2.1
		c-0.9,0.9-1.9,1.7-3,2.2l-0.4-0.6c1.1-0.5,2.1-1.1,2.9-2c-0.8-0.7-1.7-1.4-2.6-2.1l0.5-0.5C690.7,304.6,691.6,305.3,692.4,306z
		 M699,301.7c0.4,0.6,0.8,1.3,1,2.1c0.3,0.9,0.4,1.7,0.4,2.6c0,0.9-0.1,1.7-0.4,2.6c-0.3,0.7-0.6,1.4-1,2.1h-0.7
		c0.4-0.7,0.7-1.4,0.9-2.1c0.3-0.9,0.4-1.7,0.4-2.6c0-0.9-0.1-1.7-0.4-2.6c-0.2-0.7-0.5-1.4-0.9-2.1H699z"/>
	<path class="st1" d="M82.9,419.1v-0.7h-4.1v-3h4.1v-0.8h1.3v0.8h4.1v3h-4.1v0.7h5.6v1.1H77.3v-1.1H82.9z M84.4,422.7
		c-0.2,1.7-0.6,2.8-1.3,3.4c-0.7,0.7-2.4,1.2-5.2,1.4l-0.5-1.2c2.3-0.1,3.8-0.4,4.6-1c0.7-0.5,1-1.4,1.1-2.7L84.4,422.7z M88.2,425
		h-1.3v-3h-6.5v3.2h-1.3v-4.3h9.1V425z M82.9,416.4h-2.8v0.9h2.8V416.4z M89.8,426.5l-0.7,1.1c-1.7-0.7-3.3-1.3-5.1-1.8l0.7-1
		C86.6,425.3,88.3,425.8,89.8,426.5z M87.1,416.4h-2.8v0.9h2.8V416.4z M94.9,418.2c-0.2,1.4-0.5,2.8-1,4.1l-1.2-0.4
		c0.5-1.3,0.8-2.6,1-4L94.9,418.2z M99.3,421.7l-1.1,0.5c-0.4-1.2-0.8-2.3-1.3-3.2v0.1c0,3.9-0.9,6.7-2.6,8.5l-1-0.9
		c1.5-1.6,2.3-4.1,2.3-7.6v-4.3h1.3v3.9l0.9-0.4C98.4,419.2,98.9,420.4,99.3,421.7z M100.8,415v3.4l0.9-0.4c0.6,1,1.1,2.2,1.5,3.4
		l-1.1,0.5c-0.4-1.1-0.8-2.2-1.3-3.1v8h-1.3V415H100.8z M104.7,414.6v12.9h-1.3v-12.9H104.7z"/>
	<path class="st1" d="M63.6,393v10h-1.5v-8.2c-0.6,0.6-1.4,1-2.3,1.3v-1.5c0.4-0.1,0.9-0.3,1.4-0.6c0.5-0.3,0.9-0.6,1.3-1H63.6z
		 M73.2,394.3c0.6,0.9,0.9,2.2,0.9,3.7c0,1.5-0.3,2.8-0.9,3.7c-0.6,1-1.6,1.5-2.7,1.5s-2.1-0.5-2.7-1.5c-0.6-0.9-0.9-2.2-0.9-3.7
		c0-1.6,0.3-2.8,0.9-3.7c0.6-1,1.6-1.5,2.7-1.5S72.6,393.3,73.2,394.3z M68.8,395.4c-0.3,0.6-0.4,1.5-0.4,2.5c0,1.1,0.1,1.9,0.4,2.5
		c0.3,0.9,0.9,1.4,1.7,1.4c0.8,0,1.4-0.5,1.7-1.4c0.2-0.6,0.4-1.5,0.4-2.5c0-1.1-0.1-1.9-0.4-2.5c-0.3-0.9-0.9-1.4-1.7-1.4
		C69.7,394.1,69.1,394.5,68.8,395.4z M79,404.5l-1-0.9c0.9-1.2,1.3-2.8,1.4-4.7V392h8.3v11c0,0.9-0.5,1.3-1.4,1.3h-1.8l-0.4-1.3
		c0.6,0,1.2,0.1,1.7,0.1c0.3,0,0.4-0.2,0.4-0.6v-2.5h-5.7C80.4,401.9,79.9,403.3,79,404.5z M86.3,393.3h-5.7v2.1h5.7V393.3z
		 M80.6,398.8h5.7v-2.2h-5.7V398.8z M95.9,393v10h-1.5v-8.2c-0.6,0.6-1.4,1-2.3,1.3v-1.5c0.4-0.1,0.9-0.3,1.4-0.6
		c0.5-0.3,0.9-0.6,1.3-1H95.9z M105.3,393.6c0.6,0.6,0.9,1.3,0.9,2.2c0,0.9-0.3,1.7-1,2.4c-0.4,0.4-1.1,0.9-2.1,1.6
		c-1.1,0.7-1.7,1.3-1.9,1.9h5v1.3h-6.9c0-1,0.3-1.9,1-2.6c0.4-0.4,1.1-1,2.3-1.8c0.7-0.5,1.1-0.9,1.4-1.1c0.4-0.5,0.7-1.1,0.7-1.6
		c0-0.6-0.2-1-0.5-1.3s-0.8-0.4-1.4-0.4c-0.6,0-1.1,0.2-1.4,0.6c-0.3,0.4-0.5,1-0.5,1.8h-1.5c0-1.1,0.3-2,1-2.7
		c0.6-0.7,1.5-1.1,2.6-1.1C103.9,392.8,104.7,393.1,105.3,393.6z M120,404.4h-1.3v-1h-6.3v1h-1.3V392h9V404.4z M118.7,396.9v-3.6
		h-6.3v3.6H118.7z M118.7,402.1v-3.9h-6.3v3.9H118.7z"/>
	<path class="st1" d="M53.9,504.9v7.1h-0.8v-6.1c-0.4,0.5-1,0.8-1.7,1V506c0.3-0.1,0.7-0.2,1-0.4c0.3-0.2,0.6-0.5,0.9-0.7H53.9z
		 M60.7,505.3c0.4,0.3,0.6,0.8,0.6,1.3c0,0.4-0.1,0.7-0.3,1c-0.2,0.3-0.5,0.5-0.8,0.6v0c0.4,0.1,0.7,0.3,0.9,0.6
		c0.3,0.3,0.4,0.7,0.4,1.2c0,0.6-0.2,1.1-0.7,1.5c-0.5,0.4-1.1,0.6-1.9,0.6c-0.8,0-1.5-0.2-1.9-0.6c-0.4-0.4-0.7-0.9-0.7-1.5
		c0-0.5,0.1-0.9,0.4-1.2c0.3-0.3,0.6-0.5,0.9-0.6v0c-0.4-0.1-0.7-0.3-0.8-0.6c-0.2-0.3-0.3-0.6-0.3-1c0-0.5,0.2-1,0.6-1.3
		c0.4-0.4,1-0.6,1.7-0.6C59.7,504.7,60.3,504.9,60.7,505.3z M57.6,509c-0.3,0.3-0.4,0.6-0.4,1c0,0.4,0.1,0.8,0.4,1
		c0.3,0.3,0.7,0.4,1.3,0.4s1-0.1,1.3-0.4c0.3-0.3,0.4-0.6,0.4-1c0-0.4-0.1-0.8-0.4-1c-0.3-0.3-0.8-0.4-1.3-0.4
		C58.4,508.6,58,508.7,57.6,509z M57.8,505.8c-0.2,0.2-0.4,0.5-0.4,0.9c0,0.4,0.1,0.7,0.3,0.9c0.3,0.3,0.7,0.4,1.2,0.4
		c0.5,0,1-0.1,1.2-0.4c0.2-0.2,0.3-0.5,0.3-0.9c0-0.3-0.1-0.6-0.4-0.9c-0.3-0.3-0.7-0.4-1.2-0.4C58.5,505.4,58.1,505.5,57.8,505.8z
		 M65.9,506.1c0.1,0.1,0.2,0.2,0.2,0.4c0,0.2-0.1,0.3-0.2,0.4c-0.1,0.1-0.3,0.2-0.4,0.2s-0.3-0.1-0.4-0.2c-0.1-0.1-0.2-0.3-0.2-0.4
		s0-0.3,0.2-0.4c0.1-0.1,0.3-0.2,0.4-0.2S65.8,506,65.9,506.1z M65.9,509.8c0.1,0.1,0.2,0.2,0.2,0.4c0,0.2-0.1,0.3-0.2,0.4
		c-0.1,0.1-0.3,0.2-0.4,0.2s-0.3-0.1-0.4-0.2c-0.1-0.1-0.2-0.3-0.2-0.4s0-0.3,0.2-0.4c0.1-0.1,0.3-0.2,0.4-0.2
		S65.8,509.6,65.9,509.8z M78.7,505.2c0.4,0.3,0.6,0.8,0.6,1.4c0,0.8-0.4,1.3-1.2,1.6c0.4,0.1,0.7,0.3,1,0.6c0.2,0.3,0.4,0.6,0.4,1
		c0,0.6-0.2,1.2-0.7,1.6c-0.5,0.4-1.1,0.6-1.8,0.6c-0.7,0-1.2-0.2-1.7-0.5c-0.5-0.4-0.8-1-0.8-1.8h0.8c0,0.6,0.2,1,0.6,1.3
		c0.3,0.2,0.7,0.4,1.1,0.4c0.5,0,0.9-0.1,1.2-0.4c0.3-0.3,0.4-0.6,0.4-1c0-0.4-0.1-0.8-0.4-1s-0.7-0.3-1.2-0.3h-0.6V508H77
		c0.5,0,0.8-0.1,1.1-0.3c0.2-0.2,0.4-0.5,0.4-0.9s-0.1-0.7-0.4-0.9c-0.3-0.2-0.6-0.3-1.1-0.3c-0.5,0-0.8,0.1-1.1,0.4
		c-0.3,0.3-0.4,0.6-0.5,1.1h-0.8c0.1-0.7,0.3-1.2,0.8-1.6c0.4-0.4,1-0.6,1.6-0.6S78.3,504.9,78.7,505.2z M85.9,505.9
		c0.4,0.6,0.6,1.5,0.6,2.6s-0.2,1.9-0.6,2.6c-0.4,0.7-1.1,1.1-1.9,1.1c-0.9,0-1.5-0.4-1.9-1.1c-0.4-0.6-0.6-1.5-0.6-2.6
		s0.2-1.9,0.6-2.6c0.4-0.8,1.1-1.1,1.9-1.1C84.8,504.7,85.5,505.1,85.9,505.9z M82.6,506.5c-0.2,0.5-0.3,1.1-0.3,2
		c0,0.8,0.1,1.5,0.3,2c0.3,0.7,0.7,1,1.4,1s1.1-0.3,1.4-1c0.2-0.5,0.3-1.1,0.3-2c0-0.8-0.1-1.5-0.3-2c-0.3-0.7-0.7-1-1.4-1
		S82.9,505.8,82.6,506.5z M93.5,509.1v0.7h-5v-0.7H93.5z M99.8,505.3c0.4,0.4,0.6,0.9,0.6,1.5s-0.2,1.2-0.7,1.7
		c-0.2,0.3-0.7,0.6-1.5,1.1c-0.9,0.6-1.4,1.2-1.6,1.6h3.7v0.7h-4.8c0-0.6,0.2-1.2,0.7-1.8c0.3-0.3,0.8-0.7,1.5-1.3
		c0.6-0.4,0.9-0.7,1.1-0.9c0.4-0.4,0.5-0.8,0.5-1.3c0-0.4-0.1-0.8-0.4-1s-0.6-0.4-1.1-0.4c-0.5,0-0.9,0.2-1.1,0.5
		c-0.3,0.3-0.4,0.8-0.4,1.4h-0.8c0-0.8,0.2-1.4,0.7-1.9c0.4-0.5,1-0.7,1.7-0.7C98.8,504.7,99.3,504.9,99.8,505.3z M105,504.9v7.1
		h-0.8v-6.1c-0.4,0.5-1,0.8-1.7,1V506c0.3-0.1,0.7-0.2,1-0.4c0.3-0.2,0.6-0.5,0.9-0.7H105z M110,506.1c0.1,0.1,0.2,0.2,0.2,0.4
		c0,0.2-0.1,0.3-0.2,0.4c-0.1,0.1-0.3,0.2-0.4,0.2s-0.3-0.1-0.4-0.2c-0.1-0.1-0.2-0.3-0.2-0.4s0-0.3,0.2-0.4
		c0.1-0.1,0.3-0.2,0.4-0.2S109.9,506,110,506.1z M110,509.8c0.1,0.1,0.2,0.2,0.2,0.4c0,0.2-0.1,0.3-0.2,0.4
		c-0.1,0.1-0.3,0.2-0.4,0.2s-0.3-0.1-0.4-0.2c-0.1-0.1-0.2-0.3-0.2-0.4s0-0.3,0.2-0.4c0.1-0.1,0.3-0.2,0.4-0.2
		S109.9,509.6,110,509.8z M122.8,505.2c0.4,0.3,0.6,0.8,0.6,1.4c0,0.8-0.4,1.3-1.2,1.6c0.4,0.1,0.7,0.3,1,0.6c0.2,0.3,0.4,0.6,0.4,1
		c0,0.6-0.2,1.2-0.7,1.6c-0.5,0.4-1.1,0.6-1.8,0.6c-0.7,0-1.2-0.2-1.7-0.5c-0.5-0.4-0.8-1-0.8-1.8h0.8c0,0.6,0.2,1,0.6,1.3
		c0.3,0.2,0.7,0.4,1.1,0.4c0.5,0,0.9-0.1,1.2-0.4c0.3-0.3,0.4-0.6,0.4-1c0-0.4-0.1-0.8-0.4-1s-0.7-0.3-1.2-0.3h-0.6V508h0.5
		c0.5,0,0.8-0.1,1.1-0.3c0.2-0.2,0.4-0.5,0.4-0.9s-0.1-0.7-0.4-0.9c-0.3-0.2-0.6-0.3-1.1-0.3c-0.5,0-0.8,0.1-1.1,0.4
		c-0.3,0.3-0.4,0.6-0.5,1.1h-0.8c0.1-0.7,0.3-1.2,0.8-1.6c0.4-0.4,1-0.6,1.6-0.6S122.3,504.9,122.8,505.2z M130,505.9
		c0.4,0.6,0.6,1.5,0.6,2.6s-0.2,1.9-0.6,2.6c-0.4,0.7-1.1,1.1-1.9,1.1c-0.9,0-1.5-0.4-1.9-1.1c-0.4-0.6-0.6-1.5-0.6-2.6
		s0.2-1.9,0.6-2.6c0.4-0.8,1.1-1.1,1.9-1.1C128.9,504.7,129.5,505.1,130,505.9z M126.7,506.5c-0.2,0.5-0.3,1.1-0.3,2
		c0,0.8,0.1,1.5,0.3,2c0.3,0.7,0.7,1,1.4,1s1.1-0.3,1.4-1c0.2-0.5,0.3-1.1,0.3-2c0-0.8-0.1-1.5-0.3-2c-0.3-0.7-0.7-1-1.4-1
		S126.9,505.8,126.7,506.5z"/>
	<path class="st0" d="M63.6,474.1v-0.8h-4.6v-3.4h4.6v-1h1.5v1h4.7v3.4h-4.7v0.8h6.4v1.3H57.1v-1.3H63.6z M65.2,478.2
		c-0.2,2-0.7,3.2-1.5,3.9c-0.8,0.8-2.8,1.3-5.9,1.6l-0.6-1.4c2.6-0.1,4.4-0.5,5.2-1.1c0.8-0.6,1.2-1.6,1.3-3.1L65.2,478.2z
		 M69.6,480.8h-1.5v-3.4h-7.4v3.6h-1.5v-4.9h10.4V480.8z M63.6,471.1h-3.2v1.1h3.2V471.1z M71.4,482.5l-0.8,1.3
		c-1.9-0.8-3.8-1.5-5.8-2l0.8-1.1C67.7,481.2,69.6,481.8,71.4,482.5z M68.3,471.1h-3.2v1.1h3.2V471.1z M77.3,473.1
		c-0.2,1.6-0.6,3.2-1.1,4.7l-1.4-0.5c0.6-1.4,1-3,1.2-4.6L77.3,473.1z M82.2,477l-1.2,0.6c-0.4-1.4-1-2.6-1.5-3.7v0.1
		c0,4.4-1,7.6-3,9.7l-1.1-1c1.8-1.8,2.6-4.7,2.7-8.7v-4.9h1.5v4.5l1-0.5C81.2,474.3,81.7,475.6,82.2,477z M84,469.5v3.9l1-0.4
		c0.6,1.2,1.2,2.5,1.7,3.9l-1.2,0.6c-0.4-1.3-0.9-2.5-1.4-3.6v9.2h-1.5v-13.7H84z M88.4,469v14.7h-1.5V469H88.4z M98.6,473
		c0.1-0.8,0.2-1.7,0.2-2.7v-1.4h1.5v1c0,1.1-0.1,2.1-0.2,3h6.5v1.5h-6.1c1.1,3.4,3.3,6.1,6.5,7.9l-0.9,1.2c-3.1-1.9-5.2-4.5-6.5-7.9
		c-1.1,3.7-3.2,6.4-6.5,8.1l-1-1.3c3.3-1.6,5.4-4.3,6.2-8h-5.9V473H98.6z M124,475.9h-1.5v-2.4h-10.8v2.4h-1.5V472h2.9
		c-0.5-0.9-1-1.6-1.6-2.3l1.4-0.7c0.5,0.7,1.1,1.6,1.6,2.5l-1,0.5h6c0.7-1,1.2-2.1,1.7-3.2l1.6,0.6c-0.5,1-1.1,1.9-1.6,2.6h2.9
		V475.9z M121.4,474.5v1.3c-1,0.7-2.1,1.3-3.4,1.9v0.6h6v1.4h-6v2.4c0,0.9-0.5,1.4-1.5,1.4h-2l-0.4-1.4c0.6,0,1.2,0,1.9,0
		c0.3,0,0.5-0.2,0.5-0.6v-1.9h-6.3v-1.4h6.3v-1.2c1.1-0.5,2-0.9,2.7-1.2h-6.5v-1.3H121.4z M118.2,471.3l-1.4,0.7
		c-0.5-1-1-1.8-1.5-2.6l1.4-0.7C117.2,469.5,117.7,470.4,118.2,471.3z"/>
	<path class="st0" d="M79.6,489.9v9.1h-0.7v-1.7c-0.8,0.4-1.7,0.7-2.6,0.9l-0.2-0.7c1-0.2,1.9-0.5,2.8-1v-3.2h-2.6v-0.7h2.6v-2.8
		H79.6z M82.2,498.8c-0.6,0-0.9-0.3-0.9-1v-8H82v3.3c0.9-0.3,1.7-0.8,2.5-1.3l0.4,0.6c-1,0.6-2,1.1-2.9,1.4v3.8
		c0,0.3,0.1,0.4,0.4,0.4h1.2c0.2,0,0.4-0.1,0.5-0.2c0.1-0.2,0.1-0.8,0.2-1.8l0.7,0.2c-0.1,1.2-0.2,1.9-0.3,2.1
		c-0.2,0.2-0.5,0.4-0.9,0.4H82.2z M88.5,491.8v-1.9h0.7v1.9h1v0.7h-1v0.8c0.3,0.4,0.7,0.8,1,1.3c0.6-0.7,1.1-1.5,1.5-2.4l0.6,0.3
		c-0.5,1-1,1.8-1.6,2.5l-0.4-0.3l0.2,0.3l-0.4,0.6c-0.4-0.7-0.7-1.3-1-1.7v5h-0.7v-5.1c-0.3,1-0.8,1.9-1.3,2.7l-0.3-0.8
		c0.7-1,1.3-2,1.6-3.3h-1.3v-0.7H88.5z M94.7,494.2c-0.2,1.1-0.5,2-1.1,2.7c0.6,0.6,1.5,1,2.5,1.4l-0.4,0.6c-1-0.4-1.9-0.9-2.5-1.5
		c-0.7,0.7-1.6,1.3-2.7,1.6l-0.4-0.6c1.1-0.3,1.9-0.8,2.6-1.4c-0.6-0.7-1-1.6-1.2-2.6l0.6-0.2c0.1,0.8,0.5,1.6,1,2.3
		c0.4-0.6,0.7-1.4,0.9-2.3L94.7,494.2z M92.9,491.1c-0.2-0.5-0.4-0.9-0.6-1.3l0.7-0.1c0.2,0.4,0.4,0.9,0.6,1.4h2.2v0.7h-5.4v-0.7
		H92.9z M96.1,494.6l-0.6,0.4c-0.4-0.7-1-1.5-1.7-2.4l0.6-0.3C95.1,493.1,95.7,493.9,96.1,494.6z M106.6,490.2v0.7h-7.2v7h7.5v0.7
		h-8.2v-8.3H106.6z M103.4,494c0.6-0.7,1.1-1.6,1.5-2.5l0.6,0.3c-0.4,1-1,1.9-1.6,2.7c0.8,0.7,1.5,1.4,2.1,2.1l-0.6,0.6
		c-0.6-0.7-1.3-1.4-2-2.1c-0.9,0.9-1.9,1.7-3,2.2l-0.4-0.6c1.1-0.5,2.1-1.1,2.9-2c-0.8-0.7-1.7-1.4-2.6-2.1l0.5-0.5
		C101.7,492.6,102.6,493.3,103.4,494z"/>
	<path class="st1" d="M368.4,42.2l-0.9,0.9c-0.5-0.7-1.3-1.4-2.2-2.2l0.9-0.9C367,40.8,367.8,41.5,368.4,42.2z M368.7,44.4
		c-0.6,1.8-1.3,3.4-2,5l-1.3-0.6c0.8-1.6,1.5-3.2,2.1-4.8L368.7,44.4z M368.7,38.9l-0.9,0.9c-0.6-0.7-1.3-1.4-2.3-2.1l0.9-0.9
		C367.3,37.5,368.1,38.2,368.7,38.9z M377.3,42.4H376v-2.4h-2.2c-0.1,0.8-0.2,1.5-0.3,2.2h1.2v5.5c0,0.3,0.2,0.4,0.5,0.4h1
		c0.2,0,0.3-0.1,0.4-0.2c0.2-0.2,0.3-0.9,0.3-2.1l1.2,0.4c-0.1,1.5-0.3,2.4-0.5,2.7c-0.3,0.3-0.6,0.4-1.1,0.4h-1.7
		c-1,0-1.4-0.5-1.4-1.4v-5.3c-0.7,3.2-2.2,5.5-4.6,7l-0.8-1.1c2.7-1.6,4.2-4.4,4.5-8.5h-2.1v2.4h-1.3v-3.7h3.4c0-0.1,0-0.2,0-0.3
		v-1.8h1.3v1.5c0,0.2,0,0.4,0,0.6h3.4V42.4z M385.9,37v1c-0.4,1.2-1,2.5-1.6,3.8c0.9,1.3,1.4,2.4,1.5,3.3c0,0.6-0.2,1.1-0.4,1.4
		c-0.4,0.4-1.2,0.5-2.3,0.6l-0.4-1.3c0.3,0,0.5,0.1,0.7,0.1c0.4,0,0.7-0.1,0.9-0.2c0.1-0.1,0.2-0.3,0.2-0.5c0-0.9-0.5-2-1.5-3.2
		c0.7-1.4,1.2-2.7,1.6-3.8h-2.2v11.3h-1.3V37H385.9z M392.9,49.4h-1.3v-1.1h-3.9v1h-1.3V37.2h6.5V49.4z M391.7,42.1v-3.7h-3.9v3.7
		H391.7z M391.7,47.1v-3.7h-3.9v3.7H391.7z"/>
	<path class="st1" d="M356.8,16.1c0.6,0.9,0.9,2,0.9,3.6c0,1.6-0.3,2.9-1,4c-0.7,1-1.6,1.5-2.7,1.5c-1.9,0-3-0.9-3.3-2.7h1.5
		c0.2,1,0.8,1.5,1.8,1.5c0.7,0,1.2-0.4,1.7-1c0.4-0.6,0.6-1.5,0.6-2.4c0-0.1,0-0.1,0-0.2h-0.1c-0.3,0.4-0.6,0.8-1.1,1
		c-0.4,0.2-0.9,0.3-1.4,0.3c-1,0-1.8-0.3-2.4-1c-0.6-0.6-0.9-1.4-0.9-2.4c0-1,0.3-1.8,1-2.5c0.7-0.7,1.5-1,2.5-1
		C355.2,14.8,356.1,15.2,356.8,16.1z M352.6,16.7c-0.4,0.4-0.6,0.9-0.6,1.6s0.2,1.1,0.6,1.5c0.4,0.4,0.8,0.6,1.5,0.6
		c0.6,0,1.1-0.2,1.5-0.6s0.5-0.9,0.5-1.6c0-0.7-0.2-1.2-0.6-1.6c-0.4-0.4-0.9-0.6-1.5-0.6C353.4,16.1,352.9,16.3,352.6,16.7z
		 M362.6,26.5l-1-0.9c0.9-1.2,1.3-2.8,1.4-4.7V14h8.3v11c0,0.9-0.5,1.3-1.4,1.3h-1.8l-0.4-1.3c0.6,0,1.2,0.1,1.7,0.1
		c0.3,0,0.4-0.2,0.4-0.6v-2.5h-5.7C364,23.9,363.5,25.3,362.6,26.5z M369.9,15.3h-5.7v2.1h5.7V15.3z M364.2,20.8h5.7v-2.2h-5.7V20.8
		z M381.8,15.6c0.6,0.6,0.9,1.3,0.9,2.2c0,0.9-0.3,1.7-1,2.4c-0.4,0.4-1.1,0.9-2.1,1.6c-1.1,0.7-1.7,1.3-1.9,1.9h5V25h-6.9
		c0-1,0.3-1.9,1-2.6c0.4-0.4,1.1-1,2.3-1.8c0.7-0.5,1.1-0.9,1.4-1.1c0.4-0.5,0.7-1.1,0.7-1.6c0-0.6-0.2-1-0.5-1.3s-0.8-0.4-1.4-0.4
		c-0.6,0-1.1,0.2-1.4,0.6c-0.3,0.4-0.5,1-0.5,1.8h-1.5c0-1.1,0.3-2,1-2.7c0.6-0.7,1.5-1.1,2.6-1.1C380.4,14.8,381.2,15.1,381.8,15.6
		z M391.8,16.3c0.6,0.9,0.9,2.2,0.9,3.7c0,1.5-0.3,2.8-0.9,3.7c-0.6,1-1.6,1.5-2.7,1.5s-2.1-0.5-2.7-1.5c-0.6-0.9-0.9-2.2-0.9-3.7
		c0-1.6,0.3-2.8,0.9-3.7c0.6-1,1.6-1.5,2.7-1.5S391.2,15.3,391.8,16.3z M387.4,17.4c-0.3,0.6-0.4,1.5-0.4,2.5c0,1.1,0.1,1.9,0.4,2.5
		c0.3,0.9,0.9,1.4,1.7,1.4c0.8,0,1.4-0.5,1.7-1.4c0.2-0.6,0.4-1.5,0.4-2.5c0-1.1-0.1-1.9-0.4-2.5c-0.3-0.9-0.9-1.4-1.7-1.4
		C388.3,16.1,387.7,16.5,387.4,17.4z M406.3,26.4H405v-1h-6.3v1h-1.3V14h9V26.4z M405,18.9v-3.6h-6.3v3.6H405z M405,24.1v-3.9h-6.3
		v3.9H405z"/>
	<path class="st1" d="M342.9,126.9v7.1h-0.8v-6.1c-0.4,0.5-1,0.8-1.7,1V128c0.3-0.1,0.7-0.2,1-0.4c0.3-0.2,0.6-0.5,0.9-0.7H342.9z
		 M349.7,127.3c0.4,0.3,0.6,0.8,0.6,1.3c0,0.4-0.1,0.7-0.3,1c-0.2,0.3-0.5,0.5-0.8,0.6v0c0.4,0.1,0.7,0.3,0.9,0.6
		c0.3,0.3,0.4,0.7,0.4,1.2c0,0.6-0.2,1.1-0.7,1.5c-0.5,0.4-1.1,0.6-1.9,0.6c-0.8,0-1.5-0.2-1.9-0.6c-0.4-0.4-0.7-0.9-0.7-1.5
		c0-0.5,0.1-0.9,0.4-1.2c0.3-0.3,0.6-0.5,0.9-0.6v0c-0.4-0.1-0.7-0.3-0.8-0.6c-0.2-0.3-0.3-0.6-0.3-1c0-0.5,0.2-1,0.6-1.3
		c0.4-0.4,1-0.6,1.7-0.6C348.7,126.7,349.3,126.9,349.7,127.3z M346.6,131c-0.3,0.3-0.4,0.6-0.4,1c0,0.4,0.1,0.8,0.4,1
		c0.3,0.3,0.7,0.4,1.3,0.4s1-0.1,1.3-0.4c0.3-0.3,0.4-0.6,0.4-1c0-0.4-0.1-0.8-0.4-1c-0.3-0.3-0.8-0.4-1.3-0.4
		C347.4,130.6,347,130.7,346.6,131z M346.8,127.8c-0.2,0.2-0.4,0.5-0.4,0.9c0,0.4,0.1,0.7,0.3,0.9c0.3,0.3,0.7,0.4,1.2,0.4
		c0.5,0,1-0.1,1.2-0.4c0.2-0.2,0.3-0.5,0.3-0.9c0-0.3-0.1-0.6-0.4-0.9c-0.3-0.3-0.7-0.4-1.2-0.4
		C347.5,127.4,347.1,127.5,346.8,127.8z M354.9,128.1c0.1,0.1,0.2,0.2,0.2,0.4c0,0.2-0.1,0.3-0.2,0.4c-0.1,0.1-0.3,0.2-0.4,0.2
		c-0.2,0-0.3-0.1-0.4-0.2c-0.1-0.1-0.2-0.3-0.2-0.4s0-0.3,0.2-0.4c0.1-0.1,0.3-0.2,0.4-0.2C354.6,127.9,354.8,128,354.9,128.1z
		 M354.9,131.8c0.1,0.1,0.2,0.2,0.2,0.4c0,0.2-0.1,0.3-0.2,0.4c-0.1,0.1-0.3,0.2-0.4,0.2c-0.2,0-0.3-0.1-0.4-0.2
		c-0.1-0.1-0.2-0.3-0.2-0.4s0-0.3,0.2-0.4c0.1-0.1,0.3-0.2,0.4-0.2C354.6,131.6,354.8,131.6,354.9,131.8z M367.7,127.2
		c0.4,0.3,0.6,0.8,0.6,1.4c0,0.8-0.4,1.3-1.2,1.6c0.4,0.1,0.7,0.3,1,0.6c0.2,0.3,0.4,0.6,0.4,1c0,0.6-0.2,1.2-0.7,1.6
		c-0.5,0.4-1.1,0.6-1.8,0.6c-0.7,0-1.2-0.2-1.7-0.5c-0.5-0.4-0.8-1-0.8-1.8h0.8c0,0.6,0.2,1,0.6,1.3c0.3,0.2,0.7,0.4,1.1,0.4
		c0.5,0,0.9-0.1,1.2-0.4c0.3-0.3,0.4-0.6,0.4-1c0-0.4-0.1-0.8-0.4-1s-0.7-0.3-1.2-0.3h-0.6V130h0.5c0.5,0,0.8-0.1,1.1-0.3
		c0.2-0.2,0.4-0.5,0.4-0.9s-0.1-0.7-0.4-0.9c-0.3-0.2-0.6-0.3-1.1-0.3c-0.5,0-0.8,0.1-1.1,0.4c-0.3,0.3-0.4,0.6-0.5,1.1h-0.8
		c0.1-0.7,0.3-1.2,0.8-1.6c0.4-0.4,1-0.6,1.6-0.6S367.3,126.9,367.7,127.2z M374.9,127.9c0.4,0.6,0.6,1.5,0.6,2.6s-0.2,1.9-0.6,2.6
		c-0.4,0.7-1.1,1.1-1.9,1.1c-0.9,0-1.5-0.4-1.9-1.1c-0.4-0.6-0.6-1.5-0.6-2.6s0.2-1.9,0.6-2.6c0.4-0.8,1.1-1.1,1.9-1.1
		C373.8,126.7,374.5,127.1,374.9,127.9z M371.6,128.5c-0.2,0.5-0.3,1.1-0.3,2c0,0.8,0.1,1.5,0.3,2c0.3,0.7,0.7,1,1.4,1
		s1.1-0.3,1.4-1c0.2-0.5,0.3-1.1,0.3-2c0-0.8-0.1-1.5-0.3-2c-0.3-0.7-0.7-1-1.4-1S371.9,127.8,371.6,128.5z M382.5,131.1v0.7h-5
		v-0.7H382.5z M388.8,127.3c0.4,0.4,0.6,0.9,0.6,1.5s-0.2,1.2-0.7,1.7c-0.2,0.3-0.7,0.6-1.5,1.1c-0.9,0.6-1.4,1.2-1.6,1.6h3.7v0.7
		h-4.8c0-0.6,0.2-1.2,0.7-1.8c0.3-0.3,0.8-0.7,1.5-1.3c0.6-0.4,0.9-0.7,1.1-0.9c0.4-0.4,0.5-0.8,0.5-1.3c0-0.4-0.1-0.8-0.4-1
		s-0.6-0.4-1.1-0.4c-0.5,0-0.9,0.2-1.1,0.5c-0.3,0.3-0.4,0.8-0.4,1.4h-0.8c0-0.8,0.2-1.4,0.7-1.9c0.4-0.5,1-0.7,1.7-0.7
		C387.8,126.7,388.3,126.9,388.8,127.3z M394,126.9v7.1h-0.8v-6.1c-0.4,0.5-1,0.8-1.7,1V128c0.3-0.1,0.7-0.2,1-0.4
		c0.3-0.2,0.6-0.5,0.9-0.7H394z M399,128.1c0.1,0.1,0.2,0.2,0.2,0.4c0,0.2-0.1,0.3-0.2,0.4c-0.1,0.1-0.3,0.2-0.4,0.2
		c-0.2,0-0.3-0.1-0.4-0.2c-0.1-0.1-0.2-0.3-0.2-0.4s0-0.3,0.2-0.4c0.1-0.1,0.3-0.2,0.4-0.2C398.7,127.9,398.9,128,399,128.1z
		 M399,131.8c0.1,0.1,0.2,0.2,0.2,0.4c0,0.2-0.1,0.3-0.2,0.4c-0.1,0.1-0.3,0.2-0.4,0.2c-0.2,0-0.3-0.1-0.4-0.2
		c-0.1-0.1-0.2-0.3-0.2-0.4s0-0.3,0.2-0.4c0.1-0.1,0.3-0.2,0.4-0.2C398.7,131.6,398.9,131.6,399,131.8z M411.8,127.2
		c0.4,0.3,0.6,0.8,0.6,1.4c0,0.8-0.4,1.3-1.2,1.6c0.4,0.1,0.7,0.3,1,0.6c0.2,0.3,0.4,0.6,0.4,1c0,0.6-0.2,1.2-0.7,1.6
		c-0.5,0.4-1.1,0.6-1.8,0.6c-0.7,0-1.2-0.2-1.7-0.5c-0.5-0.4-0.8-1-0.8-1.8h0.8c0,0.6,0.2,1,0.6,1.3c0.3,0.2,0.7,0.4,1.1,0.4
		c0.5,0,0.9-0.1,1.2-0.4c0.3-0.3,0.4-0.6,0.4-1c0-0.4-0.1-0.8-0.4-1s-0.7-0.3-1.2-0.3h-0.6V130h0.5c0.5,0,0.8-0.1,1.1-0.3
		c0.2-0.2,0.4-0.5,0.4-0.9s-0.1-0.7-0.4-0.9c-0.3-0.2-0.6-0.3-1.1-0.3c-0.5,0-0.8,0.1-1.1,0.4c-0.3,0.3-0.4,0.6-0.5,1.1h-0.8
		c0.1-0.7,0.3-1.2,0.8-1.6c0.4-0.4,1-0.6,1.6-0.6S411.3,126.9,411.8,127.2z M419,127.9c0.4,0.6,0.6,1.5,0.6,2.6s-0.2,1.9-0.6,2.6
		c-0.4,0.7-1.1,1.1-1.9,1.1c-0.9,0-1.5-0.4-1.9-1.1c-0.4-0.6-0.6-1.5-0.6-2.6s0.2-1.9,0.6-2.6c0.4-0.8,1.1-1.1,1.9-1.1
		C417.9,126.7,418.5,127.1,419,127.9z M415.7,128.5c-0.2,0.5-0.3,1.1-0.3,2c0,0.8,0.1,1.5,0.3,2c0.3,0.7,0.7,1,1.4,1s1.1-0.3,1.4-1
		c0.2-0.5,0.3-1.1,0.3-2c0-0.8-0.1-1.5-0.3-2c-0.3-0.7-0.7-1-1.4-1S415.9,127.8,415.7,128.5z"/>
	<path class="st0" d="M350.3,101.2c-1,1.4-2.3,2.7-3.8,3.7l-1-1.3c1.5-1,2.7-2.1,3.7-3.4L350.3,101.2z M349.9,92.7
		c0.3-0.6,0.5-1.3,0.8-2l1.5,0.3c-0.2,0.6-0.4,1.1-0.7,1.6h8v1.5h-8.7c-0.7,1.4-1.4,2.6-2.2,3.6h3.7v-2.2h1.5v2.2h4.9v1.4h-4.9v4.8
		c0,1.1-0.6,1.6-1.7,1.6h-1.7l-0.3-1.5c0.5,0.1,1,0.1,1.5,0.1c0.4,0,0.7-0.2,0.7-0.6v-4.4H347l-0.4-1.4c0.9-1,1.7-2.2,2.5-3.7H346
		v-1.5H349.9z M360.1,103.8l-1.1,1.1c-0.8-1.2-2-2.4-3.5-3.8l1-1C357.9,101.4,359.1,102.6,360.1,103.8z M369.1,90.9v14.6h-1.5V103
		c-1.3,0.6-2.6,1-4,1.4l-0.4-1.5c1.5-0.3,3-0.8,4.4-1.5v-4.8h-4.1v-1.5h4.1v-4.3H369.1z M373.1,105.4c-1.1,0-1.7-0.6-1.7-1.8V90.9
		h1.5v5.2c1.3-0.5,2.6-1.1,3.7-2l0.9,1.2c-1.6,1-3.2,1.7-4.6,2.2v5.8c0,0.4,0.2,0.6,0.5,0.6h1.9c0.3,0,0.5-0.1,0.7-0.4
		c0.1-0.3,0.2-1.2,0.2-2.7l1.4,0.5c-0.1,1.9-0.3,3-0.5,3.4c-0.3,0.4-0.8,0.6-1.5,0.6H373.1z M387.1,95c0.1-0.8,0.2-1.7,0.2-2.7v-1.4
		h1.5v1c0,1.1-0.1,2.1-0.2,3h6.5v1.5H389c1.1,3.4,3.3,6.1,6.5,7.9l-0.9,1.2c-3.1-1.9-5.2-4.5-6.5-7.9c-1.1,3.7-3.2,6.4-6.5,8.1
		l-1-1.3c3.3-1.6,5.4-4.3,6.2-8h-5.9V95H387.1z M412.5,97.9H411v-2.4h-10.8v2.4h-1.5V94h2.9c-0.5-0.9-1-1.6-1.6-2.3l1.4-0.7
		c0.5,0.7,1.1,1.6,1.6,2.5l-1,0.5h6c0.7-1,1.2-2.1,1.7-3.2l1.6,0.6c-0.5,1-1.1,1.9-1.6,2.6h2.9V97.9z M409.9,96.5v1.3
		c-1,0.7-2.1,1.3-3.4,1.9v0.6h6v1.4h-6v2.4c0,0.9-0.5,1.4-1.5,1.4h-2l-0.4-1.4c0.6,0,1.2,0,1.9,0c0.3,0,0.5-0.2,0.5-0.6v-1.9h-6.3
		v-1.4h6.3v-1.2c1.1-0.5,2-0.9,2.7-1.2h-6.5v-1.3H409.9z M406.7,93.3l-1.4,0.7c-0.5-1-1-1.8-1.5-2.6l1.4-0.7
		C405.7,91.5,406.2,92.4,406.7,93.3z"/>
	<path class="st0" d="M361.3,115.8l-0.5,0.5c-0.4-0.5-1-1-1.8-1.5l0.5-0.5C360.3,114.8,360.9,115.3,361.3,115.8z M361.6,117.4
		c-0.5,1.3-1,2.4-1.7,3.5l-0.7-0.3c0.7-1.1,1.2-2.3,1.7-3.5L361.6,117.4z M361.7,113.5l-0.5,0.5c-0.4-0.5-1.1-1-1.9-1.5l0.5-0.5
		C360.6,112.5,361.2,113,361.7,113.5z M364.7,113.4c-0.1,0.3-0.2,0.7-0.4,1h3.4v0.6h-3.6c-0.3,0.6-0.6,1.2-1,1.7h1.6v-1.2h0.7v1.2
		h2.1v0.6h-2.1v1.2h2.6v0.7h-2.6v1.7h-0.7v-1.7h-2.9v-0.7h2.9v-1.2h-2.3l-0.1-0.6c0.4-0.5,0.7-1.1,1.1-1.7h-1.3v-0.6h1.5
		c0.1-0.4,0.3-0.7,0.4-1.1L364.7,113.4z M367.8,113.9h-0.7v-1.1h-4.4v1.1H362v-1.7h5.7V113.9z M374.2,112.8l0.1-1l0.7,0.1
		c0,0.3-0.1,0.6-0.1,0.9h4v0.7h-4.1c-0.1,0.4-0.1,0.7-0.2,1h3.8v5.5c0,0.6-0.3,0.9-0.9,0.9h-1l-0.2-0.7l0.9,0c0.3,0,0.4-0.1,0.4-0.4
		v-4.7h-6.4v5.8h-0.7v-6.5h3.3c0.1-0.3,0.1-0.7,0.2-1h-4v-0.7H374.2z M374,116.7h1c0.2-0.4,0.4-0.8,0.6-1.3l0.7,0.2
		c-0.2,0.4-0.4,0.7-0.6,1.1h1.1v0.6h-2v1h2.3v0.6h-2.3v1.8h-0.7V119h-2.3v-0.6h2.3v-1h-2v-0.6h1.1c-0.1-0.4-0.3-0.7-0.5-1l0.6-0.2
		C373.6,115.8,373.8,116.2,374,116.7z M382.5,113.8v-1.9h0.7v1.9h1v0.7h-1v0.8c0.3,0.4,0.7,0.8,1,1.3c0.6-0.7,1.1-1.5,1.5-2.4
		l0.6,0.3c-0.5,1-1,1.8-1.6,2.5l-0.4-0.3l0.2,0.3l-0.4,0.6c-0.4-0.7-0.7-1.3-1-1.7v5h-0.7v-5.1c-0.3,1-0.8,1.9-1.3,2.7l-0.3-0.8
		c0.7-1,1.3-2,1.6-3.3h-1.3v-0.7H382.5z M388.7,116.2c-0.2,1.1-0.5,2-1.1,2.7c0.6,0.6,1.5,1,2.5,1.4l-0.4,0.6
		c-1-0.4-1.9-0.9-2.5-1.5c-0.7,0.7-1.6,1.3-2.7,1.6l-0.4-0.6c1.1-0.3,1.9-0.8,2.6-1.4c-0.6-0.7-1-1.6-1.2-2.6l0.6-0.2
		c0.1,0.8,0.5,1.6,1,2.3c0.4-0.6,0.7-1.4,0.9-2.3L388.7,116.2z M386.9,113.1c-0.2-0.5-0.4-0.9-0.6-1.3l0.7-0.1
		c0.2,0.4,0.4,0.9,0.6,1.4h2.2v0.7h-5.4v-0.7H386.9z M390.1,116.6l-0.6,0.4c-0.4-0.7-1-1.5-1.7-2.4l0.6-0.3
		C389.1,115.1,389.7,115.9,390.1,116.6z M400.6,112.2v0.7h-7.2v7h7.5v0.7h-8.2v-8.3H400.6z M397.4,116c0.6-0.7,1.1-1.6,1.5-2.5
		l0.6,0.3c-0.4,1-1,1.9-1.6,2.7c0.8,0.7,1.5,1.4,2.1,2.1l-0.6,0.6c-0.6-0.7-1.3-1.4-2-2.1c-0.9,0.9-1.9,1.7-3,2.2l-0.4-0.6
		c1.1-0.5,2.1-1.1,2.9-2c-0.8-0.7-1.7-1.4-2.6-2.1l0.5-0.5C395.7,114.6,396.6,115.3,397.4,116z"/>
	<path class="st1" d="M377.9,227v1.3h-4.1v1.8h3.4v9.2h-1.3v-0.5h-8.4v0.5h-1.3v-9.2h3.3v-1.8h-4.1V227H377.9z M375.8,237.6v-2h-1.9
		c-1,0-1.5-0.5-1.5-1.5v-2.6h-1.7v0.1c0,2.2-0.8,3.9-2.3,4.9l-1-0.9v2H375.8z M369.4,231.5v-0.1h-2v4.1
		C368.7,234.7,369.4,233.3,369.4,231.5z M370.7,230.1h1.7v-1.8h-1.7V230.1z M373.8,233.7c0,0.4,0.2,0.6,0.6,0.6h1.5v-3h-2.1V233.7z
		 M384.7,231.7c0.4-0.7,0.8-1.4,1.1-2.2l1.4,0.4c-0.3,0.6-0.6,1.2-0.9,1.8h7v1.3h-2.7c-0.6,1.4-1.2,2.5-1.8,3.3
		c1.4,0.6,2.8,1.3,4.3,2.1l-0.9,1.2c-1.4-0.8-2.9-1.6-4.3-2.3c-1.6,1.4-3.7,2.1-6.2,2.2l-0.8-1.2c2.3,0,4.2-0.5,5.6-1.5
		c-1.3-0.5-2.5-1-3.8-1.4c0.5-0.8,0.9-1.5,1.4-2.3h-3.2v-1.3H384.7z M393,231h-1.3v-1.9h-9.3v1.9H381v-3.2h5.2
		c-0.2-0.4-0.4-0.8-0.6-1.1l1.5-0.3c0.2,0.4,0.4,0.9,0.6,1.4h5.2V231z M384.5,234.7c1,0.3,1.9,0.6,2.9,1c0.7-0.8,1.2-1.7,1.7-2.7
		h-3.5C385.2,233.6,384.8,234.2,384.5,234.7z"/>
	<path class="st1" d="M357.6,206.1c0.6,0.9,0.9,2,0.9,3.6c0,1.6-0.3,2.9-1,4c-0.7,1-1.6,1.5-2.7,1.5c-1.9,0-3-0.9-3.3-2.7h1.5
		c0.2,1,0.8,1.5,1.8,1.5c0.7,0,1.2-0.4,1.7-1c0.4-0.6,0.6-1.5,0.6-2.4c0-0.1,0-0.1,0-0.2H357c-0.3,0.4-0.6,0.8-1.1,1
		c-0.4,0.2-0.9,0.3-1.4,0.3c-1,0-1.8-0.3-2.4-1c-0.6-0.6-0.9-1.4-0.9-2.4c0-1,0.3-1.8,1-2.5c0.7-0.7,1.5-1,2.5-1
		C356.1,204.8,357,205.2,357.6,206.1z M353.4,206.7c-0.4,0.4-0.6,0.9-0.6,1.6s0.2,1.1,0.6,1.5c0.4,0.4,0.8,0.6,1.5,0.6
		c0.6,0,1.1-0.2,1.5-0.6s0.5-0.9,0.5-1.6c0-0.7-0.2-1.2-0.6-1.6c-0.4-0.4-0.9-0.6-1.5-0.6C354.3,206.1,353.8,206.3,353.4,206.7z
		 M363.4,216.5l-1-0.9c0.9-1.2,1.3-2.8,1.4-4.7V204h8.3v11c0,0.9-0.5,1.3-1.4,1.3h-1.8l-0.4-1.3c0.6,0,1.2,0.1,1.7,0.1
		c0.3,0,0.4-0.2,0.4-0.6v-2.5H365C364.8,213.9,364.3,215.3,363.4,216.5z M370.8,205.3h-5.7v2.1h5.7V205.3z M365.1,210.8h5.7v-2.2
		h-5.7V210.8z M382.7,205.6c0.6,0.6,0.9,1.3,0.9,2.2c0,0.9-0.3,1.7-1,2.4c-0.4,0.4-1.1,0.9-2.1,1.6c-1.1,0.7-1.7,1.3-1.9,1.9h5v1.3
		h-6.9c0-1,0.3-1.9,1-2.6c0.4-0.4,1.1-1,2.3-1.8c0.7-0.5,1.1-0.9,1.4-1.1c0.4-0.5,0.7-1.1,0.7-1.6c0-0.6-0.2-1-0.5-1.3
		s-0.8-0.4-1.4-0.4c-0.6,0-1.1,0.2-1.4,0.6c-0.3,0.4-0.5,1-0.5,1.8h-1.5c0-1.1,0.3-2,1-2.7c0.6-0.7,1.5-1.1,2.6-1.1
		C381.3,204.8,382.1,205.1,382.7,205.6z M392.9,205v1.2l-3.5,8.8h-1.6l3.6-8.6h-5.2V205H392.9z M406.5,216.4h-1.3v-1h-6.3v1h-1.3
		V204h9V216.4z M405.2,208.9v-3.6h-6.3v3.6H405.2z M405.2,214.1v-3.9h-6.3v3.9H405.2z"/>
	<path class="st1" d="M342.9,316.9v7.1h-0.8v-6.1c-0.4,0.5-1,0.8-1.7,1V318c0.3-0.1,0.7-0.2,1-0.4c0.3-0.2,0.6-0.5,0.9-0.7H342.9z
		 M349.7,317.3c0.4,0.3,0.6,0.8,0.6,1.3c0,0.4-0.1,0.7-0.3,1c-0.2,0.3-0.5,0.5-0.8,0.6v0c0.4,0.1,0.7,0.3,0.9,0.6
		c0.3,0.3,0.4,0.7,0.4,1.2c0,0.6-0.2,1.1-0.7,1.5c-0.5,0.4-1.1,0.6-1.9,0.6c-0.8,0-1.5-0.2-1.9-0.6c-0.4-0.4-0.7-0.9-0.7-1.5
		c0-0.5,0.1-0.9,0.4-1.2c0.3-0.3,0.6-0.5,0.9-0.6v0c-0.4-0.1-0.7-0.3-0.8-0.6c-0.2-0.3-0.3-0.6-0.3-1c0-0.5,0.2-1,0.6-1.3
		c0.4-0.4,1-0.6,1.7-0.6C348.7,316.7,349.3,316.9,349.7,317.3z M346.6,321c-0.3,0.3-0.4,0.6-0.4,1c0,0.4,0.1,0.8,0.4,1
		c0.3,0.3,0.7,0.4,1.3,0.4s1-0.1,1.3-0.4c0.3-0.3,0.4-0.6,0.4-1c0-0.4-0.1-0.8-0.4-1c-0.3-0.3-0.8-0.4-1.3-0.4
		C347.4,320.6,347,320.7,346.6,321z M346.8,317.8c-0.2,0.2-0.4,0.5-0.4,0.9c0,0.4,0.1,0.7,0.3,0.9c0.3,0.3,0.7,0.4,1.2,0.4
		c0.5,0,1-0.1,1.2-0.4c0.2-0.2,0.3-0.5,0.3-0.9c0-0.3-0.1-0.6-0.4-0.9c-0.3-0.3-0.7-0.4-1.2-0.4
		C347.5,317.4,347.1,317.5,346.8,317.8z M354.9,318.1c0.1,0.1,0.2,0.2,0.2,0.4c0,0.2-0.1,0.3-0.2,0.4c-0.1,0.1-0.3,0.2-0.4,0.2
		c-0.2,0-0.3-0.1-0.4-0.2c-0.1-0.1-0.2-0.3-0.2-0.4s0-0.3,0.2-0.4c0.1-0.1,0.3-0.2,0.4-0.2C354.6,317.9,354.8,318,354.9,318.1z
		 M354.9,321.8c0.1,0.1,0.2,0.2,0.2,0.4c0,0.2-0.1,0.3-0.2,0.4c-0.1,0.1-0.3,0.2-0.4,0.2c-0.2,0-0.3-0.1-0.4-0.2
		c-0.1-0.1-0.2-0.3-0.2-0.4s0-0.3,0.2-0.4c0.1-0.1,0.3-0.2,0.4-0.2C354.6,321.6,354.8,321.6,354.9,321.8z M367.7,317.2
		c0.4,0.3,0.6,0.8,0.6,1.4c0,0.8-0.4,1.3-1.2,1.6c0.4,0.1,0.7,0.3,1,0.6c0.2,0.3,0.4,0.6,0.4,1c0,0.6-0.2,1.2-0.7,1.6
		c-0.5,0.4-1.1,0.6-1.8,0.6c-0.7,0-1.2-0.2-1.7-0.5c-0.5-0.4-0.8-1-0.8-1.8h0.8c0,0.6,0.2,1,0.6,1.3c0.3,0.2,0.7,0.4,1.1,0.4
		c0.5,0,0.9-0.1,1.2-0.4c0.3-0.3,0.4-0.6,0.4-1c0-0.4-0.1-0.8-0.4-1s-0.7-0.3-1.2-0.3h-0.6V320h0.5c0.5,0,0.8-0.1,1.1-0.3
		c0.2-0.2,0.4-0.5,0.4-0.9s-0.1-0.7-0.4-0.9c-0.3-0.2-0.6-0.3-1.1-0.3c-0.5,0-0.8,0.1-1.1,0.4c-0.3,0.3-0.4,0.6-0.5,1.1h-0.8
		c0.1-0.7,0.3-1.2,0.8-1.6c0.4-0.4,1-0.6,1.6-0.6S367.3,316.9,367.7,317.2z M374.9,317.9c0.4,0.6,0.6,1.5,0.6,2.6s-0.2,1.9-0.6,2.6
		c-0.4,0.7-1.1,1.1-1.9,1.1c-0.9,0-1.5-0.4-1.9-1.1c-0.4-0.6-0.6-1.5-0.6-2.6s0.2-1.9,0.6-2.6c0.4-0.8,1.1-1.1,1.9-1.1
		C373.8,316.7,374.5,317.1,374.9,317.9z M371.6,318.5c-0.2,0.5-0.3,1.1-0.3,2c0,0.8,0.1,1.5,0.3,2c0.3,0.7,0.7,1,1.4,1
		s1.1-0.3,1.4-1c0.2-0.5,0.3-1.1,0.3-2c0-0.8-0.1-1.5-0.3-2c-0.3-0.7-0.7-1-1.4-1S371.9,317.8,371.6,318.5z M382.5,321.1v0.7h-5
		v-0.7H382.5z M388.8,317.3c0.4,0.4,0.6,0.9,0.6,1.5s-0.2,1.2-0.7,1.7c-0.2,0.3-0.7,0.6-1.5,1.1c-0.9,0.6-1.4,1.2-1.6,1.6h3.7v0.7
		h-4.8c0-0.6,0.2-1.2,0.7-1.8c0.3-0.3,0.8-0.7,1.5-1.3c0.6-0.4,0.9-0.7,1.1-0.9c0.4-0.4,0.5-0.8,0.5-1.3c0-0.4-0.1-0.8-0.4-1
		s-0.6-0.4-1.1-0.4c-0.5,0-0.9,0.2-1.1,0.5c-0.3,0.3-0.4,0.8-0.4,1.4h-0.8c0-0.8,0.2-1.4,0.7-1.9c0.4-0.5,1-0.7,1.7-0.7
		C387.8,316.7,388.3,316.9,388.8,317.3z M394,316.9v7.1h-0.8v-6.1c-0.4,0.5-1,0.8-1.7,1V318c0.3-0.1,0.7-0.2,1-0.4
		c0.3-0.2,0.6-0.5,0.9-0.7H394z M399,318.1c0.1,0.1,0.2,0.2,0.2,0.4c0,0.2-0.1,0.3-0.2,0.4c-0.1,0.1-0.3,0.2-0.4,0.2
		c-0.2,0-0.3-0.1-0.4-0.2c-0.1-0.1-0.2-0.3-0.2-0.4s0-0.3,0.2-0.4c0.1-0.1,0.3-0.2,0.4-0.2C398.7,317.9,398.9,318,399,318.1z
		 M399,321.8c0.1,0.1,0.2,0.2,0.2,0.4c0,0.2-0.1,0.3-0.2,0.4c-0.1,0.1-0.3,0.2-0.4,0.2c-0.2,0-0.3-0.1-0.4-0.2
		c-0.1-0.1-0.2-0.3-0.2-0.4s0-0.3,0.2-0.4c0.1-0.1,0.3-0.2,0.4-0.2C398.7,321.6,398.9,321.6,399,321.8z M411.8,317.2
		c0.4,0.3,0.6,0.8,0.6,1.4c0,0.8-0.4,1.3-1.2,1.6c0.4,0.1,0.7,0.3,1,0.6c0.2,0.3,0.4,0.6,0.4,1c0,0.6-0.2,1.2-0.7,1.6
		c-0.5,0.4-1.1,0.6-1.8,0.6c-0.7,0-1.2-0.2-1.7-0.5c-0.5-0.4-0.8-1-0.8-1.8h0.8c0,0.6,0.2,1,0.6,1.3c0.3,0.2,0.7,0.4,1.1,0.4
		c0.5,0,0.9-0.1,1.2-0.4c0.3-0.3,0.4-0.6,0.4-1c0-0.4-0.1-0.8-0.4-1s-0.7-0.3-1.2-0.3h-0.6V320h0.5c0.5,0,0.8-0.1,1.1-0.3
		c0.2-0.2,0.4-0.5,0.4-0.9s-0.1-0.7-0.4-0.9c-0.3-0.2-0.6-0.3-1.1-0.3c-0.5,0-0.8,0.1-1.1,0.4c-0.3,0.3-0.4,0.6-0.5,1.1h-0.8
		c0.1-0.7,0.3-1.2,0.8-1.6c0.4-0.4,1-0.6,1.6-0.6S411.3,316.9,411.8,317.2z M419,317.9c0.4,0.6,0.6,1.5,0.6,2.6s-0.2,1.9-0.6,2.6
		c-0.4,0.7-1.1,1.1-1.9,1.1c-0.9,0-1.5-0.4-1.9-1.1c-0.4-0.6-0.6-1.5-0.6-2.6s0.2-1.9,0.6-2.6c0.4-0.8,1.1-1.1,1.9-1.1
		C417.9,316.7,418.5,317.1,419,317.9z M415.7,318.5c-0.2,0.5-0.3,1.1-0.3,2c0,0.8,0.1,1.5,0.3,2c0.3,0.7,0.7,1,1.4,1s1.1-0.3,1.4-1
		c0.2-0.5,0.3-1.1,0.3-2c0-0.8-0.1-1.5-0.3-2c-0.3-0.7-0.7-1-1.4-1S415.9,317.8,415.7,318.5z"/>
	<path class="st0" d="M324.8,281.5v1.5h-4.7v2.1h3.9v10.5h-1.5v-0.6h-9.6v0.6h-1.5V285h3.8v-2.1h-4.7v-1.5H324.8z M322.4,293.5v-2.3
		h-2.1c-1.2,0-1.7-0.6-1.7-1.8v-3h-2v0.1c0,2.6-0.9,4.4-2.6,5.6l-1.1-1v2.3H322.4z M315.1,286.6v-0.1h-2.3v4.7
		C314.3,290.2,315,288.7,315.1,286.6z M316.6,285h2v-2.1h-2V285z M320.1,289.1c0,0.5,0.2,0.7,0.7,0.7h1.7v-3.4h-2.4V289.1z
		 M332.5,286.8c0.4-0.8,0.9-1.6,1.3-2.5l1.6,0.5c-0.4,0.7-0.7,1.4-1.1,2h8v1.5h-3.1c-0.6,1.6-1.3,2.8-2.1,3.8
		c1.6,0.7,3.2,1.5,4.9,2.4l-1,1.3c-1.6-1-3.3-1.8-4.9-2.6c-1.8,1.6-4.2,2.4-7.1,2.5l-0.9-1.4c2.6,0,4.8-0.6,6.4-1.8
		c-1.4-0.6-2.9-1.2-4.3-1.6c0.5-0.9,1.1-1.7,1.6-2.6h-3.6v-1.5H332.5z M342,285.9h-1.5v-2.1h-10.6v2.1h-1.5v-3.6h6
		c-0.2-0.5-0.4-0.9-0.7-1.3l1.7-0.3c0.2,0.5,0.4,1,0.7,1.6h6V285.9z M332.3,290.2c1.1,0.3,2.2,0.7,3.3,1.1c0.8-0.9,1.4-1.9,1.9-3.1
		h-4C333.1,289,332.7,289.6,332.3,290.2z M348.2,291.2v1.3h-1.5V283h5.1v-2.1h1.5v2.1h5.2v8.3h-5.2v1.6c0,0.8,0.3,1.1,1,1.1h3.5
		c0.3,0,0.6-0.1,0.7-0.3c0.1-0.2,0.2-0.8,0.3-1.7l1.5,0.5c-0.1,1.4-0.3,2.2-0.6,2.5c-0.3,0.3-0.8,0.4-1.6,0.4H354
		c-1.5,0-2.2-0.8-2.2-2.3v-1.8H348.2z M348.2,284.4v2h3.6v-2H348.2z M348.2,289.8h3.6v-2h-3.6V289.8z M357,284.4h-3.7v2h3.7V284.4z
		 M357,289.8v-2h-3.7v2H357z M370,287.6v-2c1.3-0.7,2.5-1.6,3.6-2.6H365v-1.4h10.6v1.4c-1.2,1.2-2.6,2.3-4.2,3.4v1.3h6v1.5h-6v4.9
		c0,1-0.5,1.6-1.6,1.6h-2.8l-0.4-1.5c0.8,0,1.7,0,2.6,0c0.4,0,0.7-0.2,0.7-0.6v-4.4h-6.6v-1.5H370z M383.5,285.1v-2
		c-0.7,0.1-1.5,0.2-2.2,0.3l-0.3-1.4c2.1-0.2,3.9-0.5,5.5-1l0.5,1.4c-0.7,0.2-1.3,0.3-2,0.5v2.2h2v1.5h-2v0.6
		c0.8,0.6,1.7,1.4,2.6,2.2l-0.8,1.3c-0.7-0.8-1.3-1.5-1.7-2v7h-1.5v-6.9c-0.6,1.4-1.4,2.7-2.3,3.9l-0.7-1.7c1.3-1.3,2.2-2.7,2.8-4.3
		H381v-1.5H383.5z M395.4,290.9l-1.5,0.2v4.5h-1.5v-4.2l-4.8,0.8l-0.2-1.5l5-0.8v-8.9h1.5v8.7l1.3-0.2L395.4,290.9z M391.5,287.9
		l-1.1,1.1c-0.7-0.8-1.6-1.6-2.8-2.5l1.1-1C389.8,286.2,390.7,287.1,391.5,287.9z M391.9,284.1l-1,1.1c-0.7-0.7-1.6-1.5-2.8-2.3
		l1.1-1C390.2,282.5,391.2,283.3,391.9,284.1z M398.8,295.5l-0.3-1.4c0.4,0.1,0.8,0.1,1.2,0.1c0.4,0,0.6-0.2,0.6-0.7v-3.4
		c-0.6,0.2-1.2,0.4-1.7,0.6l-0.4-1.5c0.7-0.2,1.4-0.4,2.1-0.6v-3.5h-1.8v-1.5h1.8v-2.8h1.5v2.8h1.6v1.5h-1.6v2.8
		c0.5-0.3,1.1-0.5,1.6-0.8v1.5c-0.5,0.3-1.1,0.5-1.6,0.8v4.4c0,1.1-0.5,1.6-1.5,1.6H398.8z M407.5,283.1v-2.1h1.5v2.1h3.7v1.5h-3.7
		v2.3h3.1v1.3c-0.5,1.7-1.4,3.1-2.6,4.3c1,0.7,2.2,1.4,3.6,2l-0.8,1.2c-1.5-0.7-2.8-1.4-3.9-2.3c-1.2,0.9-2.7,1.7-4.4,2.3l-0.7-1.3
		c1.6-0.5,3-1.2,4.1-2c-1.2-1.2-2.1-2.6-2.5-4.2H404v-1.4h3.4v-2.3h-3.7v-1.5H407.5z M408.4,291.6c1-1,1.7-2.1,2.2-3.3h-4.3
		C406.7,289.5,407.4,290.6,408.4,291.6z M422.3,285c0.1-0.8,0.2-1.7,0.2-2.7v-1.4h1.5v1c0,1.1-0.1,2.1-0.2,3h6.5v1.5h-6.1
		c1.1,3.4,3.3,6.1,6.5,7.9l-0.9,1.2c-3.1-1.9-5.2-4.5-6.5-7.9c-1.1,3.7-3.2,6.4-6.5,8.1l-1-1.3c3.3-1.6,5.4-4.3,6.2-8h-5.9V285
		H422.3z M447.7,287.9h-1.5v-2.4h-10.8v2.4h-1.5V284h2.9c-0.5-0.9-1-1.6-1.6-2.3l1.4-0.7c0.5,0.7,1.1,1.6,1.6,2.5l-1,0.5h6
		c0.7-1,1.2-2.1,1.7-3.2l1.6,0.6c-0.5,1-1.1,1.9-1.6,2.6h2.9V287.9z M445.1,286.5v1.3c-1,0.7-2.1,1.3-3.4,1.9v0.6h6v1.4h-6v2.4
		c0,0.9-0.5,1.4-1.5,1.4h-2l-0.4-1.4c0.6,0,1.2,0,1.9,0c0.3,0,0.5-0.2,0.5-0.6v-1.9h-6.3v-1.4h6.3v-1.2c1.1-0.5,2-0.9,2.7-1.2h-6.5
		v-1.3H445.1z M441.9,283.3l-1.4,0.7c-0.5-1-1-1.8-1.5-2.6l1.4-0.7C440.9,281.5,441.4,282.4,441.9,283.3z"/>
	<path class="st0" d="M336.9,304.2v-0.7h3.8c-0.2-0.5-0.4-1-0.6-1.5l0.7-0.2c0.2,0.6,0.4,1.1,0.6,1.6l-0.4,0.1h4.1v0.7h-3.7v2.4h3.2
		v0.7h-3.2v2.7h4.1v0.7h-8.9V310h4.1v-2.7h-3.2v-0.7h3.2v-2.4H336.9z M349,303.8v-1.9h0.7v1.9h1v0.7h-1v0.8c0.3,0.4,0.7,0.8,1,1.3
		c0.6-0.7,1.1-1.5,1.5-2.4l0.6,0.3c-0.5,1-1,1.8-1.6,2.5l-0.4-0.3l0.2,0.3l-0.4,0.6c-0.4-0.7-0.7-1.3-1-1.7v5H349v-5.1
		c-0.3,1-0.8,1.9-1.3,2.7l-0.3-0.8c0.7-1,1.3-2,1.6-3.3h-1.3v-0.7H349z M355.2,306.2c-0.2,1.1-0.5,2-1.1,2.7c0.6,0.6,1.5,1,2.5,1.4
		l-0.4,0.6c-1-0.4-1.9-0.9-2.5-1.5c-0.7,0.7-1.6,1.3-2.7,1.6l-0.4-0.6c1.1-0.3,1.9-0.8,2.6-1.4c-0.6-0.7-1-1.6-1.2-2.6l0.6-0.2
		c0.1,0.8,0.5,1.6,1,2.3c0.4-0.6,0.7-1.4,0.9-2.3L355.2,306.2z M353.4,303.1c-0.2-0.5-0.4-0.9-0.6-1.3l0.7-0.1
		c0.2,0.4,0.4,0.9,0.6,1.4h2.2v0.7H351v-0.7H353.4z M356.6,306.6L356,307c-0.4-0.7-1-1.5-1.7-2.4l0.6-0.3
		C355.6,305.1,356.2,305.9,356.6,306.6z M367.1,302.2v0.7h-7.2v7h7.5v0.7h-8.2v-8.3H367.1z M363.9,306c0.6-0.7,1.1-1.6,1.5-2.5
		l0.6,0.3c-0.4,1-1,1.9-1.6,2.7c0.8,0.7,1.5,1.4,2.1,2.1l-0.6,0.6c-0.6-0.7-1.3-1.4-2-2.1c-0.9,0.9-1.9,1.7-3,2.2l-0.4-0.6
		c1.1-0.5,2.1-1.1,2.9-2c-0.8-0.7-1.7-1.4-2.6-2.1l0.5-0.5C362.2,304.6,363.1,305.3,363.9,306z M378.2,301.7
		c-0.4,0.7-0.7,1.3-0.9,2.1c-0.3,0.9-0.4,1.7-0.4,2.6c0,0.8,0.1,1.7,0.4,2.6c0.2,0.7,0.5,1.4,0.9,2.1h-0.7c-0.4-0.6-0.8-1.3-1-2.1
		c-0.3-0.9-0.4-1.7-0.4-2.6c0-0.9,0.1-1.8,0.4-2.6c0.2-0.7,0.6-1.4,1-2.1H378.2z M384.1,301.9v9.1h-0.7v-1.7
		c-0.8,0.4-1.7,0.7-2.6,0.9l-0.2-0.7c1-0.2,1.9-0.5,2.8-1v-3.2h-2.6v-0.7h2.6v-2.8H384.1z M386.7,310.8c-0.6,0-0.9-0.3-0.9-1v-8h0.7
		v3.3c0.9-0.3,1.7-0.8,2.5-1.3l0.4,0.6c-1,0.6-2,1.1-2.9,1.4v3.8c0,0.3,0.1,0.4,0.4,0.4h1.2c0.2,0,0.4-0.1,0.5-0.2
		c0.1-0.2,0.1-0.8,0.2-1.8l0.7,0.2c-0.1,1.2-0.2,1.9-0.3,2.1c-0.2,0.2-0.5,0.4-0.9,0.4H386.7z M393,303.8v-1.9h0.7v1.9h1v0.7h-1v0.8
		c0.3,0.4,0.7,0.8,1,1.3c0.6-0.7,1.1-1.5,1.5-2.4l0.6,0.3c-0.5,1-1,1.8-1.6,2.5l-0.4-0.3l0.2,0.3l-0.4,0.6c-0.4-0.7-0.7-1.3-1-1.7v5
		H393v-5.1c-0.3,1-0.8,1.9-1.3,2.7l-0.3-0.8c0.7-1,1.3-2,1.6-3.3h-1.3v-0.7H393z M399.2,306.2c-0.2,1.1-0.5,2-1.1,2.7
		c0.6,0.6,1.5,1,2.5,1.4l-0.4,0.6c-1-0.4-1.9-0.9-2.5-1.5c-0.7,0.7-1.6,1.3-2.7,1.6l-0.4-0.6c1.1-0.3,1.9-0.8,2.6-1.4
		c-0.6-0.7-1-1.6-1.2-2.6l0.6-0.2c0.1,0.8,0.5,1.6,1,2.3c0.4-0.6,0.7-1.4,0.9-2.3L399.2,306.2z M397.4,303.1
		c-0.2-0.5-0.4-0.9-0.6-1.3l0.7-0.1c0.2,0.4,0.4,0.9,0.6,1.4h2.2v0.7H395v-0.7H397.4z M400.6,306.6L400,307c-0.4-0.7-1-1.5-1.7-2.4
		l0.6-0.3C399.6,305.1,400.2,305.9,400.6,306.6z M411.1,302.2v0.7h-7.2v7h7.5v0.7h-8.2v-8.3H411.1z M407.9,306
		c0.6-0.7,1.1-1.6,1.5-2.5l0.6,0.3c-0.4,1-1,1.9-1.6,2.7c0.8,0.7,1.5,1.4,2.1,2.1l-0.6,0.6c-0.6-0.7-1.3-1.4-2-2.1
		c-0.9,0.9-1.9,1.7-3,2.2l-0.4-0.6c1.1-0.5,2.1-1.1,2.9-2c-0.8-0.7-1.7-1.4-2.6-2.1l0.5-0.5C406.2,304.6,407.1,305.3,407.9,306z
		 M414.5,301.7c0.4,0.6,0.8,1.3,1,2.1c0.3,0.9,0.4,1.7,0.4,2.6c0,0.9-0.1,1.7-0.4,2.6c-0.3,0.7-0.6,1.4-1,2.1h-0.7
		c0.4-0.7,0.7-1.4,0.9-2.1c0.3-0.9,0.4-1.7,0.4-2.6c0-0.9-0.1-1.7-0.4-2.6c-0.2-0.7-0.5-1.4-0.9-2.1H414.5z"/>
	<path class="st1" d="M371.4,414.6v12.8h-1.3v-2.2c-1.1,0.5-2.3,0.9-3.5,1.3l-0.3-1.3c1.3-0.3,2.6-0.7,3.8-1.3v-4.2h-3.6v-1.3h3.6
		v-3.8H371.4z M375,427.2c-1,0-1.5-0.5-1.5-1.6v-11.1h1.3v4.5c1.1-0.4,2.2-1,3.3-1.7l0.8,1.1c-1.4,0.8-2.8,1.5-4,1.9v5.1
		c0,0.4,0.2,0.5,0.5,0.5h1.6c0.3,0,0.4-0.1,0.6-0.3c0.1-0.2,0.2-1,0.2-2.3l1.2,0.4c-0.1,1.6-0.3,2.6-0.5,3c-0.3,0.3-0.7,0.5-1.3,0.5
		H375z M385.7,424c-0.9,1.2-1.9,2.3-3.2,3.2l-0.8-1.1c1.2-0.8,2.3-1.8,3.1-3L385.7,424z M388.6,415.9h5.7v1.2h-12.5v-1.2h5.5
		c-0.2-0.4-0.4-0.9-0.6-1.2l1.4-0.2C388.2,414.9,388.4,415.4,388.6,415.9z M392.6,418.2v4.2h-3.9v3.5c0,0.9-0.5,1.4-1.4,1.4h-1.5
		l-0.3-1.3c0.5,0.1,0.9,0.1,1.4,0.1c0.4,0,0.6-0.2,0.6-0.5v-3.2h-4v-4.2H392.6z M391.3,419.5h-6.6v1.7h6.6V419.5z M394.3,426.2l-1,1
		c-0.7-1-1.7-2-3-3.2l0.9-0.9C392.4,424.1,393.5,425.1,394.3,426.2z"/>
	<path class="st1" d="M352.6,393v10h-1.5v-8.2c-0.6,0.6-1.4,1-2.3,1.3v-1.5c0.4-0.1,0.9-0.3,1.4-0.6c0.5-0.3,0.9-0.6,1.3-1H352.6z
		 M362.2,394.3c0.6,0.9,0.9,2.2,0.9,3.7c0,1.5-0.3,2.8-0.9,3.7c-0.6,1-1.6,1.5-2.7,1.5s-2.1-0.5-2.7-1.5c-0.6-0.9-0.9-2.2-0.9-3.7
		c0-1.6,0.3-2.8,0.9-3.7c0.6-1,1.6-1.5,2.7-1.5S361.6,393.3,362.2,394.3z M357.8,395.4c-0.3,0.6-0.4,1.5-0.4,2.5
		c0,1.1,0.1,1.9,0.4,2.5c0.3,0.9,0.9,1.4,1.7,1.4c0.8,0,1.4-0.5,1.7-1.4c0.2-0.6,0.4-1.5,0.4-2.5c0-1.1-0.1-1.9-0.4-2.5
		c-0.3-0.9-0.9-1.4-1.7-1.4C358.7,394.1,358.1,394.5,357.8,395.4z M368,404.5l-1-0.9c0.9-1.2,1.3-2.8,1.4-4.7V392h8.3v11
		c0,0.9-0.5,1.3-1.4,1.3h-1.8l-0.4-1.3c0.6,0,1.2,0.1,1.7,0.1c0.3,0,0.4-0.2,0.4-0.6v-2.5h-5.7C369.4,401.9,368.9,403.3,368,404.5z
		 M375.3,393.3h-5.7v2.1h5.7V393.3z M369.6,398.8h5.7v-2.2h-5.7V398.8z M384.9,393v10h-1.5v-8.2c-0.6,0.6-1.4,1-2.3,1.3v-1.5
		c0.4-0.1,0.9-0.3,1.4-0.6c0.5-0.3,0.9-0.6,1.3-1H384.9z M394.4,393.6c0.6,0.5,0.8,1.1,0.8,1.9c0,0.5-0.1,1-0.3,1.3
		c-0.3,0.4-0.6,0.7-1.1,0.9v0c0.5,0.1,0.9,0.4,1.2,0.8c0.4,0.5,0.6,1,0.6,1.7c0,0.9-0.3,1.6-1,2.2c-0.7,0.5-1.6,0.8-2.8,0.8
		c-1.2,0-2.1-0.3-2.8-0.8c-0.6-0.6-1-1.3-1-2.2c0-0.6,0.2-1.2,0.6-1.7c0.3-0.4,0.7-0.7,1.2-0.8v0c-0.5-0.2-0.9-0.5-1.1-0.9
		c-0.2-0.4-0.3-0.8-0.3-1.3c0-0.7,0.3-1.4,0.8-1.9c0.6-0.6,1.5-0.8,2.5-0.8S393.7,393.1,394.4,393.6z M390.2,398.9
		c-0.4,0.3-0.6,0.8-0.6,1.3c0,0.5,0.2,0.9,0.6,1.3c0.4,0.3,0.9,0.5,1.6,0.5c0.7,0,1.3-0.2,1.7-0.5c0.4-0.3,0.5-0.7,0.5-1.3
		c0-0.6-0.2-1-0.5-1.3c-0.4-0.4-0.9-0.5-1.7-0.5S390.5,398.5,390.2,398.9z M390.3,394.5c-0.3,0.3-0.5,0.6-0.5,1.1
		c0,0.5,0.1,0.9,0.4,1.1c0.3,0.3,0.8,0.5,1.6,0.5c0.7,0,1.2-0.2,1.6-0.5c0.3-0.3,0.4-0.7,0.4-1.1c0-0.4-0.2-0.8-0.5-1.1
		c-0.4-0.3-0.9-0.5-1.5-0.5S390.7,394.2,390.3,394.5z M409,404.4h-1.3v-1h-6.3v1h-1.3V392h9V404.4z M407.7,396.9v-3.6h-6.3v3.6
		H407.7z M407.7,402.1v-3.9h-6.3v3.9H407.7z"/>
	<path class="st1" d="M342.9,504.9v7.1h-0.8v-6.1c-0.4,0.5-1,0.8-1.7,1V506c0.3-0.1,0.7-0.2,1-0.4c0.3-0.2,0.6-0.5,0.9-0.7H342.9z
		 M349.7,505.3c0.4,0.3,0.6,0.8,0.6,1.3c0,0.4-0.1,0.7-0.3,1c-0.2,0.3-0.5,0.5-0.8,0.6v0c0.4,0.1,0.7,0.3,0.9,0.6
		c0.3,0.3,0.4,0.7,0.4,1.2c0,0.6-0.2,1.1-0.7,1.5c-0.5,0.4-1.1,0.6-1.9,0.6c-0.8,0-1.5-0.2-1.9-0.6c-0.4-0.4-0.7-0.9-0.7-1.5
		c0-0.5,0.1-0.9,0.4-1.2c0.3-0.3,0.6-0.5,0.9-0.6v0c-0.4-0.1-0.7-0.3-0.8-0.6c-0.2-0.3-0.3-0.6-0.3-1c0-0.5,0.2-1,0.6-1.3
		c0.4-0.4,1-0.6,1.7-0.6C348.7,504.7,349.3,504.9,349.7,505.3z M346.6,509c-0.3,0.3-0.4,0.6-0.4,1c0,0.4,0.1,0.8,0.4,1
		c0.3,0.3,0.7,0.4,1.3,0.4s1-0.1,1.3-0.4c0.3-0.3,0.4-0.6,0.4-1c0-0.4-0.1-0.8-0.4-1c-0.3-0.3-0.8-0.4-1.3-0.4
		C347.4,508.6,347,508.7,346.6,509z M346.8,505.8c-0.2,0.2-0.4,0.5-0.4,0.9c0,0.4,0.1,0.7,0.3,0.9c0.3,0.3,0.7,0.4,1.2,0.4
		c0.5,0,1-0.1,1.2-0.4c0.2-0.2,0.3-0.5,0.3-0.9c0-0.3-0.1-0.6-0.4-0.9c-0.3-0.3-0.7-0.4-1.2-0.4
		C347.5,505.4,347.1,505.5,346.8,505.8z M354.9,506.1c0.1,0.1,0.2,0.2,0.2,0.4c0,0.2-0.1,0.3-0.2,0.4c-0.1,0.1-0.3,0.2-0.4,0.2
		c-0.2,0-0.3-0.1-0.4-0.2c-0.1-0.1-0.2-0.3-0.2-0.4s0-0.3,0.2-0.4c0.1-0.1,0.3-0.2,0.4-0.2C354.6,505.9,354.8,506,354.9,506.1z
		 M354.9,509.8c0.1,0.1,0.2,0.2,0.2,0.4c0,0.2-0.1,0.3-0.2,0.4c-0.1,0.1-0.3,0.2-0.4,0.2c-0.2,0-0.3-0.1-0.4-0.2
		c-0.1-0.1-0.2-0.3-0.2-0.4s0-0.3,0.2-0.4c0.1-0.1,0.3-0.2,0.4-0.2C354.6,509.6,354.8,509.6,354.9,509.8z M367.7,505.2
		c0.4,0.3,0.6,0.8,0.6,1.4c0,0.8-0.4,1.3-1.2,1.6c0.4,0.1,0.7,0.3,1,0.6c0.2,0.3,0.4,0.6,0.4,1c0,0.6-0.2,1.2-0.7,1.6
		c-0.5,0.4-1.1,0.6-1.8,0.6c-0.7,0-1.2-0.2-1.7-0.5c-0.5-0.4-0.8-1-0.8-1.8h0.8c0,0.6,0.2,1,0.6,1.3c0.3,0.2,0.7,0.4,1.1,0.4
		c0.5,0,0.9-0.1,1.2-0.4c0.3-0.3,0.4-0.6,0.4-1c0-0.4-0.1-0.8-0.4-1s-0.7-0.3-1.2-0.3h-0.6V508h0.5c0.5,0,0.8-0.1,1.1-0.3
		c0.2-0.2,0.4-0.5,0.4-0.9s-0.1-0.7-0.4-0.9c-0.3-0.2-0.6-0.3-1.1-0.3c-0.5,0-0.8,0.1-1.1,0.4c-0.3,0.3-0.4,0.6-0.5,1.1h-0.8
		c0.1-0.7,0.3-1.2,0.8-1.6c0.4-0.4,1-0.6,1.6-0.6S367.3,504.9,367.7,505.2z M374.9,505.9c0.4,0.6,0.6,1.5,0.6,2.6s-0.2,1.9-0.6,2.6
		c-0.4,0.7-1.1,1.1-1.9,1.1c-0.9,0-1.5-0.4-1.9-1.1c-0.4-0.6-0.6-1.5-0.6-2.6s0.2-1.9,0.6-2.6c0.4-0.8,1.1-1.1,1.9-1.1
		C373.8,504.7,374.5,505.1,374.9,505.9z M371.6,506.5c-0.2,0.5-0.3,1.1-0.3,2c0,0.8,0.1,1.5,0.3,2c0.3,0.7,0.7,1,1.4,1
		s1.1-0.3,1.4-1c0.2-0.5,0.3-1.1,0.3-2c0-0.8-0.1-1.5-0.3-2c-0.3-0.7-0.7-1-1.4-1S371.9,505.8,371.6,506.5z M382.5,509.1v0.7h-5
		v-0.7H382.5z M388.8,505.3c0.4,0.4,0.6,0.9,0.6,1.5s-0.2,1.2-0.7,1.7c-0.2,0.3-0.7,0.6-1.5,1.1c-0.9,0.6-1.4,1.2-1.6,1.6h3.7v0.7
		h-4.8c0-0.6,0.2-1.2,0.7-1.8c0.3-0.3,0.8-0.7,1.5-1.3c0.6-0.4,0.9-0.7,1.1-0.9c0.4-0.4,0.5-0.8,0.5-1.3c0-0.4-0.1-0.8-0.4-1
		s-0.6-0.4-1.1-0.4c-0.5,0-0.9,0.2-1.1,0.5c-0.3,0.3-0.4,0.8-0.4,1.4h-0.8c0-0.8,0.2-1.4,0.7-1.9c0.4-0.5,1-0.7,1.7-0.7
		C387.8,504.7,388.3,504.9,388.8,505.3z M394,504.9v7.1h-0.8v-6.1c-0.4,0.5-1,0.8-1.7,1V506c0.3-0.1,0.7-0.2,1-0.4
		c0.3-0.2,0.6-0.5,0.9-0.7H394z M399,506.1c0.1,0.1,0.2,0.2,0.2,0.4c0,0.2-0.1,0.3-0.2,0.4c-0.1,0.1-0.3,0.2-0.4,0.2
		c-0.2,0-0.3-0.1-0.4-0.2c-0.1-0.1-0.2-0.3-0.2-0.4s0-0.3,0.2-0.4c0.1-0.1,0.3-0.2,0.4-0.2C398.7,505.9,398.9,506,399,506.1z
		 M399,509.8c0.1,0.1,0.2,0.2,0.2,0.4c0,0.2-0.1,0.3-0.2,0.4c-0.1,0.1-0.3,0.2-0.4,0.2c-0.2,0-0.3-0.1-0.4-0.2
		c-0.1-0.1-0.2-0.3-0.2-0.4s0-0.3,0.2-0.4c0.1-0.1,0.3-0.2,0.4-0.2C398.7,509.6,398.9,509.6,399,509.8z M411.8,505.2
		c0.4,0.3,0.6,0.8,0.6,1.4c0,0.8-0.4,1.3-1.2,1.6c0.4,0.1,0.7,0.3,1,0.6c0.2,0.3,0.4,0.6,0.4,1c0,0.6-0.2,1.2-0.7,1.6
		c-0.5,0.4-1.1,0.6-1.8,0.6c-0.7,0-1.2-0.2-1.7-0.5c-0.5-0.4-0.8-1-0.8-1.8h0.8c0,0.6,0.2,1,0.6,1.3c0.3,0.2,0.7,0.4,1.1,0.4
		c0.5,0,0.9-0.1,1.2-0.4c0.3-0.3,0.4-0.6,0.4-1c0-0.4-0.1-0.8-0.4-1s-0.7-0.3-1.2-0.3h-0.6V508h0.5c0.5,0,0.8-0.1,1.1-0.3
		c0.2-0.2,0.4-0.5,0.4-0.9s-0.1-0.7-0.4-0.9c-0.3-0.2-0.6-0.3-1.1-0.3c-0.5,0-0.8,0.1-1.1,0.4c-0.3,0.3-0.4,0.6-0.5,1.1h-0.8
		c0.1-0.7,0.3-1.2,0.8-1.6c0.4-0.4,1-0.6,1.6-0.6S411.3,504.9,411.8,505.2z M419,505.9c0.4,0.6,0.6,1.5,0.6,2.6s-0.2,1.9-0.6,2.6
		c-0.4,0.7-1.1,1.1-1.9,1.1c-0.9,0-1.5-0.4-1.9-1.1c-0.4-0.6-0.6-1.5-0.6-2.6s0.2-1.9,0.6-2.6c0.4-0.8,1.1-1.1,1.9-1.1
		C417.9,504.7,418.5,505.1,419,505.9z M415.7,506.5c-0.2,0.5-0.3,1.1-0.3,2c0,0.8,0.1,1.5,0.3,2c0.3,0.7,0.7,1,1.4,1s1.1-0.3,1.4-1
		c0.2-0.5,0.3-1.1,0.3-2c0-0.8-0.1-1.5-0.3-2c-0.3-0.7-0.7-1-1.4-1S415.9,505.8,415.7,506.5z"/>
	<path class="st0" d="M349.8,475.2l-1.1,1.1c-0.6-0.7-1.5-1.5-2.6-2.4l1.1-1.1C348.2,473.6,349.1,474.4,349.8,475.2z M349.8,477.9
		c-0.6,2-1.3,3.8-2.1,5.6l-1.4-0.6c0.8-1.8,1.5-3.6,2.1-5.5L349.8,477.9z M350.1,471.1l-1.1,1.1c-0.6-0.7-1.4-1.3-2.4-2.1l1.1-1.1
		C348.6,469.7,349.4,470.4,350.1,471.1z M356.1,468.9v0.9h4.1v1.2h-4.1v0.8h3.5v1.2h-3.5v0.8h4.6v1.2h-10.6v-1.2h4.5V473h-3.3v-1.2
		h3.3V471h-4v-1.2h4v-0.9H356.1z M352.9,483.6h-1.4v-7.8h7.9v6.2c0,1-0.5,1.5-1.5,1.5h-1.5l-0.4-1.3l1.4,0.1c0.3,0,0.4-0.2,0.4-0.5
		v-0.6h-5V483.6z M357.8,477.1h-5v0.9h5V477.1z M352.9,480h5v-0.9h-5V480z M364.2,474.7l-0.5-1.6c2-1.2,3.4-2.7,4.4-4.3l1.3,0.6
		c-0.5,0.9-1.1,1.8-1.9,2.6v5.3H366v-3.9C365.4,473.8,364.8,474.3,364.2,474.7z M370.1,478.3v-1.4h1.5v1.4h6.2v1.5h-6.2v3.9h-1.5
		v-3.9h-6.2v-1.5H370.1z M372.8,476.8c-1.1,0-1.6-0.5-1.6-1.6v-0.9c-0.7,0.3-1.4,0.5-2.1,0.8l-0.9-1.3c1.1-0.4,2-0.7,2.9-1.1v-3.6
		h1.5v2.9c1.5-0.8,2.7-1.6,3.7-2.5l1,1.1c-1.4,1.2-2.9,2.2-4.8,3v1.3c0,0.3,0.2,0.5,0.6,0.5h2.2c0.4,0,0.6-0.1,0.8-0.3
		c0.2-0.2,0.4-0.8,0.4-1.8l1.4,0.5c-0.2,1.4-0.4,2.3-0.8,2.5c-0.4,0.3-0.9,0.4-1.6,0.4H372.8z M387.6,473c0.1-0.8,0.2-1.7,0.2-2.7
		v-1.4h1.5v1c0,1.1-0.1,2.1-0.2,3h6.5v1.5h-6.1c1.1,3.4,3.3,6.1,6.5,7.9l-0.9,1.2c-3.1-1.9-5.2-4.5-6.5-7.9
		c-1.1,3.7-3.2,6.4-6.5,8.1l-1-1.3c3.3-1.6,5.4-4.3,6.2-8h-5.9V473H387.6z M413,475.9h-1.5v-2.4h-10.8v2.4h-1.5V472h2.9
		c-0.5-0.9-1-1.6-1.6-2.3l1.4-0.7c0.5,0.7,1.1,1.6,1.6,2.5l-1,0.5h6c0.7-1,1.2-2.1,1.7-3.2l1.6,0.6c-0.5,1-1.1,1.9-1.6,2.6h2.9
		V475.9z M410.4,474.5v1.3c-1,0.7-2.1,1.3-3.4,1.9v0.6h6v1.4h-6v2.4c0,0.9-0.5,1.4-1.5,1.4h-2l-0.4-1.4c0.6,0,1.2,0,1.9,0
		c0.3,0,0.5-0.2,0.5-0.6v-1.9h-6.3v-1.4h6.3v-1.2c1.1-0.5,2-0.9,2.7-1.2h-6.5v-1.3H410.4z M407.2,471.3l-1.4,0.7
		c-0.5-1-1-1.8-1.5-2.6l1.4-0.7C406.2,469.5,406.7,470.4,407.2,471.3z"/>
	<path class="st0" d="M374.6,491.7v-1.8h0.7v1.8h3.9v0.7H376c0.7,1.6,1.9,3,3.6,4.3l-0.5,0.6c-1.8-1.4-3-3.1-3.7-4.9h-0.1v3.9h2.1
		v0.7h-2.1v2h-0.7v-2h-2.1v-0.7h2.1v-3.9h-0.1c-0.7,2-2,3.7-3.8,5l-0.4-0.7c1.7-1.1,2.9-2.6,3.6-4.3h-3.3v-0.7H374.6z M383.5,493.6
		h1c0.3-0.5,0.5-1.1,0.7-1.8l0.7,0.2c-0.2,0.6-0.4,1.1-0.7,1.5h1.2v0.7h-5v-0.7h1.3c-0.2-0.5-0.4-1-0.6-1.4l0.7-0.2
		C383.1,492.3,383.3,492.9,383.5,493.6z M383.7,490.8c-0.1-0.3-0.2-0.6-0.4-0.9l0.7-0.1c0.1,0.3,0.2,0.6,0.3,1h2v0.7h-4.7v-0.7
		H383.7z M386.1,498.9h-0.7v-0.6h-2.6v0.6h-0.7v-3.8h4V498.9z M385.3,497.7v-1.8h-2.6v1.8H385.3z M390.3,490.3v0.5
		c-0.3,1-0.6,2-1,2.9c0.7,0.9,1.1,1.7,1.1,2.3c0,0.6-0.1,1-0.4,1.3c-0.3,0.2-0.8,0.4-1.6,0.4l-0.2-0.8c0.3,0,0.5,0,0.7,0
		c0.4,0,0.6-0.1,0.7-0.2c0.1-0.1,0.1-0.4,0.2-0.7c0-0.6-0.4-1.4-1.2-2.3c0.3-0.8,0.7-1.7,1-2.8h-1.8v8.1H387v-8.7H390.3z"/>
	<path class="st1" d="M659.9,36.6v12.8h-1.3v-2.2c-1.1,0.5-2.3,0.9-3.5,1.3l-0.3-1.3c1.3-0.3,2.6-0.7,3.8-1.3v-4.2H655v-1.3h3.6
		v-3.8H659.9z M663.5,49.2c-1,0-1.5-0.5-1.5-1.6V36.6h1.3v4.5c1.1-0.4,2.2-1,3.3-1.7l0.8,1.1c-1.4,0.8-2.8,1.5-4,1.9v5.1
		c0,0.4,0.2,0.5,0.5,0.5h1.6c0.3,0,0.4-0.1,0.6-0.3c0.1-0.2,0.2-1,0.2-2.3l1.2,0.4c-0.1,1.6-0.3,2.6-0.5,3c-0.3,0.3-0.7,0.5-1.3,0.5
		H663.5z M674.2,46c-0.9,1.2-1.9,2.3-3.2,3.2l-0.8-1.1c1.2-0.8,2.3-1.8,3.1-3L674.2,46z M677.1,37.9h5.7v1.2h-12.5v-1.2h5.5
		c-0.2-0.4-0.4-0.9-0.6-1.2l1.4-0.2C676.7,36.9,676.9,37.4,677.1,37.9z M681.1,40.2v4.2h-3.9V48c0,0.9-0.5,1.4-1.4,1.4h-1.5
		l-0.3-1.3c0.5,0.1,0.9,0.1,1.4,0.1c0.4,0,0.6-0.2,0.6-0.5v-3.2h-4v-4.2H681.1z M679.8,41.5h-6.6v1.7h6.6V41.5z M682.8,48.2l-1,1
		c-0.7-1-1.7-2-3-3.2l0.9-0.9C680.9,46.1,682,47.1,682.8,48.2z"/>
	<path class="st1" d="M647.6,16.1c0.6,0.9,0.9,2,0.9,3.6c0,1.6-0.3,2.9-1,4c-0.7,1-1.6,1.5-2.7,1.5c-1.9,0-3-0.9-3.3-2.7h1.5
		c0.2,1,0.8,1.5,1.8,1.5c0.7,0,1.2-0.4,1.7-1c0.4-0.6,0.6-1.5,0.6-2.4c0-0.1,0-0.1,0-0.2H647c-0.3,0.4-0.6,0.8-1.1,1
		c-0.4,0.2-0.9,0.3-1.4,0.3c-1,0-1.8-0.3-2.4-1c-0.6-0.6-0.9-1.4-0.9-2.4c0-1,0.3-1.8,1-2.5c0.7-0.7,1.5-1,2.5-1
		C646.1,14.8,647,15.2,647.6,16.1z M643.4,16.7c-0.4,0.4-0.6,0.9-0.6,1.6s0.2,1.1,0.6,1.5c0.4,0.4,0.8,0.6,1.5,0.6
		c0.6,0,1.1-0.2,1.5-0.6s0.5-0.9,0.5-1.6c0-0.7-0.2-1.2-0.6-1.6c-0.4-0.4-0.9-0.6-1.5-0.6C644.3,16.1,643.8,16.3,643.4,16.7z
		 M653.4,26.5l-1-0.9c0.9-1.2,1.3-2.8,1.4-4.7V14h8.3v11c0,0.9-0.5,1.3-1.4,1.3h-1.8l-0.4-1.3c0.6,0,1.2,0.1,1.7,0.1
		c0.3,0,0.4-0.2,0.4-0.6v-2.5H655C654.8,23.9,654.3,25.3,653.4,26.5z M660.8,15.3h-5.7v2.1h5.7V15.3z M655.1,20.8h5.7v-2.2h-5.7
		V20.8z M672.7,15.6c0.6,0.6,0.9,1.3,0.9,2.2c0,0.9-0.3,1.7-1,2.4c-0.4,0.4-1.1,0.9-2.1,1.6c-1.1,0.7-1.7,1.3-1.9,1.9h5V25h-6.9
		c0-1,0.3-1.9,1-2.6c0.4-0.4,1.1-1,2.3-1.8c0.7-0.5,1.1-0.9,1.4-1.1c0.4-0.5,0.7-1.1,0.7-1.6c0-0.6-0.2-1-0.5-1.3s-0.8-0.4-1.4-0.4
		c-0.6,0-1.1,0.2-1.4,0.6c-0.3,0.4-0.5,1-0.5,1.8h-1.5c0-1.1,0.3-2,1-2.7c0.6-0.7,1.5-1.1,2.6-1.1C671.3,14.8,672.1,15.1,672.7,15.6
		z M680.1,15v10h-1.5v-8.2c-0.6,0.6-1.4,1-2.3,1.3v-1.5c0.4-0.1,0.9-0.3,1.4-0.6c0.5-0.3,0.9-0.6,1.3-1H680.1z M694.5,26.4h-1.3v-1
		h-6.3v1h-1.3V14h9V26.4z M693.2,18.9v-3.6h-6.3v3.6H693.2z M693.2,24.1v-3.9h-6.3v3.9H693.2z"/>
	<path class="st1" d="M631.9,126.9v7.1h-0.8v-6.1c-0.4,0.5-1,0.8-1.7,1V128c0.3-0.1,0.7-0.2,1-0.4c0.3-0.2,0.6-0.5,0.9-0.7H631.9z
		 M638.7,127.3c0.4,0.3,0.6,0.8,0.6,1.3c0,0.4-0.1,0.7-0.3,1c-0.2,0.3-0.5,0.5-0.8,0.6v0c0.4,0.1,0.7,0.3,0.9,0.6
		c0.3,0.3,0.4,0.7,0.4,1.2c0,0.6-0.2,1.1-0.7,1.5c-0.5,0.4-1.1,0.6-1.9,0.6c-0.8,0-1.5-0.2-1.9-0.6c-0.4-0.4-0.7-0.9-0.7-1.5
		c0-0.5,0.1-0.9,0.4-1.2c0.3-0.3,0.6-0.5,0.9-0.6v0c-0.4-0.1-0.7-0.3-0.8-0.6c-0.2-0.3-0.3-0.6-0.3-1c0-0.5,0.2-1,0.6-1.3
		c0.4-0.4,1-0.6,1.7-0.6C637.7,126.7,638.3,126.9,638.7,127.3z M635.6,131c-0.3,0.3-0.4,0.6-0.4,1c0,0.4,0.1,0.8,0.4,1
		c0.3,0.3,0.7,0.4,1.3,0.4c0.6,0,1-0.1,1.3-0.4c0.3-0.3,0.4-0.6,0.4-1c0-0.4-0.1-0.8-0.4-1c-0.3-0.3-0.8-0.4-1.3-0.4
		C636.4,130.6,636,130.7,635.6,131z M635.8,127.8c-0.2,0.2-0.4,0.5-0.4,0.9c0,0.4,0.1,0.7,0.3,0.9c0.3,0.3,0.7,0.4,1.2,0.4
		c0.5,0,1-0.1,1.2-0.4c0.2-0.2,0.3-0.5,0.3-0.9c0-0.3-0.1-0.6-0.4-0.9c-0.3-0.3-0.7-0.4-1.2-0.4
		C636.5,127.4,636.1,127.5,635.8,127.8z M643.9,128.1c0.1,0.1,0.2,0.2,0.2,0.4c0,0.2-0.1,0.3-0.2,0.4c-0.1,0.1-0.3,0.2-0.4,0.2
		s-0.3-0.1-0.4-0.2c-0.1-0.1-0.2-0.3-0.2-0.4s0-0.3,0.2-0.4c0.1-0.1,0.3-0.2,0.4-0.2S643.8,128,643.9,128.1z M643.9,131.8
		c0.1,0.1,0.2,0.2,0.2,0.4c0,0.2-0.1,0.3-0.2,0.4c-0.1,0.1-0.3,0.2-0.4,0.2s-0.3-0.1-0.4-0.2c-0.1-0.1-0.2-0.3-0.2-0.4
		s0-0.3,0.2-0.4c0.1-0.1,0.3-0.2,0.4-0.2S643.8,131.6,643.9,131.8z M656.7,127.2c0.4,0.3,0.6,0.8,0.6,1.4c0,0.8-0.4,1.3-1.2,1.6
		c0.4,0.1,0.7,0.3,1,0.6c0.2,0.3,0.4,0.6,0.4,1c0,0.6-0.2,1.2-0.7,1.6c-0.5,0.4-1.1,0.6-1.8,0.6c-0.7,0-1.2-0.2-1.7-0.5
		c-0.5-0.4-0.8-1-0.8-1.8h0.8c0,0.6,0.2,1,0.6,1.3c0.3,0.2,0.7,0.4,1.1,0.4c0.5,0,0.9-0.1,1.2-0.4c0.3-0.3,0.4-0.6,0.4-1
		c0-0.4-0.1-0.8-0.4-1s-0.7-0.3-1.2-0.3h-0.6V130h0.5c0.5,0,0.8-0.1,1.1-0.3c0.2-0.2,0.4-0.5,0.4-0.9s-0.1-0.7-0.4-0.9
		c-0.3-0.2-0.6-0.3-1.1-0.3c-0.5,0-0.8,0.1-1.1,0.4c-0.3,0.3-0.4,0.6-0.5,1.1h-0.8c0.1-0.7,0.3-1.2,0.8-1.6c0.4-0.4,1-0.6,1.6-0.6
		S656.3,126.9,656.7,127.2z M663.9,127.9c0.4,0.6,0.6,1.5,0.6,2.6s-0.2,1.9-0.6,2.6c-0.4,0.7-1.1,1.1-1.9,1.1
		c-0.9,0-1.5-0.4-1.9-1.1c-0.4-0.6-0.6-1.5-0.6-2.6s0.2-1.9,0.6-2.6c0.4-0.8,1.1-1.1,1.9-1.1C662.8,126.7,663.5,127.1,663.9,127.9z
		 M660.6,128.5c-0.2,0.5-0.3,1.1-0.3,2c0,0.8,0.1,1.5,0.3,2c0.3,0.7,0.7,1,1.4,1s1.1-0.3,1.4-1c0.2-0.5,0.3-1.1,0.3-2
		c0-0.8-0.1-1.5-0.3-2c-0.3-0.7-0.7-1-1.4-1S660.9,127.8,660.6,128.5z M671.5,131.1v0.7h-5v-0.7H671.5z M677.8,127.3
		c0.4,0.4,0.6,0.9,0.6,1.5s-0.2,1.2-0.7,1.7c-0.2,0.3-0.7,0.6-1.5,1.1c-0.9,0.6-1.4,1.2-1.6,1.6h3.7v0.7h-4.8c0-0.6,0.2-1.2,0.7-1.8
		c0.3-0.3,0.8-0.7,1.5-1.3c0.6-0.4,0.9-0.7,1.1-0.9c0.4-0.4,0.5-0.8,0.5-1.3c0-0.4-0.1-0.8-0.4-1c-0.3-0.2-0.6-0.4-1.1-0.4
		c-0.5,0-0.9,0.2-1.1,0.5c-0.3,0.3-0.4,0.8-0.4,1.4h-0.8c0-0.8,0.2-1.4,0.7-1.9c0.4-0.5,1-0.7,1.7-0.7
		C676.8,126.7,677.3,126.9,677.8,127.3z M683,126.9v7.1h-0.8v-6.1c-0.4,0.5-1,0.8-1.7,1V128c0.3-0.1,0.7-0.2,1-0.4
		c0.3-0.2,0.6-0.5,0.9-0.7H683z M688,128.1c0.1,0.1,0.2,0.2,0.2,0.4c0,0.2-0.1,0.3-0.2,0.4c-0.1,0.1-0.3,0.2-0.4,0.2
		c-0.2,0-0.3-0.1-0.4-0.2c-0.1-0.1-0.2-0.3-0.2-0.4s0-0.3,0.2-0.4c0.1-0.1,0.3-0.2,0.4-0.2C687.7,127.9,687.9,128,688,128.1z
		 M688,131.8c0.1,0.1,0.2,0.2,0.2,0.4c0,0.2-0.1,0.3-0.2,0.4c-0.1,0.1-0.3,0.2-0.4,0.2c-0.2,0-0.3-0.1-0.4-0.2
		c-0.1-0.1-0.2-0.3-0.2-0.4s0-0.3,0.2-0.4c0.1-0.1,0.3-0.2,0.4-0.2C687.7,131.6,687.9,131.6,688,131.8z M700.8,127.2
		c0.4,0.3,0.6,0.8,0.6,1.4c0,0.8-0.4,1.3-1.2,1.6c0.4,0.1,0.7,0.3,1,0.6c0.2,0.3,0.4,0.6,0.4,1c0,0.6-0.2,1.2-0.7,1.6
		c-0.5,0.4-1.1,0.6-1.8,0.6c-0.7,0-1.2-0.2-1.7-0.5c-0.5-0.4-0.8-1-0.8-1.8h0.8c0,0.6,0.2,1,0.6,1.3c0.3,0.2,0.7,0.4,1.1,0.4
		c0.5,0,0.9-0.1,1.2-0.4c0.3-0.3,0.4-0.6,0.4-1c0-0.4-0.1-0.8-0.4-1s-0.7-0.3-1.2-0.3h-0.6V130h0.5c0.5,0,0.8-0.1,1.1-0.3
		c0.2-0.2,0.4-0.5,0.4-0.9s-0.1-0.7-0.4-0.9c-0.3-0.2-0.6-0.3-1.1-0.3c-0.5,0-0.8,0.1-1.1,0.4c-0.3,0.3-0.4,0.6-0.5,1.1h-0.8
		c0.1-0.7,0.3-1.2,0.8-1.6c0.4-0.4,1-0.6,1.6-0.6S700.3,126.9,700.8,127.2z M708,127.9c0.4,0.6,0.6,1.5,0.6,2.6s-0.2,1.9-0.6,2.6
		c-0.4,0.7-1.1,1.1-1.9,1.1c-0.9,0-1.5-0.4-1.9-1.1c-0.4-0.6-0.6-1.5-0.6-2.6s0.2-1.9,0.6-2.6c0.4-0.8,1.1-1.1,1.9-1.1
		C706.9,126.7,707.5,127.1,708,127.9z M704.7,128.5c-0.2,0.5-0.3,1.1-0.3,2c0,0.8,0.1,1.5,0.3,2c0.3,0.7,0.7,1,1.4,1s1.1-0.3,1.4-1
		c0.2-0.5,0.3-1.1,0.3-2c0-0.8-0.1-1.5-0.3-2c-0.3-0.7-0.7-1-1.4-1S704.9,127.8,704.7,128.5z"/>
	<path class="st0" d="M623.4,90.9v14.6h-1.5V103c-1.3,0.6-2.6,1-4,1.4l-0.4-1.5c1.5-0.3,3-0.8,4.4-1.5v-4.8h-4.1v-1.5h4.1v-4.3
		H623.4z M627.4,105.4c-1.1,0-1.7-0.6-1.7-1.8V90.9h1.5v5.2c1.3-0.5,2.6-1.1,3.7-2l0.9,1.2c-1.6,1-3.2,1.7-4.6,2.2v5.8
		c0,0.4,0.2,0.6,0.5,0.6h1.9c0.3,0,0.5-0.1,0.7-0.4c0.1-0.3,0.2-1.2,0.2-2.7l1.4,0.5c-0.1,1.9-0.3,3-0.5,3.4
		c-0.3,0.4-0.8,0.6-1.5,0.6H627.4z M639.7,101.7c-1,1.4-2.2,2.6-3.7,3.6l-1-1.2c1.4-1,2.6-2.1,3.6-3.4L639.7,101.7z M643,92.5h6.5
		v1.4h-14.3v-1.4h6.2c-0.2-0.5-0.4-1-0.6-1.4l1.6-0.3C642.6,91.3,642.8,91.9,643,92.5z M647.6,95.1v4.8h-4.5v4c0,1-0.5,1.6-1.6,1.6
		h-1.7l-0.4-1.5c0.5,0.1,1.1,0.1,1.6,0.1c0.4,0,0.6-0.2,0.6-0.6v-3.6H637v-4.8H647.6z M646.1,96.6h-7.5v1.9h7.5V96.6z M649.5,104.2
		l-1.1,1.1c-0.8-1.1-2-2.3-3.5-3.6l1-1C647.3,101.9,648.5,103,649.5,104.2z M660.3,105h-1.4V104h-4.4v0.9H653V93h2.9v-2.2h1.5V93
		h2.9V105z M655.9,97.7v-3.3h-1.4v3.3H655.9z M655.9,102.7v-3.6h-1.4v3.6H655.9z M657.4,97.7h1.4v-3.3h-1.4V97.7z M658.8,102.7v-3.6
		h-1.4v3.6H658.8z M666.8,91.6v1.1c-0.5,1.6-1,3.2-1.6,4.6c1.1,1.6,1.7,2.9,1.7,3.9c0,0.9-0.2,1.6-0.6,1.9c-0.4,0.4-1.3,0.6-2.6,0.6
		l-0.4-1.5c0.5,0.1,1,0.1,1.4,0.1c0.3,0,0.6-0.1,0.7-0.2c0.1-0.1,0.1-0.4,0.1-0.8c0-1-0.6-2.3-1.8-3.9c0.5-1.2,1-2.6,1.5-4.3h-2.4
		v12.7h-1.4V91.6H666.8z M672.9,101.2v1.3h-1.5V93h5.1v-2.1h1.5V93h5.2v8.3H678v1.6c0,0.8,0.3,1.1,1,1.1h3.5c0.3,0,0.6-0.1,0.7-0.3
		c0.1-0.2,0.2-0.8,0.3-1.7l1.5,0.5c-0.1,1.4-0.3,2.2-0.6,2.5c-0.3,0.3-0.8,0.4-1.6,0.4h-4.1c-1.5,0-2.2-0.8-2.2-2.3v-1.8H672.9z
		 M672.9,94.4v2h3.6v-2H672.9z M672.9,99.8h3.6v-2h-3.6V99.8z M681.7,94.4H678v2h3.7V94.4z M681.7,99.8v-2H678v2H681.7z M694.2,95
		c0.1-0.8,0.2-1.7,0.2-2.7v-1.4h1.5v1c0,1.1-0.1,2.1-0.2,3h6.5v1.5h-6.1c1.1,3.4,3.3,6.1,6.5,7.9l-0.9,1.2c-3.1-1.9-5.2-4.5-6.5-7.9
		c-1.1,3.7-3.2,6.4-6.5,8.1l-1-1.3c3.3-1.6,5.4-4.3,6.2-8H688V95H694.2z M719.6,97.9h-1.5v-2.4h-10.8v2.4h-1.5V94h2.9
		c-0.5-0.9-1-1.6-1.6-2.3l1.4-0.7c0.5,0.7,1.1,1.6,1.6,2.5l-1,0.5h6c0.7-1,1.2-2.1,1.7-3.2l1.6,0.6c-0.5,1-1.1,1.9-1.6,2.6h2.9V97.9
		z M717,96.5v1.3c-1,0.7-2.1,1.3-3.4,1.9v0.6h6v1.4h-6v2.4c0,0.9-0.5,1.4-1.5,1.4h-2l-0.4-1.4c0.6,0,1.2,0,1.9,0
		c0.3,0,0.5-0.2,0.5-0.6v-1.9h-6.3v-1.4h6.3v-1.2c1.1-0.5,2-0.9,2.7-1.2h-6.5v-1.3H717z M713.8,93.3l-1.4,0.7c-0.5-1-1-1.8-1.5-2.6
		l1.4-0.7C712.8,91.5,713.3,92.4,713.8,93.3z"/>
	<path class="st0" d="M663.6,113.7v-1.8h0.7v1.8h3.9v0.7H665c0.7,1.6,1.9,3,3.6,4.3l-0.5,0.6c-1.8-1.4-3-3.1-3.7-4.9h-0.1v3.9h2.1
		v0.7h-2.1v2h-0.7v-2h-2.1v-0.7h2.1v-3.9h-0.1c-0.7,2-2,3.7-3.8,5l-0.4-0.7c1.7-1.1,2.9-2.6,3.6-4.3h-3.3v-0.7H663.6z M672.5,115.6
		h1c0.3-0.5,0.5-1.1,0.7-1.8l0.7,0.2c-0.2,0.6-0.4,1.1-0.7,1.5h1.2v0.7h-5v-0.7h1.3c-0.2-0.5-0.4-1-0.6-1.4l0.7-0.2
		C672.1,114.3,672.3,114.9,672.5,115.6z M672.7,112.8c-0.1-0.3-0.2-0.6-0.4-0.9l0.7-0.1c0.1,0.3,0.2,0.6,0.3,1h2v0.7h-4.7v-0.7
		H672.7z M675.1,120.9h-0.7v-0.6h-2.6v0.6h-0.7v-3.8h4V120.9z M674.3,119.7v-1.8h-2.6v1.8H674.3z M679.3,112.3v0.5
		c-0.3,1-0.6,2-1,2.9c0.7,0.9,1.1,1.7,1.1,2.3c0,0.6-0.1,1-0.4,1.3c-0.3,0.2-0.8,0.4-1.6,0.4l-0.2-0.8c0.3,0,0.5,0,0.7,0
		c0.4,0,0.6-0.1,0.7-0.2c0.1-0.1,0.1-0.4,0.2-0.7c0-0.6-0.4-1.4-1.2-2.3c0.3-0.8,0.7-1.7,1-2.8h-1.8v8.1H676v-8.7H679.3z"/>
	<path class="st1" d="M89.6,228H79.5v4.7c-0.1,2.8-0.5,5-1.5,6.7l-1-0.9c0.8-1.4,1.1-3.3,1.2-5.8v-5.9h11.4V228z M89.2,228.6v1h-4.1
		c-0.1,0.2-0.1,0.4-0.2,0.5h3.5v4.9h-4.8c-0.2,0.2-0.3,0.4-0.4,0.5h4.9v0.8c-0.4,0.6-1,1.1-1.6,1.5c1.1,0.2,2.3,0.4,3.6,0.4
		l-0.3,1.1c-1.8-0.1-3.4-0.3-4.8-0.8c-1.4,0.5-3.2,0.8-5.3,0.8l-0.5-1c1.6,0,3-0.1,4.1-0.4c-0.7-0.3-1.3-0.6-1.8-1
		c-0.4,0.3-0.9,0.5-1.4,0.6l-0.7-1c1.1-0.3,2.1-0.8,2.9-1.6H81v-4.9h2.7c0.1-0.2,0.1-0.4,0.2-0.5h-3.8v-1H89.2z M87.2,231.5V231
		h-5.1v0.5H87.2z M87.2,232.8v-0.5h-5.1v0.5H87.2z M87.2,233.6h-5.1v0.6h5.1V233.6z M86.6,236.5h-3.9c0.7,0.4,1.4,0.7,2.3,1
		C85.6,237.2,86.2,236.9,86.6,236.5z M94.5,228.8v10.6h-1.3v-10.6H94.5z M97.3,228.9l-1.2,0.6c-0.5-1-1.1-1.8-1.7-2.6l1.2-0.5
		C96.2,227.1,96.8,228,97.3,228.9z M102,239.3l-0.3-1.2l1.2,0c0.4,0,0.6-0.3,0.6-0.7v-9h-5.3v-1.2h6.6v10.6c0,1.1-0.5,1.6-1.6,1.6
		H102z"/>
	<path class="st1" d="M63.6,205v10h-1.5v-8.2c-0.6,0.6-1.4,1-2.3,1.3v-1.5c0.4-0.1,0.9-0.3,1.4-0.6c0.5-0.3,0.9-0.6,1.3-1H63.6z
		 M73.2,206.3c0.6,0.9,0.9,2.2,0.9,3.7c0,1.5-0.3,2.8-0.9,3.7c-0.6,1-1.6,1.5-2.7,1.5s-2.1-0.5-2.7-1.5c-0.6-0.9-0.9-2.2-0.9-3.7
		c0-1.6,0.3-2.8,0.9-3.7c0.6-1,1.6-1.5,2.7-1.5S72.6,205.3,73.2,206.3z M68.8,207.4c-0.3,0.6-0.4,1.5-0.4,2.5c0,1.1,0.1,1.9,0.4,2.5
		c0.3,0.9,0.9,1.4,1.7,1.4c0.8,0,1.4-0.5,1.7-1.4c0.2-0.6,0.4-1.5,0.4-2.5c0-1.1-0.1-1.9-0.4-2.5c-0.3-0.9-0.9-1.4-1.7-1.4
		C69.7,206.1,69.1,206.5,68.8,207.4z M79,216.5l-1-0.9c0.9-1.2,1.3-2.8,1.4-4.7V204h8.3v11c0,0.9-0.5,1.3-1.4,1.3h-1.8l-0.4-1.3
		c0.6,0,1.2,0.1,1.7,0.1c0.3,0,0.4-0.2,0.4-0.6v-2.5h-5.7C80.4,213.9,79.9,215.3,79,216.5z M86.3,205.3h-5.7v2.1h5.7V205.3z
		 M80.6,210.8h5.7v-2.2h-5.7V210.8z M95.9,205v10h-1.5v-8.2c-0.6,0.6-1.4,1-2.3,1.3v-1.5c0.4-0.1,0.9-0.3,1.4-0.6
		c0.5-0.3,0.9-0.6,1.3-1H95.9z M105.5,206.3c0.6,0.9,0.9,2.2,0.9,3.7c0,1.5-0.3,2.8-0.9,3.7c-0.6,1-1.6,1.5-2.7,1.5
		s-2.1-0.5-2.7-1.5c-0.6-0.9-0.9-2.2-0.9-3.7c0-1.6,0.3-2.8,0.9-3.7c0.6-1,1.6-1.5,2.7-1.5S104.9,205.3,105.5,206.3z M101.1,207.4
		c-0.3,0.6-0.4,1.5-0.4,2.5c0,1.1,0.1,1.9,0.4,2.5c0.3,0.9,0.9,1.4,1.7,1.4c0.8,0,1.4-0.5,1.7-1.4c0.2-0.6,0.4-1.5,0.4-2.5
		c0-1.1-0.1-1.9-0.4-2.5c-0.3-0.9-0.9-1.4-1.7-1.4C102,206.1,101.4,206.5,101.1,207.4z M120,216.4h-1.3v-1h-6.3v1h-1.3V204h9V216.4z
		 M118.7,208.9v-3.6h-6.3v3.6H118.7z M118.7,214.1v-3.9h-6.3v3.9H118.7z"/>
	<path class="st1" d="M53.9,316.9v7.1h-0.8v-6.1c-0.4,0.5-1,0.8-1.7,1V318c0.3-0.1,0.7-0.2,1-0.4c0.3-0.2,0.6-0.5,0.9-0.7H53.9z
		 M60.7,317.3c0.4,0.3,0.6,0.8,0.6,1.3c0,0.4-0.1,0.7-0.3,1c-0.2,0.3-0.5,0.5-0.8,0.6v0c0.4,0.1,0.7,0.3,0.9,0.6
		c0.3,0.3,0.4,0.7,0.4,1.2c0,0.6-0.2,1.1-0.7,1.5c-0.5,0.4-1.1,0.6-1.9,0.6c-0.8,0-1.5-0.2-1.9-0.6c-0.4-0.4-0.7-0.9-0.7-1.5
		c0-0.5,0.1-0.9,0.4-1.2c0.3-0.3,0.6-0.5,0.9-0.6v0c-0.4-0.1-0.7-0.3-0.8-0.6c-0.2-0.3-0.3-0.6-0.3-1c0-0.5,0.2-1,0.6-1.3
		c0.4-0.4,1-0.6,1.7-0.6C59.7,316.7,60.3,316.9,60.7,317.3z M57.6,321c-0.3,0.3-0.4,0.6-0.4,1c0,0.4,0.1,0.8,0.4,1
		c0.3,0.3,0.7,0.4,1.3,0.4s1-0.1,1.3-0.4c0.3-0.3,0.4-0.6,0.4-1c0-0.4-0.1-0.8-0.4-1c-0.3-0.3-0.8-0.4-1.3-0.4
		C58.4,320.6,58,320.7,57.6,321z M57.8,317.8c-0.2,0.2-0.4,0.5-0.4,0.9c0,0.4,0.1,0.7,0.3,0.9c0.3,0.3,0.7,0.4,1.2,0.4
		c0.5,0,1-0.1,1.2-0.4c0.2-0.2,0.3-0.5,0.3-0.9c0-0.3-0.1-0.6-0.4-0.9c-0.3-0.3-0.7-0.4-1.2-0.4C58.5,317.4,58.1,317.5,57.8,317.8z
		 M65.9,318.1c0.1,0.1,0.2,0.2,0.2,0.4c0,0.2-0.1,0.3-0.2,0.4c-0.1,0.1-0.3,0.2-0.4,0.2s-0.3-0.1-0.4-0.2c-0.1-0.1-0.2-0.3-0.2-0.4
		s0-0.3,0.2-0.4c0.1-0.1,0.3-0.2,0.4-0.2S65.8,318,65.9,318.1z M65.9,321.8c0.1,0.1,0.2,0.2,0.2,0.4c0,0.2-0.1,0.3-0.2,0.4
		c-0.1,0.1-0.3,0.2-0.4,0.2s-0.3-0.1-0.4-0.2c-0.1-0.1-0.2-0.3-0.2-0.4s0-0.3,0.2-0.4c0.1-0.1,0.3-0.2,0.4-0.2
		S65.8,321.6,65.9,321.8z M78.7,317.2c0.4,0.3,0.6,0.8,0.6,1.4c0,0.8-0.4,1.3-1.2,1.6c0.4,0.1,0.7,0.3,1,0.6c0.2,0.3,0.4,0.6,0.4,1
		c0,0.6-0.2,1.2-0.7,1.6c-0.5,0.4-1.1,0.6-1.8,0.6c-0.7,0-1.2-0.2-1.7-0.5c-0.5-0.4-0.8-1-0.8-1.8h0.8c0,0.6,0.2,1,0.6,1.3
		c0.3,0.2,0.7,0.4,1.1,0.4c0.5,0,0.9-0.1,1.2-0.4c0.3-0.3,0.4-0.6,0.4-1c0-0.4-0.1-0.8-0.4-1s-0.7-0.3-1.2-0.3h-0.6V320H77
		c0.5,0,0.8-0.1,1.1-0.3c0.2-0.2,0.4-0.5,0.4-0.9s-0.1-0.7-0.4-0.9c-0.3-0.2-0.6-0.3-1.1-0.3c-0.5,0-0.8,0.1-1.1,0.4
		c-0.3,0.3-0.4,0.6-0.5,1.1h-0.8c0.1-0.7,0.3-1.2,0.8-1.6c0.4-0.4,1-0.6,1.6-0.6S78.3,316.9,78.7,317.2z M85.9,317.9
		c0.4,0.6,0.6,1.5,0.6,2.6s-0.2,1.9-0.6,2.6c-0.4,0.7-1.1,1.1-1.9,1.1c-0.9,0-1.5-0.4-1.9-1.1c-0.4-0.6-0.6-1.5-0.6-2.6
		s0.2-1.9,0.6-2.6c0.4-0.8,1.1-1.1,1.9-1.1C84.8,316.7,85.5,317.1,85.9,317.9z M82.6,318.5c-0.2,0.5-0.3,1.1-0.3,2
		c0,0.8,0.1,1.5,0.3,2c0.3,0.7,0.7,1,1.4,1s1.1-0.3,1.4-1c0.2-0.5,0.3-1.1,0.3-2c0-0.8-0.1-1.5-0.3-2c-0.3-0.7-0.7-1-1.4-1
		S82.9,317.8,82.6,318.5z M93.5,321.1v0.7h-5v-0.7H93.5z M99.8,317.3c0.4,0.4,0.6,0.9,0.6,1.5s-0.2,1.2-0.7,1.7
		c-0.2,0.3-0.7,0.6-1.5,1.1c-0.9,0.6-1.4,1.2-1.6,1.6h3.7v0.7h-4.8c0-0.6,0.2-1.2,0.7-1.8c0.3-0.3,0.8-0.7,1.5-1.3
		c0.6-0.4,0.9-0.7,1.1-0.9c0.4-0.4,0.5-0.8,0.5-1.3c0-0.4-0.1-0.8-0.4-1s-0.6-0.4-1.1-0.4c-0.5,0-0.9,0.2-1.1,0.5
		c-0.3,0.3-0.4,0.8-0.4,1.4h-0.8c0-0.8,0.2-1.4,0.7-1.9c0.4-0.5,1-0.7,1.7-0.7C98.8,316.7,99.3,316.9,99.8,317.3z M105,316.9v7.1
		h-0.8v-6.1c-0.4,0.5-1,0.8-1.7,1V318c0.3-0.1,0.7-0.2,1-0.4c0.3-0.2,0.6-0.5,0.9-0.7H105z M110,318.1c0.1,0.1,0.2,0.2,0.2,0.4
		c0,0.2-0.1,0.3-0.2,0.4c-0.1,0.1-0.3,0.2-0.4,0.2s-0.3-0.1-0.4-0.2c-0.1-0.1-0.2-0.3-0.2-0.4s0-0.3,0.2-0.4
		c0.1-0.1,0.3-0.2,0.4-0.2S109.9,318,110,318.1z M110,321.8c0.1,0.1,0.2,0.2,0.2,0.4c0,0.2-0.1,0.3-0.2,0.4
		c-0.1,0.1-0.3,0.2-0.4,0.2s-0.3-0.1-0.4-0.2c-0.1-0.1-0.2-0.3-0.2-0.4s0-0.3,0.2-0.4c0.1-0.1,0.3-0.2,0.4-0.2
		S109.9,321.6,110,321.8z M122.8,317.2c0.4,0.3,0.6,0.8,0.6,1.4c0,0.8-0.4,1.3-1.2,1.6c0.4,0.1,0.7,0.3,1,0.6c0.2,0.3,0.4,0.6,0.4,1
		c0,0.6-0.2,1.2-0.7,1.6c-0.5,0.4-1.1,0.6-1.8,0.6c-0.7,0-1.2-0.2-1.7-0.5c-0.5-0.4-0.8-1-0.8-1.8h0.8c0,0.6,0.2,1,0.6,1.3
		c0.3,0.2,0.7,0.4,1.1,0.4c0.5,0,0.9-0.1,1.2-0.4c0.3-0.3,0.4-0.6,0.4-1c0-0.4-0.1-0.8-0.4-1s-0.7-0.3-1.2-0.3h-0.6V320h0.5
		c0.5,0,0.8-0.1,1.1-0.3c0.2-0.2,0.4-0.5,0.4-0.9s-0.1-0.7-0.4-0.9c-0.3-0.2-0.6-0.3-1.1-0.3c-0.5,0-0.8,0.1-1.1,0.4
		c-0.3,0.3-0.4,0.6-0.5,1.1h-0.8c0.1-0.7,0.3-1.2,0.8-1.6c0.4-0.4,1-0.6,1.6-0.6S122.3,316.9,122.8,317.2z M130,317.9
		c0.4,0.6,0.6,1.5,0.6,2.6s-0.2,1.9-0.6,2.6c-0.4,0.7-1.1,1.1-1.9,1.1c-0.9,0-1.5-0.4-1.9-1.1c-0.4-0.6-0.6-1.5-0.6-2.6
		s0.2-1.9,0.6-2.6c0.4-0.8,1.1-1.1,1.9-1.1C128.9,316.7,129.5,317.1,130,317.9z M126.7,318.5c-0.2,0.5-0.3,1.1-0.3,2
		c0,0.8,0.1,1.5,0.3,2c0.3,0.7,0.7,1,1.4,1s1.1-0.3,1.4-1c0.2-0.5,0.3-1.1,0.3-2c0-0.8-0.1-1.5-0.3-2c-0.3-0.7-0.7-1-1.4-1
		S126.9,317.8,126.7,318.5z"/>
	<path class="st0" d="M71.2,282.6H59.6v5.4c-0.1,3.2-0.6,5.7-1.7,7.6l-1.1-1c0.9-1.6,1.3-3.8,1.3-6.6v-6.7h13.1V282.6z M70.8,283.3
		v1.2h-4.7c-0.1,0.2-0.1,0.4-0.2,0.6h4v5.6h-5.5c-0.2,0.2-0.4,0.4-0.5,0.6h5.7v0.9c-0.5,0.6-1.1,1.2-1.8,1.7
		c1.3,0.3,2.7,0.4,4.2,0.4l-0.3,1.2c-2-0.1-3.9-0.4-5.5-0.9c-1.6,0.6-3.7,0.9-6.1,0.9l-0.5-1.2c1.8,0,3.4-0.2,4.7-0.4
		c-0.8-0.4-1.4-0.7-2.1-1.2c-0.5,0.3-1.1,0.5-1.6,0.7l-0.8-1.1c1.3-0.4,2.4-0.9,3.3-1.8h-1.5V285h3.1c0.1-0.2,0.2-0.4,0.2-0.6h-4.3
		v-1.2H70.8z M68.5,286.6V286h-5.8v0.6H68.5z M68.5,288.1v-0.6h-5.8v0.6H68.5z M68.5,289h-5.8v0.6h5.8V289z M67.7,292.3h-4.4
		c0.8,0.4,1.6,0.8,2.6,1.1C66.6,293.1,67.2,292.7,67.7,292.3z M76.8,283.5v12.1h-1.5v-12.1H76.8z M79.9,283.6l-1.4,0.7
		c-0.6-1.1-1.3-2.1-2-3l1.4-0.6C78.7,281.6,79.4,282.5,79.9,283.6z M85.3,295.5l-0.4-1.4l1.4,0c0.4,0,0.6-0.3,0.6-0.8V283h-6v-1.4
		h7.5v12.1c0,1.2-0.6,1.8-1.8,1.8H85.3z M98.6,285c0.1-0.8,0.2-1.7,0.2-2.7v-1.4h1.5v1c0,1.1-0.1,2.1-0.2,3h6.5v1.5h-6.1
		c1.1,3.4,3.3,6.1,6.5,7.9l-0.9,1.2c-3.1-1.9-5.2-4.5-6.5-7.9c-1.1,3.7-3.2,6.4-6.5,8.1l-1-1.3c3.3-1.6,5.4-4.3,6.2-8h-5.9V285H98.6
		z M124,287.9h-1.5v-2.4h-10.8v2.4h-1.5V284h2.9c-0.5-0.9-1-1.6-1.6-2.3l1.4-0.7c0.5,0.7,1.1,1.6,1.6,2.5l-1,0.5h6
		c0.7-1,1.2-2.1,1.7-3.2l1.6,0.6c-0.5,1-1.1,1.9-1.6,2.6h2.9V287.9z M121.4,286.5v1.3c-1,0.7-2.1,1.3-3.4,1.9v0.6h6v1.4h-6v2.4
		c0,0.9-0.5,1.4-1.5,1.4h-2l-0.4-1.4c0.6,0,1.2,0,1.9,0c0.3,0,0.5-0.2,0.5-0.6v-1.9h-6.3v-1.4h6.3v-1.2c1.1-0.5,2-0.9,2.7-1.2h-6.5
		v-1.3H121.4z M118.2,283.3l-1.4,0.7c-0.5-1-1-1.8-1.5-2.6l1.4-0.7C117.2,281.5,117.7,282.4,118.2,283.3z"/>
	<path class="st0" d="M72.3,307.8c-0.3,1.1-0.7,2.1-1.2,2.9l-0.6-0.4c0.5-0.8,0.9-1.7,1.2-2.6L72.3,307.8z M78.1,302.2v4.6h-6.3
		v-4.6H78.1z M74.6,304.2v-1.3h-2.1v1.3H74.6z M74.6,304.8h-2.1v1.3h2.1V304.8z M73.9,310.9c-0.7,0-1-0.4-1-1.1v-2.2h0.7v2
		c0,0.4,0.2,0.5,0.5,0.5h2.2c0.2,0,0.4-0.1,0.5-0.2c0.1-0.1,0.2-0.5,0.2-1.2l0.7,0.2c-0.1,0.9-0.2,1.4-0.4,1.6
		c-0.2,0.2-0.5,0.2-0.8,0.2H73.9z M76.2,308.9l-0.7,0.3c-0.3-0.7-0.6-1.3-1-1.8l0.6-0.2C75.5,307.7,75.9,308.3,76.2,308.9z
		 M75.3,304.2h2.1v-1.3h-2.1V304.2z M77.4,304.8h-2.1v1.3h2.1V304.8z M79.5,310l-0.6,0.3c-0.4-1-0.9-1.9-1.5-2.7l0.7-0.2
		C78.6,308.3,79.1,309.1,79.5,310z M84.8,309.3h-2.2v0.8h-0.7v-7.7h3V309.3z M84.1,305.5v-2.3h-1.6v2.3H84.1z M84.1,308.6v-2.4h-1.6
		v2.4H84.1z M85.4,311l-0.6-0.5c0.7-1,1-2.2,1.1-3.6v-4.7H90v7.8c0,0.6-0.3,0.9-0.9,0.9h-1.3l-0.2-0.7c0.5,0,0.9,0,1.3,0
		c0.3,0,0.4-0.2,0.4-0.5v-2.1h-2.7C86.5,309,86.1,310.2,85.4,311z M89.3,302.9h-2.6v1.8h2.6V302.9z M86.6,307h2.6v-1.7h-2.6V307z
		 M94,303.8v-1.9h0.7v1.9h1v0.7h-1v0.8c0.3,0.4,0.7,0.8,1,1.3c0.6-0.7,1.1-1.5,1.5-2.4l0.6,0.3c-0.5,1-1,1.8-1.6,2.5l-0.4-0.3
		l0.2,0.3l-0.4,0.6c-0.4-0.7-0.7-1.3-1-1.7v5H94v-5.1c-0.3,1-0.8,1.9-1.3,2.7l-0.3-0.8c0.7-1,1.3-2,1.6-3.3h-1.3v-0.7H94z
		 M100.2,306.2c-0.2,1.1-0.5,2-1.1,2.7c0.6,0.6,1.5,1,2.5,1.4l-0.4,0.6c-1-0.4-1.9-0.9-2.5-1.5c-0.7,0.7-1.6,1.3-2.7,1.6l-0.4-0.6
		c1.1-0.3,1.9-0.8,2.6-1.4c-0.6-0.7-1-1.6-1.2-2.6l0.6-0.2c0.1,0.8,0.5,1.6,1,2.3c0.4-0.6,0.7-1.4,0.9-2.3L100.2,306.2z M98.4,303.1
		c-0.2-0.5-0.4-0.9-0.6-1.3l0.7-0.1c0.2,0.4,0.4,0.9,0.6,1.4h2.2v0.7H96v-0.7H98.4z M101.6,306.6L101,307c-0.4-0.7-1-1.5-1.7-2.4
		l0.6-0.3C100.6,305.1,101.2,305.9,101.6,306.6z M112.1,302.2v0.7h-7.2v7h7.5v0.7h-8.2v-8.3H112.1z M108.9,306
		c0.6-0.7,1.1-1.6,1.5-2.5l0.6,0.3c-0.4,1-1,1.9-1.6,2.7c0.8,0.7,1.5,1.4,2.1,2.1l-0.6,0.6c-0.6-0.7-1.3-1.4-2-2.1
		c-0.9,0.9-1.9,1.7-3,2.2l-0.4-0.6c1.1-0.5,2.1-1.1,2.9-2c-0.8-0.7-1.7-1.4-2.6-2.1l0.5-0.5C107.2,304.6,108.1,305.3,108.9,306z"/>
	<path class="st1" d="M660.4,414.6v12.8h-1.3v-2.2c-1.1,0.5-2.3,0.9-3.5,1.3l-0.3-1.3c1.3-0.3,2.6-0.7,3.8-1.3v-4.2h-3.6v-1.3h3.6
		v-3.8H660.4z M664,427.2c-1,0-1.5-0.5-1.5-1.6v-11.1h1.3v4.5c1.1-0.4,2.2-1,3.3-1.7l0.8,1.1c-1.4,0.8-2.8,1.5-4,1.9v5.1
		c0,0.4,0.2,0.5,0.5,0.5h1.6c0.3,0,0.4-0.1,0.6-0.3c0.1-0.2,0.2-1,0.2-2.3l1.2,0.4c-0.1,1.6-0.3,2.6-0.5,3c-0.3,0.3-0.7,0.5-1.3,0.5
		H664z M674.7,424c-0.9,1.2-1.9,2.3-3.2,3.2l-0.8-1.1c1.2-0.8,2.3-1.8,3.1-3L674.7,424z M677.6,415.9h5.7v1.2h-12.5v-1.2h5.5
		c-0.2-0.4-0.4-0.9-0.6-1.2l1.4-0.2C677.2,414.9,677.4,415.4,677.6,415.9z M681.6,418.2v4.2h-3.9v3.5c0,0.9-0.5,1.4-1.4,1.4h-1.5
		l-0.3-1.3c0.5,0.1,0.9,0.1,1.4,0.1c0.4,0,0.6-0.2,0.6-0.5v-3.2h-4v-4.2H681.6z M680.3,419.5h-6.6v1.7h6.6V419.5z M683.3,426.2l-1,1
		c-0.7-1-1.7-2-3-3.2l0.9-0.9C681.4,424.1,682.5,425.1,683.3,426.2z"/>
	<path class="st1" d="M642.1,393v10h-1.5v-8.2c-0.6,0.6-1.4,1-2.3,1.3v-1.5c0.4-0.1,0.9-0.3,1.4-0.6c0.5-0.3,0.9-0.6,1.3-1H642.1z
		 M651.7,394.3c0.6,0.9,0.9,2.2,0.9,3.7c0,1.5-0.3,2.8-0.9,3.7c-0.6,1-1.6,1.5-2.7,1.5s-2.1-0.5-2.7-1.5c-0.6-0.9-0.9-2.2-0.9-3.7
		c0-1.6,0.3-2.8,0.9-3.7c0.6-1,1.6-1.5,2.7-1.5S651.1,393.3,651.7,394.3z M647.3,395.4c-0.3,0.6-0.4,1.5-0.4,2.5
		c0,1.1,0.1,1.9,0.4,2.5c0.3,0.9,0.9,1.4,1.7,1.4c0.8,0,1.4-0.5,1.7-1.4c0.2-0.6,0.4-1.5,0.4-2.5c0-1.1-0.1-1.9-0.4-2.5
		c-0.3-0.9-0.9-1.4-1.7-1.4C648.2,394.1,647.6,394.5,647.3,395.4z M657.5,404.5l-1-0.9c0.9-1.2,1.3-2.8,1.4-4.7V392h8.3v11
		c0,0.9-0.5,1.3-1.4,1.3H663l-0.4-1.3c0.6,0,1.2,0.1,1.7,0.1c0.3,0,0.4-0.2,0.4-0.6v-2.5h-5.7C658.9,401.9,658.4,403.3,657.5,404.5z
		 M664.8,393.3h-5.7v2.1h5.7V393.3z M659.1,398.8h5.7v-2.2h-5.7V398.8z M674.4,393v10h-1.5v-8.2c-0.6,0.6-1.4,1-2.3,1.3v-1.5
		c0.4-0.1,0.9-0.3,1.4-0.6c0.5-0.3,0.9-0.6,1.3-1H674.4z M684,394.1c0.6,0.9,0.9,2,0.9,3.6c0,1.6-0.3,2.9-1,4
		c-0.7,1-1.6,1.5-2.7,1.5c-1.9,0-3-0.9-3.3-2.7h1.5c0.2,1,0.8,1.5,1.8,1.5c0.7,0,1.2-0.4,1.7-1c0.4-0.6,0.6-1.5,0.6-2.4
		c0-0.1,0-0.1,0-0.2h-0.1c-0.3,0.4-0.6,0.8-1.1,1c-0.4,0.2-0.9,0.3-1.4,0.3c-1,0-1.8-0.3-2.4-1c-0.6-0.6-0.9-1.4-0.9-2.4
		c0-1,0.3-1.8,1-2.5c0.7-0.7,1.5-1,2.5-1C682.4,392.8,683.3,393.2,684,394.1z M679.8,394.7c-0.4,0.4-0.6,0.9-0.6,1.6
		s0.2,1.1,0.6,1.5c0.4,0.4,0.8,0.6,1.5,0.6c0.6,0,1.1-0.2,1.5-0.6s0.5-0.9,0.5-1.6c0-0.7-0.2-1.2-0.6-1.6c-0.4-0.4-0.9-0.6-1.5-0.6
		C680.6,394.1,680.1,394.3,679.8,394.7z M698.5,404.4h-1.3v-1h-6.3v1h-1.3V392h9V404.4z M697.2,396.9v-3.6h-6.3v3.6H697.2z
		 M697.2,402.1v-3.9h-6.3v3.9H697.2z"/>
	<path class="st1" d="M631.9,504.9v7.1h-0.8v-6.1c-0.4,0.5-1,0.8-1.7,1V506c0.3-0.1,0.7-0.2,1-0.4c0.3-0.2,0.6-0.5,0.9-0.7H631.9z
		 M638.7,505.3c0.4,0.3,0.6,0.8,0.6,1.3c0,0.4-0.1,0.7-0.3,1c-0.2,0.3-0.5,0.5-0.8,0.6v0c0.4,0.1,0.7,0.3,0.9,0.6
		c0.3,0.3,0.4,0.7,0.4,1.2c0,0.6-0.2,1.1-0.7,1.5c-0.5,0.4-1.1,0.6-1.9,0.6c-0.8,0-1.5-0.2-1.9-0.6c-0.4-0.4-0.7-0.9-0.7-1.5
		c0-0.5,0.1-0.9,0.4-1.2c0.3-0.3,0.6-0.5,0.9-0.6v0c-0.4-0.1-0.7-0.3-0.8-0.6c-0.2-0.3-0.3-0.6-0.3-1c0-0.5,0.2-1,0.6-1.3
		c0.4-0.4,1-0.6,1.7-0.6C637.7,504.7,638.3,504.9,638.7,505.3z M635.6,509c-0.3,0.3-0.4,0.6-0.4,1c0,0.4,0.1,0.8,0.4,1
		c0.3,0.3,0.7,0.4,1.3,0.4c0.6,0,1-0.1,1.3-0.4c0.3-0.3,0.4-0.6,0.4-1c0-0.4-0.1-0.8-0.4-1c-0.3-0.3-0.8-0.4-1.3-0.4
		C636.4,508.6,636,508.7,635.6,509z M635.8,505.8c-0.2,0.2-0.4,0.5-0.4,0.9c0,0.4,0.1,0.7,0.3,0.9c0.3,0.3,0.7,0.4,1.2,0.4
		c0.5,0,1-0.1,1.2-0.4c0.2-0.2,0.3-0.5,0.3-0.9c0-0.3-0.1-0.6-0.4-0.9c-0.3-0.3-0.7-0.4-1.2-0.4
		C636.5,505.4,636.1,505.5,635.8,505.8z M643.9,506.1c0.1,0.1,0.2,0.2,0.2,0.4c0,0.2-0.1,0.3-0.2,0.4c-0.1,0.1-0.3,0.2-0.4,0.2
		s-0.3-0.1-0.4-0.2c-0.1-0.1-0.2-0.3-0.2-0.4s0-0.3,0.2-0.4c0.1-0.1,0.3-0.2,0.4-0.2S643.8,506,643.9,506.1z M643.9,509.8
		c0.1,0.1,0.2,0.2,0.2,0.4c0,0.2-0.1,0.3-0.2,0.4c-0.1,0.1-0.3,0.2-0.4,0.2s-0.3-0.1-0.4-0.2c-0.1-0.1-0.2-0.3-0.2-0.4
		s0-0.3,0.2-0.4c0.1-0.1,0.3-0.2,0.4-0.2S643.8,509.6,643.9,509.8z M656.7,505.2c0.4,0.3,0.6,0.8,0.6,1.4c0,0.8-0.4,1.3-1.2,1.6
		c0.4,0.1,0.7,0.3,1,0.6c0.2,0.3,0.4,0.6,0.4,1c0,0.6-0.2,1.2-0.7,1.6c-0.5,0.4-1.1,0.6-1.8,0.6c-0.7,0-1.2-0.2-1.7-0.5
		c-0.5-0.4-0.8-1-0.8-1.8h0.8c0,0.6,0.2,1,0.6,1.3c0.3,0.2,0.7,0.4,1.1,0.4c0.5,0,0.9-0.1,1.2-0.4c0.3-0.3,0.4-0.6,0.4-1
		c0-0.4-0.1-0.8-0.4-1s-0.7-0.3-1.2-0.3h-0.6V508h0.5c0.5,0,0.8-0.1,1.1-0.3c0.2-0.2,0.4-0.5,0.4-0.9s-0.1-0.7-0.4-0.9
		c-0.3-0.2-0.6-0.3-1.1-0.3c-0.5,0-0.8,0.1-1.1,0.4c-0.3,0.3-0.4,0.6-0.5,1.1h-0.8c0.1-0.7,0.3-1.2,0.8-1.6c0.4-0.4,1-0.6,1.6-0.6
		S656.3,504.9,656.7,505.2z M663.9,505.9c0.4,0.6,0.6,1.5,0.6,2.6s-0.2,1.9-0.6,2.6c-0.4,0.7-1.1,1.1-1.9,1.1
		c-0.9,0-1.5-0.4-1.9-1.1c-0.4-0.6-0.6-1.5-0.6-2.6s0.2-1.9,0.6-2.6c0.4-0.8,1.1-1.1,1.9-1.1C662.8,504.7,663.5,505.1,663.9,505.9z
		 M660.6,506.5c-0.2,0.5-0.3,1.1-0.3,2c0,0.8,0.1,1.5,0.3,2c0.3,0.7,0.7,1,1.4,1s1.1-0.3,1.4-1c0.2-0.5,0.3-1.1,0.3-2
		c0-0.8-0.1-1.5-0.3-2c-0.3-0.7-0.7-1-1.4-1S660.9,505.8,660.6,506.5z M671.5,509.1v0.7h-5v-0.7H671.5z M677.8,505.3
		c0.4,0.4,0.6,0.9,0.6,1.5s-0.2,1.2-0.7,1.7c-0.2,0.3-0.7,0.6-1.5,1.1c-0.9,0.6-1.4,1.2-1.6,1.6h3.7v0.7h-4.8c0-0.6,0.2-1.2,0.7-1.8
		c0.3-0.3,0.8-0.7,1.5-1.3c0.6-0.4,0.9-0.7,1.1-0.9c0.4-0.4,0.5-0.8,0.5-1.3c0-0.4-0.1-0.8-0.4-1c-0.3-0.2-0.6-0.4-1.1-0.4
		c-0.5,0-0.9,0.2-1.1,0.5c-0.3,0.3-0.4,0.8-0.4,1.4h-0.8c0-0.8,0.2-1.4,0.7-1.9c0.4-0.5,1-0.7,1.7-0.7
		C676.8,504.7,677.3,504.9,677.8,505.3z M683,504.9v7.1h-0.8v-6.1c-0.4,0.5-1,0.8-1.7,1V506c0.3-0.1,0.7-0.2,1-0.4
		c0.3-0.2,0.6-0.5,0.9-0.7H683z M688,506.1c0.1,0.1,0.2,0.2,0.2,0.4c0,0.2-0.1,0.3-0.2,0.4c-0.1,0.1-0.3,0.2-0.4,0.2
		c-0.2,0-0.3-0.1-0.4-0.2c-0.1-0.1-0.2-0.3-0.2-0.4s0-0.3,0.2-0.4c0.1-0.1,0.3-0.2,0.4-0.2C687.7,505.9,687.9,506,688,506.1z
		 M688,509.8c0.1,0.1,0.2,0.2,0.2,0.4c0,0.2-0.1,0.3-0.2,0.4c-0.1,0.1-0.3,0.2-0.4,0.2c-0.2,0-0.3-0.1-0.4-0.2
		c-0.1-0.1-0.2-0.3-0.2-0.4s0-0.3,0.2-0.4c0.1-0.1,0.3-0.2,0.4-0.2C687.7,509.6,687.9,509.6,688,509.8z M700.8,505.2
		c0.4,0.3,0.6,0.8,0.6,1.4c0,0.8-0.4,1.3-1.2,1.6c0.4,0.1,0.7,0.3,1,0.6c0.2,0.3,0.4,0.6,0.4,1c0,0.6-0.2,1.2-0.7,1.6
		c-0.5,0.4-1.1,0.6-1.8,0.6c-0.7,0-1.2-0.2-1.7-0.5c-0.5-0.4-0.8-1-0.8-1.8h0.8c0,0.6,0.2,1,0.6,1.3c0.3,0.2,0.7,0.4,1.1,0.4
		c0.5,0,0.9-0.1,1.2-0.4c0.3-0.3,0.4-0.6,0.4-1c0-0.4-0.1-0.8-0.4-1s-0.7-0.3-1.2-0.3h-0.6V508h0.5c0.5,0,0.8-0.1,1.1-0.3
		c0.2-0.2,0.4-0.5,0.4-0.9s-0.1-0.7-0.4-0.9c-0.3-0.2-0.6-0.3-1.1-0.3c-0.5,0-0.8,0.1-1.1,0.4c-0.3,0.3-0.4,0.6-0.5,1.1h-0.8
		c0.1-0.7,0.3-1.2,0.8-1.6c0.4-0.4,1-0.6,1.6-0.6S700.3,504.9,700.8,505.2z M708,505.9c0.4,0.6,0.6,1.5,0.6,2.6s-0.2,1.9-0.6,2.6
		c-0.4,0.7-1.1,1.1-1.9,1.1c-0.9,0-1.5-0.4-1.9-1.1c-0.4-0.6-0.6-1.5-0.6-2.6s0.2-1.9,0.6-2.6c0.4-0.8,1.1-1.1,1.9-1.1
		C706.9,504.7,707.5,505.1,708,505.9z M704.7,506.5c-0.2,0.5-0.3,1.1-0.3,2c0,0.8,0.1,1.5,0.3,2c0.3,0.7,0.7,1,1.4,1s1.1-0.3,1.4-1
		c0.2-0.5,0.3-1.1,0.3-2c0-0.8-0.1-1.5-0.3-2c-0.3-0.7-0.7-1-1.4-1S704.9,505.8,704.7,506.5z"/>
	<path class="st0" d="M641.5,468.9v14.6h-1.5V481c-1.3,0.6-2.6,1-4,1.4l-0.4-1.5c1.5-0.3,3-0.8,4.4-1.5v-4.8h-4.1v-1.5h4.1v-4.3
		H641.5z M645.5,483.4c-1.1,0-1.7-0.6-1.7-1.8v-12.7h1.5v5.2c1.3-0.5,2.6-1.1,3.7-2l0.9,1.2c-1.6,1-3.2,1.7-4.6,2.2v5.8
		c0,0.4,0.2,0.6,0.5,0.6h1.9c0.3,0,0.5-0.1,0.7-0.4c0.1-0.3,0.2-1.2,0.2-2.7l1.4,0.5c-0.1,1.9-0.3,3-0.5,3.4
		c-0.3,0.4-0.8,0.6-1.5,0.6H645.5z M657.8,479.7c-1,1.4-2.2,2.6-3.7,3.6l-1-1.2c1.4-1,2.6-2.1,3.6-3.4L657.8,479.7z M661.1,470.5
		h6.5v1.4h-14.3v-1.4h6.2c-0.2-0.5-0.4-1-0.6-1.4l1.6-0.3C660.7,469.3,660.9,469.9,661.1,470.5z M665.7,473.1v4.8h-4.5v4
		c0,1-0.5,1.6-1.6,1.6h-1.7l-0.4-1.5c0.5,0.1,1.1,0.1,1.6,0.1c0.4,0,0.6-0.2,0.6-0.6v-3.6h-4.6v-4.8H665.7z M664.2,474.6h-7.5v1.9
		h7.5V474.6z M667.6,482.2l-1.1,1.1c-0.8-1.1-2-2.3-3.5-3.6l1-1C665.4,479.9,666.6,481,667.6,482.2z M677.1,473
		c0.1-0.8,0.2-1.7,0.2-2.7v-1.4h1.5v1c0,1.1-0.1,2.1-0.2,3h6.5v1.5H679c1.1,3.4,3.3,6.1,6.5,7.9l-0.9,1.2c-3.1-1.9-5.2-4.5-6.5-7.9
		c-1.1,3.7-3.2,6.4-6.5,8.1l-1-1.3c3.3-1.6,5.4-4.3,6.2-8h-5.9V473H677.1z M702.5,475.9H701v-2.4h-10.8v2.4h-1.5V472h2.9
		c-0.5-0.9-1-1.6-1.6-2.3l1.4-0.7c0.5,0.7,1.1,1.6,1.6,2.5l-1,0.5h6c0.7-1,1.2-2.1,1.7-3.2l1.6,0.6c-0.5,1-1.1,1.9-1.6,2.6h2.9
		V475.9z M699.9,474.5v1.3c-1,0.7-2.1,1.3-3.4,1.9v0.6h6v1.4h-6v2.4c0,0.9-0.5,1.4-1.5,1.4h-2l-0.4-1.4c0.6,0,1.2,0,1.9,0
		c0.3,0,0.5-0.2,0.5-0.6v-1.9h-6.3v-1.4h6.3v-1.2c1.1-0.5,2-0.9,2.7-1.2h-6.5v-1.3H699.9z M696.7,471.3l-1.4,0.7
		c-0.5-1-1-1.8-1.5-2.6l1.4-0.7C695.7,469.5,696.2,470.4,696.7,471.3z"/>
	<path class="st0" d="M663.6,491.7v-1.8h0.7v1.8h3.9v0.7H665c0.7,1.6,1.9,3,3.6,4.3l-0.5,0.6c-1.8-1.4-3-3.1-3.7-4.9h-0.1v3.9h2.1
		v0.7h-2.1v2h-0.7v-2h-2.1v-0.7h2.1v-3.9h-0.1c-0.7,2-2,3.7-3.8,5l-0.4-0.7c1.7-1.1,2.9-2.6,3.6-4.3h-3.3v-0.7H663.6z M672.5,493.6
		h1c0.3-0.5,0.5-1.1,0.7-1.8l0.7,0.2c-0.2,0.6-0.4,1.1-0.7,1.5h1.2v0.7h-5v-0.7h1.3c-0.2-0.5-0.4-1-0.6-1.4l0.7-0.2
		C672.1,492.3,672.3,492.9,672.5,493.6z M672.7,490.8c-0.1-0.3-0.2-0.6-0.4-0.9l0.7-0.1c0.1,0.3,0.2,0.6,0.3,1h2v0.7h-4.7v-0.7
		H672.7z M675.1,498.9h-0.7v-0.6h-2.6v0.6h-0.7v-3.8h4V498.9z M674.3,497.7v-1.8h-2.6v1.8H674.3z M679.3,490.3v0.5
		c-0.3,1-0.6,2-1,2.9c0.7,0.9,1.1,1.7,1.1,2.3c0,0.6-0.1,1-0.4,1.3c-0.3,0.2-0.8,0.4-1.6,0.4l-0.2-0.8c0.3,0,0.5,0,0.7,0
		c0.4,0,0.6-0.1,0.7-0.2c0.1-0.1,0.1-0.4,0.2-0.7c0-0.6-0.4-1.4-1.2-2.3c0.3-0.8,0.7-1.7,1-2.8h-1.8v8.1H676v-8.7H679.3z"/>
</g>
</svg>
