<?xml version="1.0" encoding="UTF-8"?>
<svg width="167px" height="29px" viewBox="0 0 167 29" version="1.1" xmlns="http://www.w3.org/2000/svg" xmlns:xlink="http://www.w3.org/1999/xlink">
    <!-- Generator: Sketch 42 (36781) - http://www.bohemiancoding.com/sketch -->
    <title>Group 2</title>
    <desc>Created with Sketch.</desc>
    <defs>
        <polygon id="path-1" points="12.6368985 28.1470588 0 28.1470588 0 14.1990397 0 0.251020588 12.6368985 0.251020588"></polygon>
        <polygon id="path-3" points="0 28.8500529 166.649893 28.8500529 166.649893 0.853111765 0 0.853111765"></polygon>
    </defs>
    <g id="Page-1" stroke="none" stroke-width="1" fill="none" fill-rule="evenodd">
        <g id="Desktop-HD" transform="translate(-635.000000, -565.000000)">
            <g id="Group-2" transform="translate(633.000000, 560.000000)">
                <rect id="Rectangle-4-Copy-5" x="0" y="0" width="171" height="40"></rect>
                <g id="Page-1-Copy-3" transform="translate(2.000000, 5.000000)">
                    <g id="Group-3" transform="translate(0.000000, 0.702994)">
                        <mask id="mask-2" fill="white">
                            <use xlink:href="#path-1"></use>
                        </mask>
                        <g id="Clip-2"></g>
                        <path d="M12.6368985,21.7894912 C12.6368985,22.6373147 12.4775279,23.4459029 12.1587868,24.2169618 C11.839198,24.9880206 11.3983858,25.6618441 10.837198,26.2401382 C10.2751624,26.8175794 9.61733503,27.2798735 8.86456345,27.6270206 C8.11094416,27.9733147 7.30052792,28.1473147 6.43331472,28.1473147 C5.69241117,28.1473147 4.93963959,28.0441088 4.17415228,27.83855 C3.40781726,27.6338441 2.71862437,27.2798735 2.10572589,26.7791971 C1.49282741,26.2785206 0.989284264,25.6174912 0.593401015,24.7944029 C0.196670051,23.9730206 0,22.9324324 0,21.6743441 L0,6.57046176 C0,5.67146176 0.152588832,4.83643235 0.459461929,4.06537353 C0.76548731,3.29516765 1.19951777,2.62731471 1.7615533,2.06181471 C2.32274112,1.49716765 2.99243655,1.05363824 3.77148731,0.732932353 C4.55053807,0.412226471 5.41181726,0.251020588 6.3570203,0.251020588 C7.25051269,0.251020588 8.07957868,0.412226471 8.84506599,0.732932353 C9.61140102,1.05363824 10.2751624,1.50313824 10.837198,2.08143235 C11.3983858,2.65887353 11.839198,3.35231471 12.1587868,4.16175588 C12.4775279,4.97119706 12.6368985,5.85143235 12.6368985,6.80160882 L12.6368985,8.34202059 L8.73147208,8.34202059 L8.73147208,7.03275588 C8.73147208,6.26169706 8.51360914,5.59384412 8.07957868,5.02919706 C7.64470051,4.46455 7.05808122,4.18137353 6.31802538,4.18137353 C5.34739086,4.18137353 4.70397462,4.48331471 4.38438579,5.08634412 C4.06479695,5.69022647 3.9054264,6.45446176 3.9054264,7.37905 L3.9054264,21.4039618 C3.9054264,22.2006088 4.07751269,22.8684618 4.42338071,23.4075206 C4.7675533,23.9474324 5.38553807,24.2169618 6.27987817,24.2169618 C6.53504061,24.2169618 6.80970051,24.1726088 7.10385787,24.0821971 C7.3963198,23.9926382 7.66504569,23.8450794 7.90749239,23.6386676 C8.14993909,23.4339618 8.34745685,23.1516382 8.5008934,22.7908441 C8.65432995,22.4317559 8.73147208,21.9822559 8.73147208,21.4423441 L8.73147208,20.0938441 L12.6368985,20.0938441 L12.6368985,21.7894912 Z" id="Fill-1" fill="#FFFFFF" mask="url(#mask-2)"></path>
                    </g>
                    <polygon id="Fill-4" fill="#FFFFFF" points="32.0135609 28.6188206 28.3378655 28.6188206 25.3513629 10.8179382 25.2742208 10.8179382 22.3250178 28.6188206 18.6484746 28.6188206 14.5896117 1.18482059 18.7256168 1.18482059 20.6787538 18.6010265 20.7558959 18.6010265 23.8186929 1.18482059 26.8051954 1.18482059 29.9841294 19.0249382 30.0604239 19.0249382 31.9372665 1.18482059 36.0732716 1.18482059"></polygon>
                    <polygon id="Fill-6" fill="#FFFFFF" points="38.3697335 1.18516176 42.1234188 1.18516176 48.0201294 17.7143088 48.0972716 17.7143088 48.0972716 1.18516176 52.002698 1.18516176 52.002698 28.6191618 48.3261548 28.6191618 42.352302 12.1275441 42.2760076 12.1275441 42.2760076 28.6191618 38.3697335 28.6191618"></polygon>
                    <mask id="mask-4" fill="white">
                        <use xlink:href="#path-3"></use>
                    </mask>
                    <g id="Clip-9"></g>
                    <polygon id="Fill-8" fill="#FFFFFF" mask="url(#mask-4)" points="54.8260152 16.2248176 62.6156751 16.2248176 62.6156751 13.5687588 54.8260152 13.5687588"></polygon>
                    <polygon id="Fill-10" fill="#FFFFFF" mask="url(#mask-4)" points="69.192169 14.2471029 64.0982452 1.18516176 68.2342503 1.18516176 71.1834533 9.31539706 74.1699558 1.18516176 78.3059609 1.18516176 73.0975954 14.2471029 78.7272756 28.6191618 74.5912706 28.6191618 71.1834533 19.3715735 67.8129355 28.6191618 63.6769305 28.6191618"></polygon>
                    <g id="Group-32" mask="url(#mask-4)" fill="#FFFFFF">
                        <g transform="translate(82.228426, 0.702994)">
                            <path d="M5.34934061,10.4321529 C5.34934061,11.9060353 4.33801574,12.7410647 3.05457411,12.7410647 C1.80080254,12.7410647 0.759807614,11.8898294 0.759807614,10.4321529 L0.759807614,2.74715294 C0.759807614,1.16750588 1.80080254,0.438241176 3.05457411,0.438241176 C4.33801574,0.438241176 5.34934061,1.35003529 5.34934061,2.74715294 L5.34934061,3.14206471 L4.02097005,3.14206471 L4.02097005,2.74715294 C4.02097005,2.0793 3.58270102,1.7748 3.05457411,1.7748 C2.51034061,1.7748 2.08817817,2.0793 2.08817817,2.74715294 L2.08817817,10.4321529 C2.08817817,10.9788882 2.51034061,11.4045059 3.05457411,11.4045059 C3.58270102,11.4045059 4.02097005,10.9788882 4.02097005,10.4321529 L4.02097005,10.2803294 L5.34934061,9.84021176 L5.34934061,10.4321529 Z" id="Fill-11"></path>
                            <polygon id="Fill-12" points="7.58290203 12.5283412 6.25537919 12.5283412 6.25537919 0.590576471 7.58290203 0.149605882"></polygon>
                            <path d="M11.8247868,5.37446765 C11.8247868,4.72111471 11.3865178,4.38761471 10.8583909,4.38761471 C10.3150051,4.38761471 9.89284264,4.72111471 9.89284264,5.37446765 L9.89284264,10.4324088 C9.89284264,11.0550559 10.3150051,11.4039088 10.8583909,11.4039088 C11.3865178,11.4039088 11.8247868,11.0550559 11.8247868,10.4324088 L11.8247868,5.37446765 Z M13.1523096,10.4324088 C13.1523096,11.8602324 12.1113147,12.7413206 10.8583909,12.7413206 C9.56053807,12.7413206 8.56362437,11.8602324 8.56362437,10.4324088 L8.56362437,5.37446765 C8.56362437,3.97735 9.56053807,3.12696765 10.8583909,3.12696765 C12.1113147,3.12696765 13.1523096,3.97735 13.1523096,5.37446765 L13.1523096,10.4324088 Z" id="Fill-13"></path>
                            <path d="M18.6330462,12.5283412 L17.7573558,12.5283412 L17.455569,12.0873706 C17.2741579,12.3458118 16.9265944,12.7415765 16.0517518,12.7415765 C14.8590157,12.7415765 14.103701,11.8596353 14.103701,10.2808412 L14.103701,3.24834118 L15.4329193,3.24834118 L15.4329193,10.4318118 C15.4329193,11.0553118 15.824564,11.4041647 16.3687975,11.4041647 C16.8969244,11.4041647 17.3046756,11.1005176 17.3046756,10.4318118 L17.3046756,3.24834118 L18.6330462,3.24834118 L18.6330462,12.5283412 Z" id="Fill-14"></path>
                            <path d="M22.7242071,5.37446765 C22.7242071,4.72111471 22.2859381,4.38761471 21.7730701,4.38761471 C21.2144254,4.38761471 20.7922629,4.70661471 20.7922629,5.37446765 L20.7922629,10.4324088 C20.7922629,11.0849088 21.2144254,11.4039088 21.7730701,11.4039088 C22.2859381,11.4039088 22.7242071,11.0704088 22.7242071,10.4324088 L22.7242071,5.37446765 Z M24.0669888,12.5280853 L23.1768873,12.5280853 L22.8751005,12.0879676 C22.769136,12.3609088 22.2715269,12.7413206 21.4407655,12.7413206 C20.2183594,12.7413206 19.4630447,11.7996735 19.4630447,10.3257912 L19.4630447,5.37446765 C19.4630447,4.00720294 20.1878416,3.12696765 21.4856944,3.12696765 C22.1197858,3.12696765 22.572466,3.32399706 22.7242071,3.56708529 L22.7242071,0.590320588 L24.0669888,0.150202941 L24.0669888,12.5280853 Z" id="Fill-15"></path>
                            <polygon id="Fill-16" points="7.4371797 16.3040559 5.97656548 27.4733206 4.82875838 27.4733206 3.92170254 20.5124676 3.01379898 27.4733206 1.85158071 27.4733206 0.433352284 16.3040559 1.86599188 16.3040559 2.53229645 23.2939088 3.48173807 16.3040559 4.55918477 16.3040559 5.49506294 23.2939088 6.16136751 16.3040559"></polygon>
                            <path d="M10.6550239,22.8085853 C10.0311051,23.2077618 8.75529289,23.9924676 8.75529289,25.2769971 C8.75529289,26.0037029 9.08166345,26.4173794 9.69032335,26.4173794 C10.3566279,26.4173794 10.6550239,25.8757618 10.6550239,25.2769971 L10.6550239,22.8085853 Z M11.8731914,27.4733206 L11.0517548,27.4733206 L10.7677701,26.9734971 C10.5558411,27.3445265 10.1438513,27.6729088 9.42159746,27.6729088 C8.49928274,27.6729088 7.53542995,27.0169971 7.53542995,25.3904382 C7.53542995,22.8375853 9.74796802,22.1381735 10.6262015,21.1828794 L10.6262015,20.7547029 C10.6262015,20.2130853 10.3990137,19.8275559 9.88953655,19.8275559 C9.42159746,19.8275559 9.10963807,19.9989971 8.96806954,20.4118206 L7.91774975,19.7277618 C8.28735381,19.1426441 8.75529289,18.6436735 9.9031,18.6436735 C11.0797294,18.6436735 11.8731914,19.4283794 11.8731914,20.7547029 L11.8731914,27.4733206 Z" id="Fill-17"></path>
                            <path d="M15.6867254,18.88625 L15.2611721,20.0129853 C15.189964,19.9276912 15.0628066,19.8986912 14.8788523,19.8986912 C14.4388878,19.8986912 14.0421569,20.3123676 14.0421569,20.8829853 L14.0421569,27.4728088 L12.7943193,27.4728088 L12.7943193,18.7574559 L13.6166036,18.7574559 L13.9005883,19.3135735 C14.0557203,19.0141912 14.396502,18.6431618 14.9492127,18.6431618 C15.2755832,18.6431618 15.529898,18.7293088 15.6867254,18.88625" id="Fill-18"></path>
                            <path d="M17.9409711,19.8274706 C17.4297985,19.8274706 17.0339152,20.1413529 17.0339152,20.7546176 L17.0339152,23.693 C18.5360675,22.9799412 18.8480269,22.3240294 18.8480269,20.9968529 C18.8480269,20.1268529 18.4368848,19.8274706 17.9409711,19.8274706 L17.9409711,19.8274706 Z M20.0102452,25.5046471 C20.0102452,26.8744706 19.0887782,27.6728235 17.8977376,27.6728235 C16.6931335,27.6728235 15.7860777,26.8744706 15.7860777,25.5046471 L15.7860777,20.7546176 C15.7860777,19.3847941 16.7219558,18.6435882 17.9409711,18.6435882 C19.1176005,18.6435882 20.0958645,19.4564412 20.0958645,20.9260588 C20.0958645,23.2793235 19.1888086,23.9642353 17.0339152,25.0764706 L17.0339152,25.5046471 C17.0339152,26.0897647 17.3738492,26.4181471 17.8977376,26.4181471 C18.394499,26.4181471 18.7488442,26.0897647 18.7488442,25.5046471 L18.7488442,25.3622059 L20.0102452,24.9485294 L20.0102452,25.5046471 Z" id="Fill-19"></path>
                            <path d="M25.3543299,27.4730647 L24.1064924,27.4730647 L24.1064924,20.7544471 C24.1064924,20.0985353 23.639401,19.8273 23.1282284,19.8273 C22.6179036,19.8273 22.1643756,20.0985353 22.1643756,20.7544471 L22.1643756,27.4730647 L20.9173858,27.4730647 L20.9173858,16.2611529 L22.1643756,15.8474765 L22.1643756,18.9718 C22.4051269,18.7295647 22.8450914,18.6434176 23.3265939,18.6434176 C24.4184518,18.6434176 25.3543299,19.3991235 25.3543299,20.7544471 L25.3543299,27.4730647 Z" id="Fill-20"></path>
                            <path d="M29.2526355,20.7545324 C29.2526355,20.1412676 28.8414934,19.8273853 28.3455797,19.8273853 C27.8344071,19.8273853 27.4376761,20.1412676 27.4376761,20.7545324 L27.4376761,25.5045618 C27.4376761,26.0896794 27.8344071,26.4180618 28.3455797,26.4180618 C28.8414934,26.4180618 29.2526355,26.0896794 29.2526355,25.5045618 L29.2526355,20.7545324 Z M30.5004731,25.5045618 C30.5004731,26.8453853 29.5213614,27.6727382 28.3455797,27.6727382 C27.1257168,27.6727382 26.1906863,26.8453853 26.1906863,25.5045618 L26.1906863,20.7545324 C26.1906863,19.4418559 27.1257168,18.6435029 28.3455797,18.6435029 C29.5213614,18.6435029 30.5004731,19.4418559 30.5004731,20.7545324 L30.5004731,25.5045618 Z" id="Fill-21"></path>
                            <path d="M35.6461076,27.4730647 L34.8229756,27.4730647 L34.5398386,27.0593882 C34.3694477,27.3016235 34.0430772,27.6726529 33.2216406,27.6726529 C32.1009604,27.6726529 31.3922701,26.8453 31.3922701,25.3620353 L31.3922701,18.7577118 L32.6401076,18.7577118 L32.6401076,25.5044765 C32.6401076,26.0895941 33.008864,26.4179765 33.5191888,26.4179765 C34.0151025,26.4179765 34.3974223,26.1322412 34.3974223,25.5044765 L34.3974223,18.7577118 L35.6461076,18.7577118 L35.6461076,27.4730647 Z" id="Fill-22"></path>
                            <path d="M38.6793193,27.6729941 C37.4026594,27.6729941 36.509167,26.7884941 36.509167,25.5048176 L36.509167,24.9052 L37.7570046,25.1764353 L37.7570046,25.5048176 C37.7570046,26.0609353 38.1401721,26.4174647 38.6793193,26.4174647 C39.3168015,26.4174647 39.6431721,26.1035824 39.6431721,25.5048176 C39.6431721,25.0484941 39.515167,24.7482588 39.3168015,24.4923765 C38.7217051,23.8211118 37.9273954,23.3792882 37.3187355,22.6517294 C36.9067457,22.1527588 36.6227609,21.5676412 36.6227609,20.7684353 C36.6227609,19.5137588 37.5018421,18.6437588 38.7496797,18.6437588 C40.0543142,18.6437588 40.7774157,19.4992588 40.7774157,20.7547882 L40.7774157,21.3535529 L39.5575528,21.0686706 L39.5575528,20.7547882 C39.5575528,20.1841706 39.2176188,19.8276412 38.7072939,19.8276412 C38.1825579,19.8276412 37.8705985,20.1978176 37.8705985,20.7829353 C37.8705985,22.1237588 39.7983041,22.7805235 40.5926137,24.0923471 C40.7909792,24.4352294 40.9189843,24.8625529 40.9189843,25.2762294 C40.9189843,26.5172588 40.2238574,27.6729941 38.6793193,27.6729941" id="Fill-23"></path>
                            <path d="M43.8525893,19.8274706 C43.3414168,19.8274706 42.9455335,20.1413529 42.9455335,20.7546176 L42.9455335,23.693 C44.4476858,22.9799412 44.7596452,22.3240294 44.7596452,20.9968529 C44.7596452,20.1268529 44.348503,19.8274706 43.8525893,19.8274706 L43.8525893,19.8274706 Z M45.9218635,25.5046471 C45.9218635,26.8744706 45.0003964,27.6728235 43.8093558,27.6728235 C42.6047518,27.6728235 41.6976959,26.8744706 41.6976959,25.5046471 L41.6976959,20.7546176 C41.6976959,19.3847941 42.6335741,18.6435882 43.8525893,18.6435882 C45.0292188,18.6435882 46.0074827,19.4564412 46.0074827,20.9260588 C46.0074827,23.2793235 45.1004269,23.9642353 42.9455335,25.0764706 L42.9455335,25.5046471 C42.9455335,26.0897647 43.2854675,26.4181471 43.8093558,26.4181471 C44.3061173,26.4181471 44.6604624,26.0897647 44.6604624,25.5046471 L44.6604624,25.3622059 L45.9218635,24.9485294 L45.9218635,25.5046471 Z" id="Fill-24"></path>
                            <polygon id="Fill-25" points="53.817403 27.4730647 52.711134 27.4730647 50.6850934 20.6691529 50.6850934 27.4730647 49.5076162 27.4730647 49.5076162 16.3038 50.7554538 16.3038 52.6551848 23.1938588 52.6551848 16.3038 53.817403 16.3038"></polygon>
                            <path d="M56.892831,19.8274706 C56.3816584,19.8274706 55.9857751,20.1413529 55.9857751,20.7546176 L55.9857751,23.693 C57.4879274,22.9799412 57.7998868,22.3240294 57.7998868,20.9968529 C57.7998868,20.1268529 57.3887447,19.8274706 56.892831,19.8274706 L56.892831,19.8274706 Z M58.9621051,25.5046471 C58.9621051,26.8744706 58.0406381,27.6728235 56.8495975,27.6728235 C55.6449934,27.6728235 54.7379376,26.8744706 54.7379376,25.5046471 L54.7379376,20.7546176 C54.7379376,19.3847941 55.6738157,18.6435882 56.892831,18.6435882 C58.0694604,18.6435882 59.0477244,19.4564412 59.0477244,20.9260588 C59.0477244,23.2793235 58.1406685,23.9642353 55.9857751,25.0764706 L55.9857751,25.5046471 C55.9857751,26.0897647 56.3257091,26.4181471 56.8495975,26.4181471 C57.3463589,26.4181471 57.7007041,26.0897647 57.7007041,25.5046471 L57.7007041,25.3622059 L58.9621051,24.9485294 L58.9621051,25.5046471 Z" id="Fill-26"></path>
                            <path d="M62.9733264,26.1320706 L63.8388442,27.0737176 C63.5124736,27.4447471 62.9589152,27.6733353 62.4630015,27.6733353 C61.158367,27.6733353 60.5208848,26.9167765 60.5208848,25.5188059 L60.5208848,19.8706294 L59.7265751,19.8706294 L59.7265751,18.7575412 L60.5208848,18.7575412 L60.5208848,17.1744824 L61.7678746,16.7463059 L61.7678746,18.7575412 L63.4132909,18.7575412 L63.4132909,19.8706294 L61.7678746,19.8706294 L61.7678746,25.5188059 C61.7678746,26.1039235 61.9806513,26.4178059 62.4062046,26.4178059 C62.6749305,26.4178059 62.8741437,26.3035118 62.9733264,26.1320706" id="Fill-27"></path>
                            <polygon id="Fill-28" points="71.0250152 18.7575412 69.4931929 27.4728941 68.3453858 27.4728941 67.5095381 22.2810412 66.6592792 27.4728941 65.5097766 27.4728941 64.0211878 18.7575412 65.4105939 18.7575412 66.0768985 24.2641294 67.0271878 18.7575412 68.0902234 18.7575412 69.039665 24.2641294 69.7059695 18.7575412"></polygon>
                            <path d="M74.3422117,20.7545324 C74.3422117,20.1412676 73.9310695,19.8273853 73.4351558,19.8273853 C72.9239832,19.8273853 72.5272523,20.1412676 72.5272523,20.7545324 L72.5272523,25.5045618 C72.5272523,26.0896794 72.9239832,26.4180618 73.4351558,26.4180618 C73.9310695,26.4180618 74.3422117,26.0896794 74.3422117,25.5045618 L74.3422117,20.7545324 Z M75.5900492,25.5045618 C75.5900492,26.8453853 74.6109376,27.6727382 73.4351558,27.6727382 C72.2152929,27.6727382 71.2802624,26.8453853 71.2802624,25.5045618 L71.2802624,20.7545324 C71.2802624,19.4418559 72.2152929,18.6435029 73.4351558,18.6435029 C74.6109376,18.6435029 75.5900492,19.4418559 75.5900492,20.7545324 L75.5900492,25.5045618 Z" id="Fill-29"></path>
                            <path d="M79.3887482,18.88625 L78.9631949,20.0129853 C78.8919868,19.9276912 78.7648294,19.8986912 78.5800274,19.8986912 C78.1409107,19.8986912 77.7441797,20.3123676 77.7441797,20.8829853 L77.7441797,27.4728088 L76.4963421,27.4728088 L76.4963421,18.7574559 L77.3186264,18.7574559 L77.6026112,19.3135735 C77.7577431,19.0141912 78.0985249,18.6431618 78.6512355,18.6431618 C78.9776061,18.6431618 79.2319208,18.7293088 79.3887482,18.88625" id="Fill-30"></path>
                            <polygon id="Fill-31" points="84.4212127 27.4730647 82.9750096 27.4730647 81.1600503 22.8228294 81.1600503 27.4730647 79.9130604 27.4730647 79.9130604 16.2611529 81.1600503 15.8474765 81.1600503 21.3395647 82.7902076 18.7577118 84.1660503 18.7577118 82.0959284 22.0099765"></polygon>
                        </g>
                    </g>
                </g>
            </g>
        </g>
    </g>
</svg>