<?xml version="1.0" encoding="UTF-8"?>
<svg width="152px" height="31px" viewBox="0 0 152 31" version="1.1" xmlns="http://www.w3.org/2000/svg" xmlns:xlink="http://www.w3.org/1999/xlink">
    <!-- Generator: Sketch 42 (36781) - http://www.bohemiancoding.com/sketch -->
    <title>Group 4</title>
    <desc>Created with Sketch.</desc>
    <defs>
        <polygon id="path-1" points="1.02537786e-20 0.373814634 1.02537786e-20 28.0258146 12.612217 28.0258146 12.612217 0.373814634 0 0.373814634"></polygon>
        <polygon id="path-3" points="0 30.7511683 151.661045 30.7511683 151.661045 0.756021951 0 0.756021951"></polygon>
    </defs>
    <g id="Page-1" stroke="none" stroke-width="1" fill="none" fill-rule="evenodd">
        <g id="Desktop-HD" transform="translate(-426.000000, -565.000000)">
            <g id="Group-4" transform="translate(416.000000, 560.000000)">
                <rect id="Rectangle-4-Copy" x="0" y="0" width="171" height="40"></rect>
                <g id="Page-1-Copy-2" transform="translate(10.000000, 5.000000)">
                    <g id="Group-3" transform="translate(0.000000, 0.507266)">
                        <mask id="mask-2" fill="white">
                            <use xlink:href="#path-1"></use>
                        </mask>
                        <g id="Clip-2"></g>
                        <path d="M12.612217,21.7237415 C12.612217,22.5637659 12.4525754,23.3659854 12.1340488,24.1304 C11.8155222,24.8940585 11.3759403,25.5624488 10.8160597,26.1348146 C10.2554226,26.7079366 9.59945445,27.1661317 8.84739871,27.5101561 C8.09534296,27.8534244 7.28654256,28.0258146 6.42024092,28.0258146 C5.68180388,28.0258146 4.93050473,27.9237415 4.16558686,27.7203512 C3.40142558,27.516961 2.71368044,27.1661317 2.10159482,26.6701317 C1.4910224,26.1733756 0.987129915,25.517839 0.592187158,24.7027659 C0.1972444,23.8884488 -0.000226978596,22.8571317 -0.000226978596,21.6095707 L-0.000226978596,6.63732683 C-0.000226978596,5.7466439 0.152605276,4.91871707 0.459026381,4.15505854 C0.764690891,3.3906439 1.19746341,2.72905854 1.75810055,2.16879024 C2.31873768,1.60852195 2.98681135,1.16922927 3.76459134,0.850912195 C4.54161473,0.532595122 5.40186361,0.373814634 6.34458138,0.373814634 C7.23660727,0.373814634 8.06432255,0.532595122 8.82848382,0.850912195 C9.59340169,1.16922927 10.2554226,1.61457073 10.8160597,2.18769268 C11.3759403,2.76081463 11.8155222,3.44810732 12.1340488,4.25032683 C12.4525754,5.05254634 12.612217,5.92432683 12.612217,6.86642439 L12.612217,8.39449756 L8.71423793,8.39449756 L8.71423793,7.09552195 C8.71423793,6.33186341 8.49785167,5.67027805 8.06432255,5.10925366 C7.63079343,4.54974146 7.04518865,4.26922927 6.30599502,4.26922927 C5.33755301,4.26922927 4.69444699,4.5686439 4.37592036,5.16671707 C4.05663713,5.76554634 3.89775212,6.5231561 3.89775212,7.43954634 L3.89775212,21.3419122 C3.89775212,22.131278 4.07025585,22.7936195 4.41450672,23.3281805 C4.758001,23.8627415 5.37613937,24.1304 6.26740866,24.1304 C6.52238128,24.1304 6.79626879,24.0857902 7.08982778,23.9958146 C7.38263016,23.9073512 7.64970831,23.7614244 7.89257541,23.557278 C8.13392932,23.3538878 8.33215729,23.0733756 8.48498955,22.7164976 C8.63706521,22.3603756 8.71423793,21.914278 8.71423793,21.3797171 L8.71423793,20.0429366 L12.612217,20.0429366 L12.612217,21.7237415 Z" id="Fill-1" fill="#FFFFFF" mask="url(#mask-2)"></path>
                    </g>
                    <path d="M19.6823733,24.6373634 L21.4785306,24.6373634 C22.5740806,24.6373634 23.3518606,24.3636561 23.8103574,23.8162415 C24.2688542,23.2688268 24.4981025,22.4091439 24.4981025,21.2379488 L24.4981025,8.13780244 C24.4981025,7.06792439 24.2809597,6.24075366 23.8481872,5.65477805 C23.4154146,5.06955854 22.6255291,4.77619268 21.4785306,4.77619268 L19.6823733,4.77619268 L19.6823733,24.6373634 Z M15.7843942,1.10987561 L21.5557033,1.10987561 C23.771771,1.10987561 25.4665445,1.72760732 26.6377541,2.96231463 C27.8097203,4.19777805 28.3968382,5.92243659 28.3968382,8.13780244 L28.3968382,20.8561195 C28.3968382,23.4026561 27.7779433,25.2808024 26.5424231,26.4898024 C25.3069029,27.6995585 23.5296605,28.3036805 21.2114525,28.3036805 L15.7843942,28.3036805 L15.7843942,1.10987561 Z" id="Fill-4" fill="#FFFFFF"></path>
                    <polygon id="Fill-6" fill="#FFFFFF" points="31.9120557 1.11010244 35.6572026 1.11010244 41.5427576 17.4947366 41.6199303 17.4947366 41.6199303 1.11010244 45.5179094 1.11010244 45.5179094 28.3039073 41.8491787 28.3039073 35.8872076 11.957078 35.8100348 11.957078 35.8100348 28.3039073 31.9120557 28.3039073"></polygon>
                    <mask id="mask-4" fill="white">
                        <use xlink:href="#path-3"></use>
                    </mask>
                    <g id="Clip-9"></g>
                    <polygon id="Fill-8" fill="#FFFFFF" mask="url(#mask-4)" points="48.3350921 16.0178512 56.109109 16.0178512 56.109109 13.3851195 48.3350921 13.3851195"></polygon>
                    <polygon id="Fill-10" fill="#FFFFFF" mask="url(#mask-4)" points="62.673103 14.0575171 57.5895391 1.11010244 61.7175231 1.11010244 64.6606789 9.16859024 67.6409079 1.11010244 71.768892 1.11010244 66.5710821 14.0575171 72.189559 28.3039073 68.0615749 28.3039073 64.6606789 19.1369805 61.2976127 28.3039073 57.1696287 28.3039073"></polygon>
                    <path d="M81.3744749,10.8685244 C81.3744749,12.3164512 80.3734993,13.1383293 79.1024191,13.1383293 C77.863116,13.1383293 76.83112,12.3013293 76.83112,10.8685244 L76.83112,3.30981707 C76.83112,1.75603659 77.863116,1.04076829 79.1024191,1.04076829 C80.3734993,1.04076829 81.3744749,1.9359878 81.3744749,3.30981707 L81.3744749,3.69845122 L80.0587556,3.69845122 L80.0587556,3.30981707 C80.0587556,2.65276829 79.6252265,2.35562195 79.1024191,2.35562195 C78.5637232,2.35562195 78.145326,2.65276829 78.145326,3.30981707 L78.145326,10.8685244 C78.145326,11.4045976 78.5637232,11.8242317 79.1024191,11.8242317 C79.6252265,11.8242317 80.0587556,11.4045976 80.0587556,10.8685244 L80.0587556,10.7188171 L81.3744749,10.2855732 L81.3744749,10.8685244 Z" id="Fill-11" fill="#FFFFFF" mask="url(#mask-4)"></path>
                    <polygon id="Fill-12" fill="#FFFFFF" mask="url(#mask-4)" points="83.5866083 12.9293439 82.2731588 12.9293439 82.2731588 1.18941707 83.5866083 0.756173171"></polygon>
                    <path d="M87.7877551,5.89408293 C87.7877551,5.2521561 87.3549826,4.92400976 86.830662,4.92400976 C86.2919662,4.92400976 85.8743255,5.2521561 85.8743255,5.89408293 L85.8743255,10.8684488 C85.8743255,11.4801317 86.2919662,11.8241561 86.830662,11.8241561 C87.3549826,11.8241561 87.7877551,11.4801317 87.7877551,10.8684488 L87.7877551,5.89408293 Z M89.1019612,10.8684488 C89.1019612,12.2717659 88.0707218,13.1382537 86.830662,13.1382537 C85.54445,13.1382537 84.5578497,12.2717659 84.5578497,10.8684488 L84.5578497,5.89408293 C84.5578497,4.52025366 85.54445,3.68400976 86.830662,3.68400976 C88.0707218,3.68400976 89.1019612,4.52025366 89.1019612,5.89408293 L89.1019612,10.8684488 Z" id="Fill-13" fill="#FFFFFF" mask="url(#mask-4)"></path>
                    <path d="M94.5298517,12.9293439 L93.6620368,12.9293439 L93.3624251,12.4953439 C93.1838686,12.7501488 92.8403743,13.1380268 91.9725595,13.1380268 C90.793784,13.1380268 90.0447546,12.271539 90.0447546,10.7185146 L90.0447546,3.80324634 L91.3604739,3.80324634 L91.3604739,10.868222 C91.3604739,11.4799049 91.7493639,11.8246854 92.2873031,11.8246854 C92.8093539,11.8246854 93.2133758,11.5245146 93.2133758,10.868222 L93.2133758,3.80324634 L94.5298517,3.80324634 L94.5298517,12.9293439 Z" id="Fill-14" fill="#FFFFFF" mask="url(#mask-4)"></path>
                    <path d="M98.5796038,5.89408293 C98.5796038,5.2521561 98.1460747,4.92400976 97.6376426,4.92400976 C97.085328,4.92400976 96.6676874,5.23854634 96.6676874,5.89408293 L96.6676874,10.8684488 C96.6676874,11.5103756 97.085328,11.8241561 97.6376426,11.8241561 C98.1460747,11.8241561 98.5796038,11.4952537 98.5796038,10.8684488 L98.5796038,5.89408293 Z M99.9096984,12.9295707 L99.0290214,12.9295707 L98.7286531,12.4955707 C98.6249995,12.7654976 98.1316994,13.1382537 97.3100368,13.1382537 C96.0994843,13.1382537 95.3519681,12.2120341 95.3519681,10.7633512 L95.3519681,5.89408293 C95.3519681,4.54974146 96.0699771,3.68400976 97.3524062,3.68400976 C97.9834067,3.68400976 98.4313111,3.87757073 98.5796038,4.11725366 L98.5796038,1.1888878 L99.9096984,0.7564 L99.9096984,12.9295707 Z" id="Fill-15" fill="#FFFFFF" mask="url(#mask-4)"></path>
                    <path d="M80.0887924,18.7875878 C80.0887924,18.1759049 79.6711518,17.8167585 79.1316994,17.8167585 L78.1768761,17.8167585 L78.1768761,26.8831244 L79.1316994,26.8831244 C79.6711518,26.8831244 80.0887924,26.4498805 80.0887924,25.9122951 L80.0887924,18.7875878 Z M81.4045117,25.9122951 C81.4045117,27.1961488 80.5374535,28.1957098 79.1316994,28.1957098 L76.8611568,28.1957098 L76.8611568,16.5034171 L79.1316994,16.5034171 C80.5374535,16.5034171 81.4045117,17.4886122 81.4045117,18.7875878 L81.4045117,25.9122951 Z" id="Fill-16" fill="#FFFFFF" mask="url(#mask-4)"></path>
                    <path d="M84.6187556,20.1912073 C84.0808163,20.1912073 83.6624191,20.5193537 83.6624191,21.1620366 L83.6624191,24.2393537 C85.2459731,23.4915732 85.5773619,22.8057927 85.5773619,21.4168415 C85.5773619,20.5057439 85.1423196,20.1912073 84.6187556,20.1912073 L84.6187556,20.1912073 Z M86.8007765,26.1356463 C86.8007765,27.5692073 85.8293081,28.4054512 84.5733599,28.4054512 C83.3030363,28.4054512 82.3474564,27.5692073 82.3474564,26.1356463 L82.3474564,21.1620366 C82.3474564,19.7284756 83.3325436,18.9519634 84.6187556,18.9519634 C85.8595719,18.9519634 86.8900548,19.8033293 86.8900548,21.3412317 C86.8900548,23.8061098 85.9337183,24.5228902 83.6624191,25.6880366 L83.6624191,26.1356463 C83.6624191,26.7488415 84.0218019,27.0928659 84.5733599,27.0928659 C85.0976804,27.0928659 85.4714385,26.7488415 85.4714385,26.1356463 L85.4714385,25.9866951 L86.8007765,25.5526951 L86.8007765,26.1356463 Z" id="Fill-17" fill="#FFFFFF" mask="url(#mask-4)"></path>
                    <polygon id="Fill-18" fill="#FFFFFF" mask="url(#mask-4)" points="89.118455 28.1960122 87.8034923 28.1960122 87.8034923 16.4583537 89.118455 16.0251098"></polygon>
                    <path d="M90.0900747,28.1963146 L91.4057939,28.1963146 L91.4057939,19.0717293 L90.0900747,19.0717293 L90.0900747,28.1963146 Z M90.7778198,17.6525341 C90.3745545,17.6525341 90.0900747,17.279778 90.0900747,16.8314122 C90.0900747,16.4132902 90.3745545,16.0254122 90.7778198,16.0254122 C91.1674664,16.0254122 91.4504331,16.3974122 91.4504331,16.8314122 C91.4360577,17.2956561 91.1674664,17.6525341 90.7778198,17.6525341 L90.7778198,17.6525341 Z" id="Fill-19" fill="#FFFFFF" mask="url(#mask-4)"></path>
                    <polygon id="Fill-20" fill="#FFFFFF" mask="url(#mask-4)" points="96.5920279 19.0715024 94.9048203 28.1960878 93.6768661 28.1960878 92.0335411 19.0715024 93.5278168 19.0715024 94.3789866 24.8065024 95.2324261 19.0715024"></polygon>
                    <path d="M99.373121,20.1912073 C98.8336685,20.1912073 98.4152713,20.5193537 98.4152713,21.1620366 L98.4152713,24.2393537 C100.000338,23.4915732 100.329457,22.8057927 100.329457,21.4168415 C100.329457,20.5057439 99.8951717,20.1912073 99.373121,20.1912073 L99.373121,20.1912073 Z M101.556655,26.1356463 C101.556655,27.5692073 100.583673,28.4054512 99.3284818,28.4054512 C98.0574017,28.4054512 97.1018218,27.5692073 97.1018218,26.1356463 L97.1018218,21.1620366 C97.1018218,19.7284756 98.0884221,18.9519634 99.373121,18.9519634 C100.613181,18.9519634 101.645177,19.8033293 101.645177,21.3412317 C101.645177,23.8061098 100.688084,24.5228902 98.4152713,25.6880366 L98.4152713,26.1356463 C98.4152713,26.7488415 98.7754107,27.0928659 99.3284818,27.0928659 C99.8505326,27.0928659 100.225047,26.7488415 100.225047,26.1356463 L100.225047,25.9866951 L101.556655,25.5526951 L101.556655,26.1356463 Z" id="Fill-21" fill="#FFFFFF" mask="url(#mask-4)"></path>
                    <path d="M105.606937,19.2066171 L105.158276,20.3868854 C105.082616,20.2961537 104.949455,20.2666659 104.754254,20.2666659 C104.289704,20.2666659 103.87282,20.6991537 103.87282,21.2979829 L103.87282,28.195861 L102.559371,28.195861 L102.559371,19.0712756 L103.424159,19.0712756 L103.723014,19.6549829 C103.888709,19.3404463 104.245822,18.9525683 104.829157,18.9525683 C105.171894,18.9525683 105.442756,19.0417878 105.606937,19.2066171" id="Fill-22" fill="#FFFFFF" mask="url(#mask-4)"></path>
                    <path d="M110.554314,30.7511683 L109.224976,30.7511683 L109.224976,27.9142902 C109.089545,28.137339 108.79069,28.4057537 108.028042,28.4057537 C107.027823,28.4057537 105.995827,27.8250707 105.995827,26.1956805 L105.995827,19.0717293 L107.310033,19.0717293 L107.310033,26.1359488 C107.310033,26.7778756 107.729943,27.0931683 108.282258,27.0931683 C108.79069,27.0931683 109.224976,26.7778756 109.224976,26.1359488 L109.224976,19.0717293 L110.554314,19.0717293 L110.554314,30.7511683 Z" id="Fill-23" fill="#FFFFFF" mask="url(#mask-4)"></path>
                    <polygon id="Fill-24" fill="#FFFFFF" mask="url(#mask-4)" points="119.421459 28.1960122 118.254789 28.1960122 116.121191 21.0773537 116.121191 28.1960122 114.880374 28.1960122 114.880374 16.5097683 116.195337 16.5097683 118.195775 23.7191585 118.195775 16.5097683 119.421459 16.5097683"></polygon>
                    <path d="M122.659839,20.1964244 C122.122656,20.1964244 121.704259,20.5253268 121.704259,21.1672537 L121.704259,24.2407902 C123.287813,23.494522 123.616932,22.8087415 123.616932,21.4213024 C123.616932,20.5102049 123.183403,20.1964244 122.659839,20.1964244 L122.659839,20.1964244 Z M124.84186,26.1370829 C124.84186,27.5691317 123.870391,28.4053756 122.615956,28.4053756 C121.345633,28.4053756 120.390809,27.5691317 120.390809,26.1370829 L120.390809,21.1672537 C120.390809,19.7344488 121.376653,18.9571805 122.659839,18.9571805 C123.901412,18.9571805 124.931138,19.8077902 124.931138,21.3456927 C124.931138,23.8083024 123.974045,24.5250829 121.704259,25.6894732 L121.704259,26.1370829 C121.704259,26.7487659 122.062885,27.0927902 122.615956,27.0927902 C123.138764,27.0927902 123.511765,26.7487659 123.511765,26.1370829 L123.511765,25.9881317 L124.84186,25.5548878 L124.84186,26.1370829 Z" id="Fill-25" fill="#FFFFFF" mask="url(#mask-4)"></path>
                    <path d="M129.066537,26.7938293 L129.978234,27.7790244 C129.633226,28.1669024 129.051405,28.4058293 128.528597,28.4058293 C127.15462,28.4058293 126.48352,27.6141951 126.48352,26.1519024 L126.48352,20.2414878 L125.646726,20.2414878 L125.646726,19.0770976 L126.48352,19.0770976 L126.48352,17.4204878 L127.79697,16.972878 L127.79697,19.0770976 L129.53033,19.0770976 L129.53033,20.2414878 L127.79697,20.2414878 L127.79697,26.1519024 C127.79697,26.7635854 128.021678,27.0932439 128.469583,27.0932439 C128.754063,27.0932439 128.962126,26.9730244 129.066537,26.7938293" id="Fill-26" fill="#FFFFFF" mask="url(#mask-4)"></path>
                    <polygon id="Fill-27" fill="#FFFFFF" mask="url(#mask-4)" points="137.549408 19.0774 135.937103 28.1959366 134.726551 28.1959366 133.845117 22.7633756 132.948552 28.1959366 131.740269 28.1959366 130.170333 19.0774 131.635859 19.0774 132.337979 24.8381073 133.338955 19.0774 134.458716 19.0774 135.458178 24.8381073 136.161055 19.0774"></polygon>
                    <path d="M141.04276,21.1670268 C141.04276,20.5251 140.609987,20.1961976 140.086423,20.1961976 C139.54924,20.1961976 139.130843,20.5251 139.130843,21.1670268 L139.130843,26.1368561 C139.130843,26.748539 139.54924,27.0925634 140.086423,27.0925634 C140.609987,27.0925634 141.04276,26.748539 141.04276,26.1368561 L141.04276,21.1670268 Z M142.356966,26.1368561 C142.356966,27.5401732 141.326483,28.4059049 140.086423,28.4059049 C138.802481,28.4059049 137.816637,27.5401732 137.816637,26.1368561 L137.816637,21.1670268 C137.816637,19.7931976 138.802481,18.9577098 140.086423,18.9577098 C141.326483,18.9577098 142.356966,19.7931976 142.356966,21.1670268 L142.356966,26.1368561 Z" id="Fill-28" fill="#FFFFFF" mask="url(#mask-4)"></path>
                    <path d="M146.359658,19.2113805 L145.910997,20.3916488 C145.836094,20.3009171 145.702176,20.2706732 145.506975,20.2706732 C145.044695,20.2706732 144.627054,20.7039171 144.627054,21.3012341 L144.627054,28.1960878 L143.312848,28.1960878 L143.312848,19.0775512 L144.178393,19.0775512 L144.477248,19.6589902 C144.64143,19.3452098 144.999299,18.9573317 145.581878,18.9573317 C145.926128,18.9573317 146.193963,19.0473073 146.359658,19.2113805" id="Fill-29" fill="#FFFFFF" mask="url(#mask-4)"></path>
                    <polygon id="Fill-30" fill="#FFFFFF" mask="url(#mask-4)" points="151.66097 28.1960122 150.13643 28.1960122 148.226027 23.3312805 148.226027 28.1960122 146.911064 28.1960122 146.911064 16.4651585 148.226027 16.0326707 148.226027 21.7790122 149.942742 19.0774756 151.391622 19.0774756 149.211114 22.4799146"></polygon>
                </g>
            </g>
        </g>
    </g>
</svg>